<?xml version="1.0" encoding="UTF-8" standalone="no"?>
<!DOCTYPE svg PUBLIC "-//W3C//DTD SVG 1.1//EN"
 "http://www.w3.org/Graphics/SVG/1.1/DTD/svg11.dtd">
<!-- Generated by graphviz version 6.0.1 (20220911.2005)
 -->
<!-- Title: Models Pages: 1 -->
<svg width="239pt" height="161pt"
 viewBox="0.00 0.00 239.00 161.00" xmlns="http://www.w3.org/2000/svg" xmlns:xlink="http://www.w3.org/1999/xlink">
<g id="graph0" class="graph" transform="scale(1 1) rotate(0) translate(4 157)">
<title>Models</title>
<!-- Node2 -->
<g id="node1" class="node">
<title>Node2</title>
<g id="a_node1"><a xlink:href="group__ActivityModels.html" target="_top" xlink:title="The module in Reaktoro in which activity models for phases are implemented.">
<polygon fill="none" stroke="black" points="205.5,-153 113.5,-153 113.5,-134 205.5,-134 205.5,-153"/>
<text text-anchor="middle" x="159.5" y="-141" font-family="Helvetica,sans-Serif" font-size="10.00">Activity Models</text>
</a>
</g>
</g>
<!-- Node3 -->
<g id="node2" class="node">
<title>Node3</title>
<g id="a_node2"><a xlink:href="group__ReactionRateModels.html" target="_top" xlink:title="The module in Reaktoro in which kinetic rate models for reactions are implemented.">
<polygon fill="none" stroke="black" points="223.5,-115.5 95.5,-115.5 95.5,-85.5 223.5,-85.5 223.5,-115.5"/>
<text text-anchor="start" x="103.5" y="-103.5" font-family="Helvetica,sans-Serif" font-size="10.00">Reaction ReactionRate</text>
<text text-anchor="middle" x="159.5" y="-92.5" font-family="Helvetica,sans-Serif" font-size="10.00"> Models</text>
</a>
</g>
</g>
<!-- Node1 -->
<g id="node3" class="node">
<title>Node1</title>
<g id="a_node3"><a xlink:title="The module in Reaktoro in which various thermodynamic and reaction models are implemented.">
<polygon fill="#bfbfbf" stroke="black" points="52,-86 0,-86 0,-67 52,-67 52,-86"/>
<text text-anchor="middle" x="26" y="-74" font-family="Helvetica,sans-Serif" font-size="10.00">Models</text>
</a>
</g>
</g>
<!-- Node1&#45;&gt;Node2 -->
<g id="edge1" class="edge">
<title>Node1&#45;&gt;Node2</title>
<path fill="none" stroke="black" d="M44.05,-93.02C55.62,-103.4 71.72,-116.33 88,-124.5 95.93,-128.48 104.8,-131.7 113.49,-134.29"/>
<polygon fill="black" stroke="black" points="46.21,-90.25 36.5,-86.02 41.45,-95.38 46.21,-90.25"/>
</g>
<!-- Node1&#45;&gt;Node3 -->
<g id="edge2" class="edge">
<title>Node1&#45;&gt;Node3</title>
<path fill="none" stroke="black" d="M62.19,-82.92C72.41,-84.79 83.91,-86.89 95.31,-88.97"/>
<polygon fill="black" stroke="black" points="62.51,-79.42 52.04,-81.07 61.25,-86.31 62.51,-79.42"/>
</g>
<!-- Node4 -->
<g id="node4" class="node">
<title>Node4</title>
<g id="a_node4"><a xlink:href="group__StandardThermoModels.html" target="_top" xlink:title="The module in Reaktoro in which standard thermodynamic models for species and reactions are implement...">
<polygon fill="none" stroke="black" points="231,-67.5 88,-67.5 88,-37.5 231,-37.5 231,-67.5"/>
<text text-anchor="start" x="96" y="-55.5" font-family="Helvetica,sans-Serif" font-size="10.00">Standard Thermodynamic</text>
<text text-anchor="middle" x="159.5" y="-44.5" font-family="Helvetica,sans-Serif" font-size="10.00"> Models</text>
</a>
</g>
</g>
<!-- Node1&#45;&gt;Node4 -->
<g id="edge3" class="edge">
<title>Node1&#45;&gt;Node4</title>
<path fill="none" stroke="black" d="M62.07,-70.1C70.09,-68.64 78.89,-67.03 87.81,-65.4"/>
<polygon fill="black" stroke="black" points="61.25,-66.69 52.04,-71.93 62.51,-73.58 61.25,-66.69"/>
</g>
<!-- Node5 -->
<g id="node5" class="node">
<title>Node5</title>
<g id="a_node5"><a xlink:href="group__SurfaceAreaModels.html" target="_top" xlink:title="The module in Reaktoro in which surface area models are implemented.">
<polygon fill="none" stroke="black" points="218,-19 101,-19 101,0 218,0 218,-19"/>
<text text-anchor="middle" x="159.5" y="-7" font-family="Helvetica,sans-Serif" font-size="10.00">Surface Area Models</text>
</a>
</g>
</g>
<!-- Node1&#45;&gt;Node5 -->
<g id="edge4" class="edge">
<title>Node1&#45;&gt;Node5</title>
<path fill="none" stroke="black" d="M44.05,-59.98C55.62,-49.6 71.72,-36.67 88,-28.5 95.59,-24.69 104.04,-21.58 112.37,-19.05"/>
<polygon fill="black" stroke="black" points="41.45,-57.62 36.5,-66.98 46.21,-62.75 41.45,-57.62"/>
</g>
</g>
</svg>
