<?xml version="1.0" encoding="UTF-8" standalone="no"?>
<!DOCTYPE svg PUBLIC "-//W3C//DTD SVG 1.1//EN"
 "http://www.w3.org/Graphics/SVG/1.1/DTD/svg11.dtd">
<!-- Generated by graphviz version 6.0.1 (20220911.2005)
 -->
<!-- Title: SmartEquilibriumSolver::Record Pages: 1 -->
<!--zoomable 106 -->
<svg id="main" version="1.1" xmlns="http://www.w3.org/2000/svg" xmlns:xlink="http://www.w3.org/1999/xlink" xml:space="preserve" onload="init(evt)">
<style type="text/css"><![CDATA[
.edge:hover path { stroke: red; }
.edge:hover polygon { stroke: red; fill: red; }
]]></style>
<script type="text/javascript"><![CDATA[
var edges = document.getElementsByTagName('g');
if (edges && edges.length) {
  for (var i=0;i<edges.length;i++) {
    if (edges[i].id.substr(0,4)=='edge') {
      edges[i].setAttribute('class','edge');
    }
  }
}
]]></script>
        <defs>
                <circle id="rim" cx="0" cy="0" r="7"/>
                <circle id="rim2" cx="0" cy="0" r="3.5"/>
                <g id="zoomPlus">
                        <use xlink:href="#rim" fill="#404040">
                                <set attributeName="fill" to="#808080" begin="zoomplus.mouseover" end="zoomplus.mouseout"/>
                        </use>
                        <path d="M-4,0h8M0,-4v8" fill="none" stroke="white" stroke-width="1.5" pointer-events="none"/>
                </g>
                <g id="zoomMin">
                        <use xlink:href="#rim" fill="#404040">
                                <set attributeName="fill" to="#808080" begin="zoomminus.mouseover" end="zoomminus.mouseout"/>
                        </use>
                        <path d="M-4,0h8" fill="none" stroke="white" stroke-width="1.5" pointer-events="none"/>
                </g>
                <g id="dirArrow">
                        <path fill="none" stroke="white" stroke-width="1.5" d="M0,-3.0v7 M-2.5,-0.5L0,-3.0L2.5,-0.5"/>
                </g>
               <g id="resetDef">
                       <use xlink:href="#rim2" fill="#404040">
                               <set attributeName="fill" to="#808080" begin="reset.mouseover" end="reset.mouseout"/>
                       </use>
               </g>
        </defs>

<script type="text/javascript">
var viewWidth = 514;
var viewHeight = 106;
var sectionId = 'dynsection-0';
</script>
<script xlink:href="svgpan.js"/>
<svg id="graph" class="graph">
<g id="viewport">
<title>SmartEquilibriumSolver::Record</title>
<!-- Node1 -->
<g id="node1" class="node">
<title>Node1</title>
<g id="a_node1"><a xlink:title="The record of the knowledge database containing input, output, and derivatives data.">
<polygon fill="#bfbfbf" stroke="black" points="192,-0.5 192,-30.5 324,-30.5 324,-0.5 192,-0.5"/>
<text text-anchor="start" x="200" y="-18.5" font-family="Helvetica,sans-Serif" font-size="10.00">SmartEquilibriumSolver</text>
<text text-anchor="middle" x="258" y="-7.5" font-family="Helvetica,sans-Serif" font-size="10.00">::Record</text>
</a>
</g>
</g>
<!-- Node2 -->
<g id="node2" class="node">
<title>Node2</title>
<g id="a_node2"><a xlink:href="classReaktoro_1_1EquilibriumPredictor.html" target="_top" xlink:title="Used to predict a chemical equilibrium state at given conditions using first&#45;order Taylor approximati...">
<polygon fill="none" stroke="black" points="0,-78.5 0,-97.5 116,-97.5 116,-78.5 0,-78.5"/>
<text text-anchor="middle" x="58" y="-85.5" font-family="Helvetica,sans-Serif" font-size="10.00">EquilibriumPredictor</text>
</a>
</g>
</g>
<!-- Node2&#45;&gt;Node1 -->
<g id="edge1" class="edge">
<title>Node2&#45;&gt;Node1</title>
<path fill="none" stroke="#9a32cd" stroke-dasharray="5,2" d="M91.87,-75.06C126.82,-62.74 181.3,-43.54 218.27,-30.51"/>
<polygon fill="#9a32cd" stroke="#9a32cd" points="90.39,-71.87 82.12,-78.5 92.72,-78.47 90.39,-71.87"/>
<text text-anchor="middle" x="187.5" y="-52" font-family="Helvetica,sans-Serif" font-size="10.00"> predictor</text>
</g>
<!-- Node3 -->
<g id="node3" class="node">
<title>Node3</title>
<g id="a_node3"><a xlink:href="classReaktoro_1_1EquilibriumConditions.html" target="_top" xlink:title="The class used to define conditions to be satisfied at chemical equilibrium.">
<polygon fill="none" stroke="black" points="134,-78.5 134,-97.5 258,-97.5 258,-78.5 134,-78.5"/>
<text text-anchor="middle" x="196" y="-85.5" font-family="Helvetica,sans-Serif" font-size="10.00">EquilibriumConditions</text>
</a>
</g>
</g>
<!-- Node3&#45;&gt;Node1 -->
<g id="edge2" class="edge">
<title>Node3&#45;&gt;Node1</title>
<path fill="none" stroke="#9a32cd" stroke-dasharray="5,2" d="M210.3,-70.74C220.98,-58.6 235.43,-42.16 245.62,-30.58"/>
<polygon fill="#9a32cd" stroke="#9a32cd" points="207.58,-68.53 203.6,-78.36 212.83,-73.16 207.58,-68.53"/>
<text text-anchor="middle" x="256" y="-52" font-family="Helvetica,sans-Serif" font-size="10.00"> conditions</text>
</g>
<!-- Node4 -->
<g id="node4" class="node">
<title>Node4</title>
<g id="a_node4"><a xlink:href="classReaktoro_1_1ChemicalState.html" target="_top" xlink:title="The chemical state of a chemical system.">
<polygon fill="none" stroke="black" points="276,-78.5 276,-97.5 364,-97.5 364,-78.5 276,-78.5"/>
<text text-anchor="middle" x="320" y="-85.5" font-family="Helvetica,sans-Serif" font-size="10.00">ChemicalState</text>
</a>
</g>
</g>
<!-- Node4&#45;&gt;Node1 -->
<g id="edge3" class="edge">
<title>Node4&#45;&gt;Node1</title>
<path fill="none" stroke="#9a32cd" stroke-dasharray="5,2" d="M305.73,-70.47C299.94,-63.79 293.17,-56.01 287,-49 281.7,-42.98 275.82,-36.38 270.75,-30.7"/>
<polygon fill="#9a32cd" stroke="#9a32cd" points="303.24,-72.94 312.43,-78.22 308.54,-68.36 303.24,-72.94"/>
<text text-anchor="middle" x="310" y="-52" font-family="Helvetica,sans-Serif" font-size="10.00"> state</text>
</g>
<!-- Node5 -->
<g id="node5" class="node">
<title>Node5</title>
<g id="a_node5"><a xlink:href="classReaktoro_1_1EquilibriumSensitivity.html" target="_top" xlink:title="The sensitivity derivatives of a chemical equilibrium state.">
<polygon fill="none" stroke="black" points="382,-78.5 382,-97.5 506,-97.5 506,-78.5 382,-78.5"/>
<text text-anchor="middle" x="444" y="-85.5" font-family="Helvetica,sans-Serif" font-size="10.00">EquilibriumSensitivity</text>
</a>
</g>
</g>
<!-- Node5&#45;&gt;Node1 -->
<g id="edge4" class="edge">
<title>Node5&#45;&gt;Node1</title>
<path fill="none" stroke="#9a32cd" stroke-dasharray="5,2" d="M412.08,-74.9C379.56,-62.58 329.18,-43.48 294.95,-30.51"/>
<polygon fill="#9a32cd" stroke="#9a32cd" points="410.97,-78.22 421.56,-78.5 413.45,-71.68 410.97,-78.22"/>
<text text-anchor="middle" x="394.5" y="-52" font-family="Helvetica,sans-Serif" font-size="10.00"> sensitivity</text>
</g>
</g>
</svg>
        <g id="navigator" transform="translate(0 0)" fill="#404254">
                <rect fill="#f2f5e9" fill-opacity="0.5" stroke="#606060" stroke-width=".5" x="0" y="0" width="60" height="60"/>
                <use id="zoomplus" xlink:href="#zoomPlus" x="17" y="9" onmousedown="handleZoom(evt,'in')"/>
                <use id="zoomminus" xlink:href="#zoomMin" x="42" y="9" onmousedown="handleZoom(evt,'out')"/>
                <use id="reset" xlink:href="#resetDef" x="30" y="36" onmousedown="handleReset()"/>
                <g id="arrowUp" xlink:href="#dirArrow" transform="translate(30 24)" onmousedown="handlePan(0,-1)">
                  <use xlink:href="#rim" fill="#404040">
                        <set attributeName="fill" to="#808080" begin="arrowUp.mouseover" end="arrowUp.mouseout"/>
                  </use>
                  <path fill="none" stroke="white" stroke-width="1.5" d="M0,-3.0v7 M-2.5,-0.5L0,-3.0L2.5,-0.5"/>
                </g>
                <g id="arrowRight" xlink:href="#dirArrow" transform="rotate(90) translate(36 -43)" onmousedown="handlePan(1,0)">
                  <use xlink:href="#rim" fill="#404040">
                        <set attributeName="fill" to="#808080" begin="arrowRight.mouseover" end="arrowRight.mouseout"/>
                  </use>
                  <path fill="none" stroke="white" stroke-width="1.5" d="M0,-3.0v7 M-2.5,-0.5L0,-3.0L2.5,-0.5"/>
                </g>
                <g id="arrowDown" xlink:href="#dirArrow" transform="rotate(180) translate(-30 -48)" onmousedown="handlePan(0,1)">
                  <use xlink:href="#rim" fill="#404040">
                        <set attributeName="fill" to="#808080" begin="arrowDown.mouseover" end="arrowDown.mouseout"/>
                  </use>
                  <path fill="none" stroke="white" stroke-width="1.5" d="M0,-3.0v7 M-2.5,-0.5L0,-3.0L2.5,-0.5"/>
                </g>
                <g id="arrowLeft" xlink:href="#dirArrow" transform="rotate(270) translate(-36 17)" onmousedown="handlePan(-1,0)">
                  <use xlink:href="#rim" fill="#404040">
                        <set attributeName="fill" to="#808080" begin="arrowLeft.mouseover" end="arrowLeft.mouseout"/>
                  </use>
                  <path fill="none" stroke="white" stroke-width="1.5" d="M0,-3.0v7 M-2.5,-0.5L0,-3.0L2.5,-0.5"/>
                </g>
        </g>
        <svg viewBox="0 0 15 15" width="100%" height="30px" preserveAspectRatio="xMaxYMin meet">
         <g id="arrow_out" transform="scale(0.3 0.3)">
          <a xlink:href="structReaktoro_1_1SmartEquilibriumSolver_1_1Record__coll__graph_org.svg" target="_base">
           <rect id="button" ry="5" rx="5" y="6" x="6" height="38" width="38"
                fill="#f2f5e9" fill-opacity="0.5" stroke="#606060" stroke-width="1.0"/>
           <path id="arrow"
             d="M 11.500037,31.436501 C 11.940474,20.09759 22.043105,11.32322 32.158766,21.979434 L 37.068811,17.246167 C 37.068811,17.246167 37.088388,32 37.088388,32 L 22.160133,31.978069 C 22.160133,31.978069 26.997745,27.140456 26.997745,27.140456 C 18.528582,18.264221 13.291696,25.230495 11.500037,31.436501 z"
             style="fill:#404040;"/>
          </a>
         </g>
        </svg>
</svg>
