<?xml version="1.0" encoding="UTF-8" standalone="no"?>
<!DOCTYPE svg PUBLIC "-//W3C//DTD SVG 1.1//EN"
 "http://www.w3.org/Graphics/SVG/1.1/DTD/svg11.dtd">
<!-- Generated by graphviz version 6.0.1 (20220911.2005)
 -->
<!-- Title: MineralReactionRateModelArgs Pages: 1 -->
<svg width="202pt" height="95pt"
 viewBox="0.00 0.00 201.50 95.00" xmlns="http://www.w3.org/2000/svg" xmlns:xlink="http://www.w3.org/1999/xlink">
<g id="graph0" class="graph" transform="scale(1 1) rotate(0) translate(4 91)">
<title>MineralReactionRateModelArgs</title>
<!-- Node1 -->
<g id="node1" class="node">
<title>Node1</title>
<g id="a_node1"><a xlink:title="The data provided to a MineralReactionRateModel to evaluate the rate of a mineral reaction.">
<polygon fill="#bfbfbf" stroke="black" points="11,-0.5 11,-19.5 181,-19.5 181,-0.5 11,-0.5"/>
<text text-anchor="middle" x="96" y="-7.5" font-family="Helvetica,sans-Serif" font-size="10.00">MineralReactionRateModelArgs</text>
</a>
</g>
</g>
<!-- Node2 -->
<g id="node2" class="node">
<title>Node2</title>
<g id="a_node2"><a xlink:href="classReaktoro_1_1AqueousProps.html" target="_top" xlink:title="The chemical properties of an aqueous phase.">
<polygon fill="none" stroke="black" points="0,-67.5 0,-86.5 86,-86.5 86,-67.5 0,-67.5"/>
<text text-anchor="middle" x="43" y="-74.5" font-family="Helvetica,sans-Serif" font-size="10.00">AqueousProps</text>
</a>
</g>
</g>
<!-- Node2&#45;&gt;Node1 -->
<g id="edge1" class="edge">
<title>Node2&#45;&gt;Node1</title>
<path fill="none" stroke="#9a32cd" stroke-dasharray="5,2" d="M56.64,-59.27C66.97,-46.6 80.75,-29.7 88.97,-19.63"/>
<polygon fill="#9a32cd" stroke="#9a32cd" points="53.75,-57.27 50.15,-67.23 59.18,-61.7 53.75,-57.27"/>
<text text-anchor="middle" x="91.5" y="-41" font-family="Helvetica,sans-Serif" font-size="10.00"> aprops</text>
</g>
<!-- Node3 -->
<g id="node3" class="node">
<title>Node3</title>
<g id="a_node3"><a xlink:href="classReaktoro_1_1ChemicalProps.html" target="_top" xlink:title="The class that computes chemical properties of a chemical system.">
<polygon fill="none" stroke="black" points="104.5,-67.5 104.5,-86.5 193.5,-86.5 193.5,-67.5 104.5,-67.5"/>
<text text-anchor="middle" x="149" y="-74.5" font-family="Helvetica,sans-Serif" font-size="10.00">ChemicalProps</text>
</a>
</g>
</g>
<!-- Node3&#45;&gt;Node1 -->
<g id="edge2" class="edge">
<title>Node3&#45;&gt;Node1</title>
<path fill="none" stroke="#9a32cd" stroke-dasharray="5,2" d="M135.36,-59.27C125.03,-46.6 111.25,-29.7 103.03,-19.63"/>
<polygon fill="#9a32cd" stroke="#9a32cd" points="132.82,-61.7 141.85,-67.23 138.25,-57.27 132.82,-61.7"/>
<text text-anchor="middle" x="140.5" y="-41" font-family="Helvetica,sans-Serif" font-size="10.00"> props</text>
</g>
</g>
</svg>
