<?xml version="1.0" encoding="UTF-8" standalone="no"?>
<!DOCTYPE svg PUBLIC "-//W3C//DTD SVG 1.1//EN"
 "http://www.w3.org/Graphics/SVG/1.1/DTD/svg11.dtd">
<!-- Generated by graphviz version 3.0.0 (20220226.1711)
 -->
<!-- Title: Species::Attribs Pages: 1 -->
<svg width="628pt" height="209pt"
 viewBox="0.00 0.00 628.00 208.50" xmlns="http://www.w3.org/2000/svg" xmlns:xlink="http://www.w3.org/1999/xlink">
<g id="graph0" class="graph" transform="scale(1 1) rotate(0) translate(4 204.5)">
<title>Species::Attribs</title>
<!-- Node1 -->
<g id="node1" class="node">
<title>Node1</title>
<g id="a_node1"><a xlink:title="The attributes of a Species object.">
<polygon fill="#bfbfbf" stroke="black" points="534,-88 534,-107 620,-107 620,-88 534,-88"/>
<text text-anchor="middle" x="577" y="-95" font-family="Helvetica,sans-Serif" font-size="10.00">Species::Attribs</text>
</a>
</g>
</g>
<!-- Node2 -->
<g id="node2" class="node">
<title>Node2</title>
<g id="a_node2"><a xlink:title=" ">
<polygon fill="none" stroke="black" points="145,-149 145,-168 186,-168 186,-149 145,-149"/>
<text text-anchor="middle" x="165.5" y="-156" font-family="Helvetica,sans-Serif" font-size="10.00">string</text>
</a>
</g>
</g>
<!-- Node2&#45;&gt;Node1 -->
<g id="edge1" class="edge">
<title>Node2&#45;&gt;Node1</title>
<path fill="none" stroke="#9a32cd" stroke-dasharray="5,2" d="M196.17,-166.29C198.8,-166.78 201.44,-167.2 204,-167.5 222.98,-169.75 227.9,-168.24 247,-167.5 367.16,-162.83 404.22,-182.83 516,-138.5 534.76,-131.06 553.51,-116.9 564.93,-107.33"/>
<polygon fill="#9a32cd" stroke="#9a32cd" points="196.71,-162.83 186.19,-164.15 195.23,-169.67 196.71,-162.83"/>
<text text-anchor="middle" x="339.5" y="-192.5" font-family="Helvetica,sans-Serif" font-size="10.00"> formula</text>
<text text-anchor="middle" x="339.5" y="-181.5" font-family="Helvetica,sans-Serif" font-size="10.00">name</text>
<text text-anchor="middle" x="339.5" y="-170.5" font-family="Helvetica,sans-Serif" font-size="10.00">substance</text>
</g>
<!-- Node7 -->
<g id="node7" class="node">
<title>Node7</title>
<g id="a_node7"><a xlink:title=" ">
<polygon fill="none" stroke="black" points="287,-126 287,-145 392,-145 392,-126 287,-126"/>
<text text-anchor="middle" x="339.5" y="-133" font-family="Helvetica,sans-Serif" font-size="10.00">vector&lt; std::string &gt;</text>
</a>
</g>
</g>
<!-- Node2&#45;&gt;Node7 -->
<g id="edge7" class="edge">
<title>Node2&#45;&gt;Node7</title>
<path fill="none" stroke="#9a32cd" stroke-dasharray="5,2" d="M196.16,-154.53C221.04,-151.21 257.16,-146.38 286.79,-142.41"/>
<polygon fill="#9a32cd" stroke="#9a32cd" points="195.68,-151.07 186.23,-155.86 196.61,-158.01 195.68,-151.07"/>
<text text-anchor="middle" x="225.5" y="-155.5" font-family="Helvetica,sans-Serif" font-size="10.00"> elements</text>
</g>
<!-- Node3 -->
<g id="node3" class="node">
<title>Node3</title>
<g id="a_node3"><a xlink:title=" ">
<polygon fill="none" stroke="black" points="0,-149 0,-168 108,-168 108,-149 0,-149"/>
<text text-anchor="middle" x="54" y="-156" font-family="Helvetica,sans-Serif" font-size="10.00">basic_string&lt; Char &gt;</text>
</a>
</g>
</g>
<!-- Node3&#45;&gt;Node2 -->
<g id="edge2" class="edge">
<title>Node3&#45;&gt;Node2</title>
<path fill="none" stroke="midnightblue" d="M118.23,-158.5C127.84,-158.5 137.09,-158.5 144.76,-158.5"/>
<polygon fill="midnightblue" stroke="midnightblue" points="118.15,-155 108.15,-158.5 118.15,-162 118.15,-155"/>
</g>
<!-- Node4 -->
<g id="node4" class="node">
<title>Node4</title>
<g id="a_node4"><a xlink:href="class_reaktoro_1_1_elemental_composition.html" target="_top" xlink:title="A type used to describe the elemental composition of chemical species.">
<polygon fill="none" stroke="black" points="282,-88 282,-107 397,-107 397,-88 282,-88"/>
<text text-anchor="middle" x="339.5" y="-95" font-family="Helvetica,sans-Serif" font-size="10.00">ElementalComposition</text>
</a>
</g>
</g>
<!-- Node4&#45;&gt;Node1 -->
<g id="edge3" class="edge">
<title>Node4&#45;&gt;Node1</title>
<path fill="none" stroke="#9a32cd" stroke-dasharray="5,2" d="M407.31,-97.5C447.97,-97.5 498.66,-97.5 533.8,-97.5"/>
<polygon fill="#9a32cd" stroke="#9a32cd" points="407.21,-94 397.21,-97.5 407.21,-101 407.21,-94"/>
<text text-anchor="middle" x="474" y="-100.5" font-family="Helvetica,sans-Serif" font-size="10.00"> elements</text>
</g>
<!-- Node5 -->
<g id="node5" class="node">
<title>Node5</title>
<g id="a_node5"><a xlink:href="class_reaktoro_1_1_formation_reaction.html" target="_top" xlink:title="A class to represent a formation reaction of a chemical species.">
<polygon fill="none" stroke="black" points="290,-50 290,-69 389,-69 389,-50 290,-50"/>
<text text-anchor="middle" x="339.5" y="-57" font-family="Helvetica,sans-Serif" font-size="10.00">FormationReaction</text>
</a>
</g>
</g>
<!-- Node5&#45;&gt;Node1 -->
<g id="edge4" class="edge">
<title>Node5&#45;&gt;Node1</title>
<path fill="none" stroke="#9a32cd" stroke-dasharray="5,2" d="M399.44,-65.52C433.63,-69.43 477.42,-75.18 516,-82.5 524.02,-84.02 532.56,-85.96 540.62,-87.94"/>
<polygon fill="#9a32cd" stroke="#9a32cd" points="399.49,-62 389.16,-64.36 398.7,-68.96 399.49,-62"/>
<text text-anchor="middle" x="474" y="-85.5" font-family="Helvetica,sans-Serif" font-size="10.00"> formation_reaction</text>
</g>
<!-- Node6 -->
<g id="node6" class="node">
<title>Node6</title>
<g id="a_node6"><a xlink:href="class_reaktoro_1_1_model.html" target="_top" xlink:title=" ">
<polygon fill="none" stroke="#bfbfbf" points="265,-0.5 265,-30.5 414,-30.5 414,-0.5 265,-0.5"/>
<text text-anchor="start" x="273" y="-18.5" font-family="Helvetica,sans-Serif" font-size="10.00">Model&lt; StandardThermoProps</text>
<text text-anchor="middle" x="339.5" y="-7.5" font-family="Helvetica,sans-Serif" font-size="10.00">(real T, real P)&gt;</text>
</a>
</g>
</g>
<!-- Node6&#45;&gt;Node1 -->
<g id="edge5" class="edge">
<title>Node6&#45;&gt;Node1</title>
<path fill="none" stroke="#9a32cd" stroke-dasharray="5,2" d="M424.2,-27.73C453.99,-33.85 487.25,-42.75 516,-55.5 534.6,-63.75 553.39,-78.09 564.86,-87.69"/>
<polygon fill="#9a32cd" stroke="#9a32cd" points="424.74,-24.27 414.25,-25.76 423.38,-31.14 424.74,-24.27"/>
<text text-anchor="middle" x="474" y="-58.5" font-family="Helvetica,sans-Serif" font-size="10.00"> std_thermo_model</text>
</g>
<!-- Node7&#45;&gt;Node1 -->
<g id="edge6" class="edge">
<title>Node7&#45;&gt;Node1</title>
<path fill="none" stroke="#9a32cd" stroke-dasharray="5,2" d="M402.33,-128.48C436.05,-124.29 478.45,-118.43 516,-111.5 522.94,-110.22 530.29,-108.67 537.38,-107.07"/>
<polygon fill="#9a32cd" stroke="#9a32cd" points="401.65,-125.03 392.15,-129.72 402.5,-131.98 401.65,-125.03"/>
<text text-anchor="middle" x="474" y="-126.5" font-family="Helvetica,sans-Serif" font-size="10.00"> tags</text>
</g>
</g>
</svg>
