<?xml version="1.0" encoding="UTF-8" standalone="no"?>
<!DOCTYPE svg PUBLIC "-//W3C//DTD SVG 1.1//EN"
 "http://www.w3.org/Graphics/SVG/1.1/DTD/svg11.dtd">
<!-- Generated by graphviz version 6.0.1 (20220911.2005)
 -->
<!-- Title: EquationConstraint Pages: 1 -->
<svg width="230pt" height="152pt"
 viewBox="0.00 0.00 230.00 152.00" xmlns="http://www.w3.org/2000/svg" xmlns:xlink="http://www.w3.org/1999/xlink">
<g id="graph0" class="graph" transform="scale(1 1) rotate(0) translate(4 148)">
<title>EquationConstraint</title>
<!-- Node1 -->
<g id="node1" class="node">
<title>Node1</title>
<g id="a_node1"><a xlink:title="Used to define equation constraints in a chemical equilibrium problem.">
<polygon fill="#bfbfbf" stroke="black" points="40,-0.5 40,-19.5 150,-19.5 150,-0.5 40,-0.5"/>
<text text-anchor="middle" x="95" y="-7.5" font-family="Helvetica,sans-Serif" font-size="10.00">EquationConstraint</text>
</a>
</g>
</g>
<!-- Node2 -->
<g id="node2" class="node">
<title>Node2</title>
<g id="a_node2"><a xlink:href="structReaktoro_1_1EquationConstraintFn.html" target="_top" xlink:title="Used to define the function that evaluates the residual of an equation constraint in a chemical equil...">
<polygon fill="none" stroke="black" points="0,-67.5 0,-86.5 122,-86.5 122,-67.5 0,-67.5"/>
<text text-anchor="middle" x="61" y="-74.5" font-family="Helvetica,sans-Serif" font-size="10.00">EquationConstraintFn</text>
</a>
</g>
</g>
<!-- Node2&#45;&gt;Node1 -->
<g id="edge1" class="edge">
<title>Node2&#45;&gt;Node1</title>
<path fill="none" stroke="#9a32cd" stroke-dasharray="5,2" d="M70.33,-58.16C76.89,-45.63 85.37,-29.41 90.49,-19.63"/>
<polygon fill="#9a32cd" stroke="#9a32cd" points="67.12,-56.75 65.59,-67.23 73.32,-60 67.12,-56.75"/>
<text text-anchor="middle" x="86.5" y="-41" font-family="Helvetica,sans-Serif" font-size="10.00"> fn</text>
</g>
<!-- Node3 -->
<g id="node3" class="node">
<title>Node3</title>
<g id="a_node3"><a xlink:title=" ">
<polygon fill="none" stroke="#bfbfbf" points="140,-67.5 140,-86.5 184,-86.5 184,-67.5 140,-67.5"/>
<text text-anchor="middle" x="162" y="-74.5" font-family="Helvetica,sans-Serif" font-size="10.00">string</text>
</a>
</g>
</g>
<!-- Node3&#45;&gt;Node1 -->
<g id="edge2" class="edge">
<title>Node3&#45;&gt;Node1</title>
<path fill="none" stroke="#9a32cd" stroke-dasharray="5,2" d="M145.5,-60C132.36,-47.25 114.48,-29.89 103.89,-19.63"/>
<polygon fill="#9a32cd" stroke="#9a32cd" points="143.35,-62.78 152.96,-67.23 148.22,-57.76 143.35,-62.78"/>
<text text-anchor="middle" x="138.5" y="-41" font-family="Helvetica,sans-Serif" font-size="10.00"> id</text>
</g>
<!-- Node4 -->
<g id="node4" class="node">
<title>Node4</title>
<g id="a_node4"><a xlink:title=" ">
<polygon fill="none" stroke="#bfbfbf" points="102,-124.5 102,-143.5 222,-143.5 222,-124.5 102,-124.5"/>
<text text-anchor="middle" x="162" y="-131.5" font-family="Helvetica,sans-Serif" font-size="10.00">basic_string&lt; Char &gt;</text>
</a>
</g>
</g>
<!-- Node4&#45;&gt;Node3 -->
<g id="edge3" class="edge">
<title>Node4&#45;&gt;Node3</title>
<path fill="none" stroke="midnightblue" d="M162,-114.12C162,-104.82 162,-94.06 162,-86.71"/>
<polygon fill="midnightblue" stroke="midnightblue" points="158.5,-114.41 162,-124.41 165.5,-114.41 158.5,-114.41"/>
</g>
</g>
</svg>
