<?xml version="1.0" encoding="UTF-8" standalone="no"?>
<!DOCTYPE svg PUBLIC "-//W3C//DTD SVG 1.1//EN"
 "http://www.w3.org/Graphics/SVG/1.1/DTD/svg11.dtd">
<!-- Generated by graphviz version 3.0.0 (20220226.1711)
 -->
<!-- Title: PhreeqcWaterProps Pages: 1 -->
<svg width="298pt" height="95pt"
 viewBox="0.00 0.00 297.50 95.00" xmlns="http://www.w3.org/2000/svg" xmlns:xlink="http://www.w3.org/1999/xlink">
<g id="graph0" class="graph" transform="scale(1 1) rotate(0) translate(4 91)">
<title>PhreeqcWaterProps</title>
<!-- Node1 -->
<g id="node1" class="node">
<title>Node1</title>
<g id="a_node1"><a xlink:title="The thermodynamic and electrostatic properties of water computed in PHREEQC.">
<polygon fill="#bfbfbf" stroke="black" points="93.5,-0.5 93.5,-19.5 197.5,-19.5 197.5,-0.5 93.5,-0.5"/>
<text text-anchor="middle" x="145.5" y="-7.5" font-family="Helvetica,sans-Serif" font-size="10.00">PhreeqcWaterProps</text>
</a>
</g>
</g>
<!-- Node2 -->
<g id="node2" class="node">
<title>Node2</title>
<g id="a_node2"><a xlink:href="struct_reaktoro_1_1_phreeqc_utils_1_1_phreeqc_water_thermo_props.html" target="_top" xlink:title="The thermodynamic properties of water computed in PHREEQC.">
<polygon fill="none" stroke="black" points="0,-67.5 0,-86.5 137,-86.5 137,-67.5 0,-67.5"/>
<text text-anchor="middle" x="68.5" y="-74.5" font-family="Helvetica,sans-Serif" font-size="10.00">PhreeqcWaterThermoProps</text>
</a>
</g>
</g>
<!-- Node2&#45;&gt;Node1 -->
<g id="edge1" class="edge">
<title>Node2&#45;&gt;Node1</title>
<path fill="none" stroke="#9a32cd" stroke-dasharray="5,2" d="M86.61,-60.71C101.78,-47.91 122.89,-30.09 135.28,-19.63"/>
<polygon fill="#9a32cd" stroke="#9a32cd" points="84.27,-58.11 78.88,-67.23 88.78,-63.46 84.27,-58.11"/>
<text text-anchor="middle" x="122" y="-41" font-family="Helvetica,sans-Serif" font-size="10.00"> wtp</text>
</g>
<!-- Node3 -->
<g id="node3" class="node">
<title>Node3</title>
<g id="a_node3"><a xlink:href="struct_reaktoro_1_1_phreeqc_utils_1_1_phreeqc_water_electro_props.html" target="_top" xlink:title="The electrostatic properties of water computed in PHREEQC.">
<polygon fill="none" stroke="black" points="155.5,-67.5 155.5,-86.5 289.5,-86.5 289.5,-67.5 155.5,-67.5"/>
<text text-anchor="middle" x="222.5" y="-74.5" font-family="Helvetica,sans-Serif" font-size="10.00">PhreeqcWaterElectroProps</text>
</a>
</g>
</g>
<!-- Node3&#45;&gt;Node1 -->
<g id="edge2" class="edge">
<title>Node3&#45;&gt;Node1</title>
<path fill="none" stroke="#9a32cd" stroke-dasharray="5,2" d="M204.39,-60.71C189.22,-47.91 168.11,-30.09 155.72,-19.63"/>
<polygon fill="#9a32cd" stroke="#9a32cd" points="202.22,-63.46 212.12,-67.23 206.73,-58.11 202.22,-63.46"/>
<text text-anchor="middle" x="199.5" y="-41" font-family="Helvetica,sans-Serif" font-size="10.00"> wep</text>
</g>
</g>
</svg>
