<?xml version="1.0" encoding="UTF-8" standalone="no"?>
<!DOCTYPE svg PUBLIC "-//W3C//DTD SVG 1.1//EN"
 "http://www.w3.org/Graphics/SVG/1.1/DTD/svg11.dtd">
<!-- Generated by graphviz version 6.0.1 (20220911.2005)
 -->
<!-- Title: SmartEquilibriumSolver::Cell Pages: 1 -->
<svg width="222pt" height="106pt"
 viewBox="0.00 0.00 222.00 106.00" xmlns="http://www.w3.org/2000/svg" xmlns:xlink="http://www.w3.org/1999/xlink">
<g id="graph0" class="graph" transform="scale(1 1) rotate(0) translate(4 102)">
<title>SmartEquilibriumSolver::Cell</title>
<!-- Node1 -->
<g id="node1" class="node">
<title>Node1</title>
<g id="a_node1"><a xlink:title="The collection of clusters containing learned input&#45;output data associated to a temperature&#45;pressure ...">
<polygon fill="#bfbfbf" stroke="black" points="48.5,-0.5 48.5,-30.5 180.5,-30.5 180.5,-0.5 48.5,-0.5"/>
<text text-anchor="start" x="56.5" y="-18.5" font-family="Helvetica,sans-Serif" font-size="10.00">SmartEquilibriumSolver</text>
<text text-anchor="middle" x="114.5" y="-7.5" font-family="Helvetica,sans-Serif" font-size="10.00">::Cell</text>
</a>
</g>
</g>
<!-- Node2 -->
<g id="node2" class="node">
<title>Node2</title>
<g id="a_node2"><a xlink:href="classReaktoro_1_1ClusterConnectivity.html" target="_top" xlink:title=" ">
<polygon fill="none" stroke="black" points="0,-78.5 0,-97.5 113,-97.5 113,-78.5 0,-78.5"/>
<text text-anchor="middle" x="56.5" y="-85.5" font-family="Helvetica,sans-Serif" font-size="10.00">ClusterConnectivity</text>
</a>
</g>
</g>
<!-- Node2&#45;&gt;Node1 -->
<g id="edge1" class="edge">
<title>Node2&#45;&gt;Node1</title>
<path fill="none" stroke="#9a32cd" stroke-dasharray="5,2" d="M69.51,-70.21C74.73,-63.55 80.84,-55.87 86.5,-49 91.52,-42.91 97.19,-36.29 102.1,-30.63"/>
<polygon fill="#9a32cd" stroke="#9a32cd" points="66.46,-68.43 63.07,-78.47 71.98,-72.73 66.46,-68.43"/>
<text text-anchor="middle" x="118.5" y="-52" font-family="Helvetica,sans-Serif" font-size="10.00"> connectivity</text>
</g>
<!-- Node3 -->
<g id="node3" class="node">
<title>Node3</title>
<g id="a_node3"><a xlink:href="classReaktoro_1_1PriorityQueue.html" target="_top" xlink:title=" ">
<polygon fill="none" stroke="black" points="131,-78.5 131,-97.5 214,-97.5 214,-78.5 131,-78.5"/>
<text text-anchor="middle" x="172.5" y="-85.5" font-family="Helvetica,sans-Serif" font-size="10.00">PriorityQueue</text>
</a>
</g>
</g>
<!-- Node3&#45;&gt;Node1 -->
<g id="edge2" class="edge">
<title>Node3&#45;&gt;Node1</title>
<path fill="none" stroke="#9a32cd" stroke-dasharray="5,2" d="M163.8,-69.39C160.13,-62.7 155.53,-55.21 150.5,-49 145.2,-42.46 138.55,-36.07 132.41,-30.71"/>
<polygon fill="#9a32cd" stroke="#9a32cd" points="160.75,-71.11 168.48,-78.37 166.96,-67.88 160.75,-71.11"/>
<text text-anchor="middle" x="177" y="-52" font-family="Helvetica,sans-Serif" font-size="10.00"> priority</text>
</g>
</g>
</svg>
