<?xml version="1.0" encoding="UTF-8" standalone="no"?>
<!DOCTYPE svg PUBLIC "-//W3C//DTD SVG 1.1//EN"
 "http://www.w3.org/Graphics/SVG/1.1/DTD/svg11.dtd">
<!-- Generated by graphviz version 3.0.0 (20220226.1711)
 -->
<!-- Title: ControlVariableQ Pages: 1 -->
<svg width="194pt" height="163pt"
 viewBox="0.00 0.00 193.50 163.00" xmlns="http://www.w3.org/2000/svg" xmlns:xlink="http://www.w3.org/1999/xlink">
<g id="graph0" class="graph" transform="scale(1 1) rotate(0) translate(4 159)">
<title>ControlVariableQ</title>
<!-- Node1 -->
<g id="node1" class="node">
<title>Node1</title>
<g id="a_node1"><a xlink:title="Used to define a q control variable in a chemical equilibrium problem.">
<polygon fill="#bfbfbf" stroke="black" points="69,-0.5 69,-19.5 159,-19.5 159,-0.5 69,-0.5"/>
<text text-anchor="middle" x="114" y="-7.5" font-family="Helvetica,sans-Serif" font-size="10.00">ControlVariableQ</text>
</a>
</g>
</g>
<!-- Node2 -->
<g id="node2" class="node">
<title>Node2</title>
<g id="a_node2"><a xlink:title=" ">
<polygon fill="none" stroke="black" points="33.5,-78.5 33.5,-97.5 74.5,-97.5 74.5,-78.5 33.5,-78.5"/>
<text text-anchor="middle" x="54" y="-85.5" font-family="Helvetica,sans-Serif" font-size="10.00">string</text>
</a>
</g>
</g>
<!-- Node2&#45;&gt;Node1 -->
<g id="edge1" class="edge">
<title>Node2&#45;&gt;Node1</title>
<path fill="none" stroke="#9a32cd" stroke-dasharray="5,2" d="M67.42,-70.01C79.76,-54.37 97.57,-31.81 107.2,-19.62"/>
<polygon fill="#9a32cd" stroke="#9a32cd" points="64.33,-68.26 60.88,-78.28 69.83,-72.6 64.33,-68.26"/>
<text text-anchor="middle" x="103.5" y="-52" font-family="Helvetica,sans-Serif" font-size="10.00"> id</text>
<text text-anchor="middle" x="103.5" y="-41" font-family="Helvetica,sans-Serif" font-size="10.00">name</text>
</g>
<!-- Node3 -->
<g id="node3" class="node">
<title>Node3</title>
<g id="a_node3"><a xlink:title=" ">
<polygon fill="none" stroke="black" points="0,-135.5 0,-154.5 108,-154.5 108,-135.5 0,-135.5"/>
<text text-anchor="middle" x="54" y="-142.5" font-family="Helvetica,sans-Serif" font-size="10.00">basic_string&lt; Char &gt;</text>
</a>
</g>
</g>
<!-- Node3&#45;&gt;Node2 -->
<g id="edge2" class="edge">
<title>Node3&#45;&gt;Node2</title>
<path fill="none" stroke="midnightblue" d="M54,-125.12C54,-115.82 54,-105.06 54,-97.71"/>
<polygon fill="midnightblue" stroke="midnightblue" points="50.5,-125.41 54,-135.41 57.5,-125.41 50.5,-125.41"/>
</g>
<!-- Node4 -->
<g id="node4" class="node">
<title>Node4</title>
<g id="a_node4"><a xlink:href="class_reaktoro_1_1_chemical_formula.html" target="_top" xlink:title="A type used to represent the chemical formula of a chemical species.">
<polygon fill="none" stroke="black" points="92.5,-78.5 92.5,-97.5 185.5,-97.5 185.5,-78.5 92.5,-78.5"/>
<text text-anchor="middle" x="139" y="-85.5" font-family="Helvetica,sans-Serif" font-size="10.00">ChemicalFormula</text>
</a>
</g>
</g>
<!-- Node4&#45;&gt;Node1 -->
<g id="edge3" class="edge">
<title>Node4&#45;&gt;Node1</title>
<path fill="none" stroke="#9a32cd" stroke-dasharray="5,2" d="M132.97,-68.67C127.85,-53.11 120.73,-31.47 116.83,-19.62"/>
<polygon fill="#9a32cd" stroke="#9a32cd" points="129.68,-69.88 136.13,-78.28 136.33,-67.69 129.68,-69.88"/>
<text text-anchor="middle" x="153.5" y="-46.5" font-family="Helvetica,sans-Serif" font-size="10.00"> substance</text>
</g>
</g>
</svg>
