<?xml version="1.0" encoding="UTF-8" standalone="no"?>
<!DOCTYPE svg PUBLIC "-//W3C//DTD SVG 1.1//EN"
 "http://www.w3.org/Graphics/SVG/1.1/DTD/svg11.dtd">
<!-- Generated by graphviz version 2.49.1 (20211004.0028)
 -->
<!-- Title: EquilibriumProblem Pages: 1 -->
<svg width="280pt" height="84pt"
 viewBox="0.00 0.00 280.00 84.00" xmlns="http://www.w3.org/2000/svg" xmlns:xlink="http://www.w3.org/1999/xlink">
<g id="graph0" class="graph" transform="scale(1 1) rotate(0) translate(4 80)">
<title>EquilibriumProblem</title>
<polygon fill="white" stroke="transparent" points="-4,4 -4,-80 276,-80 276,4 -4,4"/>
<!-- Node1 -->
<g id="node1" class="node">
<title>Node1</title>
<g id="a_node1"><a xlink:title="The class used to define chemical equilibrium problems.">
<polygon fill="#bfbfbf" stroke="black" points="77.5,-0.5 77.5,-19.5 190.5,-19.5 190.5,-0.5 77.5,-0.5"/>
<text text-anchor="middle" x="134" y="-7.5" font-family="Helvetica,sans-Serif" font-size="10.00">EquilibriumProblem</text>
</a>
</g>
</g>
<!-- Node2 -->
<g id="node2" class="node">
<title>Node2</title>
<g id="a_node2"><a xlink:href="classReaktoro_1_1EquilibriumConditions.html" target="_top" xlink:title="The class used to define conditions to be satisfied at chemical equilibrium.">
<polygon fill="white" stroke="black" points="0,-56.5 0,-75.5 124,-75.5 124,-56.5 0,-56.5"/>
<text text-anchor="middle" x="62" y="-63.5" font-family="Helvetica,sans-Serif" font-size="10.00">EquilibriumConditions</text>
</a>
</g>
</g>
<!-- Node2&#45;&gt;Node1 -->
<g id="edge1" class="edge">
<title>Node2&#45;&gt;Node1</title>
<path fill="none" stroke="midnightblue" d="M81.87,-50.1C94.82,-40.38 111.3,-28.03 122.22,-19.83"/>
<polygon fill="midnightblue" stroke="midnightblue" points="79.47,-47.52 73.57,-56.32 83.67,-53.12 79.47,-47.52"/>
</g>
<!-- Node3 -->
<g id="node3" class="node">
<title>Node3</title>
<g id="a_node3"><a xlink:href="classReaktoro_1_1EquilibriumRestrictions.html" target="_top" xlink:title="The class used to define reactivity restrictions in a chemical equilibrium calculation.">
<polygon fill="white" stroke="black" points="142,-56.5 142,-75.5 272,-75.5 272,-56.5 142,-56.5"/>
<text text-anchor="middle" x="207" y="-63.5" font-family="Helvetica,sans-Serif" font-size="10.00">EquilibriumRestrictions</text>
</a>
</g>
</g>
<!-- Node3&#45;&gt;Node1 -->
<g id="edge2" class="edge">
<title>Node3&#45;&gt;Node1</title>
<path fill="none" stroke="midnightblue" d="M186.86,-50.1C173.72,-40.38 157.02,-28.03 145.94,-19.83"/>
<polygon fill="midnightblue" stroke="midnightblue" points="185.15,-53.19 195.27,-56.32 189.31,-47.56 185.15,-53.19"/>
</g>
</g>
</svg>
