<?xml version="1.0" encoding="UTF-8" standalone="no"?>
<!DOCTYPE svg PUBLIC "-//W3C//DTD SVG 1.1//EN"
 "http://www.w3.org/Graphics/SVG/1.1/DTD/svg11.dtd">
<!-- Generated by graphviz version 2.47.3 (20210619.2315)
 -->
<!-- Title: EquilibriumProblem Pages: 1 -->
<svg width="254pt" height="84pt"
 viewBox="0.00 0.00 254.00 84.00" xmlns="http://www.w3.org/2000/svg" xmlns:xlink="http://www.w3.org/1999/xlink">
<g id="graph0" class="graph" transform="scale(1 1) rotate(0) translate(4 80)">
<title>EquilibriumProblem</title>
<polygon fill="white" stroke="transparent" points="-4,4 -4,-80 250,-80 250,4 -4,4"/>
<!-- Node1 -->
<g id="node1" class="node">
<title>Node1</title>
<g id="a_node1"><a xlink:title="The class used to define chemical equilibrium problems.">
<polygon fill="#bfbfbf" stroke="black" points="71,-0.5 71,-19.5 172,-19.5 172,-0.5 71,-0.5"/>
<text text-anchor="middle" x="121.5" y="-7.5" font-family="Helvetica,sans-Serif" font-size="10.00">EquilibriumProblem</text>
</a>
</g>
</g>
<!-- Node2 -->
<g id="node2" class="node">
<title>Node2</title>
<g id="a_node2"><a xlink:href="classReaktoro_1_1EquilibriumConditions.html" target="_top" xlink:title="The class used to define conditions to be satisfied at chemical equilibrium.">
<polygon fill="white" stroke="black" points="0,-56.5 0,-75.5 111,-75.5 111,-56.5 0,-56.5"/>
<text text-anchor="middle" x="55.5" y="-63.5" font-family="Helvetica,sans-Serif" font-size="10.00">EquilibriumConditions</text>
</a>
</g>
</g>
<!-- Node2&#45;&gt;Node1 -->
<g id="edge1" class="edge">
<title>Node2&#45;&gt;Node1</title>
<path fill="none" stroke="midnightblue" d="M74.05,-49.82C85.88,-40.15 100.79,-27.95 110.7,-19.83"/>
<polygon fill="midnightblue" stroke="midnightblue" points="71.63,-47.28 66.1,-56.32 76.06,-52.7 71.63,-47.28"/>
</g>
<!-- Node3 -->
<g id="node3" class="node">
<title>Node3</title>
<g id="a_node3"><a xlink:href="classReaktoro_1_1EquilibriumRestrictions.html" target="_top" xlink:title="The class used to define reactivity restrictions in a chemical equilibrium calculation.">
<polygon fill="white" stroke="black" points="129,-56.5 129,-75.5 246,-75.5 246,-56.5 129,-56.5"/>
<text text-anchor="middle" x="187.5" y="-63.5" font-family="Helvetica,sans-Serif" font-size="10.00">EquilibriumRestrictions</text>
</a>
</g>
</g>
<!-- Node3&#45;&gt;Node1 -->
<g id="edge2" class="edge">
<title>Node3&#45;&gt;Node1</title>
<path fill="none" stroke="midnightblue" d="M168.95,-49.82C157.12,-40.15 142.21,-27.95 132.3,-19.83"/>
<polygon fill="midnightblue" stroke="midnightblue" points="166.94,-52.7 176.9,-56.32 171.37,-47.28 166.94,-52.7"/>
</g>
</g>
</svg>
