<?xml version="1.0" encoding="UTF-8" standalone="no"?>
<!DOCTYPE svg PUBLIC "-//W3C//DTD SVG 1.1//EN"
 "http://www.w3.org/Graphics/SVG/1.1/DTD/svg11.dtd">
<!-- Generated by graphviz version 2.49.1 (20211004.0028)
 -->
<!-- Title: Element::Attribs Pages: 1 -->
<svg width="227pt" height="221pt"
 viewBox="0.00 0.00 226.50 221.00" xmlns="http://www.w3.org/2000/svg" xmlns:xlink="http://www.w3.org/1999/xlink">
<g id="graph0" class="graph" transform="scale(1 1) rotate(0) translate(4 217)">
<title>Element::Attribs</title>
<polygon fill="white" stroke="transparent" points="-4,4 -4,-217 222.5,-217 222.5,4 -4,4"/>
<!-- Node1 -->
<g id="node1" class="node">
<title>Node1</title>
<g id="a_node1"><a xlink:title="The attributes of an Element object.">
<polygon fill="#bfbfbf" stroke="black" points="12.5,-0.5 12.5,-19.5 107.5,-19.5 107.5,-0.5 12.5,-0.5"/>
<text text-anchor="middle" x="60" y="-7.5" font-family="Helvetica,sans-Serif" font-size="10.00">Element::Attribs</text>
</a>
</g>
</g>
<!-- Node2 -->
<g id="node2" class="node">
<title>Node2</title>
<g id="a_node2"><a xlink:title=" ">
<polygon fill="white" stroke="#bfbfbf" points="38,-136.5 38,-155.5 82,-155.5 82,-136.5 38,-136.5"/>
<text text-anchor="middle" x="60" y="-143.5" font-family="Helvetica,sans-Serif" font-size="10.00">string</text>
</a>
</g>
</g>
<!-- Node2&#45;&gt;Node1 -->
<g id="edge1" class="edge">
<title>Node2&#45;&gt;Node1</title>
<path fill="none" stroke="#9a32cd" stroke-dasharray="5,2" d="M56.73,-126.32C54.34,-110.53 51.74,-87.31 53,-67 54.05,-50.18 56.85,-30.68 58.57,-19.7"/>
<polygon fill="#9a32cd" stroke="#9a32cd" points="53.3,-127.05 58.36,-136.36 60.21,-125.92 53.3,-127.05"/>
<text text-anchor="middle" x="71.5" y="-81" font-family="Helvetica,sans-Serif" font-size="10.00"> name</text>
<text text-anchor="middle" x="71.5" y="-70" font-family="Helvetica,sans-Serif" font-size="10.00">symbol</text>
</g>
<!-- Node4 -->
<g id="node4" class="node">
<title>Node4</title>
<g id="a_node4"><a xlink:title=" ">
<polygon fill="white" stroke="#bfbfbf" points="99.5,-68.5 99.5,-87.5 218.5,-87.5 218.5,-68.5 99.5,-68.5"/>
<text text-anchor="middle" x="159" y="-75.5" font-family="Helvetica,sans-Serif" font-size="10.00">vector&lt; std::string &gt;</text>
</a>
</g>
</g>
<!-- Node2&#45;&gt;Node4 -->
<g id="edge4" class="edge">
<title>Node2&#45;&gt;Node4</title>
<path fill="none" stroke="#9a32cd" stroke-dasharray="5,2" d="M81.28,-130.81C100.97,-117.69 129.6,-98.6 146.05,-87.63"/>
<polygon fill="#9a32cd" stroke="#9a32cd" points="79.32,-127.91 72.94,-136.37 83.2,-133.74 79.32,-127.91"/>
<text text-anchor="middle" x="139.5" y="-110" font-family="Helvetica,sans-Serif" font-size="10.00"> elements</text>
</g>
<!-- Node3 -->
<g id="node3" class="node">
<title>Node3</title>
<g id="a_node3"><a xlink:title=" ">
<polygon fill="white" stroke="#bfbfbf" points="0,-193.5 0,-212.5 120,-212.5 120,-193.5 0,-193.5"/>
<text text-anchor="middle" x="60" y="-200.5" font-family="Helvetica,sans-Serif" font-size="10.00">basic_string&lt; Char &gt;</text>
</a>
</g>
</g>
<!-- Node3&#45;&gt;Node2 -->
<g id="edge2" class="edge">
<title>Node3&#45;&gt;Node2</title>
<path fill="none" stroke="midnightblue" d="M60,-183.12C60,-173.82 60,-163.06 60,-155.71"/>
<polygon fill="midnightblue" stroke="midnightblue" points="56.5,-183.41 60,-193.41 63.5,-183.41 56.5,-183.41"/>
</g>
<!-- Node4&#45;&gt;Node1 -->
<g id="edge3" class="edge">
<title>Node4&#45;&gt;Node1</title>
<path fill="none" stroke="#9a32cd" stroke-dasharray="5,2" d="M137.72,-62.81C118.03,-49.69 89.4,-30.6 72.95,-19.63"/>
<polygon fill="#9a32cd" stroke="#9a32cd" points="135.8,-65.74 146.06,-68.37 139.68,-59.91 135.8,-65.74"/>
<text text-anchor="middle" x="127.5" y="-41" font-family="Helvetica,sans-Serif" font-size="10.00"> tags</text>
</g>
</g>
</svg>
