<?xml version="1.0" encoding="UTF-8" standalone="no"?>
<!DOCTYPE svg PUBLIC "-//W3C//DTD SVG 1.1//EN"
 "http://www.w3.org/Graphics/SVG/1.1/DTD/svg11.dtd">
<!-- Generated by graphviz version 2.47.3 (20210619.2315)
 -->
<!-- Title: StandardThermoModelParamsConstant Pages: 1 -->
<svg width="157pt" height="150pt"
 viewBox="0.00 0.00 157.00 150.00" xmlns="http://www.w3.org/2000/svg" xmlns:xlink="http://www.w3.org/1999/xlink">
<g id="graph0" class="graph" transform="scale(1 1) rotate(0) translate(4 146)">
<title>StandardThermoModelParamsConstant</title>
<polygon fill="white" stroke="transparent" points="-4,4 -4,-146 153,-146 153,4 -4,4"/>
<!-- Node1 -->
<g id="node1" class="node">
<title>Node1</title>
<g id="a_node1"><a xlink:title="The parameters in the constant model for calculating standard thermodynamic properties of species.">
<polygon fill="#bfbfbf" stroke="black" points="0,-0.5 0,-30.5 149,-30.5 149,-0.5 0,-0.5"/>
<text text-anchor="start" x="8" y="-18.5" font-family="Helvetica,sans-Serif" font-size="10.00">StandardThermoModelParams</text>
<text text-anchor="middle" x="74.5" y="-7.5" font-family="Helvetica,sans-Serif" font-size="10.00">Constant</text>
</a>
</g>
</g>
<!-- Node2 -->
<g id="node2" class="node">
<title>Node2</title>
<g id="a_node2"><a xlink:href="classReaktoro_1_1Param.html" target="_top" xlink:title="A type used to represent the value of a parameter and its lower and upper bounds.">
<polygon fill="white" stroke="black" points="52,-122.5 52,-141.5 97,-141.5 97,-122.5 52,-122.5"/>
<text text-anchor="middle" x="74.5" y="-129.5" font-family="Helvetica,sans-Serif" font-size="10.00">Param</text>
</a>
</g>
</g>
<!-- Node2&#45;&gt;Node1 -->
<g id="edge1" class="edge">
<title>Node2&#45;&gt;Node1</title>
<path fill="none" stroke="#9a32cd" stroke-dasharray="5,2" d="M74.5,-112.29C74.5,-89.48 74.5,-51.41 74.5,-30.81"/>
<polygon fill="#9a32cd" stroke="#9a32cd" points="71,-112.39 74.5,-122.39 78,-112.39 71,-112.39"/>
<text text-anchor="middle" x="85.5" y="-96" font-family="Helvetica,sans-Serif" font-size="10.00"> Cp0</text>
<text text-anchor="middle" x="85.5" y="-85" font-family="Helvetica,sans-Serif" font-size="10.00">Cv0</text>
<text text-anchor="middle" x="85.5" y="-74" font-family="Helvetica,sans-Serif" font-size="10.00">G0</text>
<text text-anchor="middle" x="85.5" y="-63" font-family="Helvetica,sans-Serif" font-size="10.00">H0</text>
<text text-anchor="middle" x="85.5" y="-52" font-family="Helvetica,sans-Serif" font-size="10.00">V0</text>
</g>
</g>
</svg>
