<?xml version="1.0" encoding="UTF-8" standalone="no"?>
<!DOCTYPE svg PUBLIC "-//W3C//DTD SVG 1.1//EN"
 "http://www.w3.org/Graphics/SVG/1.1/DTD/svg11.dtd">
<!-- Generated by graphviz version 2.47.3 (20210619.2315)
 -->
<!-- Title: SupcrtParamsMaierKellyHKF Pages: 1 -->
<svg width="153pt" height="152pt"
 viewBox="0.00 0.00 153.00 152.00" xmlns="http://www.w3.org/2000/svg" xmlns:xlink="http://www.w3.org/1999/xlink">
<g id="graph0" class="graph" transform="scale(1 1) rotate(0) translate(4 148)">
<title>SupcrtParamsMaierKellyHKF</title>
<polygon fill="white" stroke="transparent" points="-4,4 -4,-148 149,-148 149,4 -4,4"/>
<!-- Node1 -->
<g id="node1" class="node">
<title>Node1</title>
<g id="a_node1"><a xlink:title="The type used to store Maier&#45;Kelly&#45;HKF parameters based on SUPCRT databases for mineral species.">
<polygon fill="#bfbfbf" stroke="black" points="0,-0.5 0,-19.5 145,-19.5 145,-0.5 0,-0.5"/>
<text text-anchor="middle" x="72.5" y="-7.5" font-family="Helvetica,sans-Serif" font-size="10.00">SupcrtParamsMaierKellyHKF</text>
</a>
</g>
</g>
<!-- Node2 -->
<g id="node2" class="node">
<title>Node2</title>
<g id="a_node2"><a xlink:title=" ">
<polygon fill="white" stroke="#bfbfbf" points="52,-67.5 52,-86.5 93,-86.5 93,-67.5 52,-67.5"/>
<text text-anchor="middle" x="72.5" y="-74.5" font-family="Helvetica,sans-Serif" font-size="10.00">string</text>
</a>
</g>
</g>
<!-- Node2&#45;&gt;Node1 -->
<g id="edge1" class="edge">
<title>Node2&#45;&gt;Node1</title>
<path fill="none" stroke="#9a32cd" stroke-dasharray="5,2" d="M72.5,-57.04C72.5,-44.67 72.5,-29.12 72.5,-19.63"/>
<polygon fill="#9a32cd" stroke="#9a32cd" points="69,-57.23 72.5,-67.23 76,-57.23 69,-57.23"/>
<text text-anchor="middle" x="86.5" y="-41" font-family="Helvetica,sans-Serif" font-size="10.00"> name</text>
</g>
<!-- Node3 -->
<g id="node3" class="node">
<title>Node3</title>
<g id="a_node3"><a xlink:title=" ">
<polygon fill="white" stroke="#bfbfbf" points="18.5,-124.5 18.5,-143.5 126.5,-143.5 126.5,-124.5 18.5,-124.5"/>
<text text-anchor="middle" x="72.5" y="-131.5" font-family="Helvetica,sans-Serif" font-size="10.00">basic_string&lt; Char &gt;</text>
</a>
</g>
</g>
<!-- Node3&#45;&gt;Node2 -->
<g id="edge2" class="edge">
<title>Node3&#45;&gt;Node2</title>
<path fill="none" stroke="midnightblue" d="M72.5,-114.12C72.5,-104.82 72.5,-94.06 72.5,-86.71"/>
<polygon fill="midnightblue" stroke="midnightblue" points="69,-114.41 72.5,-124.41 76,-114.41 69,-114.41"/>
</g>
</g>
</svg>
