<?xml version="1.0" encoding="UTF-8" standalone="no"?>
<!DOCTYPE svg PUBLIC "-//W3C//DTD SVG 1.1//EN"
 "http://www.w3.org/Graphics/SVG/1.1/DTD/svg11.dtd">
<!-- Generated by graphviz version 2.47.3 (20210619.2315)
 -->
<!-- Title: EquilibriumConstraintEquation Pages: 1 -->
<svg width="156pt" height="152pt"
 viewBox="0.00 0.00 156.00 152.00" xmlns="http://www.w3.org/2000/svg" xmlns:xlink="http://www.w3.org/1999/xlink">
<g id="graph0" class="graph" transform="scale(1 1) rotate(0) translate(4 148)">
<title>EquilibriumConstraintEquation</title>
<polygon fill="white" stroke="transparent" points="-4,4 -4,-148 152,-148 152,4 -4,4"/>
<!-- Node1 -->
<g id="node1" class="node">
<title>Node1</title>
<g id="a_node1"><a xlink:title="The details of an equation constraint in a chemical equilibrium calculation.">
<polygon fill="#bfbfbf" stroke="black" points="0,-0.5 0,-19.5 148,-19.5 148,-0.5 0,-0.5"/>
<text text-anchor="middle" x="74" y="-7.5" font-family="Helvetica,sans-Serif" font-size="10.00">EquilibriumConstraintEquation</text>
</a>
</g>
</g>
<!-- Node2 -->
<g id="node2" class="node">
<title>Node2</title>
<g id="a_node2"><a xlink:title=" ">
<polygon fill="white" stroke="#bfbfbf" points="53.5,-67.5 53.5,-86.5 94.5,-86.5 94.5,-67.5 53.5,-67.5"/>
<text text-anchor="middle" x="74" y="-74.5" font-family="Helvetica,sans-Serif" font-size="10.00">string</text>
</a>
</g>
</g>
<!-- Node2&#45;&gt;Node1 -->
<g id="edge1" class="edge">
<title>Node2&#45;&gt;Node1</title>
<path fill="none" stroke="#9a32cd" stroke-dasharray="5,2" d="M74,-57.04C74,-44.67 74,-29.12 74,-19.63"/>
<polygon fill="#9a32cd" stroke="#9a32cd" points="70.5,-57.23 74,-67.23 77.5,-57.23 70.5,-57.23"/>
<text text-anchor="middle" x="88" y="-41" font-family="Helvetica,sans-Serif" font-size="10.00"> name</text>
</g>
<!-- Node3 -->
<g id="node3" class="node">
<title>Node3</title>
<g id="a_node3"><a xlink:title=" ">
<polygon fill="white" stroke="#bfbfbf" points="20,-124.5 20,-143.5 128,-143.5 128,-124.5 20,-124.5"/>
<text text-anchor="middle" x="74" y="-131.5" font-family="Helvetica,sans-Serif" font-size="10.00">basic_string&lt; Char &gt;</text>
</a>
</g>
</g>
<!-- Node3&#45;&gt;Node2 -->
<g id="edge2" class="edge">
<title>Node3&#45;&gt;Node2</title>
<path fill="none" stroke="midnightblue" d="M74,-114.12C74,-104.82 74,-94.06 74,-86.71"/>
<polygon fill="midnightblue" stroke="midnightblue" points="70.5,-114.41 74,-124.41 77.5,-114.41 70.5,-114.41"/>
</g>
</g>
</svg>
