<?xml version="1.0" encoding="UTF-8" standalone="no"?>
<!DOCTYPE svg PUBLIC "-//W3C//DTD SVG 1.1//EN"
 "http://www.w3.org/Graphics/SVG/1.1/DTD/svg11.dtd">
<!-- Generated by graphviz version 2.47.3 (20210619.2315)
 -->
<!-- Title: SupcrtblParamsAqueousSoluteHKF Pages: 1 -->
<svg width="181pt" height="152pt"
 viewBox="0.00 0.00 181.00 152.00" xmlns="http://www.w3.org/2000/svg" xmlns:xlink="http://www.w3.org/1999/xlink">
<g id="graph0" class="graph" transform="scale(1 1) rotate(0) translate(4 148)">
<title>SupcrtblParamsAqueousSoluteHKF</title>
<polygon fill="white" stroke="transparent" points="-4,4 -4,-148 177,-148 177,4 -4,4"/>
<!-- Node1 -->
<g id="node1" class="node">
<title>Node1</title>
<g id="a_node1"><a xlink:title="The SUPCRTBL parameters for calculating standard thermodynamic properties of aqueous solutes using HK...">
<polygon fill="#bfbfbf" stroke="black" points="0,-0.5 0,-19.5 173,-19.5 173,-0.5 0,-0.5"/>
<text text-anchor="middle" x="86.5" y="-7.5" font-family="Helvetica,sans-Serif" font-size="10.00">SupcrtblParamsAqueousSoluteHKF</text>
</a>
</g>
</g>
<!-- Node2 -->
<g id="node2" class="node">
<title>Node2</title>
<g id="a_node2"><a xlink:title=" ">
<polygon fill="white" stroke="#bfbfbf" points="66,-67.5 66,-86.5 107,-86.5 107,-67.5 66,-67.5"/>
<text text-anchor="middle" x="86.5" y="-74.5" font-family="Helvetica,sans-Serif" font-size="10.00">string</text>
</a>
</g>
</g>
<!-- Node2&#45;&gt;Node1 -->
<g id="edge1" class="edge">
<title>Node2&#45;&gt;Node1</title>
<path fill="none" stroke="#9a32cd" stroke-dasharray="5,2" d="M86.5,-57.04C86.5,-44.67 86.5,-29.12 86.5,-19.63"/>
<polygon fill="#9a32cd" stroke="#9a32cd" points="83,-57.23 86.5,-67.23 90,-57.23 83,-57.23"/>
<text text-anchor="middle" x="100.5" y="-41" font-family="Helvetica,sans-Serif" font-size="10.00"> name</text>
</g>
<!-- Node3 -->
<g id="node3" class="node">
<title>Node3</title>
<g id="a_node3"><a xlink:title=" ">
<polygon fill="white" stroke="#bfbfbf" points="32.5,-124.5 32.5,-143.5 140.5,-143.5 140.5,-124.5 32.5,-124.5"/>
<text text-anchor="middle" x="86.5" y="-131.5" font-family="Helvetica,sans-Serif" font-size="10.00">basic_string&lt; Char &gt;</text>
</a>
</g>
</g>
<!-- Node3&#45;&gt;Node2 -->
<g id="edge2" class="edge">
<title>Node3&#45;&gt;Node2</title>
<path fill="none" stroke="midnightblue" d="M86.5,-114.12C86.5,-104.82 86.5,-94.06 86.5,-86.71"/>
<polygon fill="midnightblue" stroke="midnightblue" points="83,-114.41 86.5,-124.41 90,-114.41 83,-114.41"/>
</g>
</g>
</svg>
