<?xml version="1.0" encoding="UTF-8" standalone="no"?>
<!DOCTYPE svg PUBLIC "-//W3C//DTD SVG 1.1//EN"
 "http://www.w3.org/Graphics/SVG/1.1/DTD/svg11.dtd">
<!-- Generated by graphviz version 2.47.3 (20210619.2315)
 -->
<!-- Title: Element::Attribs Pages: 1 -->
<svg width="202pt" height="221pt"
 viewBox="0.00 0.00 201.50 221.00" xmlns="http://www.w3.org/2000/svg" xmlns:xlink="http://www.w3.org/1999/xlink">
<g id="graph0" class="graph" transform="scale(1 1) rotate(0) translate(4 217)">
<title>Element::Attribs</title>
<polygon fill="white" stroke="transparent" points="-4,4 -4,-217 197.5,-217 197.5,4 -4,4"/>
<!-- Node1 -->
<g id="node1" class="node">
<title>Node1</title>
<g id="a_node1"><a xlink:title="The attributes of an Element object.">
<polygon fill="#bfbfbf" stroke="black" points="10.5,-0.5 10.5,-19.5 97.5,-19.5 97.5,-0.5 10.5,-0.5"/>
<text text-anchor="middle" x="54" y="-7.5" font-family="Helvetica,sans-Serif" font-size="10.00">Element::Attribs</text>
</a>
</g>
</g>
<!-- Node2 -->
<g id="node2" class="node">
<title>Node2</title>
<g id="a_node2"><a xlink:title=" ">
<polygon fill="white" stroke="#bfbfbf" points="33.5,-136.5 33.5,-155.5 74.5,-155.5 74.5,-136.5 33.5,-136.5"/>
<text text-anchor="middle" x="54" y="-143.5" font-family="Helvetica,sans-Serif" font-size="10.00">string</text>
</a>
</g>
</g>
<!-- Node2&#45;&gt;Node1 -->
<g id="edge1" class="edge">
<title>Node2&#45;&gt;Node1</title>
<path fill="none" stroke="#9a32cd" stroke-dasharray="5,2" d="M50.73,-126.32C48.34,-110.53 45.74,-87.31 47,-67 48.05,-50.18 50.85,-30.68 52.57,-19.7"/>
<polygon fill="#9a32cd" stroke="#9a32cd" points="47.3,-127.05 52.36,-136.36 54.21,-125.92 47.3,-127.05"/>
<text text-anchor="middle" x="63" y="-81" font-family="Helvetica,sans-Serif" font-size="10.00"> name</text>
<text text-anchor="middle" x="63" y="-70" font-family="Helvetica,sans-Serif" font-size="10.00">symbol</text>
</g>
<!-- Node4 -->
<g id="node4" class="node">
<title>Node4</title>
<g id="a_node4"><a xlink:title=" ">
<polygon fill="white" stroke="#bfbfbf" points="88.5,-68.5 88.5,-87.5 193.5,-87.5 193.5,-68.5 88.5,-68.5"/>
<text text-anchor="middle" x="141" y="-75.5" font-family="Helvetica,sans-Serif" font-size="10.00">vector&lt; std::string &gt;</text>
</a>
</g>
</g>
<!-- Node2&#45;&gt;Node4 -->
<g id="edge4" class="edge">
<title>Node2&#45;&gt;Node4</title>
<path fill="none" stroke="#9a32cd" stroke-dasharray="5,2" d="M73.65,-130.1C90.91,-117 115.42,-98.4 129.62,-87.63"/>
<polygon fill="#9a32cd" stroke="#9a32cd" points="71.23,-127.54 65.37,-136.37 75.46,-133.12 71.23,-127.54"/>
<text text-anchor="middle" x="123.5" y="-110" font-family="Helvetica,sans-Serif" font-size="10.00"> elements</text>
</g>
<!-- Node3 -->
<g id="node3" class="node">
<title>Node3</title>
<g id="a_node3"><a xlink:title=" ">
<polygon fill="white" stroke="#bfbfbf" points="0,-193.5 0,-212.5 108,-212.5 108,-193.5 0,-193.5"/>
<text text-anchor="middle" x="54" y="-200.5" font-family="Helvetica,sans-Serif" font-size="10.00">basic_string&lt; Char &gt;</text>
</a>
</g>
</g>
<!-- Node3&#45;&gt;Node2 -->
<g id="edge2" class="edge">
<title>Node3&#45;&gt;Node2</title>
<path fill="none" stroke="midnightblue" d="M54,-183.12C54,-173.82 54,-163.06 54,-155.71"/>
<polygon fill="midnightblue" stroke="midnightblue" points="50.5,-183.41 54,-193.41 57.5,-183.41 50.5,-183.41"/>
</g>
<!-- Node4&#45;&gt;Node1 -->
<g id="edge3" class="edge">
<title>Node4&#45;&gt;Node1</title>
<path fill="none" stroke="#9a32cd" stroke-dasharray="5,2" d="M121.35,-62.1C104.09,-49 79.58,-30.4 65.38,-19.63"/>
<polygon fill="#9a32cd" stroke="#9a32cd" points="119.54,-65.12 129.63,-68.37 123.77,-59.54 119.54,-65.12"/>
<text text-anchor="middle" x="113" y="-41" font-family="Helvetica,sans-Serif" font-size="10.00"> tags</text>
</g>
</g>
</svg>
