<?xml version="1.0" encoding="UTF-8" standalone="no"?>
<!DOCTYPE svg PUBLIC "-//W3C//DTD SVG 1.1//EN"
 "http://www.w3.org/Graphics/SVG/1.1/DTD/svg11.dtd">
<!-- Generated by graphviz version 2.47.3 (20210619.2315)
 -->
<!-- Title: isArrayAux&lt; Eigen::Array&lt; Scalar, Rows, 1, Options, MaxRows, 1 &gt; &gt; Pages: 1 -->
<svg width="126pt" height="117pt"
 viewBox="0.00 0.00 126.00 117.00" xmlns="http://www.w3.org/2000/svg" xmlns:xlink="http://www.w3.org/1999/xlink">
<g id="graph0" class="graph" transform="scale(1 1) rotate(0) translate(4 113)">
<title>isArrayAux&lt; Eigen::Array&lt; Scalar, Rows, 1, Options, MaxRows, 1 &gt; &gt;</title>
<polygon fill="white" stroke="transparent" points="-4,4 -4,-113 122,-113 122,4 -4,4"/>
<!-- Node1 -->
<g id="node1" class="node">
<title>Node1</title>
<g id="a_node1"><a xlink:title=" ">
<polygon fill="#bfbfbf" stroke="black" points="0,-0.5 0,-52.5 118,-52.5 118,-0.5 0,-0.5"/>
<text text-anchor="start" x="8" y="-40.5" font-family="Helvetica,sans-Serif" font-size="10.00">isArrayAux&lt; Eigen::</text>
<text text-anchor="start" x="8" y="-29.5" font-family="Helvetica,sans-Serif" font-size="10.00">Array&lt; Scalar, Rows,</text>
<text text-anchor="start" x="8" y="-18.5" font-family="Helvetica,sans-Serif" font-size="10.00"> 1, Options, MaxRows,</text>
<text text-anchor="middle" x="59" y="-7.5" font-family="Helvetica,sans-Serif" font-size="10.00"> 1 &gt; &gt;</text>
</a>
</g>
</g>
<!-- Node2 -->
<g id="node2" class="node">
<title>Node2</title>
<g id="a_node2"><a xlink:title=" ">
<polygon fill="white" stroke="#bfbfbf" points="30.5,-89.5 30.5,-108.5 87.5,-108.5 87.5,-89.5 30.5,-89.5"/>
<text text-anchor="middle" x="59" y="-96.5" font-family="Helvetica,sans-Serif" font-size="10.00">true_type</text>
</a>
</g>
</g>
<!-- Node2&#45;&gt;Node1 -->
<g id="edge1" class="edge">
<title>Node2&#45;&gt;Node1</title>
<path fill="none" stroke="midnightblue" d="M59,-79.1C59,-70.96 59,-61.33 59,-52.6"/>
<polygon fill="midnightblue" stroke="midnightblue" points="55.5,-79.36 59,-89.36 62.5,-79.36 55.5,-79.36"/>
</g>
</g>
</svg>
