<?xml version="1.0" encoding="UTF-8" standalone="no"?>
<!DOCTYPE svg PUBLIC "-//W3C//DTD SVG 1.1//EN"
 "http://www.w3.org/Graphics/SVG/1.1/DTD/svg11.dtd">
<!-- Generated by graphviz version 2.47.3 (20210619.2315)
 -->
<!-- Title: EquilibriumConstraintChemicalPotential Pages: 1 -->
<svg width="197pt" height="163pt"
 viewBox="0.00 0.00 196.50 163.00" xmlns="http://www.w3.org/2000/svg" xmlns:xlink="http://www.w3.org/1999/xlink">
<g id="graph0" class="graph" transform="scale(1 1) rotate(0) translate(4 159)">
<title>EquilibriumConstraintChemicalPotential</title>
<polygon fill="white" stroke="transparent" points="-4,4 -4,-159 192.5,-159 192.5,4 -4,4"/>
<!-- Node1 -->
<g id="node1" class="node">
<title>Node1</title>
<g id="a_node1"><a xlink:title="The details of a chemical potential constraint in a chemical equilibrium calculation.">
<polygon fill="#bfbfbf" stroke="black" points="37.5,-0.5 37.5,-30.5 188.5,-30.5 188.5,-0.5 37.5,-0.5"/>
<text text-anchor="start" x="45.5" y="-18.5" font-family="Helvetica,sans-Serif" font-size="10.00">EquilibriumConstraintChemical</text>
<text text-anchor="middle" x="113" y="-7.5" font-family="Helvetica,sans-Serif" font-size="10.00">Potential</text>
</a>
</g>
</g>
<!-- Node2 -->
<g id="node2" class="node">
<title>Node2</title>
<g id="a_node2"><a xlink:title=" ">
<polygon fill="white" stroke="#bfbfbf" points="33.5,-78.5 33.5,-97.5 74.5,-97.5 74.5,-78.5 33.5,-78.5"/>
<text text-anchor="middle" x="54" y="-85.5" font-family="Helvetica,sans-Serif" font-size="10.00">string</text>
</a>
</g>
</g>
<!-- Node2&#45;&gt;Node1 -->
<g id="edge1" class="edge">
<title>Node2&#45;&gt;Node1</title>
<path fill="none" stroke="#9a32cd" stroke-dasharray="5,2" d="M67.9,-70.39C78.03,-58.28 91.62,-42.05 101.22,-30.58"/>
<polygon fill="#9a32cd" stroke="#9a32cd" points="64.97,-68.44 61.23,-78.36 70.34,-72.93 64.97,-68.44"/>
<text text-anchor="middle" x="100" y="-52" font-family="Helvetica,sans-Serif" font-size="10.00"> name</text>
</g>
<!-- Node3 -->
<g id="node3" class="node">
<title>Node3</title>
<g id="a_node3"><a xlink:title=" ">
<polygon fill="white" stroke="#bfbfbf" points="0,-135.5 0,-154.5 108,-154.5 108,-135.5 0,-135.5"/>
<text text-anchor="middle" x="54" y="-142.5" font-family="Helvetica,sans-Serif" font-size="10.00">basic_string&lt; Char &gt;</text>
</a>
</g>
</g>
<!-- Node3&#45;&gt;Node2 -->
<g id="edge2" class="edge">
<title>Node3&#45;&gt;Node2</title>
<path fill="none" stroke="midnightblue" d="M54,-125.12C54,-115.82 54,-105.06 54,-97.71"/>
<polygon fill="midnightblue" stroke="midnightblue" points="50.5,-125.41 54,-135.41 57.5,-125.41 50.5,-125.41"/>
</g>
<!-- Node4 -->
<g id="node4" class="node">
<title>Node4</title>
<g id="a_node4"><a xlink:href="classReaktoro_1_1ChemicalFormula.html" target="_top" xlink:title="A type used to represent the chemical formula of a chemical species.">
<polygon fill="white" stroke="black" points="92.5,-78.5 92.5,-97.5 185.5,-97.5 185.5,-78.5 92.5,-78.5"/>
<text text-anchor="middle" x="139" y="-85.5" font-family="Helvetica,sans-Serif" font-size="10.00">ChemicalFormula</text>
</a>
</g>
</g>
<!-- Node4&#45;&gt;Node1 -->
<g id="edge3" class="edge">
<title>Node4&#45;&gt;Node1</title>
<path fill="none" stroke="#9a32cd" stroke-dasharray="5,2" d="M132.35,-68.96C127.95,-57.03 122.26,-41.61 118.19,-30.58"/>
<polygon fill="#9a32cd" stroke="#9a32cd" points="129.07,-70.18 135.81,-78.36 135.64,-67.76 129.07,-70.18"/>
<text text-anchor="middle" x="152.5" y="-52" font-family="Helvetica,sans-Serif" font-size="10.00"> substance</text>
</g>
</g>
</svg>
