<?xml version="1.0" encoding="UTF-8" standalone="no"?>
<!DOCTYPE svg PUBLIC "-//W3C//DTD SVG 1.1//EN"
 "http://www.w3.org/Graphics/SVG/1.1/DTD/svg11.dtd">
<!-- Generated by graphviz version 2.47.3 (20210619.2315)
 -->
<!-- Title: PhreeqcWaterProps Pages: 1 -->
<svg width="298pt" height="95pt"
 viewBox="0.00 0.00 297.50 95.00" xmlns="http://www.w3.org/2000/svg" xmlns:xlink="http://www.w3.org/1999/xlink">
<g id="graph0" class="graph" transform="scale(1 1) rotate(0) translate(4 91)">
<title>PhreeqcWaterProps</title>
<polygon fill="white" stroke="transparent" points="-4,4 -4,-91 293.5,-91 293.5,4 -4,4"/>
<!-- Node1 -->
<g id="node1" class="node">
<title>Node1</title>
<g id="a_node1"><a xlink:title="The thermodynamic and electrostatic properties of water computed in PHREEQC.">
<polygon fill="#bfbfbf" stroke="black" points="92,-0.5 92,-19.5 196,-19.5 196,-0.5 92,-0.5"/>
<text text-anchor="middle" x="144" y="-7.5" font-family="Helvetica,sans-Serif" font-size="10.00">PhreeqcWaterProps</text>
</a>
</g>
</g>
<!-- Node2 -->
<g id="node2" class="node">
<title>Node2</title>
<g id="a_node2"><a xlink:href="structReaktoro_1_1PhreeqcUtils_1_1PhreeqcWaterElectroProps.html" target="_top" xlink:title="The electrostatic properties of water computed in PHREEQC.">
<polygon fill="white" stroke="black" points="0,-67.5 0,-86.5 134,-86.5 134,-67.5 0,-67.5"/>
<text text-anchor="middle" x="67" y="-74.5" font-family="Helvetica,sans-Serif" font-size="10.00">PhreeqcWaterElectroProps</text>
</a>
</g>
</g>
<!-- Node2&#45;&gt;Node1 -->
<g id="edge1" class="edge">
<title>Node2&#45;&gt;Node1</title>
<path fill="none" stroke="#9a32cd" stroke-dasharray="5,2" d="M85.11,-60.71C100.28,-47.91 121.39,-30.09 133.78,-19.63"/>
<polygon fill="#9a32cd" stroke="#9a32cd" points="82.77,-58.11 77.38,-67.23 87.28,-63.46 82.77,-58.11"/>
<text text-anchor="middle" x="122" y="-41" font-family="Helvetica,sans-Serif" font-size="10.00"> wep</text>
</g>
<!-- Node3 -->
<g id="node3" class="node">
<title>Node3</title>
<g id="a_node3"><a xlink:href="structReaktoro_1_1PhreeqcUtils_1_1PhreeqcWaterThermoProps.html" target="_top" xlink:title="The thermodynamic properties of water computed in PHREEQC.">
<polygon fill="white" stroke="black" points="152.5,-67.5 152.5,-86.5 289.5,-86.5 289.5,-67.5 152.5,-67.5"/>
<text text-anchor="middle" x="221" y="-74.5" font-family="Helvetica,sans-Serif" font-size="10.00">PhreeqcWaterThermoProps</text>
</a>
</g>
</g>
<!-- Node3&#45;&gt;Node1 -->
<g id="edge2" class="edge">
<title>Node3&#45;&gt;Node1</title>
<path fill="none" stroke="#9a32cd" stroke-dasharray="5,2" d="M202.89,-60.71C187.72,-47.91 166.61,-30.09 154.22,-19.63"/>
<polygon fill="#9a32cd" stroke="#9a32cd" points="200.72,-63.46 210.62,-67.23 205.23,-58.11 200.72,-63.46"/>
<text text-anchor="middle" x="196.5" y="-41" font-family="Helvetica,sans-Serif" font-size="10.00"> wtp</text>
</g>
</g>
</svg>
