<?xml version="1.0" encoding="UTF-8" standalone="no"?>
<!DOCTYPE svg PUBLIC "-//W3C//DTD SVG 1.1//EN"
 "http://www.w3.org/Graphics/SVG/1.1/DTD/svg11.dtd">
<!-- Generated by graphviz version 2.47.3 (20210619.2315)
 -->
<!-- Title: DissociationReaction Pages: 1 -->
<svg width="260pt" height="117pt"
 viewBox="0.00 0.00 260.00 117.00" xmlns="http://www.w3.org/2000/svg" xmlns:xlink="http://www.w3.org/1999/xlink">
<g id="graph0" class="graph" transform="scale(1 1) rotate(0) translate(4 113)">
<title>DissociationReaction</title>
<polygon fill="white" stroke="transparent" points="-4,4 -4,-113 256,-113 256,4 -4,4"/>
<!-- Node1 -->
<g id="node1" class="node">
<title>Node1</title>
<g id="a_node1"><a xlink:title="A type used to represent a dissociation reaction of a neutral substance into ions.">
<polygon fill="#bfbfbf" stroke="black" points="82.5,-0.5 82.5,-19.5 192.5,-19.5 192.5,-0.5 82.5,-0.5"/>
<text text-anchor="middle" x="137.5" y="-7.5" font-family="Helvetica,sans-Serif" font-size="10.00">DissociationReaction</text>
</a>
</g>
</g>
<!-- Node2 -->
<g id="node2" class="node">
<title>Node2</title>
<g id="a_node2"><a xlink:title=" ">
<polygon fill="white" stroke="#bfbfbf" points="0,-67.5 0,-108.5 141,-108.5 141,-67.5 0,-67.5"/>
<text text-anchor="start" x="8" y="-96.5" font-family="Helvetica,sans-Serif" font-size="10.00">vector&lt; std::pair&lt;</text>
<text text-anchor="start" x="8" y="-85.5" font-family="Helvetica,sans-Serif" font-size="10.00"> double, Reaktoro::Chemical</text>
<text text-anchor="middle" x="70.5" y="-74.5" font-family="Helvetica,sans-Serif" font-size="10.00">Formula &gt; &gt;</text>
</a>
</g>
</g>
<!-- Node2&#45;&gt;Node1 -->
<g id="edge1" class="edge">
<title>Node2&#45;&gt;Node1</title>
<path fill="none" stroke="#9a32cd" stroke-dasharray="5,2" d="M94.45,-59.83C106.95,-45.65 121.38,-29.28 129.96,-19.55"/>
<polygon fill="#9a32cd" stroke="#9a32cd" points="91.74,-57.61 87.75,-67.43 96.99,-62.24 91.74,-57.61"/>
<text text-anchor="middle" x="123.5" y="-41" font-family="Helvetica,sans-Serif" font-size="10.00"> ions</text>
</g>
<!-- Node3 -->
<g id="node3" class="node">
<title>Node3</title>
<g id="a_node3"><a xlink:href="classReaktoro_1_1ChemicalFormula.html" target="_top" xlink:title="A type used to represent the chemical formula of a chemical species.">
<polygon fill="white" stroke="black" points="159,-78.5 159,-97.5 252,-97.5 252,-78.5 159,-78.5"/>
<text text-anchor="middle" x="205.5" y="-85.5" font-family="Helvetica,sans-Serif" font-size="10.00">ChemicalFormula</text>
</a>
</g>
</g>
<!-- Node3&#45;&gt;Node1 -->
<g id="edge2" class="edge">
<title>Node3&#45;&gt;Node1</title>
<path fill="none" stroke="#9a32cd" stroke-dasharray="5,2" d="M190.69,-70.44C176.68,-54.79 156.23,-31.93 145.21,-19.62"/>
<polygon fill="#9a32cd" stroke="#9a32cd" points="188.42,-73.16 197.7,-78.28 193.64,-68.5 188.42,-73.16"/>
<text text-anchor="middle" x="191.5" y="-41" font-family="Helvetica,sans-Serif" font-size="10.00"> complex</text>
</g>
</g>
</svg>
