<?xml version="1.0" encoding="UTF-8" standalone="no"?>
<!DOCTYPE svg PUBLIC "-//W3C//DTD SVG 1.1//EN"
 "http://www.w3.org/Graphics/SVG/1.1/DTD/svg11.dtd">
<!-- Generated by graphviz version 2.47.3 (20210619.2315)
 -->
<!-- Title: isArrayAux&lt; Eigen::VectorBlock&lt; Vec, Size &gt; &gt; Pages: 1 -->
<svg width="146pt" height="162pt"
 viewBox="0.00 0.00 146.00 162.00" xmlns="http://www.w3.org/2000/svg" xmlns:xlink="http://www.w3.org/1999/xlink">
<g id="graph0" class="graph" transform="scale(1 1) rotate(0) translate(4 158)">
<title>isArrayAux&lt; Eigen::VectorBlock&lt; Vec, Size &gt; &gt;</title>
<polygon fill="white" stroke="transparent" points="-4,4 -4,-158 142,-158 142,4 -4,4"/>
<!-- Node1 -->
<g id="node1" class="node">
<title>Node1</title>
<g id="a_node1"><a xlink:title=" ">
<polygon fill="#bfbfbf" stroke="black" points="0,-0.5 0,-30.5 138,-30.5 138,-0.5 0,-0.5"/>
<text text-anchor="start" x="8" y="-18.5" font-family="Helvetica,sans-Serif" font-size="10.00">isArrayAux&lt; Eigen::</text>
<text text-anchor="middle" x="69" y="-7.5" font-family="Helvetica,sans-Serif" font-size="10.00">VectorBlock&lt; Vec, Size &gt; &gt;</text>
</a>
</g>
</g>
<!-- Node2 -->
<g id="node2" class="node">
<title>Node2</title>
<g id="a_node2"><a xlink:href="structReaktoro_1_1detail_1_1isArrayAux.html" target="_top" xlink:title=" ">
<polygon fill="white" stroke="black" points="15,-67.5 15,-97.5 123,-97.5 123,-67.5 15,-67.5"/>
<text text-anchor="start" x="23" y="-85.5" font-family="Helvetica,sans-Serif" font-size="10.00">isArrayAux&lt; Decay&lt;</text>
<text text-anchor="middle" x="69" y="-74.5" font-family="Helvetica,sans-Serif" font-size="10.00"> Vec &gt; &gt;</text>
</a>
</g>
</g>
<!-- Node2&#45;&gt;Node1 -->
<g id="edge1" class="edge">
<title>Node2&#45;&gt;Node1</title>
<path fill="none" stroke="midnightblue" d="M69,-57.11C69,-48.15 69,-38.32 69,-30.58"/>
<polygon fill="midnightblue" stroke="midnightblue" points="65.5,-57.4 69,-67.4 72.5,-57.4 65.5,-57.4"/>
</g>
<!-- Node3 -->
<g id="node3" class="node">
<title>Node3</title>
<g id="a_node3"><a xlink:title=" ">
<polygon fill="white" stroke="#bfbfbf" points="38,-134.5 38,-153.5 100,-153.5 100,-134.5 38,-134.5"/>
<text text-anchor="middle" x="69" y="-141.5" font-family="Helvetica,sans-Serif" font-size="10.00">false_type</text>
</a>
</g>
</g>
<!-- Node3&#45;&gt;Node2 -->
<g id="edge2" class="edge">
<title>Node3&#45;&gt;Node2</title>
<path fill="none" stroke="midnightblue" d="M69,-124.23C69,-115.59 69,-105.5 69,-97.52"/>
<polygon fill="midnightblue" stroke="midnightblue" points="65.5,-124.48 69,-134.48 72.5,-124.48 65.5,-124.48"/>
</g>
</g>
</svg>
