<?xml version="1.0" encoding="UTF-8" standalone="no"?>
<!DOCTYPE svg PUBLIC "-//W3C//DTD SVG 1.1//EN"
 "http://www.w3.org/Graphics/SVG/1.1/DTD/svg11.dtd">
<!-- Generated by graphviz version 2.47.3 (20210619.2315)
 -->
<!-- Title: Species::Attribs Pages: 1 -->
<svg width="628pt" height="223pt"
 viewBox="0.00 0.00 628.00 222.50" xmlns="http://www.w3.org/2000/svg" xmlns:xlink="http://www.w3.org/1999/xlink">
<g id="graph0" class="graph" transform="scale(1 1) rotate(0) translate(4 218.5)">
<title>Species::Attribs</title>
<polygon fill="white" stroke="transparent" points="-4,4 -4,-218.5 624,-218.5 624,4 -4,4"/>
<!-- Node1 -->
<g id="node1" class="node">
<title>Node1</title>
<g id="a_node1"><a xlink:title="The attributes of a Species object.">
<polygon fill="#bfbfbf" stroke="black" points="534,-96 534,-115 620,-115 620,-96 534,-96"/>
<text text-anchor="middle" x="577" y="-103" font-family="Helvetica,sans-Serif" font-size="10.00">Species::Attribs</text>
</a>
</g>
</g>
<!-- Node2 -->
<g id="node2" class="node">
<title>Node2</title>
<g id="a_node2"><a xlink:href="classReaktoro_1_1ElementalComposition.html" target="_top" xlink:title="A type used to describe the elemental composition of chemical species.">
<polygon fill="white" stroke="black" points="282,-195 282,-214 397,-214 397,-195 282,-195"/>
<text text-anchor="middle" x="339.5" y="-202" font-family="Helvetica,sans-Serif" font-size="10.00">ElementalComposition</text>
</a>
</g>
</g>
<!-- Node2&#45;&gt;Node1 -->
<g id="edge1" class="edge">
<title>Node2&#45;&gt;Node1</title>
<path fill="none" stroke="#9a32cd" stroke-dasharray="5,2" d="M406.85,-193.13C440.84,-185.56 482.09,-173.6 516,-155.5 536.1,-144.77 555.66,-126.59 566.73,-115.36"/>
<polygon fill="#9a32cd" stroke="#9a32cd" points="406.05,-189.72 397.01,-195.24 407.52,-196.56 406.05,-189.72"/>
<text text-anchor="middle" x="474" y="-189.5" font-family="Helvetica,sans-Serif" font-size="10.00"> elements</text>
</g>
<!-- Node3 -->
<g id="node3" class="node">
<title>Node3</title>
<g id="a_node3"><a xlink:href="classReaktoro_1_1FormationReaction.html" target="_top" xlink:title="A class to represent a formation reaction of a chemical species.">
<polygon fill="white" stroke="black" points="290,-157 290,-176 389,-176 389,-157 290,-157"/>
<text text-anchor="middle" x="339.5" y="-164" font-family="Helvetica,sans-Serif" font-size="10.00">FormationReaction</text>
</a>
</g>
</g>
<!-- Node3&#45;&gt;Node1 -->
<g id="edge2" class="edge">
<title>Node3&#45;&gt;Node1</title>
<path fill="none" stroke="#9a32cd" stroke-dasharray="5,2" d="M387.02,-154.45C431.6,-142.9 498.01,-125.7 539.07,-115.06"/>
<polygon fill="#9a32cd" stroke="#9a32cd" points="386.1,-151.07 377.3,-156.97 387.86,-157.85 386.1,-151.07"/>
<text text-anchor="middle" x="474" y="-143.5" font-family="Helvetica,sans-Serif" font-size="10.00"> formation_reaction</text>
</g>
<!-- Node4 -->
<g id="node4" class="node">
<title>Node4</title>
<g id="a_node4"><a xlink:title=" ">
<polygon fill="white" stroke="#bfbfbf" points="145,-73 145,-92 186,-92 186,-73 145,-73"/>
<text text-anchor="middle" x="165.5" y="-80" font-family="Helvetica,sans-Serif" font-size="10.00">string</text>
</a>
</g>
</g>
<!-- Node4&#45;&gt;Node1 -->
<g id="edge3" class="edge">
<title>Node4&#45;&gt;Node1</title>
<path fill="none" stroke="#9a32cd" stroke-dasharray="5,2" d="M196.18,-90.19C198.81,-90.7 201.45,-91.15 204,-91.5 322.77,-107.82 464.74,-107.84 533.92,-106.61"/>
<polygon fill="#9a32cd" stroke="#9a32cd" points="196.73,-86.73 186.21,-88 195.23,-93.57 196.73,-86.73"/>
<text text-anchor="middle" x="339.5" y="-130.5" font-family="Helvetica,sans-Serif" font-size="10.00"> formula</text>
<text text-anchor="middle" x="339.5" y="-119.5" font-family="Helvetica,sans-Serif" font-size="10.00">name</text>
<text text-anchor="middle" x="339.5" y="-108.5" font-family="Helvetica,sans-Serif" font-size="10.00">substance</text>
</g>
<!-- Node7 -->
<g id="node7" class="node">
<title>Node7</title>
<g id="a_node7"><a xlink:title=" ">
<polygon fill="white" stroke="#bfbfbf" points="287,-50 287,-69 392,-69 392,-50 287,-50"/>
<text text-anchor="middle" x="339.5" y="-57" font-family="Helvetica,sans-Serif" font-size="10.00">vector&lt; std::string &gt;</text>
</a>
</g>
</g>
<!-- Node4&#45;&gt;Node7 -->
<g id="edge7" class="edge">
<title>Node4&#45;&gt;Node7</title>
<path fill="none" stroke="#9a32cd" stroke-dasharray="5,2" d="M196.16,-78.53C221.04,-75.21 257.16,-70.38 286.79,-66.41"/>
<polygon fill="#9a32cd" stroke="#9a32cd" points="195.68,-75.07 186.23,-79.86 196.61,-82.01 195.68,-75.07"/>
<text text-anchor="middle" x="225.5" y="-79.5" font-family="Helvetica,sans-Serif" font-size="10.00"> elements</text>
</g>
<!-- Node5 -->
<g id="node5" class="node">
<title>Node5</title>
<g id="a_node5"><a xlink:title=" ">
<polygon fill="white" stroke="#bfbfbf" points="0,-73 0,-92 108,-92 108,-73 0,-73"/>
<text text-anchor="middle" x="54" y="-80" font-family="Helvetica,sans-Serif" font-size="10.00">basic_string&lt; Char &gt;</text>
</a>
</g>
</g>
<!-- Node5&#45;&gt;Node4 -->
<g id="edge4" class="edge">
<title>Node5&#45;&gt;Node4</title>
<path fill="none" stroke="midnightblue" d="M118.23,-82.5C127.84,-82.5 137.09,-82.5 144.76,-82.5"/>
<polygon fill="midnightblue" stroke="midnightblue" points="118.15,-79 108.15,-82.5 118.15,-86 118.15,-79"/>
</g>
<!-- Node6 -->
<g id="node6" class="node">
<title>Node6</title>
<g id="a_node6"><a xlink:href="classReaktoro_1_1Model.html" target="_top" xlink:title=" ">
<polygon fill="white" stroke="black" points="265,-0.5 265,-30.5 414,-30.5 414,-0.5 265,-0.5"/>
<text text-anchor="start" x="273" y="-18.5" font-family="Helvetica,sans-Serif" font-size="10.00">Model&lt; StandardThermoProps</text>
<text text-anchor="middle" x="339.5" y="-7.5" font-family="Helvetica,sans-Serif" font-size="10.00">(real T, real P)&gt;</text>
</a>
</g>
</g>
<!-- Node6&#45;&gt;Node1 -->
<g id="edge5" class="edge">
<title>Node6&#45;&gt;Node1</title>
<path fill="none" stroke="#9a32cd" stroke-dasharray="5,2" d="M424.36,-22.77C454.45,-27.78 487.87,-36.23 516,-50.5 537.93,-61.62 557.77,-83.03 568.23,-95.61"/>
<polygon fill="#9a32cd" stroke="#9a32cd" points="424.72,-19.28 414.3,-21.2 423.64,-26.2 424.72,-19.28"/>
<text text-anchor="middle" x="474" y="-53.5" font-family="Helvetica,sans-Serif" font-size="10.00"> std_thermo_model</text>
</g>
<!-- Node7&#45;&gt;Node1 -->
<g id="edge6" class="edge">
<title>Node7&#45;&gt;Node1</title>
<path fill="none" stroke="#9a32cd" stroke-dasharray="5,2" d="M402.51,-62.74C436.46,-65.55 479.02,-70.78 516,-80.5 530.08,-84.2 545.2,-90.52 556.75,-95.88"/>
<polygon fill="#9a32cd" stroke="#9a32cd" points="402.51,-59.23 392.27,-61.94 401.97,-66.21 402.51,-59.23"/>
<text text-anchor="middle" x="474" y="-83.5" font-family="Helvetica,sans-Serif" font-size="10.00"> tags</text>
</g>
</g>
</svg>
