<?xml version="1.0" encoding="UTF-8" standalone="no"?>
<!DOCTYPE svg PUBLIC "-//W3C//DTD SVG 1.1//EN"
 "http://www.w3.org/Graphics/SVG/1.1/DTD/svg11.dtd">
<!-- Generated by graphviz version 2.49.1 (20211004.0028)
 -->
<!-- Title: ChemicalPropsPhaseBaseData&lt; Real, Array &gt; Pages: 1 -->
<svg width="174pt" height="283pt"
 viewBox="0.00 0.00 174.00 283.00" xmlns="http://www.w3.org/2000/svg" xmlns:xlink="http://www.w3.org/1999/xlink">
<g id="graph0" class="graph" transform="scale(1 1) rotate(0) translate(4 279)">
<title>ChemicalPropsPhaseBaseData&lt; Real, Array &gt;</title>
<!-- Node1 -->
<g id="node1" class="node">
<title>Node1</title>
<g id="a_node1"><a xlink:title="The base type for primary chemical property data of a phase from which others are computed.">
<polygon fill="#bfbfbf" stroke="black" points="0,-0.5 0,-30.5 166,-30.5 166,-0.5 0,-0.5"/>
<text text-anchor="start" x="8" y="-18.5" font-family="Helvetica,sans-Serif" font-size="10.00">ChemicalPropsPhaseBaseData</text>
<text text-anchor="middle" x="83" y="-7.5" font-family="Helvetica,sans-Serif" font-size="10.00">&lt; Real, Array &gt;</text>
</a>
</g>
</g>
<!-- Node2 -->
<g id="node2" class="node">
<title>Node2</title>
<g id="a_node2"><a xlink:title=" ">
<polygon fill="none" stroke="#bfbfbf" points="41,-188.5 41,-207.5 125,-207.5 125,-188.5 41,-188.5"/>
<text text-anchor="middle" x="83" y="-195.5" font-family="Helvetica,sans-Serif" font-size="10.00">array&lt; T, N &gt;</text>
</a>
</g>
</g>
<!-- Node2&#45;&gt;Node1 -->
<g id="edge1" class="edge">
<title>Node2&#45;&gt;Node1</title>
<path fill="none" stroke="#9a32cd" stroke-dasharray="5,2" d="M83,-178.09C83,-141.7 83,-62.69 83,-30.54"/>
<polygon fill="#9a32cd" stroke="#9a32cd" points="79.5,-178.29 83,-188.29 86.5,-178.29 79.5,-178.29"/>
<text text-anchor="middle" x="94" y="-162" font-family="Helvetica,sans-Serif" font-size="10.00"> Cp0</text>
<text text-anchor="middle" x="94" y="-151" font-family="Helvetica,sans-Serif" font-size="10.00">G0</text>
<text text-anchor="middle" x="94" y="-140" font-family="Helvetica,sans-Serif" font-size="10.00">H0</text>
<text text-anchor="middle" x="94" y="-129" font-family="Helvetica,sans-Serif" font-size="10.00">V0</text>
<text text-anchor="middle" x="94" y="-118" font-family="Helvetica,sans-Serif" font-size="10.00">VP0</text>
<text text-anchor="middle" x="94" y="-107" font-family="Helvetica,sans-Serif" font-size="10.00">VT0</text>
<text text-anchor="middle" x="94" y="-96" font-family="Helvetica,sans-Serif" font-size="10.00">ln_a</text>
<text text-anchor="middle" x="94" y="-85" font-family="Helvetica,sans-Serif" font-size="10.00">ln_g</text>
<text text-anchor="middle" x="94" y="-74" font-family="Helvetica,sans-Serif" font-size="10.00">n</text>
<text text-anchor="middle" x="94" y="-63" font-family="Helvetica,sans-Serif" font-size="10.00">u</text>
<text text-anchor="middle" x="94" y="-52" font-family="Helvetica,sans-Serif" font-size="10.00">...</text>
</g>
<!-- Node3 -->
<g id="node3" class="node">
<title>Node3</title>
<g id="a_node3"><a xlink:title=" ">
<polygon fill="none" stroke="#bfbfbf" points="68.5,-255.5 68.5,-274.5 97.5,-274.5 97.5,-255.5 68.5,-255.5"/>
<text text-anchor="middle" x="83" y="-262.5" font-family="Helvetica,sans-Serif" font-size="10.00">T</text>
</a>
</g>
</g>
<!-- Node3&#45;&gt;Node2 -->
<g id="edge2" class="edge">
<title>Node3&#45;&gt;Node2</title>
<path fill="none" stroke="#9a32cd" stroke-dasharray="5,2" d="M83,-245.04C83,-232.67 83,-217.12 83,-207.63"/>
<polygon fill="#9a32cd" stroke="#9a32cd" points="79.5,-245.23 83,-255.23 86.5,-245.23 79.5,-245.23"/>
<text text-anchor="middle" x="107.5" y="-229" font-family="Helvetica,sans-Serif" font-size="10.00"> elements</text>
</g>
</g>
</svg>
