<?xml version="1.0" encoding="UTF-8" standalone="no"?>
<!DOCTYPE svg PUBLIC "-//W3C//DTD SVG 1.1//EN"
 "http://www.w3.org/Graphics/SVG/1.1/DTD/svg11.dtd">
<!-- Generated by graphviz version 3.0.0 (20220226.1711)
 -->
<!-- Title: FluidPhase Pages: 1 -->
<svg width="180pt" height="140pt"
 viewBox="0.00 0.00 179.50 140.00" xmlns="http://www.w3.org/2000/svg" xmlns:xlink="http://www.w3.org/1999/xlink">
<g id="graph0" class="graph" transform="scale(1 1) rotate(0) translate(4 136)">
<title>FluidPhase</title>
<polygon fill="white" stroke="transparent" points="-4,4 -4,-136 175.5,-136 175.5,4 -4,4"/>
<!-- Node1 -->
<g id="node1" class="node">
<title>Node1</title>
<g id="a_node1"><a xlink:title="Class that defines a fluid (gaseous or liquid) phase.">
<polygon fill="#bfbfbf" stroke="black" points="56,-56.5 56,-75.5 121,-75.5 121,-56.5 56,-56.5"/>
<text text-anchor="middle" x="88.5" y="-63.5" font-family="Helvetica,sans-Serif" font-size="10.00">FluidPhase</text>
</a>
</g>
</g>
<!-- Node3 -->
<g id="node3" class="node">
<title>Node3</title>
<g id="a_node3"><a xlink:href="classReaktoro_1_1GaseousPhase.html" target="_top" xlink:title=" ">
<polygon fill="white" stroke="#bfbfbf" points="0,-0.5 0,-19.5 83,-19.5 83,-0.5 0,-0.5"/>
<text text-anchor="middle" x="41.5" y="-7.5" font-family="Helvetica,sans-Serif" font-size="10.00">GaseousPhase</text>
</a>
</g>
</g>
<!-- Node1&#45;&gt;Node3 -->
<g id="edge2" class="edge">
<title>Node1&#45;&gt;Node3</title>
<path fill="none" stroke="midnightblue" d="M74.08,-48.43C65.84,-38.97 55.85,-27.48 49.12,-19.75"/>
<polygon fill="midnightblue" stroke="midnightblue" points="71.53,-50.84 80.74,-56.08 76.81,-46.24 71.53,-50.84"/>
</g>
<!-- Node4 -->
<g id="node4" class="node">
<title>Node4</title>
<g id="a_node4"><a xlink:href="classReaktoro_1_1LiquidPhase.html" target="_top" xlink:title=" ">
<polygon fill="white" stroke="#bfbfbf" points="101.5,-0.5 101.5,-19.5 171.5,-19.5 171.5,-0.5 101.5,-0.5"/>
<text text-anchor="middle" x="136.5" y="-7.5" font-family="Helvetica,sans-Serif" font-size="10.00">LiquidPhase</text>
</a>
</g>
</g>
<!-- Node1&#45;&gt;Node4 -->
<g id="edge3" class="edge">
<title>Node1&#45;&gt;Node4</title>
<path fill="none" stroke="midnightblue" d="M103.23,-48.43C111.64,-38.97 121.85,-27.48 128.72,-19.75"/>
<polygon fill="midnightblue" stroke="midnightblue" points="100.45,-46.28 96.43,-56.08 105.69,-50.93 100.45,-46.28"/>
</g>
<!-- Node2 -->
<g id="node2" class="node">
<title>Node2</title>
<g id="a_node2"><a xlink:href="classReaktoro_1_1Phase.html" target="_top" xlink:title="A type used to define a phase and its attributes.">
<polygon fill="white" stroke="black" points="66.5,-112.5 66.5,-131.5 110.5,-131.5 110.5,-112.5 66.5,-112.5"/>
<text text-anchor="middle" x="88.5" y="-119.5" font-family="Helvetica,sans-Serif" font-size="10.00">Phase</text>
</a>
</g>
</g>
<!-- Node2&#45;&gt;Node1 -->
<g id="edge1" class="edge">
<title>Node2&#45;&gt;Node1</title>
<path fill="none" stroke="midnightblue" d="M88.5,-101.8C88.5,-92.91 88.5,-82.78 88.5,-75.75"/>
<polygon fill="midnightblue" stroke="midnightblue" points="85,-102.08 88.5,-112.08 92,-102.08 85,-102.08"/>
</g>
</g>
</svg>
