<?xml version="1.0" encoding="UTF-8" standalone="no"?>
<!DOCTYPE svg PUBLIC "-//W3C//DTD SVG 1.1//EN"
 "http://www.w3.org/Graphics/SVG/1.1/DTD/svg11.dtd">
<!-- Generated by graphviz version 2.50.0 (20211209.0339)
 -->
<!-- Title: Composition Pages: 1 -->
<svg width="283pt" height="61pt"
 viewBox="0.00 0.00 283.00 61.00" xmlns="http://www.w3.org/2000/svg" xmlns:xlink="http://www.w3.org/1999/xlink">
<g id="graph0" class="graph" transform="scale(1 1) rotate(0) translate(4 57)">
<title>Composition</title>
<polygon fill="white" stroke="transparent" points="-4,4 -4,-57 279,-57 279,4 -4,4"/>
<!-- Node1 -->
<g id="node1" class="node">
<title>Node1</title>
<g id="a_node1"><a xlink:title="A type that describes temperature in units of K.">
<polygon fill="#bfbfbf" stroke="black" points="197,-17 197,-36 275,-36 275,-17 197,-17"/>
<text text-anchor="middle" x="236" y="-24" font-family="Helvetica,sans-Serif" font-size="10.00">Composition</text>
</a>
</g>
</g>
<!-- Node2 -->
<g id="node2" class="node">
<title>Node2</title>
<g id="a_node2"><a xlink:href="classReaktoro_1_1ChemicalVectorBase.html" target="_top" xlink:title=" ">
<polygon fill="white" stroke="black" points="0,-0.5 0,-52.5 161,-52.5 161,-0.5 0,-0.5"/>
<text text-anchor="start" x="8" y="-40.5" font-family="Helvetica,sans-Serif" font-size="10.00">ChemicalVectorBase</text>
<text text-anchor="start" x="8" y="-29.5" font-family="Helvetica,sans-Serif" font-size="10.00">&lt; VectorConstRef, decltype</text>
<text text-anchor="start" x="8" y="-18.5" font-family="Helvetica,sans-Serif" font-size="10.00">(zeros(0)), decltype(zeros</text>
<text text-anchor="middle" x="80.5" y="-7.5" font-family="Helvetica,sans-Serif" font-size="10.00">(0)), decltype(identity(0, 0))&gt;</text>
</a>
</g>
</g>
<!-- Node2&#45;&gt;Node1 -->
<g id="edge1" class="edge">
<title>Node2&#45;&gt;Node1</title>
<path fill="none" stroke="midnightblue" d="M171.5,-26.5C180.39,-26.5 189.03,-26.5 196.93,-26.5"/>
<polygon fill="midnightblue" stroke="midnightblue" points="171.4,-23 161.4,-26.5 171.4,-30 171.4,-23"/>
</g>
</g>
</svg>
