<?xml version="1.0" encoding="UTF-8" standalone="no"?>
<!DOCTYPE svg PUBLIC "-//W3C//DTD SVG 1.1//EN"
 "http://www.w3.org/Graphics/SVG/1.1/DTD/svg11.dtd">
<!-- Generated by graphviz version 3.0.0 (20220226.1711)
 -->
<!-- Title: Phase Pages: 1 -->
<svg width="269pt" height="140pt"
 viewBox="0.00 0.00 268.50 140.00" xmlns="http://www.w3.org/2000/svg" xmlns:xlink="http://www.w3.org/1999/xlink">
<g id="graph0" class="graph" transform="scale(1 1) rotate(0) translate(4 136)">
<title>Phase</title>
<polygon fill="white" stroke="transparent" points="-4,4 -4,-136 264.5,-136 264.5,4 -4,4"/>
<!-- Node1 -->
<g id="node1" class="node">
<title>Node1</title>
<g id="a_node1"><a xlink:title="A type used to define a phase and its attributes.">
<polygon fill="#bfbfbf" stroke="black" points="111.5,-112.5 111.5,-131.5 155.5,-131.5 155.5,-112.5 111.5,-112.5"/>
<text text-anchor="middle" x="133.5" y="-119.5" font-family="Helvetica,sans-Serif" font-size="10.00">Phase</text>
</a>
</g>
</g>
<!-- Node2 -->
<g id="node2" class="node">
<title>Node2</title>
<g id="a_node2"><a xlink:href="classReaktoro_1_1AqueousPhase.html" target="_top" xlink:title="A type used to describe an aqueous phase.">
<polygon fill="white" stroke="black" points="0,-56.5 0,-75.5 83,-75.5 83,-56.5 0,-56.5"/>
<text text-anchor="middle" x="41.5" y="-63.5" font-family="Helvetica,sans-Serif" font-size="10.00">AqueousPhase</text>
</a>
</g>
</g>
<!-- Node1&#45;&gt;Node2 -->
<g id="edge1" class="edge">
<title>Node1&#45;&gt;Node2</title>
<path fill="none" stroke="midnightblue" d="M109.95,-107.18C93.02,-97.24 70.72,-84.15 56.24,-75.65"/>
<polygon fill="midnightblue" stroke="midnightblue" points="108.32,-110.28 118.72,-112.32 111.87,-104.24 108.32,-110.28"/>
</g>
<!-- Node3 -->
<g id="node3" class="node">
<title>Node3</title>
<g id="a_node3"><a xlink:href="classReaktoro_1_1FluidPhase.html" target="_top" xlink:title="Class that defines a fluid (gaseous or liquid) phase.">
<polygon fill="white" stroke="black" points="101,-56.5 101,-75.5 166,-75.5 166,-56.5 101,-56.5"/>
<text text-anchor="middle" x="133.5" y="-63.5" font-family="Helvetica,sans-Serif" font-size="10.00">FluidPhase</text>
</a>
</g>
</g>
<!-- Node1&#45;&gt;Node3 -->
<g id="edge2" class="edge">
<title>Node1&#45;&gt;Node3</title>
<path fill="none" stroke="midnightblue" d="M133.5,-101.8C133.5,-92.91 133.5,-82.78 133.5,-75.75"/>
<polygon fill="midnightblue" stroke="midnightblue" points="130,-102.08 133.5,-112.08 137,-102.08 130,-102.08"/>
</g>
<!-- Node6 -->
<g id="node6" class="node">
<title>Node6</title>
<g id="a_node6"><a xlink:href="classReaktoro_1_1MineralPhase.html" target="_top" xlink:title="Class that defines a mineral phase.">
<polygon fill="white" stroke="black" points="184.5,-56.5 184.5,-75.5 260.5,-75.5 260.5,-56.5 184.5,-56.5"/>
<text text-anchor="middle" x="222.5" y="-63.5" font-family="Helvetica,sans-Serif" font-size="10.00">MineralPhase</text>
</a>
</g>
</g>
<!-- Node1&#45;&gt;Node6 -->
<g id="edge5" class="edge">
<title>Node1&#45;&gt;Node6</title>
<path fill="none" stroke="midnightblue" d="M156.74,-106.9C173.06,-97 194.37,-84.07 208.24,-75.65"/>
<polygon fill="midnightblue" stroke="midnightblue" points="154.53,-104.14 147.8,-112.32 158.16,-110.13 154.53,-104.14"/>
</g>
<!-- Node4 -->
<g id="node4" class="node">
<title>Node4</title>
<g id="a_node4"><a xlink:href="classReaktoro_1_1GaseousPhase.html" target="_top" xlink:title=" ">
<polygon fill="white" stroke="#bfbfbf" points="44,-0.5 44,-19.5 127,-19.5 127,-0.5 44,-0.5"/>
<text text-anchor="middle" x="85.5" y="-7.5" font-family="Helvetica,sans-Serif" font-size="10.00">GaseousPhase</text>
</a>
</g>
</g>
<!-- Node3&#45;&gt;Node4 -->
<g id="edge3" class="edge">
<title>Node3&#45;&gt;Node4</title>
<path fill="none" stroke="midnightblue" d="M118.77,-48.43C110.36,-38.97 100.15,-27.48 93.28,-19.75"/>
<polygon fill="midnightblue" stroke="midnightblue" points="116.31,-50.93 125.57,-56.08 121.55,-46.28 116.31,-50.93"/>
</g>
<!-- Node5 -->
<g id="node5" class="node">
<title>Node5</title>
<g id="a_node5"><a xlink:href="classReaktoro_1_1LiquidPhase.html" target="_top" xlink:title=" ">
<polygon fill="white" stroke="#bfbfbf" points="145.5,-0.5 145.5,-19.5 215.5,-19.5 215.5,-0.5 145.5,-0.5"/>
<text text-anchor="middle" x="180.5" y="-7.5" font-family="Helvetica,sans-Serif" font-size="10.00">LiquidPhase</text>
</a>
</g>
</g>
<!-- Node3&#45;&gt;Node5 -->
<g id="edge4" class="edge">
<title>Node3&#45;&gt;Node5</title>
<path fill="none" stroke="midnightblue" d="M147.92,-48.43C156.16,-38.97 166.15,-27.48 172.88,-19.75"/>
<polygon fill="midnightblue" stroke="midnightblue" points="145.19,-46.24 141.26,-56.08 150.47,-50.84 145.19,-46.24"/>
</g>
</g>
</svg>
