<?xml version="1.0" encoding="UTF-8" standalone="no"?>
<!DOCTYPE svg PUBLIC "-//W3C//DTD SVG 1.1//EN"
 "http://www.w3.org/Graphics/SVG/1.1/DTD/svg11.dtd">
<!-- Generated by graphviz version 2.50.0 (20211209.0339)
 -->
<!-- Title: Phase Pages: 1 -->
<svg width="286pt" height="140pt"
 viewBox="0.00 0.00 285.50 140.00" xmlns="http://www.w3.org/2000/svg" xmlns:xlink="http://www.w3.org/1999/xlink">
<g id="graph0" class="graph" transform="scale(1 1) rotate(0) translate(4 136)">
<title>Phase</title>
<polygon fill="white" stroke="transparent" points="-4,4 -4,-136 281.5,-136 281.5,4 -4,4"/>
<!-- Node1 -->
<g id="node1" class="node">
<title>Node1</title>
<g id="a_node1"><a xlink:title="A type used to define a phase and its attributes.">
<polygon fill="#bfbfbf" stroke="black" points="118,-112.5 118,-131.5 164,-131.5 164,-112.5 118,-112.5"/>
<text text-anchor="middle" x="141" y="-119.5" font-family="Helvetica,sans-Serif" font-size="10.00">Phase</text>
</a>
</g>
</g>
<!-- Node2 -->
<g id="node2" class="node">
<title>Node2</title>
<g id="a_node2"><a xlink:href="classReaktoro_1_1AqueousPhase.html" target="_top" xlink:title="A type used to describe an aqueous phase.">
<polygon fill="white" stroke="black" points="0,-56.5 0,-75.5 88,-75.5 88,-56.5 0,-56.5"/>
<text text-anchor="middle" x="44" y="-63.5" font-family="Helvetica,sans-Serif" font-size="10.00">AqueousPhase</text>
</a>
</g>
</g>
<!-- Node1&#45;&gt;Node2 -->
<g id="edge1" class="edge">
<title>Node1&#45;&gt;Node2</title>
<path fill="none" stroke="midnightblue" d="M116.66,-107.45C98.76,-97.48 74.95,-84.23 59.55,-75.65"/>
<polygon fill="midnightblue" stroke="midnightblue" points="114.98,-110.52 125.42,-112.32 118.38,-104.4 114.98,-110.52"/>
</g>
<!-- Node3 -->
<g id="node3" class="node">
<title>Node3</title>
<g id="a_node3"><a xlink:href="classReaktoro_1_1FluidPhase.html" target="_top" xlink:title="Class that defines a fluid (gaseous or liquid) phase.">
<polygon fill="white" stroke="black" points="106,-56.5 106,-75.5 176,-75.5 176,-56.5 106,-56.5"/>
<text text-anchor="middle" x="141" y="-63.5" font-family="Helvetica,sans-Serif" font-size="10.00">FluidPhase</text>
</a>
</g>
</g>
<!-- Node1&#45;&gt;Node3 -->
<g id="edge2" class="edge">
<title>Node1&#45;&gt;Node3</title>
<path fill="none" stroke="midnightblue" d="M141,-101.8C141,-92.91 141,-82.78 141,-75.75"/>
<polygon fill="midnightblue" stroke="midnightblue" points="137.5,-102.08 141,-112.08 144.5,-102.08 137.5,-102.08"/>
</g>
<!-- Node6 -->
<g id="node6" class="node">
<title>Node6</title>
<g id="a_node6"><a xlink:href="classReaktoro_1_1MineralPhase.html" target="_top" xlink:title="Class that defines a mineral phase.">
<polygon fill="white" stroke="black" points="194.5,-56.5 194.5,-75.5 277.5,-75.5 277.5,-56.5 194.5,-56.5"/>
<text text-anchor="middle" x="236" y="-63.5" font-family="Helvetica,sans-Serif" font-size="10.00">MineralPhase</text>
</a>
</g>
</g>
<!-- Node1&#45;&gt;Node6 -->
<g id="edge5" class="edge">
<title>Node1&#45;&gt;Node6</title>
<path fill="none" stroke="midnightblue" d="M165.32,-107.18C182.8,-97.24 205.83,-84.15 220.77,-75.65"/>
<polygon fill="midnightblue" stroke="midnightblue" points="163.23,-104.34 156.26,-112.32 166.69,-110.43 163.23,-104.34"/>
</g>
<!-- Node4 -->
<g id="node4" class="node">
<title>Node4</title>
<g id="a_node4"><a xlink:href="classReaktoro_1_1GaseousPhase.html" target="_top" xlink:title=" ">
<polygon fill="white" stroke="black" points="47,-0.5 47,-19.5 135,-19.5 135,-0.5 47,-0.5"/>
<text text-anchor="middle" x="91" y="-7.5" font-family="Helvetica,sans-Serif" font-size="10.00">GaseousPhase</text>
</a>
</g>
</g>
<!-- Node3&#45;&gt;Node4 -->
<g id="edge3" class="edge">
<title>Node3&#45;&gt;Node4</title>
<path fill="none" stroke="midnightblue" d="M125.92,-48.72C117.11,-39.2 106.33,-27.56 99.1,-19.75"/>
<polygon fill="midnightblue" stroke="midnightblue" points="123.38,-51.12 132.74,-56.08 128.52,-46.37 123.38,-51.12"/>
</g>
<!-- Node5 -->
<g id="node5" class="node">
<title>Node5</title>
<g id="a_node5"><a xlink:href="classReaktoro_1_1LiquidPhase.html" target="_top" xlink:title=" ">
<polygon fill="white" stroke="black" points="152.5,-0.5 152.5,-19.5 227.5,-19.5 227.5,-0.5 152.5,-0.5"/>
<text text-anchor="middle" x="190" y="-7.5" font-family="Helvetica,sans-Serif" font-size="10.00">LiquidPhase</text>
</a>
</g>
</g>
<!-- Node3&#45;&gt;Node5 -->
<g id="edge4" class="edge">
<title>Node3&#45;&gt;Node5</title>
<path fill="none" stroke="midnightblue" d="M156.03,-48.43C164.62,-38.97 175.04,-27.48 182.06,-19.75"/>
<polygon fill="midnightblue" stroke="midnightblue" points="153.22,-46.33 149.09,-56.08 158.4,-51.03 153.22,-46.33"/>
</g>
</g>
</svg>
