<?xml version="1.0" encoding="UTF-8" standalone="no"?>
<!DOCTYPE svg PUBLIC "-//W3C//DTD SVG 1.1//EN"
 "http://www.w3.org/Graphics/SVG/1.1/DTD/svg11.dtd">
<!-- Generated by graphviz version 3.0.0 (20220226.1711)
 -->
<!-- Title: Reaktoro/Thermodynamics Pages: 1 -->
<svg width="960pt" height="111pt"
 viewBox="0.00 0.00 960.00 111.00" xmlns="http://www.w3.org/2000/svg" xmlns:xlink="http://www.w3.org/1999/xlink">
<g id="graph0" class="graph" transform="scale(1 1) rotate(0) translate(4 107)">
<title>Reaktoro/Thermodynamics</title>
<polygon fill="white" stroke="transparent" points="-4,4 -4,-107 956,-107 956,4 -4,4"/>
<g id="clust1" class="cluster">
<title>clusterdir_8e92d4b241d211e8bbb38ad86320f5f7</title>
<g id="a_clust1"><a xlink:href="dir_8e92d4b241d211e8bbb38ad86320f5f7.html" target="_top" xlink:title="Reaktoro">
<polygon fill="#edf0f7" stroke="#404040" stroke-dasharray="5,2" points="8,-8 8,-95 944,-95 944,-8 8,-8"/>
<text text-anchor="middle" x="476" y="-83" font-family="Helvetica,sans-Serif" font-size="10.00">Reaktoro</text>
</a>
</g>
</g>
<g id="clust2" class="cluster">
<title>clusterdir_7296c0b39377ecc378f507aad6499fa1</title>
<g id="a_clust2"><a xlink:href="dir_7296c0b39377ecc378f507aad6499fa1.html" target="_top">
<polygon fill="#edf0f7" stroke="#404040" stroke-width="2" points="16,-16 16,-68 936,-68 936,-16 16,-16"/>
</a>
</g>
</g>
<!-- dir_7296c0b39377ecc378f507aad6499fa1 -->
<g id="node1" class="node">
<title>dir_7296c0b39377ecc378f507aad6499fa1</title>
<text text-anchor="middle" x="882" y="-39.5" font-family="Helvetica,sans-Serif" font-size="10.00">Thermodynamics</text>
</g>
<!-- dir_571b1ebec660518a04da660ae77746d2 -->
<g id="node2" class="node">
<title>dir_571b1ebec660518a04da660ae77746d2</title>
<g id="a_node2"><a xlink:href="dir_571b1ebec660518a04da660ae77746d2.html" target="_top" xlink:title="Activity">
<polygon fill="#a2b4d6" stroke="#404040" points="818,-60 764,-60 764,-24 818,-24 818,-60"/>
<text text-anchor="middle" x="791" y="-39.5" font-family="Helvetica,sans-Serif" font-size="10.00">Activity</text>
</a>
</g>
</g>
<!-- dir_00947c7bb1ce3044ffdb2ed2fd5c942a -->
<g id="node3" class="node">
<title>dir_00947c7bb1ce3044ffdb2ed2fd5c942a</title>
<g id="a_node3"><a xlink:href="dir_00947c7bb1ce3044ffdb2ed2fd5c942a.html" target="_top" xlink:title="Common">
<polygon fill="#a2b4d6" stroke="#404040" points="746,-60 690,-60 690,-24 746,-24 746,-60"/>
<text text-anchor="middle" x="718" y="-39.5" font-family="Helvetica,sans-Serif" font-size="10.00">Common</text>
</a>
</g>
</g>
<!-- dir_6f1e2616c34bd60bc66f89772e000d34 -->
<g id="node4" class="node">
<title>dir_6f1e2616c34bd60bc66f89772e000d34</title>
<g id="a_node4"><a xlink:href="dir_6f1e2616c34bd60bc66f89772e000d34.html" target="_top" xlink:title="Core">
<polygon fill="#a2b4d6" stroke="#404040" points="672,-60 618,-60 618,-24 672,-24 672,-60"/>
<text text-anchor="middle" x="645" y="-39.5" font-family="Helvetica,sans-Serif" font-size="10.00">Core</text>
</a>
</g>
</g>
<!-- dir_e05f05ead499809d2b5a3737b3809f8d -->
<g id="node5" class="node">
<title>dir_e05f05ead499809d2b5a3737b3809f8d</title>
<g id="a_node5"><a xlink:href="dir_e05f05ead499809d2b5a3737b3809f8d.html" target="_top" xlink:title="Databases">
<polygon fill="#a2b4d6" stroke="#404040" points="600,-60 536,-60 536,-24 600,-24 600,-60"/>
<text text-anchor="middle" x="568" y="-39.5" font-family="Helvetica,sans-Serif" font-size="10.00">Databases</text>
</a>
</g>
</g>
<!-- dir_7479183513595784a31df51b16faf914 -->
<g id="node6" class="node">
<title>dir_7479183513595784a31df51b16faf914</title>
<g id="a_node6"><a xlink:href="dir_7479183513595784a31df51b16faf914.html" target="_top" xlink:title="EOS">
<polygon fill="#a2b4d6" stroke="#404040" points="518,-60 464,-60 464,-24 518,-24 518,-60"/>
<text text-anchor="middle" x="491" y="-39.5" font-family="Helvetica,sans-Serif" font-size="10.00">EOS</text>
</a>
</g>
</g>
<!-- dir_57b0b636d1e64ce35de9c87e37d8e8f2 -->
<g id="node7" class="node">
<title>dir_57b0b636d1e64ce35de9c87e37d8e8f2</title>
<g id="a_node7"><a xlink:href="dir_57b0b636d1e64ce35de9c87e37d8e8f2.html" target="_top" xlink:title="Mixtures">
<polygon fill="#a2b4d6" stroke="#404040" points="446,-60 392,-60 392,-24 446,-24 446,-60"/>
<text text-anchor="middle" x="419" y="-39.5" font-family="Helvetica,sans-Serif" font-size="10.00">Mixtures</text>
</a>
</g>
</g>
<!-- dir_37318fed0a80e526bd5c19de015fe420 -->
<g id="node8" class="node">
<title>dir_37318fed0a80e526bd5c19de015fe420</title>
<g id="a_node8"><a xlink:href="dir_37318fed0a80e526bd5c19de015fe420.html" target="_top" xlink:title="Models">
<polygon fill="#a2b4d6" stroke="#404040" points="374,-60 320,-60 320,-24 374,-24 374,-60"/>
<text text-anchor="middle" x="347" y="-39.5" font-family="Helvetica,sans-Serif" font-size="10.00">Models</text>
</a>
</g>
</g>
<!-- dir_e64d1a6671eb96d61924106279e1cfc0 -->
<g id="node9" class="node">
<title>dir_e64d1a6671eb96d61924106279e1cfc0</title>
<g id="a_node9"><a xlink:href="dir_e64d1a6671eb96d61924106279e1cfc0.html" target="_top" xlink:title="Phases">
<polygon fill="#a2b4d6" stroke="#404040" points="302,-60 248,-60 248,-24 302,-24 302,-60"/>
<text text-anchor="middle" x="275" y="-39.5" font-family="Helvetica,sans-Serif" font-size="10.00">Phases</text>
</a>
</g>
</g>
<!-- dir_8d4923f3ef1a8f1c2988ef3d431beb04 -->
<g id="node10" class="node">
<title>dir_8d4923f3ef1a8f1c2988ef3d431beb04</title>
<g id="a_node10"><a xlink:href="dir_8d4923f3ef1a8f1c2988ef3d431beb04.html" target="_top" xlink:title="Reactions">
<polygon fill="#a2b4d6" stroke="#404040" points="229.5,-60 168.5,-60 168.5,-24 229.5,-24 229.5,-60"/>
<text text-anchor="middle" x="199" y="-39.5" font-family="Helvetica,sans-Serif" font-size="10.00">Reactions</text>
</a>
</g>
</g>
<!-- dir_a21c22642b9c0cd611cccf76c577808a -->
<g id="node11" class="node">
<title>dir_a21c22642b9c0cd611cccf76c577808a</title>
<g id="a_node11"><a xlink:href="dir_a21c22642b9c0cd611cccf76c577808a.html" target="_top" xlink:title="Species">
<polygon fill="#a2b4d6" stroke="#404040" points="150,-60 96,-60 96,-24 150,-24 150,-60"/>
<text text-anchor="middle" x="123" y="-39.5" font-family="Helvetica,sans-Serif" font-size="10.00">Species</text>
</a>
</g>
</g>
<!-- dir_b45bc4b01eb3b2529158727b9934f9bf -->
<g id="node12" class="node">
<title>dir_b45bc4b01eb3b2529158727b9934f9bf</title>
<g id="a_node12"><a xlink:href="dir_b45bc4b01eb3b2529158727b9934f9bf.html" target="_top" xlink:title="Water">
<polygon fill="#a2b4d6" stroke="#404040" points="78,-60 24,-60 24,-24 78,-24 78,-60"/>
<text text-anchor="middle" x="51" y="-39.5" font-family="Helvetica,sans-Serif" font-size="10.00">Water</text>
</a>
</g>
</g>
</g>
</svg>
