<?xml version="1.0" encoding="UTF-8" standalone="no"?>
<!DOCTYPE svg PUBLIC "-//W3C//DTD SVG 1.1//EN"
 "http://www.w3.org/Graphics/SVG/1.1/DTD/svg11.dtd">
<!-- Generated by graphviz version 2.50.0 (20211209.0339)
 -->
<!-- Title: KineticOptions Pages: 1 -->
<!--zoomable 504 -->
<svg id="main" version="1.1" xmlns="http://www.w3.org/2000/svg" xmlns:xlink="http://www.w3.org/1999/xlink" xml:space="preserve" onload="init(evt)">
<style type="text/css"><![CDATA[
.edge:hover path { stroke: red; }
.edge:hover polygon { stroke: red; fill: red; }
]]></style>
<script type="text/javascript"><![CDATA[
var edges = document.getElementsByTagName('g');
if (edges && edges.length) {
  for (var i=0;i<edges.length;i++) {
    if (edges[i].id.substr(0,4)=='edge') {
      edges[i].setAttribute('class','edge');
    }
  }
}
]]></script>
        <defs>
                <circle id="rim" cx="0" cy="0" r="7"/>
                <circle id="rim2" cx="0" cy="0" r="3.5"/>
                <g id="zoomPlus">
                        <use xlink:href="#rim" fill="#404040">
                                <set attributeName="fill" to="#808080" begin="zoomplus.mouseover" end="zoomplus.mouseout"/>
                        </use>
                        <path d="M-4,0h8M0,-4v8" fill="none" stroke="white" stroke-width="1.5" pointer-events="none"/>
                </g>
                <g id="zoomMin">
                        <use xlink:href="#rim" fill="#404040">
                                <set attributeName="fill" to="#808080" begin="zoomminus.mouseover" end="zoomminus.mouseout"/>
                        </use>
                        <path d="M-4,0h8" fill="none" stroke="white" stroke-width="1.5" pointer-events="none"/>
                </g>
                <g id="dirArrow">
                        <path fill="none" stroke="white" stroke-width="1.5" d="M0,-3.0v7 M-2.5,-0.5L0,-3.0L2.5,-0.5"/>
                </g>
               <g id="resetDef">
                       <use xlink:href="#rim2" fill="#404040">
                               <set attributeName="fill" to="#808080" begin="reset.mouseover" end="reset.mouseout"/>
                       </use>
               </g>
        </defs>

<script type="text/javascript">
var viewWidth = 1363;
var viewHeight = 504;
var sectionId = 'dynsection-0';
</script>
<script xlink:href="svgpan.js"/>
<svg id="graph" class="graph">
<g id="viewport">
<title>KineticOptions</title>
<polygon fill="white" stroke="transparent" points="-4,4 -4,-499.85 1359,-499.85 1359,4 -4,4"/>
<!-- Node1 -->
<g id="node1" class="node">
<title>Node1</title>
<g id="a_node1"><a xlink:title="A struct to describe the options for a chemical kinetics calculation.">
<polygon fill="#bfbfbf" stroke="black" points="1267,-438.35 1267,-457.35 1355,-457.35 1355,-438.35 1267,-438.35"/>
<text text-anchor="middle" x="1311" y="-445.35" font-family="Helvetica,sans-Serif" font-size="10.00">KineticOptions</text>
</a>
</g>
</g>
<!-- Node2 -->
<g id="node2" class="node">
<title>Node2</title>
<g id="a_node2"><a xlink:href="structReaktoro_1_1ODEOptions.html" target="_top" xlink:title="A struct that defines the options for the ODESolver.">
<polygon fill="white" stroke="black" points="1079.5,-476.35 1079.5,-495.35 1154.5,-495.35 1154.5,-476.35 1079.5,-476.35"/>
<text text-anchor="middle" x="1117" y="-483.35" font-family="Helvetica,sans-Serif" font-size="10.00">ODEOptions</text>
</a>
</g>
</g>
<!-- Node2&#45;&gt;Node1 -->
<g id="edge1" class="edge">
<title>Node2&#45;&gt;Node1</title>
<path fill="none" stroke="#9a32cd" stroke-dasharray="5,2" d="M1164.49,-477.85C1189.57,-473.41 1221.04,-467.62 1249,-461.85 1255.7,-460.47 1262.8,-458.92 1269.7,-457.37"/>
<polygon fill="#9a32cd" stroke="#9a32cd" points="1163.75,-474.43 1154.51,-479.61 1164.96,-481.32 1163.75,-474.43"/>
<text text-anchor="middle" x="1219.5" y="-475.85" font-family="Helvetica,sans-Serif" font-size="10.00"> ode</text>
</g>
<!-- Node3 -->
<g id="node3" class="node">
<title>Node3</title>
<g id="a_node3"><a xlink:href="structReaktoro_1_1KineticOutputOptions.html" target="_top" xlink:title=" ">
<polygon fill="white" stroke="black" points="423,-428.35 423,-447.35 544,-447.35 544,-428.35 423,-428.35"/>
<text text-anchor="middle" x="483.5" y="-435.35" font-family="Helvetica,sans-Serif" font-size="10.00">KineticOutputOptions</text>
</a>
</g>
</g>
<!-- Node3&#45;&gt;Node1 -->
<g id="edge2" class="edge">
<title>Node3&#45;&gt;Node1</title>
<path fill="none" stroke="#9a32cd" stroke-dasharray="5,2" d="M554.26,-441.5C614.84,-444.36 704.94,-447.85 783.5,-447.85 783.5,-447.85 783.5,-447.85 1118,-447.85 1169.17,-447.85 1228,-447.85 1266.92,-447.85"/>
<polygon fill="#9a32cd" stroke="#9a32cd" points="554.2,-438 544.05,-441.02 553.87,-444.99 554.2,-438"/>
<text text-anchor="middle" x="907.5" y="-450.85" font-family="Helvetica,sans-Serif" font-size="10.00"> output</text>
</g>
<!-- Node4 -->
<g id="node4" class="node">
<title>Node4</title>
<g id="a_node4"><a xlink:title="STL class.">
<polygon fill="white" stroke="#bfbfbf" points="156,-114.35 156,-133.35 200,-133.35 200,-114.35 156,-114.35"/>
<text text-anchor="middle" x="178" y="-121.35" font-family="Helvetica,sans-Serif" font-size="10.00">string</text>
</a>
</g>
</g>
<!-- Node4&#45;&gt;Node3 -->
<g id="edge3" class="edge">
<title>Node4&#45;&gt;Node3</title>
<path fill="none" stroke="#9a32cd" stroke-dasharray="5,2" d="M180.82,-143.43C186.51,-192.94 208.5,-323.94 286,-390.85 323.7,-423.4 380.04,-434.3 422.73,-437.56"/>
<polygon fill="#9a32cd" stroke="#9a32cd" points="184.29,-142.99 179.77,-133.41 177.33,-143.72 184.29,-142.99"/>
<text text-anchor="middle" x="243" y="-373.85" font-family="Helvetica,sans-Serif" font-size="10.00"> format</text>
</g>
<!-- Node19 -->
<g id="node19" class="node">
<title>Node19</title>
<g id="a_node19"><a xlink:href="structReaktoro_1_1OptimumOutputOptions.html" target="_top" xlink:title="A type that describes the options for the output of a optimisation calculation.">
<polygon fill="white" stroke="black" points="580,-134.35 580,-153.35 713,-153.35 713,-134.35 580,-134.35"/>
<text text-anchor="middle" x="646.5" y="-141.35" font-family="Helvetica,sans-Serif" font-size="10.00">OptimumOutputOptions</text>
</a>
</g>
</g>
<!-- Node4&#45;&gt;Node19 -->
<g id="edge21" class="edge">
<title>Node4&#45;&gt;Node19</title>
<path fill="none" stroke="#9a32cd" stroke-dasharray="5,2" d="M209.88,-136.38C212.6,-137.28 215.34,-138.13 218,-138.85 358.56,-177.11 402.98,-209.39 544,-172.85 552.86,-170.56 553.45,-166.12 562,-162.85 571.86,-159.08 582.67,-155.94 593.15,-153.37"/>
<polygon fill="#9a32cd" stroke="#9a32cd" points="210.79,-132.99 200.2,-132.9 208.42,-139.57 210.79,-132.99"/>
<text text-anchor="middle" x="345.5" y="-211.85" font-family="Helvetica,sans-Serif" font-size="10.00"> xprefix</text>
<text text-anchor="middle" x="345.5" y="-200.85" font-family="Helvetica,sans-Serif" font-size="10.00">yprefix</text>
<text text-anchor="middle" x="345.5" y="-189.85" font-family="Helvetica,sans-Serif" font-size="10.00">zprefix</text>
</g>
<!-- Node20 -->
<g id="node20" class="node">
<title>Node20</title>
<g id="a_node20"><a xlink:href="structReaktoro_1_1OutputterOptions.html" target="_top" xlink:title=" ">
<polygon fill="white" stroke="black" points="295,-56.35 295,-75.35 396,-75.35 396,-56.35 295,-56.35"/>
<text text-anchor="middle" x="345.5" y="-63.35" font-family="Helvetica,sans-Serif" font-size="10.00">OutputterOptions</text>
</a>
</g>
</g>
<!-- Node4&#45;&gt;Node20 -->
<g id="edge20" class="edge">
<title>Node4&#45;&gt;Node20</title>
<path fill="none" stroke="#9a32cd" stroke-dasharray="5,2" d="M210.03,-111.79C212.72,-110.78 215.4,-109.79 218,-108.85 251.15,-96.85 289.53,-83.94 315.24,-75.43"/>
<polygon fill="#9a32cd" stroke="#9a32cd" points="208.51,-108.62 200.4,-115.45 210.99,-115.17 208.51,-108.62"/>
<text text-anchor="middle" x="243" y="-111.85" font-family="Helvetica,sans-Serif" font-size="10.00"> separator</text>
</g>
<!-- Node21 -->
<g id="node21" class="node">
<title>Node21</title>
<g id="a_node21"><a xlink:title=" ">
<polygon fill="white" stroke="#bfbfbf" points="286,-114.35 286,-133.35 405,-133.35 405,-114.35 286,-114.35"/>
<text text-anchor="middle" x="345.5" y="-121.35" font-family="Helvetica,sans-Serif" font-size="10.00">vector&lt; std::string &gt;</text>
</a>
</g>
</g>
<!-- Node4&#45;&gt;Node21 -->
<g id="edge23" class="edge">
<title>Node4&#45;&gt;Node21</title>
<path fill="none" stroke="#9a32cd" stroke-dasharray="5,2" d="M210.39,-123.85C231.69,-123.85 260.48,-123.85 285.93,-123.85"/>
<polygon fill="#9a32cd" stroke="#9a32cd" points="210.3,-120.35 200.3,-123.85 210.3,-127.35 210.3,-120.35"/>
<text text-anchor="middle" x="243" y="-126.85" font-family="Helvetica,sans-Serif" font-size="10.00"> elements</text>
</g>
<!-- Node23 -->
<g id="node23" class="node">
<title>Node23</title>
<g id="a_node23"><a xlink:href="structReaktoro_1_1NonlinearOutput.html" target="_top" xlink:title="A type that describes the options for the output of a non&#45;linear problem calculation.">
<polygon fill="white" stroke="black" points="598,-20.35 598,-39.35 695,-39.35 695,-20.35 598,-20.35"/>
<text text-anchor="middle" x="646.5" y="-27.35" font-family="Helvetica,sans-Serif" font-size="10.00">NonlinearOutput</text>
</a>
</g>
</g>
<!-- Node4&#45;&gt;Node23 -->
<g id="edge27" class="edge">
<title>Node4&#45;&gt;Node23</title>
<path fill="none" stroke="#9a32cd" stroke-dasharray="5,2" d="M191.53,-105.83C209.32,-82.01 244.42,-41.14 286,-24.85 396.28,18.34 540.59,-5.24 607.89,-20.34"/>
<polygon fill="#9a32cd" stroke="#9a32cd" points="188.61,-103.89 185.58,-114.04 194.28,-108 188.61,-103.89"/>
<text text-anchor="middle" x="345.5" y="-38.85" font-family="Helvetica,sans-Serif" font-size="10.00"> fprefix</text>
<text text-anchor="middle" x="345.5" y="-27.85" font-family="Helvetica,sans-Serif" font-size="10.00">xprefix</text>
</g>
<!-- Node5 -->
<g id="node5" class="node">
<title>Node5</title>
<g id="a_node5"><a xlink:title="STL class.">
<polygon fill="white" stroke="#bfbfbf" points="0,-114.35 0,-133.35 119,-133.35 119,-114.35 0,-114.35"/>
<text text-anchor="middle" x="59.5" y="-121.35" font-family="Helvetica,sans-Serif" font-size="10.00">basic_string&lt; char &gt;</text>
</a>
</g>
</g>
<!-- Node5&#45;&gt;Node4 -->
<g id="edge4" class="edge">
<title>Node5&#45;&gt;Node4</title>
<path fill="none" stroke="midnightblue" d="M129.21,-123.85C138.82,-123.85 148.05,-123.85 155.78,-123.85"/>
<polygon fill="midnightblue" stroke="midnightblue" points="129.09,-120.35 119.09,-123.85 129.09,-127.35 129.09,-120.35"/>
</g>
<!-- Node6 -->
<g id="node6" class="node">
<title>Node6</title>
<g id="a_node6"><a xlink:href="structReaktoro_1_1EquilibriumOptions.html" target="_top" xlink:title="The options for the equilibrium calculations.">
<polygon fill="white" stroke="black" points="1062,-249.35 1062,-268.35 1172,-268.35 1172,-249.35 1062,-249.35"/>
<text text-anchor="middle" x="1117" y="-256.35" font-family="Helvetica,sans-Serif" font-size="10.00">EquilibriumOptions</text>
</a>
</g>
</g>
<!-- Node6&#45;&gt;Node1 -->
<g id="edge5" class="edge">
<title>Node6&#45;&gt;Node1</title>
<path fill="none" stroke="#9a32cd" stroke-dasharray="5,2" d="M1135.26,-275.84C1174.43,-314.4 1269.04,-407.53 1300,-438.01"/>
<polygon fill="#9a32cd" stroke="#9a32cd" points="1137.37,-273 1127.79,-268.48 1132.46,-277.99 1137.37,-273"/>
<text text-anchor="middle" x="1219.5" y="-388.85" font-family="Helvetica,sans-Serif" font-size="10.00"> equilibrium</text>
</g>
<!-- Node7 -->
<g id="node7" class="node">
<title>Node7</title>
<g id="a_node7"><a xlink:href="structReaktoro_1_1OptimumOptions.html" target="_top" xlink:title="A type that describes the options of a optimisation calculation.">
<polygon fill="white" stroke="black" points="857.5,-229.35 857.5,-248.35 957.5,-248.35 957.5,-229.35 857.5,-229.35"/>
<text text-anchor="middle" x="907.5" y="-236.35" font-family="Helvetica,sans-Serif" font-size="10.00">OptimumOptions</text>
</a>
</g>
</g>
<!-- Node7&#45;&gt;Node6 -->
<g id="edge6" class="edge">
<title>Node7&#45;&gt;Node6</title>
<path fill="none" stroke="#9a32cd" stroke-dasharray="5,2" d="M968.02,-243.12C991.69,-244.97 1019.15,-247.29 1044,-249.85 1049.76,-250.45 1055.78,-251.12 1061.78,-251.82"/>
<polygon fill="#9a32cd" stroke="#9a32cd" points="968.02,-239.61 957.78,-242.34 967.49,-246.59 968.02,-239.61"/>
<text text-anchor="middle" x="1019.5" y="-252.85" font-family="Helvetica,sans-Serif" font-size="10.00"> optimum</text>
</g>
<!-- Node8 -->
<g id="node8" class="node">
<title>Node8</title>
<g id="a_node8"><a xlink:href="structReaktoro_1_1OptimumParamsIpAction.html" target="_top" xlink:title=" ">
<polygon fill="white" stroke="black" points="577.5,-324.35 577.5,-343.35 715.5,-343.35 715.5,-324.35 577.5,-324.35"/>
<text text-anchor="middle" x="646.5" y="-331.35" font-family="Helvetica,sans-Serif" font-size="10.00">OptimumParamsIpAction</text>
</a>
</g>
</g>
<!-- Node8&#45;&gt;Node7 -->
<g id="edge7" class="edge">
<title>Node8&#45;&gt;Node7</title>
<path fill="none" stroke="#9a32cd" stroke-dasharray="5,2" d="M726,-331.39C758,-326.85 793.59,-316.88 820,-295.85 834.62,-284.21 823.7,-269.88 838,-257.85 843.67,-253.08 850.44,-249.51 857.49,-246.83"/>
<polygon fill="#9a32cd" stroke="#9a32cd" points="725.24,-327.96 715.76,-332.68 726.11,-334.9 725.24,-327.96"/>
<text text-anchor="middle" x="784.5" y="-328.85" font-family="Helvetica,sans-Serif" font-size="10.00"> ipaction</text>
</g>
<!-- Node9 -->
<g id="node9" class="node">
<title>Node9</title>
<g id="a_node9"><a xlink:href="structReaktoro_1_1OptimumParamsIpOpt.html" target="_top" xlink:title=" ">
<polygon fill="white" stroke="black" points="584,-362.35 584,-381.35 709,-381.35 709,-362.35 584,-362.35"/>
<text text-anchor="middle" x="646.5" y="-369.35" font-family="Helvetica,sans-Serif" font-size="10.00">OptimumParamsIpOpt</text>
</a>
</g>
</g>
<!-- Node9&#45;&gt;Node7 -->
<g id="edge8" class="edge">
<title>Node9&#45;&gt;Node7</title>
<path fill="none" stroke="#9a32cd" stroke-dasharray="5,2" d="M719.46,-376.37C754.09,-374.62 793.69,-366.23 820,-340.85 847.16,-314.64 812.08,-285.29 838,-257.85 843.25,-252.29 849.98,-248.31 857.16,-245.46"/>
<polygon fill="#9a32cd" stroke="#9a32cd" points="719.24,-372.88 709.36,-376.71 719.47,-379.87 719.24,-372.88"/>
<text text-anchor="middle" x="784.5" y="-374.85" font-family="Helvetica,sans-Serif" font-size="10.00"> ipopt</text>
</g>
<!-- Node10 -->
<g id="node10" class="node">
<title>Node10</title>
<g id="a_node10"><a xlink:title=" ">
<polygon fill="white" stroke="#bfbfbf" points="294,-362.35 294,-381.35 397,-381.35 397,-362.35 294,-362.35"/>
<text text-anchor="middle" x="345.5" y="-369.35" font-family="Helvetica,sans-Serif" font-size="10.00">vector&lt; double &gt;</text>
</a>
</g>
</g>
<!-- Node10&#45;&gt;Node9 -->
<g id="edge9" class="edge">
<title>Node10&#45;&gt;Node9</title>
<path fill="none" stroke="#9a32cd" stroke-dasharray="5,2" d="M407.53,-371.85C458.99,-371.85 532.29,-371.85 583.91,-371.85"/>
<polygon fill="#9a32cd" stroke="#9a32cd" points="407.22,-368.35 397.22,-371.85 407.22,-375.35 407.22,-368.35"/>
<text text-anchor="middle" x="483.5" y="-374.85" font-family="Helvetica,sans-Serif" font-size="10.00"> mu</text>
</g>
<!-- Node11 -->
<g id="node11" class="node">
<title>Node11</title>
<g id="a_node11"><a xlink:href="structReaktoro_1_1OptimumParamsIpActive.html" target="_top" xlink:title=" ">
<polygon fill="white" stroke="black" points="577.5,-248.35 577.5,-267.35 715.5,-267.35 715.5,-248.35 577.5,-248.35"/>
<text text-anchor="middle" x="646.5" y="-255.35" font-family="Helvetica,sans-Serif" font-size="10.00">OptimumParamsIpActive</text>
</a>
</g>
</g>
<!-- Node11&#45;&gt;Node7 -->
<g id="edge10" class="edge">
<title>Node11&#45;&gt;Node7</title>
<path fill="none" stroke="#9a32cd" stroke-dasharray="5,2" d="M725.66,-252.12C768.45,-248.98 820.16,-245.18 857.31,-242.46"/>
<polygon fill="#9a32cd" stroke="#9a32cd" points="725.27,-248.64 715.55,-252.86 725.78,-255.62 725.27,-248.64"/>
<text text-anchor="middle" x="784.5" y="-252.85" font-family="Helvetica,sans-Serif" font-size="10.00"> ipactive</text>
</g>
<!-- Node12 -->
<g id="node12" class="node">
<title>Node12</title>
<g id="a_node12"><a xlink:href="structReaktoro_1_1OptimumParamsIpNewton.html" target="_top" xlink:title=" ">
<polygon fill="white" stroke="black" points="574,-210.35 574,-229.35 719,-229.35 719,-210.35 574,-210.35"/>
<text text-anchor="middle" x="646.5" y="-217.35" font-family="Helvetica,sans-Serif" font-size="10.00">OptimumParamsIpNewton</text>
</a>
</g>
</g>
<!-- Node12&#45;&gt;Node7 -->
<g id="edge11" class="edge">
<title>Node12&#45;&gt;Node7</title>
<path fill="none" stroke="#9a32cd" stroke-dasharray="5,2" d="M729.67,-223.85C758.28,-225.44 790.57,-227.47 820,-229.85 832.04,-230.83 845,-232.07 857.13,-233.32"/>
<polygon fill="#9a32cd" stroke="#9a32cd" points="729.49,-220.33 719.31,-223.28 729.1,-227.32 729.49,-220.33"/>
<text text-anchor="middle" x="784.5" y="-232.85" font-family="Helvetica,sans-Serif" font-size="10.00"> ipnewton</text>
</g>
<!-- Node13 -->
<g id="node13" class="node">
<title>Node13</title>
<g id="a_node13"><a xlink:href="structReaktoro_1_1KktOptions.html" target="_top" xlink:title="A type to describe the options for the KKT calculation.">
<polygon fill="white" stroke="black" points="611,-172.35 611,-191.35 682,-191.35 682,-172.35 611,-172.35"/>
<text text-anchor="middle" x="646.5" y="-179.35" font-family="Helvetica,sans-Serif" font-size="10.00">KktOptions</text>
</a>
</g>
</g>
<!-- Node13&#45;&gt;Node7 -->
<g id="edge12" class="edge">
<title>Node13&#45;&gt;Node7</title>
<path fill="none" stroke="#9a32cd" stroke-dasharray="5,2" d="M692.13,-187.07C727.19,-191.65 777.11,-199.25 820,-209.85 841.07,-215.06 864.36,-222.99 881.46,-229.25"/>
<polygon fill="#9a32cd" stroke="#9a32cd" points="692.56,-183.6 682.2,-185.8 691.67,-190.54 692.56,-183.6"/>
<text text-anchor="middle" x="784.5" y="-212.85" font-family="Helvetica,sans-Serif" font-size="10.00"> kkt</text>
</g>
<!-- Node14 -->
<g id="node14" class="node">
<title>Node14</title>
<g id="a_node14"><a xlink:href="structReaktoro_1_1OptimumParamsRegularization.html" target="_top" xlink:title="A type that describes the regularization options for the optimisation calculation.">
<polygon fill="white" stroke="black" points="562,-286.35 562,-305.35 731,-305.35 731,-286.35 562,-286.35"/>
<text text-anchor="middle" x="646.5" y="-293.35" font-family="Helvetica,sans-Serif" font-size="10.00">OptimumParamsRegularization</text>
</a>
</g>
</g>
<!-- Node14&#45;&gt;Node7 -->
<g id="edge13" class="edge">
<title>Node14&#45;&gt;Node7</title>
<path fill="none" stroke="#9a32cd" stroke-dasharray="5,2" d="M728.42,-284.62C757.57,-279.71 790.52,-273.15 820,-264.85 828.26,-262.53 829.85,-260.56 838,-257.85 848.07,-254.51 859.11,-251.26 869.32,-248.43"/>
<polygon fill="#9a32cd" stroke="#9a32cd" points="727.58,-281.21 718.28,-286.29 728.71,-288.12 727.58,-281.21"/>
<text text-anchor="middle" x="784.5" y="-283.85" font-family="Helvetica,sans-Serif" font-size="10.00"> regularization</text>
</g>
<!-- Node15 -->
<g id="node15" class="node">
<title>Node15</title>
<g id="a_node15"><a xlink:href="structReaktoro_1_1RegularizerOptions.html" target="_top" xlink:title="A type that describes the options for regularizing linear constraints.">
<polygon fill="white" stroke="black" points="290.5,-286.35 290.5,-305.35 400.5,-305.35 400.5,-286.35 290.5,-286.35"/>
<text text-anchor="middle" x="345.5" y="-293.35" font-family="Helvetica,sans-Serif" font-size="10.00">RegularizerOptions</text>
</a>
</g>
</g>
<!-- Node15&#45;&gt;Node14 -->
<g id="edge14" class="edge">
<title>Node15&#45;&gt;Node14</title>
<path fill="none" stroke="midnightblue" d="M410.68,-295.85C454.86,-295.85 513.96,-295.85 561.83,-295.85"/>
<polygon fill="midnightblue" stroke="midnightblue" points="410.65,-292.35 400.65,-295.85 410.65,-299.35 410.65,-292.35"/>
</g>
<!-- Node16 -->
<g id="node16" class="node">
<title>Node16</title>
<g id="a_node16"><a xlink:href="structReaktoro_1_1OptimumParamsRefiner.html" target="_top" xlink:title=" ">
<polygon fill="white" stroke="black" points="580,-96.35 580,-115.35 713,-115.35 713,-96.35 580,-96.35"/>
<text text-anchor="middle" x="646.5" y="-103.35" font-family="Helvetica,sans-Serif" font-size="10.00">OptimumParamsRefiner</text>
</a>
</g>
</g>
<!-- Node16&#45;&gt;Node7 -->
<g id="edge15" class="edge">
<title>Node16&#45;&gt;Node7</title>
<path fill="none" stroke="#9a32cd" stroke-dasharray="5,2" d="M723.29,-111.76C754.83,-116.77 790.81,-125.97 820,-142.85 858.06,-164.87 888.55,-209.44 900.75,-229.13"/>
<polygon fill="#9a32cd" stroke="#9a32cd" points="723.63,-108.27 713.22,-110.27 722.61,-115.19 723.63,-108.27"/>
<text text-anchor="middle" x="784.5" y="-145.85" font-family="Helvetica,sans-Serif" font-size="10.00"> refiner</text>
</g>
<!-- Node17 -->
<g id="node17" class="node">
<title>Node17</title>
<g id="a_node17"><a xlink:href="structReaktoro_1_1OptimumParamsKarpov.html" target="_top" xlink:title=" ">
<polygon fill="white" stroke="black" points="580,-58.35 580,-77.35 713,-77.35 713,-58.35 580,-58.35"/>
<text text-anchor="middle" x="646.5" y="-65.35" font-family="Helvetica,sans-Serif" font-size="10.00">OptimumParamsKarpov</text>
</a>
</g>
</g>
<!-- Node17&#45;&gt;Node7 -->
<g id="edge16" class="edge">
<title>Node17&#45;&gt;Node7</title>
<path fill="none" stroke="#9a32cd" stroke-dasharray="5,2" d="M723.55,-70.27C755.62,-74.43 791.94,-83.56 820,-102.85 826.14,-107.07 881.94,-198.42 900.52,-228.99"/>
<polygon fill="#9a32cd" stroke="#9a32cd" points="723.64,-66.76 713.3,-69.09 722.84,-73.71 723.64,-66.76"/>
<text text-anchor="middle" x="784.5" y="-105.85" font-family="Helvetica,sans-Serif" font-size="10.00"> karpov</text>
</g>
<!-- Node18 -->
<g id="node18" class="node">
<title>Node18</title>
<g id="a_node18"><a xlink:href="structReaktoro_1_1OptimumParamsActNewton.html" target="_top" xlink:title=" ">
<polygon fill="white" stroke="black" points="570.5,-400.35 570.5,-419.35 722.5,-419.35 722.5,-400.35 570.5,-400.35"/>
<text text-anchor="middle" x="646.5" y="-407.35" font-family="Helvetica,sans-Serif" font-size="10.00">OptimumParamsActNewton</text>
</a>
</g>
</g>
<!-- Node18&#45;&gt;Node7 -->
<g id="edge17" class="edge">
<title>Node18&#45;&gt;Node7</title>
<path fill="none" stroke="#9a32cd" stroke-dasharray="5,2" d="M732.75,-418.65C764.08,-417.19 797.38,-409.34 820,-386.85 861.06,-346.04 799.85,-301.39 838,-257.85 843.2,-251.91 850.09,-247.75 857.49,-244.86"/>
<polygon fill="#9a32cd" stroke="#9a32cd" points="732.57,-415.15 722.67,-418.91 732.75,-422.15 732.57,-415.15"/>
<text text-anchor="middle" x="784.5" y="-419.85" font-family="Helvetica,sans-Serif" font-size="10.00"> actnewton</text>
</g>
<!-- Node19&#45;&gt;Node7 -->
<g id="edge18" class="edge">
<title>Node19&#45;&gt;Node7</title>
<path fill="none" stroke="#9a32cd" stroke-dasharray="5,2" d="M723.47,-153.1C754.27,-158.52 789.65,-166.94 820,-179.85 849.78,-192.52 879.96,-216.09 895.6,-229.28"/>
<polygon fill="#9a32cd" stroke="#9a32cd" points="723.66,-149.58 713.22,-151.37 722.5,-156.48 723.66,-149.58"/>
<text text-anchor="middle" x="784.5" y="-182.85" font-family="Helvetica,sans-Serif" font-size="10.00"> output</text>
</g>
<!-- Node20&#45;&gt;Node19 -->
<g id="edge19" class="edge">
<title>Node20&#45;&gt;Node19</title>
<path fill="none" stroke="midnightblue" d="M402.27,-54.98C445.08,-49.87 503.52,-50.3 544,-79.85 561.4,-92.55 545.62,-110.86 562,-124.85 567.2,-129.29 573.23,-132.75 579.62,-135.44"/>
<polygon fill="midnightblue" stroke="midnightblue" points="401.75,-51.51 392.29,-56.3 402.67,-58.45 401.75,-51.51"/>
</g>
<!-- Node20&#45;&gt;Node23 -->
<g id="edge26" class="edge">
<title>Node20&#45;&gt;Node23</title>
<path fill="none" stroke="midnightblue" d="M406.35,-57.06C411.98,-56.29 417.59,-55.54 423,-54.85 483.15,-47.15 552.61,-39.55 597.71,-34.79"/>
<polygon fill="midnightblue" stroke="midnightblue" points="405.68,-53.62 396.26,-58.47 406.65,-60.56 405.68,-53.62"/>
</g>
<!-- Node21&#45;&gt;Node19 -->
<g id="edge22" class="edge">
<title>Node21&#45;&gt;Node19</title>
<path fill="none" stroke="#9a32cd" stroke-dasharray="5,2" d="M415.2,-128.45C464.71,-131.76 531.12,-136.2 579.9,-139.46"/>
<polygon fill="#9a32cd" stroke="#9a32cd" points="415.43,-124.95 405.22,-127.78 414.96,-131.94 415.43,-124.95"/>
<text text-anchor="middle" x="483.5" y="-160.85" font-family="Helvetica,sans-Serif" font-size="10.00"> xnames</text>
<text text-anchor="middle" x="483.5" y="-149.85" font-family="Helvetica,sans-Serif" font-size="10.00">ynames</text>
<text text-anchor="middle" x="483.5" y="-138.85" font-family="Helvetica,sans-Serif" font-size="10.00">znames</text>
</g>
<!-- Node21&#45;&gt;Node23 -->
<g id="edge28" class="edge">
<title>Node21&#45;&gt;Node23</title>
<path fill="none" stroke="#9a32cd" stroke-dasharray="5,2" d="M391.38,-111.57C440.88,-97.71 517.1,-75.34 544,-61.85 552.82,-57.43 553.01,-52.92 562,-48.85 573.11,-43.83 585.67,-40.07 597.61,-37.29"/>
<polygon fill="#9a32cd" stroke="#9a32cd" points="390.24,-108.26 381.55,-114.31 392.12,-115 390.24,-108.26"/>
<text text-anchor="middle" x="483.5" y="-116.85" font-family="Helvetica,sans-Serif" font-size="10.00"> fnames</text>
<text text-anchor="middle" x="483.5" y="-105.85" font-family="Helvetica,sans-Serif" font-size="10.00">xnames</text>
</g>
<!-- Node22 -->
<g id="node22" class="node">
<title>Node22</title>
<g id="a_node22"><a xlink:href="structReaktoro_1_1NonlinearOptions.html" target="_top" xlink:title="A type that describes the options for the solution of a non&#45;linear problem.">
<polygon fill="white" stroke="black" points="857,-98.35 857,-117.35 958,-117.35 958,-98.35 857,-98.35"/>
<text text-anchor="middle" x="907.5" y="-105.35" font-family="Helvetica,sans-Serif" font-size="10.00">NonlinearOptions</text>
</a>
</g>
</g>
<!-- Node22&#45;&gt;Node6 -->
<g id="edge24" class="edge">
<title>Node22&#45;&gt;Node6</title>
<path fill="none" stroke="#9a32cd" stroke-dasharray="5,2" d="M930.13,-123.59C973.08,-154.84 1067.95,-223.89 1102.82,-249.26"/>
<polygon fill="#9a32cd" stroke="#9a32cd" points="931.94,-120.58 921.8,-117.53 927.82,-126.24 931.94,-120.58"/>
<text text-anchor="middle" x="1019.5" y="-207.85" font-family="Helvetica,sans-Serif" font-size="10.00"> nonlinear</text>
</g>
<!-- Node23&#45;&gt;Node22 -->
<g id="edge25" class="edge">
<title>Node23&#45;&gt;Node22</title>
<path fill="none" stroke="#9a32cd" stroke-dasharray="5,2" d="M705.61,-22.17C739.98,-19.88 783.73,-20.99 820,-34.85 854.69,-48.11 885.31,-81.58 898.96,-98.19"/>
<polygon fill="#9a32cd" stroke="#9a32cd" points="704.96,-18.71 695.26,-22.98 705.51,-25.69 704.96,-18.71"/>
<text text-anchor="middle" x="784.5" y="-37.85" font-family="Helvetica,sans-Serif" font-size="10.00"> output</text>
</g>
<!-- Node24 -->
<g id="node24" class="node">
<title>Node24</title>
<g id="a_node24"><a xlink:href="structReaktoro_1_1SmartEquilibriumOptions.html" target="_top" xlink:title="The options for the smart equilibrium calculations.">
<polygon fill="white" stroke="black" points="838,-267.35 838,-286.35 977,-286.35 977,-267.35 838,-267.35"/>
<text text-anchor="middle" x="907.5" y="-274.35" font-family="Helvetica,sans-Serif" font-size="10.00">SmartEquilibriumOptions</text>
</a>
</g>
</g>
<!-- Node24&#45;&gt;Node6 -->
<g id="edge29" class="edge">
<title>Node24&#45;&gt;Node6</title>
<path fill="none" stroke="#9a32cd" stroke-dasharray="5,2" d="M987.16,-270.03C1012.01,-267.87 1038.91,-265.54 1061.67,-263.56"/>
<polygon fill="#9a32cd" stroke="#9a32cd" points="986.68,-266.56 977.02,-270.91 987.28,-273.53 986.68,-266.56"/>
<text text-anchor="middle" x="1019.5" y="-271.85" font-family="Helvetica,sans-Serif" font-size="10.00"> smart</text>
</g>
</g>
</svg>
        <g id="navigator" transform="translate(0 0)" fill="#404254">
                <rect fill="#f2f5e9" fill-opacity="0.5" stroke="#606060" stroke-width=".5" x="0" y="0" width="60" height="60"/>
                <use id="zoomplus" xlink:href="#zoomPlus" x="17" y="9" onmousedown="handleZoom(evt,'in')"/>
                <use id="zoomminus" xlink:href="#zoomMin" x="42" y="9" onmousedown="handleZoom(evt,'out')"/>
                <use id="reset" xlink:href="#resetDef" x="30" y="36" onmousedown="handleReset()"/>
                <g id="arrowUp" xlink:href="#dirArrow" transform="translate(30 24)" onmousedown="handlePan(0,-1)">
                  <use xlink:href="#rim" fill="#404040">
                        <set attributeName="fill" to="#808080" begin="arrowUp.mouseover" end="arrowUp.mouseout"/>
                  </use>
                  <path fill="none" stroke="white" stroke-width="1.5" d="M0,-3.0v7 M-2.5,-0.5L0,-3.0L2.5,-0.5"/>
                </g>
                <g id="arrowRight" xlink:href="#dirArrow" transform="rotate(90) translate(36 -43)" onmousedown="handlePan(1,0)">
                  <use xlink:href="#rim" fill="#404040">
                        <set attributeName="fill" to="#808080" begin="arrowRight.mouseover" end="arrowRight.mouseout"/>
                  </use>
                  <path fill="none" stroke="white" stroke-width="1.5" d="M0,-3.0v7 M-2.5,-0.5L0,-3.0L2.5,-0.5"/>
                </g>
                <g id="arrowDown" xlink:href="#dirArrow" transform="rotate(180) translate(-30 -48)" onmousedown="handlePan(0,1)">
                  <use xlink:href="#rim" fill="#404040">
                        <set attributeName="fill" to="#808080" begin="arrowDown.mouseover" end="arrowDown.mouseout"/>
                  </use>
                  <path fill="none" stroke="white" stroke-width="1.5" d="M0,-3.0v7 M-2.5,-0.5L0,-3.0L2.5,-0.5"/>
                </g>
                <g id="arrowLeft" xlink:href="#dirArrow" transform="rotate(270) translate(-36 17)" onmousedown="handlePan(-1,0)">
                  <use xlink:href="#rim" fill="#404040">
                        <set attributeName="fill" to="#808080" begin="arrowLeft.mouseover" end="arrowLeft.mouseout"/>
                  </use>
                  <path fill="none" stroke="white" stroke-width="1.5" d="M0,-3.0v7 M-2.5,-0.5L0,-3.0L2.5,-0.5"/>
                </g>
        </g>
        <svg viewBox="0 0 15 15" width="100%" height="30px" preserveAspectRatio="xMaxYMin meet">
         <g id="arrow_out" transform="scale(0.3 0.3)">
          <a xlink:href="structReaktoro_1_1KineticOptions__coll__graph_org.svg" target="_base">
           <rect id="button" ry="5" rx="5" y="6" x="6" height="38" width="38"
                fill="#f2f5e9" fill-opacity="0.5" stroke="#606060" stroke-width="1.0"/>
           <path id="arrow"
             d="M 11.500037,31.436501 C 11.940474,20.09759 22.043105,11.32322 32.158766,21.979434 L 37.068811,17.246167 C 37.068811,17.246167 37.088388,32 37.088388,32 L 22.160133,31.978069 C 22.160133,31.978069 26.997745,27.140456 26.997745,27.140456 C 18.528582,18.264221 13.291696,25.230495 11.500037,31.436501 z"
             style="fill:#404040;"/>
          </a>
         </g>
        </svg>
</svg>
