<?xml version="1.0" encoding="UTF-8" standalone="no"?>
<!DOCTYPE svg PUBLIC "-//W3C//DTD SVG 1.1//EN"
 "http://www.w3.org/Graphics/SVG/1.1/DTD/svg11.dtd">
<!-- Generated by graphviz version 2.50.0 (20211209.0339)
 -->
<!-- Title: EquilibriumPathOptions Pages: 1 -->
<svg width="1328pt" height="463pt"
 viewBox="0.00 0.00 1328.00 462.83" xmlns="http://www.w3.org/2000/svg" xmlns:xlink="http://www.w3.org/1999/xlink">
<g id="graph0" class="graph" transform="scale(1 1) rotate(0) translate(4 458.83)">
<title>EquilibriumPathOptions</title>
<polygon fill="white" stroke="transparent" points="-4,4 -4,-458.83 1324,-458.83 1324,4 -4,4"/>
<!-- Node1 -->
<g id="node1" class="node">
<title>Node1</title>
<g id="a_node1"><a xlink:title="A struct that describes the options from an equilibrium path calculation.">
<polygon fill="#bfbfbf" stroke="black" points="1189,-154.33 1189,-173.33 1320,-173.33 1320,-154.33 1189,-154.33"/>
<text text-anchor="middle" x="1254.5" y="-161.33" font-family="Helvetica,sans-Serif" font-size="10.00">EquilibriumPathOptions</text>
</a>
</g>
</g>
<!-- Node2 -->
<g id="node2" class="node">
<title>Node2</title>
<g id="a_node2"><a xlink:href="structReaktoro_1_1ODEOptions.html" target="_top" xlink:title="A struct that defines the options for the ODESolver.">
<polygon fill="white" stroke="black" points="1001.5,-173.33 1001.5,-192.33 1076.5,-192.33 1076.5,-173.33 1001.5,-173.33"/>
<text text-anchor="middle" x="1039" y="-180.33" font-family="Helvetica,sans-Serif" font-size="10.00">ODEOptions</text>
</a>
</g>
</g>
<!-- Node2&#45;&gt;Node1 -->
<g id="edge1" class="edge">
<title>Node2&#45;&gt;Node1</title>
<path fill="none" stroke="#9a32cd" stroke-dasharray="5,2" d="M1086.87,-178.66C1116.79,-175.99 1155.99,-172.5 1188.85,-169.58"/>
<polygon fill="#9a32cd" stroke="#9a32cd" points="1086.35,-175.19 1076.7,-179.56 1086.97,-182.16 1086.35,-175.19"/>
<text text-anchor="middle" x="1141.5" y="-178.83" font-family="Helvetica,sans-Serif" font-size="10.00"> ode</text>
</g>
<!-- Node3 -->
<g id="node3" class="node">
<title>Node3</title>
<g id="a_node3"><a xlink:href="structReaktoro_1_1EquilibriumOptions.html" target="_top" xlink:title="The options for the equilibrium calculations.">
<polygon fill="white" stroke="black" points="984,-135.33 984,-154.33 1094,-154.33 1094,-135.33 984,-135.33"/>
<text text-anchor="middle" x="1039" y="-142.33" font-family="Helvetica,sans-Serif" font-size="10.00">EquilibriumOptions</text>
</a>
</g>
</g>
<!-- Node3&#45;&gt;Node1 -->
<g id="edge2" class="edge">
<title>Node3&#45;&gt;Node1</title>
<path fill="none" stroke="#9a32cd" stroke-dasharray="5,2" d="M1104.39,-150.07C1125.6,-151.84 1149.32,-153.87 1171,-155.83 1176.73,-156.35 1182.69,-156.9 1188.66,-157.46"/>
<polygon fill="#9a32cd" stroke="#9a32cd" points="1104.44,-146.56 1094.19,-149.22 1103.86,-153.54 1104.44,-146.56"/>
<text text-anchor="middle" x="1141.5" y="-158.83" font-family="Helvetica,sans-Serif" font-size="10.00"> equilibrium</text>
</g>
<!-- Node4 -->
<g id="node4" class="node">
<title>Node4</title>
<g id="a_node4"><a xlink:href="structReaktoro_1_1OptimumOptions.html" target="_top" xlink:title="A type that describes the options of a optimisation calculation.">
<polygon fill="white" stroke="black" points="779.5,-245.33 779.5,-264.33 879.5,-264.33 879.5,-245.33 779.5,-245.33"/>
<text text-anchor="middle" x="829.5" y="-252.33" font-family="Helvetica,sans-Serif" font-size="10.00">OptimumOptions</text>
</a>
</g>
</g>
<!-- Node4&#45;&gt;Node3 -->
<g id="edge3" class="edge">
<title>Node4&#45;&gt;Node3</title>
<path fill="none" stroke="#9a32cd" stroke-dasharray="5,2" d="M853,-239.57C882.25,-220.18 935.36,-186.53 984,-163.83 991.47,-160.34 999.78,-157.11 1007.59,-154.35"/>
<polygon fill="#9a32cd" stroke="#9a32cd" points="850.75,-236.86 844.38,-245.33 854.64,-242.68 850.75,-236.86"/>
<text text-anchor="middle" x="941.5" y="-200.83" font-family="Helvetica,sans-Serif" font-size="10.00"> optimum</text>
</g>
<!-- Node5 -->
<g id="node5" class="node">
<title>Node5</title>
<g id="a_node5"><a xlink:href="structReaktoro_1_1OptimumParamsIpAction.html" target="_top" xlink:title=" ">
<polygon fill="white" stroke="black" points="499.5,-435.33 499.5,-454.33 637.5,-454.33 637.5,-435.33 499.5,-435.33"/>
<text text-anchor="middle" x="568.5" y="-442.33" font-family="Helvetica,sans-Serif" font-size="10.00">OptimumParamsIpAction</text>
</a>
</g>
</g>
<!-- Node5&#45;&gt;Node4 -->
<g id="edge4" class="edge">
<title>Node5&#45;&gt;Node4</title>
<path fill="none" stroke="#9a32cd" stroke-dasharray="5,2" d="M648.05,-442.37C679.72,-438.02 715.06,-428.57 742,-408.83 793.7,-370.95 818.64,-292.27 826.05,-264.66"/>
<polygon fill="#9a32cd" stroke="#9a32cd" points="647.41,-438.92 637.91,-443.61 648.26,-445.87 647.41,-438.92"/>
<text text-anchor="middle" x="706.5" y="-440.83" font-family="Helvetica,sans-Serif" font-size="10.00"> ipaction</text>
</g>
<!-- Node6 -->
<g id="node6" class="node">
<title>Node6</title>
<g id="a_node6"><a xlink:href="structReaktoro_1_1OptimumParamsIpOpt.html" target="_top" xlink:title=" ">
<polygon fill="white" stroke="black" points="506,-397.33 506,-416.33 631,-416.33 631,-397.33 506,-397.33"/>
<text text-anchor="middle" x="568.5" y="-404.33" font-family="Helvetica,sans-Serif" font-size="10.00">OptimumParamsIpOpt</text>
</a>
</g>
</g>
<!-- Node6&#45;&gt;Node4 -->
<g id="edge5" class="edge">
<title>Node6&#45;&gt;Node4</title>
<path fill="none" stroke="#9a32cd" stroke-dasharray="5,2" d="M641.33,-401.29C674.09,-396.09 712.14,-386.07 742,-366.83 783.51,-340.08 813.16,-286.29 823.99,-264.41"/>
<polygon fill="#9a32cd" stroke="#9a32cd" points="640.74,-397.84 631.35,-402.76 641.75,-404.77 640.74,-397.84"/>
<text text-anchor="middle" x="706.5" y="-396.83" font-family="Helvetica,sans-Serif" font-size="10.00"> ipopt</text>
</g>
<!-- Node7 -->
<g id="node7" class="node">
<title>Node7</title>
<g id="a_node7"><a xlink:title=" ">
<polygon fill="white" stroke="#bfbfbf" points="294,-397.33 294,-416.33 397,-416.33 397,-397.33 294,-397.33"/>
<text text-anchor="middle" x="345.5" y="-404.33" font-family="Helvetica,sans-Serif" font-size="10.00">vector&lt; double &gt;</text>
</a>
</g>
</g>
<!-- Node7&#45;&gt;Node6 -->
<g id="edge6" class="edge">
<title>Node7&#45;&gt;Node6</title>
<path fill="none" stroke="#9a32cd" stroke-dasharray="5,2" d="M407.31,-406.83C437.89,-406.83 474.88,-406.83 505.61,-406.83"/>
<polygon fill="#9a32cd" stroke="#9a32cd" points="407.2,-403.33 397.2,-406.83 407.2,-410.33 407.2,-403.33"/>
<text text-anchor="middle" x="444.5" y="-409.83" font-family="Helvetica,sans-Serif" font-size="10.00"> mu</text>
</g>
<!-- Node8 -->
<g id="node8" class="node">
<title>Node8</title>
<g id="a_node8"><a xlink:href="structReaktoro_1_1OptimumParamsIpActive.html" target="_top" xlink:title=" ">
<polygon fill="white" stroke="black" points="499.5,-359.33 499.5,-378.33 637.5,-378.33 637.5,-359.33 499.5,-359.33"/>
<text text-anchor="middle" x="568.5" y="-366.33" font-family="Helvetica,sans-Serif" font-size="10.00">OptimumParamsIpActive</text>
</a>
</g>
</g>
<!-- Node8&#45;&gt;Node4 -->
<g id="edge7" class="edge">
<title>Node8&#45;&gt;Node4</title>
<path fill="none" stroke="#9a32cd" stroke-dasharray="5,2" d="M647.82,-358.37C678.35,-352.23 712.93,-342.65 742,-327.83 774.56,-311.22 805.47,-280.21 819.94,-264.49"/>
<polygon fill="#9a32cd" stroke="#9a32cd" points="646.79,-355 637.63,-360.32 648.11,-361.87 646.79,-355"/>
<text text-anchor="middle" x="706.5" y="-354.83" font-family="Helvetica,sans-Serif" font-size="10.00"> ipactive</text>
</g>
<!-- Node9 -->
<g id="node9" class="node">
<title>Node9</title>
<g id="a_node9"><a xlink:href="structReaktoro_1_1OptimumParamsIpNewton.html" target="_top" xlink:title=" ">
<polygon fill="white" stroke="black" points="496,-321.33 496,-340.33 641,-340.33 641,-321.33 496,-321.33"/>
<text text-anchor="middle" x="568.5" y="-328.33" font-family="Helvetica,sans-Serif" font-size="10.00">OptimumParamsIpNewton</text>
</a>
</g>
</g>
<!-- Node9&#45;&gt;Node4 -->
<g id="edge8" class="edge">
<title>Node9&#45;&gt;Node4</title>
<path fill="none" stroke="#9a32cd" stroke-dasharray="5,2" d="M642.19,-319.45C673.35,-313.61 709.89,-305.45 742,-294.83 766.66,-286.67 793.61,-273.47 810.76,-264.49"/>
<polygon fill="#9a32cd" stroke="#9a32cd" points="641.48,-316.02 632.28,-321.27 642.74,-322.91 641.48,-316.02"/>
<text text-anchor="middle" x="706.5" y="-315.83" font-family="Helvetica,sans-Serif" font-size="10.00"> ipnewton</text>
</g>
<!-- Node10 -->
<g id="node10" class="node">
<title>Node10</title>
<g id="a_node10"><a xlink:href="structReaktoro_1_1KktOptions.html" target="_top" xlink:title="A type to describe the options for the KKT calculation.">
<polygon fill="white" stroke="black" points="533,-283.33 533,-302.33 604,-302.33 604,-283.33 533,-283.33"/>
<text text-anchor="middle" x="568.5" y="-290.33" font-family="Helvetica,sans-Serif" font-size="10.00">KktOptions</text>
</a>
</g>
</g>
<!-- Node10&#45;&gt;Node4 -->
<g id="edge9" class="edge">
<title>Node10&#45;&gt;Node4</title>
<path fill="none" stroke="#9a32cd" stroke-dasharray="5,2" d="M614.57,-287.31C649.42,-282.92 698.83,-276.44 742,-269.83 754.05,-267.98 767.02,-265.82 779.15,-263.73"/>
<polygon fill="#9a32cd" stroke="#9a32cd" points="613.74,-283.88 604.25,-288.6 614.61,-290.83 613.74,-283.88"/>
<text text-anchor="middle" x="706.5" y="-282.83" font-family="Helvetica,sans-Serif" font-size="10.00"> kkt</text>
</g>
<!-- Node11 -->
<g id="node11" class="node">
<title>Node11</title>
<g id="a_node11"><a xlink:href="structReaktoro_1_1OptimumParamsRegularization.html" target="_top" xlink:title="A type that describes the regularization options for the optimisation calculation.">
<polygon fill="white" stroke="black" points="484,-245.33 484,-264.33 653,-264.33 653,-245.33 484,-245.33"/>
<text text-anchor="middle" x="568.5" y="-252.33" font-family="Helvetica,sans-Serif" font-size="10.00">OptimumParamsRegularization</text>
</a>
</g>
</g>
<!-- Node11&#45;&gt;Node4 -->
<g id="edge10" class="edge">
<title>Node11&#45;&gt;Node4</title>
<path fill="none" stroke="#9a32cd" stroke-dasharray="5,2" d="M663.37,-254.83C702.66,-254.83 746.69,-254.83 779.4,-254.83"/>
<polygon fill="#9a32cd" stroke="#9a32cd" points="663.23,-251.33 653.23,-254.83 663.23,-258.33 663.23,-251.33"/>
<text text-anchor="middle" x="706.5" y="-257.83" font-family="Helvetica,sans-Serif" font-size="10.00"> regularization</text>
</g>
<!-- Node12 -->
<g id="node12" class="node">
<title>Node12</title>
<g id="a_node12"><a xlink:href="structReaktoro_1_1RegularizerOptions.html" target="_top" xlink:title="A type that describes the options for regularizing linear constraints.">
<polygon fill="white" stroke="black" points="290.5,-245.33 290.5,-264.33 400.5,-264.33 400.5,-245.33 290.5,-245.33"/>
<text text-anchor="middle" x="345.5" y="-252.33" font-family="Helvetica,sans-Serif" font-size="10.00">RegularizerOptions</text>
</a>
</g>
</g>
<!-- Node12&#45;&gt;Node11 -->
<g id="edge11" class="edge">
<title>Node12&#45;&gt;Node11</title>
<path fill="none" stroke="midnightblue" d="M410.8,-254.83C433.62,-254.83 459.65,-254.83 483.85,-254.83"/>
<polygon fill="midnightblue" stroke="midnightblue" points="410.56,-251.33 400.56,-254.83 410.56,-258.33 410.56,-251.33"/>
</g>
<!-- Node13 -->
<g id="node13" class="node">
<title>Node13</title>
<g id="a_node13"><a xlink:href="structReaktoro_1_1OptimumParamsRefiner.html" target="_top" xlink:title=" ">
<polygon fill="white" stroke="black" points="502,-207.33 502,-226.33 635,-226.33 635,-207.33 502,-207.33"/>
<text text-anchor="middle" x="568.5" y="-214.33" font-family="Helvetica,sans-Serif" font-size="10.00">OptimumParamsRefiner</text>
</a>
</g>
</g>
<!-- Node13&#45;&gt;Node4 -->
<g id="edge12" class="edge">
<title>Node13&#45;&gt;Node4</title>
<path fill="none" stroke="#9a32cd" stroke-dasharray="5,2" d="M645.15,-226.26C675.32,-230.19 710.34,-234.97 742,-239.83 754.05,-241.67 767.02,-243.83 779.15,-245.93"/>
<polygon fill="#9a32cd" stroke="#9a32cd" points="645.48,-222.78 635.12,-224.96 644.58,-229.72 645.48,-222.78"/>
<text text-anchor="middle" x="706.5" y="-242.83" font-family="Helvetica,sans-Serif" font-size="10.00"> refiner</text>
</g>
<!-- Node14 -->
<g id="node14" class="node">
<title>Node14</title>
<g id="a_node14"><a xlink:href="structReaktoro_1_1OptimumParamsKarpov.html" target="_top" xlink:title=" ">
<polygon fill="white" stroke="black" points="502,-169.33 502,-188.33 635,-188.33 635,-169.33 502,-169.33"/>
<text text-anchor="middle" x="568.5" y="-176.33" font-family="Helvetica,sans-Serif" font-size="10.00">OptimumParamsKarpov</text>
</a>
</g>
</g>
<!-- Node14&#45;&gt;Node4 -->
<g id="edge13" class="edge">
<title>Node14&#45;&gt;Node4</title>
<path fill="none" stroke="#9a32cd" stroke-dasharray="5,2" d="M645.33,-190.11C675.81,-195.7 711,-203.51 742,-213.83 767.07,-222.17 794.37,-235.97 811.45,-245.22"/>
<polygon fill="#9a32cd" stroke="#9a32cd" points="645.65,-186.61 635.19,-188.3 644.42,-193.5 645.65,-186.61"/>
<text text-anchor="middle" x="706.5" y="-216.83" font-family="Helvetica,sans-Serif" font-size="10.00"> karpov</text>
</g>
<!-- Node15 -->
<g id="node15" class="node">
<title>Node15</title>
<g id="a_node15"><a xlink:href="structReaktoro_1_1OptimumParamsActNewton.html" target="_top" xlink:title=" ">
<polygon fill="white" stroke="black" points="492.5,-131.33 492.5,-150.33 644.5,-150.33 644.5,-131.33 492.5,-131.33"/>
<text text-anchor="middle" x="568.5" y="-138.33" font-family="Helvetica,sans-Serif" font-size="10.00">OptimumParamsActNewton</text>
</a>
</g>
</g>
<!-- Node15&#45;&gt;Node4 -->
<g id="edge14" class="edge">
<title>Node15&#45;&gt;Node4</title>
<path fill="none" stroke="#9a32cd" stroke-dasharray="5,2" d="M654.88,-151.54C683.61,-157.35 715.16,-166.25 742,-179.83 775.17,-196.6 806.03,-228.89 820.26,-245.07"/>
<polygon fill="#9a32cd" stroke="#9a32cd" points="655.33,-148.07 644.84,-149.61 654,-154.94 655.33,-148.07"/>
<text text-anchor="middle" x="706.5" y="-182.83" font-family="Helvetica,sans-Serif" font-size="10.00"> actnewton</text>
</g>
<!-- Node16 -->
<g id="node16" class="node">
<title>Node16</title>
<g id="a_node16"><a xlink:href="structReaktoro_1_1OptimumOutputOptions.html" target="_top" xlink:title="A type that describes the options for the output of a optimisation calculation.">
<polygon fill="white" stroke="black" points="502,-93.33 502,-112.33 635,-112.33 635,-93.33 502,-93.33"/>
<text text-anchor="middle" x="568.5" y="-100.33" font-family="Helvetica,sans-Serif" font-size="10.00">OptimumOutputOptions</text>
</a>
</g>
</g>
<!-- Node16&#45;&gt;Node4 -->
<g id="edge15" class="edge">
<title>Node16&#45;&gt;Node4</title>
<path fill="none" stroke="#9a32cd" stroke-dasharray="5,2" d="M645.28,-107.35C677.14,-112.11 713.37,-121.5 742,-139.83 753.23,-147.01 751.99,-153.17 760,-163.83 782.33,-193.55 808.81,-228.69 821.3,-245.27"/>
<polygon fill="#9a32cd" stroke="#9a32cd" points="645.49,-103.85 635.11,-105.97 644.54,-110.79 645.49,-103.85"/>
<text text-anchor="middle" x="706.5" y="-142.83" font-family="Helvetica,sans-Serif" font-size="10.00"> output</text>
</g>
<!-- Node17 -->
<g id="node17" class="node">
<title>Node17</title>
<g id="a_node17"><a xlink:href="structReaktoro_1_1OutputterOptions.html" target="_top" xlink:title=" ">
<polygon fill="white" stroke="black" points="295,-101.33 295,-120.33 396,-120.33 396,-101.33 295,-101.33"/>
<text text-anchor="middle" x="345.5" y="-108.33" font-family="Helvetica,sans-Serif" font-size="10.00">OutputterOptions</text>
</a>
</g>
</g>
<!-- Node17&#45;&gt;Node16 -->
<g id="edge16" class="edge">
<title>Node17&#45;&gt;Node16</title>
<path fill="none" stroke="midnightblue" d="M406.29,-120.26C411.92,-120.9 417.56,-121.44 423,-121.83 442.06,-123.19 446.97,-123.59 466,-121.83 485.99,-119.97 507.92,-116.1 526.26,-112.34"/>
<polygon fill="midnightblue" stroke="midnightblue" points="406.53,-116.76 396.18,-119.02 405.68,-123.71 406.53,-116.76"/>
</g>
<!-- Node22 -->
<g id="node22" class="node">
<title>Node22</title>
<g id="a_node22"><a xlink:href="structReaktoro_1_1NonlinearOutput.html" target="_top" xlink:title="A type that describes the options for the output of a non&#45;linear problem calculation.">
<polygon fill="white" stroke="black" points="520,-48.33 520,-67.33 617,-67.33 617,-48.33 520,-48.33"/>
<text text-anchor="middle" x="568.5" y="-55.33" font-family="Helvetica,sans-Serif" font-size="10.00">NonlinearOutput</text>
</a>
</g>
</g>
<!-- Node17&#45;&gt;Node22 -->
<g id="edge24" class="edge">
<title>Node17&#45;&gt;Node22</title>
<path fill="none" stroke="midnightblue" d="M406.15,-109.79C425.73,-107.9 447.27,-104.11 466,-96.83 475.2,-93.25 475.17,-88.24 484,-83.83 497.72,-76.97 513.61,-71.47 527.82,-67.34"/>
<polygon fill="midnightblue" stroke="midnightblue" points="405.79,-106.31 396.11,-110.61 406.37,-113.28 405.79,-106.31"/>
</g>
<!-- Node18 -->
<g id="node18" class="node">
<title>Node18</title>
<g id="a_node18"><a xlink:title="STL class.">
<polygon fill="white" stroke="#bfbfbf" points="156,-84.33 156,-103.33 200,-103.33 200,-84.33 156,-84.33"/>
<text text-anchor="middle" x="178" y="-91.33" font-family="Helvetica,sans-Serif" font-size="10.00">string</text>
</a>
</g>
</g>
<!-- Node18&#45;&gt;Node16 -->
<g id="edge19" class="edge">
<title>Node18&#45;&gt;Node16</title>
<path fill="none" stroke="#9a32cd" stroke-dasharray="5,2" d="M199.61,-109.25C205.32,-112.89 211.69,-116.41 218,-118.83 321.19,-158.28 361.5,-171.68 466,-135.83 475.59,-132.54 474.84,-126.17 484,-121.83 492.2,-117.94 501.23,-114.83 510.23,-112.35"/>
<polygon fill="#9a32cd" stroke="#9a32cd" points="201.52,-106.32 191.29,-103.57 197.58,-112.1 201.52,-106.32"/>
<text text-anchor="middle" x="345.5" y="-180.83" font-family="Helvetica,sans-Serif" font-size="10.00"> xprefix</text>
<text text-anchor="middle" x="345.5" y="-169.83" font-family="Helvetica,sans-Serif" font-size="10.00">yprefix</text>
<text text-anchor="middle" x="345.5" y="-158.83" font-family="Helvetica,sans-Serif" font-size="10.00">zprefix</text>
</g>
<!-- Node18&#45;&gt;Node17 -->
<g id="edge17" class="edge">
<title>Node18&#45;&gt;Node17</title>
<path fill="none" stroke="#9a32cd" stroke-dasharray="5,2" d="M210.52,-97.06C234.32,-99.51 267.45,-102.91 294.8,-105.72"/>
<polygon fill="#9a32cd" stroke="#9a32cd" points="210.6,-93.55 200.3,-96.01 209.89,-100.52 210.6,-93.55"/>
<text text-anchor="middle" x="243" y="-106.83" font-family="Helvetica,sans-Serif" font-size="10.00"> separator</text>
</g>
<!-- Node20 -->
<g id="node20" class="node">
<title>Node20</title>
<g id="a_node20"><a xlink:title=" ">
<polygon fill="white" stroke="#bfbfbf" points="286,-53.33 286,-72.33 405,-72.33 405,-53.33 286,-53.33"/>
<text text-anchor="middle" x="345.5" y="-60.33" font-family="Helvetica,sans-Serif" font-size="10.00">vector&lt; std::string &gt;</text>
</a>
</g>
</g>
<!-- Node18&#45;&gt;Node20 -->
<g id="edge21" class="edge">
<title>Node18&#45;&gt;Node20</title>
<path fill="none" stroke="#9a32cd" stroke-dasharray="5,2" d="M210.29,-85.55C212.89,-84.94 215.49,-84.36 218,-83.83 240,-79.19 264.33,-74.94 285.73,-71.5"/>
<polygon fill="#9a32cd" stroke="#9a32cd" points="209.25,-82.2 200.38,-87.99 210.92,-89 209.25,-82.2"/>
<text text-anchor="middle" x="243" y="-86.83" font-family="Helvetica,sans-Serif" font-size="10.00"> elements</text>
</g>
<!-- Node18&#45;&gt;Node22 -->
<g id="edge25" class="edge">
<title>Node18&#45;&gt;Node22</title>
<path fill="none" stroke="#9a32cd" stroke-dasharray="5,2" d="M196.89,-77.42C216.93,-60.15 251.19,-33.85 286,-21.83 361.73,4.33 387.68,5.09 466,-11.83 498.34,-18.81 532.76,-36.99 552.06,-48.29"/>
<polygon fill="#9a32cd" stroke="#9a32cd" points="194.4,-74.95 189.22,-84.19 199.03,-80.2 194.4,-74.95"/>
<text text-anchor="middle" x="345.5" y="-35.83" font-family="Helvetica,sans-Serif" font-size="10.00"> fprefix</text>
<text text-anchor="middle" x="345.5" y="-24.83" font-family="Helvetica,sans-Serif" font-size="10.00">xprefix</text>
</g>
<!-- Node19 -->
<g id="node19" class="node">
<title>Node19</title>
<g id="a_node19"><a xlink:title="STL class.">
<polygon fill="white" stroke="#bfbfbf" points="0,-84.33 0,-103.33 119,-103.33 119,-84.33 0,-84.33"/>
<text text-anchor="middle" x="59.5" y="-91.33" font-family="Helvetica,sans-Serif" font-size="10.00">basic_string&lt; char &gt;</text>
</a>
</g>
</g>
<!-- Node19&#45;&gt;Node18 -->
<g id="edge18" class="edge">
<title>Node19&#45;&gt;Node18</title>
<path fill="none" stroke="midnightblue" d="M129.21,-93.83C138.82,-93.83 148.05,-93.83 155.78,-93.83"/>
<polygon fill="midnightblue" stroke="midnightblue" points="129.09,-90.33 119.09,-93.83 129.09,-97.33 129.09,-90.33"/>
</g>
<!-- Node20&#45;&gt;Node16 -->
<g id="edge20" class="edge">
<title>Node20&#45;&gt;Node16</title>
<path fill="none" stroke="#9a32cd" stroke-dasharray="5,2" d="M409.26,-74.19C442.62,-80.22 483.17,-87.56 514.87,-93.3"/>
<polygon fill="#9a32cd" stroke="#9a32cd" points="409.62,-70.69 399.15,-72.36 408.37,-77.58 409.62,-70.69"/>
<text text-anchor="middle" x="444.5" y="-109.83" font-family="Helvetica,sans-Serif" font-size="10.00"> xnames</text>
<text text-anchor="middle" x="444.5" y="-98.83" font-family="Helvetica,sans-Serif" font-size="10.00">ynames</text>
<text text-anchor="middle" x="444.5" y="-87.83" font-family="Helvetica,sans-Serif" font-size="10.00">znames</text>
</g>
<!-- Node20&#45;&gt;Node22 -->
<g id="edge26" class="edge">
<title>Node20&#45;&gt;Node22</title>
<path fill="none" stroke="#9a32cd" stroke-dasharray="5,2" d="M366.9,-47.13C381.6,-36.84 402.41,-24.33 423,-18.83 469.95,-6.29 525.41,-32.88 551.9,-48.12"/>
<polygon fill="#9a32cd" stroke="#9a32cd" points="364.63,-44.45 358.59,-53.16 368.74,-50.12 364.63,-44.45"/>
<text text-anchor="middle" x="444.5" y="-32.83" font-family="Helvetica,sans-Serif" font-size="10.00"> fnames</text>
<text text-anchor="middle" x="444.5" y="-21.83" font-family="Helvetica,sans-Serif" font-size="10.00">xnames</text>
</g>
<!-- Node21 -->
<g id="node21" class="node">
<title>Node21</title>
<g id="a_node21"><a xlink:href="structReaktoro_1_1NonlinearOptions.html" target="_top" xlink:title="A type that describes the options for the solution of a non&#45;linear problem.">
<polygon fill="white" stroke="black" points="779,-135.33 779,-154.33 880,-154.33 880,-135.33 779,-135.33"/>
<text text-anchor="middle" x="829.5" y="-142.33" font-family="Helvetica,sans-Serif" font-size="10.00">NonlinearOptions</text>
</a>
</g>
</g>
<!-- Node21&#45;&gt;Node3 -->
<g id="edge22" class="edge">
<title>Node21&#45;&gt;Node3</title>
<path fill="none" stroke="#9a32cd" stroke-dasharray="5,2" d="M890.39,-144.83C919.92,-144.83 955.27,-144.83 983.97,-144.83"/>
<polygon fill="#9a32cd" stroke="#9a32cd" points="890.2,-141.33 880.2,-144.83 890.2,-148.33 890.2,-141.33"/>
<text text-anchor="middle" x="941.5" y="-147.83" font-family="Helvetica,sans-Serif" font-size="10.00"> nonlinear</text>
</g>
<!-- Node22&#45;&gt;Node21 -->
<g id="edge23" class="edge">
<title>Node22&#45;&gt;Node21</title>
<path fill="none" stroke="#9a32cd" stroke-dasharray="5,2" d="M627.06,-47.5C663.66,-44.26 710.01,-46.74 742,-71.83 761.91,-87.44 741.66,-108.4 760,-125.83 765.37,-130.93 771.98,-134.68 778.96,-137.44"/>
<polygon fill="#9a32cd" stroke="#9a32cd" points="626.6,-44.03 617.02,-48.55 627.33,-50.99 626.6,-44.03"/>
<text text-anchor="middle" x="706.5" y="-74.83" font-family="Helvetica,sans-Serif" font-size="10.00"> output</text>
</g>
<!-- Node23 -->
<g id="node23" class="node">
<title>Node23</title>
<g id="a_node23"><a xlink:href="structReaktoro_1_1SmartEquilibriumOptions.html" target="_top" xlink:title="The options for the smart equilibrium calculations.">
<polygon fill="white" stroke="black" points="760,-97.33 760,-116.33 899,-116.33 899,-97.33 760,-97.33"/>
<text text-anchor="middle" x="829.5" y="-104.33" font-family="Helvetica,sans-Serif" font-size="10.00">SmartEquilibriumOptions</text>
</a>
</g>
</g>
<!-- Node23&#45;&gt;Node3 -->
<g id="edge27" class="edge">
<title>Node23&#45;&gt;Node3</title>
<path fill="none" stroke="#9a32cd" stroke-dasharray="5,2" d="M899.56,-118.04C920.89,-121.64 944.44,-125.75 966,-129.83 974.91,-131.51 984.41,-133.41 993.5,-135.29"/>
<polygon fill="#9a32cd" stroke="#9a32cd" points="900.05,-114.57 889.61,-116.37 898.9,-121.48 900.05,-114.57"/>
<text text-anchor="middle" x="941.5" y="-132.83" font-family="Helvetica,sans-Serif" font-size="10.00"> smart</text>
</g>
</g>
</svg>
