<?xml version="1.0" encoding="UTF-8" standalone="no"?>
<!DOCTYPE svg PUBLIC "-//W3C//DTD SVG 1.1//EN"
 "http://www.w3.org/Graphics/SVG/1.1/DTD/svg11.dtd">
<!-- Generated by graphviz version 2.50.0 (20211209.0339)
 -->
<!-- Title: ReactionThermoInterpolatedProperties Pages: 1 -->
<svg width="357pt" height="283pt"
 viewBox="0.00 0.00 356.50 283.00" xmlns="http://www.w3.org/2000/svg" xmlns:xlink="http://www.w3.org/1999/xlink">
<g id="graph0" class="graph" transform="scale(1 1) rotate(0) translate(4 279)">
<title>ReactionThermoInterpolatedProperties</title>
<polygon fill="white" stroke="transparent" points="-4,4 -4,-279 352.5,-279 352.5,4 -4,4"/>
<!-- Node1 -->
<g id="node1" class="node">
<title>Node1</title>
<g id="a_node1"><a xlink:title="A type for storing thermodynamic properties of a reaction over a range of temperatures and pressures.">
<polygon fill="#bfbfbf" stroke="black" points="74.5,-0.5 74.5,-30.5 230.5,-30.5 230.5,-0.5 74.5,-0.5"/>
<text text-anchor="start" x="82.5" y="-18.5" font-family="Helvetica,sans-Serif" font-size="10.00">ReactionThermoInterpolated</text>
<text text-anchor="middle" x="152.5" y="-7.5" font-family="Helvetica,sans-Serif" font-size="10.00">Properties</text>
</a>
</g>
</g>
<!-- Node2 -->
<g id="node2" class="node">
<title>Node2</title>
<g id="a_node2"><a xlink:href="structReaktoro_1_1SpeciesThermoInterpolatedProperties.html" target="_top" xlink:title="A type for storing thermodynamic properties of a species over a range of temperatures and pressures.">
<polygon fill="white" stroke="black" points="77,-78.5 77,-108.5 228,-108.5 228,-78.5 77,-78.5"/>
<text text-anchor="start" x="85" y="-96.5" font-family="Helvetica,sans-Serif" font-size="10.00">SpeciesThermoInterpolated</text>
<text text-anchor="middle" x="152.5" y="-85.5" font-family="Helvetica,sans-Serif" font-size="10.00">Properties</text>
</a>
</g>
</g>
<!-- Node2&#45;&gt;Node1 -->
<g id="edge1" class="edge">
<title>Node2&#45;&gt;Node1</title>
<path fill="none" stroke="midnightblue" d="M152.5,-68.09C152.5,-55.76 152.5,-41.22 152.5,-30.73"/>
<polygon fill="midnightblue" stroke="midnightblue" points="149,-68.2 152.5,-78.2 156,-68.21 149,-68.2"/>
</g>
<!-- Node3 -->
<g id="node3" class="node">
<title>Node3</title>
<g id="a_node3"><a xlink:href="classReaktoro_1_1BilinearInterpolator.html" target="_top" xlink:title="A class used to calculate bilinear interpolation of data in two dimensions.">
<polygon fill="white" stroke="black" points="0,-255.5 0,-274.5 111,-274.5 111,-255.5 0,-255.5"/>
<text text-anchor="middle" x="55.5" y="-262.5" font-family="Helvetica,sans-Serif" font-size="10.00">BilinearInterpolator</text>
</a>
</g>
</g>
<!-- Node3&#45;&gt;Node1 -->
<g id="edge3" class="edge">
<title>Node3&#45;&gt;Node1</title>
<path fill="none" stroke="#9a32cd" stroke-dasharray="5,2" d="M48.84,-245.65C37.29,-210.46 17.58,-132.2 48.5,-78 61.44,-55.32 86.39,-40.15 108.61,-30.55"/>
<polygon fill="#9a32cd" stroke="#9a32cd" points="45.66,-247.16 52.23,-255.47 52.28,-244.88 45.66,-247.16"/>
<text text-anchor="middle" x="58" y="-91" font-family="Helvetica,sans-Serif" font-size="10.00"> lnk</text>
</g>
<!-- Node3&#45;&gt;Node2 -->
<g id="edge2" class="edge">
<title>Node3&#45;&gt;Node2</title>
<path fill="none" stroke="#9a32cd" stroke-dasharray="5,2" d="M65.44,-246.64C84.71,-212.97 126.8,-139.41 144.46,-108.56"/>
<polygon fill="#9a32cd" stroke="#9a32cd" points="62.37,-244.94 60.44,-255.36 68.45,-248.42 62.37,-244.94"/>
<text text-anchor="middle" x="176.5" y="-229" font-family="Helvetica,sans-Serif" font-size="10.00"> enthalpy</text>
<text text-anchor="middle" x="176.5" y="-218" font-family="Helvetica,sans-Serif" font-size="10.00">entropy</text>
<text text-anchor="middle" x="176.5" y="-207" font-family="Helvetica,sans-Serif" font-size="10.00">gibbs_energy</text>
<text text-anchor="start" x="132.5" y="-196" font-family="Helvetica,sans-Serif" font-size="10.00">heat_capacity</text>
<text text-anchor="middle" x="176.5" y="-185" font-family="Helvetica,sans-Serif" font-size="10.00">_cp</text>
<text text-anchor="start" x="132.5" y="-174" font-family="Helvetica,sans-Serif" font-size="10.00">heat_capacity</text>
<text text-anchor="middle" x="176.5" y="-163" font-family="Helvetica,sans-Serif" font-size="10.00">_cv</text>
<text text-anchor="middle" x="176.5" y="-152" font-family="Helvetica,sans-Serif" font-size="10.00">helmholtz_energy</text>
<text text-anchor="middle" x="176.5" y="-141" font-family="Helvetica,sans-Serif" font-size="10.00">internal_energy</text>
<text text-anchor="middle" x="176.5" y="-130" font-family="Helvetica,sans-Serif" font-size="10.00">volume</text>
</g>
<!-- Node4 -->
<g id="node4" class="node">
<title>Node4</title>
<g id="a_node4"><a xlink:href="classReaktoro_1_1ReactionEquation.html" target="_top" xlink:title="Define a type that describes the equation of a reaction.">
<polygon fill="white" stroke="black" points="246.5,-84 246.5,-103 348.5,-103 348.5,-84 246.5,-84"/>
<text text-anchor="middle" x="297.5" y="-91" font-family="Helvetica,sans-Serif" font-size="10.00">ReactionEquation</text>
</a>
</g>
</g>
<!-- Node4&#45;&gt;Node1 -->
<g id="edge4" class="edge">
<title>Node4&#45;&gt;Node1</title>
<path fill="none" stroke="#9a32cd" stroke-dasharray="5,2" d="M272.28,-79.28C246.29,-65.66 205.94,-44.51 179.37,-30.58"/>
<polygon fill="#9a32cd" stroke="#9a32cd" points="270.67,-82.39 281.15,-83.93 273.92,-76.19 270.67,-82.39"/>
<text text-anchor="middle" x="257.5" y="-52" font-family="Helvetica,sans-Serif" font-size="10.00"> equation</text>
</g>
</g>
</svg>
