<?xml version="1.0" encoding="UTF-8" standalone="no"?>
<!DOCTYPE svg PUBLIC "-//W3C//DTD SVG 1.1//EN"
 "http://www.w3.org/Graphics/SVG/1.1/DTD/svg11.dtd">
<!-- Generated by graphviz version 3.0.0 (20220226.1711)
 -->
<!-- Title: EquilibriumPathResult Pages: 1 -->
<svg width="230pt" height="162pt"
 viewBox="0.00 0.00 230.00 162.00" xmlns="http://www.w3.org/2000/svg" xmlns:xlink="http://www.w3.org/1999/xlink">
<g id="graph0" class="graph" transform="scale(1 1) rotate(0) translate(4 158)">
<title>EquilibriumPathResult</title>
<polygon fill="white" stroke="transparent" points="-4,4 -4,-158 226,-158 226,4 -4,4"/>
<!-- Node1 -->
<g id="node1" class="node">
<title>Node1</title>
<g id="a_node1"><a xlink:title="A struct that describes the result of an equilibrium path calculation.">
<polygon fill="#bfbfbf" stroke="black" points="46,-0.5 46,-19.5 159,-19.5 159,-0.5 46,-0.5"/>
<text text-anchor="middle" x="102.5" y="-7.5" font-family="Helvetica,sans-Serif" font-size="10.00">EquilibriumPathResult</text>
</a>
</g>
</g>
<!-- Node2 -->
<g id="node2" class="node">
<title>Node2</title>
<g id="a_node2"><a xlink:href="structReaktoro_1_1EquilibriumResult.html" target="_top" xlink:title="A type used to describe the result of an equilibrium calculation.">
<polygon fill="white" stroke="black" points="56,-67.5 56,-86.5 149,-86.5 149,-67.5 56,-67.5"/>
<text text-anchor="middle" x="102.5" y="-74.5" font-family="Helvetica,sans-Serif" font-size="10.00">EquilibriumResult</text>
</a>
</g>
</g>
<!-- Node2&#45;&gt;Node1 -->
<g id="edge1" class="edge">
<title>Node2&#45;&gt;Node1</title>
<path fill="none" stroke="#9a32cd" stroke-dasharray="5,2" d="M102.5,-57.04C102.5,-44.67 102.5,-29.12 102.5,-19.63"/>
<polygon fill="#9a32cd" stroke="#9a32cd" points="99,-57.23 102.5,-67.23 106,-57.23 99,-57.23"/>
<text text-anchor="middle" x="127.5" y="-41" font-family="Helvetica,sans-Serif" font-size="10.00"> equilibrium</text>
</g>
<!-- Node3 -->
<g id="node3" class="node">
<title>Node3</title>
<g id="a_node3"><a xlink:href="structReaktoro_1_1OptimumResult.html" target="_top" xlink:title="A type that describes the result of an optimisation calculation.">
<polygon fill="white" stroke="black" points="0,-134.5 0,-153.5 85,-153.5 85,-134.5 0,-134.5"/>
<text text-anchor="middle" x="42.5" y="-141.5" font-family="Helvetica,sans-Serif" font-size="10.00">OptimumResult</text>
</a>
</g>
</g>
<!-- Node3&#45;&gt;Node2 -->
<g id="edge2" class="edge">
<title>Node3&#45;&gt;Node2</title>
<path fill="none" stroke="#9a32cd" stroke-dasharray="5,2" d="M57.61,-126.63C69.34,-113.92 85.15,-96.8 94.54,-86.63"/>
<polygon fill="#9a32cd" stroke="#9a32cd" points="54.8,-124.51 50.59,-134.23 59.95,-129.26 54.8,-124.51"/>
<text text-anchor="middle" x="97" y="-108" font-family="Helvetica,sans-Serif" font-size="10.00"> optimum</text>
</g>
<!-- Node4 -->
<g id="node4" class="node">
<title>Node4</title>
<g id="a_node4"><a xlink:href="structReaktoro_1_1SmartEquilibriumResult.html" target="_top" xlink:title="A type used to describe the result of a smart equilibrium calculation.">
<polygon fill="white" stroke="black" points="103,-134.5 103,-153.5 222,-153.5 222,-134.5 103,-134.5"/>
<text text-anchor="middle" x="162.5" y="-141.5" font-family="Helvetica,sans-Serif" font-size="10.00">SmartEquilibriumResult</text>
</a>
</g>
</g>
<!-- Node4&#45;&gt;Node2 -->
<g id="edge3" class="edge">
<title>Node4&#45;&gt;Node2</title>
<path fill="none" stroke="#9a32cd" stroke-dasharray="5,2" d="M147.39,-126.63C135.66,-113.92 119.85,-96.8 110.46,-86.63"/>
<polygon fill="#9a32cd" stroke="#9a32cd" points="145.05,-129.26 154.41,-134.23 150.2,-124.51 145.05,-129.26"/>
<text text-anchor="middle" x="149.5" y="-108" font-family="Helvetica,sans-Serif" font-size="10.00"> smart</text>
</g>
</g>
</svg>
