<?xml version="1.0" encoding="UTF-8" standalone="no"?>
<!DOCTYPE svg PUBLIC "-//W3C//DTD SVG 1.1//EN"
 "http://www.w3.org/Graphics/SVG/1.1/DTD/svg11.dtd">
<!-- Generated by graphviz version 3.0.0 (20220226.1711)
 -->
<!-- Title: SpeciesThermoParamsPhreeqc Pages: 1 -->
<svg width="210pt" height="162pt"
 viewBox="0.00 0.00 210.00 162.00" xmlns="http://www.w3.org/2000/svg" xmlns:xlink="http://www.w3.org/1999/xlink">
<g id="graph0" class="graph" transform="scale(1 1) rotate(0) translate(4 158)">
<title>SpeciesThermoParamsPhreeqc</title>
<polygon fill="white" stroke="transparent" points="-4,4 -4,-158 206,-158 206,4 -4,4"/>
<!-- Node1 -->
<g id="node1" class="node">
<title>Node1</title>
<g id="a_node1"><a xlink:title="A type for storing Phreeqc parameters of a species.">
<polygon fill="#bfbfbf" stroke="black" points="24.5,-0.5 24.5,-19.5 179.5,-19.5 179.5,-0.5 24.5,-0.5"/>
<text text-anchor="middle" x="102" y="-7.5" font-family="Helvetica,sans-Serif" font-size="10.00">SpeciesThermoParamsPhreeqc</text>
</a>
</g>
</g>
<!-- Node2 -->
<g id="node2" class="node">
<title>Node2</title>
<g id="a_node2"><a xlink:href="structReaktoro_1_1SpeciesThermoParamsPhreeqc_1_1ReactionParams.html" target="_top" xlink:title=" ">
<polygon fill="white" stroke="#bfbfbf" points="57.5,-67.5 57.5,-86.5 146.5,-86.5 146.5,-67.5 57.5,-67.5"/>
<text text-anchor="middle" x="102" y="-74.5" font-family="Helvetica,sans-Serif" font-size="10.00">ReactionParams</text>
</a>
</g>
</g>
<!-- Node2&#45;&gt;Node1 -->
<g id="edge1" class="edge">
<title>Node2&#45;&gt;Node1</title>
<path fill="none" stroke="#9a32cd" stroke-dasharray="5,2" d="M102,-57.04C102,-44.67 102,-29.12 102,-19.63"/>
<polygon fill="#9a32cd" stroke="#9a32cd" points="98.5,-57.23 102,-67.23 105.5,-57.23 98.5,-57.23"/>
<text text-anchor="middle" x="121" y="-41" font-family="Helvetica,sans-Serif" font-size="10.00"> reaction</text>
</g>
<!-- Node3 -->
<g id="node3" class="node">
<title>Node3</title>
<g id="a_node3"><a xlink:href="classReaktoro_1_1ReactionEquation.html" target="_top" xlink:title="Define a type that describes the equation of a reaction.">
<polygon fill="white" stroke="black" points="0,-134.5 0,-153.5 94,-153.5 94,-134.5 0,-134.5"/>
<text text-anchor="middle" x="47" y="-141.5" font-family="Helvetica,sans-Serif" font-size="10.00">ReactionEquation</text>
</a>
</g>
</g>
<!-- Node3&#45;&gt;Node2 -->
<g id="edge2" class="edge">
<title>Node3&#45;&gt;Node2</title>
<path fill="none" stroke="#9a32cd" stroke-dasharray="5,2" d="M61.16,-126.27C71.88,-113.6 86.18,-96.7 94.7,-86.63"/>
<polygon fill="#9a32cd" stroke="#9a32cd" points="58.21,-124.34 54.42,-134.23 63.55,-128.86 58.21,-124.34"/>
<text text-anchor="middle" x="98" y="-108" font-family="Helvetica,sans-Serif" font-size="10.00"> equation</text>
</g>
<!-- Node4 -->
<g id="node4" class="node">
<title>Node4</title>
<g id="a_node4"><a xlink:title=" ">
<polygon fill="white" stroke="black" points="112,-134.5 112,-153.5 202,-153.5 202,-134.5 112,-134.5"/>
<text text-anchor="middle" x="157" y="-141.5" font-family="Helvetica,sans-Serif" font-size="10.00">vector&lt; double &gt;</text>
</a>
</g>
</g>
<!-- Node4&#45;&gt;Node2 -->
<g id="edge3" class="edge">
<title>Node4&#45;&gt;Node2</title>
<path fill="none" stroke="#9a32cd" stroke-dasharray="5,2" d="M142.84,-126.27C132.12,-113.6 117.82,-96.7 109.3,-86.63"/>
<polygon fill="#9a32cd" stroke="#9a32cd" points="140.45,-128.86 149.58,-134.23 145.79,-124.34 140.45,-128.86"/>
<text text-anchor="middle" x="150.5" y="-108" font-family="Helvetica,sans-Serif" font-size="10.00"> analytic</text>
</g>
</g>
</svg>
