<?xml version="1.0" encoding="UTF-8" standalone="no"?>
<!DOCTYPE svg PUBLIC "-//W3C//DTD SVG 1.1//EN"
 "http://www.w3.org/Graphics/SVG/1.1/DTD/svg11.dtd">
<!-- Generated by graphviz version 2.50.0 (20211209.0339)
 -->
<!-- Title: InterpolationOptions Pages: 1 -->
<svg width="239pt" height="163pt"
 viewBox="0.00 0.00 238.50 163.00" xmlns="http://www.w3.org/2000/svg" xmlns:xlink="http://www.w3.org/1999/xlink">
<g id="graph0" class="graph" transform="scale(1 1) rotate(0) translate(4 159)">
<title>InterpolationOptions</title>
<polygon fill="white" stroke="transparent" points="-4,4 -4,-159 234.5,-159 234.5,4 -4,4"/>
<!-- Node1 -->
<g id="node1" class="node">
<title>Node1</title>
<g id="a_node1"><a xlink:title="A type used to describe all options related to interpolation.">
<polygon fill="#bfbfbf" stroke="black" points="58.5,-0.5 58.5,-19.5 174.5,-19.5 174.5,-0.5 58.5,-0.5"/>
<text text-anchor="middle" x="116.5" y="-7.5" font-family="Helvetica,sans-Serif" font-size="10.00">InterpolationOptions</text>
</a>
</g>
</g>
<!-- Node2 -->
<g id="node2" class="node">
<title>Node2</title>
<g id="a_node2"><a xlink:title="STL class.">
<polygon fill="white" stroke="#bfbfbf" points="37.5,-78.5 37.5,-97.5 81.5,-97.5 81.5,-78.5 37.5,-78.5"/>
<text text-anchor="middle" x="59.5" y="-85.5" font-family="Helvetica,sans-Serif" font-size="10.00">string</text>
</a>
</g>
</g>
<!-- Node2&#45;&gt;Node1 -->
<g id="edge1" class="edge">
<title>Node2&#45;&gt;Node1</title>
<path fill="none" stroke="#9a32cd" stroke-dasharray="5,2" d="M55.46,-68.32C54.39,-58.56 54.82,-46.84 60.5,-38 65.92,-29.55 74.8,-23.68 83.9,-19.63"/>
<polygon fill="#9a32cd" stroke="#9a32cd" points="52.02,-68.96 57.12,-78.25 58.93,-67.81 52.02,-68.96"/>
<text text-anchor="middle" x="106" y="-52" font-family="Helvetica,sans-Serif" font-size="10.00"> pressure_units</text>
<text text-anchor="middle" x="106" y="-41" font-family="Helvetica,sans-Serif" font-size="10.00">temperature_units</text>
</g>
<!-- Node3 -->
<g id="node3" class="node">
<title>Node3</title>
<g id="a_node3"><a xlink:title="STL class.">
<polygon fill="white" stroke="#bfbfbf" points="0,-135.5 0,-154.5 119,-154.5 119,-135.5 0,-135.5"/>
<text text-anchor="middle" x="59.5" y="-142.5" font-family="Helvetica,sans-Serif" font-size="10.00">basic_string&lt; char &gt;</text>
</a>
</g>
</g>
<!-- Node3&#45;&gt;Node2 -->
<g id="edge2" class="edge">
<title>Node3&#45;&gt;Node2</title>
<path fill="none" stroke="midnightblue" d="M59.5,-125.12C59.5,-115.82 59.5,-105.06 59.5,-97.71"/>
<polygon fill="midnightblue" stroke="midnightblue" points="56,-125.41 59.5,-135.41 63,-125.41 56,-125.41"/>
</g>
<!-- Node4 -->
<g id="node4" class="node">
<title>Node4</title>
<g id="a_node4"><a xlink:title=" ">
<polygon fill="white" stroke="#bfbfbf" points="122,-78.5 122,-97.5 225,-97.5 225,-78.5 122,-78.5"/>
<text text-anchor="middle" x="173.5" y="-85.5" font-family="Helvetica,sans-Serif" font-size="10.00">vector&lt; double &gt;</text>
</a>
</g>
</g>
<!-- Node4&#45;&gt;Node1 -->
<g id="edge3" class="edge">
<title>Node4&#45;&gt;Node1</title>
<path fill="none" stroke="#9a32cd" stroke-dasharray="5,2" d="M167.77,-68.79C164.12,-59.02 158.71,-47.14 151.5,-38 145.8,-30.77 137.75,-24.38 130.81,-19.64"/>
<polygon fill="#9a32cd" stroke="#9a32cd" points="164.49,-70.02 171.04,-78.34 171.11,-67.75 164.49,-70.02"/>
<text text-anchor="middle" x="197" y="-52" font-family="Helvetica,sans-Serif" font-size="10.00"> pressures</text>
<text text-anchor="middle" x="197" y="-41" font-family="Helvetica,sans-Serif" font-size="10.00">temperatures</text>
</g>
</g>
</svg>
