<?xml version="1.0" encoding="UTF-8" standalone="no"?>
<!DOCTYPE svg PUBLIC "-//W3C//DTD SVG 1.1//EN"
 "http://www.w3.org/Graphics/SVG/1.1/DTD/svg11.dtd">
<!-- Generated by graphviz version 2.50.0 (20211209.0339)
 -->
<!-- Title: AqueousOptions Pages: 1 -->
<svg width="156pt" height="95pt"
 viewBox="0.00 0.00 155.50 95.00" xmlns="http://www.w3.org/2000/svg" xmlns:xlink="http://www.w3.org/1999/xlink">
<g id="graph0" class="graph" transform="scale(1 1) rotate(0) translate(4 91)">
<title>AqueousOptions</title>
<polygon fill="white" stroke="transparent" points="-4,4 -4,-91 151.5,-91 151.5,4 -4,4"/>
<!-- Node1 -->
<g id="node1" class="node">
<title>Node1</title>
<g id="a_node1"><a xlink:title="A type used to describe all options related to aqueous models.">
<polygon fill="#bfbfbf" stroke="black" points="8.5,-0.5 8.5,-19.5 104.5,-19.5 104.5,-0.5 8.5,-0.5"/>
<text text-anchor="middle" x="56.5" y="-7.5" font-family="Helvetica,sans-Serif" font-size="10.00">AqueousOptions</text>
</a>
</g>
</g>
<!-- Node2 -->
<g id="node2" class="node">
<title>Node2</title>
<g id="a_node2"><a xlink:href="structReaktoro_1_1global_1_1AqueousOptions_1_1HKF.html" target="_top" xlink:title="A type used to describe all options related to HKF model.">
<polygon fill="white" stroke="black" points="0,-67.5 0,-86.5 37,-86.5 37,-67.5 0,-67.5"/>
<text text-anchor="middle" x="18.5" y="-74.5" font-family="Helvetica,sans-Serif" font-size="10.00">HKF</text>
</a>
</g>
</g>
<!-- Node2&#45;&gt;Node1 -->
<g id="edge1" class="edge">
<title>Node2&#45;&gt;Node1</title>
<path fill="none" stroke="#9a32cd" stroke-dasharray="5,2" d="M28.71,-58.53C36.07,-45.95 45.68,-29.51 51.46,-19.63"/>
<polygon fill="#9a32cd" stroke="#9a32cd" points="25.65,-56.83 23.62,-67.23 31.69,-60.37 25.65,-56.83"/>
<text text-anchor="middle" x="50" y="-41" font-family="Helvetica,sans-Serif" font-size="10.00"> hkf</text>
</g>
<!-- Node3 -->
<g id="node3" class="node">
<title>Node3</title>
<g id="a_node3"><a xlink:href="structReaktoro_1_1global_1_1AqueousOptions_1_1DebyeHuckel.html" target="_top" xlink:title="A type used to describe all options related to Debye&#45;Huckel model.">
<polygon fill="white" stroke="black" points="55,-67.5 55,-86.5 136,-86.5 136,-67.5 55,-67.5"/>
<text text-anchor="middle" x="95.5" y="-74.5" font-family="Helvetica,sans-Serif" font-size="10.00">DebyeHuckel</text>
</a>
</g>
</g>
<!-- Node3&#45;&gt;Node1 -->
<g id="edge2" class="edge">
<title>Node3&#45;&gt;Node1</title>
<path fill="none" stroke="#9a32cd" stroke-dasharray="5,2" d="M85.02,-58.53C77.47,-45.95 67.6,-29.51 61.68,-19.63"/>
<polygon fill="#9a32cd" stroke="#9a32cd" points="82.09,-60.46 90.24,-67.23 88.1,-56.86 82.09,-60.46"/>
<text text-anchor="middle" x="112.5" y="-41" font-family="Helvetica,sans-Serif" font-size="10.00"> debye_huckel</text>
</g>
</g>
</svg>
