<?xml version="1.0" encoding="UTF-8" standalone="no"?>
<!DOCTYPE svg PUBLIC "-//W3C//DTD SVG 1.1//EN"
 "http://www.w3.org/Graphics/SVG/1.1/DTD/svg11.dtd">
<!-- Generated by graphviz version 2.50.0 (20211209.0339)
 -->
<!-- Title: SpeciesThermoParamsPhreeqc Pages: 1 -->
<svg width="232pt" height="162pt"
 viewBox="0.00 0.00 231.50 162.00" xmlns="http://www.w3.org/2000/svg" xmlns:xlink="http://www.w3.org/1999/xlink">
<g id="graph0" class="graph" transform="scale(1 1) rotate(0) translate(4 158)">
<title>SpeciesThermoParamsPhreeqc</title>
<polygon fill="white" stroke="transparent" points="-4,4 -4,-158 227.5,-158 227.5,4 -4,4"/>
<!-- Node1 -->
<g id="node1" class="node">
<title>Node1</title>
<g id="a_node1"><a xlink:title="A type for storing Phreeqc parameters of a species.">
<polygon fill="#bfbfbf" stroke="black" points="27.5,-0.5 27.5,-19.5 194.5,-19.5 194.5,-0.5 27.5,-0.5"/>
<text text-anchor="middle" x="111" y="-7.5" font-family="Helvetica,sans-Serif" font-size="10.00">SpeciesThermoParamsPhreeqc</text>
</a>
</g>
</g>
<!-- Node2 -->
<g id="node2" class="node">
<title>Node2</title>
<g id="a_node2"><a xlink:href="structReaktoro_1_1SpeciesThermoParamsPhreeqc_1_1ReactionParams.html" target="_top" xlink:title=" ">
<polygon fill="white" stroke="black" points="63.5,-67.5 63.5,-86.5 158.5,-86.5 158.5,-67.5 63.5,-67.5"/>
<text text-anchor="middle" x="111" y="-74.5" font-family="Helvetica,sans-Serif" font-size="10.00">ReactionParams</text>
</a>
</g>
</g>
<!-- Node2&#45;&gt;Node1 -->
<g id="edge1" class="edge">
<title>Node2&#45;&gt;Node1</title>
<path fill="none" stroke="#9a32cd" stroke-dasharray="5,2" d="M111,-57.04C111,-44.67 111,-29.12 111,-19.63"/>
<polygon fill="#9a32cd" stroke="#9a32cd" points="107.5,-57.23 111,-67.23 114.5,-57.23 107.5,-57.23"/>
<text text-anchor="middle" x="132.5" y="-41" font-family="Helvetica,sans-Serif" font-size="10.00"> reaction</text>
</g>
<!-- Node3 -->
<g id="node3" class="node">
<title>Node3</title>
<g id="a_node3"><a xlink:href="classReaktoro_1_1ReactionEquation.html" target="_top" xlink:title="Define a type that describes the equation of a reaction.">
<polygon fill="white" stroke="black" points="0,-134.5 0,-153.5 102,-153.5 102,-134.5 0,-134.5"/>
<text text-anchor="middle" x="51" y="-141.5" font-family="Helvetica,sans-Serif" font-size="10.00">ReactionEquation</text>
</a>
</g>
</g>
<!-- Node3&#45;&gt;Node2 -->
<g id="edge2" class="edge">
<title>Node3&#45;&gt;Node2</title>
<path fill="none" stroke="#9a32cd" stroke-dasharray="5,2" d="M66.11,-126.63C77.84,-113.92 93.65,-96.8 103.04,-86.63"/>
<polygon fill="#9a32cd" stroke="#9a32cd" points="63.3,-124.51 59.09,-134.23 68.45,-129.26 63.3,-124.51"/>
<text text-anchor="middle" x="108" y="-108" font-family="Helvetica,sans-Serif" font-size="10.00"> equation</text>
</g>
<!-- Node4 -->
<g id="node4" class="node">
<title>Node4</title>
<g id="a_node4"><a xlink:title=" ">
<polygon fill="white" stroke="#bfbfbf" points="120.5,-134.5 120.5,-153.5 223.5,-153.5 223.5,-134.5 120.5,-134.5"/>
<text text-anchor="middle" x="172" y="-141.5" font-family="Helvetica,sans-Serif" font-size="10.00">vector&lt; double &gt;</text>
</a>
</g>
</g>
<!-- Node4&#45;&gt;Node2 -->
<g id="edge3" class="edge">
<title>Node4&#45;&gt;Node2</title>
<path fill="none" stroke="#9a32cd" stroke-dasharray="5,2" d="M156.64,-126.63C144.71,-113.92 128.64,-96.8 119.1,-86.63"/>
<polygon fill="#9a32cd" stroke="#9a32cd" points="154.38,-129.34 163.77,-134.23 159.48,-124.55 154.38,-129.34"/>
<text text-anchor="middle" x="166.5" y="-108" font-family="Helvetica,sans-Serif" font-size="10.00"> analytic</text>
</g>
</g>
</svg>
