<?xml version="1.0" encoding="UTF-8" standalone="no"?>
<!DOCTYPE svg PUBLIC "-//W3C//DTD SVG 1.1//EN"
 "http://www.w3.org/Graphics/SVG/1.1/DTD/svg11.dtd">
<!-- Generated by graphviz version 3.0.0 (20220226.1711)
 -->
<!-- Title: KineticOptions Pages: 1 -->
<svg width="1242pt" height="472pt"
 viewBox="0.00 0.00 1242.00 472.00" xmlns="http://www.w3.org/2000/svg" xmlns:xlink="http://www.w3.org/1999/xlink">
<g id="graph0" class="graph" transform="scale(1 1) rotate(0) translate(4 468)">
<title>KineticOptions</title>
<polygon fill="white" stroke="transparent" points="-4,4 -4,-468 1238,-468 1238,4 -4,4"/>
<!-- Node1 -->
<g id="node1" class="node">
<title>Node1</title>
<g id="a_node1"><a xlink:title="A struct to describe the options for a chemical kinetics calculation.">
<polygon fill="#bfbfbf" stroke="black" points="1154,-113.5 1154,-132.5 1234,-132.5 1234,-113.5 1154,-113.5"/>
<text text-anchor="middle" x="1194" y="-120.5" font-family="Helvetica,sans-Serif" font-size="10.00">KineticOptions</text>
</a>
</g>
</g>
<!-- Node2 -->
<g id="node2" class="node">
<title>Node2</title>
<g id="a_node2"><a xlink:href="structReaktoro_1_1EquilibriumOptions.html" target="_top" xlink:title="The options for the equilibrium calculations.">
<polygon fill="white" stroke="black" points="970,-226.5 970,-245.5 1068,-245.5 1068,-226.5 970,-226.5"/>
<text text-anchor="middle" x="1019" y="-233.5" font-family="Helvetica,sans-Serif" font-size="10.00">EquilibriumOptions</text>
</a>
</g>
</g>
<!-- Node2&#45;&gt;Node1 -->
<g id="edge1" class="edge">
<title>Node2&#45;&gt;Node1</title>
<path fill="none" stroke="#9a32cd" stroke-dasharray="5,2" d="M1043.2,-220.85C1079.38,-197.22 1148.19,-152.27 1178.29,-132.61"/>
<polygon fill="#9a32cd" stroke="#9a32cd" points="1041.21,-217.97 1034.75,-226.37 1045.04,-223.83 1041.21,-217.97"/>
<text text-anchor="middle" x="1111" y="-192" font-family="Helvetica,sans-Serif" font-size="10.00"> equilibrium</text>
</g>
<!-- Node3 -->
<g id="node3" class="node">
<title>Node3</title>
<g id="a_node3"><a xlink:href="structReaktoro_1_1OptimumOptions.html" target="_top" xlink:title="A type that describes the options of a optimisation calculation.">
<polygon fill="white" stroke="black" points="783.5,-208.5 783.5,-227.5 873.5,-227.5 873.5,-208.5 783.5,-208.5"/>
<text text-anchor="middle" x="828.5" y="-215.5" font-family="Helvetica,sans-Serif" font-size="10.00">OptimumOptions</text>
</a>
</g>
</g>
<!-- Node3&#45;&gt;Node2 -->
<g id="edge2" class="edge">
<title>Node3&#45;&gt;Node2</title>
<path fill="none" stroke="#9a32cd" stroke-dasharray="5,2" d="M883.78,-217.02C905.12,-217.23 929.78,-218.23 952,-221 961.79,-222.22 972.27,-224.26 981.92,-226.44"/>
<polygon fill="#9a32cd" stroke="#9a32cd" points="883.61,-213.51 873.6,-216.97 883.58,-220.51 883.61,-213.51"/>
<text text-anchor="middle" x="930.5" y="-224" font-family="Helvetica,sans-Serif" font-size="10.00"> optimum</text>
</g>
<!-- Node4 -->
<g id="node4" class="node">
<title>Node4</title>
<g id="a_node4"><a xlink:href="structReaktoro_1_1OptimumOutputOptions.html" target="_top" xlink:title="A type that describes the options for the output of a optimisation calculation.">
<polygon fill="white" stroke="black" points="533.5,-342.5 533.5,-361.5 652.5,-361.5 652.5,-342.5 533.5,-342.5"/>
<text text-anchor="middle" x="593" y="-349.5" font-family="Helvetica,sans-Serif" font-size="10.00">OptimumOutputOptions</text>
</a>
</g>
</g>
<!-- Node4&#45;&gt;Node3 -->
<g id="edge3" class="edge">
<title>Node4&#45;&gt;Node3</title>
<path fill="none" stroke="#9a32cd" stroke-dasharray="5,2" d="M662.78,-351.6C692.66,-347.85 725.82,-338.3 748,-316 773.39,-290.46 741.52,-263.41 766,-237 770.71,-231.92 776.75,-228.18 783.19,-225.44"/>
<polygon fill="#9a32cd" stroke="#9a32cd" points="662.37,-348.12 652.79,-352.66 663.11,-355.08 662.37,-348.12"/>
<text text-anchor="middle" x="717.5" y="-349" font-family="Helvetica,sans-Serif" font-size="10.00"> output</text>
</g>
<!-- Node5 -->
<g id="node5" class="node">
<title>Node5</title>
<g id="a_node5"><a xlink:href="structReaktoro_1_1OutputterOptions.html" target="_top" xlink:title=" ">
<polygon fill="white" stroke="#bfbfbf" points="273,-398.5 273,-417.5 364,-417.5 364,-398.5 273,-398.5"/>
<text text-anchor="middle" x="318.5" y="-405.5" font-family="Helvetica,sans-Serif" font-size="10.00">OutputterOptions</text>
</a>
</g>
</g>
<!-- Node5&#45;&gt;Node4 -->
<g id="edge4" class="edge">
<title>Node5&#45;&gt;Node4</title>
<path fill="none" stroke="midnightblue" d="M374.51,-414.81C411.78,-416.86 460.98,-414.39 499,-394 510.44,-387.86 506.12,-378.09 517,-371 522.96,-367.11 529.67,-364.02 536.56,-361.56"/>
<polygon fill="midnightblue" stroke="midnightblue" points="374.54,-411.31 364.33,-414.13 374.07,-418.29 374.54,-411.31"/>
</g>
<!-- Node21 -->
<g id="node21" class="node">
<title>Node21</title>
<g id="a_node21"><a xlink:href="structReaktoro_1_1NonlinearOutput.html" target="_top" xlink:title="A type that describes the options for the output of a non&#45;linear problem calculation.">
<polygon fill="white" stroke="black" points="549.5,-420.5 549.5,-439.5 636.5,-439.5 636.5,-420.5 549.5,-420.5"/>
<text text-anchor="middle" x="593" y="-427.5" font-family="Helvetica,sans-Serif" font-size="10.00">NonlinearOutput</text>
</a>
</g>
</g>
<!-- Node5&#45;&gt;Node21 -->
<g id="edge23" class="edge">
<title>Node5&#45;&gt;Node21</title>
<path fill="none" stroke="midnightblue" d="M374.37,-417.22C379.31,-417.89 384.24,-418.5 389,-419 444.1,-424.84 507.97,-427.65 549.13,-428.96"/>
<polygon fill="midnightblue" stroke="midnightblue" points="374.67,-413.73 364.27,-415.78 373.68,-420.66 374.67,-413.73"/>
</g>
<!-- Node6 -->
<g id="node6" class="node">
<title>Node6</title>
<g id="a_node6"><a xlink:title=" ">
<polygon fill="white" stroke="black" points="145,-341.5 145,-360.5 186,-360.5 186,-341.5 145,-341.5"/>
<text text-anchor="middle" x="165.5" y="-348.5" font-family="Helvetica,sans-Serif" font-size="10.00">string</text>
</a>
</g>
</g>
<!-- Node6&#45;&gt;Node4 -->
<g id="edge7" class="edge">
<title>Node6&#45;&gt;Node4</title>
<path fill="none" stroke="#9a32cd" stroke-dasharray="5,2" d="M188.2,-335.71C207.57,-323.06 237.24,-306.06 266,-299 280.85,-295.35 494.41,-297.25 499,-300 513.33,-308.58 503.8,-322.76 517,-333 521.99,-336.87 527.67,-339.96 533.63,-342.42"/>
<polygon fill="#9a32cd" stroke="#9a32cd" points="186.17,-332.86 179.82,-341.34 190.07,-338.67 186.17,-332.86"/>
<text text-anchor="middle" x="318.5" y="-324" font-family="Helvetica,sans-Serif" font-size="10.00"> xprefix</text>
<text text-anchor="middle" x="318.5" y="-313" font-family="Helvetica,sans-Serif" font-size="10.00">yprefix</text>
<text text-anchor="middle" x="318.5" y="-302" font-family="Helvetica,sans-Serif" font-size="10.00">zprefix</text>
</g>
<!-- Node6&#45;&gt;Node5 -->
<g id="edge5" class="edge">
<title>Node6&#45;&gt;Node5</title>
<path fill="none" stroke="#9a32cd" stroke-dasharray="5,2" d="M195.69,-362.76C198.5,-363.87 201.3,-364.96 204,-366 233.61,-377.4 267.78,-389.96 290.82,-398.35"/>
<polygon fill="#9a32cd" stroke="#9a32cd" points="196.9,-359.48 186.31,-359.04 194.31,-365.98 196.9,-359.48"/>
<text text-anchor="middle" x="226" y="-385" font-family="Helvetica,sans-Serif" font-size="10.00"> separator</text>
</g>
<!-- Node8 -->
<g id="node8" class="node">
<title>Node8</title>
<g id="a_node8"><a xlink:title=" ">
<polygon fill="white" stroke="black" points="266,-341.5 266,-360.5 371,-360.5 371,-341.5 266,-341.5"/>
<text text-anchor="middle" x="318.5" y="-348.5" font-family="Helvetica,sans-Serif" font-size="10.00">vector&lt; std::string &gt;</text>
</a>
</g>
</g>
<!-- Node6&#45;&gt;Node8 -->
<g id="edge9" class="edge">
<title>Node6&#45;&gt;Node8</title>
<path fill="none" stroke="#9a32cd" stroke-dasharray="5,2" d="M196.5,-351C216.31,-351 242.78,-351 265.92,-351"/>
<polygon fill="#9a32cd" stroke="#9a32cd" points="196.24,-347.5 186.24,-351 196.24,-354.5 196.24,-347.5"/>
<text text-anchor="middle" x="226" y="-354" font-family="Helvetica,sans-Serif" font-size="10.00"> elements</text>
</g>
<!-- Node6&#45;&gt;Node21 -->
<g id="edge24" class="edge">
<title>Node6&#45;&gt;Node21</title>
<path fill="none" stroke="#9a32cd" stroke-dasharray="5,2" d="M178.54,-369.32C185.23,-378.48 194.18,-389.24 204,-397 228.02,-415.98 236.43,-419.08 266,-427 364.68,-453.45 486.27,-444.09 549.41,-436.27"/>
<polygon fill="#9a32cd" stroke="#9a32cd" points="181.24,-367.07 172.66,-360.87 175.5,-371.07 181.24,-367.07"/>
<text text-anchor="middle" x="318.5" y="-456" font-family="Helvetica,sans-Serif" font-size="10.00"> fprefix</text>
<text text-anchor="middle" x="318.5" y="-445" font-family="Helvetica,sans-Serif" font-size="10.00">xprefix</text>
</g>
<!-- Node24 -->
<g id="node24" class="node">
<title>Node24</title>
<g id="a_node24"><a xlink:href="structReaktoro_1_1KineticOutputOptions.html" target="_top" xlink:title=" ">
<polygon fill="white" stroke="#bfbfbf" points="389,-0.5 389,-19.5 499,-19.5 499,-0.5 389,-0.5"/>
<text text-anchor="middle" x="444" y="-7.5" font-family="Helvetica,sans-Serif" font-size="10.00">KineticOutputOptions</text>
</a>
</g>
</g>
<!-- Node6&#45;&gt;Node24 -->
<g id="edge29" class="edge">
<title>Node6&#45;&gt;Node24</title>
<path fill="none" stroke="#9a32cd" stroke-dasharray="5,2" d="M165.8,-331.14C164.96,-273.8 171.14,-107.13 266,-29 299.76,-1.2 350.27,1.68 388.71,-1.32"/>
<polygon fill="#9a32cd" stroke="#9a32cd" points="162.3,-331.45 166.04,-341.37 169.3,-331.29 162.3,-331.45"/>
<text text-anchor="middle" x="226" y="-113" font-family="Helvetica,sans-Serif" font-size="10.00"> format</text>
</g>
<!-- Node7 -->
<g id="node7" class="node">
<title>Node7</title>
<g id="a_node7"><a xlink:title=" ">
<polygon fill="white" stroke="black" points="0,-341.5 0,-360.5 108,-360.5 108,-341.5 0,-341.5"/>
<text text-anchor="middle" x="54" y="-348.5" font-family="Helvetica,sans-Serif" font-size="10.00">basic_string&lt; Char &gt;</text>
</a>
</g>
</g>
<!-- Node7&#45;&gt;Node6 -->
<g id="edge6" class="edge">
<title>Node7&#45;&gt;Node6</title>
<path fill="none" stroke="midnightblue" d="M118.23,-351C127.84,-351 137.09,-351 144.76,-351"/>
<polygon fill="midnightblue" stroke="midnightblue" points="118.15,-347.5 108.15,-351 118.15,-354.5 118.15,-347.5"/>
</g>
<!-- Node8&#45;&gt;Node4 -->
<g id="edge8" class="edge">
<title>Node8&#45;&gt;Node4</title>
<path fill="none" stroke="#9a32cd" stroke-dasharray="5,2" d="M342.4,-336.05C355.47,-328.41 372.5,-319.92 389,-316 436.56,-304.7 453.57,-297.94 499,-316 509.23,-320.07 507.36,-327.7 517,-333 524.06,-336.88 531.94,-339.99 539.85,-342.47"/>
<polygon fill="#9a32cd" stroke="#9a32cd" points="340.36,-333.19 333.64,-341.38 344,-339.17 340.36,-333.19"/>
<text text-anchor="middle" x="444" y="-341" font-family="Helvetica,sans-Serif" font-size="10.00"> xnames</text>
<text text-anchor="middle" x="444" y="-330" font-family="Helvetica,sans-Serif" font-size="10.00">ynames</text>
<text text-anchor="middle" x="444" y="-319" font-family="Helvetica,sans-Serif" font-size="10.00">znames</text>
</g>
<!-- Node8&#45;&gt;Node21 -->
<g id="edge25" class="edge">
<title>Node8&#45;&gt;Node21</title>
<path fill="none" stroke="#9a32cd" stroke-dasharray="5,2" d="M381.69,-357.81C417.52,-363.59 462.54,-374.1 499,-393 508.5,-397.93 507.61,-403.87 517,-409 526.97,-414.44 538.47,-418.58 549.43,-421.67"/>
<polygon fill="#9a32cd" stroke="#9a32cd" points="381.78,-354.29 371.37,-356.24 380.73,-361.21 381.78,-354.29"/>
<text text-anchor="middle" x="444" y="-407" font-family="Helvetica,sans-Serif" font-size="10.00"> fnames</text>
<text text-anchor="middle" x="444" y="-396" font-family="Helvetica,sans-Serif" font-size="10.00">xnames</text>
</g>
<!-- Node9 -->
<g id="node9" class="node">
<title>Node9</title>
<g id="a_node9"><a xlink:href="structReaktoro_1_1OptimumParamsActNewton.html" target="_top" xlink:title=" ">
<polygon fill="white" stroke="#bfbfbf" points="523.5,-304.5 523.5,-323.5 662.5,-323.5 662.5,-304.5 523.5,-304.5"/>
<text text-anchor="middle" x="593" y="-311.5" font-family="Helvetica,sans-Serif" font-size="10.00">OptimumParamsActNewton</text>
</a>
</g>
</g>
<!-- Node9&#45;&gt;Node3 -->
<g id="edge10" class="edge">
<title>Node9&#45;&gt;Node3</title>
<path fill="none" stroke="#9a32cd" stroke-dasharray="5,2" d="M672.62,-306.37C698.87,-300.56 726.8,-290.48 748,-273 761.8,-261.62 752.36,-248.57 766,-237 771.03,-232.74 777.01,-229.43 783.23,-226.86"/>
<polygon fill="#9a32cd" stroke="#9a32cd" points="671.77,-302.97 662.67,-308.39 673.16,-309.83 671.77,-302.97"/>
<text text-anchor="middle" x="717.5" y="-304" font-family="Helvetica,sans-Serif" font-size="10.00"> actnewton</text>
</g>
<!-- Node10 -->
<g id="node10" class="node">
<title>Node10</title>
<g id="a_node10"><a xlink:href="structReaktoro_1_1OptimumParamsIpAction.html" target="_top" xlink:title=" ">
<polygon fill="white" stroke="#bfbfbf" points="530,-266.5 530,-285.5 656,-285.5 656,-266.5 530,-266.5"/>
<text text-anchor="middle" x="593" y="-273.5" font-family="Helvetica,sans-Serif" font-size="10.00">OptimumParamsIpAction</text>
</a>
</g>
</g>
<!-- Node10&#45;&gt;Node3 -->
<g id="edge11" class="edge">
<title>Node10&#45;&gt;Node3</title>
<path fill="none" stroke="#9a32cd" stroke-dasharray="5,2" d="M661.42,-264.51C688.57,-259.23 720.02,-252.28 748,-244 756.23,-241.56 757.89,-239.82 766,-237 775.39,-233.73 785.69,-230.43 795.12,-227.53"/>
<polygon fill="#9a32cd" stroke="#9a32cd" points="660.41,-261.14 651.24,-266.45 661.72,-268.01 660.41,-261.14"/>
<text text-anchor="middle" x="717.5" y="-261" font-family="Helvetica,sans-Serif" font-size="10.00"> ipaction</text>
</g>
<!-- Node11 -->
<g id="node11" class="node">
<title>Node11</title>
<g id="a_node11"><a xlink:href="structReaktoro_1_1OptimumParamsIpOpt.html" target="_top" xlink:title=" ">
<polygon fill="white" stroke="#bfbfbf" points="536,-38.5 536,-57.5 650,-57.5 650,-38.5 536,-38.5"/>
<text text-anchor="middle" x="593" y="-45.5" font-family="Helvetica,sans-Serif" font-size="10.00">OptimumParamsIpOpt</text>
</a>
</g>
</g>
<!-- Node11&#45;&gt;Node3 -->
<g id="edge12" class="edge">
<title>Node11&#45;&gt;Node3</title>
<path fill="none" stroke="#9a32cd" stroke-dasharray="5,2" d="M660.25,-50.81C689.44,-54.86 722.76,-63.61 748,-82 793.54,-115.17 817.27,-183.02 824.8,-208.26"/>
<polygon fill="#9a32cd" stroke="#9a32cd" points="660.48,-47.31 650.12,-49.56 659.62,-54.26 660.48,-47.31"/>
<text text-anchor="middle" x="717.5" y="-85" font-family="Helvetica,sans-Serif" font-size="10.00"> ipopt</text>
</g>
<!-- Node12 -->
<g id="node12" class="node">
<title>Node12</title>
<g id="a_node12"><a xlink:title=" ">
<polygon fill="white" stroke="black" points="273.5,-38.5 273.5,-57.5 363.5,-57.5 363.5,-38.5 273.5,-38.5"/>
<text text-anchor="middle" x="318.5" y="-45.5" font-family="Helvetica,sans-Serif" font-size="10.00">vector&lt; double &gt;</text>
</a>
</g>
</g>
<!-- Node12&#45;&gt;Node11 -->
<g id="edge13" class="edge">
<title>Node12&#45;&gt;Node11</title>
<path fill="none" stroke="#9a32cd" stroke-dasharray="5,2" d="M373.85,-48C420.75,-48 488.23,-48 535.69,-48"/>
<polygon fill="#9a32cd" stroke="#9a32cd" points="373.58,-44.5 363.58,-48 373.58,-51.5 373.58,-44.5"/>
<text text-anchor="middle" x="444" y="-51" font-family="Helvetica,sans-Serif" font-size="10.00"> mu</text>
</g>
<!-- Node13 -->
<g id="node13" class="node">
<title>Node13</title>
<g id="a_node13"><a xlink:href="structReaktoro_1_1OptimumParamsIpNewton.html" target="_top" xlink:title=" ">
<polygon fill="white" stroke="#bfbfbf" points="527,-190.5 527,-209.5 659,-209.5 659,-190.5 527,-190.5"/>
<text text-anchor="middle" x="593" y="-197.5" font-family="Helvetica,sans-Serif" font-size="10.00">OptimumParamsIpNewton</text>
</a>
</g>
</g>
<!-- Node13&#45;&gt;Node3 -->
<g id="edge14" class="edge">
<title>Node13&#45;&gt;Node3</title>
<path fill="none" stroke="#9a32cd" stroke-dasharray="5,2" d="M669.51,-198.96C694.54,-199.28 722.52,-200.37 748,-203 759.74,-204.21 772.33,-206.24 783.95,-208.43"/>
<polygon fill="#9a32cd" stroke="#9a32cd" points="669.37,-195.46 659.34,-198.87 669.31,-202.46 669.37,-195.46"/>
<text text-anchor="middle" x="717.5" y="-206" font-family="Helvetica,sans-Serif" font-size="10.00"> ipnewton</text>
</g>
<!-- Node14 -->
<g id="node14" class="node">
<title>Node14</title>
<g id="a_node14"><a xlink:href="structReaktoro_1_1OptimumParamsIpActive.html" target="_top" xlink:title=" ">
<polygon fill="white" stroke="#bfbfbf" points="530,-152.5 530,-171.5 656,-171.5 656,-152.5 530,-152.5"/>
<text text-anchor="middle" x="593" y="-159.5" font-family="Helvetica,sans-Serif" font-size="10.00">OptimumParamsIpActive</text>
</a>
</g>
</g>
<!-- Node14&#45;&gt;Node3 -->
<g id="edge15" class="edge">
<title>Node14&#45;&gt;Node3</title>
<path fill="none" stroke="#9a32cd" stroke-dasharray="5,2" d="M666.39,-168.38C692.43,-171.7 721.83,-176.67 748,-184 769.68,-190.07 793.25,-200.7 809.05,-208.46"/>
<polygon fill="#9a32cd" stroke="#9a32cd" points="666.57,-164.87 656.22,-167.13 665.72,-171.82 666.57,-164.87"/>
<text text-anchor="middle" x="717.5" y="-187" font-family="Helvetica,sans-Serif" font-size="10.00"> ipactive</text>
</g>
<!-- Node15 -->
<g id="node15" class="node">
<title>Node15</title>
<g id="a_node15"><a xlink:href="structReaktoro_1_1OptimumParamsKarpov.html" target="_top" xlink:title=" ">
<polygon fill="white" stroke="#bfbfbf" points="532.5,-114.5 532.5,-133.5 653.5,-133.5 653.5,-114.5 532.5,-114.5"/>
<text text-anchor="middle" x="593" y="-121.5" font-family="Helvetica,sans-Serif" font-size="10.00">OptimumParamsKarpov</text>
</a>
</g>
</g>
<!-- Node15&#45;&gt;Node3 -->
<g id="edge16" class="edge">
<title>Node15&#45;&gt;Node3</title>
<path fill="none" stroke="#9a32cd" stroke-dasharray="5,2" d="M663.97,-131.62C691.1,-136.33 721.85,-143.89 748,-156 776.59,-169.24 804.28,-194.51 818.2,-208.35"/>
<polygon fill="#9a32cd" stroke="#9a32cd" points="664.21,-128.11 653.77,-129.95 663.08,-135.02 664.21,-128.11"/>
<text text-anchor="middle" x="717.5" y="-159" font-family="Helvetica,sans-Serif" font-size="10.00"> karpov</text>
</g>
<!-- Node16 -->
<g id="node16" class="node">
<title>Node16</title>
<g id="a_node16"><a xlink:href="structReaktoro_1_1OptimumParamsRefiner.html" target="_top" xlink:title=" ">
<polygon fill="white" stroke="#bfbfbf" points="532,-76.5 532,-95.5 654,-95.5 654,-76.5 532,-76.5"/>
<text text-anchor="middle" x="593" y="-83.5" font-family="Helvetica,sans-Serif" font-size="10.00">OptimumParamsRefiner</text>
</a>
</g>
</g>
<!-- Node16&#45;&gt;Node3 -->
<g id="edge17" class="edge">
<title>Node16&#45;&gt;Node3</title>
<path fill="none" stroke="#9a32cd" stroke-dasharray="5,2" d="M664.15,-92.63C691.83,-97.65 722.95,-106.49 748,-122 784.06,-144.33 811.51,-188.74 822.39,-208.33"/>
<polygon fill="#9a32cd" stroke="#9a32cd" points="664.56,-89.15 654.12,-90.94 663.4,-96.05 664.56,-89.15"/>
<text text-anchor="middle" x="717.5" y="-125" font-family="Helvetica,sans-Serif" font-size="10.00"> refiner</text>
</g>
<!-- Node17 -->
<g id="node17" class="node">
<title>Node17</title>
<g id="a_node17"><a xlink:href="structReaktoro_1_1OptimumParamsRegularization.html" target="_top" xlink:title="A type that describes the regularization options for the optimisation calculation.">
<polygon fill="white" stroke="black" points="517,-228.5 517,-247.5 669,-247.5 669,-228.5 517,-228.5"/>
<text text-anchor="middle" x="593" y="-235.5" font-family="Helvetica,sans-Serif" font-size="10.00">OptimumParamsRegularization</text>
</a>
</g>
</g>
<!-- Node17&#45;&gt;Node3 -->
<g id="edge18" class="edge">
<title>Node17&#45;&gt;Node3</title>
<path fill="none" stroke="#9a32cd" stroke-dasharray="5,2" d="M679.48,-230.68C714.77,-227.66 754.18,-224.28 783.45,-221.77"/>
<polygon fill="#9a32cd" stroke="#9a32cd" points="678.83,-227.22 669.17,-231.56 679.43,-234.2 678.83,-227.22"/>
<text text-anchor="middle" x="717.5" y="-232" font-family="Helvetica,sans-Serif" font-size="10.00"> regularization</text>
</g>
<!-- Node18 -->
<g id="node18" class="node">
<title>Node18</title>
<g id="a_node18"><a xlink:href="structReaktoro_1_1RegularizerOptions.html" target="_top" xlink:title="A type that describes the options for regularizing linear constraints.">
<polygon fill="white" stroke="black" points="268.5,-226.5 268.5,-245.5 368.5,-245.5 368.5,-226.5 268.5,-226.5"/>
<text text-anchor="middle" x="318.5" y="-233.5" font-family="Helvetica,sans-Serif" font-size="10.00">RegularizerOptions</text>
</a>
</g>
</g>
<!-- Node18&#45;&gt;Node17 -->
<g id="edge19" class="edge">
<title>Node18&#45;&gt;Node17</title>
<path fill="none" stroke="midnightblue" d="M378.53,-236.43C419.09,-236.73 473.26,-237.13 516.89,-237.45"/>
<polygon fill="midnightblue" stroke="midnightblue" points="378.56,-232.93 368.53,-236.36 378.51,-239.93 378.56,-232.93"/>
</g>
<!-- Node19 -->
<g id="node19" class="node">
<title>Node19</title>
<g id="a_node19"><a xlink:href="structReaktoro_1_1KktOptions.html" target="_top" xlink:title="A type to describe the options for the KKT calculation.">
<polygon fill="white" stroke="black" points="560.5,-380.5 560.5,-399.5 625.5,-399.5 625.5,-380.5 560.5,-380.5"/>
<text text-anchor="middle" x="593" y="-387.5" font-family="Helvetica,sans-Serif" font-size="10.00">KktOptions</text>
</a>
</g>
</g>
<!-- Node19&#45;&gt;Node3 -->
<g id="edge20" class="edge">
<title>Node19&#45;&gt;Node3</title>
<path fill="none" stroke="#9a32cd" stroke-dasharray="5,2" d="M636.2,-394.33C671.17,-395.41 719.59,-390.63 748,-361 786.54,-320.8 729.8,-279.32 766,-237 770.65,-231.57 776.82,-227.66 783.45,-224.86"/>
<polygon fill="#9a32cd" stroke="#9a32cd" points="635.97,-390.82 625.81,-393.83 635.63,-397.81 635.97,-390.82"/>
<text text-anchor="middle" x="717.5" y="-393" font-family="Helvetica,sans-Serif" font-size="10.00"> kkt</text>
</g>
<!-- Node20 -->
<g id="node20" class="node">
<title>Node20</title>
<g id="a_node20"><a xlink:href="structReaktoro_1_1NonlinearOptions.html" target="_top" xlink:title="A type that describes the options for the solution of a non&#45;linear problem.">
<polygon fill="white" stroke="black" points="782.5,-246.5 782.5,-265.5 874.5,-265.5 874.5,-246.5 782.5,-246.5"/>
<text text-anchor="middle" x="828.5" y="-253.5" font-family="Helvetica,sans-Serif" font-size="10.00">NonlinearOptions</text>
</a>
</g>
</g>
<!-- Node20&#45;&gt;Node2 -->
<g id="edge21" class="edge">
<title>Node20&#45;&gt;Node2</title>
<path fill="none" stroke="#9a32cd" stroke-dasharray="5,2" d="M884.72,-250.14C911.73,-247.27 943.94,-243.86 969.92,-241.1"/>
<polygon fill="#9a32cd" stroke="#9a32cd" points="884.23,-246.67 874.65,-251.21 884.96,-253.63 884.23,-246.67"/>
<text text-anchor="middle" x="930.5" y="-250" font-family="Helvetica,sans-Serif" font-size="10.00"> nonlinear</text>
</g>
<!-- Node21&#45;&gt;Node20 -->
<g id="edge22" class="edge">
<title>Node21&#45;&gt;Node20</title>
<path fill="none" stroke="#9a32cd" stroke-dasharray="5,2" d="M646.87,-436.04C680.44,-436.75 722.27,-431.34 748,-405 788.76,-363.28 728.23,-319.45 766,-275 770.41,-269.81 776.22,-266.01 782.5,-263.24"/>
<polygon fill="#9a32cd" stroke="#9a32cd" points="646.87,-432.54 636.74,-435.64 646.59,-439.53 646.87,-432.54"/>
<text text-anchor="middle" x="717.5" y="-436" font-family="Helvetica,sans-Serif" font-size="10.00"> output</text>
</g>
<!-- Node22 -->
<g id="node22" class="node">
<title>Node22</title>
<g id="a_node22"><a xlink:href="structReaktoro_1_1SmartEquilibriumOptions.html" target="_top" xlink:title="The options for the smart equilibrium calculations.">
<polygon fill="white" stroke="black" points="766,-284.5 766,-303.5 891,-303.5 891,-284.5 766,-284.5"/>
<text text-anchor="middle" x="828.5" y="-291.5" font-family="Helvetica,sans-Serif" font-size="10.00">SmartEquilibriumOptions</text>
</a>
</g>
</g>
<!-- Node22&#45;&gt;Node2 -->
<g id="edge26" class="edge">
<title>Node22&#45;&gt;Node2</title>
<path fill="none" stroke="#9a32cd" stroke-dasharray="5,2" d="M880.82,-282.05C902.9,-276.53 928.9,-269.54 952,-262 966.75,-257.19 982.97,-250.81 995.64,-245.58"/>
<polygon fill="#9a32cd" stroke="#9a32cd" points="879.84,-278.69 870.97,-284.48 881.52,-285.48 879.84,-278.69"/>
<text text-anchor="middle" x="930.5" y="-276" font-family="Helvetica,sans-Serif" font-size="10.00"> smart</text>
</g>
<!-- Node23 -->
<g id="node23" class="node">
<title>Node23</title>
<g id="a_node23"><a xlink:href="structReaktoro_1_1ODEOptions.html" target="_top" xlink:title="A struct that defines the options for the ODESolver.">
<polygon fill="white" stroke="black" points="983,-113.5 983,-132.5 1055,-132.5 1055,-113.5 983,-113.5"/>
<text text-anchor="middle" x="1019" y="-120.5" font-family="Helvetica,sans-Serif" font-size="10.00">ODEOptions</text>
</a>
</g>
</g>
<!-- Node23&#45;&gt;Node1 -->
<g id="edge27" class="edge">
<title>Node23&#45;&gt;Node1</title>
<path fill="none" stroke="#9a32cd" stroke-dasharray="5,2" d="M1065.16,-123C1092.67,-123 1127.47,-123 1153.82,-123"/>
<polygon fill="#9a32cd" stroke="#9a32cd" points="1065.01,-119.5 1055.01,-123 1065.01,-126.5 1065.01,-119.5"/>
<text text-anchor="middle" x="1111" y="-126" font-family="Helvetica,sans-Serif" font-size="10.00"> ode</text>
</g>
<!-- Node24&#45;&gt;Node1 -->
<g id="edge28" class="edge">
<title>Node24&#45;&gt;Node1</title>
<path fill="none" stroke="#9a32cd" stroke-dasharray="5,2" d="M509.39,-10C564.4,-10 645.65,-10 716.5,-10 716.5,-10 716.5,-10 1020,-10 1095.34,-10 1163.49,-86.04 1185.55,-113.37"/>
<polygon fill="#9a32cd" stroke="#9a32cd" points="509.09,-6.5 499.09,-10 509.09,-13.5 509.09,-6.5"/>
<text text-anchor="middle" x="828.5" y="-13" font-family="Helvetica,sans-Serif" font-size="10.00"> output</text>
</g>
</g>
</svg>
