<?xml version="1.0" encoding="UTF-8" standalone="no"?>
<!DOCTYPE svg PUBLIC "-//W3C//DTD SVG 1.1//EN"
 "http://www.w3.org/Graphics/SVG/1.1/DTD/svg11.dtd">
<!-- Generated by graphviz version 2.50.0 (20211209.0339)
 -->
<!-- Title: MixtureState Pages: 1 -->
<svg width="386pt" height="84pt"
 viewBox="0.00 0.00 386.00 84.00" xmlns="http://www.w3.org/2000/svg" xmlns:xlink="http://www.w3.org/1999/xlink">
<g id="graph0" class="graph" transform="scale(1 1) rotate(0) translate(4 80)">
<title>MixtureState</title>
<polygon fill="white" stroke="transparent" points="-4,4 -4,-80 382,-80 382,4 -4,4"/>
<!-- Node1 -->
<g id="node1" class="node">
<title>Node1</title>
<g id="a_node1"><a xlink:title="A type used to describe the state of a mixture.">
<polygon fill="#bfbfbf" stroke="black" points="152,-56.5 152,-75.5 232,-75.5 232,-56.5 152,-56.5"/>
<text text-anchor="middle" x="192" y="-63.5" font-family="Helvetica,sans-Serif" font-size="10.00">MixtureState</text>
</a>
</g>
</g>
<!-- Node2 -->
<g id="node2" class="node">
<title>Node2</title>
<g id="a_node2"><a xlink:href="structReaktoro_1_1AqueousMixtureState.html" target="_top" xlink:title="A type used to describe the state of an aqueous mixture.">
<polygon fill="white" stroke="black" points="0,-0.5 0,-19.5 122,-19.5 122,-0.5 0,-0.5"/>
<text text-anchor="middle" x="61" y="-7.5" font-family="Helvetica,sans-Serif" font-size="10.00">AqueousMixtureState</text>
</a>
</g>
</g>
<!-- Node1&#45;&gt;Node2 -->
<g id="edge1" class="edge">
<title>Node1&#45;&gt;Node2</title>
<path fill="none" stroke="midnightblue" d="M161.68,-52.5C137.12,-42.38 103.18,-28.39 81.66,-19.52"/>
<polygon fill="midnightblue" stroke="midnightblue" points="160.66,-55.87 171.24,-56.44 163.33,-49.4 160.66,-55.87"/>
</g>
<!-- Node3 -->
<g id="node3" class="node">
<title>Node3</title>
<g id="a_node3"><a xlink:href="structReaktoro_1_1FluidMixtureState.html" target="_top" xlink:title="A type used to describe the state of a fluid (gaseous or liquid) mixture.">
<polygon fill="white" stroke="black" points="140,-0.5 140,-19.5 244,-19.5 244,-0.5 140,-0.5"/>
<text text-anchor="middle" x="192" y="-7.5" font-family="Helvetica,sans-Serif" font-size="10.00">FluidMixtureState</text>
</a>
</g>
</g>
<!-- Node1&#45;&gt;Node3 -->
<g id="edge2" class="edge">
<title>Node1&#45;&gt;Node3</title>
<path fill="none" stroke="midnightblue" d="M192,-45.8C192,-36.91 192,-26.78 192,-19.75"/>
<polygon fill="midnightblue" stroke="midnightblue" points="188.5,-46.08 192,-56.08 195.5,-46.08 188.5,-46.08"/>
</g>
<!-- Node4 -->
<g id="node4" class="node">
<title>Node4</title>
<g id="a_node4"><a xlink:href="structReaktoro_1_1MineralMixtureState.html" target="_top" xlink:title="A type used to describe the state of a mineral mixture.">
<polygon fill="white" stroke="black" points="262,-0.5 262,-19.5 378,-19.5 378,-0.5 262,-0.5"/>
<text text-anchor="middle" x="320" y="-7.5" font-family="Helvetica,sans-Serif" font-size="10.00">MineralMixtureState</text>
</a>
</g>
</g>
<!-- Node1&#45;&gt;Node4 -->
<g id="edge3" class="edge">
<title>Node1&#45;&gt;Node4</title>
<path fill="none" stroke="midnightblue" d="M221.62,-52.5C245.62,-42.38 278.78,-28.39 299.81,-19.52"/>
<polygon fill="midnightblue" stroke="midnightblue" points="220.14,-49.33 212.28,-56.44 222.86,-55.78 220.14,-49.33"/>
</g>
</g>
</svg>
