<?xml version="1.0" encoding="UTF-8" standalone="no"?>
<!DOCTYPE svg PUBLIC "-//W3C//DTD SVG 1.1//EN"
 "http://www.w3.org/Graphics/SVG/1.1/DTD/svg11.dtd">
<!-- Generated by graphviz version 2.50.0 (20211209.0339)
 -->
<!-- Title: AqueousMixtureState Pages: 1 -->
<svg width="671pt" height="228pt"
 viewBox="0.00 0.00 671.00 227.50" xmlns="http://www.w3.org/2000/svg" xmlns:xlink="http://www.w3.org/1999/xlink">
<g id="graph0" class="graph" transform="scale(1 1) rotate(0) translate(4 223.5)">
<title>AqueousMixtureState</title>
<polygon fill="white" stroke="transparent" points="-4,4 -4,-223.5 667,-223.5 667,4 -4,4"/>
<!-- Node1 -->
<g id="node1" class="node">
<title>Node1</title>
<g id="a_node1"><a xlink:title="A type used to describe the state of an aqueous mixture.">
<polygon fill="#bfbfbf" stroke="black" points="541,-73 541,-92 663,-92 663,-73 541,-73"/>
<text text-anchor="middle" x="602" y="-80" font-family="Helvetica,sans-Serif" font-size="10.00">AqueousMixtureState</text>
</a>
</g>
</g>
<!-- Node2 -->
<g id="node2" class="node">
<title>Node2</title>
<g id="a_node2"><a xlink:href="structReaktoro_1_1MixtureState.html" target="_top" xlink:title="A type used to describe the state of a mixture.">
<polygon fill="white" stroke="black" points="344,-155 344,-174 424,-174 424,-155 344,-155"/>
<text text-anchor="middle" x="384" y="-162" font-family="Helvetica,sans-Serif" font-size="10.00">MixtureState</text>
</a>
</g>
</g>
<!-- Node2&#45;&gt;Node1 -->
<g id="edge1" class="edge">
<title>Node2&#45;&gt;Node1</title>
<path fill="none" stroke="midnightblue" d="M428.03,-152.02C455.51,-143.67 491.72,-131.96 523,-119.5 543.75,-111.24 566.77,-100.06 582.38,-92.16"/>
<polygon fill="midnightblue" stroke="midnightblue" points="426.89,-148.71 418.32,-154.94 428.91,-155.41 426.89,-148.71"/>
</g>
<!-- Node3 -->
<g id="node3" class="node">
<title>Node3</title>
<g id="a_node3"><a xlink:href="classReaktoro_1_1Temperature.html" target="_top" xlink:title="A type that describes temperature in units of K.">
<polygon fill="white" stroke="black" points="149.5,-200 149.5,-219 227.5,-219 227.5,-200 149.5,-200"/>
<text text-anchor="middle" x="188.5" y="-207" font-family="Helvetica,sans-Serif" font-size="10.00">Temperature</text>
</a>
</g>
</g>
<!-- Node3&#45;&gt;Node2 -->
<g id="edge2" class="edge">
<title>Node3&#45;&gt;Node2</title>
<path fill="none" stroke="#9a32cd" stroke-dasharray="5,2" d="M237.55,-198.33C270.32,-190.71 313.17,-180.74 343.86,-173.6"/>
<polygon fill="#9a32cd" stroke="#9a32cd" points="236.68,-194.94 227.73,-200.61 238.26,-201.75 236.68,-194.94"/>
<text text-anchor="middle" x="279" y="-192.5" font-family="Helvetica,sans-Serif" font-size="10.00"> T</text>
</g>
<!-- Node4 -->
<g id="node4" class="node">
<title>Node4</title>
<g id="a_node4"><a xlink:href="classReaktoro_1_1ThermoScalarBase.html" target="_top" xlink:title=" ">
<polygon fill="white" stroke="black" points="0,-180 0,-199 84,-199 84,-180 0,-180"/>
<text text-anchor="middle" x="42" y="-187" font-family="Helvetica,sans-Serif" font-size="10.00">ThermoScalar</text>
</a>
</g>
</g>
<!-- Node4&#45;&gt;Node3 -->
<g id="edge3" class="edge">
<title>Node4&#45;&gt;Node3</title>
<path fill="none" stroke="midnightblue" d="M94.17,-196.58C112.34,-199.1 132.46,-201.88 149.35,-204.22"/>
<polygon fill="midnightblue" stroke="midnightblue" points="94.41,-193.08 84.02,-195.18 93.45,-200.02 94.41,-193.08"/>
</g>
<!-- Node5 -->
<g id="node5" class="node">
<title>Node5</title>
<g id="a_node5"><a xlink:href="classReaktoro_1_1Pressure.html" target="_top" xlink:title="A type that describes pressure in units of Pa.">
<polygon fill="white" stroke="black" points="159,-162 159,-181 218,-181 218,-162 159,-162"/>
<text text-anchor="middle" x="188.5" y="-169" font-family="Helvetica,sans-Serif" font-size="10.00">Pressure</text>
</a>
</g>
</g>
<!-- Node4&#45;&gt;Node5 -->
<g id="edge5" class="edge">
<title>Node4&#45;&gt;Node5</title>
<path fill="none" stroke="midnightblue" d="M94.09,-183.14C115.8,-180.43 140.3,-177.38 158.76,-175.08"/>
<polygon fill="midnightblue" stroke="midnightblue" points="93.51,-179.68 84.02,-184.39 94.38,-186.63 93.51,-179.68"/>
</g>
<!-- Node5&#45;&gt;Node2 -->
<g id="edge4" class="edge">
<title>Node5&#45;&gt;Node2</title>
<path fill="none" stroke="#9a32cd" stroke-dasharray="5,2" d="M228.41,-170.09C262,-168.88 310.31,-167.13 343.95,-165.91"/>
<polygon fill="#9a32cd" stroke="#9a32cd" points="227.92,-166.61 218.05,-170.47 228.17,-173.6 227.92,-166.61"/>
<text text-anchor="middle" x="279" y="-170.5" font-family="Helvetica,sans-Serif" font-size="10.00"> P</text>
</g>
<!-- Node6 -->
<g id="node6" class="node">
<title>Node6</title>
<g id="a_node6"><a xlink:href="classReaktoro_1_1ChemicalVectorBase.html" target="_top" xlink:title=" ">
<polygon fill="white" stroke="black" points="121,-95 121,-136 256,-136 256,-95 121,-95"/>
<text text-anchor="start" x="129" y="-124" font-family="Helvetica,sans-Serif" font-size="10.00">ChemicalVectorBase</text>
<text text-anchor="start" x="129" y="-113" font-family="Helvetica,sans-Serif" font-size="10.00">&lt; Vector, Vector, Vector,</text>
<text text-anchor="middle" x="188.5" y="-102" font-family="Helvetica,sans-Serif" font-size="10.00"> Matrix &gt;</text>
</a>
</g>
</g>
<!-- Node6&#45;&gt;Node1 -->
<g id="edge9" class="edge">
<title>Node6&#45;&gt;Node1</title>
<path fill="none" stroke="#9a32cd" stroke-dasharray="5,2" d="M266.15,-110.92C333.8,-106.66 435.04,-99.74 523,-91.5 528.84,-90.95 534.91,-90.34 540.98,-89.69"/>
<polygon fill="#9a32cd" stroke="#9a32cd" points="265.77,-107.44 256.01,-111.56 266.21,-114.43 265.77,-107.44"/>
<text text-anchor="middle" x="384" y="-121.5" font-family="Helvetica,sans-Serif" font-size="10.00"> m</text>
<text text-anchor="middle" x="384" y="-110.5" font-family="Helvetica,sans-Serif" font-size="10.00">ms</text>
</g>
<!-- Node6&#45;&gt;Node2 -->
<g id="edge6" class="edge">
<title>Node6&#45;&gt;Node2</title>
<path fill="none" stroke="#9a32cd" stroke-dasharray="5,2" d="M266.02,-134.88C293.29,-141.78 322.81,-149.26 345.37,-154.97"/>
<polygon fill="#9a32cd" stroke="#9a32cd" points="266.64,-131.43 256.09,-132.36 264.93,-138.21 266.64,-131.43"/>
<text text-anchor="middle" x="279" y="-141.5" font-family="Helvetica,sans-Serif" font-size="10.00"> x</text>
</g>
<!-- Node7 -->
<g id="node7" class="node">
<title>Node7</title>
<g id="a_node7"><a xlink:href="classReaktoro_1_1ThermoScalarBase.html" target="_top" xlink:title=" ">
<polygon fill="white" stroke="black" points="302,-50 302,-69 466,-69 466,-50 302,-50"/>
<text text-anchor="middle" x="384" y="-57" font-family="Helvetica,sans-Serif" font-size="10.00">ThermoScalarBase&lt; double &gt;</text>
</a>
</g>
</g>
<!-- Node7&#45;&gt;Node1 -->
<g id="edge7" class="edge">
<title>Node7&#45;&gt;Node1</title>
<path fill="none" stroke="#9a32cd" stroke-dasharray="5,2" d="M476.3,-64.91C491.9,-66.18 507.93,-67.7 523,-69.5 531.04,-70.46 539.52,-71.67 547.81,-72.96"/>
<polygon fill="#9a32cd" stroke="#9a32cd" points="476.36,-61.41 466.12,-64.12 475.81,-68.39 476.36,-61.41"/>
<text text-anchor="middle" x="503.5" y="-83.5" font-family="Helvetica,sans-Serif" font-size="10.00"> epsilon</text>
<text text-anchor="middle" x="503.5" y="-72.5" font-family="Helvetica,sans-Serif" font-size="10.00">rho</text>
</g>
<!-- Node8 -->
<g id="node8" class="node">
<title>Node8</title>
<g id="a_node8"><a xlink:href="classReaktoro_1_1ChemicalScalarBase.html" target="_top" xlink:title=" ">
<polygon fill="white" stroke="black" points="319,-0.5 319,-30.5 449,-30.5 449,-0.5 319,-0.5"/>
<text text-anchor="start" x="327" y="-18.5" font-family="Helvetica,sans-Serif" font-size="10.00">ChemicalScalarBase</text>
<text text-anchor="middle" x="384" y="-7.5" font-family="Helvetica,sans-Serif" font-size="10.00">&lt; double, RowVector &gt;</text>
</a>
</g>
</g>
<!-- Node8&#45;&gt;Node1 -->
<g id="edge8" class="edge">
<title>Node8&#45;&gt;Node1</title>
<path fill="none" stroke="#9a32cd" stroke-dasharray="5,2" d="M459.45,-23.82C480.37,-27.39 502.89,-32.43 523,-39.5 546.78,-47.86 571.9,-63.01 587.01,-72.91"/>
<polygon fill="#9a32cd" stroke="#9a32cd" points="459.76,-20.32 449.33,-22.18 458.64,-27.23 459.76,-20.32"/>
<text text-anchor="middle" x="503.5" y="-53.5" font-family="Helvetica,sans-Serif" font-size="10.00"> Ie</text>
<text text-anchor="middle" x="503.5" y="-42.5" font-family="Helvetica,sans-Serif" font-size="10.00">Is</text>
</g>
</g>
</svg>
