<?xml version="1.0" encoding="UTF-8" standalone="no"?>
<!DOCTYPE svg PUBLIC "-//W3C//DTD SVG 1.1//EN"
 "http://www.w3.org/Graphics/SVG/1.1/DTD/svg11.dtd">
<!-- Generated by graphviz version 3.0.0 (20220226.1711)
 -->
<!-- Title: GlobalOptions Pages: 1 -->
<svg width="1478pt" height="532pt"
 viewBox="0.00 0.00 1478.00 532.00" xmlns="http://www.w3.org/2000/svg" xmlns:xlink="http://www.w3.org/1999/xlink">
<g id="graph0" class="graph" transform="scale(1 1) rotate(0) translate(4 528)">
<title>GlobalOptions</title>
<polygon fill="white" stroke="transparent" points="-4,4 -4,-528 1474,-528 1474,4 -4,4"/>
<!-- Node1 -->
<g id="node1" class="node">
<title>Node1</title>
<g id="a_node1"><a xlink:title="A type used to describe all options related to chemical calculations.">
<polygon fill="#bfbfbf" stroke="black" points="1392,-230.5 1392,-249.5 1470,-249.5 1470,-230.5 1392,-230.5"/>
<text text-anchor="middle" x="1431" y="-237.5" font-family="Helvetica,sans-Serif" font-size="10.00">GlobalOptions</text>
</a>
</g>
</g>
<!-- Node2 -->
<g id="node2" class="node">
<title>Node2</title>
<g id="a_node2"><a xlink:href="structReaktoro_1_1EquilibriumOptions.html" target="_top" xlink:title="The options for the equilibrium calculations.">
<polygon fill="white" stroke="black" points="970,-246.5 970,-265.5 1068,-265.5 1068,-246.5 970,-246.5"/>
<text text-anchor="middle" x="1019" y="-253.5" font-family="Helvetica,sans-Serif" font-size="10.00">EquilibriumOptions</text>
</a>
</g>
</g>
<!-- Node2&#45;&gt;Node1 -->
<g id="edge1" class="edge">
<title>Node2&#45;&gt;Node1</title>
<path fill="none" stroke="#9a32cd" stroke-dasharray="5,2" d="M1078.46,-253.06C1105.67,-251.74 1138.49,-250.2 1168,-249 1247.58,-245.75 1340.79,-242.74 1391.81,-241.16"/>
<polygon fill="#9a32cd" stroke="#9a32cd" points="1078.14,-249.57 1068.32,-253.56 1078.48,-256.56 1078.14,-249.57"/>
<text text-anchor="middle" x="1227.5" y="-252" font-family="Helvetica,sans-Serif" font-size="10.00"> equilibrium</text>
</g>
<!-- Node23 -->
<g id="node23" class="node">
<title>Node23</title>
<g id="a_node23"><a xlink:href="structReaktoro_1_1EquilibriumPathOptions.html" target="_top" xlink:title="A struct that describes the options from an equilibrium path calculation.">
<polygon fill="white" stroke="black" points="1168,-269.5 1168,-288.5 1287,-288.5 1287,-269.5 1168,-269.5"/>
<text text-anchor="middle" x="1227.5" y="-276.5" font-family="Helvetica,sans-Serif" font-size="10.00">EquilibriumPathOptions</text>
</a>
</g>
</g>
<!-- Node2&#45;&gt;Node23 -->
<g id="edge28" class="edge">
<title>Node2&#45;&gt;Node23</title>
<path fill="none" stroke="#9a32cd" stroke-dasharray="5,2" d="M1078.22,-262.48C1106.28,-265.61 1139.85,-269.35 1167.95,-272.48"/>
<polygon fill="#9a32cd" stroke="#9a32cd" points="1078.48,-258.99 1068.15,-261.36 1077.71,-265.95 1078.48,-258.99"/>
<text text-anchor="middle" x="1118" y="-273" font-family="Helvetica,sans-Serif" font-size="10.00"> equilibrium</text>
</g>
<!-- Node25 -->
<g id="node25" class="node">
<title>Node25</title>
<g id="a_node25"><a xlink:href="structReaktoro_1_1KineticOptions.html" target="_top" xlink:title="A struct to describe the options for a chemical kinetics calculation.">
<polygon fill="white" stroke="black" points="1187.5,-349.5 1187.5,-368.5 1267.5,-368.5 1267.5,-349.5 1187.5,-349.5"/>
<text text-anchor="middle" x="1227.5" y="-356.5" font-family="Helvetica,sans-Serif" font-size="10.00">KineticOptions</text>
</a>
</g>
</g>
<!-- Node2&#45;&gt;Node25 -->
<g id="edge31" class="edge">
<title>Node2&#45;&gt;Node25</title>
<path fill="none" stroke="#9a32cd" stroke-dasharray="5,2" d="M1034.2,-273.66C1046.5,-287.84 1065.51,-307.27 1086,-319 1095.11,-324.21 1151.16,-339.4 1189.65,-349.49"/>
<polygon fill="#9a32cd" stroke="#9a32cd" points="1036.56,-271.03 1027.45,-265.62 1031.2,-275.53 1036.56,-271.03"/>
<text text-anchor="middle" x="1118" y="-341" font-family="Helvetica,sans-Serif" font-size="10.00"> equilibrium</text>
</g>
<!-- Node3 -->
<g id="node3" class="node">
<title>Node3</title>
<g id="a_node3"><a xlink:href="structReaktoro_1_1OptimumOptions.html" target="_top" xlink:title="A type that describes the options of a optimisation calculation.">
<polygon fill="white" stroke="black" points="783.5,-213.5 783.5,-232.5 873.5,-232.5 873.5,-213.5 783.5,-213.5"/>
<text text-anchor="middle" x="828.5" y="-220.5" font-family="Helvetica,sans-Serif" font-size="10.00">OptimumOptions</text>
</a>
</g>
</g>
<!-- Node3&#45;&gt;Node2 -->
<g id="edge2" class="edge">
<title>Node3&#45;&gt;Node2</title>
<path fill="none" stroke="#9a32cd" stroke-dasharray="5,2" d="M883.84,-228.65C905.18,-231.25 929.83,-234.71 952,-239 962.57,-241.04 973.97,-243.78 984.26,-246.46"/>
<polygon fill="#9a32cd" stroke="#9a32cd" points="883.99,-225.14 873.65,-227.45 883.17,-232.1 883.99,-225.14"/>
<text text-anchor="middle" x="930.5" y="-242" font-family="Helvetica,sans-Serif" font-size="10.00"> optimum</text>
</g>
<!-- Node4 -->
<g id="node4" class="node">
<title>Node4</title>
<g id="a_node4"><a xlink:href="structReaktoro_1_1OptimumOutputOptions.html" target="_top" xlink:title="A type that describes the options for the output of a optimisation calculation.">
<polygon fill="white" stroke="black" points="533.5,-38.5 533.5,-57.5 652.5,-57.5 652.5,-38.5 533.5,-38.5"/>
<text text-anchor="middle" x="593" y="-45.5" font-family="Helvetica,sans-Serif" font-size="10.00">OptimumOutputOptions</text>
</a>
</g>
</g>
<!-- Node4&#45;&gt;Node3 -->
<g id="edge3" class="edge">
<title>Node4&#45;&gt;Node3</title>
<path fill="none" stroke="#9a32cd" stroke-dasharray="5,2" d="M662.86,-41.61C692.92,-42.69 726.21,-49.79 748,-72 789.47,-114.26 727.71,-158.84 766,-204 770.63,-209.45 776.78,-213.37 783.42,-216.17"/>
<polygon fill="#9a32cd" stroke="#9a32cd" points="662.86,-38.11 652.81,-41.46 662.75,-45.11 662.86,-38.11"/>
<text text-anchor="middle" x="717.5" y="-75" font-family="Helvetica,sans-Serif" font-size="10.00"> output</text>
</g>
<!-- Node5 -->
<g id="node5" class="node">
<title>Node5</title>
<g id="a_node5"><a xlink:href="structReaktoro_1_1OutputterOptions.html" target="_top" xlink:title=" ">
<polygon fill="white" stroke="#bfbfbf" points="273,-216.5 273,-235.5 364,-235.5 364,-216.5 273,-216.5"/>
<text text-anchor="middle" x="318.5" y="-223.5" font-family="Helvetica,sans-Serif" font-size="10.00">OutputterOptions</text>
</a>
</g>
</g>
<!-- Node5&#45;&gt;Node4 -->
<g id="edge4" class="edge">
<title>Node5&#45;&gt;Node4</title>
<path fill="none" stroke="midnightblue" d="M360.56,-213.03C401.34,-198.09 462.88,-169.71 499,-125 515.96,-104.01 497.42,-85.57 517,-67 521.68,-62.56 527.24,-59.12 533.19,-56.46"/>
<polygon fill="midnightblue" stroke="midnightblue" points="359.17,-209.8 350.92,-216.45 361.51,-216.4 359.17,-209.8"/>
</g>
<!-- Node21 -->
<g id="node21" class="node">
<title>Node21</title>
<g id="a_node21"><a xlink:href="structReaktoro_1_1NonlinearOutput.html" target="_top" xlink:title="A type that describes the options for the output of a non&#45;linear problem calculation.">
<polygon fill="white" stroke="black" points="549.5,-342.5 549.5,-361.5 636.5,-361.5 636.5,-342.5 549.5,-342.5"/>
<text text-anchor="middle" x="593" y="-349.5" font-family="Helvetica,sans-Serif" font-size="10.00">NonlinearOutput</text>
</a>
</g>
</g>
<!-- Node5&#45;&gt;Node21 -->
<g id="edge23" class="edge">
<title>Node5&#45;&gt;Node21</title>
<path fill="none" stroke="midnightblue" d="M370.24,-214.88C410.15,-209.33 464.57,-209.27 499,-240 530.41,-268.04 488.09,-302.4 517,-333 525.39,-341.89 537.3,-346.85 549.15,-349.57"/>
<polygon fill="midnightblue" stroke="midnightblue" points="369.52,-211.45 360.18,-216.44 370.59,-218.37 369.52,-211.45"/>
</g>
<!-- Node6 -->
<g id="node6" class="node">
<title>Node6</title>
<g id="a_node6"><a xlink:title=" ">
<polygon fill="white" stroke="black" points="145,-324.5 145,-343.5 186,-343.5 186,-324.5 145,-324.5"/>
<text text-anchor="middle" x="165.5" y="-331.5" font-family="Helvetica,sans-Serif" font-size="10.00">string</text>
</a>
</g>
</g>
<!-- Node6&#45;&gt;Node4 -->
<g id="edge7" class="edge">
<title>Node6&#45;&gt;Node4</title>
<path fill="none" stroke="#9a32cd" stroke-dasharray="5,2" d="M173.71,-314.78C187.06,-281.64 218.63,-213.52 266,-174 347.3,-106.17 469.24,-72.27 538.63,-57.55"/>
<polygon fill="#9a32cd" stroke="#9a32cd" points="170.4,-313.64 170.02,-324.23 176.92,-316.19 170.4,-313.64"/>
<text text-anchor="middle" x="318.5" y="-199" font-family="Helvetica,sans-Serif" font-size="10.00"> xprefix</text>
<text text-anchor="middle" x="318.5" y="-188" font-family="Helvetica,sans-Serif" font-size="10.00">yprefix</text>
<text text-anchor="middle" x="318.5" y="-177" font-family="Helvetica,sans-Serif" font-size="10.00">zprefix</text>
</g>
<!-- Node6&#45;&gt;Node5 -->
<g id="edge5" class="edge">
<title>Node6&#45;&gt;Node5</title>
<path fill="none" stroke="#9a32cd" stroke-dasharray="5,2" d="M185.42,-317.77C191.28,-312.91 197.83,-307.63 204,-303 238.29,-277.29 280.47,-249.66 302.5,-235.53"/>
<polygon fill="#9a32cd" stroke="#9a32cd" points="182.83,-315.38 177.44,-324.49 187.34,-320.73 182.83,-315.38"/>
<text text-anchor="middle" x="226" y="-306" font-family="Helvetica,sans-Serif" font-size="10.00"> separator</text>
</g>
<!-- Node8 -->
<g id="node8" class="node">
<title>Node8</title>
<g id="a_node8"><a xlink:title=" ">
<polygon fill="white" stroke="black" points="266,-296.5 266,-315.5 371,-315.5 371,-296.5 266,-296.5"/>
<text text-anchor="middle" x="318.5" y="-303.5" font-family="Helvetica,sans-Serif" font-size="10.00">vector&lt; std::string &gt;</text>
</a>
</g>
</g>
<!-- Node6&#45;&gt;Node8 -->
<g id="edge9" class="edge">
<title>Node6&#45;&gt;Node8</title>
<path fill="none" stroke="#9a32cd" stroke-dasharray="5,2" d="M196.28,-328.44C198.89,-327.95 201.49,-327.47 204,-327 224.19,-323.25 246.41,-319.13 265.8,-315.55"/>
<polygon fill="#9a32cd" stroke="#9a32cd" points="195.54,-325.01 186.35,-330.29 196.82,-331.9 195.54,-325.01"/>
<text text-anchor="middle" x="226" y="-330" font-family="Helvetica,sans-Serif" font-size="10.00"> elements</text>
</g>
<!-- Node6&#45;&gt;Node21 -->
<g id="edge24" class="edge">
<title>Node6&#45;&gt;Node21</title>
<path fill="none" stroke="#9a32cd" stroke-dasharray="5,2" d="M196.55,-337.39C199.07,-337.62 201.58,-337.83 204,-338 329.39,-346.94 478.01,-350.28 549.46,-351.44"/>
<polygon fill="#9a32cd" stroke="#9a32cd" points="196.62,-333.88 186.33,-336.38 195.93,-340.85 196.62,-333.88"/>
<text text-anchor="middle" x="318.5" y="-360" font-family="Helvetica,sans-Serif" font-size="10.00"> fprefix</text>
<text text-anchor="middle" x="318.5" y="-349" font-family="Helvetica,sans-Serif" font-size="10.00">xprefix</text>
</g>
<!-- Node26 -->
<g id="node26" class="node">
<title>Node26</title>
<g id="a_node26"><a xlink:href="structReaktoro_1_1KineticOutputOptions.html" target="_top" xlink:title=" ">
<polygon fill="white" stroke="#bfbfbf" points="389,-391.5 389,-410.5 499,-410.5 499,-391.5 389,-391.5"/>
<text text-anchor="middle" x="444" y="-398.5" font-family="Helvetica,sans-Serif" font-size="10.00">KineticOutputOptions</text>
</a>
</g>
</g>
<!-- Node6&#45;&gt;Node26 -->
<g id="edge34" class="edge">
<title>Node6&#45;&gt;Node26</title>
<path fill="none" stroke="#9a32cd" stroke-dasharray="5,2" d="M182.64,-350.97C188.82,-356.55 196.26,-362.27 204,-366 262.75,-394.29 338.31,-401.13 388.58,-402.13"/>
<polygon fill="#9a32cd" stroke="#9a32cd" points="184.7,-348.09 175.09,-343.64 179.83,-353.12 184.7,-348.09"/>
<text text-anchor="middle" x="226" y="-385" font-family="Helvetica,sans-Serif" font-size="10.00"> format</text>
</g>
<!-- Node27 -->
<g id="node27" class="node">
<title>Node27</title>
<g id="a_node27"><a xlink:href="structReaktoro_1_1global_1_1InterpolationOptions.html" target="_top" xlink:title="A type used to describe all options related to interpolation.">
<polygon fill="white" stroke="black" points="541,-467.5 541,-486.5 645,-486.5 645,-467.5 541,-467.5"/>
<text text-anchor="middle" x="593" y="-474.5" font-family="Helvetica,sans-Serif" font-size="10.00">InterpolationOptions</text>
</a>
</g>
</g>
<!-- Node6&#45;&gt;Node27 -->
<g id="edge36" class="edge">
<title>Node6&#45;&gt;Node27</title>
<path fill="none" stroke="#9a32cd" stroke-dasharray="5,2" d="M174.32,-353.39C187.88,-384.22 218.9,-443.71 266,-471 359.55,-525.21 494.97,-501.87 557.71,-486.52"/>
<polygon fill="#9a32cd" stroke="#9a32cd" points="177.37,-351.63 170.25,-343.78 170.93,-354.36 177.37,-351.63"/>
<text text-anchor="middle" x="318.5" y="-516" font-family="Helvetica,sans-Serif" font-size="10.00"> pressure_units</text>
<text text-anchor="middle" x="318.5" y="-505" font-family="Helvetica,sans-Serif" font-size="10.00">temperature_units</text>
</g>
<!-- Node7 -->
<g id="node7" class="node">
<title>Node7</title>
<g id="a_node7"><a xlink:title=" ">
<polygon fill="white" stroke="black" points="0,-324.5 0,-343.5 108,-343.5 108,-324.5 0,-324.5"/>
<text text-anchor="middle" x="54" y="-331.5" font-family="Helvetica,sans-Serif" font-size="10.00">basic_string&lt; Char &gt;</text>
</a>
</g>
</g>
<!-- Node7&#45;&gt;Node6 -->
<g id="edge6" class="edge">
<title>Node7&#45;&gt;Node6</title>
<path fill="none" stroke="midnightblue" d="M118.23,-334C127.84,-334 137.09,-334 144.76,-334"/>
<polygon fill="midnightblue" stroke="midnightblue" points="118.15,-330.5 108.15,-334 118.15,-337.5 118.15,-330.5"/>
</g>
<!-- Node8&#45;&gt;Node4 -->
<g id="edge8" class="edge">
<title>Node8&#45;&gt;Node4</title>
<path fill="none" stroke="#9a32cd" stroke-dasharray="5,2" d="M342.54,-290.76C388.72,-260 489.06,-192.07 499,-176 524.82,-134.24 483.78,-103.15 517,-67 521.54,-62.05 527.17,-58.32 533.29,-55.5"/>
<polygon fill="#9a32cd" stroke="#9a32cd" points="340.46,-287.94 334.07,-296.39 344.33,-293.77 340.46,-287.94"/>
<text text-anchor="middle" x="444" y="-280" font-family="Helvetica,sans-Serif" font-size="10.00"> xnames</text>
<text text-anchor="middle" x="444" y="-269" font-family="Helvetica,sans-Serif" font-size="10.00">ynames</text>
<text text-anchor="middle" x="444" y="-258" font-family="Helvetica,sans-Serif" font-size="10.00">znames</text>
</g>
<!-- Node8&#45;&gt;Node21 -->
<g id="edge25" class="edge">
<title>Node8&#45;&gt;Node21</title>
<path fill="none" stroke="#9a32cd" stroke-dasharray="5,2" d="M381.45,-299.17C417.19,-297.7 462.21,-300.17 499,-316 509.11,-320.35 507.36,-327.7 517,-333 526.89,-338.43 538.36,-342.35 549.32,-345.15"/>
<polygon fill="#9a32cd" stroke="#9a32cd" points="380.95,-295.69 371.15,-299.71 381.32,-302.68 380.95,-295.69"/>
<text text-anchor="middle" x="444" y="-330" font-family="Helvetica,sans-Serif" font-size="10.00"> fnames</text>
<text text-anchor="middle" x="444" y="-319" font-family="Helvetica,sans-Serif" font-size="10.00">xnames</text>
</g>
<!-- Node9 -->
<g id="node9" class="node">
<title>Node9</title>
<g id="a_node9"><a xlink:href="structReaktoro_1_1OptimumParamsActNewton.html" target="_top" xlink:title=" ">
<polygon fill="white" stroke="#bfbfbf" points="523.5,-114.5 523.5,-133.5 662.5,-133.5 662.5,-114.5 523.5,-114.5"/>
<text text-anchor="middle" x="593" y="-121.5" font-family="Helvetica,sans-Serif" font-size="10.00">OptimumParamsActNewton</text>
</a>
</g>
</g>
<!-- Node9&#45;&gt;Node3 -->
<g id="edge10" class="edge">
<title>Node9&#45;&gt;Node3</title>
<path fill="none" stroke="#9a32cd" stroke-dasharray="5,2" d="M672.83,-127.35C699.23,-132 727.2,-141.24 748,-159 764.38,-172.99 750.17,-189.4 766,-204 770.93,-208.55 776.93,-212 783.22,-214.64"/>
<polygon fill="#9a32cd" stroke="#9a32cd" points="673.23,-123.87 662.81,-125.78 672.15,-130.78 673.23,-123.87"/>
<text text-anchor="middle" x="717.5" y="-162" font-family="Helvetica,sans-Serif" font-size="10.00"> actnewton</text>
</g>
<!-- Node10 -->
<g id="node10" class="node">
<title>Node10</title>
<g id="a_node10"><a xlink:href="structReaktoro_1_1OptimumParamsIpAction.html" target="_top" xlink:title=" ">
<polygon fill="white" stroke="#bfbfbf" points="530,-76.5 530,-95.5 656,-95.5 656,-76.5 530,-76.5"/>
<text text-anchor="middle" x="593" y="-83.5" font-family="Helvetica,sans-Serif" font-size="10.00">OptimumParamsIpAction</text>
</a>
</g>
</g>
<!-- Node10&#45;&gt;Node3 -->
<g id="edge11" class="edge">
<title>Node10&#45;&gt;Node3</title>
<path fill="none" stroke="#9a32cd" stroke-dasharray="5,2" d="M666.33,-83.03C695.25,-85.67 726.69,-93.98 748,-115 776.73,-143.34 738.93,-174.07 766,-204 770.72,-209.22 776.85,-213.02 783.39,-215.79"/>
<polygon fill="#9a32cd" stroke="#9a32cd" points="666.44,-79.53 656.22,-82.32 665.95,-86.51 666.44,-79.53"/>
<text text-anchor="middle" x="717.5" y="-118" font-family="Helvetica,sans-Serif" font-size="10.00"> ipaction</text>
</g>
<!-- Node11 -->
<g id="node11" class="node">
<title>Node11</title>
<g id="a_node11"><a xlink:href="structReaktoro_1_1OptimumParamsIpOpt.html" target="_top" xlink:title=" ">
<polygon fill="white" stroke="#bfbfbf" points="536,-429.5 536,-448.5 650,-448.5 650,-429.5 536,-429.5"/>
<text text-anchor="middle" x="593" y="-436.5" font-family="Helvetica,sans-Serif" font-size="10.00">OptimumParamsIpOpt</text>
</a>
</g>
</g>
<!-- Node11&#45;&gt;Node3 -->
<g id="edge12" class="edge">
<title>Node11&#45;&gt;Node3</title>
<path fill="none" stroke="#9a32cd" stroke-dasharray="5,2" d="M632.26,-425.74C667.28,-411.69 718.08,-386.22 748,-348 765.16,-326.08 752.06,-312.1 766,-288 779.07,-265.41 801.47,-244.48 815.33,-232.75"/>
<polygon fill="#9a32cd" stroke="#9a32cd" points="630.89,-422.51 622.83,-429.39 633.42,-429.04 630.89,-422.51"/>
<text text-anchor="middle" x="717.5" y="-400" font-family="Helvetica,sans-Serif" font-size="10.00"> ipopt</text>
</g>
<!-- Node12 -->
<g id="node12" class="node">
<title>Node12</title>
<g id="a_node12"><a xlink:title=" ">
<polygon fill="white" stroke="black" points="273.5,-442.5 273.5,-461.5 363.5,-461.5 363.5,-442.5 273.5,-442.5"/>
<text text-anchor="middle" x="318.5" y="-449.5" font-family="Helvetica,sans-Serif" font-size="10.00">vector&lt; double &gt;</text>
</a>
</g>
</g>
<!-- Node12&#45;&gt;Node11 -->
<g id="edge13" class="edge">
<title>Node12&#45;&gt;Node11</title>
<path fill="none" stroke="#9a32cd" stroke-dasharray="5,2" d="M366.71,-440.4C374.13,-438.99 381.74,-437.77 389,-437 438.41,-431.73 494.98,-432.87 535.83,-434.96"/>
<polygon fill="#9a32cd" stroke="#9a32cd" points="365.87,-437 356.78,-442.43 367.27,-443.86 365.87,-437"/>
<text text-anchor="middle" x="444" y="-440" font-family="Helvetica,sans-Serif" font-size="10.00"> mu</text>
</g>
<!-- Node12&#45;&gt;Node27 -->
<g id="edge37" class="edge">
<title>Node12&#45;&gt;Node27</title>
<path fill="none" stroke="#9a32cd" stroke-dasharray="5,2" d="M373.59,-456.96C422.11,-461.41 492.84,-467.9 540.54,-472.28"/>
<polygon fill="#9a32cd" stroke="#9a32cd" points="373.86,-453.47 363.58,-456.04 373.22,-460.44 373.86,-453.47"/>
<text text-anchor="middle" x="444" y="-482" font-family="Helvetica,sans-Serif" font-size="10.00"> pressures</text>
<text text-anchor="middle" x="444" y="-471" font-family="Helvetica,sans-Serif" font-size="10.00">temperatures</text>
</g>
<!-- Node13 -->
<g id="node13" class="node">
<title>Node13</title>
<g id="a_node13"><a xlink:href="structReaktoro_1_1OptimumParamsIpNewton.html" target="_top" xlink:title=" ">
<polygon fill="white" stroke="#bfbfbf" points="527,-304.5 527,-323.5 659,-323.5 659,-304.5 527,-304.5"/>
<text text-anchor="middle" x="593" y="-311.5" font-family="Helvetica,sans-Serif" font-size="10.00">OptimumParamsIpNewton</text>
</a>
</g>
</g>
<!-- Node13&#45;&gt;Node3 -->
<g id="edge14" class="edge">
<title>Node13&#45;&gt;Node3</title>
<path fill="none" stroke="#9a32cd" stroke-dasharray="5,2" d="M642.41,-301.91C651.26,-299.65 660.42,-297.28 669,-295 704.22,-285.64 714.67,-287.75 748,-273 773.2,-261.85 799.77,-243.63 814.93,-232.54"/>
<polygon fill="#9a32cd" stroke="#9a32cd" points="641.42,-298.56 632.58,-304.41 643.14,-305.34 641.42,-298.56"/>
<text text-anchor="middle" x="717.5" y="-293" font-family="Helvetica,sans-Serif" font-size="10.00"> ipnewton</text>
</g>
<!-- Node14 -->
<g id="node14" class="node">
<title>Node14</title>
<g id="a_node14"><a xlink:href="structReaktoro_1_1OptimumParamsIpActive.html" target="_top" xlink:title=" ">
<polygon fill="white" stroke="#bfbfbf" points="530,-266.5 530,-285.5 656,-285.5 656,-266.5 530,-266.5"/>
<text text-anchor="middle" x="593" y="-273.5" font-family="Helvetica,sans-Serif" font-size="10.00">OptimumParamsIpActive</text>
</a>
</g>
</g>
<!-- Node14&#45;&gt;Node3 -->
<g id="edge15" class="edge">
<title>Node14&#45;&gt;Node3</title>
<path fill="none" stroke="#9a32cd" stroke-dasharray="5,2" d="M659.06,-264.66C686.61,-259.51 719,-253.01 748,-246 764.2,-242.09 782.04,-237 796.71,-232.6"/>
<polygon fill="#9a32cd" stroke="#9a32cd" points="658.34,-261.23 649.14,-266.49 659.61,-268.11 658.34,-261.23"/>
<text text-anchor="middle" x="717.5" y="-261" font-family="Helvetica,sans-Serif" font-size="10.00"> ipactive</text>
</g>
<!-- Node15 -->
<g id="node15" class="node">
<title>Node15</title>
<g id="a_node15"><a xlink:href="structReaktoro_1_1OptimumParamsKarpov.html" target="_top" xlink:title=" ">
<polygon fill="white" stroke="#bfbfbf" points="532.5,-228.5 532.5,-247.5 653.5,-247.5 653.5,-228.5 532.5,-228.5"/>
<text text-anchor="middle" x="593" y="-235.5" font-family="Helvetica,sans-Serif" font-size="10.00">OptimumParamsKarpov</text>
</a>
</g>
</g>
<!-- Node15&#45;&gt;Node3 -->
<g id="edge16" class="edge">
<title>Node15&#45;&gt;Node3</title>
<path fill="none" stroke="#9a32cd" stroke-dasharray="5,2" d="M663.7,-233.52C702.44,-231.03 749.48,-228.01 783.2,-225.85"/>
<polygon fill="#9a32cd" stroke="#9a32cd" points="663.28,-230.04 653.53,-234.18 663.73,-237.03 663.28,-230.04"/>
<text text-anchor="middle" x="717.5" y="-234" font-family="Helvetica,sans-Serif" font-size="10.00"> karpov</text>
</g>
<!-- Node16 -->
<g id="node16" class="node">
<title>Node16</title>
<g id="a_node16"><a xlink:href="structReaktoro_1_1OptimumParamsRefiner.html" target="_top" xlink:title=" ">
<polygon fill="white" stroke="#bfbfbf" points="532,-190.5 532,-209.5 654,-209.5 654,-190.5 532,-190.5"/>
<text text-anchor="middle" x="593" y="-197.5" font-family="Helvetica,sans-Serif" font-size="10.00">OptimumParamsRefiner</text>
</a>
</g>
</g>
<!-- Node16&#45;&gt;Node3 -->
<g id="edge17" class="edge">
<title>Node16&#45;&gt;Node3</title>
<path fill="none" stroke="#9a32cd" stroke-dasharray="5,2" d="M664.28,-205.32C690.57,-207.47 720.67,-210.13 748,-213 759.48,-214.21 771.88,-215.68 783.38,-217.12"/>
<polygon fill="#9a32cd" stroke="#9a32cd" points="664.27,-201.81 654.02,-204.49 663.71,-208.79 664.27,-201.81"/>
<text text-anchor="middle" x="717.5" y="-216" font-family="Helvetica,sans-Serif" font-size="10.00"> refiner</text>
</g>
<!-- Node17 -->
<g id="node17" class="node">
<title>Node17</title>
<g id="a_node17"><a xlink:href="structReaktoro_1_1OptimumParamsRegularization.html" target="_top" xlink:title="A type that describes the regularization options for the optimisation calculation.">
<polygon fill="white" stroke="black" points="517,-0.5 517,-19.5 669,-19.5 669,-0.5 517,-0.5"/>
<text text-anchor="middle" x="593" y="-7.5" font-family="Helvetica,sans-Serif" font-size="10.00">OptimumParamsRegularization</text>
</a>
</g>
</g>
<!-- Node17&#45;&gt;Node3 -->
<g id="edge18" class="edge">
<title>Node17&#45;&gt;Node3</title>
<path fill="none" stroke="#9a32cd" stroke-dasharray="5,2" d="M679.34,-2.05C704.6,-4.26 730.23,-11.76 748,-30 775.13,-57.84 741.34,-173.95 766,-204 770.54,-209.53 776.65,-213.48 783.26,-216.3"/>
<polygon fill="#9a32cd" stroke="#9a32cd" points="679.51,1.45 669.32,-1.44 679.09,-5.54 679.51,1.45"/>
<text text-anchor="middle" x="717.5" y="-33" font-family="Helvetica,sans-Serif" font-size="10.00"> regularization</text>
</g>
<!-- Node18 -->
<g id="node18" class="node">
<title>Node18</title>
<g id="a_node18"><a xlink:href="structReaktoro_1_1RegularizerOptions.html" target="_top" xlink:title="A type that describes the options for regularizing linear constraints.">
<polygon fill="white" stroke="black" points="268.5,-0.5 268.5,-19.5 368.5,-19.5 368.5,-0.5 268.5,-0.5"/>
<text text-anchor="middle" x="318.5" y="-7.5" font-family="Helvetica,sans-Serif" font-size="10.00">RegularizerOptions</text>
</a>
</g>
</g>
<!-- Node18&#45;&gt;Node17 -->
<g id="edge19" class="edge">
<title>Node18&#45;&gt;Node17</title>
<path fill="none" stroke="midnightblue" d="M378.53,-10C419.09,-10 473.26,-10 516.89,-10"/>
<polygon fill="midnightblue" stroke="midnightblue" points="378.53,-6.5 368.53,-10 378.53,-13.5 378.53,-6.5"/>
</g>
<!-- Node19 -->
<g id="node19" class="node">
<title>Node19</title>
<g id="a_node19"><a xlink:href="structReaktoro_1_1KktOptions.html" target="_top" xlink:title="A type to describe the options for the KKT calculation.">
<polygon fill="white" stroke="black" points="560.5,-152.5 560.5,-171.5 625.5,-171.5 625.5,-152.5 560.5,-152.5"/>
<text text-anchor="middle" x="593" y="-159.5" font-family="Helvetica,sans-Serif" font-size="10.00">KktOptions</text>
</a>
</g>
</g>
<!-- Node19&#45;&gt;Node3 -->
<g id="edge20" class="edge">
<title>Node19&#45;&gt;Node3</title>
<path fill="none" stroke="#9a32cd" stroke-dasharray="5,2" d="M635.97,-165.65C667.69,-169.48 711.79,-177.11 748,-192 756.89,-195.66 757.32,-199.87 766,-204 773.67,-207.65 782.21,-210.8 790.42,-213.44"/>
<polygon fill="#9a32cd" stroke="#9a32cd" points="636.05,-162.14 625.72,-164.5 635.27,-169.1 636.05,-162.14"/>
<text text-anchor="middle" x="717.5" y="-195" font-family="Helvetica,sans-Serif" font-size="10.00"> kkt</text>
</g>
<!-- Node20 -->
<g id="node20" class="node">
<title>Node20</title>
<g id="a_node20"><a xlink:href="structReaktoro_1_1NonlinearOptions.html" target="_top" xlink:title="A type that describes the options for the solution of a non&#45;linear problem.">
<polygon fill="white" stroke="black" points="782.5,-297.5 782.5,-316.5 874.5,-316.5 874.5,-297.5 782.5,-297.5"/>
<text text-anchor="middle" x="828.5" y="-304.5" font-family="Helvetica,sans-Serif" font-size="10.00">NonlinearOptions</text>
</a>
</g>
</g>
<!-- Node20&#45;&gt;Node2 -->
<g id="edge21" class="edge">
<title>Node20&#45;&gt;Node2</title>
<path fill="none" stroke="#9a32cd" stroke-dasharray="5,2" d="M874.85,-294.73C907.96,-285.77 952.21,-273.8 982.7,-265.55"/>
<polygon fill="#9a32cd" stroke="#9a32cd" points="873.69,-291.42 864.96,-297.41 875.52,-298.17 873.69,-291.42"/>
<text text-anchor="middle" x="930.5" y="-287" font-family="Helvetica,sans-Serif" font-size="10.00"> nonlinear</text>
</g>
<!-- Node21&#45;&gt;Node20 -->
<g id="edge22" class="edge">
<title>Node21&#45;&gt;Node20</title>
<path fill="none" stroke="#9a32cd" stroke-dasharray="5,2" d="M646.6,-341.86C687.5,-333.98 743.61,-323.17 782.45,-315.68"/>
<polygon fill="#9a32cd" stroke="#9a32cd" points="645.71,-338.47 636.56,-343.8 647.04,-345.34 645.71,-338.47"/>
<text text-anchor="middle" x="717.5" y="-336" font-family="Helvetica,sans-Serif" font-size="10.00"> output</text>
</g>
<!-- Node22 -->
<g id="node22" class="node">
<title>Node22</title>
<g id="a_node22"><a xlink:href="structReaktoro_1_1SmartEquilibriumOptions.html" target="_top" xlink:title="The options for the smart equilibrium calculations.">
<polygon fill="white" stroke="black" points="766,-175.5 766,-194.5 891,-194.5 891,-175.5 766,-175.5"/>
<text text-anchor="middle" x="828.5" y="-182.5" font-family="Helvetica,sans-Serif" font-size="10.00">SmartEquilibriumOptions</text>
</a>
</g>
</g>
<!-- Node22&#45;&gt;Node2 -->
<g id="edge26" class="edge">
<title>Node22&#45;&gt;Node2</title>
<path fill="none" stroke="#9a32cd" stroke-dasharray="5,2" d="M888.38,-196.87C908.92,-201.92 931.86,-208.61 952,-217 971.17,-224.98 991.48,-237.72 1004.43,-246.45"/>
<polygon fill="#9a32cd" stroke="#9a32cd" points="889.05,-193.43 878.52,-194.52 887.43,-200.24 889.05,-193.43"/>
<text text-anchor="middle" x="930.5" y="-220" font-family="Helvetica,sans-Serif" font-size="10.00"> smart</text>
</g>
<!-- Node23&#45;&gt;Node1 -->
<g id="edge27" class="edge">
<title>Node23&#45;&gt;Node1</title>
<path fill="none" stroke="#9a32cd" stroke-dasharray="5,2" d="M1296.98,-268.32C1321.37,-264.23 1348.98,-259.27 1374,-254 1380.37,-252.66 1387.12,-251.09 1393.64,-249.51"/>
<polygon fill="#9a32cd" stroke="#9a32cd" points="1296.39,-264.87 1287.1,-269.96 1297.54,-271.77 1296.39,-264.87"/>
<text text-anchor="middle" x="1339.5" y="-269" font-family="Helvetica,sans-Serif" font-size="10.00"> equilibriumpath</text>
</g>
<!-- Node24 -->
<g id="node24" class="node">
<title>Node24</title>
<g id="a_node24"><a xlink:href="structReaktoro_1_1ODEOptions.html" target="_top" xlink:title="A struct that defines the options for the ODESolver.">
<polygon fill="white" stroke="black" points="983,-325.5 983,-344.5 1055,-344.5 1055,-325.5 983,-325.5"/>
<text text-anchor="middle" x="1019" y="-332.5" font-family="Helvetica,sans-Serif" font-size="10.00">ODEOptions</text>
</a>
</g>
</g>
<!-- Node24&#45;&gt;Node23 -->
<g id="edge29" class="edge">
<title>Node24&#45;&gt;Node23</title>
<path fill="none" stroke="#9a32cd" stroke-dasharray="5,2" d="M1049.77,-321.45C1060.97,-316.73 1073.91,-311.69 1086,-308 1112.56,-299.9 1142.64,-293.36 1168.13,-288.55"/>
<polygon fill="#9a32cd" stroke="#9a32cd" points="1048.24,-318.3 1040.45,-325.49 1051.02,-324.73 1048.24,-318.3"/>
<text text-anchor="middle" x="1118" y="-311" font-family="Helvetica,sans-Serif" font-size="10.00"> ode</text>
</g>
<!-- Node24&#45;&gt;Node25 -->
<g id="edge32" class="edge">
<title>Node24&#45;&gt;Node25</title>
<path fill="none" stroke="#9a32cd" stroke-dasharray="5,2" d="M1059.47,-347.3C1068.13,-349.57 1077.31,-351.65 1086,-353 1119.89,-358.28 1158.9,-359.57 1187.21,-359.66"/>
<polygon fill="#9a32cd" stroke="#9a32cd" points="1060.16,-343.87 1049.59,-344.59 1058.3,-350.62 1060.16,-343.87"/>
<text text-anchor="middle" x="1118" y="-361" font-family="Helvetica,sans-Serif" font-size="10.00"> ode</text>
</g>
<!-- Node25&#45;&gt;Node1 -->
<g id="edge30" class="edge">
<title>Node25&#45;&gt;Node1</title>
<path fill="none" stroke="#9a32cd" stroke-dasharray="5,2" d="M1257.32,-345.05C1287.17,-330.26 1334.83,-305.67 1374,-281 1389.7,-271.11 1406.78,-258.28 1417.89,-249.63"/>
<polygon fill="#9a32cd" stroke="#9a32cd" points="1255.72,-341.94 1248.29,-349.5 1258.81,-348.22 1255.72,-341.94"/>
<text text-anchor="middle" x="1339.5" y="-322" font-family="Helvetica,sans-Serif" font-size="10.00"> kinetics</text>
</g>
<!-- Node26&#45;&gt;Node25 -->
<g id="edge33" class="edge">
<title>Node26&#45;&gt;Node25</title>
<path fill="none" stroke="#9a32cd" stroke-dasharray="5,2" d="M509.39,-401C564.4,-401 645.65,-401 716.5,-401 716.5,-401 716.5,-401 1020,-401 1084.75,-401 1158.68,-380.92 1198.14,-368.53"/>
<polygon fill="#9a32cd" stroke="#9a32cd" points="509.09,-397.5 499.09,-401 509.09,-404.5 509.09,-397.5"/>
<text text-anchor="middle" x="828.5" y="-404" font-family="Helvetica,sans-Serif" font-size="10.00"> output</text>
</g>
<!-- Node27&#45;&gt;Node1 -->
<g id="edge35" class="edge">
<title>Node27&#45;&gt;Node1</title>
<path fill="none" stroke="#9a32cd" stroke-dasharray="5,2" d="M655.44,-470.89C702.49,-466.74 769.03,-462 827.5,-462 827.5,-462 827.5,-462 1228.5,-462 1345.09,-462 1411.92,-292.03 1426.81,-249.54"/>
<polygon fill="#9a32cd" stroke="#9a32cd" points="655.06,-467.41 645.41,-471.8 655.69,-474.39 655.06,-467.41"/>
<text text-anchor="middle" x="1019" y="-465" font-family="Helvetica,sans-Serif" font-size="10.00"> interpolation</text>
</g>
<!-- Node28 -->
<g id="node28" class="node">
<title>Node28</title>
<g id="a_node28"><a xlink:href="structReaktoro_1_1global_1_1ExceptionOptions.html" target="_top" xlink:title="A type used to describe all options related to exception handling.">
<polygon fill="white" stroke="black" points="1180.5,-184.5 1180.5,-203.5 1274.5,-203.5 1274.5,-184.5 1180.5,-184.5"/>
<text text-anchor="middle" x="1227.5" y="-191.5" font-family="Helvetica,sans-Serif" font-size="10.00">ExceptionOptions</text>
</a>
</g>
</g>
<!-- Node28&#45;&gt;Node1 -->
<g id="edge38" class="edge">
<title>Node28&#45;&gt;Node1</title>
<path fill="none" stroke="#9a32cd" stroke-dasharray="5,2" d="M1284.89,-198.47C1312.18,-201.56 1345.2,-206.67 1374,-215 1387.09,-218.79 1401.09,-225.04 1411.82,-230.34"/>
<polygon fill="#9a32cd" stroke="#9a32cd" points="1285.05,-194.97 1274.73,-197.39 1284.31,-201.93 1285.05,-194.97"/>
<text text-anchor="middle" x="1339.5" y="-218" font-family="Helvetica,sans-Serif" font-size="10.00"> exception</text>
</g>
<!-- Node29 -->
<g id="node29" class="node">
<title>Node29</title>
<g id="a_node29"><a xlink:href="structReaktoro_1_1global_1_1DatabaseOptions.html" target="_top" xlink:title="A type used to describe all options related to database management.">
<polygon fill="white" stroke="black" points="1181.5,-146.5 1181.5,-165.5 1273.5,-165.5 1273.5,-146.5 1181.5,-146.5"/>
<text text-anchor="middle" x="1227.5" y="-153.5" font-family="Helvetica,sans-Serif" font-size="10.00">DatabaseOptions</text>
</a>
</g>
</g>
<!-- Node29&#45;&gt;Node1 -->
<g id="edge39" class="edge">
<title>Node29&#45;&gt;Node1</title>
<path fill="none" stroke="#9a32cd" stroke-dasharray="5,2" d="M1283.78,-160.03C1312.06,-163.87 1346.26,-171.37 1374,-186 1394.79,-196.96 1413.19,-217.97 1422.84,-230.3"/>
<polygon fill="#9a32cd" stroke="#9a32cd" points="1284.01,-156.53 1273.66,-158.77 1283.15,-163.48 1284.01,-156.53"/>
<text text-anchor="middle" x="1339.5" y="-189" font-family="Helvetica,sans-Serif" font-size="10.00"> database</text>
</g>
<!-- Node30 -->
<g id="node30" class="node">
<title>Node30</title>
<g id="a_node30"><a xlink:href="structReaktoro_1_1global_1_1AqueousOptions.html" target="_top" xlink:title="A type used to describe all options related to aqueous models.">
<polygon fill="white" stroke="black" points="1183,-108.5 1183,-127.5 1272,-127.5 1272,-108.5 1183,-108.5"/>
<text text-anchor="middle" x="1227.5" y="-115.5" font-family="Helvetica,sans-Serif" font-size="10.00">AqueousOptions</text>
</a>
</g>
</g>
<!-- Node30&#45;&gt;Node1 -->
<g id="edge40" class="edge">
<title>Node30&#45;&gt;Node1</title>
<path fill="none" stroke="#9a32cd" stroke-dasharray="5,2" d="M1282.31,-118.86C1311.7,-121.71 1347.4,-129.27 1374,-148 1403.81,-169 1420.7,-211.39 1427.05,-230.4"/>
<polygon fill="#9a32cd" stroke="#9a32cd" points="1282.46,-115.37 1272.21,-118.04 1281.89,-122.34 1282.46,-115.37"/>
<text text-anchor="middle" x="1339.5" y="-151" font-family="Helvetica,sans-Serif" font-size="10.00"> aqueous</text>
</g>
<!-- Node31 -->
<g id="node31" class="node">
<title>Node31</title>
<g id="a_node31"><a xlink:href="structReaktoro_1_1global_1_1AqueousOptions_1_1HKF.html" target="_top" xlink:title="A type used to describe all options related to HKF model.">
<polygon fill="white" stroke="black" points="1000.5,-89.5 1000.5,-108.5 1037.5,-108.5 1037.5,-89.5 1000.5,-89.5"/>
<text text-anchor="middle" x="1019" y="-96.5" font-family="Helvetica,sans-Serif" font-size="10.00">HKF</text>
</a>
</g>
</g>
<!-- Node31&#45;&gt;Node30 -->
<g id="edge41" class="edge">
<title>Node31&#45;&gt;Node30</title>
<path fill="none" stroke="#9a32cd" stroke-dasharray="5,2" d="M1047.75,-98.92C1074.13,-99.12 1114.88,-100.13 1150,-104 1160.74,-105.18 1172.23,-106.99 1182.97,-108.92"/>
<polygon fill="#9a32cd" stroke="#9a32cd" points="1047.74,-95.42 1037.72,-98.88 1047.71,-102.42 1047.74,-95.42"/>
<text text-anchor="middle" x="1118" y="-107" font-family="Helvetica,sans-Serif" font-size="10.00"> hkf</text>
</g>
<!-- Node32 -->
<g id="node32" class="node">
<title>Node32</title>
<g id="a_node32"><a xlink:href="structReaktoro_1_1global_1_1AqueousOptions_1_1DebyeHuckel.html" target="_top" xlink:title="A type used to describe all options related to Debye&#45;Huckel model.">
<polygon fill="white" stroke="black" points="981,-127.5 981,-146.5 1057,-146.5 1057,-127.5 981,-127.5"/>
<text text-anchor="middle" x="1019" y="-134.5" font-family="Helvetica,sans-Serif" font-size="10.00">DebyeHuckel</text>
</a>
</g>
</g>
<!-- Node32&#45;&gt;Node30 -->
<g id="edge42" class="edge">
<title>Node32&#45;&gt;Node30</title>
<path fill="none" stroke="#9a32cd" stroke-dasharray="5,2" d="M1067.77,-132.6C1102.53,-129.41 1149.21,-125.11 1182.94,-122.01"/>
<polygon fill="#9a32cd" stroke="#9a32cd" points="1067.03,-129.16 1057.4,-133.56 1067.67,-136.13 1067.03,-129.16"/>
<text text-anchor="middle" x="1118" y="-133" font-family="Helvetica,sans-Serif" font-size="10.00"> debye_huckel</text>
</g>
</g>
</svg>
