<?xml version="1.0" encoding="UTF-8" standalone="no"?>
<!DOCTYPE svg PUBLIC "-//W3C//DTD SVG 1.1//EN"
 "http://www.w3.org/Graphics/SVG/1.1/DTD/svg11.dtd">
<!-- Generated by graphviz version 2.50.0 (20211209.0339)
 -->
<!-- Title: OptimumOptions Pages: 1 -->
<!--zoomable 418 -->
<svg id="main" version="1.1" xmlns="http://www.w3.org/2000/svg" xmlns:xlink="http://www.w3.org/1999/xlink" xml:space="preserve" onload="init(evt)">
<style type="text/css"><![CDATA[
.edge:hover path { stroke: red; }
.edge:hover polygon { stroke: red; fill: red; }
]]></style>
<script type="text/javascript"><![CDATA[
var edges = document.getElementsByTagName('g');
if (edges && edges.length) {
  for (var i=0;i<edges.length;i++) {
    if (edges[i].id.substr(0,4)=='edge') {
      edges[i].setAttribute('class','edge');
    }
  }
}
]]></script>
        <defs>
                <circle id="rim" cx="0" cy="0" r="7"/>
                <circle id="rim2" cx="0" cy="0" r="3.5"/>
                <g id="zoomPlus">
                        <use xlink:href="#rim" fill="#404040">
                                <set attributeName="fill" to="#808080" begin="zoomplus.mouseover" end="zoomplus.mouseout"/>
                        </use>
                        <path d="M-4,0h8M0,-4v8" fill="none" stroke="white" stroke-width="1.5" pointer-events="none"/>
                </g>
                <g id="zoomMin">
                        <use xlink:href="#rim" fill="#404040">
                                <set attributeName="fill" to="#808080" begin="zoomminus.mouseover" end="zoomminus.mouseout"/>
                        </use>
                        <path d="M-4,0h8" fill="none" stroke="white" stroke-width="1.5" pointer-events="none"/>
                </g>
                <g id="dirArrow">
                        <path fill="none" stroke="white" stroke-width="1.5" d="M0,-3.0v7 M-2.5,-0.5L0,-3.0L2.5,-0.5"/>
                </g>
               <g id="resetDef">
                       <use xlink:href="#rim2" fill="#404040">
                               <set attributeName="fill" to="#808080" begin="reset.mouseover" end="reset.mouseout"/>
                       </use>
               </g>
        </defs>

<script type="text/javascript">
var viewWidth = 868;
var viewHeight = 418;
var sectionId = 'dynsection-0';
</script>
<script xlink:href="svgpan.js"/>
<svg id="graph" class="graph">
<g id="viewport">
<title>OptimumOptions</title>
<polygon fill="white" stroke="transparent" points="-4,4 -4,-414 864,-414 864,4 -4,4"/>
<!-- Node1 -->
<g id="node1" class="node">
<title>Node1</title>
<g id="a_node1"><a xlink:title="A type that describes the options of a optimisation calculation.">
<polygon fill="#bfbfbf" stroke="black" points="760,-221.5 760,-240.5 860,-240.5 860,-221.5 760,-221.5"/>
<text text-anchor="middle" x="810" y="-228.5" font-family="Helvetica,sans-Serif" font-size="10.00">OptimumOptions</text>
</a>
</g>
</g>
<!-- Node2 -->
<g id="node2" class="node">
<title>Node2</title>
<g id="a_node2"><a xlink:href="structReaktoro_1_1OptimumParamsIpAction.html" target="_top" xlink:title=" ">
<polygon fill="white" stroke="black" points="499.5,-390.5 499.5,-409.5 637.5,-409.5 637.5,-390.5 499.5,-390.5"/>
<text text-anchor="middle" x="568.5" y="-397.5" font-family="Helvetica,sans-Serif" font-size="10.00">OptimumParamsIpAction</text>
</a>
</g>
</g>
<!-- Node2&#45;&gt;Node1 -->
<g id="edge1" class="edge">
<title>Node2&#45;&gt;Node1</title>
<path fill="none" stroke="#9a32cd" stroke-dasharray="5,2" d="M648.11,-399.29C679.95,-395.47 715.41,-386.32 742,-366 784.83,-333.28 802.12,-265.8 807.23,-240.69"/>
<polygon fill="#9a32cd" stroke="#9a32cd" points="647.49,-395.83 637.91,-400.35 648.22,-402.8 647.49,-395.83"/>
<text text-anchor="middle" x="706.5" y="-398" font-family="Helvetica,sans-Serif" font-size="10.00"> ipaction</text>
</g>
<!-- Node3 -->
<g id="node3" class="node">
<title>Node3</title>
<g id="a_node3"><a xlink:href="structReaktoro_1_1OptimumParamsIpOpt.html" target="_top" xlink:title=" ">
<polygon fill="white" stroke="black" points="506,-352.5 506,-371.5 631,-371.5 631,-352.5 506,-352.5"/>
<text text-anchor="middle" x="568.5" y="-359.5" font-family="Helvetica,sans-Serif" font-size="10.00">OptimumParamsIpOpt</text>
</a>
</g>
</g>
<!-- Node3&#45;&gt;Node1 -->
<g id="edge2" class="edge">
<title>Node3&#45;&gt;Node1</title>
<path fill="none" stroke="#9a32cd" stroke-dasharray="5,2" d="M641.15,-357.33C674.04,-352.42 712.24,-342.57 742,-323 774.19,-301.83 796.21,-259.53 804.88,-240.57"/>
<polygon fill="#9a32cd" stroke="#9a32cd" points="640.56,-353.88 631.12,-358.7 641.51,-360.81 640.56,-353.88"/>
<text text-anchor="middle" x="706.5" y="-354" font-family="Helvetica,sans-Serif" font-size="10.00"> ipopt</text>
</g>
<!-- Node4 -->
<g id="node4" class="node">
<title>Node4</title>
<g id="a_node4"><a xlink:title=" ">
<polygon fill="white" stroke="#bfbfbf" points="294,-352.5 294,-371.5 397,-371.5 397,-352.5 294,-352.5"/>
<text text-anchor="middle" x="345.5" y="-359.5" font-family="Helvetica,sans-Serif" font-size="10.00">vector&lt; double &gt;</text>
</a>
</g>
</g>
<!-- Node4&#45;&gt;Node3 -->
<g id="edge3" class="edge">
<title>Node4&#45;&gt;Node3</title>
<path fill="none" stroke="#9a32cd" stroke-dasharray="5,2" d="M407.31,-362C437.89,-362 474.88,-362 505.61,-362"/>
<polygon fill="#9a32cd" stroke="#9a32cd" points="407.2,-358.5 397.2,-362 407.2,-365.5 407.2,-358.5"/>
<text text-anchor="middle" x="444.5" y="-365" font-family="Helvetica,sans-Serif" font-size="10.00"> mu</text>
</g>
<!-- Node5 -->
<g id="node5" class="node">
<title>Node5</title>
<g id="a_node5"><a xlink:href="structReaktoro_1_1OptimumParamsIpActive.html" target="_top" xlink:title=" ">
<polygon fill="white" stroke="black" points="499.5,-314.5 499.5,-333.5 637.5,-333.5 637.5,-314.5 499.5,-314.5"/>
<text text-anchor="middle" x="568.5" y="-321.5" font-family="Helvetica,sans-Serif" font-size="10.00">OptimumParamsIpActive</text>
</a>
</g>
</g>
<!-- Node5&#45;&gt;Node1 -->
<g id="edge4" class="edge">
<title>Node5&#45;&gt;Node1</title>
<path fill="none" stroke="#9a32cd" stroke-dasharray="5,2" d="M647.96,-314.04C678.37,-308.21 712.82,-299.11 742,-285 765.4,-273.68 787.94,-252.8 799.98,-240.59"/>
<polygon fill="#9a32cd" stroke="#9a32cd" points="647.03,-310.66 637.82,-315.9 648.29,-317.54 647.03,-310.66"/>
<text text-anchor="middle" x="706.5" y="-311" font-family="Helvetica,sans-Serif" font-size="10.00"> ipactive</text>
</g>
<!-- Node6 -->
<g id="node6" class="node">
<title>Node6</title>
<g id="a_node6"><a xlink:href="structReaktoro_1_1OptimumParamsIpNewton.html" target="_top" xlink:title=" ">
<polygon fill="white" stroke="black" points="496,-276.5 496,-295.5 641,-295.5 641,-276.5 496,-276.5"/>
<text text-anchor="middle" x="568.5" y="-283.5" font-family="Helvetica,sans-Serif" font-size="10.00">OptimumParamsIpNewton</text>
</a>
</g>
</g>
<!-- Node6&#45;&gt;Node1 -->
<g id="edge5" class="edge">
<title>Node6&#45;&gt;Node1</title>
<path fill="none" stroke="#9a32cd" stroke-dasharray="5,2" d="M647.2,-274.86C677.08,-269.84 711.36,-263.18 742,-255 756.68,-251.08 772.72,-245.39 785.43,-240.53"/>
<polygon fill="#9a32cd" stroke="#9a32cd" points="646.55,-271.42 637.25,-276.5 647.68,-278.32 646.55,-271.42"/>
<text text-anchor="middle" x="706.5" y="-273" font-family="Helvetica,sans-Serif" font-size="10.00"> ipnewton</text>
</g>
<!-- Node7 -->
<g id="node7" class="node">
<title>Node7</title>
<g id="a_node7"><a xlink:href="structReaktoro_1_1KktOptions.html" target="_top" xlink:title="A type to describe the options for the KKT calculation.">
<polygon fill="white" stroke="black" points="533,-238.5 533,-257.5 604,-257.5 604,-238.5 533,-238.5"/>
<text text-anchor="middle" x="568.5" y="-245.5" font-family="Helvetica,sans-Serif" font-size="10.00">KktOptions</text>
</a>
</g>
</g>
<!-- Node7&#45;&gt;Node1 -->
<g id="edge6" class="edge">
<title>Node7&#45;&gt;Node1</title>
<path fill="none" stroke="#9a32cd" stroke-dasharray="5,2" d="M614.14,-244.83C655.57,-241.89 717.1,-237.52 759.89,-234.49"/>
<polygon fill="#9a32cd" stroke="#9a32cd" points="613.8,-241.35 604.07,-245.55 614.29,-248.33 613.8,-241.35"/>
<text text-anchor="middle" x="706.5" y="-243" font-family="Helvetica,sans-Serif" font-size="10.00"> kkt</text>
</g>
<!-- Node8 -->
<g id="node8" class="node">
<title>Node8</title>
<g id="a_node8"><a xlink:href="structReaktoro_1_1OptimumParamsRegularization.html" target="_top" xlink:title="A type that describes the regularization options for the optimisation calculation.">
<polygon fill="white" stroke="black" points="484,-200.5 484,-219.5 653,-219.5 653,-200.5 484,-200.5"/>
<text text-anchor="middle" x="568.5" y="-207.5" font-family="Helvetica,sans-Serif" font-size="10.00">OptimumParamsRegularization</text>
</a>
</g>
</g>
<!-- Node8&#45;&gt;Node1 -->
<g id="edge7" class="edge">
<title>Node8&#45;&gt;Node1</title>
<path fill="none" stroke="#9a32cd" stroke-dasharray="5,2" d="M663.45,-214.55C688.97,-216.18 716.58,-218.3 742,-221 747.73,-221.61 753.72,-222.35 759.66,-223.15"/>
<polygon fill="#9a32cd" stroke="#9a32cd" points="663.61,-211.05 653.41,-213.92 663.17,-218.04 663.61,-211.05"/>
<text text-anchor="middle" x="706.5" y="-224" font-family="Helvetica,sans-Serif" font-size="10.00"> regularization</text>
</g>
<!-- Node9 -->
<g id="node9" class="node">
<title>Node9</title>
<g id="a_node9"><a xlink:href="structReaktoro_1_1RegularizerOptions.html" target="_top" xlink:title="A type that describes the options for regularizing linear constraints.">
<polygon fill="white" stroke="black" points="290.5,-200.5 290.5,-219.5 400.5,-219.5 400.5,-200.5 290.5,-200.5"/>
<text text-anchor="middle" x="345.5" y="-207.5" font-family="Helvetica,sans-Serif" font-size="10.00">RegularizerOptions</text>
</a>
</g>
</g>
<!-- Node9&#45;&gt;Node8 -->
<g id="edge8" class="edge">
<title>Node9&#45;&gt;Node8</title>
<path fill="none" stroke="midnightblue" d="M410.8,-210C433.62,-210 459.65,-210 483.85,-210"/>
<polygon fill="midnightblue" stroke="midnightblue" points="410.56,-206.5 400.56,-210 410.56,-213.5 410.56,-206.5"/>
</g>
<!-- Node10 -->
<g id="node10" class="node">
<title>Node10</title>
<g id="a_node10"><a xlink:href="structReaktoro_1_1OptimumParamsRefiner.html" target="_top" xlink:title=" ">
<polygon fill="white" stroke="black" points="502,-162.5 502,-181.5 635,-181.5 635,-162.5 502,-162.5"/>
<text text-anchor="middle" x="568.5" y="-169.5" font-family="Helvetica,sans-Serif" font-size="10.00">OptimumParamsRefiner</text>
</a>
</g>
</g>
<!-- Node10&#45;&gt;Node1 -->
<g id="edge9" class="edge">
<title>Node10&#45;&gt;Node1</title>
<path fill="none" stroke="#9a32cd" stroke-dasharray="5,2" d="M645.31,-179.77C675.79,-184.05 710.98,-190.5 742,-200 759.65,-205.4 778.64,-214.54 791.88,-221.49"/>
<polygon fill="#9a32cd" stroke="#9a32cd" points="645.55,-176.27 635.17,-178.39 644.61,-183.2 645.55,-176.27"/>
<text text-anchor="middle" x="706.5" y="-203" font-family="Helvetica,sans-Serif" font-size="10.00"> refiner</text>
</g>
<!-- Node11 -->
<g id="node11" class="node">
<title>Node11</title>
<g id="a_node11"><a xlink:href="structReaktoro_1_1OptimumParamsKarpov.html" target="_top" xlink:title=" ">
<polygon fill="white" stroke="black" points="502,-124.5 502,-143.5 635,-143.5 635,-124.5 502,-124.5"/>
<text text-anchor="middle" x="568.5" y="-131.5" font-family="Helvetica,sans-Serif" font-size="10.00">OptimumParamsKarpov</text>
</a>
</g>
</g>
<!-- Node11&#45;&gt;Node1 -->
<g id="edge10" class="edge">
<title>Node11&#45;&gt;Node1</title>
<path fill="none" stroke="#9a32cd" stroke-dasharray="5,2" d="M645.38,-139.69C676.62,-144.35 712.36,-152.77 742,-168 767.56,-181.13 790.3,-206.94 801.55,-221.11"/>
<polygon fill="#9a32cd" stroke="#9a32cd" points="645.8,-136.22 635.41,-138.31 644.84,-143.15 645.8,-136.22"/>
<text text-anchor="middle" x="706.5" y="-171" font-family="Helvetica,sans-Serif" font-size="10.00"> karpov</text>
</g>
<!-- Node12 -->
<g id="node12" class="node">
<title>Node12</title>
<g id="a_node12"><a xlink:href="structReaktoro_1_1OptimumParamsActNewton.html" target="_top" xlink:title=" ">
<polygon fill="white" stroke="black" points="492.5,-86.5 492.5,-105.5 644.5,-105.5 644.5,-86.5 492.5,-86.5"/>
<text text-anchor="middle" x="568.5" y="-93.5" font-family="Helvetica,sans-Serif" font-size="10.00">OptimumParamsActNewton</text>
</a>
</g>
</g>
<!-- Node12&#45;&gt;Node1 -->
<g id="edge11" class="edge">
<title>Node12&#45;&gt;Node1</title>
<path fill="none" stroke="#9a32cd" stroke-dasharray="5,2" d="M654.81,-98.87C684.39,-103.2 716.49,-111.95 742,-129 776.87,-152.32 797.88,-200.58 805.61,-221.26"/>
<polygon fill="#9a32cd" stroke="#9a32cd" points="655.26,-95.4 644.89,-97.56 654.35,-102.34 655.26,-95.4"/>
<text text-anchor="middle" x="706.5" y="-132" font-family="Helvetica,sans-Serif" font-size="10.00"> actnewton</text>
</g>
<!-- Node13 -->
<g id="node13" class="node">
<title>Node13</title>
<g id="a_node13"><a xlink:href="structReaktoro_1_1OptimumOutputOptions.html" target="_top" xlink:title="A type that describes the options for the output of a optimisation calculation.">
<polygon fill="white" stroke="black" points="502,-48.5 502,-67.5 635,-67.5 635,-48.5 502,-48.5"/>
<text text-anchor="middle" x="568.5" y="-55.5" font-family="Helvetica,sans-Serif" font-size="10.00">OptimumOutputOptions</text>
</a>
</g>
</g>
<!-- Node13&#45;&gt;Node1 -->
<g id="edge12" class="edge">
<title>Node13&#45;&gt;Node1</title>
<path fill="none" stroke="#9a32cd" stroke-dasharray="5,2" d="M645.46,-55.06C678.02,-57.41 714.75,-65.31 742,-86 787.94,-120.88 803.46,-194.8 807.66,-221.3"/>
<polygon fill="#9a32cd" stroke="#9a32cd" points="645.23,-51.54 635.05,-54.48 644.84,-58.53 645.23,-51.54"/>
<text text-anchor="middle" x="706.5" y="-89" font-family="Helvetica,sans-Serif" font-size="10.00"> output</text>
</g>
<!-- Node14 -->
<g id="node14" class="node">
<title>Node14</title>
<g id="a_node14"><a xlink:href="structReaktoro_1_1OutputterOptions.html" target="_top" xlink:title=" ">
<polygon fill="white" stroke="black" points="295,-38.5 295,-57.5 396,-57.5 396,-38.5 295,-38.5"/>
<text text-anchor="middle" x="345.5" y="-45.5" font-family="Helvetica,sans-Serif" font-size="10.00">OutputterOptions</text>
</a>
</g>
</g>
<!-- Node14&#45;&gt;Node13 -->
<g id="edge13" class="edge">
<title>Node14&#45;&gt;Node13</title>
<path fill="none" stroke="midnightblue" d="M406.26,-50.7C435.76,-52.04 471.43,-53.65 501.72,-55.02"/>
<polygon fill="midnightblue" stroke="midnightblue" points="406.24,-47.2 396.1,-50.24 405.93,-54.19 406.24,-47.2"/>
</g>
<!-- Node15 -->
<g id="node15" class="node">
<title>Node15</title>
<g id="a_node15"><a xlink:title="STL class.">
<polygon fill="white" stroke="#bfbfbf" points="156,-38.5 156,-57.5 200,-57.5 200,-38.5 156,-38.5"/>
<text text-anchor="middle" x="178" y="-45.5" font-family="Helvetica,sans-Serif" font-size="10.00">string</text>
</a>
</g>
</g>
<!-- Node15&#45;&gt;Node13 -->
<g id="edge16" class="edge">
<title>Node15&#45;&gt;Node13</title>
<path fill="none" stroke="#9a32cd" stroke-dasharray="5,2" d="M209.8,-60.83C212.54,-61.67 215.3,-62.42 218,-63 325.74,-86.3 355.89,-71.24 466,-66 477.56,-65.45 489.86,-64.66 501.75,-63.78"/>
<polygon fill="#9a32cd" stroke="#9a32cd" points="210.69,-57.44 200.09,-57.47 208.4,-64.05 210.69,-57.44"/>
<text text-anchor="middle" x="345.5" y="-100" font-family="Helvetica,sans-Serif" font-size="10.00"> xprefix</text>
<text text-anchor="middle" x="345.5" y="-89" font-family="Helvetica,sans-Serif" font-size="10.00">yprefix</text>
<text text-anchor="middle" x="345.5" y="-78" font-family="Helvetica,sans-Serif" font-size="10.00">zprefix</text>
</g>
<!-- Node15&#45;&gt;Node14 -->
<g id="edge14" class="edge">
<title>Node15&#45;&gt;Node14</title>
<path fill="none" stroke="#9a32cd" stroke-dasharray="5,2" d="M210.52,-48C234.32,-48 267.45,-48 294.8,-48"/>
<polygon fill="#9a32cd" stroke="#9a32cd" points="210.3,-44.5 200.3,-48 210.3,-51.5 210.3,-44.5"/>
<text text-anchor="middle" x="243" y="-51" font-family="Helvetica,sans-Serif" font-size="10.00"> separator</text>
</g>
<!-- Node17 -->
<g id="node17" class="node">
<title>Node17</title>
<g id="a_node17"><a xlink:title=" ">
<polygon fill="white" stroke="#bfbfbf" points="286,-0.5 286,-19.5 405,-19.5 405,-0.5 286,-0.5"/>
<text text-anchor="middle" x="345.5" y="-7.5" font-family="Helvetica,sans-Serif" font-size="10.00">vector&lt; std::string &gt;</text>
</a>
</g>
</g>
<!-- Node15&#45;&gt;Node17 -->
<g id="edge18" class="edge">
<title>Node15&#45;&gt;Node17</title>
<path fill="none" stroke="#9a32cd" stroke-dasharray="5,2" d="M209.89,-35.52C212.61,-34.6 215.34,-33.75 218,-33 239.81,-26.88 264.22,-22 285.73,-18.33"/>
<polygon fill="#9a32cd" stroke="#9a32cd" points="208.43,-32.32 200.21,-39.01 210.81,-38.91 208.43,-32.32"/>
<text text-anchor="middle" x="243" y="-36" font-family="Helvetica,sans-Serif" font-size="10.00"> elements</text>
</g>
<!-- Node16 -->
<g id="node16" class="node">
<title>Node16</title>
<g id="a_node16"><a xlink:title="STL class.">
<polygon fill="white" stroke="#bfbfbf" points="0,-38.5 0,-57.5 119,-57.5 119,-38.5 0,-38.5"/>
<text text-anchor="middle" x="59.5" y="-45.5" font-family="Helvetica,sans-Serif" font-size="10.00">basic_string&lt; char &gt;</text>
</a>
</g>
</g>
<!-- Node16&#45;&gt;Node15 -->
<g id="edge15" class="edge">
<title>Node16&#45;&gt;Node15</title>
<path fill="none" stroke="midnightblue" d="M129.21,-48C138.82,-48 148.05,-48 155.78,-48"/>
<polygon fill="midnightblue" stroke="midnightblue" points="129.09,-44.5 119.09,-48 129.09,-51.5 129.09,-44.5"/>
</g>
<!-- Node17&#45;&gt;Node13 -->
<g id="edge17" class="edge">
<title>Node17&#45;&gt;Node13</title>
<path fill="none" stroke="#9a32cd" stroke-dasharray="5,2" d="M415.36,-7.91C432.09,-8.6 449.82,-10.36 466,-14 497.48,-21.08 531.35,-37.82 550.92,-48.49"/>
<polygon fill="#9a32cd" stroke="#9a32cd" points="415.2,-4.4 405.1,-7.6 414.99,-11.4 415.2,-4.4"/>
<text text-anchor="middle" x="444.5" y="-39" font-family="Helvetica,sans-Serif" font-size="10.00"> xnames</text>
<text text-anchor="middle" x="444.5" y="-28" font-family="Helvetica,sans-Serif" font-size="10.00">ynames</text>
<text text-anchor="middle" x="444.5" y="-17" font-family="Helvetica,sans-Serif" font-size="10.00">znames</text>
</g>
</g>
</svg>
        <g id="navigator" transform="translate(0 0)" fill="#404254">
                <rect fill="#f2f5e9" fill-opacity="0.5" stroke="#606060" stroke-width=".5" x="0" y="0" width="60" height="60"/>
                <use id="zoomplus" xlink:href="#zoomPlus" x="17" y="9" onmousedown="handleZoom(evt,'in')"/>
                <use id="zoomminus" xlink:href="#zoomMin" x="42" y="9" onmousedown="handleZoom(evt,'out')"/>
                <use id="reset" xlink:href="#resetDef" x="30" y="36" onmousedown="handleReset()"/>
                <g id="arrowUp" xlink:href="#dirArrow" transform="translate(30 24)" onmousedown="handlePan(0,-1)">
                  <use xlink:href="#rim" fill="#404040">
                        <set attributeName="fill" to="#808080" begin="arrowUp.mouseover" end="arrowUp.mouseout"/>
                  </use>
                  <path fill="none" stroke="white" stroke-width="1.5" d="M0,-3.0v7 M-2.5,-0.5L0,-3.0L2.5,-0.5"/>
                </g>
                <g id="arrowRight" xlink:href="#dirArrow" transform="rotate(90) translate(36 -43)" onmousedown="handlePan(1,0)">
                  <use xlink:href="#rim" fill="#404040">
                        <set attributeName="fill" to="#808080" begin="arrowRight.mouseover" end="arrowRight.mouseout"/>
                  </use>
                  <path fill="none" stroke="white" stroke-width="1.5" d="M0,-3.0v7 M-2.5,-0.5L0,-3.0L2.5,-0.5"/>
                </g>
                <g id="arrowDown" xlink:href="#dirArrow" transform="rotate(180) translate(-30 -48)" onmousedown="handlePan(0,1)">
                  <use xlink:href="#rim" fill="#404040">
                        <set attributeName="fill" to="#808080" begin="arrowDown.mouseover" end="arrowDown.mouseout"/>
                  </use>
                  <path fill="none" stroke="white" stroke-width="1.5" d="M0,-3.0v7 M-2.5,-0.5L0,-3.0L2.5,-0.5"/>
                </g>
                <g id="arrowLeft" xlink:href="#dirArrow" transform="rotate(270) translate(-36 17)" onmousedown="handlePan(-1,0)">
                  <use xlink:href="#rim" fill="#404040">
                        <set attributeName="fill" to="#808080" begin="arrowLeft.mouseover" end="arrowLeft.mouseout"/>
                  </use>
                  <path fill="none" stroke="white" stroke-width="1.5" d="M0,-3.0v7 M-2.5,-0.5L0,-3.0L2.5,-0.5"/>
                </g>
        </g>
        <svg viewBox="0 0 15 15" width="100%" height="30px" preserveAspectRatio="xMaxYMin meet">
         <g id="arrow_out" transform="scale(0.3 0.3)">
          <a xlink:href="structReaktoro_1_1OptimumOptions__coll__graph_org.svg" target="_base">
           <rect id="button" ry="5" rx="5" y="6" x="6" height="38" width="38"
                fill="#f2f5e9" fill-opacity="0.5" stroke="#606060" stroke-width="1.0"/>
           <path id="arrow"
             d="M 11.500037,31.436501 C 11.940474,20.09759 22.043105,11.32322 32.158766,21.979434 L 37.068811,17.246167 C 37.068811,17.246167 37.088388,32 37.088388,32 L 22.160133,31.978069 C 22.160133,31.978069 26.997745,27.140456 26.997745,27.140456 C 18.528582,18.264221 13.291696,25.230495 11.500037,31.436501 z"
             style="fill:#404040;"/>
          </a>
         </g>
        </svg>
</svg>
