<?xml version="1.0" encoding="UTF-8" standalone="no"?>
<!DOCTYPE svg PUBLIC "-//W3C//DTD SVG 1.1//EN"
 "http://www.w3.org/Graphics/SVG/1.1/DTD/svg11.dtd">
<!-- Generated by graphviz version 2.50.0 (20211209.0339)
 -->
<!-- Title: CubicEOS::Result Pages: 1 -->
<svg width="400pt" height="200pt"
 viewBox="0.00 0.00 400.00 200.00" xmlns="http://www.w3.org/2000/svg" xmlns:xlink="http://www.w3.org/1999/xlink">
<g id="graph0" class="graph" transform="scale(1 1) rotate(0) translate(4 196)">
<title>CubicEOS::Result</title>
<polygon fill="white" stroke="transparent" points="-4,4 -4,-196 396,-196 396,4 -4,4"/>
<!-- Node1 -->
<g id="node1" class="node">
<title>Node1</title>
<g id="a_node1"><a xlink:title=" ">
<polygon fill="#bfbfbf" stroke="black" points="292,-55.5 292,-74.5 392,-74.5 392,-55.5 292,-55.5"/>
<text text-anchor="middle" x="342" y="-62.5" font-family="Helvetica,sans-Serif" font-size="10.00">CubicEOS::Result</text>
</a>
</g>
</g>
<!-- Node2 -->
<g id="node2" class="node">
<title>Node2</title>
<g id="a_node2"><a xlink:href="classReaktoro_1_1ChemicalScalarBase.html" target="_top" xlink:title=" ">
<polygon fill="white" stroke="black" points="2.5,-95 2.5,-125 132.5,-125 132.5,-95 2.5,-95"/>
<text text-anchor="start" x="10.5" y="-113" font-family="Helvetica,sans-Serif" font-size="10.00">ChemicalScalarBase</text>
<text text-anchor="middle" x="67.5" y="-102" font-family="Helvetica,sans-Serif" font-size="10.00">&lt; double, RowVector &gt;</text>
</a>
</g>
</g>
<!-- Node2&#45;&gt;Node1 -->
<g id="edge1" class="edge">
<title>Node2&#45;&gt;Node1</title>
<path fill="none" stroke="#9a32cd" stroke-dasharray="5,2" d="M142.56,-106.09C181.95,-103.01 230.98,-97.56 274,-88 288.77,-84.72 304.81,-79.28 317.5,-74.52"/>
<polygon fill="#9a32cd" stroke="#9a32cd" points="142.22,-102.61 132.51,-106.85 142.74,-109.59 142.22,-102.61"/>
<text text-anchor="middle" x="213.5" y="-184" font-family="Helvetica,sans-Serif" font-size="10.00"> molar_volume</text>
<text text-anchor="middle" x="213.5" y="-173" font-family="Helvetica,sans-Serif" font-size="10.00">residual_molar_enthalpy</text>
<text text-anchor="start" x="153" y="-162" font-family="Helvetica,sans-Serif" font-size="10.00">residual_molar_gibbs</text>
<text text-anchor="middle" x="213.5" y="-151" font-family="Helvetica,sans-Serif" font-size="10.00">_energy</text>
<text text-anchor="start" x="153" y="-140" font-family="Helvetica,sans-Serif" font-size="10.00">residual_molar_heat</text>
<text text-anchor="middle" x="213.5" y="-129" font-family="Helvetica,sans-Serif" font-size="10.00">_capacity_cp</text>
<text text-anchor="start" x="153" y="-118" font-family="Helvetica,sans-Serif" font-size="10.00">residual_molar_heat</text>
<text text-anchor="middle" x="213.5" y="-107" font-family="Helvetica,sans-Serif" font-size="10.00">_capacity_cv</text>
</g>
<!-- Node3 -->
<g id="node3" class="node">
<title>Node3</title>
<g id="a_node3"><a xlink:href="classReaktoro_1_1ChemicalVectorBase.html" target="_top" xlink:title=" ">
<polygon fill="white" stroke="black" points="0,-0.5 0,-41.5 135,-41.5 135,-0.5 0,-0.5"/>
<text text-anchor="start" x="8" y="-29.5" font-family="Helvetica,sans-Serif" font-size="10.00">ChemicalVectorBase</text>
<text text-anchor="start" x="8" y="-18.5" font-family="Helvetica,sans-Serif" font-size="10.00">&lt; Vector, Vector, Vector,</text>
<text text-anchor="middle" x="67.5" y="-7.5" font-family="Helvetica,sans-Serif" font-size="10.00"> Matrix &gt;</text>
</a>
</g>
</g>
<!-- Node3&#45;&gt;Node1 -->
<g id="edge2" class="edge">
<title>Node3&#45;&gt;Node1</title>
<path fill="none" stroke="#9a32cd" stroke-dasharray="5,2" d="M145.16,-11.32C184.46,-8.86 232.62,-9.75 274,-22 296,-28.51 317.64,-44.66 330.14,-55.21"/>
<polygon fill="#9a32cd" stroke="#9a32cd" points="144.84,-7.83 135.12,-12.03 145.34,-14.82 144.84,-7.83"/>
<text text-anchor="middle" x="213.5" y="-80" font-family="Helvetica,sans-Serif" font-size="10.00"> ln_fugacity_coefficients</text>
<text text-anchor="middle" x="213.5" y="-69" font-family="Helvetica,sans-Serif" font-size="10.00">partial_molar_volumes</text>
<text text-anchor="start" x="154" y="-58" font-family="Helvetica,sans-Serif" font-size="10.00">residual_partial_molar</text>
<text text-anchor="middle" x="213.5" y="-47" font-family="Helvetica,sans-Serif" font-size="10.00">_enthalpies</text>
<text text-anchor="start" x="154" y="-36" font-family="Helvetica,sans-Serif" font-size="10.00">residual_partial_molar</text>
<text text-anchor="middle" x="213.5" y="-25" font-family="Helvetica,sans-Serif" font-size="10.00">_gibbs_energies</text>
</g>
</g>
</svg>
