<?xml version="1.0" encoding="UTF-8" standalone="no"?>
<!DOCTYPE svg PUBLIC "-//W3C//DTD SVG 1.1//EN"
 "http://www.w3.org/Graphics/SVG/1.1/DTD/svg11.dtd">
<!-- Generated by graphviz version 3.0.0 (20220226.1711)
 -->
<!-- Title: MixtureState Pages: 1 -->
<svg width="296pt" height="174pt"
 viewBox="0.00 0.00 295.50 174.00" xmlns="http://www.w3.org/2000/svg" xmlns:xlink="http://www.w3.org/1999/xlink">
<g id="graph0" class="graph" transform="scale(1 1) rotate(0) translate(4 170)">
<title>MixtureState</title>
<polygon fill="white" stroke="transparent" points="-4,4 -4,-170 291.5,-170 291.5,4 -4,4"/>
<!-- Node1 -->
<g id="node1" class="node">
<title>Node1</title>
<g id="a_node1"><a xlink:title="A type used to describe the state of a mixture.">
<polygon fill="#bfbfbf" stroke="black" points="81.5,-0.5 81.5,-19.5 153.5,-19.5 153.5,-0.5 81.5,-0.5"/>
<text text-anchor="middle" x="117.5" y="-7.5" font-family="Helvetica,sans-Serif" font-size="10.00">MixtureState</text>
</a>
</g>
</g>
<!-- Node2 -->
<g id="node2" class="node">
<title>Node2</title>
<g id="a_node2"><a xlink:href="classReaktoro_1_1Temperature.html" target="_top" xlink:title="A type that describes temperature in units of K.">
<polygon fill="white" stroke="black" points="0,-78.5 0,-97.5 71,-97.5 71,-78.5 0,-78.5"/>
<text text-anchor="middle" x="35.5" y="-85.5" font-family="Helvetica,sans-Serif" font-size="10.00">Temperature</text>
</a>
</g>
</g>
<!-- Node2&#45;&gt;Node1 -->
<g id="edge1" class="edge">
<title>Node2&#45;&gt;Node1</title>
<path fill="none" stroke="#9a32cd" stroke-dasharray="5,2" d="M52.44,-71.3C69.33,-55.64 94.67,-32.16 108.2,-19.62"/>
<polygon fill="#9a32cd" stroke="#9a32cd" points="49.86,-68.92 44.91,-78.28 54.62,-74.05 49.86,-68.92"/>
<text text-anchor="middle" x="91.5" y="-41" font-family="Helvetica,sans-Serif" font-size="10.00"> T</text>
</g>
<!-- Node3 -->
<g id="node3" class="node">
<title>Node3</title>
<g id="a_node3"><a xlink:href="classReaktoro_1_1ThermoScalarBase.html" target="_top" xlink:title=" ">
<polygon fill="white" stroke="black" points="37,-146.5 37,-165.5 114,-165.5 114,-146.5 37,-146.5"/>
<text text-anchor="middle" x="75.5" y="-153.5" font-family="Helvetica,sans-Serif" font-size="10.00">ThermoScalar</text>
</a>
</g>
</g>
<!-- Node3&#45;&gt;Node2 -->
<g id="edge2" class="edge">
<title>Node3&#45;&gt;Node2</title>
<path fill="none" stroke="midnightblue" d="M64.93,-137.56C57.19,-124.78 46.99,-107.96 40.86,-97.84"/>
<polygon fill="midnightblue" stroke="midnightblue" points="62.09,-139.63 70.27,-146.37 68.08,-136.01 62.09,-139.63"/>
</g>
<!-- Node4 -->
<g id="node4" class="node">
<title>Node4</title>
<g id="a_node4"><a xlink:href="classReaktoro_1_1Pressure.html" target="_top" xlink:title="A type that describes pressure in units of Pa.">
<polygon fill="white" stroke="black" points="89.5,-78.5 89.5,-97.5 145.5,-97.5 145.5,-78.5 89.5,-78.5"/>
<text text-anchor="middle" x="117.5" y="-85.5" font-family="Helvetica,sans-Serif" font-size="10.00">Pressure</text>
</a>
</g>
</g>
<!-- Node3&#45;&gt;Node4 -->
<g id="edge4" class="edge">
<title>Node3&#45;&gt;Node4</title>
<path fill="none" stroke="midnightblue" d="M86.6,-137.56C94.73,-124.78 105.43,-107.96 111.87,-97.84"/>
<polygon fill="midnightblue" stroke="midnightblue" points="83.41,-136.06 80.99,-146.37 89.31,-139.81 83.41,-136.06"/>
</g>
<!-- Node4&#45;&gt;Node1 -->
<g id="edge3" class="edge">
<title>Node4&#45;&gt;Node1</title>
<path fill="none" stroke="#9a32cd" stroke-dasharray="5,2" d="M117.5,-68.22C117.5,-52.7 117.5,-31.36 117.5,-19.62"/>
<polygon fill="#9a32cd" stroke="#9a32cd" points="114,-68.28 117.5,-78.28 121,-68.28 114,-68.28"/>
<text text-anchor="middle" x="122.5" y="-41" font-family="Helvetica,sans-Serif" font-size="10.00"> P</text>
</g>
<!-- Node5 -->
<g id="node5" class="node">
<title>Node5</title>
<g id="a_node5"><a xlink:href="classReaktoro_1_1ChemicalVectorBase.html" target="_top" xlink:title=" ">
<polygon fill="white" stroke="black" points="163.5,-67.5 163.5,-108.5 287.5,-108.5 287.5,-67.5 163.5,-67.5"/>
<text text-anchor="start" x="171.5" y="-96.5" font-family="Helvetica,sans-Serif" font-size="10.00">ChemicalVectorBase</text>
<text text-anchor="start" x="171.5" y="-85.5" font-family="Helvetica,sans-Serif" font-size="10.00">&lt; Vector, Vector, Vector,</text>
<text text-anchor="middle" x="225.5" y="-74.5" font-family="Helvetica,sans-Serif" font-size="10.00"> Matrix &gt;</text>
</a>
</g>
</g>
<!-- Node5&#45;&gt;Node1 -->
<g id="edge5" class="edge">
<title>Node5&#45;&gt;Node1</title>
<path fill="none" stroke="#9a32cd" stroke-dasharray="5,2" d="M189.4,-61.59C168.7,-47.03 144.05,-29.69 129.65,-19.55"/>
<polygon fill="#9a32cd" stroke="#9a32cd" points="187.49,-64.54 197.69,-67.43 191.52,-58.81 187.49,-64.54"/>
<text text-anchor="middle" x="176" y="-41" font-family="Helvetica,sans-Serif" font-size="10.00"> x</text>
</g>
</g>
</svg>
