<?xml version="1.0" encoding="UTF-8" standalone="no"?>
<!DOCTYPE svg PUBLIC "-//W3C//DTD SVG 1.1//EN"
 "http://www.w3.org/Graphics/SVG/1.1/DTD/svg11.dtd">
<!-- Generated by graphviz version 2.42.3 (20191010.1750)
 -->
<!-- Title: ChemicalVectorBase&lt; V, T, P, N &gt; Pages: 1 -->
<svg width="178pt" height="106pt"
 viewBox="0.00 0.00 178.00 106.00" xmlns="http://www.w3.org/2000/svg" xmlns:xlink="http://www.w3.org/1999/xlink">
<g id="graph0" class="graph" transform="scale(1 1) rotate(0) translate(4 102)">
<title>ChemicalVectorBase&lt; V, T, P, N &gt;</title>
<polygon fill="white" stroke="transparent" points="-4,4 -4,-102 174,-102 174,4 -4,4"/>
<!-- Node1 -->
<g id="node1" class="node">
<title>Node1</title>
<polygon fill="#bfbfbf" stroke="black" points="30,-0.5 30,-30.5 139,-30.5 139,-0.5 30,-0.5"/>
<text text-anchor="start" x="38" y="-18.5" font-family="Helvetica,sans-Serif" font-size="10.00">ChemicalVectorBase</text>
<text text-anchor="middle" x="84.5" y="-7.5" font-family="Helvetica,sans-Serif" font-size="10.00">&lt; V, T, P, N &gt;</text>
</g>
<!-- Node2 -->
<g id="node2" class="node">
<title>Node2</title>
<polygon fill="white" stroke="#bfbfbf" points="0,-78.5 0,-97.5 29,-97.5 29,-78.5 0,-78.5"/>
<text text-anchor="middle" x="14.5" y="-85.5" font-family="Helvetica,sans-Serif" font-size="10.00">V</text>
</g>
<!-- Node2&#45;&gt;Node1 -->
<g id="edge1" class="edge">
<title>Node2&#45;&gt;Node1</title>
<path fill="none" stroke="#9a32cd" stroke-dasharray="5,2" d="M26.7,-69.92C31.88,-63.13 38.17,-55.42 44.5,-49 50.91,-42.5 58.56,-36.02 65.45,-30.58"/>
<polygon fill="#9a32cd" stroke="#9a32cd" points="23.56,-68.28 20.44,-78.41 29.2,-72.44 23.56,-68.28"/>
<text text-anchor="middle" x="52.5" y="-52" font-family="Helvetica,sans-Serif" font-size="10.00"> val</text>
</g>
<!-- Node3 -->
<g id="node3" class="node">
<title>Node3</title>
<polygon fill="white" stroke="#bfbfbf" points="47,-78.5 47,-97.5 76,-97.5 76,-78.5 47,-78.5"/>
<text text-anchor="middle" x="61.5" y="-85.5" font-family="Helvetica,sans-Serif" font-size="10.00">N</text>
</g>
<!-- Node3&#45;&gt;Node1 -->
<g id="edge2" class="edge">
<title>Node3&#45;&gt;Node1</title>
<path fill="none" stroke="#9a32cd" stroke-dasharray="5,2" d="M63.24,-68.21C64.13,-61.99 65.48,-55.1 67.5,-49 69.58,-42.71 72.77,-36.17 75.84,-30.62"/>
<polygon fill="#9a32cd" stroke="#9a32cd" points="59.73,-68.02 62.06,-78.36 66.69,-68.83 59.73,-68.02"/>
<text text-anchor="middle" x="77" y="-52" font-family="Helvetica,sans-Serif" font-size="10.00"> ddn</text>
</g>
<!-- Node4 -->
<g id="node4" class="node">
<title>Node4</title>
<polygon fill="white" stroke="#bfbfbf" points="94,-78.5 94,-97.5 123,-97.5 123,-78.5 94,-78.5"/>
<text text-anchor="middle" x="108.5" y="-85.5" font-family="Helvetica,sans-Serif" font-size="10.00">P</text>
</g>
<!-- Node4&#45;&gt;Node1 -->
<g id="edge3" class="edge">
<title>Node4&#45;&gt;Node1</title>
<path fill="none" stroke="#9a32cd" stroke-dasharray="5,2" d="M102.24,-68.6C98.19,-56.72 93.01,-41.49 89.29,-30.58"/>
<polygon fill="#9a32cd" stroke="#9a32cd" points="99.02,-70.02 105.56,-78.36 105.65,-67.76 99.02,-70.02"/>
<text text-anchor="middle" x="109" y="-52" font-family="Helvetica,sans-Serif" font-size="10.00"> ddP</text>
</g>
<!-- Node5 -->
<g id="node5" class="node">
<title>Node5</title>
<polygon fill="white" stroke="#bfbfbf" points="141,-78.5 141,-97.5 170,-97.5 170,-78.5 141,-78.5"/>
<text text-anchor="middle" x="155.5" y="-85.5" font-family="Helvetica,sans-Serif" font-size="10.00">T</text>
</g>
<!-- Node5&#45;&gt;Node1 -->
<g id="edge4" class="edge">
<title>Node5&#45;&gt;Node1</title>
<path fill="none" stroke="#9a32cd" stroke-dasharray="5,2" d="M142.66,-70.49C137.04,-63.6 130.21,-55.67 123.5,-49 117.13,-42.66 109.64,-36.21 102.94,-30.75"/>
<polygon fill="#9a32cd" stroke="#9a32cd" points="140.06,-72.84 149.03,-78.48 145.54,-68.48 140.06,-72.84"/>
<text text-anchor="middle" x="143.5" y="-52" font-family="Helvetica,sans-Serif" font-size="10.00"> ddT</text>
</g>
</g>
</svg>
