<?xml version="1.0" encoding="UTF-8" standalone="no"?>
<!DOCTYPE svg PUBLIC "-//W3C//DTD SVG 1.1//EN"
 "http://www.w3.org/Graphics/SVG/1.1/DTD/svg11.dtd">
<!-- Generated by graphviz version 2.42.3 (20191010.1750)
 -->
<!-- Title: Species Pages: 1 -->
<svg width="291pt" height="84pt"
 viewBox="0.00 0.00 290.50 84.00" xmlns="http://www.w3.org/2000/svg" xmlns:xlink="http://www.w3.org/1999/xlink">
<g id="graph0" class="graph" transform="scale(1 1) rotate(0) translate(4 80)">
<title>Species</title>
<polygon fill="white" stroke="transparent" points="-4,4 -4,-80 286.5,-80 286.5,4 -4,4"/>
<!-- Node1 -->
<g id="node1" class="node">
<title>Node1</title>
<polygon fill="#bfbfbf" stroke="black" points="119,-56.5 119,-75.5 171,-75.5 171,-56.5 119,-56.5"/>
<text text-anchor="middle" x="145" y="-63.5" font-family="Helvetica,sans-Serif" font-size="10.00">Species</text>
</g>
<!-- Node2 -->
<g id="node2" class="node">
<title>Node2</title>
<g id="a_node2"><a xlink:href="classReaktoro_1_1AqueousSpecies.html" target="_top" xlink:title="A type to represent an aqueous species. ">
<polygon fill="white" stroke="black" points="0,-0.5 0,-19.5 90,-19.5 90,-0.5 0,-0.5"/>
<text text-anchor="middle" x="45" y="-7.5" font-family="Helvetica,sans-Serif" font-size="10.00">AqueousSpecies</text>
</a>
</g>
</g>
<!-- Node1&#45;&gt;Node2 -->
<g id="edge1" class="edge">
<title>Node1&#45;&gt;Node2</title>
<path fill="none" stroke="midnightblue" d="M119.91,-51.45C101.45,-41.48 76.9,-28.23 61.03,-19.65"/>
<polygon fill="midnightblue" stroke="midnightblue" points="118.47,-54.65 128.93,-56.32 121.8,-48.49 118.47,-54.65"/>
</g>
<!-- Node3 -->
<g id="node3" class="node">
<title>Node3</title>
<g id="a_node3"><a xlink:href="classReaktoro_1_1FluidSpecies.html" target="_top" xlink:title="A type to describe the attributes of a fluids (gaseous or liquid) species. ">
<polygon fill="white" stroke="black" points="108.5,-0.5 108.5,-19.5 181.5,-19.5 181.5,-0.5 108.5,-0.5"/>
<text text-anchor="middle" x="145" y="-7.5" font-family="Helvetica,sans-Serif" font-size="10.00">FluidSpecies</text>
</a>
</g>
</g>
<!-- Node1&#45;&gt;Node3 -->
<g id="edge2" class="edge">
<title>Node1&#45;&gt;Node3</title>
<path fill="none" stroke="midnightblue" d="M145,-45.8C145,-36.91 145,-26.78 145,-19.75"/>
<polygon fill="midnightblue" stroke="midnightblue" points="141.5,-46.08 145,-56.08 148.5,-46.08 141.5,-46.08"/>
</g>
<!-- Node4 -->
<g id="node4" class="node">
<title>Node4</title>
<g id="a_node4"><a xlink:href="classReaktoro_1_1MineralSpecies.html" target="_top" xlink:title="A type to describe the attributes of a mineral species. ">
<polygon fill="white" stroke="black" points="199.5,-0.5 199.5,-19.5 282.5,-19.5 282.5,-0.5 199.5,-0.5"/>
<text text-anchor="middle" x="241" y="-7.5" font-family="Helvetica,sans-Serif" font-size="10.00">MineralSpecies</text>
</a>
</g>
</g>
<!-- Node1&#45;&gt;Node4 -->
<g id="edge3" class="edge">
<title>Node1&#45;&gt;Node4</title>
<path fill="none" stroke="midnightblue" d="M169.57,-51.18C187.24,-41.24 210.51,-28.15 225.61,-19.65"/>
<polygon fill="midnightblue" stroke="midnightblue" points="167.42,-48.37 160.42,-56.32 170.86,-54.47 167.42,-48.37"/>
</g>
</g>
</svg>
