<?xml version="1.0" encoding="UTF-8" standalone="no"?>
<!DOCTYPE svg PUBLIC "-//W3C//DTD SVG 1.1//EN"
 "http://www.w3.org/Graphics/SVG/1.1/DTD/svg11.dtd">
<!-- Generated by graphviz version 2.42.3 (20191010.1750)
 -->
<!-- Title: OptimumSolverBase Pages: 1 -->
<svg width="284pt" height="332pt"
 viewBox="0.00 0.00 284.00 332.00" xmlns="http://www.w3.org/2000/svg" xmlns:xlink="http://www.w3.org/1999/xlink">
<g id="graph0" class="graph" transform="scale(1 1) rotate(0) translate(4 328)">
<title>OptimumSolverBase</title>
<polygon fill="white" stroke="transparent" points="-4,4 -4,-328 280,-328 280,4 -4,4"/>
<!-- Node1 -->
<g id="node1" class="node">
<title>Node1</title>
<g id="a_node1"><a xlink:title="The base class for all optimization algorithms.">
<polygon fill="#bfbfbf" stroke="black" points="0,-152.5 0,-171.5 107,-171.5 107,-152.5 0,-152.5"/>
<text text-anchor="middle" x="53.5" y="-159.5" font-family="Helvetica,sans-Serif" font-size="10.00">OptimumSolverBase</text>
</a>
</g>
</g>
<!-- Node2 -->
<g id="node2" class="node">
<title>Node2</title>
<g id="a_node2"><a xlink:href="classReaktoro_1_1OptimumSolverActNewton.html" target="_top" xlink:title="The class that implements the ActNewton algorithm using an active&#45;set strategy.">
<polygon fill="white" stroke="black" points="143,-304.5 143,-323.5 276,-323.5 276,-304.5 143,-304.5"/>
<text text-anchor="middle" x="209.5" y="-311.5" font-family="Helvetica,sans-Serif" font-size="10.00">OptimumSolverActNewton</text>
</a>
</g>
</g>
<!-- Node1&#45;&gt;Node2 -->
<g id="edge1" class="edge">
<title>Node1&#45;&gt;Node2</title>
<path fill="none" stroke="midnightblue" d="M62.09,-181.15C74.57,-210.17 102.17,-265.04 143,-295 148.25,-298.85 154.27,-301.93 160.48,-304.38"/>
<polygon fill="midnightblue" stroke="midnightblue" points="65.24,-179.62 58.18,-171.73 58.78,-182.31 65.24,-179.62"/>
</g>
<!-- Node3 -->
<g id="node3" class="node">
<title>Node3</title>
<g id="a_node3"><a xlink:href="classReaktoro_1_1OptimumSolverIpAction.html" target="_top" xlink:title="The class that implements the IpAction algorithm using an interior&#45;point method with a null&#45;space KKT...">
<polygon fill="white" stroke="black" points="149.5,-266.5 149.5,-285.5 269.5,-285.5 269.5,-266.5 149.5,-266.5"/>
<text text-anchor="middle" x="209.5" y="-273.5" font-family="Helvetica,sans-Serif" font-size="10.00">OptimumSolverIpAction</text>
</a>
</g>
</g>
<!-- Node1&#45;&gt;Node3 -->
<g id="edge2" class="edge">
<title>Node1&#45;&gt;Node3</title>
<path fill="none" stroke="midnightblue" d="M66.53,-179.93C81.84,-201.36 110.24,-236.85 143,-257 149.25,-260.85 156.32,-263.94 163.44,-266.43"/>
<polygon fill="midnightblue" stroke="midnightblue" points="69.39,-177.9 60.8,-171.69 63.64,-181.9 69.39,-177.9"/>
</g>
<!-- Node4 -->
<g id="node4" class="node">
<title>Node4</title>
<g id="a_node4"><a xlink:href="classReaktoro_1_1OptimumSolverIpActive.html" target="_top" xlink:title="The class that implements the IpActive algorithm using an interior&#45;point method combined with an acti...">
<polygon fill="white" stroke="black" points="149.5,-228.5 149.5,-247.5 269.5,-247.5 269.5,-228.5 149.5,-228.5"/>
<text text-anchor="middle" x="209.5" y="-235.5" font-family="Helvetica,sans-Serif" font-size="10.00">OptimumSolverIpActive</text>
</a>
</g>
</g>
<!-- Node1&#45;&gt;Node4 -->
<g id="edge3" class="edge">
<title>Node1&#45;&gt;Node4</title>
<path fill="none" stroke="midnightblue" d="M74.96,-177.63C92.29,-190.25 118.21,-207.71 143,-219 151.08,-222.68 160.05,-225.83 168.69,-228.46"/>
<polygon fill="midnightblue" stroke="midnightblue" points="76.85,-174.67 66.73,-171.53 72.68,-180.3 76.85,-174.67"/>
</g>
<!-- Node5 -->
<g id="node5" class="node">
<title>Node5</title>
<g id="a_node5"><a xlink:href="classReaktoro_1_1OptimumSolverIpBounds.html" target="_top" xlink:title="The class that implements the IpBounds algorithm using an interior&#45;point method.">
<polygon fill="white" stroke="black" points="147,-190.5 147,-209.5 272,-209.5 272,-190.5 147,-190.5"/>
<text text-anchor="middle" x="209.5" y="-197.5" font-family="Helvetica,sans-Serif" font-size="10.00">OptimumSolverIpBounds</text>
</a>
</g>
</g>
<!-- Node1&#45;&gt;Node5 -->
<g id="edge4" class="edge">
<title>Node1&#45;&gt;Node5</title>
<path fill="none" stroke="midnightblue" d="M103.29,-174.04C124.81,-179.35 149.73,-185.5 169.92,-190.48"/>
<polygon fill="midnightblue" stroke="midnightblue" points="103.91,-170.59 93.36,-171.59 102.23,-177.38 103.91,-170.59"/>
</g>
<!-- Node6 -->
<g id="node6" class="node">
<title>Node6</title>
<g id="a_node6"><a xlink:href="classReaktoro_1_1OptimumSolverIpNewton.html" target="_top" xlink:title="The class that implements the IpNewton algorithm using an interior&#45;point method.">
<polygon fill="white" stroke="black" points="146.5,-152.5 146.5,-171.5 272.5,-171.5 272.5,-152.5 146.5,-152.5"/>
<text text-anchor="middle" x="209.5" y="-159.5" font-family="Helvetica,sans-Serif" font-size="10.00">OptimumSolverIpNewton</text>
</a>
</g>
</g>
<!-- Node1&#45;&gt;Node6 -->
<g id="edge5" class="edge">
<title>Node1&#45;&gt;Node6</title>
<path fill="none" stroke="midnightblue" d="M117.31,-162C126.89,-162 136.77,-162 146.34,-162"/>
<polygon fill="midnightblue" stroke="midnightblue" points="117.07,-158.5 107.07,-162 117.07,-165.5 117.07,-158.5"/>
</g>
<!-- Node7 -->
<g id="node7" class="node">
<title>Node7</title>
<g id="a_node7"><a xlink:href="classReaktoro_1_1OptimumSolverIpOpt.html" target="_top" xlink:title="The class that implements the IpOpt algorithm using an interior&#45;point method.">
<polygon fill="white" stroke="black" points="155.5,-114.5 155.5,-133.5 263.5,-133.5 263.5,-114.5 155.5,-114.5"/>
<text text-anchor="middle" x="209.5" y="-121.5" font-family="Helvetica,sans-Serif" font-size="10.00">OptimumSolverIpOpt</text>
</a>
</g>
</g>
<!-- Node1&#45;&gt;Node7 -->
<g id="edge6" class="edge">
<title>Node1&#45;&gt;Node7</title>
<path fill="none" stroke="midnightblue" d="M103.29,-149.96C124.81,-144.65 149.73,-138.5 169.92,-133.52"/>
<polygon fill="midnightblue" stroke="midnightblue" points="102.23,-146.62 93.36,-152.41 103.91,-153.41 102.23,-146.62"/>
</g>
<!-- Node8 -->
<g id="node8" class="node">
<title>Node8</title>
<g id="a_node8"><a xlink:href="classReaktoro_1_1OptimumSolverKarpov.html" target="_top" xlink:title="The class that implements an optimization algorithm based on Karpov&#39;s method.">
<polygon fill="white" stroke="black" points="152,-76.5 152,-95.5 267,-95.5 267,-76.5 152,-76.5"/>
<text text-anchor="middle" x="209.5" y="-83.5" font-family="Helvetica,sans-Serif" font-size="10.00">OptimumSolverKarpov</text>
</a>
</g>
</g>
<!-- Node1&#45;&gt;Node8 -->
<g id="edge7" class="edge">
<title>Node1&#45;&gt;Node8</title>
<path fill="none" stroke="midnightblue" d="M74.96,-146.37C92.29,-133.75 118.21,-116.29 143,-105 151.08,-101.32 160.05,-98.17 168.69,-95.54"/>
<polygon fill="midnightblue" stroke="midnightblue" points="72.68,-143.7 66.73,-152.47 76.85,-149.33 72.68,-143.7"/>
</g>
<!-- Node9 -->
<g id="node9" class="node">
<title>Node9</title>
<g id="a_node9"><a xlink:href="classReaktoro_1_1OptimumSolverRefiner.html" target="_top" xlink:title="The class that implements a refinement operation of the optimal solution.">
<polygon fill="white" stroke="black" points="151.5,-38.5 151.5,-57.5 267.5,-57.5 267.5,-38.5 151.5,-38.5"/>
<text text-anchor="middle" x="209.5" y="-45.5" font-family="Helvetica,sans-Serif" font-size="10.00">OptimumSolverRefiner</text>
</a>
</g>
</g>
<!-- Node1&#45;&gt;Node9 -->
<g id="edge8" class="edge">
<title>Node1&#45;&gt;Node9</title>
<path fill="none" stroke="midnightblue" d="M66.53,-144.07C81.84,-122.64 110.24,-87.15 143,-67 149.25,-63.15 156.32,-60.06 163.44,-57.57"/>
<polygon fill="midnightblue" stroke="midnightblue" points="63.64,-142.1 60.8,-152.31 69.39,-146.1 63.64,-142.1"/>
</g>
<!-- Node10 -->
<g id="node10" class="node">
<title>Node10</title>
<g id="a_node10"><a xlink:href="classReaktoro_1_1OptimumSolverSimplex.html" target="_top" xlink:title="The class that implements the simplex algorithm for linear programming problems.">
<polygon fill="white" stroke="black" points="150,-0.5 150,-19.5 269,-19.5 269,-0.5 150,-0.5"/>
<text text-anchor="middle" x="209.5" y="-7.5" font-family="Helvetica,sans-Serif" font-size="10.00">OptimumSolverSimplex</text>
</a>
</g>
</g>
<!-- Node1&#45;&gt;Node10 -->
<g id="edge9" class="edge">
<title>Node1&#45;&gt;Node10</title>
<path fill="none" stroke="midnightblue" d="M62.09,-142.85C74.57,-113.83 102.17,-58.96 143,-29 148.25,-25.15 154.27,-22.07 160.48,-19.62"/>
<polygon fill="midnightblue" stroke="midnightblue" points="58.78,-141.69 58.18,-152.27 65.24,-144.38 58.78,-141.69"/>
</g>
</g>
</svg>
