<?xml version="1.0" encoding="UTF-8" standalone="no"?>
<!DOCTYPE svg PUBLIC "-//W3C//DTD SVG 1.1//EN"
 "http://www.w3.org/Graphics/SVG/1.1/DTD/svg11.dtd">
<!-- Generated by graphviz version 2.42.3 (20191010.1750)
 -->
<!-- Title: Reaktoro Pages: 1 -->
<svg width="976pt" height="76pt"
 viewBox="0.00 0.00 976.00 76.00" xmlns="http://www.w3.org/2000/svg" xmlns:xlink="http://www.w3.org/1999/xlink">
<g id="graph0" class="graph" transform="scale(1 1) rotate(0) translate(4 72)">
<title>Reaktoro</title>
<polygon fill="white" stroke="transparent" points="-4,4 -4,-72 972,-72 972,4 -4,4"/>
<g id="clust1" class="cluster">
<title>clusterdir_7f606fa4bc9fbc9cb574557b93f271bc</title>
<g id="a_clust1"><a xlink:href="dir_7f606fa4bc9fbc9cb574557b93f271bc.html" target="_top">
<polygon fill="#eeeeff" stroke="black" points="8,-8 8,-60 960,-60 960,-8 8,-8"/>
</a>
</g>
</g>
<!-- dir_7f606fa4bc9fbc9cb574557b93f271bc -->
<g id="node1" class="node">
<title>dir_7f606fa4bc9fbc9cb574557b93f271bc</title>
<text text-anchor="middle" x="924" y="-31.5" font-family="Helvetica,sans-Serif" font-size="10.00">Reaktoro</text>
</g>
<!-- dir_073ab72d94288249d36a464ce16e898e -->
<g id="node2" class="node">
<title>dir_073ab72d94288249d36a464ce16e898e</title>
<g id="a_node2"><a xlink:href="dir_073ab72d94288249d36a464ce16e898e.html" target="_top" xlink:title="Common">
<polygon fill="white" stroke="black" points="878,-52 822,-52 822,-16 878,-16 878,-52"/>
<text text-anchor="middle" x="850" y="-31.5" font-family="Helvetica,sans-Serif" font-size="10.00">Common</text>
</a>
</g>
</g>
<!-- dir_40f7a331fa57ede113f04b4f6ae174d6 -->
<g id="node3" class="node">
<title>dir_40f7a331fa57ede113f04b4f6ae174d6</title>
<g id="a_node3"><a xlink:href="dir_40f7a331fa57ede113f04b4f6ae174d6.html" target="_top" xlink:title="Core">
<polygon fill="white" stroke="black" points="804,-52 750,-52 750,-16 804,-16 804,-52"/>
<text text-anchor="middle" x="777" y="-31.5" font-family="Helvetica,sans-Serif" font-size="10.00">Core</text>
</a>
</g>
</g>
<!-- dir_59614f06c99166e40dc8c30a673b006d -->
<g id="node4" class="node">
<title>dir_59614f06c99166e40dc8c30a673b006d</title>
<g id="a_node4"><a xlink:href="dir_59614f06c99166e40dc8c30a673b006d.html" target="_top" xlink:title="Equilibrium">
<polygon fill="white" stroke="black" points="731.5,-52 666.5,-52 666.5,-16 731.5,-16 731.5,-52"/>
<text text-anchor="middle" x="699" y="-31.5" font-family="Helvetica,sans-Serif" font-size="10.00">Equilibrium</text>
</a>
</g>
</g>
<!-- dir_23e5bc6f939a88818a1741828858b724 -->
<g id="node5" class="node">
<title>dir_23e5bc6f939a88818a1741828858b724</title>
<g id="a_node5"><a xlink:href="dir_23e5bc6f939a88818a1741828858b724.html" target="_top" xlink:title="Interfaces">
<polygon fill="white" stroke="black" points="648,-52 588,-52 588,-16 648,-16 648,-52"/>
<text text-anchor="middle" x="618" y="-31.5" font-family="Helvetica,sans-Serif" font-size="10.00">Interfaces</text>
</a>
</g>
</g>
<!-- dir_848844a25327a3d160a59d87e6b5b6c6 -->
<g id="node6" class="node">
<title>dir_848844a25327a3d160a59d87e6b5b6c6</title>
<g id="a_node6"><a xlink:href="dir_848844a25327a3d160a59d87e6b5b6c6.html" target="_top" xlink:title="Interpreter">
<polygon fill="white" stroke="black" points="569.5,-52 508.5,-52 508.5,-16 569.5,-16 569.5,-52"/>
<text text-anchor="middle" x="539" y="-31.5" font-family="Helvetica,sans-Serif" font-size="10.00">Interpreter</text>
</a>
</g>
</g>
<!-- dir_ca45723808699ee64c6d36ec9b64a987 -->
<g id="node7" class="node">
<title>dir_ca45723808699ee64c6d36ec9b64a987</title>
<g id="a_node7"><a xlink:href="dir_ca45723808699ee64c6d36ec9b64a987.html" target="_top" xlink:title="Kinetics">
<polygon fill="white" stroke="black" points="490,-52 436,-52 436,-16 490,-16 490,-52"/>
<text text-anchor="middle" x="463" y="-31.5" font-family="Helvetica,sans-Serif" font-size="10.00">Kinetics</text>
</a>
</g>
</g>
<!-- dir_756fc5f2fa82274e75539d1842f38d38 -->
<g id="node8" class="node">
<title>dir_756fc5f2fa82274e75539d1842f38d38</title>
<g id="a_node8"><a xlink:href="dir_756fc5f2fa82274e75539d1842f38d38.html" target="_top" xlink:title="Math">
<polygon fill="white" stroke="black" points="418,-52 364,-52 364,-16 418,-16 418,-52"/>
<text text-anchor="middle" x="391" y="-31.5" font-family="Helvetica,sans-Serif" font-size="10.00">Math</text>
</a>
</g>
</g>
<!-- dir_2b0278131da00e90efa9b09a40b72027 -->
<g id="node9" class="node">
<title>dir_2b0278131da00e90efa9b09a40b72027</title>
<g id="a_node9"><a xlink:href="dir_2b0278131da00e90efa9b09a40b72027.html" target="_top" xlink:title="Optimization">
<polygon fill="white" stroke="black" points="345.5,-52 274.5,-52 274.5,-16 345.5,-16 345.5,-52"/>
<text text-anchor="middle" x="310" y="-31.5" font-family="Helvetica,sans-Serif" font-size="10.00">Optimization</text>
</a>
</g>
</g>
<!-- dir_592bc68fdfb907aac13583b5016631a1 -->
<g id="node10" class="node">
<title>dir_592bc68fdfb907aac13583b5016631a1</title>
<g id="a_node10"><a xlink:href="dir_592bc68fdfb907aac13583b5016631a1.html" target="_top" xlink:title="Thermodynamics">
<polygon fill="white" stroke="red" points="256,-52 164,-52 164,-16 256,-16 256,-52"/>
<text text-anchor="middle" x="210" y="-31.5" font-family="Helvetica,sans-Serif" font-size="10.00">Thermodynamics</text>
</a>
</g>
</g>
<!-- dir_499e3f713b5bf1b89a8b1355ccc08740 -->
<g id="node11" class="node">
<title>dir_499e3f713b5bf1b89a8b1355ccc08740</title>
<g id="a_node11"><a xlink:href="dir_499e3f713b5bf1b89a8b1355ccc08740.html" target="_top" xlink:title="Transport">
<polygon fill="white" stroke="black" points="146,-52 88,-52 88,-16 146,-16 146,-52"/>
<text text-anchor="middle" x="117" y="-31.5" font-family="Helvetica,sans-Serif" font-size="10.00">Transport</text>
</a>
</g>
</g>
<!-- dir_1ad891e302f1ba18d95d6b93bbc21942 -->
<g id="node12" class="node">
<title>dir_1ad891e302f1ba18d95d6b93bbc21942</title>
<g id="a_node12"><a xlink:href="dir_1ad891e302f1ba18d95d6b93bbc21942.html" target="_top" xlink:title="Util">
<polygon fill="white" stroke="black" points="70,-52 16,-52 16,-16 70,-16 70,-52"/>
<text text-anchor="middle" x="43" y="-31.5" font-family="Helvetica,sans-Serif" font-size="10.00">Util</text>
</a>
</g>
</g>
</g>
</svg>
