<?xml version="1.0" encoding="UTF-8" standalone="no"?>
<!DOCTYPE svg PUBLIC "-//W3C//DTD SVG 1.1//EN"
 "http://www.w3.org/Graphics/SVG/1.1/DTD/svg11.dtd">
<!-- Generated by graphviz version 2.42.3 (20191010.1750)
 -->
<!-- Title: Reaktoro/Thermodynamics Pages: 1 -->
<svg width="960pt" height="111pt"
 viewBox="0.00 0.00 960.00 111.00" xmlns="http://www.w3.org/2000/svg" xmlns:xlink="http://www.w3.org/1999/xlink">
<g id="graph0" class="graph" transform="scale(1 1) rotate(0) translate(4 107)">
<title>Reaktoro/Thermodynamics</title>
<polygon fill="white" stroke="transparent" points="-4,4 -4,-107 956,-107 956,4 -4,4"/>
<g id="clust1" class="cluster">
<title>clusterdir_7f606fa4bc9fbc9cb574557b93f271bc</title>
<g id="a_clust1"><a xlink:href="dir_7f606fa4bc9fbc9cb574557b93f271bc.html" target="_top" xlink:title="Reaktoro">
<polygon fill="#ddddee" stroke="black" points="8,-8 8,-95 944,-95 944,-8 8,-8"/>
<text text-anchor="middle" x="476" y="-83" font-family="Helvetica,sans-Serif" font-size="10.00">Reaktoro</text>
</a>
</g>
</g>
<g id="clust2" class="cluster">
<title>clusterdir_592bc68fdfb907aac13583b5016631a1</title>
<g id="a_clust2"><a xlink:href="dir_592bc68fdfb907aac13583b5016631a1.html" target="_top">
<polygon fill="#eeeeff" stroke="black" points="16,-16 16,-68 936,-68 936,-16 16,-16"/>
</a>
</g>
</g>
<!-- dir_592bc68fdfb907aac13583b5016631a1 -->
<g id="node1" class="node">
<title>dir_592bc68fdfb907aac13583b5016631a1</title>
<text text-anchor="middle" x="882" y="-39.5" font-family="Helvetica,sans-Serif" font-size="10.00">Thermodynamics</text>
</g>
<!-- dir_22c1acfc8de650a01c04e9ae9c44900f -->
<g id="node2" class="node">
<title>dir_22c1acfc8de650a01c04e9ae9c44900f</title>
<g id="a_node2"><a xlink:href="dir_22c1acfc8de650a01c04e9ae9c44900f.html" target="_top" xlink:title="Activity">
<polygon fill="white" stroke="black" points="818,-60 764,-60 764,-24 818,-24 818,-60"/>
<text text-anchor="middle" x="791" y="-39.5" font-family="Helvetica,sans-Serif" font-size="10.00">Activity</text>
</a>
</g>
</g>
<!-- dir_11829437b30a7ab97b9ba54c62180f20 -->
<g id="node3" class="node">
<title>dir_11829437b30a7ab97b9ba54c62180f20</title>
<g id="a_node3"><a xlink:href="dir_11829437b30a7ab97b9ba54c62180f20.html" target="_top" xlink:title="Common">
<polygon fill="white" stroke="black" points="746,-60 690,-60 690,-24 746,-24 746,-60"/>
<text text-anchor="middle" x="718" y="-39.5" font-family="Helvetica,sans-Serif" font-size="10.00">Common</text>
</a>
</g>
</g>
<!-- dir_6a4be1a861aa1decde32c36c5021bfe7 -->
<g id="node4" class="node">
<title>dir_6a4be1a861aa1decde32c36c5021bfe7</title>
<g id="a_node4"><a xlink:href="dir_6a4be1a861aa1decde32c36c5021bfe7.html" target="_top" xlink:title="Core">
<polygon fill="white" stroke="black" points="672,-60 618,-60 618,-24 672,-24 672,-60"/>
<text text-anchor="middle" x="645" y="-39.5" font-family="Helvetica,sans-Serif" font-size="10.00">Core</text>
</a>
</g>
</g>
<!-- dir_3f2a39bc7c7b428f03d203a67a902635 -->
<g id="node5" class="node">
<title>dir_3f2a39bc7c7b428f03d203a67a902635</title>
<g id="a_node5"><a xlink:href="dir_3f2a39bc7c7b428f03d203a67a902635.html" target="_top" xlink:title="Databases">
<polygon fill="white" stroke="black" points="600,-60 536,-60 536,-24 600,-24 600,-60"/>
<text text-anchor="middle" x="568" y="-39.5" font-family="Helvetica,sans-Serif" font-size="10.00">Databases</text>
</a>
</g>
</g>
<!-- dir_ad1890d2c1ff01471934ada29fcf32d9 -->
<g id="node6" class="node">
<title>dir_ad1890d2c1ff01471934ada29fcf32d9</title>
<g id="a_node6"><a xlink:href="dir_ad1890d2c1ff01471934ada29fcf32d9.html" target="_top" xlink:title="EOS">
<polygon fill="white" stroke="black" points="518,-60 464,-60 464,-24 518,-24 518,-60"/>
<text text-anchor="middle" x="491" y="-39.5" font-family="Helvetica,sans-Serif" font-size="10.00">EOS</text>
</a>
</g>
</g>
<!-- dir_176ce55e34691a31c4d89acf2401a66f -->
<g id="node7" class="node">
<title>dir_176ce55e34691a31c4d89acf2401a66f</title>
<g id="a_node7"><a xlink:href="dir_176ce55e34691a31c4d89acf2401a66f.html" target="_top" xlink:title="Mixtures">
<polygon fill="white" stroke="black" points="446,-60 392,-60 392,-24 446,-24 446,-60"/>
<text text-anchor="middle" x="419" y="-39.5" font-family="Helvetica,sans-Serif" font-size="10.00">Mixtures</text>
</a>
</g>
</g>
<!-- dir_4979f168b3ba2835c9456c5afdfaf920 -->
<g id="node8" class="node">
<title>dir_4979f168b3ba2835c9456c5afdfaf920</title>
<g id="a_node8"><a xlink:href="dir_4979f168b3ba2835c9456c5afdfaf920.html" target="_top" xlink:title="Models">
<polygon fill="white" stroke="black" points="374,-60 320,-60 320,-24 374,-24 374,-60"/>
<text text-anchor="middle" x="347" y="-39.5" font-family="Helvetica,sans-Serif" font-size="10.00">Models</text>
</a>
</g>
</g>
<!-- dir_86dbb95664c152a40ed3b2da60015f6d -->
<g id="node9" class="node">
<title>dir_86dbb95664c152a40ed3b2da60015f6d</title>
<g id="a_node9"><a xlink:href="dir_86dbb95664c152a40ed3b2da60015f6d.html" target="_top" xlink:title="Phases">
<polygon fill="white" stroke="black" points="302,-60 248,-60 248,-24 302,-24 302,-60"/>
<text text-anchor="middle" x="275" y="-39.5" font-family="Helvetica,sans-Serif" font-size="10.00">Phases</text>
</a>
</g>
</g>
<!-- dir_485d3157f95d0874b21c7d901311b35c -->
<g id="node10" class="node">
<title>dir_485d3157f95d0874b21c7d901311b35c</title>
<g id="a_node10"><a xlink:href="dir_485d3157f95d0874b21c7d901311b35c.html" target="_top" xlink:title="Reactions">
<polygon fill="white" stroke="black" points="229.5,-60 168.5,-60 168.5,-24 229.5,-24 229.5,-60"/>
<text text-anchor="middle" x="199" y="-39.5" font-family="Helvetica,sans-Serif" font-size="10.00">Reactions</text>
</a>
</g>
</g>
<!-- dir_242608ff6ccac9cc6bcce32c550a85fe -->
<g id="node11" class="node">
<title>dir_242608ff6ccac9cc6bcce32c550a85fe</title>
<g id="a_node11"><a xlink:href="dir_242608ff6ccac9cc6bcce32c550a85fe.html" target="_top" xlink:title="Species">
<polygon fill="white" stroke="black" points="150,-60 96,-60 96,-24 150,-24 150,-60"/>
<text text-anchor="middle" x="123" y="-39.5" font-family="Helvetica,sans-Serif" font-size="10.00">Species</text>
</a>
</g>
</g>
<!-- dir_407036d1f6ef5ac1c2e56b9357319fcb -->
<g id="node12" class="node">
<title>dir_407036d1f6ef5ac1c2e56b9357319fcb</title>
<g id="a_node12"><a xlink:href="dir_407036d1f6ef5ac1c2e56b9357319fcb.html" target="_top" xlink:title="Water">
<polygon fill="white" stroke="black" points="78,-60 24,-60 24,-24 78,-24 78,-60"/>
<text text-anchor="middle" x="51" y="-39.5" font-family="Helvetica,sans-Serif" font-size="10.00">Water</text>
</a>
</g>
</g>
</g>
</svg>
