<?xml version="1.0" encoding="UTF-8" standalone="no"?>
<!DOCTYPE svg PUBLIC "-//W3C//DTD SVG 1.1//EN"
 "http://www.w3.org/Graphics/SVG/1.1/DTD/svg11.dtd">
<!-- Generated by graphviz version 2.42.3 (20191010.1750)
 -->
<!-- Title: AqueousOptions Pages: 1 -->
<svg width="149pt" height="95pt"
 viewBox="0.00 0.00 148.50 95.00" xmlns="http://www.w3.org/2000/svg" xmlns:xlink="http://www.w3.org/1999/xlink">
<g id="graph0" class="graph" transform="scale(1 1) rotate(0) translate(4 91)">
<title>AqueousOptions</title>
<polygon fill="white" stroke="transparent" points="-4,4 -4,-91 144.5,-91 144.5,4 -4,4"/>
<!-- Node1 -->
<g id="node1" class="node">
<title>Node1</title>
<polygon fill="#bfbfbf" stroke="black" points="11,-0.5 11,-19.5 100,-19.5 100,-0.5 11,-0.5"/>
<text text-anchor="middle" x="55.5" y="-7.5" font-family="Helvetica,sans-Serif" font-size="10.00">AqueousOptions</text>
</g>
<!-- Node2 -->
<g id="node2" class="node">
<title>Node2</title>
<g id="a_node2"><a xlink:href="structReaktoro_1_1global_1_1AqueousOptions_1_1HKF.html" target="_top" xlink:title="A type used to describe all options related to HKF model. ">
<polygon fill="white" stroke="black" points="0,-67.5 0,-86.5 37,-86.5 37,-67.5 0,-67.5"/>
<text text-anchor="middle" x="18.5" y="-74.5" font-family="Helvetica,sans-Serif" font-size="10.00">HKF</text>
</a>
</g>
</g>
<!-- Node2&#45;&gt;Node1 -->
<g id="edge1" class="edge">
<title>Node2&#45;&gt;Node1</title>
<path fill="none" stroke="#9a32cd" stroke-dasharray="5,2" d="M28.44,-58.53C35.61,-45.95 44.97,-29.51 50.59,-19.63"/>
<polygon fill="#9a32cd" stroke="#9a32cd" points="25.4,-56.81 23.49,-67.23 31.48,-60.27 25.4,-56.81"/>
<text text-anchor="middle" x="48" y="-41" font-family="Helvetica,sans-Serif" font-size="10.00"> hkf</text>
</g>
<!-- Node3 -->
<g id="node3" class="node">
<title>Node3</title>
<g id="a_node3"><a xlink:href="structReaktoro_1_1global_1_1AqueousOptions_1_1DebyeHuckel.html" target="_top" xlink:title="A type used to describe all options related to Debye&#45;Huckel model. ">
<polygon fill="white" stroke="black" points="55.5,-67.5 55.5,-86.5 131.5,-86.5 131.5,-67.5 55.5,-67.5"/>
<text text-anchor="middle" x="93.5" y="-74.5" font-family="Helvetica,sans-Serif" font-size="10.00">DebyeHuckel</text>
</a>
</g>
</g>
<!-- Node3&#45;&gt;Node1 -->
<g id="edge2" class="edge">
<title>Node3&#45;&gt;Node1</title>
<path fill="none" stroke="#9a32cd" stroke-dasharray="5,2" d="M83.29,-58.53C75.93,-45.95 66.32,-29.51 60.54,-19.63"/>
<polygon fill="#9a32cd" stroke="#9a32cd" points="80.31,-60.37 88.38,-67.23 86.35,-56.83 80.31,-60.37"/>
<text text-anchor="middle" x="108.5" y="-41" font-family="Helvetica,sans-Serif" font-size="10.00"> debye_huckel</text>
</g>
</g>
</svg>
