<?xml version="1.0" encoding="UTF-8" standalone="no"?>
<!DOCTYPE svg PUBLIC "-//W3C//DTD SVG 1.1//EN"
 "http://www.w3.org/Graphics/SVG/1.1/DTD/svg11.dtd">
<!-- Generated by graphviz version 2.42.3 (20191010.1750)
 -->
<!-- Title: InterpolationOptions Pages: 1 -->
<svg width="214pt" height="163pt"
 viewBox="0.00 0.00 214.00 163.00" xmlns="http://www.w3.org/2000/svg" xmlns:xlink="http://www.w3.org/1999/xlink">
<g id="graph0" class="graph" transform="scale(1 1) rotate(0) translate(4 159)">
<title>InterpolationOptions</title>
<polygon fill="white" stroke="transparent" points="-4,4 -4,-159 210,-159 210,4 -4,4"/>
<!-- Node1 -->
<g id="node1" class="node">
<title>Node1</title>
<polygon fill="#bfbfbf" stroke="black" points="52,-0.5 52,-19.5 156,-19.5 156,-0.5 52,-0.5"/>
<text text-anchor="middle" x="104" y="-7.5" font-family="Helvetica,sans-Serif" font-size="10.00">InterpolationOptions</text>
</g>
<!-- Node2 -->
<g id="node2" class="node">
<title>Node2</title>
<g id="a_node2"><a xlink:title="STL class. ">
<polygon fill="white" stroke="#bfbfbf" points="32.5,-78.5 32.5,-97.5 73.5,-97.5 73.5,-78.5 32.5,-78.5"/>
<text text-anchor="middle" x="53" y="-85.5" font-family="Helvetica,sans-Serif" font-size="10.00">string</text>
</a>
</g>
</g>
<!-- Node2&#45;&gt;Node1 -->
<g id="edge1" class="edge">
<title>Node2&#45;&gt;Node1</title>
<path fill="none" stroke="#9a32cd" stroke-dasharray="5,2" d="M49.13,-68.42C48.1,-58.69 48.52,-46.97 54,-38 59.09,-29.66 67.72,-23.74 76.39,-19.6"/>
<polygon fill="#9a32cd" stroke="#9a32cd" points="45.67,-68.99 50.71,-78.31 52.58,-67.88 45.67,-68.99"/>
<text text-anchor="middle" x="93.5" y="-52" font-family="Helvetica,sans-Serif" font-size="10.00"> pressure_units</text>
<text text-anchor="middle" x="93.5" y="-41" font-family="Helvetica,sans-Serif" font-size="10.00">temperature_units</text>
</g>
<!-- Node3 -->
<g id="node3" class="node">
<title>Node3</title>
<g id="a_node3"><a xlink:title="STL class. ">
<polygon fill="white" stroke="#bfbfbf" points="0,-135.5 0,-154.5 106,-154.5 106,-135.5 0,-135.5"/>
<text text-anchor="middle" x="53" y="-142.5" font-family="Helvetica,sans-Serif" font-size="10.00">basic_string&lt; char &gt;</text>
</a>
</g>
</g>
<!-- Node3&#45;&gt;Node2 -->
<g id="edge2" class="edge">
<title>Node3&#45;&gt;Node2</title>
<path fill="none" stroke="midnightblue" d="M53,-125.12C53,-115.82 53,-105.06 53,-97.71"/>
<polygon fill="midnightblue" stroke="midnightblue" points="49.5,-125.41 53,-135.41 56.5,-125.41 49.5,-125.41"/>
</g>
<!-- Node4 -->
<g id="node4" class="node">
<title>Node4</title>
<polygon fill="white" stroke="#bfbfbf" points="110,-78.5 110,-97.5 200,-97.5 200,-78.5 110,-78.5"/>
<text text-anchor="middle" x="155" y="-85.5" font-family="Helvetica,sans-Serif" font-size="10.00">vector&lt; double &gt;</text>
</g>
<!-- Node4&#45;&gt;Node1 -->
<g id="edge3" class="edge">
<title>Node4&#45;&gt;Node1</title>
<path fill="none" stroke="#9a32cd" stroke-dasharray="5,2" d="M148.93,-69.05C145.18,-59.35 139.78,-47.46 133,-38 128.03,-31.07 121.07,-24.51 115.22,-19.6"/>
<polygon fill="#9a32cd" stroke="#9a32cd" points="145.65,-70.27 152.34,-78.49 152.24,-67.89 145.65,-70.27"/>
<text text-anchor="middle" x="175.5" y="-52" font-family="Helvetica,sans-Serif" font-size="10.00"> temperatures</text>
<text text-anchor="middle" x="175.5" y="-41" font-family="Helvetica,sans-Serif" font-size="10.00">pressures</text>
</g>
</g>
</svg>
