<?xml version="1.0" encoding="UTF-8" standalone="no"?>
<!DOCTYPE svg PUBLIC "-//W3C//DTD SVG 1.1//EN"
 "http://www.w3.org/Graphics/SVG/1.1/DTD/svg11.dtd">
<!-- Generated by graphviz version 2.48.0 (20210717.2242)
 -->
<!-- Title: OptimumOutputOptions Pages: 1 -->
<svg width="270pt" height="254pt"
 viewBox="0.00 0.00 269.76 254.00" xmlns="http://www.w3.org/2000/svg" xmlns:xlink="http://www.w3.org/1999/xlink">
<g id="graph0" class="graph" transform="scale(1 1) rotate(0) translate(4 250)">
<title>OptimumOutputOptions</title>
<polygon fill="white" stroke="transparent" points="-4,4 -4,-250 265.76,-250 265.76,4 -4,4"/>
<!-- Node1 -->
<g id="node1" class="node">
<title>Node1</title>
<g id="a_node1"><a xlink:title="A type that describes the options for the output of a optimisation calculation.">
<polygon fill="#bfbfbf" stroke="black" points="33.76,-0.5 33.76,-19.5 152.76,-19.5 152.76,-0.5 33.76,-0.5"/>
<text text-anchor="middle" x="93.26" y="-7.5" font-family="Helvetica,sans-Serif" font-size="10.00">OptimumOutputOptions</text>
</a>
</g>
</g>
<!-- Node2 -->
<g id="node2" class="node">
<title>Node2</title>
<g id="a_node2"><a xlink:href="structReaktoro_1_1OutputterOptions.html" target="_top" xlink:title=" ">
<polygon fill="white" stroke="black" points="47.76,-96 47.76,-115 138.76,-115 138.76,-96 47.76,-96"/>
<text text-anchor="middle" x="93.26" y="-103" font-family="Helvetica,sans-Serif" font-size="10.00">OutputterOptions</text>
</a>
</g>
</g>
<!-- Node2&#45;&gt;Node1 -->
<g id="edge1" class="edge">
<title>Node2&#45;&gt;Node1</title>
<path fill="none" stroke="midnightblue" d="M93.26,-85.74C93.26,-65.62 93.26,-34.55 93.26,-19.61"/>
<polygon fill="midnightblue" stroke="midnightblue" points="89.76,-85.87 93.26,-95.87 96.76,-85.87 89.76,-85.87"/>
</g>
<!-- Node3 -->
<g id="node3" class="node">
<title>Node3</title>
<g id="a_node3"><a xlink:title="STL class.">
<polygon fill="white" stroke="#bfbfbf" points="72.76,-169.5 72.76,-188.5 113.76,-188.5 113.76,-169.5 72.76,-169.5"/>
<text text-anchor="middle" x="93.26" y="-176.5" font-family="Helvetica,sans-Serif" font-size="10.00">string</text>
</a>
</g>
</g>
<!-- Node3&#45;&gt;Node1 -->
<g id="edge4" class="edge">
<title>Node3&#45;&gt;Node1</title>
<path fill="none" stroke="#9a32cd" stroke-dasharray="5,2" d="M62.98,-167.63C42.67,-158.91 17.47,-144.24 5.26,-122 -17.81,-79.96 45.33,-37.56 76.72,-19.74"/>
<polygon fill="#9a32cd" stroke="#9a32cd" points="61.9,-170.97 72.48,-171.44 64.51,-164.47 61.9,-170.97"/>
<text text-anchor="middle" x="21.76" y="-114" font-family="Helvetica,sans-Serif" font-size="10.00"> xprefix</text>
<text text-anchor="middle" x="21.76" y="-103" font-family="Helvetica,sans-Serif" font-size="10.00">yprefix</text>
<text text-anchor="middle" x="21.76" y="-92" font-family="Helvetica,sans-Serif" font-size="10.00">zprefix</text>
</g>
<!-- Node3&#45;&gt;Node2 -->
<g id="edge2" class="edge">
<title>Node3&#45;&gt;Node2</title>
<path fill="none" stroke="#9a32cd" stroke-dasharray="5,2" d="M93.26,-159.09C93.26,-144.93 93.26,-126.2 93.26,-115.34"/>
<polygon fill="#9a32cd" stroke="#9a32cd" points="89.76,-159.23 93.26,-169.23 96.76,-159.23 89.76,-159.23"/>
<text text-anchor="middle" x="115.26" y="-143" font-family="Helvetica,sans-Serif" font-size="10.00"> separator</text>
</g>
<!-- Node5 -->
<g id="node5" class="node">
<title>Node5</title>
<g id="a_node5"><a xlink:title=" ">
<polygon fill="white" stroke="#bfbfbf" points="156.76,-96 156.76,-115 261.76,-115 261.76,-96 156.76,-96"/>
<text text-anchor="middle" x="209.26" y="-103" font-family="Helvetica,sans-Serif" font-size="10.00">vector&lt; std::string &gt;</text>
</a>
</g>
</g>
<!-- Node3&#45;&gt;Node5 -->
<g id="edge6" class="edge">
<title>Node3&#45;&gt;Node5</title>
<path fill="none" stroke="#9a32cd" stroke-dasharray="5,2" d="M118.36,-164.3C125.79,-160.13 133.91,-155.47 141.26,-151 160.8,-139.13 182.84,-124.46 196.39,-115.29"/>
<polygon fill="#9a32cd" stroke="#9a32cd" points="116.46,-161.35 109.42,-169.27 119.86,-167.47 116.46,-161.35"/>
<text text-anchor="middle" x="179.76" y="-143" font-family="Helvetica,sans-Serif" font-size="10.00"> elements</text>
</g>
<!-- Node4 -->
<g id="node4" class="node">
<title>Node4</title>
<g id="a_node4"><a xlink:title="STL class.">
<polygon fill="white" stroke="#bfbfbf" points="40.26,-226.5 40.26,-245.5 146.26,-245.5 146.26,-226.5 40.26,-226.5"/>
<text text-anchor="middle" x="93.26" y="-233.5" font-family="Helvetica,sans-Serif" font-size="10.00">basic_string&lt; char &gt;</text>
</a>
</g>
</g>
<!-- Node4&#45;&gt;Node3 -->
<g id="edge3" class="edge">
<title>Node4&#45;&gt;Node3</title>
<path fill="none" stroke="midnightblue" d="M93.26,-216.12C93.26,-206.82 93.26,-196.06 93.26,-188.71"/>
<polygon fill="midnightblue" stroke="midnightblue" points="89.76,-216.41 93.26,-226.41 96.76,-216.41 89.76,-216.41"/>
</g>
<!-- Node5&#45;&gt;Node1 -->
<g id="edge5" class="edge">
<title>Node5&#45;&gt;Node1</title>
<path fill="none" stroke="#9a32cd" stroke-dasharray="5,2" d="M190.69,-89.53C166.14,-69.74 123.69,-35.53 103.94,-19.61"/>
<polygon fill="#9a32cd" stroke="#9a32cd" points="188.58,-92.32 198.56,-95.87 192.97,-86.87 188.58,-92.32"/>
<text text-anchor="middle" x="183.26" y="-63" font-family="Helvetica,sans-Serif" font-size="10.00"> xnames</text>
<text text-anchor="middle" x="183.26" y="-52" font-family="Helvetica,sans-Serif" font-size="10.00">ynames</text>
<text text-anchor="middle" x="183.26" y="-41" font-family="Helvetica,sans-Serif" font-size="10.00">znames</text>
</g>
</g>
</svg>
