<?xml version="1.0" encoding="UTF-8" standalone="no"?>
<!DOCTYPE svg PUBLIC "-//W3C//DTD SVG 1.1//EN"
 "http://www.w3.org/Graphics/SVG/1.1/DTD/svg11.dtd">
<!-- Generated by graphviz version 2.42.3 (20191010.1750)
 -->
<!-- Title: AqueousMixtureState Pages: 1 -->
<svg width="617pt" height="228pt"
 viewBox="0.00 0.00 617.00 227.50" xmlns="http://www.w3.org/2000/svg" xmlns:xlink="http://www.w3.org/1999/xlink">
<g id="graph0" class="graph" transform="scale(1 1) rotate(0) translate(4 223.5)">
<title>AqueousMixtureState</title>
<polygon fill="white" stroke="transparent" points="-4,4 -4,-223.5 613,-223.5 613,4 -4,4"/>
<!-- Node1 -->
<g id="node1" class="node">
<title>Node1</title>
<polygon fill="#bfbfbf" stroke="black" points="499,-73 499,-92 609,-92 609,-73 499,-73"/>
<text text-anchor="middle" x="554" y="-80" font-family="Helvetica,sans-Serif" font-size="10.00">AqueousMixtureState</text>
</g>
<!-- Node2 -->
<g id="node2" class="node">
<title>Node2</title>
<g id="a_node2"><a xlink:href="structReaktoro_1_1MixtureState.html" target="_top" xlink:title="A type used to describe the state of a mixture. ">
<polygon fill="white" stroke="black" points="323,-155 323,-174 395,-174 395,-155 323,-155"/>
<text text-anchor="middle" x="359" y="-162" font-family="Helvetica,sans-Serif" font-size="10.00">MixtureState</text>
</a>
</g>
</g>
<!-- Node2&#45;&gt;Node1 -->
<g id="edge1" class="edge">
<title>Node2&#45;&gt;Node1</title>
<path fill="none" stroke="midnightblue" d="M398.22,-151.59C422.27,-143.15 453.78,-131.5 481,-119.5 500.16,-111.05 521.41,-99.9 535.82,-92.06"/>
<polygon fill="midnightblue" stroke="midnightblue" points="397.04,-148.3 388.74,-154.89 399.34,-154.91 397.04,-148.3"/>
</g>
<!-- Node3 -->
<g id="node3" class="node">
<title>Node3</title>
<g id="a_node3"><a xlink:href="classReaktoro_1_1Temperature.html" target="_top" xlink:title="A type that describes temperature in units of K. ">
<polygon fill="white" stroke="black" points="141.5,-200 141.5,-219 212.5,-219 212.5,-200 141.5,-200"/>
<text text-anchor="middle" x="177" y="-207" font-family="Helvetica,sans-Serif" font-size="10.00">Temperature</text>
</a>
</g>
</g>
<!-- Node3&#45;&gt;Node2 -->
<g id="edge2" class="edge">
<title>Node3&#45;&gt;Node2</title>
<path fill="none" stroke="#9a32cd" stroke-dasharray="5,2" d="M222.79,-198.3C253.69,-190.58 294.19,-180.45 322.79,-173.3"/>
<polygon fill="#9a32cd" stroke="#9a32cd" points="221.56,-195 212.71,-200.82 223.26,-201.79 221.56,-195"/>
<text text-anchor="middle" x="263" y="-190.5" font-family="Helvetica,sans-Serif" font-size="10.00"> T</text>
</g>
<!-- Node4 -->
<g id="node4" class="node">
<title>Node4</title>
<g id="a_node4"><a xlink:href="classReaktoro_1_1ThermoScalarBase.html" target="_top" xlink:title="ThermoScalar">
<polygon fill="white" stroke="black" points="0,-180 0,-199 77,-199 77,-180 0,-180"/>
<text text-anchor="middle" x="38.5" y="-187" font-family="Helvetica,sans-Serif" font-size="10.00">ThermoScalar</text>
</a>
</g>
</g>
<!-- Node4&#45;&gt;Node3 -->
<g id="edge3" class="edge">
<title>Node4&#45;&gt;Node3</title>
<path fill="none" stroke="midnightblue" d="M87.34,-196.51C105.11,-199.11 124.9,-202.01 141.27,-204.41"/>
<polygon fill="midnightblue" stroke="midnightblue" points="87.56,-193 77.16,-195.02 86.55,-199.93 87.56,-193"/>
</g>
<!-- Node5 -->
<g id="node5" class="node">
<title>Node5</title>
<g id="a_node5"><a xlink:href="classReaktoro_1_1Pressure.html" target="_top" xlink:title="A type that describes pressure in units of Pa. ">
<polygon fill="white" stroke="black" points="149,-162 149,-181 205,-181 205,-162 149,-162"/>
<text text-anchor="middle" x="177" y="-169" font-family="Helvetica,sans-Serif" font-size="10.00">Pressure</text>
</a>
</g>
</g>
<!-- Node4&#45;&gt;Node5 -->
<g id="edge5" class="edge">
<title>Node4&#45;&gt;Node5</title>
<path fill="none" stroke="midnightblue" d="M87.33,-183.19C107.94,-180.47 131.29,-177.4 148.85,-175.08"/>
<polygon fill="midnightblue" stroke="midnightblue" points="86.62,-179.76 77.16,-184.53 87.53,-186.7 86.62,-179.76"/>
</g>
<!-- Node5&#45;&gt;Node2 -->
<g id="edge4" class="edge">
<title>Node5&#45;&gt;Node2</title>
<path fill="none" stroke="#9a32cd" stroke-dasharray="5,2" d="M215.52,-170.04C247.15,-168.81 292.07,-167.06 322.97,-165.86"/>
<polygon fill="#9a32cd" stroke="#9a32cd" points="215.19,-166.55 205.34,-170.44 215.47,-173.55 215.19,-166.55"/>
<text text-anchor="middle" x="263" y="-170.5" font-family="Helvetica,sans-Serif" font-size="10.00"> P</text>
</g>
<!-- Node6 -->
<g id="node6" class="node">
<title>Node6</title>
<g id="a_node6"><a xlink:href="classReaktoro_1_1ChemicalVectorBase.html" target="_top" xlink:title="ChemicalVectorBase\l\&lt; Vector, Vector, Vector,\l Matrix \&gt;">
<polygon fill="white" stroke="black" points="114,-95 114,-136 240,-136 240,-95 114,-95"/>
<text text-anchor="start" x="122" y="-124" font-family="Helvetica,sans-Serif" font-size="10.00">ChemicalVectorBase</text>
<text text-anchor="start" x="122" y="-113" font-family="Helvetica,sans-Serif" font-size="10.00">&lt; Vector, Vector, Vector,</text>
<text text-anchor="middle" x="177" y="-102" font-family="Helvetica,sans-Serif" font-size="10.00"> Matrix &gt;</text>
</a>
</g>
</g>
<!-- Node6&#45;&gt;Node1 -->
<g id="edge9" class="edge">
<title>Node6&#45;&gt;Node1</title>
<path fill="none" stroke="#9a32cd" stroke-dasharray="5,2" d="M250.15,-110.71C311.59,-106.41 402.18,-99.54 481,-91.5 486.76,-90.91 492.78,-90.24 498.78,-89.55"/>
<polygon fill="#9a32cd" stroke="#9a32cd" points="249.9,-107.22 240.17,-111.4 250.39,-114.2 249.9,-107.22"/>
<text text-anchor="middle" x="359" y="-121.5" font-family="Helvetica,sans-Serif" font-size="10.00"> ms</text>
<text text-anchor="middle" x="359" y="-110.5" font-family="Helvetica,sans-Serif" font-size="10.00">m</text>
</g>
<!-- Node6&#45;&gt;Node2 -->
<g id="edge6" class="edge">
<title>Node6&#45;&gt;Node2</title>
<path fill="none" stroke="#9a32cd" stroke-dasharray="5,2" d="M250.09,-135.13C275.25,-141.97 302.34,-149.35 323.09,-155"/>
<polygon fill="#9a32cd" stroke="#9a32cd" points="250.77,-131.68 240.2,-132.43 248.93,-138.44 250.77,-131.68"/>
<text text-anchor="middle" x="263" y="-142.5" font-family="Helvetica,sans-Serif" font-size="10.00"> x</text>
</g>
<!-- Node7 -->
<g id="node7" class="node">
<title>Node7</title>
<g id="a_node7"><a xlink:href="classReaktoro_1_1ThermoScalarBase.html" target="_top" xlink:title="ThermoScalarBase\&lt; double \&gt;">
<polygon fill="white" stroke="black" points="286,-50 286,-69 432,-69 432,-50 286,-50"/>
<text text-anchor="middle" x="359" y="-57" font-family="Helvetica,sans-Serif" font-size="10.00">ThermoScalarBase&lt; double &gt;</text>
</a>
</g>
</g>
<!-- Node7&#45;&gt;Node1 -->
<g id="edge7" class="edge">
<title>Node7&#45;&gt;Node1</title>
<path fill="none" stroke="#9a32cd" stroke-dasharray="5,2" d="M442.4,-65.24C455.34,-66.45 468.55,-67.87 481,-69.5 488.43,-70.48 496.26,-71.69 503.91,-72.99"/>
<polygon fill="#9a32cd" stroke="#9a32cd" points="442.38,-61.72 432.1,-64.31 441.75,-68.7 442.38,-61.72"/>
<text text-anchor="middle" x="465.5" y="-83.5" font-family="Helvetica,sans-Serif" font-size="10.00"> rho</text>
<text text-anchor="middle" x="465.5" y="-72.5" font-family="Helvetica,sans-Serif" font-size="10.00">epsilon</text>
</g>
<!-- Node8 -->
<g id="node8" class="node">
<title>Node8</title>
<g id="a_node8"><a xlink:href="classReaktoro_1_1ChemicalScalarBase.html" target="_top" xlink:title="ChemicalScalarBase\l\&lt; double, RowVector \&gt;">
<polygon fill="white" stroke="black" points="300,-0.5 300,-30.5 418,-30.5 418,-0.5 300,-0.5"/>
<text text-anchor="start" x="308" y="-18.5" font-family="Helvetica,sans-Serif" font-size="10.00">ChemicalScalarBase</text>
<text text-anchor="middle" x="359" y="-7.5" font-family="Helvetica,sans-Serif" font-size="10.00">&lt; double, RowVector &gt;</text>
</a>
</g>
</g>
<!-- Node8&#45;&gt;Node1 -->
<g id="edge8" class="edge">
<title>Node8&#45;&gt;Node1</title>
<path fill="none" stroke="#9a32cd" stroke-dasharray="5,2" d="M428.25,-24.8C445.78,-28.33 464.37,-33.11 481,-39.5 503.15,-48.02 526.28,-63.12 540.17,-72.97"/>
<polygon fill="#9a32cd" stroke="#9a32cd" points="428.55,-21.3 418.07,-22.87 427.24,-28.18 428.55,-21.3"/>
<text text-anchor="middle" x="465.5" y="-53.5" font-family="Helvetica,sans-Serif" font-size="10.00"> Is</text>
<text text-anchor="middle" x="465.5" y="-42.5" font-family="Helvetica,sans-Serif" font-size="10.00">Ie</text>
</g>
</g>
</svg>
