<?xml version="1.0" encoding="UTF-8" standalone="no"?>
<!DOCTYPE svg PUBLIC "-//W3C//DTD SVG 1.1//EN"
 "http://www.w3.org/Graphics/SVG/1.1/DTD/svg11.dtd">
<!-- Generated by graphviz version 2.48.0 (20210717.2242)
 -->
<!-- Title: FunctionG Pages: 1 -->
<svg width="154pt" height="150pt"
 viewBox="0.00 0.00 154.00 150.00" xmlns="http://www.w3.org/2000/svg" xmlns:xlink="http://www.w3.org/1999/xlink">
<g id="graph0" class="graph" transform="scale(1 1) rotate(0) translate(4 146)">
<title>FunctionG</title>
<polygon fill="white" stroke="transparent" points="-4,4 -4,-146 150,-146 150,4 -4,4"/>
<!-- Node1 -->
<g id="node1" class="node">
<title>Node1</title>
<g id="a_node1"><a xlink:title="A type used to describe the function g of the HKF model and its partial temperature and pressure deri...">
<polygon fill="#bfbfbf" stroke="black" points="42,-0.5 42,-19.5 104,-19.5 104,-0.5 42,-0.5"/>
<text text-anchor="middle" x="73" y="-7.5" font-family="Helvetica,sans-Serif" font-size="10.00">FunctionG</text>
</a>
</g>
</g>
<!-- Node2 -->
<g id="node2" class="node">
<title>Node2</title>
<g id="a_node2"><a xlink:href="classReaktoro_1_1ThermoScalarBase.html" target="_top" xlink:title=" ">
<polygon fill="white" stroke="black" points="0,-122.5 0,-141.5 146,-141.5 146,-122.5 0,-122.5"/>
<text text-anchor="middle" x="73" y="-129.5" font-family="Helvetica,sans-Serif" font-size="10.00">ThermoScalarBase&lt; double &gt;</text>
</a>
</g>
</g>
<!-- Node2&#45;&gt;Node1 -->
<g id="edge1" class="edge">
<title>Node2&#45;&gt;Node1</title>
<path fill="none" stroke="#9a32cd" stroke-dasharray="5,2" d="M73,-112.15C73,-85.72 73,-38.76 73,-19.55"/>
<polygon fill="#9a32cd" stroke="#9a32cd" points="69.5,-112.37 73,-122.37 76.5,-112.37 69.5,-112.37"/>
<text text-anchor="middle" x="82.5" y="-96" font-family="Helvetica,sans-Serif" font-size="10.00"> g</text>
<text text-anchor="middle" x="82.5" y="-85" font-family="Helvetica,sans-Serif" font-size="10.00">gP</text>
<text text-anchor="middle" x="82.5" y="-74" font-family="Helvetica,sans-Serif" font-size="10.00">gPP</text>
<text text-anchor="middle" x="82.5" y="-63" font-family="Helvetica,sans-Serif" font-size="10.00">gT</text>
<text text-anchor="middle" x="82.5" y="-52" font-family="Helvetica,sans-Serif" font-size="10.00">gTP</text>
<text text-anchor="middle" x="82.5" y="-41" font-family="Helvetica,sans-Serif" font-size="10.00">gTT</text>
</g>
</g>
</svg>
