<?xml version="1.0" encoding="UTF-8" standalone="no"?>
<!DOCTYPE svg PUBLIC "-//W3C//DTD SVG 1.1//EN"
 "http://www.w3.org/Graphics/SVG/1.1/DTD/svg11.dtd">
<!-- Generated by graphviz version 2.48.0 (20210717.2242)
 -->
<!-- Title: WaterThermoState Pages: 1 -->
<svg width="154pt" height="205pt"
 viewBox="0.00 0.00 154.00 205.00" xmlns="http://www.w3.org/2000/svg" xmlns:xlink="http://www.w3.org/1999/xlink">
<g id="graph0" class="graph" transform="scale(1 1) rotate(0) translate(4 201)">
<title>WaterThermoState</title>
<polygon fill="white" stroke="transparent" points="-4,4 -4,-201 150,-201 150,4 -4,4"/>
<!-- Node1 -->
<g id="node1" class="node">
<title>Node1</title>
<g id="a_node1"><a xlink:title=" ">
<polygon fill="#bfbfbf" stroke="black" points="24,-0.5 24,-19.5 122,-19.5 122,-0.5 24,-0.5"/>
<text text-anchor="middle" x="73" y="-7.5" font-family="Helvetica,sans-Serif" font-size="10.00">WaterThermoState</text>
</a>
</g>
</g>
<!-- Node2 -->
<g id="node2" class="node">
<title>Node2</title>
<g id="a_node2"><a xlink:href="classReaktoro_1_1ThermoScalarBase.html" target="_top" xlink:title=" ">
<polygon fill="white" stroke="black" points="0,-177.5 0,-196.5 146,-196.5 146,-177.5 0,-177.5"/>
<text text-anchor="middle" x="73" y="-184.5" font-family="Helvetica,sans-Serif" font-size="10.00">ThermoScalarBase&lt; double &gt;</text>
</a>
</g>
</g>
<!-- Node2&#45;&gt;Node1 -->
<g id="edge1" class="edge">
<title>Node2&#45;&gt;Node1</title>
<path fill="none" stroke="#9a32cd" stroke-dasharray="5,2" d="M73,-166.95C73,-129.3 73,-46.65 73,-19.69"/>
<polygon fill="#9a32cd" stroke="#9a32cd" points="69.5,-167.08 73,-177.08 76.5,-167.08 69.5,-167.08"/>
<text text-anchor="middle" x="96" y="-151" font-family="Helvetica,sans-Serif" font-size="10.00"> cp</text>
<text text-anchor="middle" x="96" y="-140" font-family="Helvetica,sans-Serif" font-size="10.00">cv</text>
<text text-anchor="middle" x="96" y="-129" font-family="Helvetica,sans-Serif" font-size="10.00">density</text>
<text text-anchor="middle" x="96" y="-118" font-family="Helvetica,sans-Serif" font-size="10.00">densityP</text>
<text text-anchor="middle" x="96" y="-107" font-family="Helvetica,sans-Serif" font-size="10.00">densityPP</text>
<text text-anchor="middle" x="96" y="-96" font-family="Helvetica,sans-Serif" font-size="10.00">densityT</text>
<text text-anchor="middle" x="96" y="-85" font-family="Helvetica,sans-Serif" font-size="10.00">densityTP</text>
<text text-anchor="middle" x="96" y="-74" font-family="Helvetica,sans-Serif" font-size="10.00">densityTT</text>
<text text-anchor="middle" x="96" y="-63" font-family="Helvetica,sans-Serif" font-size="10.00">enthalpy</text>
<text text-anchor="middle" x="96" y="-52" font-family="Helvetica,sans-Serif" font-size="10.00">entropy</text>
<text text-anchor="middle" x="96" y="-41" font-family="Helvetica,sans-Serif" font-size="10.00">...</text>
</g>
</g>
</svg>
