<?xml version="1.0" encoding="UTF-8" standalone="no"?>
<!DOCTYPE svg PUBLIC "-//W3C//DTD SVG 1.1//EN"
 "http://www.w3.org/Graphics/SVG/1.1/DTD/svg11.dtd">
<!-- Generated by graphviz version 2.48.0 (20210717.2242)
 -->
<!-- Title: NonlinearOptions Pages: 1 -->
<svg width="267pt" height="299pt"
 viewBox="0.00 0.00 266.69 299.00" xmlns="http://www.w3.org/2000/svg" xmlns:xlink="http://www.w3.org/1999/xlink">
<g id="graph0" class="graph" transform="scale(1 1) rotate(0) translate(4 295)">
<title>NonlinearOptions</title>
<polygon fill="white" stroke="transparent" points="-4,4 -4,-295 262.69,-295 262.69,4 -4,4"/>
<!-- Node1 -->
<g id="node1" class="node">
<title>Node1</title>
<g id="a_node1"><a xlink:title="A type that describes the options for the solution of a non&#45;linear problem.">
<polygon fill="#bfbfbf" stroke="black" points="44.19,-0.5 44.19,-19.5 136.19,-19.5 136.19,-0.5 44.19,-0.5"/>
<text text-anchor="middle" x="90.19" y="-7.5" font-family="Helvetica,sans-Serif" font-size="10.00">NonlinearOptions</text>
</a>
</g>
</g>
<!-- Node2 -->
<g id="node2" class="node">
<title>Node2</title>
<g id="a_node2"><a xlink:href="structReaktoro_1_1NonlinearOutput.html" target="_top" xlink:title="A type that describes the options for the output of a non&#45;linear problem calculation.">
<polygon fill="white" stroke="black" points="46.69,-67.5 46.69,-86.5 133.69,-86.5 133.69,-67.5 46.69,-67.5"/>
<text text-anchor="middle" x="90.19" y="-74.5" font-family="Helvetica,sans-Serif" font-size="10.00">NonlinearOutput</text>
</a>
</g>
</g>
<!-- Node2&#45;&gt;Node1 -->
<g id="edge1" class="edge">
<title>Node2&#45;&gt;Node1</title>
<path fill="none" stroke="#9a32cd" stroke-dasharray="5,2" d="M90.19,-57.04C90.19,-44.67 90.19,-29.12 90.19,-19.63"/>
<polygon fill="#9a32cd" stroke="#9a32cd" points="86.69,-57.23 90.19,-67.23 93.69,-57.23 86.69,-57.23"/>
<text text-anchor="middle" x="105.69" y="-41" font-family="Helvetica,sans-Serif" font-size="10.00"> output</text>
</g>
<!-- Node3 -->
<g id="node3" class="node">
<title>Node3</title>
<g id="a_node3"><a xlink:href="structReaktoro_1_1OutputterOptions.html" target="_top" xlink:title=" ">
<polygon fill="white" stroke="black" points="44.69,-146.5 44.69,-165.5 135.69,-165.5 135.69,-146.5 44.69,-146.5"/>
<text text-anchor="middle" x="90.19" y="-153.5" font-family="Helvetica,sans-Serif" font-size="10.00">OutputterOptions</text>
</a>
</g>
</g>
<!-- Node3&#45;&gt;Node2 -->
<g id="edge2" class="edge">
<title>Node3&#45;&gt;Node2</title>
<path fill="none" stroke="midnightblue" d="M90.19,-136.31C90.19,-120.59 90.19,-98.81 90.19,-86.81"/>
<polygon fill="midnightblue" stroke="midnightblue" points="86.69,-136.47 90.19,-146.47 93.69,-136.47 86.69,-136.47"/>
</g>
<!-- Node4 -->
<g id="node4" class="node">
<title>Node4</title>
<g id="a_node4"><a xlink:title="STL class.">
<polygon fill="white" stroke="#bfbfbf" points="69.69,-214.5 69.69,-233.5 110.69,-233.5 110.69,-214.5 69.69,-214.5"/>
<text text-anchor="middle" x="90.19" y="-221.5" font-family="Helvetica,sans-Serif" font-size="10.00">string</text>
</a>
</g>
</g>
<!-- Node4&#45;&gt;Node2 -->
<g id="edge5" class="edge">
<title>Node4&#45;&gt;Node2</title>
<path fill="none" stroke="#9a32cd" stroke-dasharray="5,2" d="M60.21,-212.28C40.41,-203.46 16.01,-188.81 4.19,-167 -14.8,-131.96 38.88,-100.97 69.9,-86.56"/>
<polygon fill="#9a32cd" stroke="#9a32cd" points="58.91,-215.53 69.49,-216.16 61.61,-209.07 58.91,-215.53"/>
<text text-anchor="middle" x="19.69" y="-159" font-family="Helvetica,sans-Serif" font-size="10.00"> fprefix</text>
<text text-anchor="middle" x="19.69" y="-148" font-family="Helvetica,sans-Serif" font-size="10.00">xprefix</text>
</g>
<!-- Node4&#45;&gt;Node3 -->
<g id="edge3" class="edge">
<title>Node4&#45;&gt;Node3</title>
<path fill="none" stroke="#9a32cd" stroke-dasharray="5,2" d="M90.19,-204.04C90.19,-191.47 90.19,-175.56 90.19,-165.84"/>
<polygon fill="#9a32cd" stroke="#9a32cd" points="86.69,-204.37 90.19,-214.37 93.69,-204.37 86.69,-204.37"/>
<text text-anchor="middle" x="112.19" y="-188" font-family="Helvetica,sans-Serif" font-size="10.00"> separator</text>
</g>
<!-- Node6 -->
<g id="node6" class="node">
<title>Node6</title>
<g id="a_node6"><a xlink:title=" ">
<polygon fill="white" stroke="#bfbfbf" points="153.69,-146.5 153.69,-165.5 258.69,-165.5 258.69,-146.5 153.69,-146.5"/>
<text text-anchor="middle" x="206.19" y="-153.5" font-family="Helvetica,sans-Serif" font-size="10.00">vector&lt; std::string &gt;</text>
</a>
</g>
</g>
<!-- Node4&#45;&gt;Node6 -->
<g id="edge7" class="edge">
<title>Node4&#45;&gt;Node6</title>
<path fill="none" stroke="#9a32cd" stroke-dasharray="5,2" d="M114.53,-209.36C122.12,-205.1 130.51,-200.36 138.19,-196 156.53,-185.58 177.59,-173.48 191.36,-165.56"/>
<polygon fill="#9a32cd" stroke="#9a32cd" points="112.78,-206.33 105.78,-214.28 116.21,-212.43 112.78,-206.33"/>
<text text-anchor="middle" x="177.69" y="-188" font-family="Helvetica,sans-Serif" font-size="10.00"> elements</text>
</g>
<!-- Node5 -->
<g id="node5" class="node">
<title>Node5</title>
<g id="a_node5"><a xlink:title="STL class.">
<polygon fill="white" stroke="#bfbfbf" points="37.19,-271.5 37.19,-290.5 143.19,-290.5 143.19,-271.5 37.19,-271.5"/>
<text text-anchor="middle" x="90.19" y="-278.5" font-family="Helvetica,sans-Serif" font-size="10.00">basic_string&lt; char &gt;</text>
</a>
</g>
</g>
<!-- Node5&#45;&gt;Node4 -->
<g id="edge4" class="edge">
<title>Node5&#45;&gt;Node4</title>
<path fill="none" stroke="midnightblue" d="M90.19,-261.12C90.19,-251.82 90.19,-241.06 90.19,-233.71"/>
<polygon fill="midnightblue" stroke="midnightblue" points="86.69,-261.41 90.19,-271.41 93.69,-261.41 86.69,-261.41"/>
</g>
<!-- Node6&#45;&gt;Node2 -->
<g id="edge6" class="edge">
<title>Node6&#45;&gt;Node2</title>
<path fill="none" stroke="#9a32cd" stroke-dasharray="5,2" d="M184.93,-140.89C161.01,-125.01 122.91,-99.72 103.11,-86.57"/>
<polygon fill="#9a32cd" stroke="#9a32cd" points="183.07,-143.85 193.34,-146.47 186.94,-138.02 183.07,-143.85"/>
<text text-anchor="middle" x="179.19" y="-119" font-family="Helvetica,sans-Serif" font-size="10.00"> fnames</text>
<text text-anchor="middle" x="179.19" y="-108" font-family="Helvetica,sans-Serif" font-size="10.00">xnames</text>
</g>
</g>
</svg>
