<?xml version="1.0" encoding="UTF-8" standalone="no"?>
<!DOCTYPE svg PUBLIC "-//W3C//DTD SVG 1.1//EN"
 "http://www.w3.org/Graphics/SVG/1.1/DTD/svg11.dtd">
<!-- Generated by graphviz version 2.48.0 (20210717.2242)
 -->
<!-- Title: OptimumOptions Pages: 1 -->
<svg width="790pt" height="418pt"
 viewBox="0.00 0.00 790.00 418.00" xmlns="http://www.w3.org/2000/svg" xmlns:xlink="http://www.w3.org/1999/xlink">
<g id="graph0" class="graph" transform="scale(1 1) rotate(0) translate(4 414)">
<title>OptimumOptions</title>
<polygon fill="white" stroke="transparent" points="-4,4 -4,-414 786,-414 786,4 -4,4"/>
<!-- Node1 -->
<g id="node1" class="node">
<title>Node1</title>
<g id="a_node1"><a xlink:title="A type that describes the options of a optimisation calculation.">
<polygon fill="#bfbfbf" stroke="black" points="692,-221.5 692,-240.5 782,-240.5 782,-221.5 692,-221.5"/>
<text text-anchor="middle" x="737" y="-228.5" font-family="Helvetica,sans-Serif" font-size="10.00">OptimumOptions</text>
</a>
</g>
</g>
<!-- Node2 -->
<g id="node2" class="node">
<title>Node2</title>
<g id="a_node2"><a xlink:href="structReaktoro_1_1OptimumParamsIpAction.html" target="_top" xlink:title=" ">
<polygon fill="white" stroke="black" points="456,-390.5 456,-409.5 582,-409.5 582,-390.5 456,-390.5"/>
<text text-anchor="middle" x="519" y="-397.5" font-family="Helvetica,sans-Serif" font-size="10.00">OptimumParamsIpAction</text>
</a>
</g>
</g>
<!-- Node2&#45;&gt;Node1 -->
<g id="edge1" class="edge">
<title>Node2&#45;&gt;Node1</title>
<path fill="none" stroke="#9a32cd" stroke-dasharray="5,2" d="M592.35,-395.92C620.36,-391.16 651.12,-381.64 674,-363 714.24,-330.21 729.79,-265.29 734.39,-240.73"/>
<polygon fill="#9a32cd" stroke="#9a32cd" points="591.53,-392.5 582.17,-397.47 592.58,-399.42 591.53,-392.5"/>
<text text-anchor="middle" x="643.5" y="-393" font-family="Helvetica,sans-Serif" font-size="10.00"> ipaction</text>
</g>
<!-- Node3 -->
<g id="node3" class="node">
<title>Node3</title>
<g id="a_node3"><a xlink:href="structReaktoro_1_1OptimumParamsIpOpt.html" target="_top" xlink:title=" ">
<polygon fill="white" stroke="black" points="462,-352.5 462,-371.5 576,-371.5 576,-352.5 462,-352.5"/>
<text text-anchor="middle" x="519" y="-359.5" font-family="Helvetica,sans-Serif" font-size="10.00">OptimumParamsIpOpt</text>
</a>
</g>
</g>
<!-- Node3&#45;&gt;Node1 -->
<g id="edge2" class="edge">
<title>Node3&#45;&gt;Node1</title>
<path fill="none" stroke="#9a32cd" stroke-dasharray="5,2" d="M586.16,-355.48C615.18,-350.06 648.39,-340.14 674,-322 704.26,-300.56 724.26,-259.36 732.18,-240.66"/>
<polygon fill="#9a32cd" stroke="#9a32cd" points="585.35,-352.06 576.09,-357.21 586.54,-358.96 585.35,-352.06"/>
<text text-anchor="middle" x="643.5" y="-351" font-family="Helvetica,sans-Serif" font-size="10.00"> ipopt</text>
</g>
<!-- Node4 -->
<g id="node4" class="node">
<title>Node4</title>
<g id="a_node4"><a xlink:title=" ">
<polygon fill="white" stroke="#bfbfbf" points="271.5,-352.5 271.5,-371.5 361.5,-371.5 361.5,-352.5 271.5,-352.5"/>
<text text-anchor="middle" x="316.5" y="-359.5" font-family="Helvetica,sans-Serif" font-size="10.00">vector&lt; double &gt;</text>
</a>
</g>
</g>
<!-- Node4&#45;&gt;Node3 -->
<g id="edge3" class="edge">
<title>Node4&#45;&gt;Node3</title>
<path fill="none" stroke="#9a32cd" stroke-dasharray="5,2" d="M371.51,-362C399.48,-362 433.61,-362 461.88,-362"/>
<polygon fill="#9a32cd" stroke="#9a32cd" points="371.5,-358.5 361.5,-362 371.5,-365.5 371.5,-358.5"/>
<text text-anchor="middle" x="406" y="-365" font-family="Helvetica,sans-Serif" font-size="10.00"> mu</text>
</g>
<!-- Node5 -->
<g id="node5" class="node">
<title>Node5</title>
<g id="a_node5"><a xlink:href="structReaktoro_1_1OptimumParamsIpActive.html" target="_top" xlink:title=" ">
<polygon fill="white" stroke="black" points="456,-314.5 456,-333.5 582,-333.5 582,-314.5 456,-314.5"/>
<text text-anchor="middle" x="519" y="-321.5" font-family="Helvetica,sans-Serif" font-size="10.00">OptimumParamsIpActive</text>
</a>
</g>
</g>
<!-- Node5&#45;&gt;Node1 -->
<g id="edge4" class="edge">
<title>Node5&#45;&gt;Node1</title>
<path fill="none" stroke="#9a32cd" stroke-dasharray="5,2" d="M592.39,-312.37C619.04,-306.26 648.84,-297.21 674,-284 695.56,-272.68 716.14,-252.64 727.32,-240.72"/>
<polygon fill="#9a32cd" stroke="#9a32cd" points="591.36,-309.01 582.34,-314.56 592.86,-315.84 591.36,-309.01"/>
<text text-anchor="middle" x="643.5" y="-310" font-family="Helvetica,sans-Serif" font-size="10.00"> ipactive</text>
</g>
<!-- Node6 -->
<g id="node6" class="node">
<title>Node6</title>
<g id="a_node6"><a xlink:href="structReaktoro_1_1OptimumParamsIpNewton.html" target="_top" xlink:title=" ">
<polygon fill="white" stroke="black" points="453,-276.5 453,-295.5 585,-295.5 585,-276.5 453,-276.5"/>
<text text-anchor="middle" x="519" y="-283.5" font-family="Helvetica,sans-Serif" font-size="10.00">OptimumParamsIpNewton</text>
</a>
</g>
</g>
<!-- Node6&#45;&gt;Node1 -->
<g id="edge5" class="edge">
<title>Node6&#45;&gt;Node1</title>
<path fill="none" stroke="#9a32cd" stroke-dasharray="5,2" d="M589.46,-274.62C616.14,-269.58 646.72,-262.96 674,-255 687.52,-251.05 702.23,-245.42 713.93,-240.6"/>
<polygon fill="#9a32cd" stroke="#9a32cd" points="588.64,-271.22 579.44,-276.48 589.91,-278.1 588.64,-271.22"/>
<text text-anchor="middle" x="643.5" y="-272" font-family="Helvetica,sans-Serif" font-size="10.00"> ipnewton</text>
</g>
<!-- Node7 -->
<g id="node7" class="node">
<title>Node7</title>
<g id="a_node7"><a xlink:href="structReaktoro_1_1KktOptions.html" target="_top" xlink:title="A type to describe the options for the KKT calculation.">
<polygon fill="white" stroke="black" points="486.5,-238.5 486.5,-257.5 551.5,-257.5 551.5,-238.5 486.5,-238.5"/>
<text text-anchor="middle" x="519" y="-245.5" font-family="Helvetica,sans-Serif" font-size="10.00">KktOptions</text>
</a>
</g>
</g>
<!-- Node7&#45;&gt;Node1 -->
<g id="edge6" class="edge">
<title>Node7&#45;&gt;Node1</title>
<path fill="none" stroke="#9a32cd" stroke-dasharray="5,2" d="M561.91,-244.7C599.21,-241.77 653.59,-237.49 691.62,-234.49"/>
<polygon fill="#9a32cd" stroke="#9a32cd" points="561.57,-241.22 551.87,-245.49 562.12,-248.2 561.57,-241.22"/>
<text text-anchor="middle" x="643.5" y="-243" font-family="Helvetica,sans-Serif" font-size="10.00"> kkt</text>
</g>
<!-- Node8 -->
<g id="node8" class="node">
<title>Node8</title>
<g id="a_node8"><a xlink:href="structReaktoro_1_1OptimumParamsRegularization.html" target="_top" xlink:title="A type that describes the regularization options for the optimisation calculation.">
<polygon fill="white" stroke="black" points="443,-200.5 443,-219.5 595,-219.5 595,-200.5 443,-200.5"/>
<text text-anchor="middle" x="519" y="-207.5" font-family="Helvetica,sans-Serif" font-size="10.00">OptimumParamsRegularization</text>
</a>
</g>
</g>
<!-- Node8&#45;&gt;Node1 -->
<g id="edge7" class="edge">
<title>Node8&#45;&gt;Node1</title>
<path fill="none" stroke="#9a32cd" stroke-dasharray="5,2" d="M605.45,-214.75C627.8,-216.36 651.83,-218.43 674,-221 679.74,-221.67 685.76,-222.49 691.7,-223.37"/>
<polygon fill="#9a32cd" stroke="#9a32cd" points="605.54,-211.25 595.32,-214.04 605.05,-218.23 605.54,-211.25"/>
<text text-anchor="middle" x="643.5" y="-224" font-family="Helvetica,sans-Serif" font-size="10.00"> regularization</text>
</g>
<!-- Node9 -->
<g id="node9" class="node">
<title>Node9</title>
<g id="a_node9"><a xlink:href="structReaktoro_1_1RegularizerOptions.html" target="_top" xlink:title="A type that describes the options for regularizing linear constraints.">
<polygon fill="white" stroke="black" points="266.5,-200.5 266.5,-219.5 366.5,-219.5 366.5,-200.5 266.5,-200.5"/>
<text text-anchor="middle" x="316.5" y="-207.5" font-family="Helvetica,sans-Serif" font-size="10.00">RegularizerOptions</text>
</a>
</g>
</g>
<!-- Node9&#45;&gt;Node8 -->
<g id="edge8" class="edge">
<title>Node9&#45;&gt;Node8</title>
<path fill="none" stroke="midnightblue" d="M376.79,-210C397.5,-210 421.04,-210 442.88,-210"/>
<polygon fill="midnightblue" stroke="midnightblue" points="376.55,-206.5 366.55,-210 376.55,-213.5 376.55,-206.5"/>
</g>
<!-- Node10 -->
<g id="node10" class="node">
<title>Node10</title>
<g id="a_node10"><a xlink:href="structReaktoro_1_1OptimumParamsRefiner.html" target="_top" xlink:title=" ">
<polygon fill="white" stroke="black" points="458,-162.5 458,-181.5 580,-181.5 580,-162.5 458,-162.5"/>
<text text-anchor="middle" x="519" y="-169.5" font-family="Helvetica,sans-Serif" font-size="10.00">OptimumParamsRefiner</text>
</a>
</g>
</g>
<!-- Node10&#45;&gt;Node1 -->
<g id="edge9" class="edge">
<title>Node10&#45;&gt;Node1</title>
<path fill="none" stroke="#9a32cd" stroke-dasharray="5,2" d="M590.24,-180.47C616.89,-184.8 647.25,-191.08 674,-200 690.33,-205.44 707.76,-214.48 719.97,-221.39"/>
<polygon fill="#9a32cd" stroke="#9a32cd" points="590.64,-176.99 580.22,-178.91 589.57,-183.91 590.64,-176.99"/>
<text text-anchor="middle" x="643.5" y="-203" font-family="Helvetica,sans-Serif" font-size="10.00"> refiner</text>
</g>
<!-- Node11 -->
<g id="node11" class="node">
<title>Node11</title>
<g id="a_node11"><a xlink:href="structReaktoro_1_1OptimumParamsKarpov.html" target="_top" xlink:title=" ">
<polygon fill="white" stroke="black" points="458.5,-124.5 458.5,-143.5 579.5,-143.5 579.5,-124.5 458.5,-124.5"/>
<text text-anchor="middle" x="519" y="-131.5" font-family="Helvetica,sans-Serif" font-size="10.00">OptimumParamsKarpov</text>
</a>
</g>
</g>
<!-- Node11&#45;&gt;Node1 -->
<g id="edge10" class="edge">
<title>Node11&#45;&gt;Node1</title>
<path fill="none" stroke="#9a32cd" stroke-dasharray="5,2" d="M589.72,-142C617.21,-147.23 648.3,-155.84 674,-170 697.54,-182.97 718.32,-207.39 728.8,-221.07"/>
<polygon fill="#9a32cd" stroke="#9a32cd" points="590.23,-138.54 579.77,-140.23 589,-145.43 590.23,-138.54"/>
<text text-anchor="middle" x="643.5" y="-173" font-family="Helvetica,sans-Serif" font-size="10.00"> karpov</text>
</g>
<!-- Node12 -->
<g id="node12" class="node">
<title>Node12</title>
<g id="a_node12"><a xlink:href="structReaktoro_1_1OptimumParamsActNewton.html" target="_top" xlink:title=" ">
<polygon fill="white" stroke="black" points="449.5,-86.5 449.5,-105.5 588.5,-105.5 588.5,-86.5 449.5,-86.5"/>
<text text-anchor="middle" x="519" y="-93.5" font-family="Helvetica,sans-Serif" font-size="10.00">OptimumParamsActNewton</text>
</a>
</g>
</g>
<!-- Node12&#45;&gt;Node1 -->
<g id="edge11" class="edge">
<title>Node12&#45;&gt;Node1</title>
<path fill="none" stroke="#9a32cd" stroke-dasharray="5,2" d="M598.91,-102.4C624.66,-107.5 652.21,-116.43 674,-132 706.5,-155.23 725.7,-201.33 732.82,-221.35"/>
<polygon fill="#9a32cd" stroke="#9a32cd" points="599.23,-98.91 588.77,-100.57 597.99,-105.79 599.23,-98.91"/>
<text text-anchor="middle" x="643.5" y="-135" font-family="Helvetica,sans-Serif" font-size="10.00"> actnewton</text>
</g>
<!-- Node13 -->
<g id="node13" class="node">
<title>Node13</title>
<g id="a_node13"><a xlink:href="structReaktoro_1_1OptimumOutputOptions.html" target="_top" xlink:title="A type that describes the options for the output of a optimisation calculation.">
<polygon fill="white" stroke="black" points="459.5,-48.5 459.5,-67.5 578.5,-67.5 578.5,-48.5 459.5,-48.5"/>
<text text-anchor="middle" x="519" y="-55.5" font-family="Helvetica,sans-Serif" font-size="10.00">OptimumOutputOptions</text>
</a>
</g>
</g>
<!-- Node13&#45;&gt;Node1 -->
<g id="edge12" class="edge">
<title>Node13&#45;&gt;Node1</title>
<path fill="none" stroke="#9a32cd" stroke-dasharray="5,2" d="M588.95,-59.26C617.89,-62.98 650.27,-71.72 674,-91 716.7,-125.71 730.88,-195.82 734.75,-221.39"/>
<polygon fill="#9a32cd" stroke="#9a32cd" points="589.2,-55.77 578.87,-58.14 588.42,-62.72 589.2,-55.77"/>
<text text-anchor="middle" x="643.5" y="-94" font-family="Helvetica,sans-Serif" font-size="10.00"> output</text>
</g>
<!-- Node14 -->
<g id="node14" class="node">
<title>Node14</title>
<g id="a_node14"><a xlink:href="structReaktoro_1_1OutputterOptions.html" target="_top" xlink:title=" ">
<polygon fill="white" stroke="black" points="271,-38.5 271,-57.5 362,-57.5 362,-38.5 271,-38.5"/>
<text text-anchor="middle" x="316.5" y="-45.5" font-family="Helvetica,sans-Serif" font-size="10.00">OutputterOptions</text>
</a>
</g>
</g>
<!-- Node14&#45;&gt;Node13 -->
<g id="edge13" class="edge">
<title>Node14&#45;&gt;Node13</title>
<path fill="none" stroke="midnightblue" d="M372.29,-50.73C399.27,-52.08 431.82,-53.7 459.3,-55.07"/>
<polygon fill="midnightblue" stroke="midnightblue" points="372.41,-47.23 362.25,-50.23 372.06,-54.23 372.41,-47.23"/>
</g>
<!-- Node15 -->
<g id="node15" class="node">
<title>Node15</title>
<g id="a_node15"><a xlink:title="STL class.">
<polygon fill="white" stroke="#bfbfbf" points="143,-38.5 143,-57.5 184,-57.5 184,-38.5 143,-38.5"/>
<text text-anchor="middle" x="163.5" y="-45.5" font-family="Helvetica,sans-Serif" font-size="10.00">string</text>
</a>
</g>
</g>
<!-- Node15&#45;&gt;Node13 -->
<g id="edge16" class="edge">
<title>Node15&#45;&gt;Node13</title>
<path fill="none" stroke="#9a32cd" stroke-dasharray="5,2" d="M193.91,-60.76C196.61,-61.63 199.33,-62.4 202,-63 298.68,-84.87 326.01,-71.14 425,-66 436,-65.43 447.73,-64.6 459,-63.68"/>
<polygon fill="#9a32cd" stroke="#9a32cd" points="194.96,-57.42 184.37,-57.3 192.57,-64 194.96,-57.42"/>
<text text-anchor="middle" x="316.5" y="-99" font-family="Helvetica,sans-Serif" font-size="10.00"> xprefix</text>
<text text-anchor="middle" x="316.5" y="-88" font-family="Helvetica,sans-Serif" font-size="10.00">yprefix</text>
<text text-anchor="middle" x="316.5" y="-77" font-family="Helvetica,sans-Serif" font-size="10.00">zprefix</text>
</g>
<!-- Node15&#45;&gt;Node14 -->
<g id="edge14" class="edge">
<title>Node15&#45;&gt;Node14</title>
<path fill="none" stroke="#9a32cd" stroke-dasharray="5,2" d="M194.26,-48C216.14,-48 246.24,-48 270.98,-48"/>
<polygon fill="#9a32cd" stroke="#9a32cd" points="194.24,-44.5 184.24,-48 194.24,-51.5 194.24,-44.5"/>
<text text-anchor="middle" x="224" y="-51" font-family="Helvetica,sans-Serif" font-size="10.00"> separator</text>
</g>
<!-- Node17 -->
<g id="node17" class="node">
<title>Node17</title>
<g id="a_node17"><a xlink:title=" ">
<polygon fill="white" stroke="#bfbfbf" points="264,-0.5 264,-19.5 369,-19.5 369,-0.5 264,-0.5"/>
<text text-anchor="middle" x="316.5" y="-7.5" font-family="Helvetica,sans-Serif" font-size="10.00">vector&lt; std::string &gt;</text>
</a>
</g>
</g>
<!-- Node15&#45;&gt;Node17 -->
<g id="edge18" class="edge">
<title>Node15&#45;&gt;Node17</title>
<path fill="none" stroke="#9a32cd" stroke-dasharray="5,2" d="M193.54,-35.79C196.38,-34.78 199.23,-33.83 202,-33 221.94,-27.05 244.31,-22.15 263.88,-18.42"/>
<polygon fill="#9a32cd" stroke="#9a32cd" points="192.21,-32.55 184.11,-39.38 194.71,-39.09 192.21,-32.55"/>
<text text-anchor="middle" x="224" y="-36" font-family="Helvetica,sans-Serif" font-size="10.00"> elements</text>
</g>
<!-- Node16 -->
<g id="node16" class="node">
<title>Node16</title>
<g id="a_node16"><a xlink:title="STL class.">
<polygon fill="white" stroke="#bfbfbf" points="0,-38.5 0,-57.5 106,-57.5 106,-38.5 0,-38.5"/>
<text text-anchor="middle" x="53" y="-45.5" font-family="Helvetica,sans-Serif" font-size="10.00">basic_string&lt; char &gt;</text>
</a>
</g>
</g>
<!-- Node16&#45;&gt;Node15 -->
<g id="edge15" class="edge">
<title>Node16&#45;&gt;Node15</title>
<path fill="none" stroke="midnightblue" d="M116.19,-48C125.87,-48 135.21,-48 142.93,-48"/>
<polygon fill="midnightblue" stroke="midnightblue" points="116.03,-44.5 106.03,-48 116.03,-51.5 116.03,-44.5"/>
</g>
<!-- Node17&#45;&gt;Node13 -->
<g id="edge17" class="edge">
<title>Node17&#45;&gt;Node13</title>
<path fill="none" stroke="#9a32cd" stroke-dasharray="5,2" d="M379.47,-8.04C394.53,-8.73 410.48,-10.45 425,-14 453.98,-21.08 484.72,-37.65 502.6,-48.31"/>
<polygon fill="#9a32cd" stroke="#9a32cd" points="379.31,-4.54 369.21,-7.72 379.09,-11.53 379.31,-4.54"/>
<text text-anchor="middle" x="406" y="-39" font-family="Helvetica,sans-Serif" font-size="10.00"> xnames</text>
<text text-anchor="middle" x="406" y="-28" font-family="Helvetica,sans-Serif" font-size="10.00">ynames</text>
<text text-anchor="middle" x="406" y="-17" font-family="Helvetica,sans-Serif" font-size="10.00">znames</text>
</g>
</g>
</svg>
