<?xml version="1.0" encoding="UTF-8" standalone="no"?>
<!DOCTYPE svg PUBLIC "-//W3C//DTD SVG 1.1//EN"
 "http://www.w3.org/Graphics/SVG/1.1/DTD/svg11.dtd">
<!-- Generated by graphviz version 2.42.3 (20191010.1750)
 -->
<!-- Title: SpeciesThermoState Pages: 1 -->
<svg width="158pt" height="194pt"
 viewBox="0.00 0.00 158.00 194.00" xmlns="http://www.w3.org/2000/svg" xmlns:xlink="http://www.w3.org/1999/xlink">
<g id="graph0" class="graph" transform="scale(1 1) rotate(0) translate(4 190)">
<title>SpeciesThermoState</title>
<polygon fill="white" stroke="transparent" points="-4,4 -4,-190 154,-190 154,4 -4,4"/>
<!-- Node1 -->
<g id="node1" class="node">
<title>Node1</title>
<g id="a_node1"><a xlink:title="Describe the thermodynamic state of a species.">
<polygon fill="#bfbfbf" stroke="black" points="19,-0.5 19,-19.5 127,-19.5 127,-0.5 19,-0.5"/>
<text text-anchor="middle" x="73" y="-7.5" font-family="Helvetica,sans-Serif" font-size="10.00">SpeciesThermoState</text>
</a>
</g>
</g>
<!-- Node2 -->
<g id="node2" class="node">
<title>Node2</title>
<g id="a_node2"><a xlink:href="classReaktoro_1_1ThermoScalarBase.html" target="_top" xlink:title=" ">
<polygon fill="white" stroke="black" points="0,-166.5 0,-185.5 146,-185.5 146,-166.5 0,-166.5"/>
<text text-anchor="middle" x="73" y="-173.5" font-family="Helvetica,sans-Serif" font-size="10.00">ThermoScalarBase&lt; double &gt;</text>
</a>
</g>
</g>
<!-- Node2&#45;&gt;Node1 -->
<g id="edge1" class="edge">
<title>Node2&#45;&gt;Node1</title>
<path fill="none" stroke="#9a32cd" stroke-dasharray="5,2" d="M73,-155.75C73,-120.19 73,-45.5 73,-19.86"/>
<polygon fill="#9a32cd" stroke="#9a32cd" points="69.5,-156.18 73,-166.18 76.5,-156.18 69.5,-156.18"/>
<text text-anchor="middle" x="111.5" y="-140" font-family="Helvetica,sans-Serif" font-size="10.00"> enthalpy</text>
<text text-anchor="middle" x="111.5" y="-129" font-family="Helvetica,sans-Serif" font-size="10.00">entropy</text>
<text text-anchor="middle" x="111.5" y="-118" font-family="Helvetica,sans-Serif" font-size="10.00">gibbs_energy</text>
<text text-anchor="start" x="73" y="-107" font-family="Helvetica,sans-Serif" font-size="10.00">heat_capacity</text>
<text text-anchor="middle" x="111.5" y="-96" font-family="Helvetica,sans-Serif" font-size="10.00">_cp</text>
<text text-anchor="start" x="73" y="-85" font-family="Helvetica,sans-Serif" font-size="10.00">heat_capacity</text>
<text text-anchor="middle" x="111.5" y="-74" font-family="Helvetica,sans-Serif" font-size="10.00">_cv</text>
<text text-anchor="middle" x="111.5" y="-63" font-family="Helvetica,sans-Serif" font-size="10.00">helmholtz_energy</text>
<text text-anchor="middle" x="111.5" y="-52" font-family="Helvetica,sans-Serif" font-size="10.00">internal_energy</text>
<text text-anchor="middle" x="111.5" y="-41" font-family="Helvetica,sans-Serif" font-size="10.00">volume</text>
</g>
</g>
</svg>
