<?xml version="1.0" encoding="UTF-8" standalone="no"?>
<!DOCTYPE svg PUBLIC "-//W3C//DTD SVG 1.1//EN"
 "http://www.w3.org/Graphics/SVG/1.1/DTD/svg11.dtd">
<!-- Generated by graphviz version 2.42.3 (20191010.1750)
 -->
<!-- Title: SpeciesThermoData Pages: 1 -->
<svg width="453pt" height="84pt"
 viewBox="0.00 0.00 452.50 84.00" xmlns="http://www.w3.org/2000/svg" xmlns:xlink="http://www.w3.org/1999/xlink">
<g id="graph0" class="graph" transform="scale(1 1) rotate(0) translate(4 80)">
<title>SpeciesThermoData</title>
<polygon fill="white" stroke="transparent" points="-4,4 -4,-80 448.5,-80 448.5,4 -4,4"/>
<!-- Node1 -->
<g id="node1" class="node">
<title>Node1</title>
<polygon fill="#bfbfbf" stroke="black" points="173,-56.5 173,-75.5 279,-75.5 279,-56.5 173,-56.5"/>
<text text-anchor="middle" x="226" y="-63.5" font-family="Helvetica,sans-Serif" font-size="10.00">SpeciesThermoData</text>
</g>
<!-- Node2 -->
<g id="node2" class="node">
<title>Node2</title>
<g id="a_node2"><a xlink:href="structReaktoro_1_1AqueousSpeciesThermoData.html" target="_top" xlink:title="A type for storing the thermodynamic data of an aqueous species. ">
<polygon fill="white" stroke="black" points="0,-0.5 0,-19.5 144,-19.5 144,-0.5 0,-0.5"/>
<text text-anchor="middle" x="72" y="-7.5" font-family="Helvetica,sans-Serif" font-size="10.00">AqueousSpeciesThermoData</text>
</a>
</g>
</g>
<!-- Node1&#45;&gt;Node2 -->
<g id="edge1" class="edge">
<title>Node1&#45;&gt;Node2</title>
<path fill="none" stroke="midnightblue" d="M191.89,-53.04C162.91,-42.88 122.04,-28.55 96.29,-19.52"/>
<polygon fill="midnightblue" stroke="midnightblue" points="191,-56.44 201.6,-56.44 193.32,-49.83 191,-56.44"/>
</g>
<!-- Node3 -->
<g id="node3" class="node">
<title>Node3</title>
<g id="a_node3"><a xlink:href="structReaktoro_1_1FluidSpeciesThermoData.html" target="_top" xlink:title="A type for storing the thermodynamic data of fluid (gaseous or liquid) species. ">
<polygon fill="white" stroke="black" points="162.5,-0.5 162.5,-19.5 289.5,-19.5 289.5,-0.5 162.5,-0.5"/>
<text text-anchor="middle" x="226" y="-7.5" font-family="Helvetica,sans-Serif" font-size="10.00">FluidSpeciesThermoData</text>
</a>
</g>
</g>
<!-- Node1&#45;&gt;Node3 -->
<g id="edge2" class="edge">
<title>Node1&#45;&gt;Node3</title>
<path fill="none" stroke="midnightblue" d="M226,-45.8C226,-36.91 226,-26.78 226,-19.75"/>
<polygon fill="midnightblue" stroke="midnightblue" points="222.5,-46.08 226,-56.08 229.5,-46.08 222.5,-46.08"/>
</g>
<!-- Node4 -->
<g id="node4" class="node">
<title>Node4</title>
<g id="a_node4"><a xlink:href="structReaktoro_1_1MineralSpeciesThermoData.html" target="_top" xlink:title="A type for storing the thermodynamic data of a mineral species. ">
<polygon fill="white" stroke="black" points="307.5,-0.5 307.5,-19.5 444.5,-19.5 444.5,-0.5 307.5,-0.5"/>
<text text-anchor="middle" x="376" y="-7.5" font-family="Helvetica,sans-Serif" font-size="10.00">MineralSpeciesThermoData</text>
</a>
</g>
</g>
<!-- Node1&#45;&gt;Node4 -->
<g id="edge3" class="edge">
<title>Node1&#45;&gt;Node4</title>
<path fill="none" stroke="midnightblue" d="M259.22,-53.04C287.45,-42.88 327.26,-28.55 352.34,-19.52"/>
<polygon fill="midnightblue" stroke="midnightblue" points="257.99,-49.76 249.77,-56.44 260.36,-56.35 257.99,-49.76"/>
</g>
</g>
</svg>
