<?xml version="1.0" encoding="UTF-8" standalone="no"?>
<!DOCTYPE svg PUBLIC "-//W3C//DTD SVG 1.1//EN"
 "http://www.w3.org/Graphics/SVG/1.1/DTD/svg11.dtd">
<!-- Generated by graphviz version 2.42.3 (20191010.1750)
 -->
<!-- Title: EquilibriumPathResult Pages: 1 -->
<svg width="230pt" height="162pt"
 viewBox="0.00 0.00 230.00 162.00" xmlns="http://www.w3.org/2000/svg" xmlns:xlink="http://www.w3.org/1999/xlink">
<g id="graph0" class="graph" transform="scale(1 1) rotate(0) translate(4 158)">
<title>EquilibriumPathResult</title>
<polygon fill="white" stroke="transparent" points="-4,4 -4,-158 226,-158 226,4 -4,4"/>
<!-- Node1 -->
<g id="node1" class="node">
<title>Node1</title>
<polygon fill="#bfbfbf" stroke="black" points="63,-0.5 63,-19.5 176,-19.5 176,-0.5 63,-0.5"/>
<text text-anchor="middle" x="119.5" y="-7.5" font-family="Helvetica,sans-Serif" font-size="10.00">EquilibriumPathResult</text>
</g>
<!-- Node2 -->
<g id="node2" class="node">
<title>Node2</title>
<g id="a_node2"><a xlink:href="structReaktoro_1_1EquilibriumResult.html" target="_top" xlink:title="A type used to describe the result of an equilibrium calculation. ">
<polygon fill="white" stroke="black" points="73,-67.5 73,-86.5 166,-86.5 166,-67.5 73,-67.5"/>
<text text-anchor="middle" x="119.5" y="-74.5" font-family="Helvetica,sans-Serif" font-size="10.00">EquilibriumResult</text>
</a>
</g>
</g>
<!-- Node2&#45;&gt;Node1 -->
<g id="edge1" class="edge">
<title>Node2&#45;&gt;Node1</title>
<path fill="none" stroke="#9a32cd" stroke-dasharray="5,2" d="M119.5,-57.04C119.5,-44.67 119.5,-29.12 119.5,-19.63"/>
<polygon fill="#9a32cd" stroke="#9a32cd" points="116,-57.23 119.5,-67.23 123,-57.23 116,-57.23"/>
<text text-anchor="middle" x="144.5" y="-41" font-family="Helvetica,sans-Serif" font-size="10.00"> equilibrium</text>
</g>
<!-- Node3 -->
<g id="node3" class="node">
<title>Node3</title>
<g id="a_node3"><a xlink:href="structReaktoro_1_1SmartEquilibriumResult.html" target="_top" xlink:title="A type used to describe the result of a smart equilibrium calculation. ">
<polygon fill="white" stroke="black" points="0,-134.5 0,-153.5 119,-153.5 119,-134.5 0,-134.5"/>
<text text-anchor="middle" x="59.5" y="-141.5" font-family="Helvetica,sans-Serif" font-size="10.00">SmartEquilibriumResult</text>
</a>
</g>
</g>
<!-- Node3&#45;&gt;Node2 -->
<g id="edge2" class="edge">
<title>Node3&#45;&gt;Node2</title>
<path fill="none" stroke="#9a32cd" stroke-dasharray="5,2" d="M74.61,-126.63C86.34,-113.92 102.15,-96.8 111.54,-86.63"/>
<polygon fill="#9a32cd" stroke="#9a32cd" points="71.8,-124.51 67.59,-134.23 76.95,-129.26 71.8,-124.51"/>
<text text-anchor="middle" x="107.5" y="-108" font-family="Helvetica,sans-Serif" font-size="10.00"> smart</text>
</g>
<!-- Node4 -->
<g id="node4" class="node">
<title>Node4</title>
<g id="a_node4"><a xlink:href="structReaktoro_1_1OptimumResult.html" target="_top" xlink:title="A type that describes the result of an optimisation calculation. ">
<polygon fill="white" stroke="black" points="137,-134.5 137,-153.5 222,-153.5 222,-134.5 137,-134.5"/>
<text text-anchor="middle" x="179.5" y="-141.5" font-family="Helvetica,sans-Serif" font-size="10.00">OptimumResult</text>
</a>
</g>
</g>
<!-- Node4&#45;&gt;Node2 -->
<g id="edge3" class="edge">
<title>Node4&#45;&gt;Node2</title>
<path fill="none" stroke="#9a32cd" stroke-dasharray="5,2" d="M164.39,-126.63C152.66,-113.92 136.85,-96.8 127.46,-86.63"/>
<polygon fill="#9a32cd" stroke="#9a32cd" points="162.05,-129.26 171.41,-134.23 167.2,-124.51 162.05,-129.26"/>
<text text-anchor="middle" x="173" y="-108" font-family="Helvetica,sans-Serif" font-size="10.00"> optimum</text>
</g>
</g>
</svg>
