<?xml version="1.0" encoding="UTF-8" standalone="no"?>
<!DOCTYPE svg PUBLIC "-//W3C//DTD SVG 1.1//EN"
 "http://www.w3.org/Graphics/SVG/1.1/DTD/svg11.dtd">
<!-- Generated by graphviz version 2.42.3 (20191010.1750)
 -->
<!-- Title: EquilibriumPathOptions Pages: 1 -->
<!--zoomable 462 -->
<svg id="main" version="1.1" xmlns="http://www.w3.org/2000/svg" xmlns:xlink="http://www.w3.org/1999/xlink" xml:space="preserve" onload="init(evt)">
<style type="text/css"><![CDATA[
.edge:hover path { stroke: red; }
.edge:hover polygon { stroke: red; fill: red; }
]]></style>
<script type="text/javascript"><![CDATA[
var edges = document.getElementsByTagName('g');
if (edges && edges.length) {
  for (var i=0;i<edges.length;i++) {
    if (edges[i].id.substr(0,4)=='edge') {
      edges[i].setAttribute('class','edge');
    }
  }
}
]]></script>
        <defs>
                <circle id="rim" cx="0" cy="0" r="7"/>
                <circle id="rim2" cx="0" cy="0" r="3.5"/>
                <g id="zoomPlus">
                        <use xlink:href="#rim" fill="#404040">
                                <set attributeName="fill" to="#808080" begin="zoomplus.mouseover" end="zoomplus.mouseout"/>
                        </use>
                        <path d="M-4,0h8M0,-4v8" fill="none" stroke="white" stroke-width="1.5" pointer-events="none"/>
                </g>
                <g id="zoomMin">
                        <use xlink:href="#rim" fill="#404040">
                                <set attributeName="fill" to="#808080" begin="zoomminus.mouseover" end="zoomminus.mouseout"/>
                        </use>
                        <path d="M-4,0h8" fill="none" stroke="white" stroke-width="1.5" pointer-events="none"/>
                </g>
                <g id="dirArrow">
                        <path fill="none" stroke="white" stroke-width="1.5" d="M0,-3.0v7 M-2.5,-0.5L0,-3.0L2.5,-0.5"/>
                </g>
               <g id="resetDef">
                       <use xlink:href="#rim2" fill="#404040">
                               <set attributeName="fill" to="#808080" begin="reset.mouseover" end="reset.mouseout"/>
                       </use>
               </g>
        </defs>

<script type="text/javascript">
var viewWidth = 1207;
var viewHeight = 462;
var sectionId = 'dynsection-0';
</script>
<script xlink:href="svgpan.js"/>
<svg id="graph" class="graph">
<g id="viewport">
<title>EquilibriumPathOptions</title>
<polygon fill="white" stroke="transparent" points="-4,4 -4,-458.15 1203,-458.15 1203,4 -4,4"/>
<!-- Node1 -->
<g id="node1" class="node">
<title>Node1</title>
<polygon fill="#bfbfbf" stroke="black" points="1080,-153.65 1080,-172.65 1199,-172.65 1199,-153.65 1080,-153.65"/>
<text text-anchor="middle" x="1139.5" y="-160.65" font-family="Helvetica,sans-Serif" font-size="10.00">EquilibriumPathOptions</text>
</g>
<!-- Node2 -->
<g id="node2" class="node">
<title>Node2</title>
<g id="a_node2"><a xlink:href="structReaktoro_1_1ODEOptions.html" target="_top" xlink:title="A struct that defines the options for the ODESolver. ">
<polygon fill="white" stroke="black" points="909,-172.65 909,-191.65 981,-191.65 981,-172.65 909,-172.65"/>
<text text-anchor="middle" x="945" y="-179.65" font-family="Helvetica,sans-Serif" font-size="10.00">ODEOptions</text>
</a>
</g>
</g>
<!-- Node2&#45;&gt;Node1 -->
<g id="edge1" class="edge">
<title>Node2&#45;&gt;Node1</title>
<path fill="none" stroke="#9a32cd" stroke-dasharray="5,2" d="M991.44,-177.67C1017.9,-175.06 1051.55,-171.73 1079.98,-168.93"/>
<polygon fill="#9a32cd" stroke="#9a32cd" points="990.92,-174.2 981.31,-178.67 991.6,-181.17 990.92,-174.2"/>
<text text-anchor="middle" x="1037" y="-178.15" font-family="Helvetica,sans-Serif" font-size="10.00"> ode</text>
</g>
<!-- Node3 -->
<g id="node3" class="node">
<title>Node3</title>
<g id="a_node3"><a xlink:href="structReaktoro_1_1EquilibriumOptions.html" target="_top" xlink:title="The options for the equilibrium calculations. ">
<polygon fill="white" stroke="black" points="896,-134.65 896,-153.65 994,-153.65 994,-134.65 896,-134.65"/>
<text text-anchor="middle" x="945" y="-141.65" font-family="Helvetica,sans-Serif" font-size="10.00">EquilibriumOptions</text>
</a>
</g>
</g>
<!-- Node3&#45;&gt;Node1 -->
<g id="edge2" class="edge">
<title>Node3&#45;&gt;Node1</title>
<path fill="none" stroke="#9a32cd" stroke-dasharray="5,2" d="M1004.29,-149.57C1022.75,-151.31 1043.23,-153.28 1062,-155.15 1067.71,-155.72 1073.67,-156.33 1079.62,-156.94"/>
<polygon fill="#9a32cd" stroke="#9a32cd" points="1004.55,-146.08 994.26,-148.62 1003.89,-153.05 1004.55,-146.08"/>
<text text-anchor="middle" x="1037" y="-158.15" font-family="Helvetica,sans-Serif" font-size="10.00"> equilibrium</text>
</g>
<!-- Node4 -->
<g id="node4" class="node">
<title>Node4</title>
<g id="a_node4"><a xlink:href="structReaktoro_1_1OptimumOptions.html" target="_top" xlink:title="A type that describes the options of a optimisation calculation. ">
<polygon fill="white" stroke="black" points="709.5,-244.65 709.5,-263.65 799.5,-263.65 799.5,-244.65 709.5,-244.65"/>
<text text-anchor="middle" x="754.5" y="-251.65" font-family="Helvetica,sans-Serif" font-size="10.00">OptimumOptions</text>
</a>
</g>
</g>
<!-- Node4&#45;&gt;Node3 -->
<g id="edge3" class="edge">
<title>Node4&#45;&gt;Node3</title>
<path fill="none" stroke="#9a32cd" stroke-dasharray="5,2" d="M776.79,-238.45C803.64,-219.1 851.67,-186 896,-163.15 902.69,-159.7 910.16,-156.47 917.18,-153.69"/>
<polygon fill="#9a32cd" stroke="#9a32cd" points="774.56,-235.74 768.53,-244.45 778.68,-241.4 774.56,-235.74"/>
<text text-anchor="middle" x="856.5" y="-200.15" font-family="Helvetica,sans-Serif" font-size="10.00"> optimum</text>
</g>
<!-- Node5 -->
<g id="node5" class="node">
<title>Node5</title>
<g id="a_node5"><a xlink:href="structReaktoro_1_1OptimumParamsIpAction.html" target="_top" xlink:title="OptimumParamsIpAction">
<polygon fill="white" stroke="black" points="456,-434.65 456,-453.65 582,-453.65 582,-434.65 456,-434.65"/>
<text text-anchor="middle" x="519" y="-441.65" font-family="Helvetica,sans-Serif" font-size="10.00">OptimumParamsIpAction</text>
</a>
</g>
</g>
<!-- Node5&#45;&gt;Node4 -->
<g id="edge4" class="edge">
<title>Node5&#45;&gt;Node4</title>
<path fill="none" stroke="#9a32cd" stroke-dasharray="5,2" d="M592.32,-438.99C620.19,-433.94 650.85,-424.32 674,-406.15 722.96,-367.73 744.97,-290.73 751.4,-263.76"/>
<polygon fill="#9a32cd" stroke="#9a32cd" points="591.5,-435.58 582.2,-440.65 592.63,-442.48 591.5,-435.58"/>
<text text-anchor="middle" x="643.5" y="-436.15" font-family="Helvetica,sans-Serif" font-size="10.00"> ipaction</text>
</g>
<!-- Node6 -->
<g id="node6" class="node">
<title>Node6</title>
<g id="a_node6"><a xlink:href="structReaktoro_1_1OptimumParamsIpOpt.html" target="_top" xlink:title="OptimumParamsIpOpt">
<polygon fill="white" stroke="black" points="462,-396.65 462,-415.65 576,-415.65 576,-396.65 462,-396.65"/>
<text text-anchor="middle" x="519" y="-403.65" font-family="Helvetica,sans-Serif" font-size="10.00">OptimumParamsIpOpt</text>
</a>
</g>
</g>
<!-- Node6&#45;&gt;Node4 -->
<g id="edge5" class="edge">
<title>Node6&#45;&gt;Node4</title>
<path fill="none" stroke="#9a32cd" stroke-dasharray="5,2" d="M586.39,-398.39C615.31,-392.52 648.37,-382.22 674,-364.15 712.51,-337 739.37,-285.13 749.28,-263.74"/>
<polygon fill="#9a32cd" stroke="#9a32cd" points="585.53,-394.99 576.36,-400.29 586.84,-401.87 585.53,-394.99"/>
<text text-anchor="middle" x="643.5" y="-394.15" font-family="Helvetica,sans-Serif" font-size="10.00"> ipopt</text>
</g>
<!-- Node7 -->
<g id="node7" class="node">
<title>Node7</title>
<polygon fill="white" stroke="#bfbfbf" points="271.5,-396.65 271.5,-415.65 361.5,-415.65 361.5,-396.65 271.5,-396.65"/>
<text text-anchor="middle" x="316.5" y="-403.65" font-family="Helvetica,sans-Serif" font-size="10.00">vector&lt; double &gt;</text>
</g>
<!-- Node7&#45;&gt;Node6 -->
<g id="edge6" class="edge">
<title>Node7&#45;&gt;Node6</title>
<path fill="none" stroke="#9a32cd" stroke-dasharray="5,2" d="M371.51,-406.15C399.48,-406.15 433.61,-406.15 461.88,-406.15"/>
<polygon fill="#9a32cd" stroke="#9a32cd" points="371.5,-402.65 361.5,-406.15 371.5,-409.65 371.5,-402.65"/>
<text text-anchor="middle" x="406" y="-409.15" font-family="Helvetica,sans-Serif" font-size="10.00"> mu</text>
</g>
<!-- Node8 -->
<g id="node8" class="node">
<title>Node8</title>
<g id="a_node8"><a xlink:href="structReaktoro_1_1OptimumParamsIpActive.html" target="_top" xlink:title="OptimumParamsIpActive">
<polygon fill="white" stroke="black" points="456,-358.65 456,-377.65 582,-377.65 582,-358.65 456,-358.65"/>
<text text-anchor="middle" x="519" y="-365.65" font-family="Helvetica,sans-Serif" font-size="10.00">OptimumParamsIpActive</text>
</a>
</g>
</g>
<!-- Node8&#45;&gt;Node4 -->
<g id="edge7" class="edge">
<title>Node8&#45;&gt;Node4</title>
<path fill="none" stroke="#9a32cd" stroke-dasharray="5,2" d="M588.87,-356.34C616.51,-349.74 647.92,-339.81 674,-325.15 703.68,-308.47 731.77,-279.09 745.22,-263.88"/>
<polygon fill="#9a32cd" stroke="#9a32cd" points="587.85,-352.98 578.88,-358.62 589.41,-359.8 587.85,-352.98"/>
<text text-anchor="middle" x="643.5" y="-352.15" font-family="Helvetica,sans-Serif" font-size="10.00"> ipactive</text>
</g>
<!-- Node9 -->
<g id="node9" class="node">
<title>Node9</title>
<g id="a_node9"><a xlink:href="structReaktoro_1_1OptimumParamsIpNewton.html" target="_top" xlink:title="OptimumParamsIpNewton">
<polygon fill="white" stroke="black" points="453,-320.65 453,-339.65 585,-339.65 585,-320.65 453,-320.65"/>
<text text-anchor="middle" x="519" y="-327.65" font-family="Helvetica,sans-Serif" font-size="10.00">OptimumParamsIpNewton</text>
</a>
</g>
</g>
<!-- Node9&#45;&gt;Node4 -->
<g id="edge8" class="edge">
<title>Node9&#45;&gt;Node4</title>
<path fill="none" stroke="#9a32cd" stroke-dasharray="5,2" d="M581.99,-318.52C610.45,-312.36 644.38,-303.83 674,-293.15 696.42,-285.07 720.83,-272.48 736.61,-263.8"/>
<polygon fill="#9a32cd" stroke="#9a32cd" points="581.22,-315.11 572.17,-320.6 582.68,-321.95 581.22,-315.11"/>
<text text-anchor="middle" x="643.5" y="-313.15" font-family="Helvetica,sans-Serif" font-size="10.00"> ipnewton</text>
</g>
<!-- Node10 -->
<g id="node10" class="node">
<title>Node10</title>
<g id="a_node10"><a xlink:href="structReaktoro_1_1KktOptions.html" target="_top" xlink:title="A type to describe the options for the KKT calculation. ">
<polygon fill="white" stroke="black" points="486.5,-282.65 486.5,-301.65 551.5,-301.65 551.5,-282.65 486.5,-282.65"/>
<text text-anchor="middle" x="519" y="-289.65" font-family="Helvetica,sans-Serif" font-size="10.00">KktOptions</text>
</a>
</g>
</g>
<!-- Node10&#45;&gt;Node4 -->
<g id="edge9" class="edge">
<title>Node10&#45;&gt;Node4</title>
<path fill="none" stroke="#9a32cd" stroke-dasharray="5,2" d="M561.64,-286.37C592.66,-281.96 636.04,-275.56 674,-269.15 685.49,-267.21 697.89,-264.95 709.4,-262.78"/>
<polygon fill="#9a32cd" stroke="#9a32cd" points="561.03,-282.92 551.61,-287.79 562.01,-289.86 561.03,-282.92"/>
<text text-anchor="middle" x="643.5" y="-281.15" font-family="Helvetica,sans-Serif" font-size="10.00"> kkt</text>
</g>
<!-- Node11 -->
<g id="node11" class="node">
<title>Node11</title>
<g id="a_node11"><a xlink:href="structReaktoro_1_1OptimumParamsRegularization.html" target="_top" xlink:title="A type that describes the regularization options for the optimisation calculation. ">
<polygon fill="white" stroke="black" points="443,-244.65 443,-263.65 595,-263.65 595,-244.65 443,-244.65"/>
<text text-anchor="middle" x="519" y="-251.65" font-family="Helvetica,sans-Serif" font-size="10.00">OptimumParamsRegularization</text>
</a>
</g>
</g>
<!-- Node11&#45;&gt;Node4 -->
<g id="edge10" class="edge">
<title>Node11&#45;&gt;Node4</title>
<path fill="none" stroke="#9a32cd" stroke-dasharray="5,2" d="M605.48,-254.15C640.77,-254.15 680.18,-254.15 709.45,-254.15"/>
<polygon fill="#9a32cd" stroke="#9a32cd" points="605.17,-250.65 595.17,-254.15 605.17,-257.65 605.17,-250.65"/>
<text text-anchor="middle" x="643.5" y="-257.15" font-family="Helvetica,sans-Serif" font-size="10.00"> regularization</text>
</g>
<!-- Node12 -->
<g id="node12" class="node">
<title>Node12</title>
<g id="a_node12"><a xlink:href="structReaktoro_1_1RegularizerOptions.html" target="_top" xlink:title="A type that describes the options for regularizing linear constraints. ">
<polygon fill="white" stroke="black" points="266.5,-244.65 266.5,-263.65 366.5,-263.65 366.5,-244.65 266.5,-244.65"/>
<text text-anchor="middle" x="316.5" y="-251.65" font-family="Helvetica,sans-Serif" font-size="10.00">RegularizerOptions</text>
</a>
</g>
</g>
<!-- Node12&#45;&gt;Node11 -->
<g id="edge11" class="edge">
<title>Node12&#45;&gt;Node11</title>
<path fill="none" stroke="midnightblue" d="M376.79,-254.15C397.5,-254.15 421.04,-254.15 442.88,-254.15"/>
<polygon fill="midnightblue" stroke="midnightblue" points="376.55,-250.65 366.55,-254.15 376.55,-257.65 376.55,-250.65"/>
</g>
<!-- Node13 -->
<g id="node13" class="node">
<title>Node13</title>
<g id="a_node13"><a xlink:href="structReaktoro_1_1OptimumParamsRefiner.html" target="_top" xlink:title="OptimumParamsRefiner">
<polygon fill="white" stroke="black" points="458,-206.65 458,-225.65 580,-225.65 580,-206.65 458,-206.65"/>
<text text-anchor="middle" x="519" y="-213.65" font-family="Helvetica,sans-Serif" font-size="10.00">OptimumParamsRefiner</text>
</a>
</g>
</g>
<!-- Node13&#45;&gt;Node4 -->
<g id="edge12" class="edge">
<title>Node13&#45;&gt;Node4</title>
<path fill="none" stroke="#9a32cd" stroke-dasharray="5,2" d="M589.96,-226.02C616.34,-229.9 646.58,-234.52 674,-239.15 685.49,-241.09 697.89,-243.35 709.4,-245.52"/>
<polygon fill="#9a32cd" stroke="#9a32cd" points="590.46,-222.56 580.05,-224.58 589.44,-229.49 590.46,-222.56"/>
<text text-anchor="middle" x="643.5" y="-242.15" font-family="Helvetica,sans-Serif" font-size="10.00"> refiner</text>
</g>
<!-- Node14 -->
<g id="node14" class="node">
<title>Node14</title>
<g id="a_node14"><a xlink:href="structReaktoro_1_1OptimumParamsKarpov.html" target="_top" xlink:title="OptimumParamsKarpov">
<polygon fill="white" stroke="black" points="458.5,-168.65 458.5,-187.65 579.5,-187.65 579.5,-168.65 458.5,-168.65"/>
<text text-anchor="middle" x="519" y="-175.65" font-family="Helvetica,sans-Serif" font-size="10.00">OptimumParamsKarpov</text>
</a>
</g>
</g>
<!-- Node14&#45;&gt;Node4 -->
<g id="edge13" class="edge">
<title>Node14&#45;&gt;Node4</title>
<path fill="none" stroke="#9a32cd" stroke-dasharray="5,2" d="M584.76,-189.74C612.66,-195.63 645.38,-203.77 674,-214.15 696.8,-222.42 721.54,-235.59 737.26,-244.54"/>
<polygon fill="#9a32cd" stroke="#9a32cd" points="585.22,-186.26 574.72,-187.67 583.81,-193.11 585.22,-186.26"/>
<text text-anchor="middle" x="643.5" y="-217.15" font-family="Helvetica,sans-Serif" font-size="10.00"> karpov</text>
</g>
<!-- Node15 -->
<g id="node15" class="node">
<title>Node15</title>
<g id="a_node15"><a xlink:href="structReaktoro_1_1OptimumParamsActNewton.html" target="_top" xlink:title="OptimumParamsActNewton">
<polygon fill="white" stroke="black" points="449.5,-130.65 449.5,-149.65 588.5,-149.65 588.5,-130.65 449.5,-130.65"/>
<text text-anchor="middle" x="519" y="-137.65" font-family="Helvetica,sans-Serif" font-size="10.00">OptimumParamsActNewton</text>
</a>
</g>
</g>
<!-- Node15&#45;&gt;Node4 -->
<g id="edge14" class="edge">
<title>Node15&#45;&gt;Node4</title>
<path fill="none" stroke="#9a32cd" stroke-dasharray="5,2" d="M593.38,-151.94C619.89,-158.16 649.34,-167.45 674,-181.15 704.47,-198.08 732.63,-228.95 745.75,-244.56"/>
<polygon fill="#9a32cd" stroke="#9a32cd" points="593.9,-148.47 583.38,-149.7 592.37,-155.3 593.9,-148.47"/>
<text text-anchor="middle" x="643.5" y="-184.15" font-family="Helvetica,sans-Serif" font-size="10.00"> actnewton</text>
</g>
<!-- Node16 -->
<g id="node16" class="node">
<title>Node16</title>
<g id="a_node16"><a xlink:href="structReaktoro_1_1OptimumOutputOptions.html" target="_top" xlink:title="A type that describes the options for the output of a optimisation calculation. ">
<polygon fill="white" stroke="black" points="459.5,-92.65 459.5,-111.65 578.5,-111.65 578.5,-92.65 459.5,-92.65"/>
<text text-anchor="middle" x="519" y="-99.65" font-family="Helvetica,sans-Serif" font-size="10.00">OptimumOutputOptions</text>
</a>
</g>
</g>
<!-- Node16&#45;&gt;Node4 -->
<g id="edge15" class="edge">
<title>Node16&#45;&gt;Node4</title>
<path fill="none" stroke="#9a32cd" stroke-dasharray="5,2" d="M588.38,-108.88C616.79,-114.25 648.9,-123.88 674,-141.15 679.16,-144.71 728.88,-217.77 746.97,-244.48"/>
<polygon fill="#9a32cd" stroke="#9a32cd" points="588.96,-105.43 578.51,-107.16 587.76,-112.33 588.96,-105.43"/>
<text text-anchor="middle" x="643.5" y="-144.15" font-family="Helvetica,sans-Serif" font-size="10.00"> output</text>
</g>
<!-- Node17 -->
<g id="node17" class="node">
<title>Node17</title>
<g id="a_node17"><a xlink:href="structReaktoro_1_1OutputterOptions.html" target="_top" xlink:title="OutputterOptions">
<polygon fill="white" stroke="black" points="271,-100.65 271,-119.65 362,-119.65 362,-100.65 271,-100.65"/>
<text text-anchor="middle" x="316.5" y="-107.65" font-family="Helvetica,sans-Serif" font-size="10.00">OutputterOptions</text>
</a>
</g>
</g>
<!-- Node17&#45;&gt;Node16 -->
<g id="edge16" class="edge">
<title>Node17&#45;&gt;Node16</title>
<path fill="none" stroke="midnightblue" d="M372.34,-119.65C377.29,-120.26 382.23,-120.78 387,-121.15 403.84,-122.48 408.2,-122.85 425,-121.15 443.36,-119.3 463.46,-115.43 480.26,-111.66"/>
<polygon fill="midnightblue" stroke="midnightblue" points="372.62,-116.16 362.24,-118.29 371.68,-123.09 372.62,-116.16"/>
</g>
<!-- Node22 -->
<g id="node22" class="node">
<title>Node22</title>
<g id="a_node22"><a xlink:href="structReaktoro_1_1NonlinearOutput.html" target="_top" xlink:title="A type that describes the options for the output of a non&#45;linear problem calculation. ">
<polygon fill="white" stroke="black" points="475.5,-47.65 475.5,-66.65 562.5,-66.65 562.5,-47.65 475.5,-47.65"/>
<text text-anchor="middle" x="519" y="-54.65" font-family="Helvetica,sans-Serif" font-size="10.00">NonlinearOutput</text>
</a>
</g>
</g>
<!-- Node17&#45;&gt;Node22 -->
<g id="edge24" class="edge">
<title>Node17&#45;&gt;Node22</title>
<path fill="none" stroke="midnightblue" d="M372.15,-108.29C389.51,-106.33 408.47,-102.71 425,-96.15 434.17,-92.51 434.25,-87.71 443,-83.15 455.72,-76.54 470.48,-71.01 483.52,-66.77"/>
<polygon fill="midnightblue" stroke="midnightblue" points="371.76,-104.81 362.15,-109.27 372.44,-111.78 371.76,-104.81"/>
</g>
<!-- Node18 -->
<g id="node18" class="node">
<title>Node18</title>
<g id="a_node18"><a xlink:title="STL class. ">
<polygon fill="white" stroke="#bfbfbf" points="143,-83.65 143,-102.65 184,-102.65 184,-83.65 143,-83.65"/>
<text text-anchor="middle" x="163.5" y="-90.65" font-family="Helvetica,sans-Serif" font-size="10.00">string</text>
</a>
</g>
</g>
<!-- Node18&#45;&gt;Node16 -->
<g id="edge19" class="edge">
<title>Node18&#45;&gt;Node16</title>
<path fill="none" stroke="#9a32cd" stroke-dasharray="5,2" d="M184.67,-108.79C190.06,-112.34 196.05,-115.76 202,-118.15 294.24,-155.19 330.98,-167.41 425,-135.15 434.59,-131.86 433.89,-125.6 443,-121.15 450.84,-117.32 459.54,-114.21 468.15,-111.7"/>
<polygon fill="#9a32cd" stroke="#9a32cd" points="186.46,-105.77 176.28,-102.85 182.42,-111.48 186.46,-105.77"/>
<text text-anchor="middle" x="316.5" y="-178.15" font-family="Helvetica,sans-Serif" font-size="10.00"> xprefix</text>
<text text-anchor="middle" x="316.5" y="-167.15" font-family="Helvetica,sans-Serif" font-size="10.00">yprefix</text>
<text text-anchor="middle" x="316.5" y="-156.15" font-family="Helvetica,sans-Serif" font-size="10.00">zprefix</text>
</g>
<!-- Node18&#45;&gt;Node17 -->
<g id="edge17" class="edge">
<title>Node18&#45;&gt;Node17</title>
<path fill="none" stroke="#9a32cd" stroke-dasharray="5,2" d="M194.26,-96.5C216.14,-98.97 246.24,-102.36 270.98,-105.14"/>
<polygon fill="#9a32cd" stroke="#9a32cd" points="194.57,-93.02 184.24,-95.37 193.79,-99.97 194.57,-93.02"/>
<text text-anchor="middle" x="224" y="-106.15" font-family="Helvetica,sans-Serif" font-size="10.00"> separator</text>
</g>
<!-- Node20 -->
<g id="node20" class="node">
<title>Node20</title>
<polygon fill="white" stroke="#bfbfbf" points="264,-52.65 264,-71.65 369,-71.65 369,-52.65 264,-52.65"/>
<text text-anchor="middle" x="316.5" y="-59.65" font-family="Helvetica,sans-Serif" font-size="10.00">vector&lt; std::string &gt;</text>
</g>
<!-- Node18&#45;&gt;Node20 -->
<g id="edge21" class="edge">
<title>Node18&#45;&gt;Node20</title>
<path fill="none" stroke="#9a32cd" stroke-dasharray="5,2" d="M194.23,-85C196.85,-84.35 199.47,-83.72 202,-83.15 222.13,-78.61 244.44,-74.33 263.91,-70.82"/>
<polygon fill="#9a32cd" stroke="#9a32cd" points="193.09,-81.68 184.28,-87.57 194.84,-88.46 193.09,-81.68"/>
<text text-anchor="middle" x="224" y="-86.15" font-family="Helvetica,sans-Serif" font-size="10.00"> elements</text>
</g>
<!-- Node18&#45;&gt;Node22 -->
<g id="edge25" class="edge">
<title>Node18&#45;&gt;Node22</title>
<path fill="none" stroke="#9a32cd" stroke-dasharray="5,2" d="M181.18,-76.56C199.68,-59.33 231.24,-33.25 264,-21.15 331.25,3.68 355.19,5.17 425,-11.15 454.99,-18.16 486.41,-36.33 503.97,-47.63"/>
<polygon fill="#9a32cd" stroke="#9a32cd" points="178.68,-74.11 173.87,-83.55 183.52,-79.17 178.68,-74.11"/>
<text text-anchor="middle" x="316.5" y="-35.15" font-family="Helvetica,sans-Serif" font-size="10.00"> fprefix</text>
<text text-anchor="middle" x="316.5" y="-24.15" font-family="Helvetica,sans-Serif" font-size="10.00">xprefix</text>
</g>
<!-- Node19 -->
<g id="node19" class="node">
<title>Node19</title>
<g id="a_node19"><a xlink:title="STL class. ">
<polygon fill="white" stroke="#bfbfbf" points="0,-83.65 0,-102.65 106,-102.65 106,-83.65 0,-83.65"/>
<text text-anchor="middle" x="53" y="-90.65" font-family="Helvetica,sans-Serif" font-size="10.00">basic_string&lt; char &gt;</text>
</a>
</g>
</g>
<!-- Node19&#45;&gt;Node18 -->
<g id="edge18" class="edge">
<title>Node19&#45;&gt;Node18</title>
<path fill="none" stroke="midnightblue" d="M116.19,-93.15C125.87,-93.15 135.21,-93.15 142.93,-93.15"/>
<polygon fill="midnightblue" stroke="midnightblue" points="116.03,-89.65 106.03,-93.15 116.03,-96.65 116.03,-89.65"/>
</g>
<!-- Node20&#45;&gt;Node16 -->
<g id="edge20" class="edge">
<title>Node20&#45;&gt;Node16</title>
<path fill="none" stroke="#9a32cd" stroke-dasharray="5,2" d="M375.22,-73.67C405.34,-79.68 441.74,-86.94 470.25,-92.63"/>
<polygon fill="#9a32cd" stroke="#9a32cd" points="375.76,-70.21 365.27,-71.68 374.39,-77.07 375.76,-70.21"/>
<text text-anchor="middle" x="406" y="-109.15" font-family="Helvetica,sans-Serif" font-size="10.00"> znames</text>
<text text-anchor="middle" x="406" y="-98.15" font-family="Helvetica,sans-Serif" font-size="10.00">ynames</text>
<text text-anchor="middle" x="406" y="-87.15" font-family="Helvetica,sans-Serif" font-size="10.00">xnames</text>
</g>
<!-- Node20&#45;&gt;Node22 -->
<g id="edge26" class="edge">
<title>Node20&#45;&gt;Node22</title>
<path fill="none" stroke="#9a32cd" stroke-dasharray="5,2" d="M336.18,-46.18C349.41,-35.96 368.1,-23.63 387,-18.15 429.62,-5.8 479.87,-32.3 503.87,-47.49"/>
<polygon fill="#9a32cd" stroke="#9a32cd" points="333.92,-43.5 328.32,-52.5 338.31,-48.96 333.92,-43.5"/>
<text text-anchor="middle" x="406" y="-32.15" font-family="Helvetica,sans-Serif" font-size="10.00"> fnames</text>
<text text-anchor="middle" x="406" y="-21.15" font-family="Helvetica,sans-Serif" font-size="10.00">xnames</text>
</g>
<!-- Node21 -->
<g id="node21" class="node">
<title>Node21</title>
<g id="a_node21"><a xlink:href="structReaktoro_1_1NonlinearOptions.html" target="_top" xlink:title="A type that describes the options for the solution of a non&#45;linear problem. ">
<polygon fill="white" stroke="black" points="708.5,-134.65 708.5,-153.65 800.5,-153.65 800.5,-134.65 708.5,-134.65"/>
<text text-anchor="middle" x="754.5" y="-141.65" font-family="Helvetica,sans-Serif" font-size="10.00">NonlinearOptions</text>
</a>
</g>
</g>
<!-- Node21&#45;&gt;Node3 -->
<g id="edge22" class="edge">
<title>Node21&#45;&gt;Node3</title>
<path fill="none" stroke="#9a32cd" stroke-dasharray="5,2" d="M810.72,-144.15C837.73,-144.15 869.94,-144.15 895.92,-144.15"/>
<polygon fill="#9a32cd" stroke="#9a32cd" points="810.65,-140.65 800.65,-144.15 810.65,-147.65 810.65,-140.65"/>
<text text-anchor="middle" x="856.5" y="-147.15" font-family="Helvetica,sans-Serif" font-size="10.00"> nonlinear</text>
</g>
<!-- Node22&#45;&gt;Node21 -->
<g id="edge23" class="edge">
<title>Node22&#45;&gt;Node21</title>
<path fill="none" stroke="#9a32cd" stroke-dasharray="5,2" d="M573.04,-48.39C605.48,-46.07 645.99,-48.97 674,-71.15 693.83,-86.86 673.91,-107.46 692,-125.15 696.63,-129.68 702.32,-133.14 708.36,-135.77"/>
<polygon fill="#9a32cd" stroke="#9a32cd" points="572.46,-44.93 562.81,-49.32 573.09,-51.9 572.46,-44.93"/>
<text text-anchor="middle" x="643.5" y="-74.15" font-family="Helvetica,sans-Serif" font-size="10.00"> output</text>
</g>
<!-- Node23 -->
<g id="node23" class="node">
<title>Node23</title>
<g id="a_node23"><a xlink:href="structReaktoro_1_1SmartEquilibriumOptions.html" target="_top" xlink:title="The options for the smart equilibrium calculations. ">
<polygon fill="white" stroke="black" points="692,-96.65 692,-115.65 817,-115.65 817,-96.65 692,-96.65"/>
<text text-anchor="middle" x="754.5" y="-103.65" font-family="Helvetica,sans-Serif" font-size="10.00">SmartEquilibriumOptions</text>
</a>
</g>
</g>
<!-- Node23&#45;&gt;Node3 -->
<g id="edge27" class="edge">
<title>Node23&#45;&gt;Node3</title>
<path fill="none" stroke="#9a32cd" stroke-dasharray="5,2" d="M818.73,-117.55C837.81,-121.12 858.78,-125.17 878,-129.15 886.17,-130.85 894.88,-132.76 903.21,-134.63"/>
<polygon fill="#9a32cd" stroke="#9a32cd" points="819.12,-114.06 808.65,-115.68 817.84,-120.95 819.12,-114.06"/>
<text text-anchor="middle" x="856.5" y="-132.15" font-family="Helvetica,sans-Serif" font-size="10.00"> smart</text>
</g>
</g>
</svg>
        <g id="navigator" transform="translate(0 0)" fill="#404254">
                <rect fill="#f2f5e9" fill-opacity="0.5" stroke="#606060" stroke-width=".5" x="0" y="0" width="60" height="60"/>
                <use id="zoomplus" xlink:href="#zoomPlus" x="17" y="9" onmousedown="handleZoom(evt,'in')"/>
                <use id="zoomminus" xlink:href="#zoomMin" x="42" y="9" onmousedown="handleZoom(evt,'out')"/>
                <use id="reset" xlink:href="#resetDef" x="30" y="36" onmousedown="handleReset()"/>
                <g id="arrowUp" xlink:href="#dirArrow" transform="translate(30 24)" onmousedown="handlePan(0,-1)">
                  <use xlink:href="#rim" fill="#404040">
                        <set attributeName="fill" to="#808080" begin="arrowUp.mouseover" end="arrowUp.mouseout"/>
                  </use>
                  <path fill="none" stroke="white" stroke-width="1.5" d="M0,-3.0v7 M-2.5,-0.5L0,-3.0L2.5,-0.5"/>
                </g>
                <g id="arrowRight" xlink:href="#dirArrow" transform="rotate(90) translate(36 -43)" onmousedown="handlePan(1,0)">
                  <use xlink:href="#rim" fill="#404040">
                        <set attributeName="fill" to="#808080" begin="arrowRight.mouseover" end="arrowRight.mouseout"/>
                  </use>
                  <path fill="none" stroke="white" stroke-width="1.5" d="M0,-3.0v7 M-2.5,-0.5L0,-3.0L2.5,-0.5"/>
                </g>
                <g id="arrowDown" xlink:href="#dirArrow" transform="rotate(180) translate(-30 -48)" onmousedown="handlePan(0,1)">
                  <use xlink:href="#rim" fill="#404040">
                        <set attributeName="fill" to="#808080" begin="arrowDown.mouseover" end="arrowDown.mouseout"/>
                  </use>
                  <path fill="none" stroke="white" stroke-width="1.5" d="M0,-3.0v7 M-2.5,-0.5L0,-3.0L2.5,-0.5"/>
                </g>
                <g id="arrowLeft" xlink:href="#dirArrow" transform="rotate(270) translate(-36 17)" onmousedown="handlePan(-1,0)">
                  <use xlink:href="#rim" fill="#404040">
                        <set attributeName="fill" to="#808080" begin="arrowLeft.mouseover" end="arrowLeft.mouseout"/>
                  </use>
                  <path fill="none" stroke="white" stroke-width="1.5" d="M0,-3.0v7 M-2.5,-0.5L0,-3.0L2.5,-0.5"/>
                </g>
        </g>
        <svg viewBox="0 0 15 15" width="100%" height="30px" preserveAspectRatio="xMaxYMin meet">
         <g id="arrow_out" transform="scale(0.3 0.3)">
          <a xlink:href="structReaktoro_1_1EquilibriumPathOptions__coll__graph_org.svg" target="_base">
           <rect id="button" ry="5" rx="5" y="6" x="6" height="38" width="38"
                fill="#f2f5e9" fill-opacity="0.5" stroke="#606060" stroke-width="1.0"/>
           <path id="arrow"
             d="M 11.500037,31.436501 C 11.940474,20.09759 22.043105,11.32322 32.158766,21.979434 L 37.068811,17.246167 C 37.068811,17.246167 37.088388,32 37.088388,32 L 22.160133,31.978069 C 22.160133,31.978069 26.997745,27.140456 26.997745,27.140456 C 18.528582,18.264221 13.291696,25.230495 11.500037,31.436501 z"
             style="fill:#404040;"/>
          </a>
         </g>
        </svg>
</svg>
