<?xml version="1.0" encoding="UTF-8" standalone="no"?>
<!DOCTYPE svg PUBLIC "-//W3C//DTD SVG 1.1//EN"
 "http://www.w3.org/Graphics/SVG/1.1/DTD/svg11.dtd">
<!-- Generated by graphviz version 2.42.3 (20191010.1750)
 -->
<!-- Title: AqueousMixtureState Pages: 1 -->
<!--zoomable 228 -->
<svg id="main" version="1.1" xmlns="http://www.w3.org/2000/svg" xmlns:xlink="http://www.w3.org/1999/xlink" xml:space="preserve" onload="init(evt)">
<style type="text/css"><![CDATA[
.edge:hover path { stroke: red; }
.edge:hover polygon { stroke: red; fill: red; }
]]></style>
<script type="text/javascript"><![CDATA[
var edges = document.getElementsByTagName('g');
if (edges && edges.length) {
  for (var i=0;i<edges.length;i++) {
    if (edges[i].id.substr(0,4)=='edge') {
      edges[i].setAttribute('class','edge');
    }
  }
}
]]></script>
        <defs>
                <circle id="rim" cx="0" cy="0" r="7"/>
                <circle id="rim2" cx="0" cy="0" r="3.5"/>
                <g id="zoomPlus">
                        <use xlink:href="#rim" fill="#404040">
                                <set attributeName="fill" to="#808080" begin="zoomplus.mouseover" end="zoomplus.mouseout"/>
                        </use>
                        <path d="M-4,0h8M0,-4v8" fill="none" stroke="white" stroke-width="1.5" pointer-events="none"/>
                </g>
                <g id="zoomMin">
                        <use xlink:href="#rim" fill="#404040">
                                <set attributeName="fill" to="#808080" begin="zoomminus.mouseover" end="zoomminus.mouseout"/>
                        </use>
                        <path d="M-4,0h8" fill="none" stroke="white" stroke-width="1.5" pointer-events="none"/>
                </g>
                <g id="dirArrow">
                        <path fill="none" stroke="white" stroke-width="1.5" d="M0,-3.0v7 M-2.5,-0.5L0,-3.0L2.5,-0.5"/>
                </g>
               <g id="resetDef">
                       <use xlink:href="#rim2" fill="#404040">
                               <set attributeName="fill" to="#808080" begin="reset.mouseover" end="reset.mouseout"/>
                       </use>
               </g>
        </defs>

<script type="text/javascript">
var viewWidth = 617;
var viewHeight = 228;
var sectionId = 'dynsection-1';
</script>
<script xlink:href="svgpan.js"/>
<svg id="graph" class="graph">
<g id="viewport">
<title>AqueousMixtureState</title>
<polygon fill="white" stroke="transparent" points="-4,4 -4,-223.5 613,-223.5 613,4 -4,4"/>
<!-- Node1 -->
<g id="node1" class="node">
<title>Node1</title>
<polygon fill="#bfbfbf" stroke="black" points="499,-73 499,-92 609,-92 609,-73 499,-73"/>
<text text-anchor="middle" x="554" y="-80" font-family="Helvetica,sans-Serif" font-size="10.00">AqueousMixtureState</text>
</g>
<!-- Node2 -->
<g id="node2" class="node">
<title>Node2</title>
<g id="a_node2"><a xlink:href="structReaktoro_1_1MixtureState.html" target="_top" xlink:title="A type used to describe the state of a mixture. ">
<polygon fill="white" stroke="black" points="323,-155 323,-174 395,-174 395,-155 323,-155"/>
<text text-anchor="middle" x="359" y="-162" font-family="Helvetica,sans-Serif" font-size="10.00">MixtureState</text>
</a>
</g>
</g>
<!-- Node2&#45;&gt;Node1 -->
<g id="edge1" class="edge">
<title>Node2&#45;&gt;Node1</title>
<path fill="none" stroke="midnightblue" d="M398.22,-151.59C422.27,-143.15 453.78,-131.5 481,-119.5 500.16,-111.05 521.41,-99.9 535.82,-92.06"/>
<polygon fill="midnightblue" stroke="midnightblue" points="397.04,-148.3 388.74,-154.89 399.34,-154.91 397.04,-148.3"/>
</g>
<!-- Node3 -->
<g id="node3" class="node">
<title>Node3</title>
<g id="a_node3"><a xlink:href="classReaktoro_1_1Temperature.html" target="_top" xlink:title="A type that describes temperature in units of K. ">
<polygon fill="white" stroke="black" points="141.5,-200 141.5,-219 212.5,-219 212.5,-200 141.5,-200"/>
<text text-anchor="middle" x="177" y="-207" font-family="Helvetica,sans-Serif" font-size="10.00">Temperature</text>
</a>
</g>
</g>
<!-- Node3&#45;&gt;Node2 -->
<g id="edge2" class="edge">
<title>Node3&#45;&gt;Node2</title>
<path fill="none" stroke="#9a32cd" stroke-dasharray="5,2" d="M222.79,-198.3C253.69,-190.58 294.19,-180.45 322.79,-173.3"/>
<polygon fill="#9a32cd" stroke="#9a32cd" points="221.56,-195 212.71,-200.82 223.26,-201.79 221.56,-195"/>
<text text-anchor="middle" x="263" y="-190.5" font-family="Helvetica,sans-Serif" font-size="10.00"> T</text>
</g>
<!-- Node4 -->
<g id="node4" class="node">
<title>Node4</title>
<g id="a_node4"><a xlink:href="classReaktoro_1_1ThermoScalarBase.html" target="_top" xlink:title="ThermoScalar">
<polygon fill="white" stroke="black" points="0,-180 0,-199 77,-199 77,-180 0,-180"/>
<text text-anchor="middle" x="38.5" y="-187" font-family="Helvetica,sans-Serif" font-size="10.00">ThermoScalar</text>
</a>
</g>
</g>
<!-- Node4&#45;&gt;Node3 -->
<g id="edge3" class="edge">
<title>Node4&#45;&gt;Node3</title>
<path fill="none" stroke="midnightblue" d="M87.34,-196.51C105.11,-199.11 124.9,-202.01 141.27,-204.41"/>
<polygon fill="midnightblue" stroke="midnightblue" points="87.56,-193 77.16,-195.02 86.55,-199.93 87.56,-193"/>
</g>
<!-- Node5 -->
<g id="node5" class="node">
<title>Node5</title>
<g id="a_node5"><a xlink:href="classReaktoro_1_1Pressure.html" target="_top" xlink:title="A type that describes pressure in units of Pa. ">
<polygon fill="white" stroke="black" points="149,-162 149,-181 205,-181 205,-162 149,-162"/>
<text text-anchor="middle" x="177" y="-169" font-family="Helvetica,sans-Serif" font-size="10.00">Pressure</text>
</a>
</g>
</g>
<!-- Node4&#45;&gt;Node5 -->
<g id="edge5" class="edge">
<title>Node4&#45;&gt;Node5</title>
<path fill="none" stroke="midnightblue" d="M87.33,-183.19C107.94,-180.47 131.29,-177.4 148.85,-175.08"/>
<polygon fill="midnightblue" stroke="midnightblue" points="86.62,-179.76 77.16,-184.53 87.53,-186.7 86.62,-179.76"/>
</g>
<!-- Node5&#45;&gt;Node2 -->
<g id="edge4" class="edge">
<title>Node5&#45;&gt;Node2</title>
<path fill="none" stroke="#9a32cd" stroke-dasharray="5,2" d="M215.52,-170.04C247.15,-168.81 292.07,-167.06 322.97,-165.86"/>
<polygon fill="#9a32cd" stroke="#9a32cd" points="215.19,-166.55 205.34,-170.44 215.47,-173.55 215.19,-166.55"/>
<text text-anchor="middle" x="263" y="-170.5" font-family="Helvetica,sans-Serif" font-size="10.00"> P</text>
</g>
<!-- Node6 -->
<g id="node6" class="node">
<title>Node6</title>
<g id="a_node6"><a xlink:href="classReaktoro_1_1ChemicalVectorBase.html" target="_top" xlink:title="ChemicalVectorBase\l\&lt; Vector, Vector, Vector,\l Matrix \&gt;">
<polygon fill="white" stroke="black" points="114,-95 114,-136 240,-136 240,-95 114,-95"/>
<text text-anchor="start" x="122" y="-124" font-family="Helvetica,sans-Serif" font-size="10.00">ChemicalVectorBase</text>
<text text-anchor="start" x="122" y="-113" font-family="Helvetica,sans-Serif" font-size="10.00">&lt; Vector, Vector, Vector,</text>
<text text-anchor="middle" x="177" y="-102" font-family="Helvetica,sans-Serif" font-size="10.00"> Matrix &gt;</text>
</a>
</g>
</g>
<!-- Node6&#45;&gt;Node1 -->
<g id="edge9" class="edge">
<title>Node6&#45;&gt;Node1</title>
<path fill="none" stroke="#9a32cd" stroke-dasharray="5,2" d="M250.15,-110.71C311.59,-106.41 402.18,-99.54 481,-91.5 486.76,-90.91 492.78,-90.24 498.78,-89.55"/>
<polygon fill="#9a32cd" stroke="#9a32cd" points="249.9,-107.22 240.17,-111.4 250.39,-114.2 249.9,-107.22"/>
<text text-anchor="middle" x="359" y="-121.5" font-family="Helvetica,sans-Serif" font-size="10.00"> ms</text>
<text text-anchor="middle" x="359" y="-110.5" font-family="Helvetica,sans-Serif" font-size="10.00">m</text>
</g>
<!-- Node6&#45;&gt;Node2 -->
<g id="edge6" class="edge">
<title>Node6&#45;&gt;Node2</title>
<path fill="none" stroke="#9a32cd" stroke-dasharray="5,2" d="M250.09,-135.13C275.25,-141.97 302.34,-149.35 323.09,-155"/>
<polygon fill="#9a32cd" stroke="#9a32cd" points="250.77,-131.68 240.2,-132.43 248.93,-138.44 250.77,-131.68"/>
<text text-anchor="middle" x="263" y="-142.5" font-family="Helvetica,sans-Serif" font-size="10.00"> x</text>
</g>
<!-- Node7 -->
<g id="node7" class="node">
<title>Node7</title>
<g id="a_node7"><a xlink:href="classReaktoro_1_1ThermoScalarBase.html" target="_top" xlink:title="ThermoScalarBase\&lt; double \&gt;">
<polygon fill="white" stroke="black" points="286,-50 286,-69 432,-69 432,-50 286,-50"/>
<text text-anchor="middle" x="359" y="-57" font-family="Helvetica,sans-Serif" font-size="10.00">ThermoScalarBase&lt; double &gt;</text>
</a>
</g>
</g>
<!-- Node7&#45;&gt;Node1 -->
<g id="edge7" class="edge">
<title>Node7&#45;&gt;Node1</title>
<path fill="none" stroke="#9a32cd" stroke-dasharray="5,2" d="M442.4,-65.24C455.34,-66.45 468.55,-67.87 481,-69.5 488.43,-70.48 496.26,-71.69 503.91,-72.99"/>
<polygon fill="#9a32cd" stroke="#9a32cd" points="442.38,-61.72 432.1,-64.31 441.75,-68.7 442.38,-61.72"/>
<text text-anchor="middle" x="465.5" y="-83.5" font-family="Helvetica,sans-Serif" font-size="10.00"> rho</text>
<text text-anchor="middle" x="465.5" y="-72.5" font-family="Helvetica,sans-Serif" font-size="10.00">epsilon</text>
</g>
<!-- Node8 -->
<g id="node8" class="node">
<title>Node8</title>
<g id="a_node8"><a xlink:href="classReaktoro_1_1ChemicalScalarBase.html" target="_top" xlink:title="ChemicalScalarBase\l\&lt; double, RowVector \&gt;">
<polygon fill="white" stroke="black" points="300,-0.5 300,-30.5 418,-30.5 418,-0.5 300,-0.5"/>
<text text-anchor="start" x="308" y="-18.5" font-family="Helvetica,sans-Serif" font-size="10.00">ChemicalScalarBase</text>
<text text-anchor="middle" x="359" y="-7.5" font-family="Helvetica,sans-Serif" font-size="10.00">&lt; double, RowVector &gt;</text>
</a>
</g>
</g>
<!-- Node8&#45;&gt;Node1 -->
<g id="edge8" class="edge">
<title>Node8&#45;&gt;Node1</title>
<path fill="none" stroke="#9a32cd" stroke-dasharray="5,2" d="M428.25,-24.8C445.78,-28.33 464.37,-33.11 481,-39.5 503.15,-48.02 526.28,-63.12 540.17,-72.97"/>
<polygon fill="#9a32cd" stroke="#9a32cd" points="428.55,-21.3 418.07,-22.87 427.24,-28.18 428.55,-21.3"/>
<text text-anchor="middle" x="465.5" y="-53.5" font-family="Helvetica,sans-Serif" font-size="10.00"> Is</text>
<text text-anchor="middle" x="465.5" y="-42.5" font-family="Helvetica,sans-Serif" font-size="10.00">Ie</text>
</g>
</g>
</svg>
        <g id="navigator" transform="translate(0 0)" fill="#404254">
                <rect fill="#f2f5e9" fill-opacity="0.5" stroke="#606060" stroke-width=".5" x="0" y="0" width="60" height="60"/>
                <use id="zoomplus" xlink:href="#zoomPlus" x="17" y="9" onmousedown="handleZoom(evt,'in')"/>
                <use id="zoomminus" xlink:href="#zoomMin" x="42" y="9" onmousedown="handleZoom(evt,'out')"/>
                <use id="reset" xlink:href="#resetDef" x="30" y="36" onmousedown="handleReset()"/>
                <g id="arrowUp" xlink:href="#dirArrow" transform="translate(30 24)" onmousedown="handlePan(0,-1)">
                  <use xlink:href="#rim" fill="#404040">
                        <set attributeName="fill" to="#808080" begin="arrowUp.mouseover" end="arrowUp.mouseout"/>
                  </use>
                  <path fill="none" stroke="white" stroke-width="1.5" d="M0,-3.0v7 M-2.5,-0.5L0,-3.0L2.5,-0.5"/>
                </g>
                <g id="arrowRight" xlink:href="#dirArrow" transform="rotate(90) translate(36 -43)" onmousedown="handlePan(1,0)">
                  <use xlink:href="#rim" fill="#404040">
                        <set attributeName="fill" to="#808080" begin="arrowRight.mouseover" end="arrowRight.mouseout"/>
                  </use>
                  <path fill="none" stroke="white" stroke-width="1.5" d="M0,-3.0v7 M-2.5,-0.5L0,-3.0L2.5,-0.5"/>
                </g>
                <g id="arrowDown" xlink:href="#dirArrow" transform="rotate(180) translate(-30 -48)" onmousedown="handlePan(0,1)">
                  <use xlink:href="#rim" fill="#404040">
                        <set attributeName="fill" to="#808080" begin="arrowDown.mouseover" end="arrowDown.mouseout"/>
                  </use>
                  <path fill="none" stroke="white" stroke-width="1.5" d="M0,-3.0v7 M-2.5,-0.5L0,-3.0L2.5,-0.5"/>
                </g>
                <g id="arrowLeft" xlink:href="#dirArrow" transform="rotate(270) translate(-36 17)" onmousedown="handlePan(-1,0)">
                  <use xlink:href="#rim" fill="#404040">
                        <set attributeName="fill" to="#808080" begin="arrowLeft.mouseover" end="arrowLeft.mouseout"/>
                  </use>
                  <path fill="none" stroke="white" stroke-width="1.5" d="M0,-3.0v7 M-2.5,-0.5L0,-3.0L2.5,-0.5"/>
                </g>
        </g>
        <svg viewBox="0 0 15 15" width="100%" height="30px" preserveAspectRatio="xMaxYMin meet">
         <g id="arrow_out" transform="scale(0.3 0.3)">
          <a xlink:href="structReaktoro_1_1AqueousMixtureState__coll__graph_org.svg" target="_base">
           <rect id="button" ry="5" rx="5" y="6" x="6" height="38" width="38"
                fill="#f2f5e9" fill-opacity="0.5" stroke="#606060" stroke-width="1.0"/>
           <path id="arrow"
             d="M 11.500037,31.436501 C 11.940474,20.09759 22.043105,11.32322 32.158766,21.979434 L 37.068811,17.246167 C 37.068811,17.246167 37.088388,32 37.088388,32 L 22.160133,31.978069 C 22.160133,31.978069 26.997745,27.140456 26.997745,27.140456 C 18.528582,18.264221 13.291696,25.230495 11.500037,31.436501 z"
             style="fill:#404040;"/>
          </a>
         </g>
        </svg>
</svg>
