<?xml version="1.0" encoding="UTF-8" standalone="no"?>
<!DOCTYPE svg PUBLIC "-//W3C//DTD SVG 1.1//EN"
 "http://www.w3.org/Graphics/SVG/1.1/DTD/svg11.dtd">
<!-- Generated by graphviz version 2.42.3 (20191010.1750)
 -->
<!-- Title: SpeciesThermoParamsPhreeqc::ReactionParams Pages: 1 -->
<svg width="210pt" height="106pt"
 viewBox="0.00 0.00 210.00 106.00" xmlns="http://www.w3.org/2000/svg" xmlns:xlink="http://www.w3.org/1999/xlink">
<g id="graph0" class="graph" transform="scale(1 1) rotate(0) translate(4 102)">
<title>SpeciesThermoParamsPhreeqc::ReactionParams</title>
<polygon fill="white" stroke="transparent" points="-4,4 -4,-102 206,-102 206,4 -4,4"/>
<!-- Node1 -->
<g id="node1" class="node">
<title>Node1</title>
<g id="a_node1"><a xlink:title=" ">
<polygon fill="#bfbfbf" stroke="black" points="24.5,-0.5 24.5,-30.5 179.5,-30.5 179.5,-0.5 24.5,-0.5"/>
<text text-anchor="start" x="32.5" y="-18.5" font-family="Helvetica,sans-Serif" font-size="10.00">SpeciesThermoParamsPhreeqc</text>
<text text-anchor="middle" x="102" y="-7.5" font-family="Helvetica,sans-Serif" font-size="10.00">::ReactionParams</text>
</a>
</g>
</g>
<!-- Node2 -->
<g id="node2" class="node">
<title>Node2</title>
<g id="a_node2"><a xlink:href="classReaktoro_1_1ReactionEquation.html" target="_top" xlink:title="Define a type that describes the equation of a reaction.">
<polygon fill="white" stroke="black" points="0,-78.5 0,-97.5 94,-97.5 94,-78.5 0,-78.5"/>
<text text-anchor="middle" x="47" y="-85.5" font-family="Helvetica,sans-Serif" font-size="10.00">ReactionEquation</text>
</a>
</g>
</g>
<!-- Node2&#45;&gt;Node1 -->
<g id="edge1" class="edge">
<title>Node2&#45;&gt;Node1</title>
<path fill="none" stroke="#9a32cd" stroke-dasharray="5,2" d="M59.96,-70.39C69.4,-58.28 82.07,-42.05 91.02,-30.58"/>
<polygon fill="#9a32cd" stroke="#9a32cd" points="57.14,-68.32 53.74,-78.36 62.65,-72.62 57.14,-68.32"/>
<text text-anchor="middle" x="97" y="-52" font-family="Helvetica,sans-Serif" font-size="10.00"> equation</text>
</g>
<!-- Node3 -->
<g id="node3" class="node">
<title>Node3</title>
<g id="a_node3"><a xlink:title=" ">
<polygon fill="white" stroke="#bfbfbf" points="112,-78.5 112,-97.5 202,-97.5 202,-78.5 112,-78.5"/>
<text text-anchor="middle" x="157" y="-85.5" font-family="Helvetica,sans-Serif" font-size="10.00">vector&lt; double &gt;</text>
</a>
</g>
</g>
<!-- Node3&#45;&gt;Node1 -->
<g id="edge2" class="edge">
<title>Node3&#45;&gt;Node1</title>
<path fill="none" stroke="#9a32cd" stroke-dasharray="5,2" d="M144.04,-70.39C134.6,-58.28 121.93,-42.05 112.98,-30.58"/>
<polygon fill="#9a32cd" stroke="#9a32cd" points="141.35,-72.62 150.26,-78.36 146.86,-68.32 141.35,-72.62"/>
<text text-anchor="middle" x="152.5" y="-52" font-family="Helvetica,sans-Serif" font-size="10.00"> analytic</text>
</g>
</g>
</svg>
