<?xml version="1.0" encoding="UTF-8" standalone="no"?>
<!DOCTYPE svg PUBLIC "-//W3C//DTD SVG 1.1//EN"
 "http://www.w3.org/Graphics/SVG/1.1/DTD/svg11.dtd">
<!-- Generated by graphviz version 2.42.3 (20191010.1750)
 -->
<!-- Title: MineralMechanism Pages: 1 -->
<svg width="138pt" height="308pt"
 viewBox="0.00 0.00 138.00 308.00" xmlns="http://www.w3.org/2000/svg" xmlns:xlink="http://www.w3.org/1999/xlink">
<g id="graph0" class="graph" transform="scale(1 1) rotate(0) translate(4 304)">
<title>MineralMechanism</title>
<polygon fill="white" stroke="transparent" points="-4,4 -4,-304 134,-304 134,4 -4,4"/>
<!-- Node1 -->
<g id="node1" class="node">
<title>Node1</title>
<g id="a_node1"><a xlink:title=" ">
<polygon fill="#bfbfbf" stroke="black" points="16,-0.5 16,-19.5 114,-19.5 114,-0.5 16,-0.5"/>
<text text-anchor="middle" x="65" y="-7.5" font-family="Helvetica,sans-Serif" font-size="10.00">MineralMechanism</text>
</a>
</g>
</g>
<!-- Node2 -->
<g id="node2" class="node">
<title>Node2</title>
<g id="a_node2"><a xlink:title=" ">
<polygon fill="white" stroke="#bfbfbf" points="0,-67.5 0,-97.5 130,-97.5 130,-67.5 0,-67.5"/>
<text text-anchor="start" x="8" y="-85.5" font-family="Helvetica,sans-Serif" font-size="10.00">vector&lt; Reaktoro::Mineral</text>
<text text-anchor="middle" x="65" y="-74.5" font-family="Helvetica,sans-Serif" font-size="10.00">Catalyst &gt;</text>
</a>
</g>
</g>
<!-- Node2&#45;&gt;Node1 -->
<g id="edge1" class="edge">
<title>Node2&#45;&gt;Node1</title>
<path fill="none" stroke="#9a32cd" stroke-dasharray="5,2" d="M65,-57.09C65,-44.21 65,-29.2 65,-19.89"/>
<polygon fill="#9a32cd" stroke="#9a32cd" points="61.5,-57.23 65,-67.23 68.5,-57.23 61.5,-57.23"/>
<text text-anchor="middle" x="86.5" y="-41" font-family="Helvetica,sans-Serif" font-size="10.00"> catalysts</text>
</g>
<!-- Node3 -->
<g id="node3" class="node">
<title>Node3</title>
<g id="a_node3"><a xlink:href="structReaktoro_1_1MineralCatalyst.html" target="_top" xlink:title=" ">
<polygon fill="white" stroke="black" points="22.5,-145.5 22.5,-164.5 107.5,-164.5 107.5,-145.5 22.5,-145.5"/>
<text text-anchor="middle" x="65" y="-152.5" font-family="Helvetica,sans-Serif" font-size="10.00">MineralCatalyst</text>
</a>
</g>
</g>
<!-- Node3&#45;&gt;Node2 -->
<g id="edge2" class="edge">
<title>Node3&#45;&gt;Node2</title>
<path fill="none" stroke="#9a32cd" stroke-dasharray="5,2" d="M65,-135.24C65,-123.41 65,-108.38 65,-97.58"/>
<polygon fill="#9a32cd" stroke="#9a32cd" points="61.5,-135.36 65,-145.36 68.5,-135.36 61.5,-135.36"/>
<text text-anchor="middle" x="86.5" y="-119" font-family="Helvetica,sans-Serif" font-size="10.00"> elements</text>
</g>
<!-- Node4 -->
<g id="node4" class="node">
<title>Node4</title>
<g id="a_node4"><a xlink:title="STL class.">
<polygon fill="white" stroke="#bfbfbf" points="44.5,-223.5 44.5,-242.5 85.5,-242.5 85.5,-223.5 44.5,-223.5"/>
<text text-anchor="middle" x="65" y="-230.5" font-family="Helvetica,sans-Serif" font-size="10.00">string</text>
</a>
</g>
</g>
<!-- Node4&#45;&gt;Node3 -->
<g id="edge3" class="edge">
<title>Node4&#45;&gt;Node3</title>
<path fill="none" stroke="#9a32cd" stroke-dasharray="5,2" d="M65,-213.22C65,-197.7 65,-176.36 65,-164.62"/>
<polygon fill="#9a32cd" stroke="#9a32cd" points="61.5,-213.28 65,-223.28 68.5,-213.28 61.5,-213.28"/>
<text text-anchor="middle" x="84" y="-197" font-family="Helvetica,sans-Serif" font-size="10.00"> quantity</text>
<text text-anchor="middle" x="84" y="-186" font-family="Helvetica,sans-Serif" font-size="10.00">species</text>
</g>
<!-- Node5 -->
<g id="node5" class="node">
<title>Node5</title>
<g id="a_node5"><a xlink:title="STL class.">
<polygon fill="white" stroke="#bfbfbf" points="12,-280.5 12,-299.5 118,-299.5 118,-280.5 12,-280.5"/>
<text text-anchor="middle" x="65" y="-287.5" font-family="Helvetica,sans-Serif" font-size="10.00">basic_string&lt; char &gt;</text>
</a>
</g>
</g>
<!-- Node5&#45;&gt;Node4 -->
<g id="edge4" class="edge">
<title>Node5&#45;&gt;Node4</title>
<path fill="none" stroke="midnightblue" d="M65,-270.12C65,-260.82 65,-250.06 65,-242.71"/>
<polygon fill="midnightblue" stroke="midnightblue" points="61.5,-270.41 65,-280.41 68.5,-270.41 61.5,-270.41"/>
</g>
</g>
</svg>
