<?xml version="1.0" encoding="UTF-8" standalone="no"?>
<!DOCTYPE svg PUBLIC "-//W3C//DTD SVG 1.1//EN"
 "http://www.w3.org/Graphics/SVG/1.1/DTD/svg11.dtd">
<!-- Generated by graphviz version 2.42.3 (20191010.1750)
 -->
<!-- Title: Exception Pages: 1 -->
<svg width="262pt" height="402pt"
 viewBox="0.00 0.00 261.50 402.00" xmlns="http://www.w3.org/2000/svg" xmlns:xlink="http://www.w3.org/1999/xlink">
<g id="graph0" class="graph" transform="scale(1 1) rotate(0) translate(4 398)">
<title>Exception</title>
<polygon fill="white" stroke="transparent" points="-4,4 -4,-398 257.5,-398 257.5,4 -4,4"/>
<!-- Node1 -->
<g id="node1" class="node">
<title>Node1</title>
<polygon fill="#bfbfbf" stroke="black" points="95,-0.5 95,-19.5 155,-19.5 155,-0.5 95,-0.5"/>
<text text-anchor="middle" x="125" y="-7.5" font-family="Helvetica,sans-Serif" font-size="10.00">Exception</text>
</g>
<!-- Node2 -->
<g id="node2" class="node">
<title>Node2</title>
<g id="a_node2"><a xlink:title="STL class. ">
<polygon fill="white" stroke="#bfbfbf" points="89.5,-78.5 89.5,-97.5 160.5,-97.5 160.5,-78.5 89.5,-78.5"/>
<text text-anchor="middle" x="125" y="-85.5" font-family="Helvetica,sans-Serif" font-size="10.00">stringstream</text>
</a>
</g>
</g>
<!-- Node2&#45;&gt;Node1 -->
<g id="edge1" class="edge">
<title>Node2&#45;&gt;Node1</title>
<path fill="none" stroke="#9a32cd" stroke-dasharray="5,2" d="M125,-68.22C125,-52.7 125,-31.36 125,-19.62"/>
<polygon fill="#9a32cd" stroke="#9a32cd" points="121.5,-68.28 125,-78.28 128.5,-68.28 121.5,-68.28"/>
<text text-anchor="middle" x="140" y="-52" font-family="Helvetica,sans-Serif" font-size="10.00"> error</text>
<text text-anchor="middle" x="140" y="-41" font-family="Helvetica,sans-Serif" font-size="10.00">reason</text>
</g>
<!-- Node3 -->
<g id="node3" class="node">
<title>Node3</title>
<g id="a_node3"><a xlink:title="STL class. ">
<polygon fill="white" stroke="#bfbfbf" points="75.5,-135.5 75.5,-165.5 174.5,-165.5 174.5,-135.5 75.5,-135.5"/>
<text text-anchor="start" x="83.5" y="-153.5" font-family="Helvetica,sans-Serif" font-size="10.00">basic_stringstream</text>
<text text-anchor="middle" x="125" y="-142.5" font-family="Helvetica,sans-Serif" font-size="10.00">&lt; char &gt;</text>
</a>
</g>
</g>
<!-- Node3&#45;&gt;Node2 -->
<g id="edge2" class="edge">
<title>Node3&#45;&gt;Node2</title>
<path fill="none" stroke="midnightblue" d="M125,-125.35C125,-115.51 125,-104.78 125,-97.54"/>
<polygon fill="midnightblue" stroke="midnightblue" points="121.5,-125.47 125,-135.47 128.5,-125.47 121.5,-125.47"/>
</g>
<!-- Node4 -->
<g id="node4" class="node">
<title>Node4</title>
<g id="a_node4"><a xlink:title="STL class. ">
<polygon fill="white" stroke="#bfbfbf" points="64,-203.5 64,-222.5 186,-222.5 186,-203.5 64,-203.5"/>
<text text-anchor="middle" x="125" y="-210.5" font-family="Helvetica,sans-Serif" font-size="10.00">basic_iostream&lt; Char &gt;</text>
</a>
</g>
</g>
<!-- Node4&#45;&gt;Node3 -->
<g id="edge3" class="edge">
<title>Node4&#45;&gt;Node3</title>
<path fill="none" stroke="midnightblue" d="M125,-193.22C125,-184.36 125,-173.96 125,-165.76"/>
<polygon fill="midnightblue" stroke="midnightblue" points="121.5,-193.33 125,-203.33 128.5,-193.33 121.5,-193.33"/>
</g>
<!-- Node5 -->
<g id="node5" class="node">
<title>Node5</title>
<g id="a_node5"><a xlink:title="STL class. ">
<polygon fill="white" stroke="#bfbfbf" points="0,-260.5 0,-279.5 116,-279.5 116,-260.5 0,-260.5"/>
<text text-anchor="middle" x="58" y="-267.5" font-family="Helvetica,sans-Serif" font-size="10.00">basic_istream&lt; Char &gt;</text>
</a>
</g>
</g>
<!-- Node5&#45;&gt;Node4 -->
<g id="edge4" class="edge">
<title>Node5&#45;&gt;Node4</title>
<path fill="none" stroke="midnightblue" d="M76.27,-254C88.5,-243.96 104.16,-231.1 114.38,-222.71"/>
<polygon fill="midnightblue" stroke="midnightblue" points="73.98,-251.36 68.47,-260.41 78.42,-256.77 73.98,-251.36"/>
</g>
<!-- Node6 -->
<g id="node6" class="node">
<title>Node6</title>
<g id="a_node6"><a xlink:title="STL class. ">
<polygon fill="white" stroke="#bfbfbf" points="76.5,-317.5 76.5,-336.5 173.5,-336.5 173.5,-317.5 76.5,-317.5"/>
<text text-anchor="middle" x="125" y="-324.5" font-family="Helvetica,sans-Serif" font-size="10.00">basic_ios&lt; Char &gt;</text>
</a>
</g>
</g>
<!-- Node6&#45;&gt;Node5 -->
<g id="edge5" class="edge">
<title>Node6&#45;&gt;Node5</title>
<path fill="none" stroke="midnightblue" d="M106.73,-311C94.5,-300.96 78.84,-288.1 68.62,-279.71"/>
<polygon fill="midnightblue" stroke="midnightblue" points="104.58,-313.77 114.53,-317.41 109.02,-308.36 104.58,-313.77"/>
</g>
<!-- Node8 -->
<g id="node8" class="node">
<title>Node8</title>
<g id="a_node8"><a xlink:title="STL class. ">
<polygon fill="white" stroke="#bfbfbf" points="134.5,-260.5 134.5,-279.5 253.5,-279.5 253.5,-260.5 134.5,-260.5"/>
<text text-anchor="middle" x="194" y="-267.5" font-family="Helvetica,sans-Serif" font-size="10.00">basic_ostream&lt; Char &gt;</text>
</a>
</g>
</g>
<!-- Node6&#45;&gt;Node8 -->
<g id="edge8" class="edge">
<title>Node6&#45;&gt;Node8</title>
<path fill="none" stroke="midnightblue" d="M143.82,-311C156.41,-300.96 172.54,-288.1 183.07,-279.71"/>
<polygon fill="midnightblue" stroke="midnightblue" points="141.42,-308.44 135.78,-317.41 145.78,-313.91 141.42,-308.44"/>
</g>
<!-- Node7 -->
<g id="node7" class="node">
<title>Node7</title>
<g id="a_node7"><a xlink:title="STL class. ">
<polygon fill="white" stroke="#bfbfbf" points="97,-374.5 97,-393.5 153,-393.5 153,-374.5 97,-374.5"/>
<text text-anchor="middle" x="125" y="-381.5" font-family="Helvetica,sans-Serif" font-size="10.00">ios_base</text>
</a>
</g>
</g>
<!-- Node7&#45;&gt;Node6 -->
<g id="edge6" class="edge">
<title>Node7&#45;&gt;Node6</title>
<path fill="none" stroke="midnightblue" d="M125,-364.12C125,-354.82 125,-344.06 125,-336.71"/>
<polygon fill="midnightblue" stroke="midnightblue" points="121.5,-364.41 125,-374.41 128.5,-364.41 121.5,-364.41"/>
</g>
<!-- Node8&#45;&gt;Node4 -->
<g id="edge7" class="edge">
<title>Node8&#45;&gt;Node4</title>
<path fill="none" stroke="midnightblue" d="M175.18,-254C162.59,-243.96 146.46,-231.1 135.93,-222.71"/>
<polygon fill="midnightblue" stroke="midnightblue" points="173.22,-256.91 183.22,-260.41 177.58,-251.44 173.22,-256.91"/>
</g>
</g>
</svg>
