<?xml version="1.0" encoding="UTF-8" standalone="no"?>
<!DOCTYPE svg PUBLIC "-//W3C//DTD SVG 1.1//EN"
 "http://www.w3.org/Graphics/SVG/1.1/DTD/svg11.dtd">
<!-- Generated by graphviz version 2.48.0 (20210717.2242)
 -->
<!-- Title: GlobalOptions Pages: 1 -->
<svg width="1476pt" height="533pt"
 viewBox="0.00 0.00 1476.00 533.00" xmlns="http://www.w3.org/2000/svg" xmlns:xlink="http://www.w3.org/1999/xlink">
<g id="graph0" class="graph" transform="scale(1 1) rotate(0) translate(4 529)">
<title>GlobalOptions</title>
<polygon fill="white" stroke="transparent" points="-4,4 -4,-529 1472,-529 1472,4 -4,4"/>
<!-- Node1 -->
<g id="node1" class="node">
<title>Node1</title>
<g id="a_node1"><a xlink:title="A type used to describe all options related to chemical calculations.">
<polygon fill="#bfbfbf" stroke="black" points="1390,-337.5 1390,-356.5 1468,-356.5 1468,-337.5 1390,-337.5"/>
<text text-anchor="middle" x="1429" y="-344.5" font-family="Helvetica,sans-Serif" font-size="10.00">GlobalOptions</text>
</a>
</g>
</g>
<!-- Node2 -->
<g id="node2" class="node">
<title>Node2</title>
<g id="a_node2"><a xlink:href="structReaktoro_1_1global_1_1ExceptionOptions.html" target="_top" xlink:title="A type used to describe all options related to exception handling.">
<polygon fill="white" stroke="black" points="1178.5,-493.5 1178.5,-512.5 1272.5,-512.5 1272.5,-493.5 1178.5,-493.5"/>
<text text-anchor="middle" x="1225.5" y="-500.5" font-family="Helvetica,sans-Serif" font-size="10.00">ExceptionOptions</text>
</a>
</g>
</g>
<!-- Node2&#45;&gt;Node1 -->
<g id="edge1" class="edge">
<title>Node2&#45;&gt;Node1</title>
<path fill="none" stroke="#9a32cd" stroke-dasharray="5,2" d="M1282.83,-506.09C1312.19,-504.86 1347.07,-498.61 1372,-479 1412.31,-447.3 1424.01,-381.14 1427.04,-356.51"/>
<polygon fill="#9a32cd" stroke="#9a32cd" points="1282.62,-502.59 1272.7,-506.33 1282.78,-509.59 1282.62,-502.59"/>
<text text-anchor="middle" x="1337.5" y="-507" font-family="Helvetica,sans-Serif" font-size="10.00"> exception</text>
</g>
<!-- Node3 -->
<g id="node3" class="node">
<title>Node3</title>
<g id="a_node3"><a xlink:href="structReaktoro_1_1KineticOptions.html" target="_top" xlink:title="A struct to describe the options for a chemical kinetics calculation.">
<polygon fill="white" stroke="black" points="1185.5,-390.5 1185.5,-409.5 1265.5,-409.5 1265.5,-390.5 1185.5,-390.5"/>
<text text-anchor="middle" x="1225.5" y="-397.5" font-family="Helvetica,sans-Serif" font-size="10.00">KineticOptions</text>
</a>
</g>
</g>
<!-- Node3&#45;&gt;Node1 -->
<g id="edge2" class="edge">
<title>Node3&#45;&gt;Node1</title>
<path fill="none" stroke="#9a32cd" stroke-dasharray="5,2" d="M1273.01,-387.93C1301.58,-380.5 1338.92,-370.75 1372,-362 1378.62,-360.25 1385.67,-358.37 1392.46,-356.56"/>
<polygon fill="#9a32cd" stroke="#9a32cd" points="1272.09,-384.55 1263.29,-390.46 1273.85,-391.33 1272.09,-384.55"/>
<text text-anchor="middle" x="1337.5" y="-382" font-family="Helvetica,sans-Serif" font-size="10.00"> kinetics</text>
</g>
<!-- Node4 -->
<g id="node4" class="node">
<title>Node4</title>
<g id="a_node4"><a xlink:href="structReaktoro_1_1ODEOptions.html" target="_top" xlink:title="A struct that defines the options for the ODESolver.">
<polygon fill="white" stroke="black" points="981,-396.5 981,-415.5 1053,-415.5 1053,-396.5 981,-396.5"/>
<text text-anchor="middle" x="1017" y="-403.5" font-family="Helvetica,sans-Serif" font-size="10.00">ODEOptions</text>
</a>
</g>
</g>
<!-- Node4&#45;&gt;Node3 -->
<g id="edge3" class="edge">
<title>Node4&#45;&gt;Node3</title>
<path fill="none" stroke="#9a32cd" stroke-dasharray="5,2" d="M1063.4,-404.68C1099.92,-403.62 1150.69,-402.14 1185.42,-401.14"/>
<polygon fill="#9a32cd" stroke="#9a32cd" points="1062.92,-401.19 1053.03,-404.98 1063.13,-408.19 1062.92,-401.19"/>
<text text-anchor="middle" x="1116" y="-407" font-family="Helvetica,sans-Serif" font-size="10.00"> ode</text>
</g>
<!-- Node27 -->
<g id="node27" class="node">
<title>Node27</title>
<g id="a_node27"><a xlink:href="structReaktoro_1_1EquilibriumPathOptions.html" target="_top" xlink:title="A struct that describes the options from an equilibrium path calculation.">
<polygon fill="white" stroke="black" points="1166,-337.5 1166,-356.5 1285,-356.5 1285,-337.5 1166,-337.5"/>
<text text-anchor="middle" x="1225.5" y="-344.5" font-family="Helvetica,sans-Serif" font-size="10.00">EquilibriumPathOptions</text>
</a>
</g>
</g>
<!-- Node4&#45;&gt;Node27 -->
<g id="edge33" class="edge">
<title>Node4&#45;&gt;Node27</title>
<path fill="none" stroke="#9a32cd" stroke-dasharray="5,2" d="M1061.07,-393.58C1068.71,-391.38 1076.59,-389.12 1084,-387 1120.57,-376.53 1162.52,-364.6 1190.99,-356.51"/>
<polygon fill="#9a32cd" stroke="#9a32cd" points="1059.87,-390.28 1051.23,-396.41 1061.81,-397.01 1059.87,-390.28"/>
<text text-anchor="middle" x="1116" y="-390" font-family="Helvetica,sans-Serif" font-size="10.00"> ode</text>
</g>
<!-- Node5 -->
<g id="node5" class="node">
<title>Node5</title>
<g id="a_node5"><a xlink:href="structReaktoro_1_1KineticOutputOptions.html" target="_top" xlink:title=" ">
<polygon fill="white" stroke="black" points="387,-495.5 387,-514.5 497,-514.5 497,-495.5 387,-495.5"/>
<text text-anchor="middle" x="442" y="-502.5" font-family="Helvetica,sans-Serif" font-size="10.00">KineticOutputOptions</text>
</a>
</g>
</g>
<!-- Node5&#45;&gt;Node3 -->
<g id="edge4" class="edge">
<title>Node5&#45;&gt;Node3</title>
<path fill="none" stroke="#9a32cd" stroke-dasharray="5,2" d="M507.38,-510.32C621.81,-517.95 867.26,-526.07 1066,-476 1122.23,-461.83 1182.3,-426.83 1209.54,-409.73"/>
<polygon fill="#9a32cd" stroke="#9a32cd" points="507.6,-506.83 497.39,-509.63 507.12,-513.81 507.6,-506.83"/>
<text text-anchor="middle" x="826.5" y="-517" font-family="Helvetica,sans-Serif" font-size="10.00"> output</text>
</g>
<!-- Node6 -->
<g id="node6" class="node">
<title>Node6</title>
<g id="a_node6"><a xlink:title="STL class.">
<polygon fill="white" stroke="#bfbfbf" points="143,-324.5 143,-343.5 184,-343.5 184,-324.5 143,-324.5"/>
<text text-anchor="middle" x="163.5" y="-331.5" font-family="Helvetica,sans-Serif" font-size="10.00">string</text>
</a>
</g>
</g>
<!-- Node6&#45;&gt;Node5 -->
<g id="edge5" class="edge">
<title>Node6&#45;&gt;Node5</title>
<path fill="none" stroke="#9a32cd" stroke-dasharray="5,2" d="M163.89,-354C164.14,-383.85 169.3,-439.75 202,-470 251.49,-515.78 333.06,-517.86 386.91,-513.08"/>
<polygon fill="#9a32cd" stroke="#9a32cd" points="167.39,-353.65 163.99,-343.62 160.39,-353.58 167.39,-353.65"/>
<text text-anchor="middle" x="224" y="-499" font-family="Helvetica,sans-Serif" font-size="10.00"> format</text>
</g>
<!-- Node21 -->
<g id="node21" class="node">
<title>Node21</title>
<g id="a_node21"><a xlink:href="structReaktoro_1_1OptimumOutputOptions.html" target="_top" xlink:title="A type that describes the options for the output of a optimisation calculation.">
<polygon fill="white" stroke="black" points="531.5,-114.5 531.5,-133.5 650.5,-133.5 650.5,-114.5 531.5,-114.5"/>
<text text-anchor="middle" x="591" y="-121.5" font-family="Helvetica,sans-Serif" font-size="10.00">OptimumOutputOptions</text>
</a>
</g>
</g>
<!-- Node6&#45;&gt;Node21 -->
<g id="edge23" class="edge">
<title>Node6&#45;&gt;Node21</title>
<path fill="none" stroke="#9a32cd" stroke-dasharray="5,2" d="M170.42,-314.48C182.09,-279.73 211.56,-207.61 264,-174 345.71,-121.63 462.13,-116.69 531.48,-119.33"/>
<polygon fill="#9a32cd" stroke="#9a32cd" points="166.98,-313.77 167.26,-324.36 173.64,-315.91 166.98,-313.77"/>
<text text-anchor="middle" x="316.5" y="-199" font-family="Helvetica,sans-Serif" font-size="10.00"> xprefix</text>
<text text-anchor="middle" x="316.5" y="-188" font-family="Helvetica,sans-Serif" font-size="10.00">yprefix</text>
<text text-anchor="middle" x="316.5" y="-177" font-family="Helvetica,sans-Serif" font-size="10.00">zprefix</text>
</g>
<!-- Node22 -->
<g id="node22" class="node">
<title>Node22</title>
<g id="a_node22"><a xlink:href="structReaktoro_1_1OutputterOptions.html" target="_top" xlink:title=" ">
<polygon fill="white" stroke="black" points="271,-216.5 271,-235.5 362,-235.5 362,-216.5 271,-216.5"/>
<text text-anchor="middle" x="316.5" y="-223.5" font-family="Helvetica,sans-Serif" font-size="10.00">OutputterOptions</text>
</a>
</g>
</g>
<!-- Node6&#45;&gt;Node22 -->
<g id="edge22" class="edge">
<title>Node6&#45;&gt;Node22</title>
<path fill="none" stroke="#9a32cd" stroke-dasharray="5,2" d="M183.42,-317.77C189.28,-312.91 195.83,-307.63 202,-303 236.29,-277.29 278.47,-249.66 300.5,-235.53"/>
<polygon fill="#9a32cd" stroke="#9a32cd" points="180.83,-315.38 175.44,-324.49 185.34,-320.73 180.83,-315.38"/>
<text text-anchor="middle" x="224" y="-306" font-family="Helvetica,sans-Serif" font-size="10.00"> separator</text>
</g>
<!-- Node23 -->
<g id="node23" class="node">
<title>Node23</title>
<g id="a_node23"><a xlink:title=" ">
<polygon fill="white" stroke="#bfbfbf" points="264,-296.5 264,-315.5 369,-315.5 369,-296.5 264,-296.5"/>
<text text-anchor="middle" x="316.5" y="-303.5" font-family="Helvetica,sans-Serif" font-size="10.00">vector&lt; std::string &gt;</text>
</a>
</g>
</g>
<!-- Node6&#45;&gt;Node23 -->
<g id="edge25" class="edge">
<title>Node6&#45;&gt;Node23</title>
<path fill="none" stroke="#9a32cd" stroke-dasharray="5,2" d="M194.28,-328.44C196.89,-327.95 199.49,-327.47 202,-327 222.19,-323.25 244.41,-319.13 263.8,-315.55"/>
<polygon fill="#9a32cd" stroke="#9a32cd" points="193.54,-325.01 184.35,-330.29 194.82,-331.9 193.54,-325.01"/>
<text text-anchor="middle" x="224" y="-330" font-family="Helvetica,sans-Serif" font-size="10.00"> elements</text>
</g>
<!-- Node25 -->
<g id="node25" class="node">
<title>Node25</title>
<g id="a_node25"><a xlink:href="structReaktoro_1_1NonlinearOutput.html" target="_top" xlink:title="A type that describes the options for the output of a non&#45;linear problem calculation.">
<polygon fill="white" stroke="black" points="547.5,-342.5 547.5,-361.5 634.5,-361.5 634.5,-342.5 547.5,-342.5"/>
<text text-anchor="middle" x="591" y="-349.5" font-family="Helvetica,sans-Serif" font-size="10.00">NonlinearOutput</text>
</a>
</g>
</g>
<!-- Node6&#45;&gt;Node25 -->
<g id="edge29" class="edge">
<title>Node6&#45;&gt;Node25</title>
<path fill="none" stroke="#9a32cd" stroke-dasharray="5,2" d="M194.55,-337.39C197.07,-337.62 199.58,-337.83 202,-338 327.39,-346.94 476.01,-350.28 547.46,-351.44"/>
<polygon fill="#9a32cd" stroke="#9a32cd" points="194.62,-333.88 184.33,-336.38 193.93,-340.85 194.62,-333.88"/>
<text text-anchor="middle" x="316.5" y="-360" font-family="Helvetica,sans-Serif" font-size="10.00"> fprefix</text>
<text text-anchor="middle" x="316.5" y="-349" font-family="Helvetica,sans-Serif" font-size="10.00">xprefix</text>
</g>
<!-- Node31 -->
<g id="node31" class="node">
<title>Node31</title>
<g id="a_node31"><a xlink:href="structReaktoro_1_1global_1_1InterpolationOptions.html" target="_top" xlink:title="A type used to describe all options related to interpolation.">
<polygon fill="white" stroke="black" points="539,-446.5 539,-465.5 643,-465.5 643,-446.5 539,-446.5"/>
<text text-anchor="middle" x="591" y="-453.5" font-family="Helvetica,sans-Serif" font-size="10.00">InterpolationOptions</text>
</a>
</g>
</g>
<!-- Node6&#45;&gt;Node31 -->
<g id="edge39" class="edge">
<title>Node6&#45;&gt;Node31</title>
<path fill="none" stroke="#9a32cd" stroke-dasharray="5,2" d="M178.02,-351.66C195.4,-372.94 227.69,-407.94 264,-425 353.67,-467.11 472.31,-466.26 538.93,-461.42"/>
<polygon fill="#9a32cd" stroke="#9a32cd" points="180.68,-349.38 171.72,-343.73 175.2,-353.74 180.68,-349.38"/>
<text text-anchor="middle" x="316.5" y="-469" font-family="Helvetica,sans-Serif" font-size="10.00"> pressure_units</text>
<text text-anchor="middle" x="316.5" y="-458" font-family="Helvetica,sans-Serif" font-size="10.00">temperature_units</text>
</g>
<!-- Node7 -->
<g id="node7" class="node">
<title>Node7</title>
<g id="a_node7"><a xlink:title="STL class.">
<polygon fill="white" stroke="#bfbfbf" points="0,-324.5 0,-343.5 106,-343.5 106,-324.5 0,-324.5"/>
<text text-anchor="middle" x="53" y="-331.5" font-family="Helvetica,sans-Serif" font-size="10.00">basic_string&lt; char &gt;</text>
</a>
</g>
</g>
<!-- Node7&#45;&gt;Node6 -->
<g id="edge6" class="edge">
<title>Node7&#45;&gt;Node6</title>
<path fill="none" stroke="midnightblue" d="M116.19,-334C125.87,-334 135.21,-334 142.93,-334"/>
<polygon fill="midnightblue" stroke="midnightblue" points="116.03,-330.5 106.03,-334 116.03,-337.5 116.03,-330.5"/>
</g>
<!-- Node8 -->
<g id="node8" class="node">
<title>Node8</title>
<g id="a_node8"><a xlink:href="structReaktoro_1_1EquilibriumOptions.html" target="_top" xlink:title="The options for the equilibrium calculations.">
<polygon fill="white" stroke="black" points="968,-302.5 968,-321.5 1066,-321.5 1066,-302.5 968,-302.5"/>
<text text-anchor="middle" x="1017" y="-309.5" font-family="Helvetica,sans-Serif" font-size="10.00">EquilibriumOptions</text>
</a>
</g>
</g>
<!-- Node8&#45;&gt;Node1 -->
<g id="edge41" class="edge">
<title>Node8&#45;&gt;Node1</title>
<path fill="none" stroke="#9a32cd" stroke-dasharray="5,2" d="M1076.3,-303.62C1078.9,-303.38 1081.48,-303.17 1084,-303 1196.33,-295.38 1328.11,-322.37 1390.98,-337.47"/>
<polygon fill="#9a32cd" stroke="#9a32cd" points="1075.81,-300.15 1066.22,-304.66 1076.53,-307.11 1075.81,-300.15"/>
<text text-anchor="middle" x="1225.5" y="-318" font-family="Helvetica,sans-Serif" font-size="10.00"> equilibrium</text>
</g>
<!-- Node8&#45;&gt;Node3 -->
<g id="edge7" class="edge">
<title>Node8&#45;&gt;Node3</title>
<path fill="none" stroke="#9a32cd" stroke-dasharray="5,2" d="M1066.86,-324.33C1091.78,-331.47 1122.19,-341.53 1148,-354 1156.66,-358.18 1157.84,-360.92 1166,-366 1179.76,-374.57 1195.68,-383.78 1207.44,-390.45"/>
<polygon fill="#9a32cd" stroke="#9a32cd" points="1067.48,-320.87 1056.9,-321.54 1065.59,-327.61 1067.48,-320.87"/>
<text text-anchor="middle" x="1116" y="-357" font-family="Helvetica,sans-Serif" font-size="10.00"> equilibrium</text>
</g>
<!-- Node8&#45;&gt;Node27 -->
<g id="edge34" class="edge">
<title>Node8&#45;&gt;Node27</title>
<path fill="none" stroke="#9a32cd" stroke-dasharray="5,2" d="M1076.2,-307.4C1098.84,-306.92 1124.85,-307.99 1148,-313 1169.88,-317.73 1193.12,-329.07 1208.16,-337.36"/>
<polygon fill="#9a32cd" stroke="#9a32cd" points="1075.94,-303.91 1066.06,-307.73 1076.16,-310.91 1075.94,-303.91"/>
<text text-anchor="middle" x="1116" y="-316" font-family="Helvetica,sans-Serif" font-size="10.00"> equilibrium</text>
</g>
<!-- Node9 -->
<g id="node9" class="node">
<title>Node9</title>
<g id="a_node9"><a xlink:href="structReaktoro_1_1OptimumOptions.html" target="_top" xlink:title="A type that describes the options of a optimisation calculation.">
<polygon fill="white" stroke="black" points="781.5,-190.5 781.5,-209.5 871.5,-209.5 871.5,-190.5 781.5,-190.5"/>
<text text-anchor="middle" x="826.5" y="-197.5" font-family="Helvetica,sans-Serif" font-size="10.00">OptimumOptions</text>
</a>
</g>
</g>
<!-- Node9&#45;&gt;Node8 -->
<g id="edge8" class="edge">
<title>Node9&#45;&gt;Node8</title>
<path fill="none" stroke="#9a32cd" stroke-dasharray="5,2" d="M852.28,-214.72C891.56,-238.06 967.03,-282.91 999.97,-302.48"/>
<polygon fill="#9a32cd" stroke="#9a32cd" points="853.96,-211.65 843.57,-209.55 850.38,-217.67 853.96,-211.65"/>
<text text-anchor="middle" x="928.5" y="-275" font-family="Helvetica,sans-Serif" font-size="10.00"> optimum</text>
</g>
<!-- Node10 -->
<g id="node10" class="node">
<title>Node10</title>
<g id="a_node10"><a xlink:href="structReaktoro_1_1OptimumParamsIpAction.html" target="_top" xlink:title=" ">
<polygon fill="white" stroke="black" points="528,-76.5 528,-95.5 654,-95.5 654,-76.5 528,-76.5"/>
<text text-anchor="middle" x="591" y="-83.5" font-family="Helvetica,sans-Serif" font-size="10.00">OptimumParamsIpAction</text>
</a>
</g>
</g>
<!-- Node10&#45;&gt;Node9 -->
<g id="edge9" class="edge">
<title>Node10&#45;&gt;Node9</title>
<path fill="none" stroke="#9a32cd" stroke-dasharray="5,2" d="M660.87,-97.82C688.51,-104.41 719.92,-114.35 746,-129 775.68,-145.68 803.77,-175.06 817.22,-190.27"/>
<polygon fill="#9a32cd" stroke="#9a32cd" points="661.41,-94.35 650.88,-95.53 659.85,-101.17 661.41,-94.35"/>
<text text-anchor="middle" x="715.5" y="-132" font-family="Helvetica,sans-Serif" font-size="10.00"> ipaction</text>
</g>
<!-- Node11 -->
<g id="node11" class="node">
<title>Node11</title>
<g id="a_node11"><a xlink:href="structReaktoro_1_1OptimumParamsIpOpt.html" target="_top" xlink:title=" ">
<polygon fill="white" stroke="black" points="534,-380.5 534,-399.5 648,-399.5 648,-380.5 534,-380.5"/>
<text text-anchor="middle" x="591" y="-387.5" font-family="Helvetica,sans-Serif" font-size="10.00">OptimumParamsIpOpt</text>
</a>
</g>
</g>
<!-- Node11&#45;&gt;Node9 -->
<g id="edge10" class="edge">
<title>Node11&#45;&gt;Node9</title>
<path fill="none" stroke="#9a32cd" stroke-dasharray="5,2" d="M657.42,-376.85C660.78,-375.13 664.01,-373.19 667,-371 679.24,-362.04 673.76,-352.19 685,-342 707.39,-321.71 723,-331.59 746,-312 764.61,-296.16 804.39,-233.87 819.51,-209.68"/>
<polygon fill="#9a32cd" stroke="#9a32cd" points="655.98,-373.66 648.24,-380.89 658.8,-380.06 655.98,-373.66"/>
<text text-anchor="middle" x="715.5" y="-345" font-family="Helvetica,sans-Serif" font-size="10.00"> ipopt</text>
</g>
<!-- Node12 -->
<g id="node12" class="node">
<title>Node12</title>
<g id="a_node12"><a xlink:title=" ">
<polygon fill="white" stroke="#bfbfbf" points="271.5,-396.5 271.5,-415.5 361.5,-415.5 361.5,-396.5 271.5,-396.5"/>
<text text-anchor="middle" x="316.5" y="-403.5" font-family="Helvetica,sans-Serif" font-size="10.00">vector&lt; double &gt;</text>
</a>
</g>
</g>
<!-- Node12&#45;&gt;Node11 -->
<g id="edge11" class="edge">
<title>Node12&#45;&gt;Node11</title>
<path fill="none" stroke="#9a32cd" stroke-dasharray="5,2" d="M353.91,-393.45C364.45,-390.38 376.07,-387.54 387,-386 436.22,-379.06 492.8,-380.98 533.7,-384.1"/>
<polygon fill="#9a32cd" stroke="#9a32cd" points="352.72,-390.15 344.18,-396.42 354.77,-396.85 352.72,-390.15"/>
<text text-anchor="middle" x="442" y="-389" font-family="Helvetica,sans-Serif" font-size="10.00"> mu</text>
</g>
<!-- Node12&#45;&gt;Node31 -->
<g id="edge40" class="edge">
<title>Node12&#45;&gt;Node31</title>
<path fill="none" stroke="#9a32cd" stroke-dasharray="5,2" d="M371.83,-406.14C407.75,-407.23 455.67,-410.6 497,-420 523.17,-425.95 551.74,-437.89 570.21,-446.39"/>
<polygon fill="#9a32cd" stroke="#9a32cd" points="371.65,-402.63 361.56,-405.88 371.47,-409.63 371.65,-402.63"/>
<text text-anchor="middle" x="442" y="-434" font-family="Helvetica,sans-Serif" font-size="10.00"> pressures</text>
<text text-anchor="middle" x="442" y="-423" font-family="Helvetica,sans-Serif" font-size="10.00">temperatures</text>
</g>
<!-- Node13 -->
<g id="node13" class="node">
<title>Node13</title>
<g id="a_node13"><a xlink:href="structReaktoro_1_1OptimumParamsIpActive.html" target="_top" xlink:title=" ">
<polygon fill="white" stroke="black" points="528,-0.5 528,-19.5 654,-19.5 654,-0.5 528,-0.5"/>
<text text-anchor="middle" x="591" y="-7.5" font-family="Helvetica,sans-Serif" font-size="10.00">OptimumParamsIpActive</text>
</a>
</g>
</g>
<!-- Node13&#45;&gt;Node9 -->
<g id="edge12" class="edge">
<title>Node13&#45;&gt;Node9</title>
<path fill="none" stroke="#9a32cd" stroke-dasharray="5,2" d="M664.32,-15.16C692.19,-20.21 722.85,-29.83 746,-48 794.96,-86.43 816.97,-163.42 823.4,-190.4"/>
<polygon fill="#9a32cd" stroke="#9a32cd" points="664.63,-11.67 654.2,-13.51 663.5,-18.58 664.63,-11.67"/>
<text text-anchor="middle" x="715.5" y="-51" font-family="Helvetica,sans-Serif" font-size="10.00"> ipactive</text>
</g>
<!-- Node14 -->
<g id="node14" class="node">
<title>Node14</title>
<g id="a_node14"><a xlink:href="structReaktoro_1_1OptimumParamsIpNewton.html" target="_top" xlink:title=" ">
<polygon fill="white" stroke="black" points="525,-304.5 525,-323.5 657,-323.5 657,-304.5 525,-304.5"/>
<text text-anchor="middle" x="591" y="-311.5" font-family="Helvetica,sans-Serif" font-size="10.00">OptimumParamsIpNewton</text>
</a>
</g>
</g>
<!-- Node14&#45;&gt;Node9 -->
<g id="edge13" class="edge">
<title>Node14&#45;&gt;Node9</title>
<path fill="none" stroke="#9a32cd" stroke-dasharray="5,2" d="M665.38,-302.22C691.89,-296 721.34,-286.7 746,-273 776.47,-256.07 804.63,-225.21 817.75,-209.59"/>
<polygon fill="#9a32cd" stroke="#9a32cd" points="664.37,-298.85 655.38,-304.45 665.9,-305.69 664.37,-298.85"/>
<text text-anchor="middle" x="715.5" y="-300" font-family="Helvetica,sans-Serif" font-size="10.00"> ipnewton</text>
</g>
<!-- Node15 -->
<g id="node15" class="node">
<title>Node15</title>
<g id="a_node15"><a xlink:href="structReaktoro_1_1KktOptions.html" target="_top" xlink:title="A type to describe the options for the KKT calculation.">
<polygon fill="white" stroke="black" points="558.5,-266.5 558.5,-285.5 623.5,-285.5 623.5,-266.5 558.5,-266.5"/>
<text text-anchor="middle" x="591" y="-273.5" font-family="Helvetica,sans-Serif" font-size="10.00">KktOptions</text>
</a>
</g>
</g>
<!-- Node15&#45;&gt;Node9 -->
<g id="edge14" class="edge">
<title>Node15&#45;&gt;Node9</title>
<path fill="none" stroke="#9a32cd" stroke-dasharray="5,2" d="M633.75,-269.01C665.18,-263.09 709.01,-253.41 746,-240 768.8,-231.73 793.54,-218.56 809.26,-209.61"/>
<polygon fill="#9a32cd" stroke="#9a32cd" points="632.8,-265.63 623.6,-270.87 634.07,-272.51 632.8,-265.63"/>
<text text-anchor="middle" x="715.5" y="-261" font-family="Helvetica,sans-Serif" font-size="10.00"> kkt</text>
</g>
<!-- Node16 -->
<g id="node16" class="node">
<title>Node16</title>
<g id="a_node16"><a xlink:href="structReaktoro_1_1OptimumParamsRegularization.html" target="_top" xlink:title="A type that describes the regularization options for the optimisation calculation.">
<polygon fill="white" stroke="black" points="515,-38.5 515,-57.5 667,-57.5 667,-38.5 515,-38.5"/>
<text text-anchor="middle" x="591" y="-45.5" font-family="Helvetica,sans-Serif" font-size="10.00">OptimumParamsRegularization</text>
</a>
</g>
</g>
<!-- Node16&#45;&gt;Node9 -->
<g id="edge15" class="edge">
<title>Node16&#45;&gt;Node9</title>
<path fill="none" stroke="#9a32cd" stroke-dasharray="5,2" d="M676.5,-59.93C700.48,-66.15 725.6,-75.61 746,-90 784.51,-117.16 811.37,-169.02 821.28,-190.41"/>
<polygon fill="#9a32cd" stroke="#9a32cd" points="677.21,-56.5 666.67,-57.54 675.56,-63.3 677.21,-56.5"/>
<text text-anchor="middle" x="715.5" y="-93" font-family="Helvetica,sans-Serif" font-size="10.00"> regularization</text>
</g>
<!-- Node17 -->
<g id="node17" class="node">
<title>Node17</title>
<g id="a_node17"><a xlink:href="structReaktoro_1_1RegularizerOptions.html" target="_top" xlink:title="A type that describes the options for regularizing linear constraints.">
<polygon fill="white" stroke="black" points="266.5,-38.5 266.5,-57.5 366.5,-57.5 366.5,-38.5 266.5,-38.5"/>
<text text-anchor="middle" x="316.5" y="-45.5" font-family="Helvetica,sans-Serif" font-size="10.00">RegularizerOptions</text>
</a>
</g>
</g>
<!-- Node17&#45;&gt;Node16 -->
<g id="edge16" class="edge">
<title>Node17&#45;&gt;Node16</title>
<path fill="none" stroke="midnightblue" d="M376.53,-48C417.09,-48 471.26,-48 514.89,-48"/>
<polygon fill="midnightblue" stroke="midnightblue" points="376.53,-44.5 366.53,-48 376.53,-51.5 376.53,-44.5"/>
</g>
<!-- Node18 -->
<g id="node18" class="node">
<title>Node18</title>
<g id="a_node18"><a xlink:href="structReaktoro_1_1OptimumParamsRefiner.html" target="_top" xlink:title=" ">
<polygon fill="white" stroke="black" points="530,-228.5 530,-247.5 652,-247.5 652,-228.5 530,-228.5"/>
<text text-anchor="middle" x="591" y="-235.5" font-family="Helvetica,sans-Serif" font-size="10.00">OptimumParamsRefiner</text>
</a>
</g>
</g>
<!-- Node18&#45;&gt;Node9 -->
<g id="edge17" class="edge">
<title>Node18&#45;&gt;Node9</title>
<path fill="none" stroke="#9a32cd" stroke-dasharray="5,2" d="M661.96,-228.13C688.34,-224.26 718.58,-219.63 746,-215 757.49,-213.06 769.89,-210.8 781.4,-208.63"/>
<polygon fill="#9a32cd" stroke="#9a32cd" points="661.44,-224.67 652.05,-229.57 662.46,-231.59 661.44,-224.67"/>
<text text-anchor="middle" x="715.5" y="-228" font-family="Helvetica,sans-Serif" font-size="10.00"> refiner</text>
</g>
<!-- Node19 -->
<g id="node19" class="node">
<title>Node19</title>
<g id="a_node19"><a xlink:href="structReaktoro_1_1OptimumParamsKarpov.html" target="_top" xlink:title=" ">
<polygon fill="white" stroke="black" points="530.5,-190.5 530.5,-209.5 651.5,-209.5 651.5,-190.5 530.5,-190.5"/>
<text text-anchor="middle" x="591" y="-197.5" font-family="Helvetica,sans-Serif" font-size="10.00">OptimumParamsKarpov</text>
</a>
</g>
</g>
<!-- Node19&#45;&gt;Node9 -->
<g id="edge18" class="edge">
<title>Node19&#45;&gt;Node9</title>
<path fill="none" stroke="#9a32cd" stroke-dasharray="5,2" d="M661.7,-200C700.44,-200 747.48,-200 781.2,-200"/>
<polygon fill="#9a32cd" stroke="#9a32cd" points="661.53,-196.5 651.53,-200 661.53,-203.5 661.53,-196.5"/>
<text text-anchor="middle" x="715.5" y="-203" font-family="Helvetica,sans-Serif" font-size="10.00"> karpov</text>
</g>
<!-- Node20 -->
<g id="node20" class="node">
<title>Node20</title>
<g id="a_node20"><a xlink:href="structReaktoro_1_1OptimumParamsActNewton.html" target="_top" xlink:title=" ">
<polygon fill="white" stroke="black" points="521.5,-152.5 521.5,-171.5 660.5,-171.5 660.5,-152.5 521.5,-152.5"/>
<text text-anchor="middle" x="591" y="-159.5" font-family="Helvetica,sans-Serif" font-size="10.00">OptimumParamsActNewton</text>
</a>
</g>
</g>
<!-- Node20&#45;&gt;Node9 -->
<g id="edge19" class="edge">
<title>Node20&#45;&gt;Node9</title>
<path fill="none" stroke="#9a32cd" stroke-dasharray="5,2" d="M669.52,-172.99C694.01,-176.62 721.17,-180.8 746,-185 757.49,-186.94 769.89,-189.2 781.4,-191.37"/>
<polygon fill="#9a32cd" stroke="#9a32cd" points="669.96,-169.51 659.56,-171.52 668.94,-176.44 669.96,-169.51"/>
<text text-anchor="middle" x="715.5" y="-188" font-family="Helvetica,sans-Serif" font-size="10.00"> actnewton</text>
</g>
<!-- Node21&#45;&gt;Node9 -->
<g id="edge20" class="edge">
<title>Node21&#45;&gt;Node9</title>
<path fill="none" stroke="#9a32cd" stroke-dasharray="5,2" d="M653.99,-135.63C682.45,-141.8 716.38,-150.32 746,-161 768.42,-169.08 792.83,-181.67 808.61,-190.35"/>
<polygon fill="#9a32cd" stroke="#9a32cd" points="654.68,-132.2 644.17,-133.55 653.22,-139.05 654.68,-132.2"/>
<text text-anchor="middle" x="715.5" y="-164" font-family="Helvetica,sans-Serif" font-size="10.00"> output</text>
</g>
<!-- Node22&#45;&gt;Node21 -->
<g id="edge21" class="edge">
<title>Node22&#45;&gt;Node21</title>
<path fill="none" stroke="midnightblue" d="M362.41,-213.56C399.89,-202.12 453.94,-183.14 497,-158 505.99,-152.75 505.72,-147.73 515,-143 522.54,-139.16 530.91,-136.05 539.25,-133.56"/>
<polygon fill="midnightblue" stroke="midnightblue" points="361.36,-210.22 352.78,-216.44 363.37,-216.93 361.36,-210.22"/>
</g>
<!-- Node22&#45;&gt;Node25 -->
<g id="edge28" class="edge">
<title>Node22&#45;&gt;Node25</title>
<path fill="none" stroke="midnightblue" d="M368.24,-214.88C408.15,-209.33 462.57,-209.27 497,-240 528.41,-268.04 486.09,-302.4 515,-333 523.39,-341.89 535.3,-346.85 547.15,-349.57"/>
<polygon fill="midnightblue" stroke="midnightblue" points="367.52,-211.45 358.18,-216.44 368.59,-218.37 367.52,-211.45"/>
</g>
<!-- Node23&#45;&gt;Node21 -->
<g id="edge24" class="edge">
<title>Node23&#45;&gt;Node21</title>
<path fill="none" stroke="#9a32cd" stroke-dasharray="5,2" d="M340.65,-290.67C354.1,-281.86 371.41,-270.65 387,-261 435.29,-231.12 461.19,-240.08 497,-196 512.69,-176.69 496.73,-159.88 515,-143 519.74,-138.63 525.33,-135.22 531.3,-132.58"/>
<polygon fill="#9a32cd" stroke="#9a32cd" points="338.46,-287.92 332.03,-296.34 342.31,-293.77 338.46,-287.92"/>
<text text-anchor="middle" x="442" y="-286" font-family="Helvetica,sans-Serif" font-size="10.00"> xnames</text>
<text text-anchor="middle" x="442" y="-275" font-family="Helvetica,sans-Serif" font-size="10.00">ynames</text>
<text text-anchor="middle" x="442" y="-264" font-family="Helvetica,sans-Serif" font-size="10.00">znames</text>
</g>
<!-- Node23&#45;&gt;Node25 -->
<g id="edge30" class="edge">
<title>Node23&#45;&gt;Node25</title>
<path fill="none" stroke="#9a32cd" stroke-dasharray="5,2" d="M379.45,-299.17C415.19,-297.7 460.21,-300.17 497,-316 507.11,-320.35 505.36,-327.7 515,-333 524.89,-338.43 536.36,-342.35 547.32,-345.15"/>
<polygon fill="#9a32cd" stroke="#9a32cd" points="378.95,-295.69 369.15,-299.71 379.32,-302.68 378.95,-295.69"/>
<text text-anchor="middle" x="442" y="-330" font-family="Helvetica,sans-Serif" font-size="10.00"> fnames</text>
<text text-anchor="middle" x="442" y="-319" font-family="Helvetica,sans-Serif" font-size="10.00">xnames</text>
</g>
<!-- Node24 -->
<g id="node24" class="node">
<title>Node24</title>
<g id="a_node24"><a xlink:href="structReaktoro_1_1NonlinearOptions.html" target="_top" xlink:title="A type that describes the options for the solution of a non&#45;linear problem.">
<polygon fill="white" stroke="black" points="780.5,-356.5 780.5,-375.5 872.5,-375.5 872.5,-356.5 780.5,-356.5"/>
<text text-anchor="middle" x="826.5" y="-363.5" font-family="Helvetica,sans-Serif" font-size="10.00">NonlinearOptions</text>
</a>
</g>
</g>
<!-- Node24&#45;&gt;Node8 -->
<g id="edge26" class="edge">
<title>Node24&#45;&gt;Node8</title>
<path fill="none" stroke="#9a32cd" stroke-dasharray="5,2" d="M870.46,-353.69C904.54,-343.93 951.49,-330.48 982.75,-321.53"/>
<polygon fill="#9a32cd" stroke="#9a32cd" points="869.42,-350.35 860.77,-356.47 871.34,-357.08 869.42,-350.35"/>
<text text-anchor="middle" x="928.5" y="-345" font-family="Helvetica,sans-Serif" font-size="10.00"> nonlinear</text>
</g>
<!-- Node25&#45;&gt;Node24 -->
<g id="edge27" class="edge">
<title>Node25&#45;&gt;Node24</title>
<path fill="none" stroke="#9a32cd" stroke-dasharray="5,2" d="M644.6,-355.15C685.5,-357.61 741.61,-360.97 780.45,-363.3"/>
<polygon fill="#9a32cd" stroke="#9a32cd" points="644.75,-351.66 634.56,-354.55 644.33,-358.64 644.75,-351.66"/>
<text text-anchor="middle" x="715.5" y="-364" font-family="Helvetica,sans-Serif" font-size="10.00"> output</text>
</g>
<!-- Node26 -->
<g id="node26" class="node">
<title>Node26</title>
<g id="a_node26"><a xlink:href="structReaktoro_1_1SmartEquilibriumOptions.html" target="_top" xlink:title="The options for the smart equilibrium calculations.">
<polygon fill="white" stroke="black" points="764,-302.5 764,-321.5 889,-321.5 889,-302.5 764,-302.5"/>
<text text-anchor="middle" x="826.5" y="-309.5" font-family="Helvetica,sans-Serif" font-size="10.00">SmartEquilibriumOptions</text>
</a>
</g>
</g>
<!-- Node26&#45;&gt;Node8 -->
<g id="edge31" class="edge">
<title>Node26&#45;&gt;Node8</title>
<path fill="none" stroke="#9a32cd" stroke-dasharray="5,2" d="M899.27,-312C922.21,-312 947.05,-312 967.89,-312"/>
<polygon fill="#9a32cd" stroke="#9a32cd" points="899.22,-308.5 889.22,-312 899.22,-315.5 899.22,-308.5"/>
<text text-anchor="middle" x="928.5" y="-315" font-family="Helvetica,sans-Serif" font-size="10.00"> smart</text>
</g>
<!-- Node27&#45;&gt;Node1 -->
<g id="edge32" class="edge">
<title>Node27&#45;&gt;Node1</title>
<path fill="none" stroke="#9a32cd" stroke-dasharray="5,2" d="M1295.16,-347C1326.87,-347 1363.31,-347 1389.99,-347"/>
<polygon fill="#9a32cd" stroke="#9a32cd" points="1295.05,-343.5 1285.05,-347 1295.05,-350.5 1295.05,-343.5"/>
<text text-anchor="middle" x="1337.5" y="-350" font-family="Helvetica,sans-Serif" font-size="10.00"> equilibriumpath</text>
</g>
<!-- Node28 -->
<g id="node28" class="node">
<title>Node28</title>
<g id="a_node28"><a xlink:href="structReaktoro_1_1global_1_1AqueousOptions.html" target="_top" xlink:title="A type used to describe all options related to aqueous models.">
<polygon fill="white" stroke="black" points="1181,-223.5 1181,-242.5 1270,-242.5 1270,-223.5 1181,-223.5"/>
<text text-anchor="middle" x="1225.5" y="-230.5" font-family="Helvetica,sans-Serif" font-size="10.00">AqueousOptions</text>
</a>
</g>
</g>
<!-- Node28&#45;&gt;Node1 -->
<g id="edge35" class="edge">
<title>Node28&#45;&gt;Node1</title>
<path fill="none" stroke="#9a32cd" stroke-dasharray="5,2" d="M1280.14,-229.98C1309.47,-230.84 1345.18,-236.2 1372,-254 1402.78,-274.43 1419.25,-318.09 1425.29,-337.44"/>
<polygon fill="#9a32cd" stroke="#9a32cd" points="1280.1,-226.48 1270.05,-229.86 1280.01,-233.48 1280.1,-226.48"/>
<text text-anchor="middle" x="1337.5" y="-257" font-family="Helvetica,sans-Serif" font-size="10.00"> aqueous</text>
</g>
<!-- Node29 -->
<g id="node29" class="node">
<title>Node29</title>
<g id="a_node29"><a xlink:href="structReaktoro_1_1global_1_1AqueousOptions_1_1HKF.html" target="_top" xlink:title="A type used to describe all options related to HKF model.">
<polygon fill="white" stroke="black" points="998.5,-195.5 998.5,-214.5 1035.5,-214.5 1035.5,-195.5 998.5,-195.5"/>
<text text-anchor="middle" x="1017" y="-202.5" font-family="Helvetica,sans-Serif" font-size="10.00">HKF</text>
</a>
</g>
</g>
<!-- Node29&#45;&gt;Node28 -->
<g id="edge36" class="edge">
<title>Node29&#45;&gt;Node28</title>
<path fill="none" stroke="#9a32cd" stroke-dasharray="5,2" d="M1045.68,-208.52C1072.01,-211.88 1112.72,-217.16 1148,-222 1158.63,-223.46 1170.09,-225.08 1180.82,-226.62"/>
<polygon fill="#9a32cd" stroke="#9a32cd" points="1046.03,-205.03 1035.67,-207.24 1045.15,-211.98 1046.03,-205.03"/>
<text text-anchor="middle" x="1116" y="-225" font-family="Helvetica,sans-Serif" font-size="10.00"> hkf</text>
</g>
<!-- Node30 -->
<g id="node30" class="node">
<title>Node30</title>
<g id="a_node30"><a xlink:href="structReaktoro_1_1global_1_1AqueousOptions_1_1DebyeHuckel.html" target="_top" xlink:title="A type used to describe all options related to Debye&#45;Huckel model.">
<polygon fill="white" stroke="black" points="979,-233.5 979,-252.5 1055,-252.5 1055,-233.5 979,-233.5"/>
<text text-anchor="middle" x="1017" y="-240.5" font-family="Helvetica,sans-Serif" font-size="10.00">DebyeHuckel</text>
</a>
</g>
</g>
<!-- Node30&#45;&gt;Node28 -->
<g id="edge37" class="edge">
<title>Node30&#45;&gt;Node28</title>
<path fill="none" stroke="#9a32cd" stroke-dasharray="5,2" d="M1065.77,-240.69C1100.53,-239 1147.21,-236.74 1180.94,-235.11"/>
<polygon fill="#9a32cd" stroke="#9a32cd" points="1065.21,-237.21 1055.4,-241.19 1065.55,-244.2 1065.21,-237.21"/>
<text text-anchor="middle" x="1116" y="-243" font-family="Helvetica,sans-Serif" font-size="10.00"> debye_huckel</text>
</g>
<!-- Node31&#45;&gt;Node1 -->
<g id="edge38" class="edge">
<title>Node31&#45;&gt;Node1</title>
<path fill="none" stroke="#9a32cd" stroke-dasharray="5,2" d="M653.52,-457.36C775.11,-459.02 1054.39,-457.77 1285,-419 1324.67,-412.33 1336.48,-412.9 1372,-394 1390.6,-384.1 1408.62,-367.28 1419,-356.67"/>
<polygon fill="#9a32cd" stroke="#9a32cd" points="653.35,-453.85 643.3,-457.21 653.24,-460.85 653.35,-453.85"/>
<text text-anchor="middle" x="1017" y="-454" font-family="Helvetica,sans-Serif" font-size="10.00"> interpolation</text>
</g>
<!-- Node32 -->
<g id="node32" class="node">
<title>Node32</title>
<g id="a_node32"><a xlink:href="structReaktoro_1_1global_1_1DatabaseOptions.html" target="_top" xlink:title="A type used to describe all options related to database management.">
<polygon fill="white" stroke="black" points="1179.5,-185.5 1179.5,-204.5 1271.5,-204.5 1271.5,-185.5 1179.5,-185.5"/>
<text text-anchor="middle" x="1225.5" y="-192.5" font-family="Helvetica,sans-Serif" font-size="10.00">DatabaseOptions</text>
</a>
</g>
</g>
<!-- Node32&#45;&gt;Node1 -->
<g id="edge42" class="edge">
<title>Node32&#45;&gt;Node1</title>
<path fill="none" stroke="#9a32cd" stroke-dasharray="5,2" d="M1281.78,-191.06C1311.3,-191.77 1346.67,-197.46 1372,-217 1411.89,-247.77 1423.8,-312.62 1426.97,-337.24"/>
<polygon fill="#9a32cd" stroke="#9a32cd" points="1281.63,-187.56 1271.61,-191 1281.59,-194.56 1281.63,-187.56"/>
<text text-anchor="middle" x="1337.5" y="-220" font-family="Helvetica,sans-Serif" font-size="10.00"> database</text>
</g>
</g>
</svg>
