<?xml version="1.0" encoding="UTF-8" standalone="no"?>
<!DOCTYPE svg PUBLIC "-//W3C//DTD SVG 1.1//EN"
 "http://www.w3.org/Graphics/SVG/1.1/DTD/svg11.dtd">
<!-- Generated by graphviz version 2.42.3 (20191010.1750)
 -->
<!-- Title: CubicEOS::InteractionParamsArgs Pages: 1 -->
<svg width="292pt" height="128pt"
 viewBox="0.00 0.00 292.00 128.00" xmlns="http://www.w3.org/2000/svg" xmlns:xlink="http://www.w3.org/1999/xlink">
<g id="graph0" class="graph" transform="scale(1 1) rotate(0) translate(4 124)">
<title>CubicEOS::InteractionParamsArgs</title>
<polygon fill="white" stroke="transparent" points="-4,4 -4,-124 288,-124 288,4 -4,4"/>
<!-- Node1 -->
<g id="node1" class="node">
<title>Node1</title>
<g id="a_node1"><a xlink:title=" ">
<polygon fill="#bfbfbf" stroke="black" points="61,-0.5 61,-19.5 230,-19.5 230,-0.5 61,-0.5"/>
<text text-anchor="middle" x="145.5" y="-7.5" font-family="Helvetica,sans-Serif" font-size="10.00">CubicEOS::InteractionParamsArgs</text>
</a>
</g>
</g>
<!-- Node2 -->
<g id="node2" class="node">
<title>Node2</title>
<g id="a_node2"><a xlink:href="classReaktoro_1_1ThermoVectorBase.html" target="_top" xlink:title=" ">
<polygon fill="white" stroke="black" points="0,-89.5 0,-119.5 141,-119.5 141,-89.5 0,-89.5"/>
<text text-anchor="start" x="8" y="-107.5" font-family="Helvetica,sans-Serif" font-size="10.00">ThermoVectorBase&lt; Vector,</text>
<text text-anchor="middle" x="70.5" y="-96.5" font-family="Helvetica,sans-Serif" font-size="10.00"> Vector, Vector &gt;</text>
</a>
</g>
</g>
<!-- Node2&#45;&gt;Node1 -->
<g id="edge1" class="edge">
<title>Node2&#45;&gt;Node1</title>
<path fill="none" stroke="#9a32cd" stroke-dasharray="5,2" d="M88.31,-81.53C104.37,-61.73 127.16,-33.62 138.51,-19.62"/>
<polygon fill="#9a32cd" stroke="#9a32cd" points="85.47,-79.48 81.89,-89.45 90.91,-83.89 85.47,-79.48"/>
<text text-anchor="middle" x="132.5" y="-63" font-family="Helvetica,sans-Serif" font-size="10.00"> a</text>
<text text-anchor="middle" x="132.5" y="-52" font-family="Helvetica,sans-Serif" font-size="10.00">aT</text>
<text text-anchor="middle" x="132.5" y="-41" font-family="Helvetica,sans-Serif" font-size="10.00">aTT</text>
</g>
<!-- Node3 -->
<g id="node3" class="node">
<title>Node3</title>
<g id="a_node3"><a xlink:href="classReaktoro_1_1ThermoScalarBase.html" target="_top" xlink:title="A template base class to represent a thermodynamic scalar and its partial derivatives.">
<polygon fill="white" stroke="black" points="159,-95 159,-114 284,-114 284,-95 159,-95"/>
<text text-anchor="middle" x="221.5" y="-102" font-family="Helvetica,sans-Serif" font-size="10.00">ThermoScalarBase&lt; V &gt;</text>
</a>
</g>
</g>
<!-- Node3&#45;&gt;Node1 -->
<g id="edge2" class="edge">
<title>Node3&#45;&gt;Node1</title>
<path fill="none" stroke="#9a32cd" stroke-dasharray="5,2" d="M208.04,-87.12C191.8,-67.35 165.1,-34.85 152.5,-19.52"/>
<polygon fill="#9a32cd" stroke="#9a32cd" points="205.43,-89.46 214.49,-94.96 210.84,-85.02 205.43,-89.46"/>
<text text-anchor="middle" x="199.5" y="-52" font-family="Helvetica,sans-Serif" font-size="10.00"> T</text>
</g>
</g>
</svg>
