<?xml version="1.0" encoding="UTF-8" standalone="no"?>
<!DOCTYPE svg PUBLIC "-//W3C//DTD SVG 1.1//EN"
 "http://www.w3.org/Graphics/SVG/1.1/DTD/svg11.dtd">
<!-- Generated by graphviz version 2.42.3 (20191010.1750)
 -->
<!-- Title: AqueousMixtureState Pages: 1 -->
<svg width="620pt" height="228pt"
 viewBox="0.00 0.00 620.00 227.50" xmlns="http://www.w3.org/2000/svg" xmlns:xlink="http://www.w3.org/1999/xlink">
<g id="graph0" class="graph" transform="scale(1 1) rotate(0) translate(4 223.5)">
<title>AqueousMixtureState</title>
<polygon fill="white" stroke="transparent" points="-4,4 -4,-223.5 616,-223.5 616,4 -4,4"/>
<!-- Node1 -->
<g id="node1" class="node">
<title>Node1</title>
<g id="a_node1"><a xlink:title="A type used to describe the state of an aqueous mixture.">
<polygon fill="#bfbfbf" stroke="black" points="502,-73 502,-92 612,-92 612,-73 502,-73"/>
<text text-anchor="middle" x="557" y="-80" font-family="Helvetica,sans-Serif" font-size="10.00">AqueousMixtureState</text>
</a>
</g>
</g>
<!-- Node2 -->
<g id="node2" class="node">
<title>Node2</title>
<g id="a_node2"><a xlink:href="structReaktoro_1_1MixtureState.html" target="_top" xlink:title="A type used to describe the state of a mixture.">
<polygon fill="white" stroke="black" points="323,-155 323,-174 395,-174 395,-155 323,-155"/>
<text text-anchor="middle" x="359" y="-162" font-family="Helvetica,sans-Serif" font-size="10.00">MixtureState</text>
</a>
</g>
</g>
<!-- Node2&#45;&gt;Node1 -->
<g id="edge1" class="edge">
<title>Node2&#45;&gt;Node1</title>
<path fill="none" stroke="midnightblue" d="M399.19,-151.7C423.84,-143.3 456.14,-131.65 484,-119.5 503.19,-111.13 524.43,-99.97 538.84,-92.1"/>
<polygon fill="midnightblue" stroke="midnightblue" points="397.83,-148.47 389.47,-154.98 400.07,-155.1 397.83,-148.47"/>
</g>
<!-- Node3 -->
<g id="node3" class="node">
<title>Node3</title>
<g id="a_node3"><a xlink:href="classReaktoro_1_1Temperature.html" target="_top" xlink:title="A type that describes temperature in units of K.">
<polygon fill="white" stroke="black" points="141.5,-200 141.5,-219 212.5,-219 212.5,-200 141.5,-200"/>
<text text-anchor="middle" x="177" y="-207" font-family="Helvetica,sans-Serif" font-size="10.00">Temperature</text>
</a>
</g>
</g>
<!-- Node3&#45;&gt;Node2 -->
<g id="edge2" class="edge">
<title>Node3&#45;&gt;Node2</title>
<path fill="none" stroke="#9a32cd" stroke-dasharray="5,2" d="M222.79,-198.3C253.69,-190.58 294.19,-180.45 322.79,-173.3"/>
<polygon fill="#9a32cd" stroke="#9a32cd" points="221.56,-195 212.71,-200.82 223.26,-201.79 221.56,-195"/>
<text text-anchor="middle" x="263" y="-190.5" font-family="Helvetica,sans-Serif" font-size="10.00"> T</text>
</g>
<!-- Node4 -->
<g id="node4" class="node">
<title>Node4</title>
<g id="a_node4"><a xlink:href="classReaktoro_1_1ThermoScalarBase.html" target="_top" xlink:title="A template base class to represent a thermodynamic scalar and its partial derivatives.">
<polygon fill="white" stroke="black" points="0,-180 0,-199 77,-199 77,-180 0,-180"/>
<text text-anchor="middle" x="38.5" y="-187" font-family="Helvetica,sans-Serif" font-size="10.00">ThermoScalar</text>
</a>
</g>
</g>
<!-- Node4&#45;&gt;Node3 -->
<g id="edge3" class="edge">
<title>Node4&#45;&gt;Node3</title>
<path fill="none" stroke="midnightblue" d="M87.34,-196.51C105.11,-199.11 124.9,-202.01 141.27,-204.41"/>
<polygon fill="midnightblue" stroke="midnightblue" points="87.56,-193 77.16,-195.02 86.55,-199.93 87.56,-193"/>
</g>
<!-- Node5 -->
<g id="node5" class="node">
<title>Node5</title>
<g id="a_node5"><a xlink:href="classReaktoro_1_1Pressure.html" target="_top" xlink:title="A type that describes pressure in units of Pa.">
<polygon fill="white" stroke="black" points="149,-162 149,-181 205,-181 205,-162 149,-162"/>
<text text-anchor="middle" x="177" y="-169" font-family="Helvetica,sans-Serif" font-size="10.00">Pressure</text>
</a>
</g>
</g>
<!-- Node4&#45;&gt;Node5 -->
<g id="edge5" class="edge">
<title>Node4&#45;&gt;Node5</title>
<path fill="none" stroke="midnightblue" d="M87.33,-183.19C107.94,-180.47 131.29,-177.4 148.85,-175.08"/>
<polygon fill="midnightblue" stroke="midnightblue" points="86.62,-179.76 77.16,-184.53 87.53,-186.7 86.62,-179.76"/>
</g>
<!-- Node5&#45;&gt;Node2 -->
<g id="edge4" class="edge">
<title>Node5&#45;&gt;Node2</title>
<path fill="none" stroke="#9a32cd" stroke-dasharray="5,2" d="M215.52,-170.04C247.15,-168.81 292.07,-167.06 322.97,-165.86"/>
<polygon fill="#9a32cd" stroke="#9a32cd" points="215.19,-166.55 205.34,-170.44 215.47,-173.55 215.19,-166.55"/>
<text text-anchor="middle" x="263" y="-170.5" font-family="Helvetica,sans-Serif" font-size="10.00"> P</text>
</g>
<!-- Node6 -->
<g id="node6" class="node">
<title>Node6</title>
<g id="a_node6"><a xlink:href="classReaktoro_1_1ChemicalVectorBase.html" target="_top" xlink:title=" ">
<polygon fill="white" stroke="black" points="114,-95 114,-136 240,-136 240,-95 114,-95"/>
<text text-anchor="start" x="122" y="-124" font-family="Helvetica,sans-Serif" font-size="10.00">ChemicalVectorBase</text>
<text text-anchor="start" x="122" y="-113" font-family="Helvetica,sans-Serif" font-size="10.00">&lt; Vector, Vector, Vector,</text>
<text text-anchor="middle" x="177" y="-102" font-family="Helvetica,sans-Serif" font-size="10.00"> Matrix &gt;</text>
</a>
</g>
</g>
<!-- Node6&#45;&gt;Node1 -->
<g id="edge9" class="edge">
<title>Node6&#45;&gt;Node1</title>
<path fill="none" stroke="#9a32cd" stroke-dasharray="5,2" d="M250.28,-110.77C312.34,-106.49 404.15,-99.62 484,-91.5 489.77,-90.91 495.78,-90.25 501.78,-89.55"/>
<polygon fill="#9a32cd" stroke="#9a32cd" points="249.94,-107.29 240.2,-111.47 250.41,-114.27 249.94,-107.29"/>
<text text-anchor="middle" x="359" y="-121.5" font-family="Helvetica,sans-Serif" font-size="10.00"> m</text>
<text text-anchor="middle" x="359" y="-110.5" font-family="Helvetica,sans-Serif" font-size="10.00">ms</text>
</g>
<!-- Node6&#45;&gt;Node2 -->
<g id="edge6" class="edge">
<title>Node6&#45;&gt;Node2</title>
<path fill="none" stroke="#9a32cd" stroke-dasharray="5,2" d="M250.09,-135.13C275.25,-141.97 302.34,-149.35 323.09,-155"/>
<polygon fill="#9a32cd" stroke="#9a32cd" points="250.77,-131.68 240.2,-132.43 248.93,-138.44 250.77,-131.68"/>
<text text-anchor="middle" x="263" y="-142.5" font-family="Helvetica,sans-Serif" font-size="10.00"> x</text>
</g>
<!-- Node7 -->
<g id="node7" class="node">
<title>Node7</title>
<g id="a_node7"><a xlink:href="classReaktoro_1_1ThermoScalarBase.html" target="_top" xlink:title=" ">
<polygon fill="white" stroke="black" points="286,-50 286,-69 432,-69 432,-50 286,-50"/>
<text text-anchor="middle" x="359" y="-57" font-family="Helvetica,sans-Serif" font-size="10.00">ThermoScalarBase&lt; double &gt;</text>
</a>
</g>
</g>
<!-- Node7&#45;&gt;Node1 -->
<g id="edge7" class="edge">
<title>Node7&#45;&gt;Node1</title>
<path fill="none" stroke="#9a32cd" stroke-dasharray="5,2" d="M442.32,-65C456.25,-66.26 470.56,-67.75 484,-69.5 491.43,-70.47 499.26,-71.68 506.91,-72.97"/>
<polygon fill="#9a32cd" stroke="#9a32cd" points="442.52,-61.5 432.25,-64.12 441.91,-68.48 442.52,-61.5"/>
<text text-anchor="middle" x="467" y="-83.5" font-family="Helvetica,sans-Serif" font-size="10.00"> epsilon</text>
<text text-anchor="middle" x="467" y="-72.5" font-family="Helvetica,sans-Serif" font-size="10.00">rho</text>
</g>
<!-- Node8 -->
<g id="node8" class="node">
<title>Node8</title>
<g id="a_node8"><a xlink:href="classReaktoro_1_1ChemicalScalarBase.html" target="_top" xlink:title=" ">
<polygon fill="white" stroke="black" points="300,-0.5 300,-30.5 418,-30.5 418,-0.5 300,-0.5"/>
<text text-anchor="start" x="308" y="-18.5" font-family="Helvetica,sans-Serif" font-size="10.00">ChemicalScalarBase</text>
<text text-anchor="middle" x="359" y="-7.5" font-family="Helvetica,sans-Serif" font-size="10.00">&lt; double, RowVector &gt;</text>
</a>
</g>
</g>
<!-- Node8&#45;&gt;Node1 -->
<g id="edge8" class="edge">
<title>Node8&#45;&gt;Node1</title>
<path fill="none" stroke="#9a32cd" stroke-dasharray="5,2" d="M428.35,-24.34C446.77,-27.9 466.46,-32.8 484,-39.5 506.17,-47.97 529.3,-63.08 543.18,-72.95"/>
<polygon fill="#9a32cd" stroke="#9a32cd" points="428.73,-20.85 418.26,-22.5 427.47,-27.74 428.73,-20.85"/>
<text text-anchor="middle" x="467" y="-53.5" font-family="Helvetica,sans-Serif" font-size="10.00"> Ie</text>
<text text-anchor="middle" x="467" y="-42.5" font-family="Helvetica,sans-Serif" font-size="10.00">Is</text>
</g>
</g>
</svg>
