<?xml version="1.0" encoding="UTF-8" standalone="no"?>
<!DOCTYPE svg PUBLIC "-//W3C//DTD SVG 1.1//EN"
 "http://www.w3.org/Graphics/SVG/1.1/DTD/svg11.dtd">
<!-- Generated by graphviz version 2.42.3 (20191010.1750)
 -->
<!-- Title: CubicEOS::Result Pages: 1 -->
<svg width="374pt" height="200pt"
 viewBox="0.00 0.00 374.00 200.00" xmlns="http://www.w3.org/2000/svg" xmlns:xlink="http://www.w3.org/1999/xlink">
<g id="graph0" class="graph" transform="scale(1 1) rotate(0) translate(4 196)">
<title>CubicEOS::Result</title>
<polygon fill="white" stroke="transparent" points="-4,4 -4,-196 370,-196 370,4 -4,4"/>
<!-- Node1 -->
<g id="node1" class="node">
<title>Node1</title>
<g id="a_node1"><a xlink:title=" ">
<polygon fill="#bfbfbf" stroke="black" points="268,-55.5 268,-74.5 366,-74.5 366,-55.5 268,-55.5"/>
<text text-anchor="middle" x="317" y="-62.5" font-family="Helvetica,sans-Serif" font-size="10.00">CubicEOS::Result</text>
</a>
</g>
</g>
<!-- Node2 -->
<g id="node2" class="node">
<title>Node2</title>
<g id="a_node2"><a xlink:href="classReaktoro_1_1ChemicalScalarBase.html" target="_top" xlink:title=" ">
<polygon fill="white" stroke="black" points="4,-95 4,-125 122,-125 122,-95 4,-95"/>
<text text-anchor="start" x="12" y="-113" font-family="Helvetica,sans-Serif" font-size="10.00">ChemicalScalarBase</text>
<text text-anchor="middle" x="63" y="-102" font-family="Helvetica,sans-Serif" font-size="10.00">&lt; double, RowVector &gt;</text>
</a>
</g>
</g>
<!-- Node2&#45;&gt;Node1 -->
<g id="edge1" class="edge">
<title>Node2&#45;&gt;Node1</title>
<path fill="none" stroke="#9a32cd" stroke-dasharray="5,2" d="M132.59,-105.47C167.97,-102.24 211.64,-96.84 250,-88 264.43,-84.68 280.09,-79.3 292.54,-74.58"/>
<polygon fill="#9a32cd" stroke="#9a32cd" points="132.02,-102.01 122.37,-106.37 132.64,-108.98 132.02,-102.01"/>
<text text-anchor="middle" x="197" y="-184" font-family="Helvetica,sans-Serif" font-size="10.00"> molar_volume</text>
<text text-anchor="middle" x="197" y="-173" font-family="Helvetica,sans-Serif" font-size="10.00">residual_molar_enthalpy</text>
<text text-anchor="start" x="144" y="-162" font-family="Helvetica,sans-Serif" font-size="10.00">residual_molar_gibbs</text>
<text text-anchor="middle" x="197" y="-151" font-family="Helvetica,sans-Serif" font-size="10.00">_energy</text>
<text text-anchor="start" x="144" y="-140" font-family="Helvetica,sans-Serif" font-size="10.00">residual_molar_heat</text>
<text text-anchor="middle" x="197" y="-129" font-family="Helvetica,sans-Serif" font-size="10.00">_capacity_cp</text>
<text text-anchor="start" x="144" y="-118" font-family="Helvetica,sans-Serif" font-size="10.00">residual_molar_heat</text>
<text text-anchor="middle" x="197" y="-107" font-family="Helvetica,sans-Serif" font-size="10.00">_capacity_cv</text>
</g>
<!-- Node3 -->
<g id="node3" class="node">
<title>Node3</title>
<g id="a_node3"><a xlink:href="classReaktoro_1_1ChemicalVectorBase.html" target="_top" xlink:title=" ">
<polygon fill="white" stroke="black" points="0,-0.5 0,-41.5 126,-41.5 126,-0.5 0,-0.5"/>
<text text-anchor="start" x="8" y="-29.5" font-family="Helvetica,sans-Serif" font-size="10.00">ChemicalVectorBase</text>
<text text-anchor="start" x="8" y="-18.5" font-family="Helvetica,sans-Serif" font-size="10.00">&lt; Vector, Vector, Vector,</text>
<text text-anchor="middle" x="63" y="-7.5" font-family="Helvetica,sans-Serif" font-size="10.00"> Matrix &gt;</text>
</a>
</g>
</g>
<!-- Node3&#45;&gt;Node1 -->
<g id="edge2" class="edge">
<title>Node3&#45;&gt;Node1</title>
<path fill="none" stroke="#9a32cd" stroke-dasharray="5,2" d="M136.18,-12.01C171.23,-9.99 213.54,-11.06 250,-22 271.74,-28.52 293.04,-44.67 305.33,-55.21"/>
<polygon fill="#9a32cd" stroke="#9a32cd" points="135.77,-8.53 126.02,-12.69 136.24,-15.51 135.77,-8.53"/>
<text text-anchor="middle" x="197" y="-80" font-family="Helvetica,sans-Serif" font-size="10.00"> ln_fugacity_coefficients</text>
<text text-anchor="middle" x="197" y="-69" font-family="Helvetica,sans-Serif" font-size="10.00">partial_molar_volumes</text>
<text text-anchor="start" x="144" y="-58" font-family="Helvetica,sans-Serif" font-size="10.00">residual_partial_molar</text>
<text text-anchor="middle" x="197" y="-47" font-family="Helvetica,sans-Serif" font-size="10.00">_enthalpies</text>
<text text-anchor="start" x="144" y="-36" font-family="Helvetica,sans-Serif" font-size="10.00">residual_partial_molar</text>
<text text-anchor="middle" x="197" y="-25" font-family="Helvetica,sans-Serif" font-size="10.00">_gibbs_energies</text>
</g>
</g>
</svg>
