<?xml version="1.0" encoding="UTF-8" standalone="no"?>
<!DOCTYPE svg PUBLIC "-//W3C//DTD SVG 1.1//EN"
 "http://www.w3.org/Graphics/SVG/1.1/DTD/svg11.dtd">
<!-- Generated by graphviz version 2.42.3 (20191010.1750)
 -->
<!-- Title: SpeciesThermoInterpolatedProperties Pages: 1 -->
<svg width="153pt" height="205pt"
 viewBox="0.00 0.00 153.00 205.00" xmlns="http://www.w3.org/2000/svg" xmlns:xlink="http://www.w3.org/1999/xlink">
<g id="graph0" class="graph" transform="scale(1 1) rotate(0) translate(4 201)">
<title>SpeciesThermoInterpolatedProperties</title>
<polygon fill="white" stroke="transparent" points="-4,4 -4,-201 149,-201 149,4 -4,4"/>
<!-- Node1 -->
<g id="node1" class="node">
<title>Node1</title>
<g id="a_node1"><a xlink:title="A type for storing thermodynamic properties of a species over a range of temperatures and pressures.">
<polygon fill="#bfbfbf" stroke="black" points="0,-0.5 0,-30.5 136,-30.5 136,-0.5 0,-0.5"/>
<text text-anchor="start" x="8" y="-18.5" font-family="Helvetica,sans-Serif" font-size="10.00">SpeciesThermoInterpolated</text>
<text text-anchor="middle" x="68" y="-7.5" font-family="Helvetica,sans-Serif" font-size="10.00">Properties</text>
</a>
</g>
</g>
<!-- Node2 -->
<g id="node2" class="node">
<title>Node2</title>
<g id="a_node2"><a xlink:href="classReaktoro_1_1BilinearInterpolator.html" target="_top" xlink:title="A class used to calculate bilinear interpolation of data in two dimensions.">
<polygon fill="white" stroke="black" points="19,-177.5 19,-196.5 117,-196.5 117,-177.5 19,-177.5"/>
<text text-anchor="middle" x="68" y="-184.5" font-family="Helvetica,sans-Serif" font-size="10.00">BilinearInterpolator</text>
</a>
</g>
</g>
<!-- Node2&#45;&gt;Node1 -->
<g id="edge1" class="edge">
<title>Node2&#45;&gt;Node1</title>
<path fill="none" stroke="#9a32cd" stroke-dasharray="5,2" d="M68,-167.32C68,-133.08 68,-61.01 68,-30.56"/>
<polygon fill="#9a32cd" stroke="#9a32cd" points="64.5,-167.36 68,-177.36 71.5,-167.36 64.5,-167.36"/>
<text text-anchor="middle" x="106.5" y="-151" font-family="Helvetica,sans-Serif" font-size="10.00"> enthalpy</text>
<text text-anchor="middle" x="106.5" y="-140" font-family="Helvetica,sans-Serif" font-size="10.00">entropy</text>
<text text-anchor="middle" x="106.5" y="-129" font-family="Helvetica,sans-Serif" font-size="10.00">gibbs_energy</text>
<text text-anchor="start" x="68" y="-118" font-family="Helvetica,sans-Serif" font-size="10.00">heat_capacity</text>
<text text-anchor="middle" x="106.5" y="-107" font-family="Helvetica,sans-Serif" font-size="10.00">_cp</text>
<text text-anchor="start" x="68" y="-96" font-family="Helvetica,sans-Serif" font-size="10.00">heat_capacity</text>
<text text-anchor="middle" x="106.5" y="-85" font-family="Helvetica,sans-Serif" font-size="10.00">_cv</text>
<text text-anchor="middle" x="106.5" y="-74" font-family="Helvetica,sans-Serif" font-size="10.00">helmholtz_energy</text>
<text text-anchor="middle" x="106.5" y="-63" font-family="Helvetica,sans-Serif" font-size="10.00">internal_energy</text>
<text text-anchor="middle" x="106.5" y="-52" font-family="Helvetica,sans-Serif" font-size="10.00">volume</text>
</g>
</g>
</svg>
