<?xml version="1.0" encoding="UTF-8" standalone="no"?>
<!DOCTYPE svg PUBLIC "-//W3C//DTD SVG 1.1//EN"
 "http://www.w3.org/Graphics/SVG/1.1/DTD/svg11.dtd">
<!-- Generated by graphviz version 2.42.3 (20191010.1750)
 -->
<!-- Title: KineticOptions Pages: 1 -->
<!--zoomable 503 -->
<svg id="main" version="1.1" xmlns="http://www.w3.org/2000/svg" xmlns:xlink="http://www.w3.org/1999/xlink" xml:space="preserve" onload="init(evt)">
<style type="text/css"><![CDATA[
.edge:hover path { stroke: red; }
.edge:hover polygon { stroke: red; fill: red; }
]]></style>
<script type="text/javascript"><![CDATA[
var edges = document.getElementsByTagName('g');
if (edges && edges.length) {
  for (var i=0;i<edges.length;i++) {
    if (edges[i].id.substr(0,4)=='edge') {
      edges[i].setAttribute('class','edge');
    }
  }
}
]]></script>
        <defs>
                <circle id="rim" cx="0" cy="0" r="7"/>
                <circle id="rim2" cx="0" cy="0" r="3.5"/>
                <g id="zoomPlus">
                        <use xlink:href="#rim" fill="#404040">
                                <set attributeName="fill" to="#808080" begin="zoomplus.mouseover" end="zoomplus.mouseout"/>
                        </use>
                        <path d="M-4,0h8M0,-4v8" fill="none" stroke="white" stroke-width="1.5" pointer-events="none"/>
                </g>
                <g id="zoomMin">
                        <use xlink:href="#rim" fill="#404040">
                                <set attributeName="fill" to="#808080" begin="zoomminus.mouseover" end="zoomminus.mouseout"/>
                        </use>
                        <path d="M-4,0h8" fill="none" stroke="white" stroke-width="1.5" pointer-events="none"/>
                </g>
                <g id="dirArrow">
                        <path fill="none" stroke="white" stroke-width="1.5" d="M0,-3.0v7 M-2.5,-0.5L0,-3.0L2.5,-0.5"/>
                </g>
               <g id="resetDef">
                       <use xlink:href="#rim2" fill="#404040">
                               <set attributeName="fill" to="#808080" begin="reset.mouseover" end="reset.mouseout"/>
                       </use>
               </g>
        </defs>

<script type="text/javascript">
var viewWidth = 1240;
var viewHeight = 503;
var sectionId = 'dynsection-0';
</script>
<script xlink:href="svgpan.js"/>
<svg id="graph" class="graph">
<g id="viewport">
<title>KineticOptions</title>
<polygon fill="white" stroke="transparent" points="-4,4 -4,-498.51 1236,-498.51 1236,4 -4,4"/>
<!-- Node1 -->
<g id="node1" class="node">
<title>Node1</title>
<polygon fill="#bfbfbf" stroke="black" points="1152,-437.01 1152,-456.01 1232,-456.01 1232,-437.01 1152,-437.01"/>
<text text-anchor="middle" x="1192" y="-444.01" font-family="Helvetica,sans-Serif" font-size="10.00">KineticOptions</text>
</g>
<!-- Node2 -->
<g id="node2" class="node">
<title>Node2</title>
<g id="a_node2"><a xlink:href="structReaktoro_1_1ODEOptions.html" target="_top" xlink:title="A struct that defines the options for the ODESolver. ">
<polygon fill="white" stroke="black" points="981,-475.01 981,-494.01 1053,-494.01 1053,-475.01 981,-475.01"/>
<text text-anchor="middle" x="1017" y="-482.01" font-family="Helvetica,sans-Serif" font-size="10.00">ODEOptions</text>
</a>
</g>
</g>
<!-- Node2&#45;&gt;Node1 -->
<g id="edge1" class="edge">
<title>Node2&#45;&gt;Node1</title>
<path fill="none" stroke="#9a32cd" stroke-dasharray="5,2" d="M1062.95,-475.61C1084.49,-471.24 1110.62,-465.79 1134,-460.51 1140.16,-459.11 1146.68,-457.57 1153.03,-456.04"/>
<polygon fill="#9a32cd" stroke="#9a32cd" points="1062.21,-472.19 1053.1,-477.59 1063.59,-479.05 1062.21,-472.19"/>
<text text-anchor="middle" x="1109" y="-473.51" font-family="Helvetica,sans-Serif" font-size="10.00"> ode</text>
</g>
<!-- Node3 -->
<g id="node3" class="node">
<title>Node3</title>
<g id="a_node3"><a xlink:href="structReaktoro_1_1KineticOutputOptions.html" target="_top" xlink:title="KineticOutputOptions">
<polygon fill="white" stroke="black" points="387,-427.01 387,-446.01 497,-446.01 497,-427.01 387,-427.01"/>
<text text-anchor="middle" x="442" y="-434.01" font-family="Helvetica,sans-Serif" font-size="10.00">KineticOutputOptions</text>
</a>
</g>
</g>
<!-- Node3&#45;&gt;Node1 -->
<g id="edge2" class="edge">
<title>Node3&#45;&gt;Node1</title>
<path fill="none" stroke="#9a32cd" stroke-dasharray="5,2" d="M507.36,-440.21C562.36,-443.06 643.6,-446.51 714.5,-446.51 714.5,-446.51 714.5,-446.51 1018,-446.51 1063.95,-446.51 1116.77,-446.51 1151.84,-446.51"/>
<polygon fill="#9a32cd" stroke="#9a32cd" points="507.24,-436.7 497.07,-439.67 506.87,-443.69 507.24,-436.7"/>
<text text-anchor="middle" x="826.5" y="-449.51" font-family="Helvetica,sans-Serif" font-size="10.00"> output</text>
</g>
<!-- Node4 -->
<g id="node4" class="node">
<title>Node4</title>
<g id="a_node4"><a xlink:title="STL class. ">
<polygon fill="white" stroke="#bfbfbf" points="143,-113.01 143,-132.01 184,-132.01 184,-113.01 143,-113.01"/>
<text text-anchor="middle" x="163.5" y="-120.01" font-family="Helvetica,sans-Serif" font-size="10.00">string</text>
</a>
</g>
</g>
<!-- Node4&#45;&gt;Node3 -->
<g id="edge3" class="edge">
<title>Node4&#45;&gt;Node3</title>
<path fill="none" stroke="#9a32cd" stroke-dasharray="5,2" d="M165.86,-142.27C170.35,-191.69 189.05,-321.51 264,-389.51 297.44,-419.84 348.24,-430.98 386.85,-434.89"/>
<polygon fill="#9a32cd" stroke="#9a32cd" points="169.34,-141.94 165.05,-132.26 162.37,-142.51 169.34,-141.94"/>
<text text-anchor="middle" x="224" y="-372.51" font-family="Helvetica,sans-Serif" font-size="10.00"> format</text>
</g>
<!-- Node19 -->
<g id="node19" class="node">
<title>Node19</title>
<g id="a_node19"><a xlink:href="structReaktoro_1_1OptimumOutputOptions.html" target="_top" xlink:title="A type that describes the options for the output of a optimisation calculation. ">
<polygon fill="white" stroke="black" points="531.5,-133.01 531.5,-152.01 650.5,-152.01 650.5,-133.01 531.5,-133.01"/>
<text text-anchor="middle" x="591" y="-140.01" font-family="Helvetica,sans-Serif" font-size="10.00">OptimumOutputOptions</text>
</a>
</g>
</g>
<!-- Node4&#45;&gt;Node19 -->
<g id="edge21" class="edge">
<title>Node4&#45;&gt;Node19</title>
<path fill="none" stroke="#9a32cd" stroke-dasharray="5,2" d="M193.62,-134.48C251.96,-156.79 387.01,-200.01 497,-171.51 505.86,-169.21 506.49,-164.88 515,-161.51 524.24,-157.84 534.4,-154.71 544.19,-152.1"/>
<polygon fill="#9a32cd" stroke="#9a32cd" points="194.87,-131.21 184.28,-130.83 192.32,-137.73 194.87,-131.21"/>
<text text-anchor="middle" x="316.5" y="-202.51" font-family="Helvetica,sans-Serif" font-size="10.00"> xprefix</text>
<text text-anchor="middle" x="316.5" y="-191.51" font-family="Helvetica,sans-Serif" font-size="10.00">yprefix</text>
<text text-anchor="middle" x="316.5" y="-180.51" font-family="Helvetica,sans-Serif" font-size="10.00">zprefix</text>
</g>
<!-- Node20 -->
<g id="node20" class="node">
<title>Node20</title>
<g id="a_node20"><a xlink:href="structReaktoro_1_1OutputterOptions.html" target="_top" xlink:title="OutputterOptions">
<polygon fill="white" stroke="black" points="271,-55.01 271,-74.01 362,-74.01 362,-55.01 271,-55.01"/>
<text text-anchor="middle" x="316.5" y="-62.01" font-family="Helvetica,sans-Serif" font-size="10.00">OutputterOptions</text>
</a>
</g>
</g>
<!-- Node4&#45;&gt;Node20 -->
<g id="edge20" class="edge">
<title>Node4&#45;&gt;Node20</title>
<path fill="none" stroke="#9a32cd" stroke-dasharray="5,2" d="M193.7,-110.76C196.5,-109.66 199.3,-108.56 202,-107.51 232.04,-95.81 266.72,-82.73 289.75,-74.11"/>
<polygon fill="#9a32cd" stroke="#9a32cd" points="192.32,-107.55 184.32,-114.5 194.91,-114.05 192.32,-107.55"/>
<text text-anchor="middle" x="224" y="-110.51" font-family="Helvetica,sans-Serif" font-size="10.00"> separator</text>
</g>
<!-- Node21 -->
<g id="node21" class="node">
<title>Node21</title>
<polygon fill="white" stroke="#bfbfbf" points="264,-113.01 264,-132.01 369,-132.01 369,-113.01 264,-113.01"/>
<text text-anchor="middle" x="316.5" y="-120.01" font-family="Helvetica,sans-Serif" font-size="10.00">vector&lt; std::string &gt;</text>
</g>
<!-- Node4&#45;&gt;Node21 -->
<g id="edge23" class="edge">
<title>Node4&#45;&gt;Node21</title>
<path fill="none" stroke="#9a32cd" stroke-dasharray="5,2" d="M194.5,-122.51C214.31,-122.51 240.78,-122.51 263.92,-122.51"/>
<polygon fill="#9a32cd" stroke="#9a32cd" points="194.24,-119.01 184.24,-122.51 194.24,-126.01 194.24,-119.01"/>
<text text-anchor="middle" x="224" y="-125.51" font-family="Helvetica,sans-Serif" font-size="10.00"> elements</text>
</g>
<!-- Node23 -->
<g id="node23" class="node">
<title>Node23</title>
<g id="a_node23"><a xlink:href="structReaktoro_1_1NonlinearOutput.html" target="_top" xlink:title="A type that describes the options for the output of a non&#45;linear problem calculation. ">
<polygon fill="white" stroke="black" points="547.5,-19.01 547.5,-38.01 634.5,-38.01 634.5,-19.01 547.5,-19.01"/>
<text text-anchor="middle" x="591" y="-26.01" font-family="Helvetica,sans-Serif" font-size="10.00">NonlinearOutput</text>
</a>
</g>
</g>
<!-- Node4&#45;&gt;Node23 -->
<g id="edge27" class="edge">
<title>Node4&#45;&gt;Node23</title>
<path fill="none" stroke="#9a32cd" stroke-dasharray="5,2" d="M176.05,-104.21C192.31,-80.38 224.43,-39.84 264,-23.51 362.1,16.99 491.38,-4.52 553.54,-18.93"/>
<polygon fill="#9a32cd" stroke="#9a32cd" points="173.02,-102.44 170.44,-112.72 178.86,-106.3 173.02,-102.44"/>
<text text-anchor="middle" x="316.5" y="-37.51" font-family="Helvetica,sans-Serif" font-size="10.00"> fprefix</text>
<text text-anchor="middle" x="316.5" y="-26.51" font-family="Helvetica,sans-Serif" font-size="10.00">xprefix</text>
</g>
<!-- Node5 -->
<g id="node5" class="node">
<title>Node5</title>
<g id="a_node5"><a xlink:title="STL class. ">
<polygon fill="white" stroke="#bfbfbf" points="0,-113.01 0,-132.01 106,-132.01 106,-113.01 0,-113.01"/>
<text text-anchor="middle" x="53" y="-120.01" font-family="Helvetica,sans-Serif" font-size="10.00">basic_string&lt; char &gt;</text>
</a>
</g>
</g>
<!-- Node5&#45;&gt;Node4 -->
<g id="edge4" class="edge">
<title>Node5&#45;&gt;Node4</title>
<path fill="none" stroke="midnightblue" d="M116.19,-122.51C125.87,-122.51 135.21,-122.51 142.93,-122.51"/>
<polygon fill="midnightblue" stroke="midnightblue" points="116.03,-119.01 106.03,-122.51 116.03,-126.01 116.03,-119.01"/>
</g>
<!-- Node6 -->
<g id="node6" class="node">
<title>Node6</title>
<g id="a_node6"><a xlink:href="structReaktoro_1_1EquilibriumOptions.html" target="_top" xlink:title="The options for the equilibrium calculations. ">
<polygon fill="white" stroke="black" points="968,-248.01 968,-267.01 1066,-267.01 1066,-248.01 968,-248.01"/>
<text text-anchor="middle" x="1017" y="-255.01" font-family="Helvetica,sans-Serif" font-size="10.00">EquilibriumOptions</text>
</a>
</g>
</g>
<!-- Node6&#45;&gt;Node1 -->
<g id="edge5" class="edge">
<title>Node6&#45;&gt;Node1</title>
<path fill="none" stroke="#9a32cd" stroke-dasharray="5,2" d="M1034,-274.98C1069.55,-313.83 1154.21,-406.31 1181.99,-436.67"/>
<polygon fill="#9a32cd" stroke="#9a32cd" points="1036.15,-272.15 1026.82,-267.14 1030.99,-276.88 1036.15,-272.15"/>
<text text-anchor="middle" x="1109" y="-382.51" font-family="Helvetica,sans-Serif" font-size="10.00"> equilibrium</text>
</g>
<!-- Node7 -->
<g id="node7" class="node">
<title>Node7</title>
<g id="a_node7"><a xlink:href="structReaktoro_1_1OptimumOptions.html" target="_top" xlink:title="A type that describes the options of a optimisation calculation. ">
<polygon fill="white" stroke="black" points="781.5,-228.01 781.5,-247.01 871.5,-247.01 871.5,-228.01 781.5,-228.01"/>
<text text-anchor="middle" x="826.5" y="-235.01" font-family="Helvetica,sans-Serif" font-size="10.00">OptimumOptions</text>
</a>
</g>
</g>
<!-- Node7&#45;&gt;Node6 -->
<g id="edge6" class="edge">
<title>Node7&#45;&gt;Node6</title>
<path fill="none" stroke="#9a32cd" stroke-dasharray="5,2" d="M881.92,-241.85C903.18,-243.69 927.75,-245.99 950,-248.51 955.75,-249.16 961.76,-249.89 967.73,-250.66"/>
<polygon fill="#9a32cd" stroke="#9a32cd" points="882.04,-238.35 871.78,-240.99 881.44,-245.32 882.04,-238.35"/>
<text text-anchor="middle" x="928.5" y="-251.51" font-family="Helvetica,sans-Serif" font-size="10.00"> optimum</text>
</g>
<!-- Node8 -->
<g id="node8" class="node">
<title>Node8</title>
<g id="a_node8"><a xlink:href="structReaktoro_1_1OptimumParamsIpAction.html" target="_top" xlink:title="OptimumParamsIpAction">
<polygon fill="white" stroke="black" points="528,-323.01 528,-342.01 654,-342.01 654,-323.01 528,-323.01"/>
<text text-anchor="middle" x="591" y="-330.01" font-family="Helvetica,sans-Serif" font-size="10.00">OptimumParamsIpAction</text>
</a>
</g>
</g>
<!-- Node8&#45;&gt;Node7 -->
<g id="edge7" class="edge">
<title>Node8&#45;&gt;Node7</title>
<path fill="none" stroke="#9a32cd" stroke-dasharray="5,2" d="M664.24,-326.65C692.24,-321.28 723.01,-311.23 746,-292.51 759.87,-281.21 750.36,-268.08 764,-256.51 769.03,-252.24 775.01,-248.93 781.23,-246.37"/>
<polygon fill="#9a32cd" stroke="#9a32cd" points="663.32,-323.25 654.07,-328.42 664.52,-330.15 663.32,-323.25"/>
<text text-anchor="middle" x="715.5" y="-323.51" font-family="Helvetica,sans-Serif" font-size="10.00"> ipaction</text>
</g>
<!-- Node9 -->
<g id="node9" class="node">
<title>Node9</title>
<g id="a_node9"><a xlink:href="structReaktoro_1_1OptimumParamsIpOpt.html" target="_top" xlink:title="OptimumParamsIpOpt">
<polygon fill="white" stroke="black" points="534,-361.01 534,-380.01 648,-380.01 648,-361.01 534,-361.01"/>
<text text-anchor="middle" x="591" y="-368.01" font-family="Helvetica,sans-Serif" font-size="10.00">OptimumParamsIpOpt</text>
</a>
</g>
</g>
<!-- Node9&#45;&gt;Node7 -->
<g id="edge8" class="edge">
<title>Node9&#45;&gt;Node7</title>
<path fill="none" stroke="#9a32cd" stroke-dasharray="5,2" d="M658.29,-370.87C688.79,-367.55 723.18,-358.32 746,-335.51 771.47,-310.05 739.52,-282.91 764,-256.51 768.71,-251.42 774.75,-247.69 781.19,-244.95"/>
<polygon fill="#9a32cd" stroke="#9a32cd" points="657.77,-367.4 648.12,-371.78 658.39,-374.38 657.77,-367.4"/>
<text text-anchor="middle" x="715.5" y="-368.51" font-family="Helvetica,sans-Serif" font-size="10.00"> ipopt</text>
</g>
<!-- Node10 -->
<g id="node10" class="node">
<title>Node10</title>
<polygon fill="white" stroke="#bfbfbf" points="271.5,-361.01 271.5,-380.01 361.5,-380.01 361.5,-361.01 271.5,-361.01"/>
<text text-anchor="middle" x="316.5" y="-368.01" font-family="Helvetica,sans-Serif" font-size="10.00">vector&lt; double &gt;</text>
</g>
<!-- Node10&#45;&gt;Node9 -->
<g id="edge9" class="edge">
<title>Node10&#45;&gt;Node9</title>
<path fill="none" stroke="#9a32cd" stroke-dasharray="5,2" d="M371.85,-370.51C418.75,-370.51 486.23,-370.51 533.69,-370.51"/>
<polygon fill="#9a32cd" stroke="#9a32cd" points="371.58,-367.01 361.58,-370.51 371.58,-374.01 371.58,-367.01"/>
<text text-anchor="middle" x="442" y="-373.51" font-family="Helvetica,sans-Serif" font-size="10.00"> mu</text>
</g>
<!-- Node11 -->
<g id="node11" class="node">
<title>Node11</title>
<g id="a_node11"><a xlink:href="structReaktoro_1_1OptimumParamsIpActive.html" target="_top" xlink:title="OptimumParamsIpActive">
<polygon fill="white" stroke="black" points="528,-247.01 528,-266.01 654,-266.01 654,-247.01 528,-247.01"/>
<text text-anchor="middle" x="591" y="-254.01" font-family="Helvetica,sans-Serif" font-size="10.00">OptimumParamsIpActive</text>
</a>
</g>
</g>
<!-- Node11&#45;&gt;Node7 -->
<g id="edge10" class="edge">
<title>Node11&#45;&gt;Node7</title>
<path fill="none" stroke="#9a32cd" stroke-dasharray="5,2" d="M664.32,-250.62C702.52,-247.51 748.18,-243.8 781.14,-241.12"/>
<polygon fill="#9a32cd" stroke="#9a32cd" points="663.95,-247.14 654.27,-251.44 664.52,-254.12 663.95,-247.14"/>
<text text-anchor="middle" x="715.5" y="-251.51" font-family="Helvetica,sans-Serif" font-size="10.00"> ipactive</text>
</g>
<!-- Node12 -->
<g id="node12" class="node">
<title>Node12</title>
<g id="a_node12"><a xlink:href="structReaktoro_1_1OptimumParamsIpNewton.html" target="_top" xlink:title="OptimumParamsIpNewton">
<polygon fill="white" stroke="black" points="525,-209.01 525,-228.01 657,-228.01 657,-209.01 525,-209.01"/>
<text text-anchor="middle" x="591" y="-216.01" font-family="Helvetica,sans-Serif" font-size="10.00">OptimumParamsIpNewton</text>
</a>
</g>
</g>
<!-- Node12&#45;&gt;Node7 -->
<g id="edge11" class="edge">
<title>Node12&#45;&gt;Node7</title>
<path fill="none" stroke="#9a32cd" stroke-dasharray="5,2" d="M667.41,-222.68C692.44,-224.26 720.43,-226.23 746,-228.51 757.48,-229.53 769.88,-230.83 781.38,-232.13"/>
<polygon fill="#9a32cd" stroke="#9a32cd" points="667.44,-219.17 657.24,-222.05 667.01,-226.16 667.44,-219.17"/>
<text text-anchor="middle" x="715.5" y="-231.51" font-family="Helvetica,sans-Serif" font-size="10.00"> ipnewton</text>
</g>
<!-- Node13 -->
<g id="node13" class="node">
<title>Node13</title>
<g id="a_node13"><a xlink:href="structReaktoro_1_1KktOptions.html" target="_top" xlink:title="A type to describe the options for the KKT calculation. ">
<polygon fill="white" stroke="black" points="558.5,-171.01 558.5,-190.01 623.5,-190.01 623.5,-171.01 558.5,-171.01"/>
<text text-anchor="middle" x="591" y="-178.01" font-family="Helvetica,sans-Serif" font-size="10.00">KktOptions</text>
</a>
</g>
</g>
<!-- Node13&#45;&gt;Node7 -->
<g id="edge12" class="edge">
<title>Node13&#45;&gt;Node7</title>
<path fill="none" stroke="#9a32cd" stroke-dasharray="5,2" d="M633.7,-186.13C664.93,-190.81 708.53,-198.35 746,-208.51 765.43,-213.77 786.83,-221.71 802.53,-227.95"/>
<polygon fill="#9a32cd" stroke="#9a32cd" points="634.01,-182.63 623.61,-184.65 633,-189.56 634.01,-182.63"/>
<text text-anchor="middle" x="715.5" y="-211.51" font-family="Helvetica,sans-Serif" font-size="10.00"> kkt</text>
</g>
<!-- Node14 -->
<g id="node14" class="node">
<title>Node14</title>
<g id="a_node14"><a xlink:href="structReaktoro_1_1OptimumParamsRegularization.html" target="_top" xlink:title="A type that describes the regularization options for the optimisation calculation. ">
<polygon fill="white" stroke="black" points="515,-285.01 515,-304.01 667,-304.01 667,-285.01 515,-285.01"/>
<text text-anchor="middle" x="591" y="-292.01" font-family="Helvetica,sans-Serif" font-size="10.00">OptimumParamsRegularization</text>
</a>
</g>
</g>
<!-- Node14&#45;&gt;Node7 -->
<g id="edge13" class="edge">
<title>Node14&#45;&gt;Node7</title>
<path fill="none" stroke="#9a32cd" stroke-dasharray="5,2" d="M661.81,-283.09C688.41,-278.05 718.85,-271.45 746,-263.51 754.24,-261.09 755.89,-259.33 764,-256.51 773.39,-253.23 783.69,-249.94 793.12,-247.04"/>
<polygon fill="#9a32cd" stroke="#9a32cd" points="661.01,-279.68 651.82,-284.94 662.29,-286.56 661.01,-279.68"/>
<text text-anchor="middle" x="715.5" y="-280.51" font-family="Helvetica,sans-Serif" font-size="10.00"> regularization</text>
</g>
<!-- Node15 -->
<g id="node15" class="node">
<title>Node15</title>
<g id="a_node15"><a xlink:href="structReaktoro_1_1RegularizerOptions.html" target="_top" xlink:title="A type that describes the options for regularizing linear constraints. ">
<polygon fill="white" stroke="black" points="266.5,-285.01 266.5,-304.01 366.5,-304.01 366.5,-285.01 266.5,-285.01"/>
<text text-anchor="middle" x="316.5" y="-292.01" font-family="Helvetica,sans-Serif" font-size="10.00">RegularizerOptions</text>
</a>
</g>
</g>
<!-- Node15&#45;&gt;Node14 -->
<g id="edge14" class="edge">
<title>Node15&#45;&gt;Node14</title>
<path fill="none" stroke="midnightblue" d="M376.53,-294.51C417.09,-294.51 471.26,-294.51 514.89,-294.51"/>
<polygon fill="midnightblue" stroke="midnightblue" points="376.53,-291.01 366.53,-294.51 376.53,-298.01 376.53,-291.01"/>
</g>
<!-- Node16 -->
<g id="node16" class="node">
<title>Node16</title>
<g id="a_node16"><a xlink:href="structReaktoro_1_1OptimumParamsRefiner.html" target="_top" xlink:title="OptimumParamsRefiner">
<polygon fill="white" stroke="black" points="530,-95.01 530,-114.01 652,-114.01 652,-95.01 530,-95.01"/>
<text text-anchor="middle" x="591" y="-102.01" font-family="Helvetica,sans-Serif" font-size="10.00">OptimumParamsRefiner</text>
</a>
</g>
</g>
<!-- Node16&#45;&gt;Node7 -->
<g id="edge15" class="edge">
<title>Node16&#45;&gt;Node7</title>
<path fill="none" stroke="#9a32cd" stroke-dasharray="5,2" d="M662.11,-113.33C689.79,-119.14 720.91,-128.72 746,-144.51 781.06,-166.57 808.83,-208.98 820.08,-227.94"/>
<polygon fill="#9a32cd" stroke="#9a32cd" points="662.57,-109.86 652.08,-111.36 661.22,-116.73 662.57,-109.86"/>
<text text-anchor="middle" x="715.5" y="-147.51" font-family="Helvetica,sans-Serif" font-size="10.00"> refiner</text>
</g>
<!-- Node17 -->
<g id="node17" class="node">
<title>Node17</title>
<g id="a_node17"><a xlink:href="structReaktoro_1_1OptimumParamsKarpov.html" target="_top" xlink:title="OptimumParamsKarpov">
<polygon fill="white" stroke="black" points="530.5,-57.01 530.5,-76.01 651.5,-76.01 651.5,-57.01 530.5,-57.01"/>
<text text-anchor="middle" x="591" y="-64.01" font-family="Helvetica,sans-Serif" font-size="10.00">OptimumParamsKarpov</text>
</a>
</g>
</g>
<!-- Node17&#45;&gt;Node7 -->
<g id="edge16" class="edge">
<title>Node17&#45;&gt;Node7</title>
<path fill="none" stroke="#9a32cd" stroke-dasharray="5,2" d="M662.07,-72.03C690.31,-77.1 721.85,-86.64 746,-104.51 757.46,-112.99 804.46,-198.63 820.28,-227.82"/>
<polygon fill="#9a32cd" stroke="#9a32cd" points="662.27,-68.52 651.84,-70.36 661.14,-75.43 662.27,-68.52"/>
<text text-anchor="middle" x="715.5" y="-107.51" font-family="Helvetica,sans-Serif" font-size="10.00"> karpov</text>
</g>
<!-- Node18 -->
<g id="node18" class="node">
<title>Node18</title>
<g id="a_node18"><a xlink:href="structReaktoro_1_1OptimumParamsActNewton.html" target="_top" xlink:title="OptimumParamsActNewton">
<polygon fill="white" stroke="black" points="521.5,-399.01 521.5,-418.01 660.5,-418.01 660.5,-399.01 521.5,-399.01"/>
<text text-anchor="middle" x="591" y="-406.01" font-family="Helvetica,sans-Serif" font-size="10.00">OptimumParamsActNewton</text>
</a>
</g>
</g>
<!-- Node18&#45;&gt;Node7 -->
<g id="edge17" class="edge">
<title>Node18&#45;&gt;Node7</title>
<path fill="none" stroke="#9a32cd" stroke-dasharray="5,2" d="M670.55,-412.03C697.91,-409.09 726.59,-400.62 746,-380.51 784.67,-340.43 727.8,-298.82 764,-256.51 768.65,-251.07 774.82,-247.17 781.45,-244.37"/>
<polygon fill="#9a32cd" stroke="#9a32cd" points="670.22,-408.54 660.55,-412.87 670.81,-415.52 670.22,-408.54"/>
<text text-anchor="middle" x="715.5" y="-411.51" font-family="Helvetica,sans-Serif" font-size="10.00"> actnewton</text>
</g>
<!-- Node19&#45;&gt;Node7 -->
<g id="edge18" class="edge">
<title>Node19&#45;&gt;Node7</title>
<path fill="none" stroke="#9a32cd" stroke-dasharray="5,2" d="M660.73,-152.99C688.08,-158.69 719.33,-167.17 746,-179.51 773.29,-192.12 800.63,-214.81 815.06,-227.75"/>
<polygon fill="#9a32cd" stroke="#9a32cd" points="661.34,-149.54 650.85,-151.01 659.97,-156.41 661.34,-149.54"/>
<text text-anchor="middle" x="715.5" y="-182.51" font-family="Helvetica,sans-Serif" font-size="10.00"> output</text>
</g>
<!-- Node20&#45;&gt;Node19 -->
<g id="edge19" class="edge">
<title>Node20&#45;&gt;Node19</title>
<path fill="none" stroke="midnightblue" d="M372.2,-54.63C410.71,-50.8 461.52,-52.41 497,-78.51 514.35,-91.27 498.79,-109.32 515,-123.51 519.75,-127.66 525.28,-130.94 531.15,-133.51"/>
<polygon fill="midnightblue" stroke="midnightblue" points="371.73,-51.16 362.19,-55.77 372.53,-58.11 371.73,-51.16"/>
</g>
<!-- Node20&#45;&gt;Node23 -->
<g id="edge26" class="edge">
<title>Node20&#45;&gt;Node23</title>
<path fill="none" stroke="midnightblue" d="M372.41,-55.64C377.34,-54.89 382.26,-54.17 387,-53.51 442.21,-45.74 506.05,-38.1 547.17,-33.35"/>
<polygon fill="midnightblue" stroke="midnightblue" points="371.68,-52.21 362.33,-57.18 372.74,-59.13 371.68,-52.21"/>
</g>
<!-- Node21&#45;&gt;Node19 -->
<g id="edge22" class="edge">
<title>Node21&#45;&gt;Node19</title>
<path fill="none" stroke="#9a32cd" stroke-dasharray="5,2" d="M379.11,-127.03C424.62,-130.37 486.2,-134.89 531.06,-138.18"/>
<polygon fill="#9a32cd" stroke="#9a32cd" points="379.3,-123.53 369.08,-126.29 378.79,-130.51 379.3,-123.53"/>
<text text-anchor="middle" x="442" y="-159.51" font-family="Helvetica,sans-Serif" font-size="10.00"> znames</text>
<text text-anchor="middle" x="442" y="-148.51" font-family="Helvetica,sans-Serif" font-size="10.00">ynames</text>
<text text-anchor="middle" x="442" y="-137.51" font-family="Helvetica,sans-Serif" font-size="10.00">xnames</text>
</g>
<!-- Node21&#45;&gt;Node23 -->
<g id="edge28" class="edge">
<title>Node21&#45;&gt;Node23</title>
<path fill="none" stroke="#9a32cd" stroke-dasharray="5,2" d="M359.58,-109.98C404.66,-96.25 472.96,-74.46 497,-61.51 505.92,-56.7 505.89,-51.96 515,-47.51 525.02,-42.61 536.42,-38.89 547.26,-36.1"/>
<polygon fill="#9a32cd" stroke="#9a32cd" points="358.34,-106.7 349.78,-112.95 360.37,-113.4 358.34,-106.7"/>
<text text-anchor="middle" x="442" y="-115.51" font-family="Helvetica,sans-Serif" font-size="10.00"> fnames</text>
<text text-anchor="middle" x="442" y="-104.51" font-family="Helvetica,sans-Serif" font-size="10.00">xnames</text>
</g>
<!-- Node22 -->
<g id="node22" class="node">
<title>Node22</title>
<g id="a_node22"><a xlink:href="structReaktoro_1_1NonlinearOptions.html" target="_top" xlink:title="A type that describes the options for the solution of a non&#45;linear problem. ">
<polygon fill="white" stroke="black" points="780.5,-97.01 780.5,-116.01 872.5,-116.01 872.5,-97.01 780.5,-97.01"/>
<text text-anchor="middle" x="826.5" y="-104.01" font-family="Helvetica,sans-Serif" font-size="10.00">NonlinearOptions</text>
</a>
</g>
</g>
<!-- Node22&#45;&gt;Node6 -->
<g id="edge24" class="edge">
<title>Node22&#45;&gt;Node6</title>
<path fill="none" stroke="#9a32cd" stroke-dasharray="5,2" d="M847.62,-122.62C886.75,-153.97 972.04,-222.29 1003.78,-247.72"/>
<polygon fill="#9a32cd" stroke="#9a32cd" points="849.57,-119.7 839.58,-116.18 845.19,-125.16 849.57,-119.7"/>
<text text-anchor="middle" x="928.5" y="-206.51" font-family="Helvetica,sans-Serif" font-size="10.00"> nonlinear</text>
</g>
<!-- Node23&#45;&gt;Node22 -->
<g id="edge25" class="edge">
<title>Node23&#45;&gt;Node22</title>
<path fill="none" stroke="#9a32cd" stroke-dasharray="5,2" d="M644.88,-21.32C675.51,-19.3 714.18,-20.52 746,-33.51 778.79,-46.89 806.49,-80.3 818.75,-96.87"/>
<polygon fill="#9a32cd" stroke="#9a32cd" points="644.52,-17.84 634.83,-22.12 645.07,-24.82 644.52,-17.84"/>
<text text-anchor="middle" x="715.5" y="-36.51" font-family="Helvetica,sans-Serif" font-size="10.00"> output</text>
</g>
<!-- Node24 -->
<g id="node24" class="node">
<title>Node24</title>
<g id="a_node24"><a xlink:href="structReaktoro_1_1SmartEquilibriumOptions.html" target="_top" xlink:title="The options for the smart equilibrium calculations. ">
<polygon fill="white" stroke="black" points="764,-266.01 764,-285.01 889,-285.01 889,-266.01 764,-266.01"/>
<text text-anchor="middle" x="826.5" y="-273.01" font-family="Helvetica,sans-Serif" font-size="10.00">SmartEquilibriumOptions</text>
</a>
</g>
</g>
<!-- Node24&#45;&gt;Node6 -->
<g id="edge29" class="edge">
<title>Node24&#45;&gt;Node6</title>
<path fill="none" stroke="#9a32cd" stroke-dasharray="5,2" d="M899.27,-268.65C922.21,-266.46 947.05,-264.09 967.89,-262.1"/>
<polygon fill="#9a32cd" stroke="#9a32cd" points="898.84,-265.18 889.22,-269.61 899.51,-272.15 898.84,-265.18"/>
<text text-anchor="middle" x="928.5" y="-270.51" font-family="Helvetica,sans-Serif" font-size="10.00"> smart</text>
</g>
</g>
</svg>
        <g id="navigator" transform="translate(0 0)" fill="#404254">
                <rect fill="#f2f5e9" fill-opacity="0.5" stroke="#606060" stroke-width=".5" x="0" y="0" width="60" height="60"/>
                <use id="zoomplus" xlink:href="#zoomPlus" x="17" y="9" onmousedown="handleZoom(evt,'in')"/>
                <use id="zoomminus" xlink:href="#zoomMin" x="42" y="9" onmousedown="handleZoom(evt,'out')"/>
                <use id="reset" xlink:href="#resetDef" x="30" y="36" onmousedown="handleReset()"/>
                <g id="arrowUp" xlink:href="#dirArrow" transform="translate(30 24)" onmousedown="handlePan(0,-1)">
                  <use xlink:href="#rim" fill="#404040">
                        <set attributeName="fill" to="#808080" begin="arrowUp.mouseover" end="arrowUp.mouseout"/>
                  </use>
                  <path fill="none" stroke="white" stroke-width="1.5" d="M0,-3.0v7 M-2.5,-0.5L0,-3.0L2.5,-0.5"/>
                </g>
                <g id="arrowRight" xlink:href="#dirArrow" transform="rotate(90) translate(36 -43)" onmousedown="handlePan(1,0)">
                  <use xlink:href="#rim" fill="#404040">
                        <set attributeName="fill" to="#808080" begin="arrowRight.mouseover" end="arrowRight.mouseout"/>
                  </use>
                  <path fill="none" stroke="white" stroke-width="1.5" d="M0,-3.0v7 M-2.5,-0.5L0,-3.0L2.5,-0.5"/>
                </g>
                <g id="arrowDown" xlink:href="#dirArrow" transform="rotate(180) translate(-30 -48)" onmousedown="handlePan(0,1)">
                  <use xlink:href="#rim" fill="#404040">
                        <set attributeName="fill" to="#808080" begin="arrowDown.mouseover" end="arrowDown.mouseout"/>
                  </use>
                  <path fill="none" stroke="white" stroke-width="1.5" d="M0,-3.0v7 M-2.5,-0.5L0,-3.0L2.5,-0.5"/>
                </g>
                <g id="arrowLeft" xlink:href="#dirArrow" transform="rotate(270) translate(-36 17)" onmousedown="handlePan(-1,0)">
                  <use xlink:href="#rim" fill="#404040">
                        <set attributeName="fill" to="#808080" begin="arrowLeft.mouseover" end="arrowLeft.mouseout"/>
                  </use>
                  <path fill="none" stroke="white" stroke-width="1.5" d="M0,-3.0v7 M-2.5,-0.5L0,-3.0L2.5,-0.5"/>
                </g>
        </g>
        <svg viewBox="0 0 15 15" width="100%" height="30px" preserveAspectRatio="xMaxYMin meet">
         <g id="arrow_out" transform="scale(0.3 0.3)">
          <a xlink:href="structReaktoro_1_1KineticOptions__coll__graph_org.svg" target="_base">
           <rect id="button" ry="5" rx="5" y="6" x="6" height="38" width="38"
                fill="#f2f5e9" fill-opacity="0.5" stroke="#606060" stroke-width="1.0"/>
           <path id="arrow"
             d="M 11.500037,31.436501 C 11.940474,20.09759 22.043105,11.32322 32.158766,21.979434 L 37.068811,17.246167 C 37.068811,17.246167 37.088388,32 37.088388,32 L 22.160133,31.978069 C 22.160133,31.978069 26.997745,27.140456 26.997745,27.140456 C 18.528582,18.264221 13.291696,25.230495 11.500037,31.436501 z"
             style="fill:#404040;"/>
          </a>
         </g>
        </svg>
</svg>
