<?xml version="1.0" encoding="UTF-8" standalone="no"?>
<!DOCTYPE svg PUBLIC "-//W3C//DTD SVG 1.1//EN"
 "http://www.w3.org/Graphics/SVG/1.1/DTD/svg11.dtd">
<!-- Generated by graphviz version 2.42.3 (20191010.1750)
 -->
<!-- Title: SpeciesThermoInterpolatedProperties Pages: 1 -->
<svg width="156pt" height="183pt"
 viewBox="0.00 0.00 156.00 183.00" xmlns="http://www.w3.org/2000/svg" xmlns:xlink="http://www.w3.org/1999/xlink">
<g id="graph0" class="graph" transform="scale(1 1) rotate(0) translate(4 179)">
<title>SpeciesThermoInterpolatedProperties</title>
<polygon fill="white" stroke="transparent" points="-4,4 -4,-179 152,-179 152,4 -4,4"/>
<!-- Node1 -->
<g id="node1" class="node">
<title>Node1</title>
<polygon fill="#bfbfbf" stroke="black" points="0,-0.5 0,-30.5 136,-30.5 136,-0.5 0,-0.5"/>
<text text-anchor="start" x="8" y="-18.5" font-family="Helvetica,sans-Serif" font-size="10.00">SpeciesThermoInterpolated</text>
<text text-anchor="middle" x="68" y="-7.5" font-family="Helvetica,sans-Serif" font-size="10.00">Properties</text>
</g>
<!-- Node2 -->
<g id="node2" class="node">
<title>Node2</title>
<g id="a_node2"><a xlink:href="classReaktoro_1_1BilinearInterpolator.html" target="_top" xlink:title="A class used to calculate bilinear interpolation of data in two dimensions. ">
<polygon fill="white" stroke="black" points="19,-155.5 19,-174.5 117,-174.5 117,-155.5 19,-155.5"/>
<text text-anchor="middle" x="68" y="-162.5" font-family="Helvetica,sans-Serif" font-size="10.00">BilinearInterpolator</text>
</a>
</g>
</g>
<!-- Node2&#45;&gt;Node1 -->
<g id="edge1" class="edge">
<title>Node2&#45;&gt;Node1</title>
<path fill="none" stroke="#9a32cd" stroke-dasharray="5,2" d="M68,-144.86C68,-114.89 68,-57.56 68,-30.85"/>
<polygon fill="#9a32cd" stroke="#9a32cd" points="64.5,-145.21 68,-155.21 71.5,-145.21 64.5,-145.21"/>
<text text-anchor="middle" x="108" y="-129" font-family="Helvetica,sans-Serif" font-size="10.00"> heat_capacity_cv</text>
<text text-anchor="middle" x="108" y="-118" font-family="Helvetica,sans-Serif" font-size="10.00">internal_energy</text>
<text text-anchor="middle" x="108" y="-107" font-family="Helvetica,sans-Serif" font-size="10.00">enthalpy</text>
<text text-anchor="middle" x="108" y="-96" font-family="Helvetica,sans-Serif" font-size="10.00">helmholtz_energy</text>
<text text-anchor="middle" x="108" y="-85" font-family="Helvetica,sans-Serif" font-size="10.00">entropy</text>
<text text-anchor="middle" x="108" y="-74" font-family="Helvetica,sans-Serif" font-size="10.00">gibbs_energy</text>
<text text-anchor="middle" x="108" y="-63" font-family="Helvetica,sans-Serif" font-size="10.00">volume</text>
<text text-anchor="middle" x="108" y="-52" font-family="Helvetica,sans-Serif" font-size="10.00">heat_capacity_cp</text>
</g>
</g>
</svg>
