<?xml version="1.0" encoding="UTF-8" standalone="no"?>
<!DOCTYPE svg PUBLIC "-//W3C//DTD SVG 1.1//EN"
 "http://www.w3.org/Graphics/SVG/1.1/DTD/svg11.dtd">
<!-- Generated by graphviz version 2.42.3 (20191010.1750)
 -->
<!-- Title: CubicEOS::InteractionParamsArgs Pages: 1 -->
<svg width="270pt" height="217pt"
 viewBox="0.00 0.00 270.00 217.00" xmlns="http://www.w3.org/2000/svg" xmlns:xlink="http://www.w3.org/1999/xlink">
<g id="graph0" class="graph" transform="scale(1 1) rotate(0) translate(4 213)">
<title>CubicEOS::InteractionParamsArgs</title>
<polygon fill="white" stroke="transparent" points="-4,4 -4,-213 266,-213 266,4 -4,4"/>
<!-- Node1 -->
<g id="node1" class="node">
<title>Node1</title>
<polygon fill="#bfbfbf" stroke="black" points="44,-0.5 44,-19.5 213,-19.5 213,-0.5 44,-0.5"/>
<text text-anchor="middle" x="128.5" y="-7.5" font-family="Helvetica,sans-Serif" font-size="10.00">CubicEOS::InteractionParamsArgs</text>
</g>
<!-- Node2 -->
<g id="node2" class="node">
<title>Node2</title>
<g id="a_node2"><a xlink:href="classReaktoro_1_1ThermoVectorBase.html" target="_top" xlink:title="A template base class to represent a vector of thermodynamic scalars and their partial derivatives...">
<polygon fill="white" stroke="black" points="0,-89.5 0,-119.5 119,-119.5 119,-89.5 0,-89.5"/>
<text text-anchor="start" x="8" y="-107.5" font-family="Helvetica,sans-Serif" font-size="10.00">ThermoVectorBase&lt; V,</text>
<text text-anchor="middle" x="59.5" y="-96.5" font-family="Helvetica,sans-Serif" font-size="10.00"> T, P &gt;</text>
</a>
</g>
</g>
<!-- Node2&#45;&gt;Node1 -->
<g id="edge1" class="edge">
<title>Node2&#45;&gt;Node1</title>
<path fill="none" stroke="#9a32cd" stroke-dasharray="5,2" d="M76.08,-81.27C90.85,-61.47 111.67,-33.56 122.07,-19.62"/>
<polygon fill="#9a32cd" stroke="#9a32cd" points="73.15,-79.34 69.98,-89.45 78.76,-83.53 73.15,-79.34"/>
<text text-anchor="middle" x="117.5" y="-63" font-family="Helvetica,sans-Serif" font-size="10.00"> aT</text>
<text text-anchor="middle" x="117.5" y="-52" font-family="Helvetica,sans-Serif" font-size="10.00">aTT</text>
<text text-anchor="middle" x="117.5" y="-41" font-family="Helvetica,sans-Serif" font-size="10.00">a</text>
</g>
<!-- Node3 -->
<g id="node3" class="node">
<title>Node3</title>
<polygon fill="white" stroke="#bfbfbf" points="45,-189.5 45,-208.5 74,-208.5 74,-189.5 45,-189.5"/>
<text text-anchor="middle" x="59.5" y="-196.5" font-family="Helvetica,sans-Serif" font-size="10.00">T</text>
</g>
<!-- Node3&#45;&gt;Node2 -->
<g id="edge2" class="edge">
<title>Node3&#45;&gt;Node2</title>
<path fill="none" stroke="#9a32cd" stroke-dasharray="5,2" d="M59.5,-179.29C59.5,-161.67 59.5,-135.67 59.5,-119.7"/>
<polygon fill="#9a32cd" stroke="#9a32cd" points="56,-179.46 59.5,-189.46 63,-179.46 56,-179.46"/>
<text text-anchor="middle" x="69.5" y="-152" font-family="Helvetica,sans-Serif" font-size="10.00"> ddT</text>
</g>
<!-- Node4 -->
<g id="node4" class="node">
<title>Node4</title>
<g id="a_node4"><a xlink:href="classReaktoro_1_1ThermoScalarBase.html" target="_top" xlink:title="A template base class to represent a thermodynamic scalar and its partial derivatives. ">
<polygon fill="white" stroke="black" points="137,-95 137,-114 262,-114 262,-95 137,-95"/>
<text text-anchor="middle" x="199.5" y="-102" font-family="Helvetica,sans-Serif" font-size="10.00">ThermoScalarBase&lt; V &gt;</text>
</a>
</g>
</g>
<!-- Node4&#45;&gt;Node1 -->
<g id="edge3" class="edge">
<title>Node4&#45;&gt;Node1</title>
<path fill="none" stroke="#9a32cd" stroke-dasharray="5,2" d="M186.72,-86.85C171.53,-67.06 146.75,-34.78 135.04,-19.52"/>
<polygon fill="#9a32cd" stroke="#9a32cd" points="184.08,-89.16 192.95,-94.96 189.64,-84.9 184.08,-89.16"/>
<text text-anchor="middle" x="179.5" y="-52" font-family="Helvetica,sans-Serif" font-size="10.00"> T</text>
</g>
<!-- Node5 -->
<g id="node5" class="node">
<title>Node5</title>
<polygon fill="white" stroke="#bfbfbf" points="185,-189.5 185,-208.5 214,-208.5 214,-189.5 185,-189.5"/>
<text text-anchor="middle" x="199.5" y="-196.5" font-family="Helvetica,sans-Serif" font-size="10.00">V</text>
</g>
<!-- Node5&#45;&gt;Node4 -->
<g id="edge4" class="edge">
<title>Node5&#45;&gt;Node4</title>
<path fill="none" stroke="#9a32cd" stroke-dasharray="5,2" d="M199.5,-179.44C199.5,-159.54 199.5,-128.8 199.5,-114.02"/>
<polygon fill="#9a32cd" stroke="#9a32cd" points="196,-179.46 199.5,-189.46 203,-179.46 196,-179.46"/>
<text text-anchor="middle" x="208.5" y="-163" font-family="Helvetica,sans-Serif" font-size="10.00"> val</text>
<text text-anchor="middle" x="208.5" y="-152" font-family="Helvetica,sans-Serif" font-size="10.00">ddP</text>
<text text-anchor="middle" x="208.5" y="-141" font-family="Helvetica,sans-Serif" font-size="10.00">ddT</text>
</g>
</g>
</svg>
