<?xml version="1.0" encoding="UTF-8" standalone="no"?>
<!DOCTYPE svg PUBLIC "-//W3C//DTD SVG 1.1//EN"
 "http://www.w3.org/Graphics/SVG/1.1/DTD/svg11.dtd">
<!-- Generated by graphviz version 2.42.3 (20191010.1750)
 -->
<!-- Title: MineralMixtureState Pages: 1 -->
<svg width="298pt" height="231pt"
 viewBox="0.00 0.00 297.50 231.00" xmlns="http://www.w3.org/2000/svg" xmlns:xlink="http://www.w3.org/1999/xlink">
<g id="graph0" class="graph" transform="scale(1 1) rotate(0) translate(4 227)">
<title>MineralMixtureState</title>
<polygon fill="white" stroke="transparent" points="-4,4 -4,-227 293.5,-227 293.5,4 -4,4"/>
<!-- Node1 -->
<g id="node1" class="node">
<title>Node1</title>
<g id="a_node1"><a xlink:title="A type used to describe the state of a mineral mixture.">
<polygon fill="#bfbfbf" stroke="black" points="65.5,-0.5 65.5,-19.5 169.5,-19.5 169.5,-0.5 65.5,-0.5"/>
<text text-anchor="middle" x="117.5" y="-7.5" font-family="Helvetica,sans-Serif" font-size="10.00">MineralMixtureState</text>
</a>
</g>
</g>
<!-- Node2 -->
<g id="node2" class="node">
<title>Node2</title>
<g id="a_node2"><a xlink:href="structReaktoro_1_1MixtureState.html" target="_top" xlink:title="A type used to describe the state of a mixture.">
<polygon fill="white" stroke="black" points="81.5,-57.5 81.5,-76.5 153.5,-76.5 153.5,-57.5 81.5,-57.5"/>
<text text-anchor="middle" x="117.5" y="-64.5" font-family="Helvetica,sans-Serif" font-size="10.00">MixtureState</text>
</a>
</g>
</g>
<!-- Node2&#45;&gt;Node1 -->
<g id="edge1" class="edge">
<title>Node2&#45;&gt;Node1</title>
<path fill="none" stroke="midnightblue" d="M117.5,-47.12C117.5,-37.82 117.5,-27.06 117.5,-19.71"/>
<polygon fill="midnightblue" stroke="midnightblue" points="114,-47.41 117.5,-57.41 121,-47.41 114,-47.41"/>
</g>
<!-- Node3 -->
<g id="node3" class="node">
<title>Node3</title>
<g id="a_node3"><a xlink:href="classReaktoro_1_1Temperature.html" target="_top" xlink:title="A type that describes temperature in units of K.">
<polygon fill="white" stroke="black" points="0,-135.5 0,-154.5 71,-154.5 71,-135.5 0,-135.5"/>
<text text-anchor="middle" x="35.5" y="-142.5" font-family="Helvetica,sans-Serif" font-size="10.00">Temperature</text>
</a>
</g>
</g>
<!-- Node3&#45;&gt;Node2 -->
<g id="edge2" class="edge">
<title>Node3&#45;&gt;Node2</title>
<path fill="none" stroke="#9a32cd" stroke-dasharray="5,2" d="M52.44,-128.3C69.33,-112.64 94.67,-89.16 108.2,-76.62"/>
<polygon fill="#9a32cd" stroke="#9a32cd" points="49.86,-125.92 44.91,-135.28 54.62,-131.05 49.86,-125.92"/>
<text text-anchor="middle" x="91.5" y="-98" font-family="Helvetica,sans-Serif" font-size="10.00"> T</text>
</g>
<!-- Node4 -->
<g id="node4" class="node">
<title>Node4</title>
<g id="a_node4"><a xlink:href="classReaktoro_1_1ThermoScalarBase.html" target="_top" xlink:title="A template base class to represent a thermodynamic scalar and its partial derivatives.">
<polygon fill="white" stroke="black" points="37,-203.5 37,-222.5 114,-222.5 114,-203.5 37,-203.5"/>
<text text-anchor="middle" x="75.5" y="-210.5" font-family="Helvetica,sans-Serif" font-size="10.00">ThermoScalar</text>
</a>
</g>
</g>
<!-- Node4&#45;&gt;Node3 -->
<g id="edge3" class="edge">
<title>Node4&#45;&gt;Node3</title>
<path fill="none" stroke="midnightblue" d="M64.93,-194.56C57.19,-181.78 46.99,-164.96 40.86,-154.84"/>
<polygon fill="midnightblue" stroke="midnightblue" points="62.09,-196.63 70.27,-203.37 68.08,-193.01 62.09,-196.63"/>
</g>
<!-- Node5 -->
<g id="node5" class="node">
<title>Node5</title>
<g id="a_node5"><a xlink:href="classReaktoro_1_1Pressure.html" target="_top" xlink:title="A type that describes pressure in units of Pa.">
<polygon fill="white" stroke="black" points="89.5,-135.5 89.5,-154.5 145.5,-154.5 145.5,-135.5 89.5,-135.5"/>
<text text-anchor="middle" x="117.5" y="-142.5" font-family="Helvetica,sans-Serif" font-size="10.00">Pressure</text>
</a>
</g>
</g>
<!-- Node4&#45;&gt;Node5 -->
<g id="edge5" class="edge">
<title>Node4&#45;&gt;Node5</title>
<path fill="none" stroke="midnightblue" d="M86.6,-194.56C94.73,-181.78 105.43,-164.96 111.87,-154.84"/>
<polygon fill="midnightblue" stroke="midnightblue" points="83.41,-193.06 80.99,-203.37 89.31,-196.81 83.41,-193.06"/>
</g>
<!-- Node5&#45;&gt;Node2 -->
<g id="edge4" class="edge">
<title>Node5&#45;&gt;Node2</title>
<path fill="none" stroke="#9a32cd" stroke-dasharray="5,2" d="M117.5,-125.22C117.5,-109.7 117.5,-88.36 117.5,-76.62"/>
<polygon fill="#9a32cd" stroke="#9a32cd" points="114,-125.28 117.5,-135.28 121,-125.28 114,-125.28"/>
<text text-anchor="middle" x="122.5" y="-98" font-family="Helvetica,sans-Serif" font-size="10.00"> P</text>
</g>
<!-- Node6 -->
<g id="node6" class="node">
<title>Node6</title>
<g id="a_node6"><a xlink:href="classReaktoro_1_1ChemicalVectorBase.html" target="_top" xlink:title=" ">
<polygon fill="white" stroke="black" points="163.5,-124.5 163.5,-165.5 289.5,-165.5 289.5,-124.5 163.5,-124.5"/>
<text text-anchor="start" x="171.5" y="-153.5" font-family="Helvetica,sans-Serif" font-size="10.00">ChemicalVectorBase</text>
<text text-anchor="start" x="171.5" y="-142.5" font-family="Helvetica,sans-Serif" font-size="10.00">&lt; Vector, Vector, Vector,</text>
<text text-anchor="middle" x="226.5" y="-131.5" font-family="Helvetica,sans-Serif" font-size="10.00"> Matrix &gt;</text>
</a>
</g>
</g>
<!-- Node6&#45;&gt;Node2 -->
<g id="edge6" class="edge">
<title>Node6&#45;&gt;Node2</title>
<path fill="none" stroke="#9a32cd" stroke-dasharray="5,2" d="M190.06,-118.59C169.18,-104.03 144.3,-86.69 129.77,-76.55"/>
<polygon fill="#9a32cd" stroke="#9a32cd" points="188.23,-121.58 198.43,-124.43 192.23,-115.84 188.23,-121.58"/>
<text text-anchor="middle" x="176" y="-98" font-family="Helvetica,sans-Serif" font-size="10.00"> x</text>
</g>
</g>
</svg>
