<?xml version="1.0" encoding="UTF-8" standalone="no"?>
<!DOCTYPE svg PUBLIC "-//W3C//DTD SVG 1.1//EN"
 "http://www.w3.org/Graphics/SVG/1.1/DTD/svg11.dtd">
<!-- Generated by graphviz version 2.42.3 (20191010.1750)
 -->
<!-- Title: NonlinearOutput Pages: 1 -->
<svg width="267pt" height="232pt"
 viewBox="0.00 0.00 266.69 232.00" xmlns="http://www.w3.org/2000/svg" xmlns:xlink="http://www.w3.org/1999/xlink">
<g id="graph0" class="graph" transform="scale(1 1) rotate(0) translate(4 228)">
<title>NonlinearOutput</title>
<polygon fill="white" stroke="transparent" points="-4,4 -4,-228 262.69,-228 262.69,4 -4,4"/>
<!-- Node1 -->
<g id="node1" class="node">
<title>Node1</title>
<polygon fill="#bfbfbf" stroke="black" points="46.69,-0.5 46.69,-19.5 133.69,-19.5 133.69,-0.5 46.69,-0.5"/>
<text text-anchor="middle" x="90.19" y="-7.5" font-family="Helvetica,sans-Serif" font-size="10.00">NonlinearOutput</text>
</g>
<!-- Node2 -->
<g id="node2" class="node">
<title>Node2</title>
<g id="a_node2"><a xlink:href="structReaktoro_1_1OutputterOptions.html" target="_top" xlink:title="OutputterOptions">
<polygon fill="white" stroke="black" points="44.69,-79.5 44.69,-98.5 135.69,-98.5 135.69,-79.5 44.69,-79.5"/>
<text text-anchor="middle" x="90.19" y="-86.5" font-family="Helvetica,sans-Serif" font-size="10.00">OutputterOptions</text>
</a>
</g>
</g>
<!-- Node2&#45;&gt;Node1 -->
<g id="edge1" class="edge">
<title>Node2&#45;&gt;Node1</title>
<path fill="none" stroke="midnightblue" d="M90.19,-69.31C90.19,-53.59 90.19,-31.81 90.19,-19.81"/>
<polygon fill="midnightblue" stroke="midnightblue" points="86.69,-69.47 90.19,-79.47 93.69,-69.47 86.69,-69.47"/>
</g>
<!-- Node3 -->
<g id="node3" class="node">
<title>Node3</title>
<g id="a_node3"><a xlink:title="STL class. ">
<polygon fill="white" stroke="#bfbfbf" points="69.69,-147.5 69.69,-166.5 110.69,-166.5 110.69,-147.5 69.69,-147.5"/>
<text text-anchor="middle" x="90.19" y="-154.5" font-family="Helvetica,sans-Serif" font-size="10.00">string</text>
</a>
</g>
</g>
<!-- Node3&#45;&gt;Node1 -->
<g id="edge4" class="edge">
<title>Node3&#45;&gt;Node1</title>
<path fill="none" stroke="#9a32cd" stroke-dasharray="5,2" d="M60.21,-145.28C40.41,-136.46 16.01,-121.81 4.19,-100 -14.8,-64.96 38.88,-33.97 69.9,-19.56"/>
<polygon fill="#9a32cd" stroke="#9a32cd" points="58.91,-148.53 69.49,-149.16 61.61,-142.07 58.91,-148.53"/>
<text text-anchor="middle" x="19.69" y="-92" font-family="Helvetica,sans-Serif" font-size="10.00"> fprefix</text>
<text text-anchor="middle" x="19.69" y="-81" font-family="Helvetica,sans-Serif" font-size="10.00">xprefix</text>
</g>
<!-- Node3&#45;&gt;Node2 -->
<g id="edge2" class="edge">
<title>Node3&#45;&gt;Node2</title>
<path fill="none" stroke="#9a32cd" stroke-dasharray="5,2" d="M90.19,-137.04C90.19,-124.47 90.19,-108.56 90.19,-98.84"/>
<polygon fill="#9a32cd" stroke="#9a32cd" points="86.69,-137.37 90.19,-147.37 93.69,-137.37 86.69,-137.37"/>
<text text-anchor="middle" x="112.19" y="-121" font-family="Helvetica,sans-Serif" font-size="10.00"> separator</text>
</g>
<!-- Node5 -->
<g id="node5" class="node">
<title>Node5</title>
<polygon fill="white" stroke="#bfbfbf" points="153.69,-79.5 153.69,-98.5 258.69,-98.5 258.69,-79.5 153.69,-79.5"/>
<text text-anchor="middle" x="206.19" y="-86.5" font-family="Helvetica,sans-Serif" font-size="10.00">vector&lt; std::string &gt;</text>
</g>
<!-- Node3&#45;&gt;Node5 -->
<g id="edge6" class="edge">
<title>Node3&#45;&gt;Node5</title>
<path fill="none" stroke="#9a32cd" stroke-dasharray="5,2" d="M114.53,-142.36C122.12,-138.1 130.51,-133.36 138.19,-129 156.53,-118.58 177.59,-106.48 191.36,-98.56"/>
<polygon fill="#9a32cd" stroke="#9a32cd" points="112.78,-139.33 105.78,-147.28 116.21,-145.43 112.78,-139.33"/>
<text text-anchor="middle" x="177.69" y="-121" font-family="Helvetica,sans-Serif" font-size="10.00"> elements</text>
</g>
<!-- Node4 -->
<g id="node4" class="node">
<title>Node4</title>
<g id="a_node4"><a xlink:title="STL class. ">
<polygon fill="white" stroke="#bfbfbf" points="37.19,-204.5 37.19,-223.5 143.19,-223.5 143.19,-204.5 37.19,-204.5"/>
<text text-anchor="middle" x="90.19" y="-211.5" font-family="Helvetica,sans-Serif" font-size="10.00">basic_string&lt; char &gt;</text>
</a>
</g>
</g>
<!-- Node4&#45;&gt;Node3 -->
<g id="edge3" class="edge">
<title>Node4&#45;&gt;Node3</title>
<path fill="none" stroke="midnightblue" d="M90.19,-194.12C90.19,-184.82 90.19,-174.06 90.19,-166.71"/>
<polygon fill="midnightblue" stroke="midnightblue" points="86.69,-194.41 90.19,-204.41 93.69,-194.41 86.69,-194.41"/>
</g>
<!-- Node5&#45;&gt;Node1 -->
<g id="edge5" class="edge">
<title>Node5&#45;&gt;Node1</title>
<path fill="none" stroke="#9a32cd" stroke-dasharray="5,2" d="M184.93,-73.89C161.01,-58.01 122.91,-32.72 103.11,-19.57"/>
<polygon fill="#9a32cd" stroke="#9a32cd" points="183.07,-76.85 193.34,-79.47 186.94,-71.02 183.07,-76.85"/>
<text text-anchor="middle" x="179.19" y="-52" font-family="Helvetica,sans-Serif" font-size="10.00"> fnames</text>
<text text-anchor="middle" x="179.19" y="-41" font-family="Helvetica,sans-Serif" font-size="10.00">xnames</text>
</g>
</g>
</svg>
