<?xml version="1.0" encoding="UTF-8" standalone="no"?>
<!DOCTYPE svg PUBLIC "-//W3C//DTD SVG 1.1//EN"
 "http://www.w3.org/Graphics/SVG/1.1/DTD/svg11.dtd">
<!-- Generated by graphviz version 2.42.3 (20191010.1750)
 -->
<!-- Title: Composition Pages: 1 -->
<svg width="255pt" height="61pt"
 viewBox="0.00 0.00 255.00 61.00" xmlns="http://www.w3.org/2000/svg" xmlns:xlink="http://www.w3.org/1999/xlink">
<g id="graph0" class="graph" transform="scale(1 1) rotate(0) translate(4 57)">
<title>Composition</title>
<polygon fill="white" stroke="transparent" points="-4,4 -4,-57 251,-57 251,4 -4,4"/>
<!-- Node1 -->
<g id="node1" class="node">
<title>Node1</title>
<g id="a_node1"><a xlink:title="A type that describes temperature in units of K.">
<polygon fill="#bfbfbf" stroke="black" points="176,-17 176,-36 247,-36 247,-17 176,-17"/>
<text text-anchor="middle" x="211.5" y="-24" font-family="Helvetica,sans-Serif" font-size="10.00">Composition</text>
</a>
</g>
</g>
<!-- Node2 -->
<g id="node2" class="node">
<title>Node2</title>
<g id="a_node2"><a xlink:href="classReaktoro_1_1ChemicalVectorBase.html" target="_top" xlink:title=" ">
<polygon fill="white" stroke="black" points="0,-0.5 0,-52.5 140,-52.5 140,-0.5 0,-0.5"/>
<text text-anchor="start" x="8" y="-40.5" font-family="Helvetica,sans-Serif" font-size="10.00">ChemicalVectorBase</text>
<text text-anchor="start" x="8" y="-29.5" font-family="Helvetica,sans-Serif" font-size="10.00">&lt; VectorConstRef, decltype</text>
<text text-anchor="start" x="8" y="-18.5" font-family="Helvetica,sans-Serif" font-size="10.00">(zeros(0)), decltype(zeros</text>
<text text-anchor="middle" x="70" y="-7.5" font-family="Helvetica,sans-Serif" font-size="10.00">(0)), decltype(identity(0, 0))&gt;</text>
</a>
</g>
</g>
<!-- Node2&#45;&gt;Node1 -->
<g id="edge1" class="edge">
<title>Node2&#45;&gt;Node1</title>
<path fill="none" stroke="midnightblue" d="M150.41,-26.5C159.28,-26.5 167.93,-26.5 175.78,-26.5"/>
<polygon fill="midnightblue" stroke="midnightblue" points="150.34,-23 140.34,-26.5 150.34,-30 150.34,-23"/>
</g>
</g>
</svg>
