<?xml version="1.0" encoding="UTF-8" standalone="no"?>
<!DOCTYPE svg PUBLIC "-//W3C//DTD SVG 1.1//EN"
 "http://www.w3.org/Graphics/SVG/1.1/DTD/svg11.dtd">
<!-- Generated by graphviz version 2.50.0 (20211209.0339)
 -->
<!-- Title: FluidPhase Pages: 1 -->
<svg width="189pt" height="140pt"
 viewBox="0.00 0.00 188.50 140.00" xmlns="http://www.w3.org/2000/svg" xmlns:xlink="http://www.w3.org/1999/xlink">
<g id="graph0" class="graph" transform="scale(1 1) rotate(0) translate(4 136)">
<title>FluidPhase</title>
<polygon fill="white" stroke="transparent" points="-4,4 -4,-136 184.5,-136 184.5,4 -4,4"/>
<!-- Node1 -->
<g id="node1" class="node">
<title>Node1</title>
<g id="a_node1"><a xlink:title="Class that defines a fluid (gaseous or liquid) phase.">
<polygon fill="#bfbfbf" stroke="black" points="58,-56.5 58,-75.5 128,-75.5 128,-56.5 58,-56.5"/>
<text text-anchor="middle" x="93" y="-63.5" font-family="Helvetica,sans-Serif" font-size="10.00">FluidPhase</text>
</a>
</g>
</g>
<!-- Node3 -->
<g id="node3" class="node">
<title>Node3</title>
<g id="a_node3"><a xlink:href="classReaktoro_1_1GaseousPhase.html" target="_top" xlink:title=" ">
<polygon fill="white" stroke="black" points="0,-0.5 0,-19.5 88,-19.5 88,-0.5 0,-0.5"/>
<text text-anchor="middle" x="44" y="-7.5" font-family="Helvetica,sans-Serif" font-size="10.00">GaseousPhase</text>
</a>
</g>
</g>
<!-- Node1&#45;&gt;Node3 -->
<g id="edge2" class="edge">
<title>Node1&#45;&gt;Node3</title>
<path fill="none" stroke="midnightblue" d="M77.97,-48.43C69.38,-38.97 58.96,-27.48 51.94,-19.75"/>
<polygon fill="midnightblue" stroke="midnightblue" points="75.6,-51.03 84.91,-56.08 80.78,-46.33 75.6,-51.03"/>
</g>
<!-- Node4 -->
<g id="node4" class="node">
<title>Node4</title>
<g id="a_node4"><a xlink:href="classReaktoro_1_1LiquidPhase.html" target="_top" xlink:title=" ">
<polygon fill="white" stroke="black" points="105.5,-0.5 105.5,-19.5 180.5,-19.5 180.5,-0.5 105.5,-0.5"/>
<text text-anchor="middle" x="143" y="-7.5" font-family="Helvetica,sans-Serif" font-size="10.00">LiquidPhase</text>
</a>
</g>
</g>
<!-- Node1&#45;&gt;Node4 -->
<g id="edge3" class="edge">
<title>Node1&#45;&gt;Node4</title>
<path fill="none" stroke="midnightblue" d="M108.08,-48.72C116.89,-39.2 127.67,-27.56 134.9,-19.75"/>
<polygon fill="midnightblue" stroke="midnightblue" points="105.48,-46.37 101.26,-56.08 110.62,-51.12 105.48,-46.37"/>
</g>
<!-- Node2 -->
<g id="node2" class="node">
<title>Node2</title>
<g id="a_node2"><a xlink:href="classReaktoro_1_1Phase.html" target="_top" xlink:title="A type used to define a phase and its attributes.">
<polygon fill="white" stroke="black" points="70,-112.5 70,-131.5 116,-131.5 116,-112.5 70,-112.5"/>
<text text-anchor="middle" x="93" y="-119.5" font-family="Helvetica,sans-Serif" font-size="10.00">Phase</text>
</a>
</g>
</g>
<!-- Node2&#45;&gt;Node1 -->
<g id="edge1" class="edge">
<title>Node2&#45;&gt;Node1</title>
<path fill="none" stroke="midnightblue" d="M93,-101.8C93,-92.91 93,-82.78 93,-75.75"/>
<polygon fill="midnightblue" stroke="midnightblue" points="89.5,-102.08 93,-112.08 96.5,-102.08 89.5,-102.08"/>
</g>
</g>
</svg>
