<?xml version="1.0" encoding="UTF-8" standalone="no"?>
<!DOCTYPE svg PUBLIC "-//W3C//DTD SVG 1.1//EN"
 "http://www.w3.org/Graphics/SVG/1.1/DTD/svg11.dtd">
<!-- Generated by graphviz version 2.50.0 (20211209.0339)
 -->
<!-- Title: Species Pages: 1 -->
<svg width="310pt" height="84pt"
 viewBox="0.00 0.00 309.50 84.00" xmlns="http://www.w3.org/2000/svg" xmlns:xlink="http://www.w3.org/1999/xlink">
<g id="graph0" class="graph" transform="scale(1 1) rotate(0) translate(4 80)">
<title>Species</title>
<polygon fill="white" stroke="transparent" points="-4,4 -4,-80 305.5,-80 305.5,4 -4,4"/>
<!-- Node1 -->
<g id="node1" class="node">
<title>Node1</title>
<g id="a_node1"><a xlink:title="A type used to describe a species and its attributes.">
<polygon fill="#bfbfbf" stroke="black" points="126,-56.5 126,-75.5 180,-75.5 180,-56.5 126,-56.5"/>
<text text-anchor="middle" x="153" y="-63.5" font-family="Helvetica,sans-Serif" font-size="10.00">Species</text>
</a>
</g>
</g>
<!-- Node2 -->
<g id="node2" class="node">
<title>Node2</title>
<g id="a_node2"><a xlink:href="classReaktoro_1_1AqueousSpecies.html" target="_top" xlink:title="A type to represent an aqueous species.">
<polygon fill="white" stroke="black" points="0,-0.5 0,-19.5 96,-19.5 96,-0.5 0,-0.5"/>
<text text-anchor="middle" x="48" y="-7.5" font-family="Helvetica,sans-Serif" font-size="10.00">AqueousSpecies</text>
</a>
</g>
</g>
<!-- Node1&#45;&gt;Node2 -->
<g id="edge1" class="edge">
<title>Node1&#45;&gt;Node2</title>
<path fill="none" stroke="midnightblue" d="M127.19,-51.73C107.75,-41.73 81.65,-28.31 64.83,-19.65"/>
<polygon fill="midnightblue" stroke="midnightblue" points="125.64,-54.86 136.13,-56.32 128.84,-48.64 125.64,-54.86"/>
</g>
<!-- Node3 -->
<g id="node3" class="node">
<title>Node3</title>
<g id="a_node3"><a xlink:href="classReaktoro_1_1FluidSpecies.html" target="_top" xlink:title="A type to describe the attributes of a fluids (gaseous or liquid) species.">
<polygon fill="white" stroke="black" points="114,-0.5 114,-19.5 192,-19.5 192,-0.5 114,-0.5"/>
<text text-anchor="middle" x="153" y="-7.5" font-family="Helvetica,sans-Serif" font-size="10.00">FluidSpecies</text>
</a>
</g>
</g>
<!-- Node1&#45;&gt;Node3 -->
<g id="edge2" class="edge">
<title>Node1&#45;&gt;Node3</title>
<path fill="none" stroke="midnightblue" d="M153,-45.8C153,-36.91 153,-26.78 153,-19.75"/>
<polygon fill="midnightblue" stroke="midnightblue" points="149.5,-46.08 153,-56.08 156.5,-46.08 149.5,-46.08"/>
</g>
<!-- Node4 -->
<g id="node4" class="node">
<title>Node4</title>
<g id="a_node4"><a xlink:href="classReaktoro_1_1MineralSpecies.html" target="_top" xlink:title="A type to describe the attributes of a mineral species.">
<polygon fill="white" stroke="black" points="210.5,-0.5 210.5,-19.5 301.5,-19.5 301.5,-0.5 210.5,-0.5"/>
<text text-anchor="middle" x="256" y="-7.5" font-family="Helvetica,sans-Serif" font-size="10.00">MineralSpecies</text>
</a>
</g>
</g>
<!-- Node1&#45;&gt;Node4 -->
<g id="edge3" class="edge">
<title>Node1&#45;&gt;Node4</title>
<path fill="none" stroke="midnightblue" d="M178.58,-51.59C197.62,-41.61 223.06,-28.27 239.49,-19.65"/>
<polygon fill="midnightblue" stroke="midnightblue" points="176.78,-48.58 169.55,-56.32 180.03,-54.78 176.78,-48.58"/>
</g>
</g>
</svg>
