<?xml version="1.0" encoding="UTF-8" standalone="no"?>
<!DOCTYPE svg PUBLIC "-//W3C//DTD SVG 1.1//EN"
 "http://www.w3.org/Graphics/SVG/1.1/DTD/svg11.dtd">
<!-- Generated by graphviz version 2.42.3 (20191010.1750)
 -->
<!-- Title: Interface Pages: 1 -->
<svg width="122pt" height="84pt"
 viewBox="0.00 0.00 122.00 84.00" xmlns="http://www.w3.org/2000/svg" xmlns:xlink="http://www.w3.org/1999/xlink">
<g id="graph0" class="graph" transform="scale(1 1) rotate(0) translate(4 80)">
<title>Interface</title>
<polygon fill="white" stroke="transparent" points="-4,4 -4,-80 118,-80 118,4 -4,4"/>
<!-- Node1 -->
<g id="node1" class="node">
<title>Node1</title>
<g id="a_node1"><a xlink:title="A class used to interface other codes with Reaktoro.">
<polygon fill="#bfbfbf" stroke="black" points="27,-56.5 27,-75.5 82,-75.5 82,-56.5 27,-56.5"/>
<text text-anchor="middle" x="54.5" y="-63.5" font-family="Helvetica,sans-Serif" font-size="10.00">Interface</text>
</a>
</g>
</g>
<!-- Node2 -->
<g id="node2" class="node">
<title>Node2</title>
<g id="a_node2"><a xlink:href="classReaktoro_1_1Gems.html" target="_top" xlink:title="A wrapper class for Gems code.">
<polygon fill="white" stroke="black" points="0,-0.5 0,-19.5 43,-19.5 43,-0.5 0,-0.5"/>
<text text-anchor="middle" x="21.5" y="-7.5" font-family="Helvetica,sans-Serif" font-size="10.00">Gems</text>
</a>
</g>
</g>
<!-- Node1&#45;&gt;Node2 -->
<g id="edge1" class="edge">
<title>Node1&#45;&gt;Node2</title>
<path fill="none" stroke="midnightblue" d="M43.67,-47.27C38.03,-38.05 31.38,-27.17 26.85,-19.75"/>
<polygon fill="midnightblue" stroke="midnightblue" points="40.85,-49.38 49.05,-56.08 46.82,-45.73 40.85,-49.38"/>
</g>
<!-- Node3 -->
<g id="node3" class="node">
<title>Node3</title>
<g id="a_node3"><a xlink:href="classReaktoro_1_1Phreeqc.html" target="_top" xlink:title=" ">
<polygon fill="white" stroke="black" points="61,-0.5 61,-19.5 114,-19.5 114,-0.5 61,-0.5"/>
<text text-anchor="middle" x="87.5" y="-7.5" font-family="Helvetica,sans-Serif" font-size="10.00">Phreeqc</text>
</a>
</g>
</g>
<!-- Node1&#45;&gt;Node3 -->
<g id="edge2" class="edge">
<title>Node1&#45;&gt;Node3</title>
<path fill="none" stroke="midnightblue" d="M65.33,-47.27C70.97,-38.05 77.62,-27.17 82.15,-19.75"/>
<polygon fill="midnightblue" stroke="midnightblue" points="62.18,-45.73 59.95,-56.08 68.15,-49.38 62.18,-45.73"/>
</g>
</g>
</svg>
