<?xml version="1.0" encoding="UTF-8" standalone="no"?>
<!DOCTYPE svg PUBLIC "-//W3C//DTD SVG 1.1//EN"
 "http://www.w3.org/Graphics/SVG/1.1/DTD/svg11.dtd">
<!-- Generated by graphviz version 2.50.0 (20211209.0339)
 -->
<!-- Title: OptimumSolverBase Pages: 1 -->
<svg width="307pt" height="332pt"
 viewBox="0.00 0.00 307.00 332.00" xmlns="http://www.w3.org/2000/svg" xmlns:xlink="http://www.w3.org/1999/xlink">
<g id="graph0" class="graph" transform="scale(1 1) rotate(0) translate(4 328)">
<title>OptimumSolverBase</title>
<polygon fill="white" stroke="transparent" points="-4,4 -4,-328 303,-328 303,4 -4,4"/>
<!-- Node1 -->
<g id="node1" class="node">
<title>Node1</title>
<g id="a_node1"><a xlink:title="The base class for all optimization algorithms.">
<polygon fill="#bfbfbf" stroke="black" points="0,-152.5 0,-171.5 117,-171.5 117,-152.5 0,-152.5"/>
<text text-anchor="middle" x="58.5" y="-159.5" font-family="Helvetica,sans-Serif" font-size="10.00">OptimumSolverBase</text>
</a>
</g>
</g>
<!-- Node2 -->
<g id="node2" class="node">
<title>Node2</title>
<g id="a_node2"><a xlink:href="classReaktoro_1_1OptimumSolverActNewton.html" target="_top" xlink:title="The class that implements the ActNewton algorithm using an active&#45;set strategy.">
<polygon fill="white" stroke="black" points="153,-304.5 153,-323.5 299,-323.5 299,-304.5 153,-304.5"/>
<text text-anchor="middle" x="226" y="-311.5" font-family="Helvetica,sans-Serif" font-size="10.00">OptimumSolverActNewton</text>
</a>
</g>
</g>
<!-- Node1&#45;&gt;Node2 -->
<g id="edge1" class="edge">
<title>Node1&#45;&gt;Node2</title>
<path fill="none" stroke="midnightblue" d="M67.72,-181.28C81.18,-210.46 110.7,-265.56 153,-295 158.62,-298.91 165.01,-302.02 171.59,-304.49"/>
<polygon fill="midnightblue" stroke="midnightblue" points="70.77,-179.51 63.5,-171.8 64.37,-182.36 70.77,-179.51"/>
</g>
<!-- Node3 -->
<g id="node3" class="node">
<title>Node3</title>
<g id="a_node3"><a xlink:href="classReaktoro_1_1OptimumSolverIpAction.html" target="_top" xlink:title="The class that implements the IpAction algorithm using an interior&#45;point method with a null&#45;space KKT...">
<polygon fill="white" stroke="black" points="159.5,-266.5 159.5,-285.5 292.5,-285.5 292.5,-266.5 159.5,-266.5"/>
<text text-anchor="middle" x="226" y="-273.5" font-family="Helvetica,sans-Serif" font-size="10.00">OptimumSolverIpAction</text>
</a>
</g>
</g>
<!-- Node1&#45;&gt;Node3 -->
<g id="edge2" class="edge">
<title>Node1&#45;&gt;Node3</title>
<path fill="none" stroke="midnightblue" d="M72.37,-180.04C88.68,-201.58 118.85,-237.19 153,-257 159.71,-260.89 167.23,-264 174.81,-266.49"/>
<polygon fill="midnightblue" stroke="midnightblue" points="75,-177.72 66.25,-171.75 69.37,-181.88 75,-177.72"/>
</g>
<!-- Node4 -->
<g id="node4" class="node">
<title>Node4</title>
<g id="a_node4"><a xlink:href="classReaktoro_1_1OptimumSolverIpActive.html" target="_top" xlink:title="The class that implements the IpActive algorithm using an interior&#45;point method combined with an acti...">
<polygon fill="white" stroke="black" points="159.5,-228.5 159.5,-247.5 292.5,-247.5 292.5,-228.5 159.5,-228.5"/>
<text text-anchor="middle" x="226" y="-235.5" font-family="Helvetica,sans-Serif" font-size="10.00">OptimumSolverIpActive</text>
</a>
</g>
</g>
<!-- Node1&#45;&gt;Node4 -->
<g id="edge3" class="edge">
<title>Node1&#45;&gt;Node4</title>
<path fill="none" stroke="midnightblue" d="M80.68,-177.38C99.03,-190.08 126.7,-207.79 153,-219 161.68,-222.7 171.27,-225.83 180.53,-228.42"/>
<polygon fill="midnightblue" stroke="midnightblue" points="82.66,-174.49 72.47,-171.59 78.63,-180.21 82.66,-174.49"/>
</g>
<!-- Node5 -->
<g id="node5" class="node">
<title>Node5</title>
<g id="a_node5"><a xlink:href="classReaktoro_1_1OptimumSolverIpBounds.html" target="_top" xlink:title="The class that implements the IpBounds algorithm using an interior&#45;point method.">
<polygon fill="white" stroke="black" points="157,-190.5 157,-209.5 295,-209.5 295,-190.5 157,-190.5"/>
<text text-anchor="middle" x="226" y="-197.5" font-family="Helvetica,sans-Serif" font-size="10.00">OptimumSolverIpBounds</text>
</a>
</g>
</g>
<!-- Node1&#45;&gt;Node5 -->
<g id="edge4" class="edge">
<title>Node1&#45;&gt;Node5</title>
<path fill="none" stroke="midnightblue" d="M111.31,-173.9C134.57,-179.24 161.65,-185.45 183.54,-190.48"/>
<polygon fill="midnightblue" stroke="midnightblue" points="111.79,-170.42 101.26,-171.59 110.23,-177.24 111.79,-170.42"/>
</g>
<!-- Node6 -->
<g id="node6" class="node">
<title>Node6</title>
<g id="a_node6"><a xlink:href="classReaktoro_1_1OptimumSolverIpNewton.html" target="_top" xlink:title="The class that implements the IpNewton algorithm using an interior&#45;point method.">
<polygon fill="white" stroke="black" points="156,-152.5 156,-171.5 296,-171.5 296,-152.5 156,-152.5"/>
<text text-anchor="middle" x="226" y="-159.5" font-family="Helvetica,sans-Serif" font-size="10.00">OptimumSolverIpNewton</text>
</a>
</g>
</g>
<!-- Node1&#45;&gt;Node6 -->
<g id="edge5" class="edge">
<title>Node1&#45;&gt;Node6</title>
<path fill="none" stroke="midnightblue" d="M127.41,-162C136.77,-162 146.39,-162 155.78,-162"/>
<polygon fill="midnightblue" stroke="midnightblue" points="127.38,-158.5 117.38,-162 127.38,-165.5 127.38,-158.5"/>
</g>
<!-- Node7 -->
<g id="node7" class="node">
<title>Node7</title>
<g id="a_node7"><a xlink:href="classReaktoro_1_1OptimumSolverIpOpt.html" target="_top" xlink:title="The class that implements the IpOpt algorithm using an interior&#45;point method.">
<polygon fill="white" stroke="black" points="166.5,-114.5 166.5,-133.5 285.5,-133.5 285.5,-114.5 166.5,-114.5"/>
<text text-anchor="middle" x="226" y="-121.5" font-family="Helvetica,sans-Serif" font-size="10.00">OptimumSolverIpOpt</text>
</a>
</g>
</g>
<!-- Node1&#45;&gt;Node7 -->
<g id="edge6" class="edge">
<title>Node1&#45;&gt;Node7</title>
<path fill="none" stroke="midnightblue" d="M111.31,-150.1C134.57,-144.76 161.65,-138.55 183.54,-133.52"/>
<polygon fill="midnightblue" stroke="midnightblue" points="110.23,-146.76 101.26,-152.41 111.79,-153.58 110.23,-146.76"/>
</g>
<!-- Node8 -->
<g id="node8" class="node">
<title>Node8</title>
<g id="a_node8"><a xlink:href="classReaktoro_1_1OptimumSolverKarpov.html" target="_top" xlink:title="The class that implements an optimization algorithm based on Karpov&#39;s method.">
<polygon fill="white" stroke="black" points="162,-76.5 162,-95.5 290,-95.5 290,-76.5 162,-76.5"/>
<text text-anchor="middle" x="226" y="-83.5" font-family="Helvetica,sans-Serif" font-size="10.00">OptimumSolverKarpov</text>
</a>
</g>
</g>
<!-- Node1&#45;&gt;Node8 -->
<g id="edge7" class="edge">
<title>Node1&#45;&gt;Node8</title>
<path fill="none" stroke="midnightblue" d="M80.68,-146.62C99.03,-133.92 126.7,-116.21 153,-105 161.68,-101.3 171.27,-98.17 180.53,-95.58"/>
<polygon fill="midnightblue" stroke="midnightblue" points="78.63,-143.79 72.47,-152.41 82.66,-149.51 78.63,-143.79"/>
</g>
<!-- Node9 -->
<g id="node9" class="node">
<title>Node9</title>
<g id="a_node9"><a xlink:href="classReaktoro_1_1OptimumSolverRefiner.html" target="_top" xlink:title="The class that implements a refinement operation of the optimal solution.">
<polygon fill="white" stroke="black" points="162,-38.5 162,-57.5 290,-57.5 290,-38.5 162,-38.5"/>
<text text-anchor="middle" x="226" y="-45.5" font-family="Helvetica,sans-Serif" font-size="10.00">OptimumSolverRefiner</text>
</a>
</g>
</g>
<!-- Node1&#45;&gt;Node9 -->
<g id="edge8" class="edge">
<title>Node1&#45;&gt;Node9</title>
<path fill="none" stroke="midnightblue" d="M72.37,-143.96C88.68,-122.42 118.85,-86.81 153,-67 159.71,-63.11 167.23,-60 174.81,-57.51"/>
<polygon fill="midnightblue" stroke="midnightblue" points="69.37,-142.12 66.25,-152.25 75,-146.28 69.37,-142.12"/>
</g>
<!-- Node10 -->
<g id="node10" class="node">
<title>Node10</title>
<g id="a_node10"><a xlink:href="classReaktoro_1_1OptimumSolverSimplex.html" target="_top" xlink:title="The class that implements the simplex algorithm for linear programming problems.">
<polygon fill="white" stroke="black" points="159.5,-0.5 159.5,-19.5 292.5,-19.5 292.5,-0.5 159.5,-0.5"/>
<text text-anchor="middle" x="226" y="-7.5" font-family="Helvetica,sans-Serif" font-size="10.00">OptimumSolverSimplex</text>
</a>
</g>
</g>
<!-- Node1&#45;&gt;Node10 -->
<g id="edge9" class="edge">
<title>Node1&#45;&gt;Node10</title>
<path fill="none" stroke="midnightblue" d="M67.72,-142.72C81.18,-113.54 110.7,-58.44 153,-29 158.62,-25.09 165.01,-21.98 171.59,-19.51"/>
<polygon fill="midnightblue" stroke="midnightblue" points="64.37,-141.64 63.5,-152.2 70.77,-144.49 64.37,-141.64"/>
</g>
</g>
</svg>
