<?xml version="1.0" encoding="UTF-8" standalone="no"?>
<!DOCTYPE svg PUBLIC "-//W3C//DTD SVG 1.1//EN"
 "http://www.w3.org/Graphics/SVG/1.1/DTD/svg11.dtd">
<!-- Generated by graphviz version 3.0.0 (20220226.1711)
 -->
<!-- Title: InterpolationOptions Pages: 1 -->
<svg width="212pt" height="163pt"
 viewBox="0.00 0.00 212.00 163.00" xmlns="http://www.w3.org/2000/svg" xmlns:xlink="http://www.w3.org/1999/xlink">
<g id="graph0" class="graph" transform="scale(1 1) rotate(0) translate(4 159)">
<title>InterpolationOptions</title>
<polygon fill="white" stroke="transparent" points="-4,4 -4,-159 208,-159 208,4 -4,4"/>
<!-- Node1 -->
<g id="node1" class="node">
<title>Node1</title>
<g id="a_node1"><a xlink:title="A type used to describe all options related to interpolation.">
<polygon fill="#bfbfbf" stroke="black" points="53,-0.5 53,-19.5 157,-19.5 157,-0.5 53,-0.5"/>
<text text-anchor="middle" x="105" y="-7.5" font-family="Helvetica,sans-Serif" font-size="10.00">InterpolationOptions</text>
</a>
</g>
</g>
<!-- Node2 -->
<g id="node2" class="node">
<title>Node2</title>
<g id="a_node2"><a xlink:title=" ">
<polygon fill="white" stroke="black" points="33.5,-78.5 33.5,-97.5 74.5,-97.5 74.5,-78.5 33.5,-78.5"/>
<text text-anchor="middle" x="54" y="-85.5" font-family="Helvetica,sans-Serif" font-size="10.00">string</text>
</a>
</g>
</g>
<!-- Node2&#45;&gt;Node1 -->
<g id="edge1" class="edge">
<title>Node2&#45;&gt;Node1</title>
<path fill="none" stroke="#9a32cd" stroke-dasharray="5,2" d="M50.13,-68.42C49.1,-58.69 49.52,-46.97 55,-38 60.09,-29.66 68.72,-23.74 77.39,-19.6"/>
<polygon fill="#9a32cd" stroke="#9a32cd" points="46.67,-68.99 51.71,-78.31 53.58,-67.88 46.67,-68.99"/>
<text text-anchor="middle" x="94.5" y="-52" font-family="Helvetica,sans-Serif" font-size="10.00"> pressure_units</text>
<text text-anchor="middle" x="94.5" y="-41" font-family="Helvetica,sans-Serif" font-size="10.00">temperature_units</text>
</g>
<!-- Node3 -->
<g id="node3" class="node">
<title>Node3</title>
<g id="a_node3"><a xlink:title=" ">
<polygon fill="white" stroke="black" points="0,-135.5 0,-154.5 108,-154.5 108,-135.5 0,-135.5"/>
<text text-anchor="middle" x="54" y="-142.5" font-family="Helvetica,sans-Serif" font-size="10.00">basic_string&lt; Char &gt;</text>
</a>
</g>
</g>
<!-- Node3&#45;&gt;Node2 -->
<g id="edge2" class="edge">
<title>Node3&#45;&gt;Node2</title>
<path fill="none" stroke="midnightblue" d="M54,-125.12C54,-115.82 54,-105.06 54,-97.71"/>
<polygon fill="midnightblue" stroke="midnightblue" points="50.5,-125.41 54,-135.41 57.5,-125.41 50.5,-125.41"/>
</g>
<!-- Node4 -->
<g id="node4" class="node">
<title>Node4</title>
<g id="a_node4"><a xlink:title=" ">
<polygon fill="white" stroke="black" points="111,-78.5 111,-97.5 201,-97.5 201,-78.5 111,-78.5"/>
<text text-anchor="middle" x="156" y="-85.5" font-family="Helvetica,sans-Serif" font-size="10.00">vector&lt; double &gt;</text>
</a>
</g>
</g>
<!-- Node4&#45;&gt;Node1 -->
<g id="edge3" class="edge">
<title>Node4&#45;&gt;Node1</title>
<path fill="none" stroke="#9a32cd" stroke-dasharray="5,2" d="M149.93,-69.05C146.18,-59.35 140.78,-47.46 134,-38 129.03,-31.07 122.07,-24.51 116.22,-19.6"/>
<polygon fill="#9a32cd" stroke="#9a32cd" points="146.65,-70.27 153.34,-78.49 153.24,-67.89 146.65,-70.27"/>
<text text-anchor="middle" x="175" y="-52" font-family="Helvetica,sans-Serif" font-size="10.00"> pressures</text>
<text text-anchor="middle" x="175" y="-41" font-family="Helvetica,sans-Serif" font-size="10.00">temperatures</text>
</g>
</g>
</svg>
