<?xml version="1.0" encoding="UTF-8" standalone="no"?>
<!DOCTYPE svg PUBLIC "-//W3C//DTD SVG 1.1//EN"
 "http://www.w3.org/Graphics/SVG/1.1/DTD/svg11.dtd">
<!-- Generated by graphviz version 2.50.0 (20211209.0339)
 -->
<!-- Title: EquilibriumResult Pages: 1 -->
<svg width="252pt" height="95pt"
 viewBox="0.00 0.00 251.50 95.00" xmlns="http://www.w3.org/2000/svg" xmlns:xlink="http://www.w3.org/1999/xlink">
<g id="graph0" class="graph" transform="scale(1 1) rotate(0) translate(4 91)">
<title>EquilibriumResult</title>
<polygon fill="white" stroke="transparent" points="-4,4 -4,-91 247.5,-91 247.5,4 -4,4"/>
<!-- Node1 -->
<g id="node1" class="node">
<title>Node1</title>
<g id="a_node1"><a xlink:title="A type used to describe the result of an equilibrium calculation.">
<polygon fill="#bfbfbf" stroke="black" points="79.5,-0.5 79.5,-19.5 182.5,-19.5 182.5,-0.5 79.5,-0.5"/>
<text text-anchor="middle" x="131" y="-7.5" font-family="Helvetica,sans-Serif" font-size="10.00">EquilibriumResult</text>
</a>
</g>
</g>
<!-- Node2 -->
<g id="node2" class="node">
<title>Node2</title>
<g id="a_node2"><a xlink:href="structReaktoro_1_1SmartEquilibriumResult.html" target="_top" xlink:title="A type used to describe the result of a smart equilibrium calculation.">
<polygon fill="white" stroke="black" points="0,-67.5 0,-86.5 132,-86.5 132,-67.5 0,-67.5"/>
<text text-anchor="middle" x="66" y="-74.5" font-family="Helvetica,sans-Serif" font-size="10.00">SmartEquilibriumResult</text>
</a>
</g>
</g>
<!-- Node2&#45;&gt;Node1 -->
<g id="edge1" class="edge">
<title>Node2&#45;&gt;Node1</title>
<path fill="none" stroke="#9a32cd" stroke-dasharray="5,2" d="M82,-60C94.75,-47.25 112.11,-29.89 122.37,-19.63"/>
<polygon fill="#9a32cd" stroke="#9a32cd" points="79.36,-57.69 74.77,-67.23 84.31,-62.64 79.36,-57.69"/>
<text text-anchor="middle" x="119" y="-41" font-family="Helvetica,sans-Serif" font-size="10.00"> smart</text>
</g>
<!-- Node3 -->
<g id="node3" class="node">
<title>Node3</title>
<g id="a_node3"><a xlink:href="structReaktoro_1_1OptimumResult.html" target="_top" xlink:title="A type that describes the result of an optimisation calculation.">
<polygon fill="white" stroke="black" points="150.5,-67.5 150.5,-86.5 243.5,-86.5 243.5,-67.5 150.5,-67.5"/>
<text text-anchor="middle" x="197" y="-74.5" font-family="Helvetica,sans-Serif" font-size="10.00">OptimumResult</text>
</a>
</g>
</g>
<!-- Node3&#45;&gt;Node1 -->
<g id="edge2" class="edge">
<title>Node3&#45;&gt;Node1</title>
<path fill="none" stroke="#9a32cd" stroke-dasharray="5,2" d="M180.75,-60C167.81,-47.25 150.19,-29.89 139.76,-19.63"/>
<polygon fill="#9a32cd" stroke="#9a32cd" points="178.52,-62.71 188.1,-67.23 183.43,-57.72 178.52,-62.71"/>
<text text-anchor="middle" x="191" y="-41" font-family="Helvetica,sans-Serif" font-size="10.00"> optimum</text>
</g>
</g>
</svg>
