<?xml version="1.0" encoding="UTF-8" standalone="no"?>
<!DOCTYPE svg PUBLIC "-//W3C//DTD SVG 1.1//EN"
 "http://www.w3.org/Graphics/SVG/1.1/DTD/svg11.dtd">
<!-- Generated by graphviz version 3.0.0 (20220226.1711)
 -->
<!-- Title: OptimumOptions Pages: 1 -->
<!--zoomable 409 -->
<svg id="main" version="1.1" xmlns="http://www.w3.org/2000/svg" xmlns:xlink="http://www.w3.org/1999/xlink" xml:space="preserve" onload="init(evt)">
<style type="text/css"><![CDATA[
.edge:hover path { stroke: red; }
.edge:hover polygon { stroke: red; fill: red; }
]]></style>
<script type="text/javascript"><![CDATA[
var edges = document.getElementsByTagName('g');
if (edges && edges.length) {
  for (var i=0;i<edges.length;i++) {
    if (edges[i].id.substr(0,4)=='edge') {
      edges[i].setAttribute('class','edge');
    }
  }
}
]]></script>
        <defs>
                <circle id="rim" cx="0" cy="0" r="7"/>
                <circle id="rim2" cx="0" cy="0" r="3.5"/>
                <g id="zoomPlus">
                        <use xlink:href="#rim" fill="#404040">
                                <set attributeName="fill" to="#808080" begin="zoomplus.mouseover" end="zoomplus.mouseout"/>
                        </use>
                        <path d="M-4,0h8M0,-4v8" fill="none" stroke="white" stroke-width="1.5" pointer-events="none"/>
                </g>
                <g id="zoomMin">
                        <use xlink:href="#rim" fill="#404040">
                                <set attributeName="fill" to="#808080" begin="zoomminus.mouseover" end="zoomminus.mouseout"/>
                        </use>
                        <path d="M-4,0h8" fill="none" stroke="white" stroke-width="1.5" pointer-events="none"/>
                </g>
                <g id="dirArrow">
                        <path fill="none" stroke="white" stroke-width="1.5" d="M0,-3.0v7 M-2.5,-0.5L0,-3.0L2.5,-0.5"/>
                </g>
               <g id="resetDef">
                       <use xlink:href="#rim2" fill="#404040">
                               <set attributeName="fill" to="#808080" begin="reset.mouseover" end="reset.mouseout"/>
                       </use>
               </g>
        </defs>

<script type="text/javascript">
var viewWidth = 792;
var viewHeight = 409;
var sectionId = 'dynsection-0';
</script>
<script xlink:href="svgpan.js"/>
<svg id="graph" class="graph">
<g id="viewport">
<title>OptimumOptions</title>
<polygon fill="white" stroke="transparent" points="-4,4 -4,-405 788,-405 788,4 -4,4"/>
<!-- Node1 -->
<g id="node1" class="node">
<title>Node1</title>
<g id="a_node1"><a xlink:title="A type that describes the options of a optimisation calculation.">
<polygon fill="#bfbfbf" stroke="black" points="694,-171.5 694,-190.5 784,-190.5 784,-171.5 694,-171.5"/>
<text text-anchor="middle" x="739" y="-178.5" font-family="Helvetica,sans-Serif" font-size="10.00">OptimumOptions</text>
</a>
</g>
</g>
<!-- Node2 -->
<g id="node2" class="node">
<title>Node2</title>
<g id="a_node2"><a xlink:href="structReaktoro_1_1OptimumOutputOptions.html" target="_top" xlink:title="A type that describes the options for the output of a optimisation calculation.">
<polygon fill="white" stroke="black" points="461.5,-342.5 461.5,-361.5 580.5,-361.5 580.5,-342.5 461.5,-342.5"/>
<text text-anchor="middle" x="521" y="-349.5" font-family="Helvetica,sans-Serif" font-size="10.00">OptimumOutputOptions</text>
</a>
</g>
</g>
<!-- Node2&#45;&gt;Node1 -->
<g id="edge1" class="edge">
<title>Node2&#45;&gt;Node1</title>
<path fill="none" stroke="#9a32cd" stroke-dasharray="5,2" d="M590.9,-348.56C619.83,-344.01 652.22,-334.49 676,-315 716.84,-281.53 732.1,-215.16 736.5,-190.51"/>
<polygon fill="#9a32cd" stroke="#9a32cd" points="590.24,-345.12 580.82,-349.97 591.21,-352.05 590.24,-345.12"/>
<text text-anchor="middle" x="645.5" y="-345" font-family="Helvetica,sans-Serif" font-size="10.00"> output</text>
</g>
<!-- Node3 -->
<g id="node3" class="node">
<title>Node3</title>
<g id="a_node3"><a xlink:href="structReaktoro_1_1OutputterOptions.html" target="_top" xlink:title=" ">
<polygon fill="white" stroke="#bfbfbf" points="273,-332.5 273,-351.5 364,-351.5 364,-332.5 273,-332.5"/>
<text text-anchor="middle" x="318.5" y="-339.5" font-family="Helvetica,sans-Serif" font-size="10.00">OutputterOptions</text>
</a>
</g>
</g>
<!-- Node3&#45;&gt;Node2 -->
<g id="edge2" class="edge">
<title>Node3&#45;&gt;Node2</title>
<path fill="none" stroke="midnightblue" d="M374.29,-344.73C401.27,-346.08 433.82,-347.7 461.3,-349.07"/>
<polygon fill="midnightblue" stroke="midnightblue" points="374.41,-341.23 364.25,-344.23 374.06,-348.23 374.41,-341.23"/>
</g>
<!-- Node4 -->
<g id="node4" class="node">
<title>Node4</title>
<g id="a_node4"><a xlink:title=" ">
<polygon fill="white" stroke="black" points="145,-332.5 145,-351.5 186,-351.5 186,-332.5 145,-332.5"/>
<text text-anchor="middle" x="165.5" y="-339.5" font-family="Helvetica,sans-Serif" font-size="10.00">string</text>
</a>
</g>
</g>
<!-- Node4&#45;&gt;Node2 -->
<g id="edge5" class="edge">
<title>Node4&#45;&gt;Node2</title>
<path fill="none" stroke="#9a32cd" stroke-dasharray="5,2" d="M195.91,-354.76C198.61,-355.63 201.33,-356.4 204,-357 300.68,-378.87 328.01,-365.14 427,-360 438,-359.43 449.73,-358.6 461,-357.68"/>
<polygon fill="#9a32cd" stroke="#9a32cd" points="196.96,-351.42 186.37,-351.3 194.57,-358 196.96,-351.42"/>
<text text-anchor="middle" x="318.5" y="-393" font-family="Helvetica,sans-Serif" font-size="10.00"> xprefix</text>
<text text-anchor="middle" x="318.5" y="-382" font-family="Helvetica,sans-Serif" font-size="10.00">yprefix</text>
<text text-anchor="middle" x="318.5" y="-371" font-family="Helvetica,sans-Serif" font-size="10.00">zprefix</text>
</g>
<!-- Node4&#45;&gt;Node3 -->
<g id="edge3" class="edge">
<title>Node4&#45;&gt;Node3</title>
<path fill="none" stroke="#9a32cd" stroke-dasharray="5,2" d="M196.26,-342C218.14,-342 248.24,-342 272.98,-342"/>
<polygon fill="#9a32cd" stroke="#9a32cd" points="196.24,-338.5 186.24,-342 196.24,-345.5 196.24,-338.5"/>
<text text-anchor="middle" x="226" y="-345" font-family="Helvetica,sans-Serif" font-size="10.00"> separator</text>
</g>
<!-- Node6 -->
<g id="node6" class="node">
<title>Node6</title>
<g id="a_node6"><a xlink:title=" ">
<polygon fill="white" stroke="black" points="266,-294.5 266,-313.5 371,-313.5 371,-294.5 266,-294.5"/>
<text text-anchor="middle" x="318.5" y="-301.5" font-family="Helvetica,sans-Serif" font-size="10.00">vector&lt; std::string &gt;</text>
</a>
</g>
</g>
<!-- Node4&#45;&gt;Node6 -->
<g id="edge7" class="edge">
<title>Node4&#45;&gt;Node6</title>
<path fill="none" stroke="#9a32cd" stroke-dasharray="5,2" d="M195.54,-329.79C198.38,-328.78 201.23,-327.83 204,-327 223.94,-321.05 246.31,-316.15 265.88,-312.42"/>
<polygon fill="#9a32cd" stroke="#9a32cd" points="194.21,-326.55 186.11,-333.38 196.71,-333.09 194.21,-326.55"/>
<text text-anchor="middle" x="226" y="-330" font-family="Helvetica,sans-Serif" font-size="10.00"> elements</text>
</g>
<!-- Node5 -->
<g id="node5" class="node">
<title>Node5</title>
<g id="a_node5"><a xlink:title=" ">
<polygon fill="white" stroke="black" points="0,-332.5 0,-351.5 108,-351.5 108,-332.5 0,-332.5"/>
<text text-anchor="middle" x="54" y="-339.5" font-family="Helvetica,sans-Serif" font-size="10.00">basic_string&lt; Char &gt;</text>
</a>
</g>
</g>
<!-- Node5&#45;&gt;Node4 -->
<g id="edge4" class="edge">
<title>Node5&#45;&gt;Node4</title>
<path fill="none" stroke="midnightblue" d="M118.23,-342C127.84,-342 137.09,-342 144.76,-342"/>
<polygon fill="midnightblue" stroke="midnightblue" points="118.15,-338.5 108.15,-342 118.15,-345.5 118.15,-338.5"/>
</g>
<!-- Node6&#45;&gt;Node2 -->
<g id="edge6" class="edge">
<title>Node6&#45;&gt;Node2</title>
<path fill="none" stroke="#9a32cd" stroke-dasharray="5,2" d="M381.33,-296.96C396.97,-297.63 413.23,-300.62 427,-308 439.07,-314.47 433.68,-325.3 445,-333 450.66,-336.85 457.05,-339.93 463.64,-342.38"/>
<polygon fill="#9a32cd" stroke="#9a32cd" points="381.22,-293.46 371.17,-296.83 381.13,-300.46 381.22,-293.46"/>
<text text-anchor="middle" x="408" y="-333" font-family="Helvetica,sans-Serif" font-size="10.00"> xnames</text>
<text text-anchor="middle" x="408" y="-322" font-family="Helvetica,sans-Serif" font-size="10.00">ynames</text>
<text text-anchor="middle" x="408" y="-311" font-family="Helvetica,sans-Serif" font-size="10.00">znames</text>
</g>
<!-- Node7 -->
<g id="node7" class="node">
<title>Node7</title>
<g id="a_node7"><a xlink:href="structReaktoro_1_1OptimumParamsActNewton.html" target="_top" xlink:title=" ">
<polygon fill="white" stroke="#bfbfbf" points="451.5,-304.5 451.5,-323.5 590.5,-323.5 590.5,-304.5 451.5,-304.5"/>
<text text-anchor="middle" x="521" y="-311.5" font-family="Helvetica,sans-Serif" font-size="10.00">OptimumParamsActNewton</text>
</a>
</g>
</g>
<!-- Node7&#45;&gt;Node1 -->
<g id="edge8" class="edge">
<title>Node7&#45;&gt;Node1</title>
<path fill="none" stroke="#9a32cd" stroke-dasharray="5,2" d="M600.46,-304.54C626.29,-298.58 654.01,-288.85 676,-273 706.31,-251.15 726.29,-209.58 734.18,-190.73"/>
<polygon fill="#9a32cd" stroke="#9a32cd" points="599.7,-301.13 590.66,-306.65 601.17,-307.97 599.7,-301.13"/>
<text text-anchor="middle" x="645.5" y="-303" font-family="Helvetica,sans-Serif" font-size="10.00"> actnewton</text>
</g>
<!-- Node8 -->
<g id="node8" class="node">
<title>Node8</title>
<g id="a_node8"><a xlink:href="structReaktoro_1_1OptimumParamsIpAction.html" target="_top" xlink:title=" ">
<polygon fill="white" stroke="#bfbfbf" points="458,-266.5 458,-285.5 584,-285.5 584,-266.5 458,-266.5"/>
<text text-anchor="middle" x="521" y="-273.5" font-family="Helvetica,sans-Serif" font-size="10.00">OptimumParamsIpAction</text>
</a>
</g>
</g>
<!-- Node8&#45;&gt;Node1 -->
<g id="edge9" class="edge">
<title>Node8&#45;&gt;Node1</title>
<path fill="none" stroke="#9a32cd" stroke-dasharray="5,2" d="M593.81,-264.19C620.65,-257.92 650.73,-248.61 676,-235 697.62,-223.36 718.17,-202.98 729.34,-190.87"/>
<polygon fill="#9a32cd" stroke="#9a32cd" points="592.69,-260.85 583.69,-266.44 594.22,-267.68 592.69,-260.85"/>
<text text-anchor="middle" x="645.5" y="-261" font-family="Helvetica,sans-Serif" font-size="10.00"> ipaction</text>
</g>
<!-- Node9 -->
<g id="node9" class="node">
<title>Node9</title>
<g id="a_node9"><a xlink:href="structReaktoro_1_1OptimumParamsIpOpt.html" target="_top" xlink:title=" ">
<polygon fill="white" stroke="#bfbfbf" points="464,-228.5 464,-247.5 578,-247.5 578,-228.5 464,-228.5"/>
<text text-anchor="middle" x="521" y="-235.5" font-family="Helvetica,sans-Serif" font-size="10.00">OptimumParamsIpOpt</text>
</a>
</g>
</g>
<!-- Node9&#45;&gt;Node1 -->
<g id="edge10" class="edge">
<title>Node9&#45;&gt;Node1</title>
<path fill="none" stroke="#9a32cd" stroke-dasharray="5,2" d="M588.1,-226.95C615.57,-221.66 647.6,-214.6 676,-206 690,-201.76 705.23,-195.64 717.1,-190.51"/>
<polygon fill="#9a32cd" stroke="#9a32cd" points="587.38,-223.52 578.2,-228.81 588.68,-230.4 587.38,-223.52"/>
<text text-anchor="middle" x="645.5" y="-223" font-family="Helvetica,sans-Serif" font-size="10.00"> ipopt</text>
</g>
<!-- Node10 -->
<g id="node10" class="node">
<title>Node10</title>
<g id="a_node10"><a xlink:title=" ">
<polygon fill="white" stroke="black" points="273.5,-228.5 273.5,-247.5 363.5,-247.5 363.5,-228.5 273.5,-228.5"/>
<text text-anchor="middle" x="318.5" y="-235.5" font-family="Helvetica,sans-Serif" font-size="10.00">vector&lt; double &gt;</text>
</a>
</g>
</g>
<!-- Node10&#45;&gt;Node9 -->
<g id="edge11" class="edge">
<title>Node10&#45;&gt;Node9</title>
<path fill="none" stroke="#9a32cd" stroke-dasharray="5,2" d="M373.51,-238C401.48,-238 435.61,-238 463.88,-238"/>
<polygon fill="#9a32cd" stroke="#9a32cd" points="373.5,-234.5 363.5,-238 373.5,-241.5 373.5,-234.5"/>
<text text-anchor="middle" x="408" y="-241" font-family="Helvetica,sans-Serif" font-size="10.00"> mu</text>
</g>
<!-- Node11 -->
<g id="node11" class="node">
<title>Node11</title>
<g id="a_node11"><a xlink:href="structReaktoro_1_1OptimumParamsIpNewton.html" target="_top" xlink:title=" ">
<polygon fill="white" stroke="#bfbfbf" points="455,-190.5 455,-209.5 587,-209.5 587,-190.5 455,-190.5"/>
<text text-anchor="middle" x="521" y="-197.5" font-family="Helvetica,sans-Serif" font-size="10.00">OptimumParamsIpNewton</text>
</a>
</g>
</g>
<!-- Node11&#45;&gt;Node1 -->
<g id="edge12" class="edge">
<title>Node11&#45;&gt;Node1</title>
<path fill="none" stroke="#9a32cd" stroke-dasharray="5,2" d="M597.4,-193.37C629.64,-190.53 666.15,-187.32 693.89,-184.88"/>
<polygon fill="#9a32cd" stroke="#9a32cd" points="596.75,-189.91 587.1,-194.27 597.37,-196.88 596.75,-189.91"/>
<text text-anchor="middle" x="645.5" y="-194" font-family="Helvetica,sans-Serif" font-size="10.00"> ipnewton</text>
</g>
<!-- Node12 -->
<g id="node12" class="node">
<title>Node12</title>
<g id="a_node12"><a xlink:href="structReaktoro_1_1OptimumParamsIpActive.html" target="_top" xlink:title=" ">
<polygon fill="white" stroke="#bfbfbf" points="458,-152.5 458,-171.5 584,-171.5 584,-152.5 458,-152.5"/>
<text text-anchor="middle" x="521" y="-159.5" font-family="Helvetica,sans-Serif" font-size="10.00">OptimumParamsIpActive</text>
</a>
</g>
</g>
<!-- Node12&#45;&gt;Node1 -->
<g id="edge13" class="edge">
<title>Node12&#45;&gt;Node1</title>
<path fill="none" stroke="#9a32cd" stroke-dasharray="5,2" d="M594.39,-164.71C620.2,-166.08 649.44,-168.09 676,-171 681.74,-171.63 687.77,-172.43 693.71,-173.3"/>
<polygon fill="#9a32cd" stroke="#9a32cd" points="594.48,-161.21 584.31,-164.2 594.12,-168.2 594.48,-161.21"/>
<text text-anchor="middle" x="645.5" y="-174" font-family="Helvetica,sans-Serif" font-size="10.00"> ipactive</text>
</g>
<!-- Node13 -->
<g id="node13" class="node">
<title>Node13</title>
<g id="a_node13"><a xlink:href="structReaktoro_1_1OptimumParamsKarpov.html" target="_top" xlink:title=" ">
<polygon fill="white" stroke="#bfbfbf" points="460.5,-114.5 460.5,-133.5 581.5,-133.5 581.5,-114.5 460.5,-114.5"/>
<text text-anchor="middle" x="521" y="-121.5" font-family="Helvetica,sans-Serif" font-size="10.00">OptimumParamsKarpov</text>
</a>
</g>
</g>
<!-- Node13&#45;&gt;Node1 -->
<g id="edge14" class="edge">
<title>Node13&#45;&gt;Node1</title>
<path fill="none" stroke="#9a32cd" stroke-dasharray="5,2" d="M591.84,-132.06C618.57,-136.23 649.09,-142.32 676,-151 692.05,-156.18 709.22,-164.75 721.42,-171.41"/>
<polygon fill="#9a32cd" stroke="#9a32cd" points="592.21,-128.58 581.8,-130.56 591.17,-135.5 592.21,-128.58"/>
<text text-anchor="middle" x="645.5" y="-154" font-family="Helvetica,sans-Serif" font-size="10.00"> karpov</text>
</g>
<!-- Node14 -->
<g id="node14" class="node">
<title>Node14</title>
<g id="a_node14"><a xlink:href="structReaktoro_1_1OptimumParamsRefiner.html" target="_top" xlink:title=" ">
<polygon fill="white" stroke="#bfbfbf" points="460,-76.5 460,-95.5 582,-95.5 582,-76.5 460,-76.5"/>
<text text-anchor="middle" x="521" y="-83.5" font-family="Helvetica,sans-Serif" font-size="10.00">OptimumParamsRefiner</text>
</a>
</g>
</g>
<!-- Node14&#45;&gt;Node1 -->
<g id="edge15" class="edge">
<title>Node14&#45;&gt;Node1</title>
<path fill="none" stroke="#9a32cd" stroke-dasharray="5,2" d="M592,-93.65C619.4,-98.72 650.34,-107.11 676,-121 699.45,-133.69 720.26,-157.74 730.77,-171.22"/>
<polygon fill="#9a32cd" stroke="#9a32cd" points="592.53,-90.19 582.08,-91.94 591.34,-97.09 592.53,-90.19"/>
<text text-anchor="middle" x="645.5" y="-124" font-family="Helvetica,sans-Serif" font-size="10.00"> refiner</text>
</g>
<!-- Node15 -->
<g id="node15" class="node">
<title>Node15</title>
<g id="a_node15"><a xlink:href="structReaktoro_1_1OptimumParamsRegularization.html" target="_top" xlink:title="A type that describes the regularization options for the optimisation calculation.">
<polygon fill="white" stroke="black" points="445,-38.5 445,-57.5 597,-57.5 597,-38.5 445,-38.5"/>
<text text-anchor="middle" x="521" y="-45.5" font-family="Helvetica,sans-Serif" font-size="10.00">OptimumParamsRegularization</text>
</a>
</g>
</g>
<!-- Node15&#45;&gt;Node1 -->
<g id="edge16" class="edge">
<title>Node15&#45;&gt;Node1</title>
<path fill="none" stroke="#9a32cd" stroke-dasharray="5,2" d="M607.46,-55.23C631.25,-60.35 656.01,-68.88 676,-83 708.39,-105.89 727.65,-151.58 734.8,-171.43"/>
<polygon fill="#9a32cd" stroke="#9a32cd" points="607.83,-51.74 597.34,-53.24 606.48,-58.61 607.83,-51.74"/>
<text text-anchor="middle" x="645.5" y="-86" font-family="Helvetica,sans-Serif" font-size="10.00"> regularization</text>
</g>
<!-- Node16 -->
<g id="node16" class="node">
<title>Node16</title>
<g id="a_node16"><a xlink:href="structReaktoro_1_1RegularizerOptions.html" target="_top" xlink:title="A type that describes the options for regularizing linear constraints.">
<polygon fill="white" stroke="black" points="268.5,-38.5 268.5,-57.5 368.5,-57.5 368.5,-38.5 268.5,-38.5"/>
<text text-anchor="middle" x="318.5" y="-45.5" font-family="Helvetica,sans-Serif" font-size="10.00">RegularizerOptions</text>
</a>
</g>
</g>
<!-- Node16&#45;&gt;Node15 -->
<g id="edge17" class="edge">
<title>Node16&#45;&gt;Node15</title>
<path fill="none" stroke="midnightblue" d="M378.79,-48C399.5,-48 423.04,-48 444.88,-48"/>
<polygon fill="midnightblue" stroke="midnightblue" points="378.55,-44.5 368.55,-48 378.55,-51.5 378.55,-44.5"/>
</g>
<!-- Node17 -->
<g id="node17" class="node">
<title>Node17</title>
<g id="a_node17"><a xlink:href="structReaktoro_1_1KktOptions.html" target="_top" xlink:title="A type to describe the options for the KKT calculation.">
<polygon fill="white" stroke="black" points="488.5,-0.5 488.5,-19.5 553.5,-19.5 553.5,-0.5 488.5,-0.5"/>
<text text-anchor="middle" x="521" y="-7.5" font-family="Helvetica,sans-Serif" font-size="10.00">KktOptions</text>
</a>
</g>
</g>
<!-- Node17&#45;&gt;Node1 -->
<g id="edge18" class="edge">
<title>Node17&#45;&gt;Node1</title>
<path fill="none" stroke="#9a32cd" stroke-dasharray="5,2" d="M563.56,-8.72C597.29,-9.82 644.3,-16.46 676,-42 718.6,-76.31 732.84,-146.02 736.74,-171.44"/>
<polygon fill="#9a32cd" stroke="#9a32cd" points="563.61,-5.22 553.55,-8.54 563.49,-12.22 563.61,-5.22"/>
<text text-anchor="middle" x="645.5" y="-45" font-family="Helvetica,sans-Serif" font-size="10.00"> kkt</text>
</g>
</g>
</svg>
        <g id="navigator" transform="translate(0 0)" fill="#404254">
                <rect fill="#f2f5e9" fill-opacity="0.5" stroke="#606060" stroke-width=".5" x="0" y="0" width="60" height="60"/>
                <use id="zoomplus" xlink:href="#zoomPlus" x="17" y="9" onmousedown="handleZoom(evt,'in')"/>
                <use id="zoomminus" xlink:href="#zoomMin" x="42" y="9" onmousedown="handleZoom(evt,'out')"/>
                <use id="reset" xlink:href="#resetDef" x="30" y="36" onmousedown="handleReset()"/>
                <g id="arrowUp" xlink:href="#dirArrow" transform="translate(30 24)" onmousedown="handlePan(0,-1)">
                  <use xlink:href="#rim" fill="#404040">
                        <set attributeName="fill" to="#808080" begin="arrowUp.mouseover" end="arrowUp.mouseout"/>
                  </use>
                  <path fill="none" stroke="white" stroke-width="1.5" d="M0,-3.0v7 M-2.5,-0.5L0,-3.0L2.5,-0.5"/>
                </g>
                <g id="arrowRight" xlink:href="#dirArrow" transform="rotate(90) translate(36 -43)" onmousedown="handlePan(1,0)">
                  <use xlink:href="#rim" fill="#404040">
                        <set attributeName="fill" to="#808080" begin="arrowRight.mouseover" end="arrowRight.mouseout"/>
                  </use>
                  <path fill="none" stroke="white" stroke-width="1.5" d="M0,-3.0v7 M-2.5,-0.5L0,-3.0L2.5,-0.5"/>
                </g>
                <g id="arrowDown" xlink:href="#dirArrow" transform="rotate(180) translate(-30 -48)" onmousedown="handlePan(0,1)">
                  <use xlink:href="#rim" fill="#404040">
                        <set attributeName="fill" to="#808080" begin="arrowDown.mouseover" end="arrowDown.mouseout"/>
                  </use>
                  <path fill="none" stroke="white" stroke-width="1.5" d="M0,-3.0v7 M-2.5,-0.5L0,-3.0L2.5,-0.5"/>
                </g>
                <g id="arrowLeft" xlink:href="#dirArrow" transform="rotate(270) translate(-36 17)" onmousedown="handlePan(-1,0)">
                  <use xlink:href="#rim" fill="#404040">
                        <set attributeName="fill" to="#808080" begin="arrowLeft.mouseover" end="arrowLeft.mouseout"/>
                  </use>
                  <path fill="none" stroke="white" stroke-width="1.5" d="M0,-3.0v7 M-2.5,-0.5L0,-3.0L2.5,-0.5"/>
                </g>
        </g>
        <svg viewBox="0 0 15 15" width="100%" height="30px" preserveAspectRatio="xMaxYMin meet">
         <g id="arrow_out" transform="scale(0.3 0.3)">
          <a xlink:href="structReaktoro_1_1OptimumOptions__coll__graph_org.svg" target="_base">
           <rect id="button" ry="5" rx="5" y="6" x="6" height="38" width="38"
                fill="#f2f5e9" fill-opacity="0.5" stroke="#606060" stroke-width="1.0"/>
           <path id="arrow"
             d="M 11.500037,31.436501 C 11.940474,20.09759 22.043105,11.32322 32.158766,21.979434 L 37.068811,17.246167 C 37.068811,17.246167 37.088388,32 37.088388,32 L 22.160133,31.978069 C 22.160133,31.978069 26.997745,27.140456 26.997745,27.140456 C 18.528582,18.264221 13.291696,25.230495 11.500037,31.436501 z"
             style="fill:#404040;"/>
          </a>
         </g>
        </svg>
</svg>
