<?xml version="1.0" encoding="UTF-8" standalone="no"?>
<!DOCTYPE svg PUBLIC "-//W3C//DTD SVG 1.1//EN"
 "http://www.w3.org/Graphics/SVG/1.1/DTD/svg11.dtd">
<!-- Generated by graphviz version 2.50.0 (20211209.0339)
 -->
<!-- Title: OptimumOutputOptions Pages: 1 -->
<svg width="298pt" height="254pt"
 viewBox="0.00 0.00 298.11 254.00" xmlns="http://www.w3.org/2000/svg" xmlns:xlink="http://www.w3.org/1999/xlink">
<g id="graph0" class="graph" transform="scale(1 1) rotate(0) translate(4 250)">
<title>OptimumOutputOptions</title>
<polygon fill="white" stroke="transparent" points="-4,4 -4,-250 294.11,-250 294.11,4 -4,4"/>
<!-- Node1 -->
<g id="node1" class="node">
<title>Node1</title>
<g id="a_node1"><a xlink:title="A type that describes the options for the output of a optimisation calculation.">
<polygon fill="#bfbfbf" stroke="black" points="36.11,-0.5 36.11,-19.5 169.11,-19.5 169.11,-0.5 36.11,-0.5"/>
<text text-anchor="middle" x="102.61" y="-7.5" font-family="Helvetica,sans-Serif" font-size="10.00">OptimumOutputOptions</text>
</a>
</g>
</g>
<!-- Node2 -->
<g id="node2" class="node">
<title>Node2</title>
<g id="a_node2"><a xlink:href="structReaktoro_1_1OutputterOptions.html" target="_top" xlink:title=" ">
<polygon fill="white" stroke="black" points="52.11,-96 52.11,-115 153.11,-115 153.11,-96 52.11,-96"/>
<text text-anchor="middle" x="102.61" y="-103" font-family="Helvetica,sans-Serif" font-size="10.00">OutputterOptions</text>
</a>
</g>
</g>
<!-- Node2&#45;&gt;Node1 -->
<g id="edge1" class="edge">
<title>Node2&#45;&gt;Node1</title>
<path fill="none" stroke="midnightblue" d="M102.61,-85.74C102.61,-65.62 102.61,-34.55 102.61,-19.61"/>
<polygon fill="midnightblue" stroke="midnightblue" points="99.11,-85.87 102.61,-95.87 106.11,-85.87 99.11,-85.87"/>
</g>
<!-- Node3 -->
<g id="node3" class="node">
<title>Node3</title>
<g id="a_node3"><a xlink:title="STL class.">
<polygon fill="white" stroke="#bfbfbf" points="80.61,-169.5 80.61,-188.5 124.61,-188.5 124.61,-169.5 80.61,-169.5"/>
<text text-anchor="middle" x="102.61" y="-176.5" font-family="Helvetica,sans-Serif" font-size="10.00">string</text>
</a>
</g>
</g>
<!-- Node3&#45;&gt;Node1 -->
<g id="edge4" class="edge">
<title>Node3&#45;&gt;Node1</title>
<path fill="none" stroke="#9a32cd" stroke-dasharray="5,2" d="M70.66,-168.95C48.1,-160.7 19.5,-146.06 5.61,-122 -19.34,-78.78 50,-37 84.47,-19.54"/>
<polygon fill="#9a32cd" stroke="#9a32cd" points="69.62,-172.29 80.21,-172.2 71.87,-165.67 69.62,-172.29"/>
<text text-anchor="middle" x="24.11" y="-114" font-family="Helvetica,sans-Serif" font-size="10.00"> xprefix</text>
<text text-anchor="middle" x="24.11" y="-103" font-family="Helvetica,sans-Serif" font-size="10.00">yprefix</text>
<text text-anchor="middle" x="24.11" y="-92" font-family="Helvetica,sans-Serif" font-size="10.00">zprefix</text>
</g>
<!-- Node3&#45;&gt;Node2 -->
<g id="edge2" class="edge">
<title>Node3&#45;&gt;Node2</title>
<path fill="none" stroke="#9a32cd" stroke-dasharray="5,2" d="M102.61,-159.09C102.61,-144.93 102.61,-126.2 102.61,-115.34"/>
<polygon fill="#9a32cd" stroke="#9a32cd" points="99.11,-159.23 102.61,-169.23 106.11,-159.23 99.11,-159.23"/>
<text text-anchor="middle" x="127.61" y="-143" font-family="Helvetica,sans-Serif" font-size="10.00"> separator</text>
</g>
<!-- Node5 -->
<g id="node5" class="node">
<title>Node5</title>
<g id="a_node5"><a xlink:title=" ">
<polygon fill="white" stroke="#bfbfbf" points="171.11,-96 171.11,-115 290.11,-115 290.11,-96 171.11,-96"/>
<text text-anchor="middle" x="230.61" y="-103" font-family="Helvetica,sans-Serif" font-size="10.00">vector&lt; std::string &gt;</text>
</a>
</g>
</g>
<!-- Node3&#45;&gt;Node5 -->
<g id="edge6" class="edge">
<title>Node3&#45;&gt;Node5</title>
<path fill="none" stroke="#9a32cd" stroke-dasharray="5,2" d="M130.02,-164.81C138.61,-160.54 148.07,-155.7 156.61,-151 178.16,-139.16 202.47,-124.23 217.16,-115.02"/>
<polygon fill="#9a32cd" stroke="#9a32cd" points="128.23,-161.79 120.8,-169.35 131.31,-168.08 128.23,-161.79"/>
<text text-anchor="middle" x="199.11" y="-143" font-family="Helvetica,sans-Serif" font-size="10.00"> elements</text>
</g>
<!-- Node4 -->
<g id="node4" class="node">
<title>Node4</title>
<g id="a_node4"><a xlink:title="STL class.">
<polygon fill="white" stroke="#bfbfbf" points="43.11,-226.5 43.11,-245.5 162.11,-245.5 162.11,-226.5 43.11,-226.5"/>
<text text-anchor="middle" x="102.61" y="-233.5" font-family="Helvetica,sans-Serif" font-size="10.00">basic_string&lt; char &gt;</text>
</a>
</g>
</g>
<!-- Node4&#45;&gt;Node3 -->
<g id="edge3" class="edge">
<title>Node4&#45;&gt;Node3</title>
<path fill="none" stroke="midnightblue" d="M102.61,-216.12C102.61,-206.82 102.61,-196.06 102.61,-188.71"/>
<polygon fill="midnightblue" stroke="midnightblue" points="99.11,-216.41 102.61,-226.41 106.11,-216.41 99.11,-216.41"/>
</g>
<!-- Node5&#45;&gt;Node1 -->
<g id="edge5" class="edge">
<title>Node5&#45;&gt;Node1</title>
<path fill="none" stroke="#9a32cd" stroke-dasharray="5,2" d="M210.47,-89.79C183.43,-70.04 136.28,-35.59 114.4,-19.61"/>
<polygon fill="#9a32cd" stroke="#9a32cd" points="208.66,-92.8 218.8,-95.87 212.79,-87.15 208.66,-92.8"/>
<text text-anchor="middle" x="203.11" y="-63" font-family="Helvetica,sans-Serif" font-size="10.00"> xnames</text>
<text text-anchor="middle" x="203.11" y="-52" font-family="Helvetica,sans-Serif" font-size="10.00">ynames</text>
<text text-anchor="middle" x="203.11" y="-41" font-family="Helvetica,sans-Serif" font-size="10.00">znames</text>
</g>
</g>
</svg>
