<?xml version="1.0" encoding="UTF-8" standalone="no"?>
<!DOCTYPE svg PUBLIC "-//W3C//DTD SVG 1.1//EN"
 "http://www.w3.org/Graphics/SVG/1.1/DTD/svg11.dtd">
<!-- Generated by graphviz version 2.50.0 (20211209.0339)
 -->
<!-- Title: SpeciesThermoData Pages: 1 -->
<svg width="493pt" height="84pt"
 viewBox="0.00 0.00 492.50 84.00" xmlns="http://www.w3.org/2000/svg" xmlns:xlink="http://www.w3.org/1999/xlink">
<g id="graph0" class="graph" transform="scale(1 1) rotate(0) translate(4 80)">
<title>SpeciesThermoData</title>
<polygon fill="white" stroke="transparent" points="-4,4 -4,-80 488.5,-80 488.5,4 -4,4"/>
<!-- Node1 -->
<g id="node1" class="node">
<title>Node1</title>
<g id="a_node1"><a xlink:title="A type for storing the thermodynamic data of general species.">
<polygon fill="#bfbfbf" stroke="black" points="187,-56.5 187,-75.5 302,-75.5 302,-56.5 187,-56.5"/>
<text text-anchor="middle" x="244.5" y="-63.5" font-family="Helvetica,sans-Serif" font-size="10.00">SpeciesThermoData</text>
</a>
</g>
</g>
<!-- Node2 -->
<g id="node2" class="node">
<title>Node2</title>
<g id="a_node2"><a xlink:href="structReaktoro_1_1AqueousSpeciesThermoData.html" target="_top" xlink:title="A type for storing the thermodynamic data of an aqueous species.">
<polygon fill="white" stroke="black" points="0,-0.5 0,-19.5 157,-19.5 157,-0.5 0,-0.5"/>
<text text-anchor="middle" x="78.5" y="-7.5" font-family="Helvetica,sans-Serif" font-size="10.00">AqueousSpeciesThermoData</text>
</a>
</g>
</g>
<!-- Node1&#45;&gt;Node2 -->
<g id="edge1" class="edge">
<title>Node1&#45;&gt;Node2</title>
<path fill="none" stroke="midnightblue" d="M208.55,-53.3C177.27,-43.13 132.68,-28.62 104.68,-19.52"/>
<polygon fill="midnightblue" stroke="midnightblue" points="207.6,-56.68 218.2,-56.44 209.77,-50.02 207.6,-56.68"/>
</g>
<!-- Node3 -->
<g id="node3" class="node">
<title>Node3</title>
<g id="a_node3"><a xlink:href="structReaktoro_1_1FluidSpeciesThermoData.html" target="_top" xlink:title="A type for storing the thermodynamic data of fluid (gaseous or liquid) species.">
<polygon fill="white" stroke="black" points="175,-0.5 175,-19.5 314,-19.5 314,-0.5 175,-0.5"/>
<text text-anchor="middle" x="244.5" y="-7.5" font-family="Helvetica,sans-Serif" font-size="10.00">FluidSpeciesThermoData</text>
</a>
</g>
</g>
<!-- Node1&#45;&gt;Node3 -->
<g id="edge2" class="edge">
<title>Node1&#45;&gt;Node3</title>
<path fill="none" stroke="midnightblue" d="M244.5,-45.8C244.5,-36.91 244.5,-26.78 244.5,-19.75"/>
<polygon fill="midnightblue" stroke="midnightblue" points="241,-46.08 244.5,-56.08 248,-46.08 241,-46.08"/>
</g>
<!-- Node4 -->
<g id="node4" class="node">
<title>Node4</title>
<g id="a_node4"><a xlink:href="structReaktoro_1_1MineralSpeciesThermoData.html" target="_top" xlink:title="A type for storing the thermodynamic data of a mineral species.">
<polygon fill="white" stroke="black" points="332.5,-0.5 332.5,-19.5 484.5,-19.5 484.5,-0.5 332.5,-0.5"/>
<text text-anchor="middle" x="408.5" y="-7.5" font-family="Helvetica,sans-Serif" font-size="10.00">MineralSpeciesThermoData</text>
</a>
</g>
</g>
<!-- Node1&#45;&gt;Node4 -->
<g id="edge3" class="edge">
<title>Node1&#45;&gt;Node4</title>
<path fill="none" stroke="midnightblue" d="M280.02,-53.3C310.92,-43.13 354.97,-28.62 382.64,-19.52"/>
<polygon fill="midnightblue" stroke="midnightblue" points="278.89,-49.99 270.49,-56.44 281.08,-56.64 278.89,-49.99"/>
</g>
</g>
</svg>
