<?xml version="1.0" encoding="UTF-8" standalone="no"?>
<!DOCTYPE svg PUBLIC "-//W3C//DTD SVG 1.1//EN"
 "http://www.w3.org/Graphics/SVG/1.1/DTD/svg11.dtd">
<!-- Generated by graphviz version 2.50.0 (20211209.0339)
 -->
<!-- Title: FluidMixtureState Pages: 1 -->
<svg width="317pt" height="231pt"
 viewBox="0.00 0.00 316.50 231.00" xmlns="http://www.w3.org/2000/svg" xmlns:xlink="http://www.w3.org/1999/xlink">
<g id="graph0" class="graph" transform="scale(1 1) rotate(0) translate(4 227)">
<title>FluidMixtureState</title>
<polygon fill="white" stroke="transparent" points="-4,4 -4,-227 312.5,-227 312.5,4 -4,4"/>
<!-- Node1 -->
<g id="node1" class="node">
<title>Node1</title>
<g id="a_node1"><a xlink:title="A type used to describe the state of a fluid (gaseous or liquid) mixture.">
<polygon fill="#bfbfbf" stroke="black" points="74,-0.5 74,-19.5 178,-19.5 178,-0.5 74,-0.5"/>
<text text-anchor="middle" x="126" y="-7.5" font-family="Helvetica,sans-Serif" font-size="10.00">FluidMixtureState</text>
</a>
</g>
</g>
<!-- Node2 -->
<g id="node2" class="node">
<title>Node2</title>
<g id="a_node2"><a xlink:href="structReaktoro_1_1MixtureState.html" target="_top" xlink:title="A type used to describe the state of a mixture.">
<polygon fill="white" stroke="black" points="86,-57.5 86,-76.5 166,-76.5 166,-57.5 86,-57.5"/>
<text text-anchor="middle" x="126" y="-64.5" font-family="Helvetica,sans-Serif" font-size="10.00">MixtureState</text>
</a>
</g>
</g>
<!-- Node2&#45;&gt;Node1 -->
<g id="edge1" class="edge">
<title>Node2&#45;&gt;Node1</title>
<path fill="none" stroke="midnightblue" d="M126,-47.12C126,-37.82 126,-27.06 126,-19.71"/>
<polygon fill="midnightblue" stroke="midnightblue" points="122.5,-47.41 126,-57.41 129.5,-47.41 122.5,-47.41"/>
</g>
<!-- Node3 -->
<g id="node3" class="node">
<title>Node3</title>
<g id="a_node3"><a xlink:href="classReaktoro_1_1Temperature.html" target="_top" xlink:title="A type that describes temperature in units of K.">
<polygon fill="white" stroke="black" points="0,-135.5 0,-154.5 78,-154.5 78,-135.5 0,-135.5"/>
<text text-anchor="middle" x="39" y="-142.5" font-family="Helvetica,sans-Serif" font-size="10.00">Temperature</text>
</a>
</g>
</g>
<!-- Node3&#45;&gt;Node2 -->
<g id="edge2" class="edge">
<title>Node3&#45;&gt;Node2</title>
<path fill="none" stroke="#9a32cd" stroke-dasharray="5,2" d="M56.97,-128.3C74.9,-112.64 101.78,-89.16 116.14,-76.62"/>
<polygon fill="#9a32cd" stroke="#9a32cd" points="54.21,-126.07 48.98,-135.28 58.81,-131.34 54.21,-126.07"/>
<text text-anchor="middle" x="98" y="-98" font-family="Helvetica,sans-Serif" font-size="10.00"> T</text>
</g>
<!-- Node4 -->
<g id="node4" class="node">
<title>Node4</title>
<g id="a_node4"><a xlink:href="classReaktoro_1_1ThermoScalarBase.html" target="_top" xlink:title=" ">
<polygon fill="white" stroke="black" points="40,-203.5 40,-222.5 124,-222.5 124,-203.5 40,-203.5"/>
<text text-anchor="middle" x="82" y="-210.5" font-family="Helvetica,sans-Serif" font-size="10.00">ThermoScalar</text>
</a>
</g>
</g>
<!-- Node4&#45;&gt;Node3 -->
<g id="edge3" class="edge">
<title>Node4&#45;&gt;Node3</title>
<path fill="none" stroke="midnightblue" d="M70.88,-194.94C62.53,-182.11 51.42,-165.06 44.76,-154.84"/>
<polygon fill="midnightblue" stroke="midnightblue" points="67.99,-196.9 76.38,-203.37 73.85,-193.08 67.99,-196.9"/>
</g>
<!-- Node5 -->
<g id="node5" class="node">
<title>Node5</title>
<g id="a_node5"><a xlink:href="classReaktoro_1_1Pressure.html" target="_top" xlink:title="A type that describes pressure in units of Pa.">
<polygon fill="white" stroke="black" points="96.5,-135.5 96.5,-154.5 155.5,-154.5 155.5,-135.5 96.5,-135.5"/>
<text text-anchor="middle" x="126" y="-142.5" font-family="Helvetica,sans-Serif" font-size="10.00">Pressure</text>
</a>
</g>
</g>
<!-- Node4&#45;&gt;Node5 -->
<g id="edge5" class="edge">
<title>Node4&#45;&gt;Node5</title>
<path fill="none" stroke="midnightblue" d="M93.37,-194.94C101.93,-182.11 113.29,-165.06 120.11,-154.84"/>
<polygon fill="midnightblue" stroke="midnightblue" points="90.39,-193.11 87.75,-203.37 96.21,-196.99 90.39,-193.11"/>
</g>
<!-- Node5&#45;&gt;Node2 -->
<g id="edge4" class="edge">
<title>Node5&#45;&gt;Node2</title>
<path fill="none" stroke="#9a32cd" stroke-dasharray="5,2" d="M126,-125.22C126,-109.7 126,-88.36 126,-76.62"/>
<polygon fill="#9a32cd" stroke="#9a32cd" points="122.5,-125.28 126,-135.28 129.5,-125.28 122.5,-125.28"/>
<text text-anchor="middle" x="131" y="-98" font-family="Helvetica,sans-Serif" font-size="10.00"> P</text>
</g>
<!-- Node6 -->
<g id="node6" class="node">
<title>Node6</title>
<g id="a_node6"><a xlink:href="classReaktoro_1_1ChemicalVectorBase.html" target="_top" xlink:title=" ">
<polygon fill="white" stroke="black" points="173.5,-124.5 173.5,-165.5 308.5,-165.5 308.5,-124.5 173.5,-124.5"/>
<text text-anchor="start" x="181.5" y="-153.5" font-family="Helvetica,sans-Serif" font-size="10.00">ChemicalVectorBase</text>
<text text-anchor="start" x="181.5" y="-142.5" font-family="Helvetica,sans-Serif" font-size="10.00">&lt; Vector, Vector, Vector,</text>
<text text-anchor="middle" x="241" y="-131.5" font-family="Helvetica,sans-Serif" font-size="10.00"> Matrix &gt;</text>
</a>
</g>
</g>
<!-- Node6&#45;&gt;Node2 -->
<g id="edge6" class="edge">
<title>Node6&#45;&gt;Node2</title>
<path fill="none" stroke="#9a32cd" stroke-dasharray="5,2" d="M202.85,-118.79C180.75,-104.18 154.34,-86.73 138.94,-76.55"/>
<polygon fill="#9a32cd" stroke="#9a32cd" points="201.11,-121.83 211.38,-124.43 204.97,-115.99 201.11,-121.83"/>
<text text-anchor="middle" x="188" y="-98" font-family="Helvetica,sans-Serif" font-size="10.00"> x</text>
</g>
</g>
</svg>
