<?xml version="1.0" encoding="UTF-8" standalone="no"?>
<!DOCTYPE svg PUBLIC "-//W3C//DTD SVG 1.1//EN"
 "http://www.w3.org/Graphics/SVG/1.1/DTD/svg11.dtd">
<!-- Generated by graphviz version 2.50.0 (20211209.0339)
 -->
<!-- Title: NonlinearOutput Pages: 1 -->
<svg width="295pt" height="232pt"
 viewBox="0.00 0.00 295.06 232.00" xmlns="http://www.w3.org/2000/svg" xmlns:xlink="http://www.w3.org/1999/xlink">
<g id="graph0" class="graph" transform="scale(1 1) rotate(0) translate(4 228)">
<title>NonlinearOutput</title>
<polygon fill="white" stroke="transparent" points="-4,4 -4,-228 291.06,-228 291.06,4 -4,4"/>
<!-- Node1 -->
<g id="node1" class="node">
<title>Node1</title>
<g id="a_node1"><a xlink:title="A type that describes the options for the output of a non&#45;linear problem calculation.">
<polygon fill="#bfbfbf" stroke="black" points="51.06,-0.5 51.06,-19.5 148.06,-19.5 148.06,-0.5 51.06,-0.5"/>
<text text-anchor="middle" x="99.56" y="-7.5" font-family="Helvetica,sans-Serif" font-size="10.00">NonlinearOutput</text>
</a>
</g>
</g>
<!-- Node2 -->
<g id="node2" class="node">
<title>Node2</title>
<g id="a_node2"><a xlink:href="structReaktoro_1_1OutputterOptions.html" target="_top" xlink:title=" ">
<polygon fill="white" stroke="black" points="49.06,-79.5 49.06,-98.5 150.06,-98.5 150.06,-79.5 49.06,-79.5"/>
<text text-anchor="middle" x="99.56" y="-86.5" font-family="Helvetica,sans-Serif" font-size="10.00">OutputterOptions</text>
</a>
</g>
</g>
<!-- Node2&#45;&gt;Node1 -->
<g id="edge1" class="edge">
<title>Node2&#45;&gt;Node1</title>
<path fill="none" stroke="midnightblue" d="M99.56,-69.31C99.56,-53.59 99.56,-31.81 99.56,-19.81"/>
<polygon fill="midnightblue" stroke="midnightblue" points="96.06,-69.47 99.56,-79.47 103.06,-69.47 96.06,-69.47"/>
</g>
<!-- Node3 -->
<g id="node3" class="node">
<title>Node3</title>
<g id="a_node3"><a xlink:title="STL class.">
<polygon fill="white" stroke="#bfbfbf" points="77.56,-147.5 77.56,-166.5 121.56,-166.5 121.56,-147.5 77.56,-147.5"/>
<text text-anchor="middle" x="99.56" y="-154.5" font-family="Helvetica,sans-Serif" font-size="10.00">string</text>
</a>
</g>
</g>
<!-- Node3&#45;&gt;Node1 -->
<g id="edge4" class="edge">
<title>Node3&#45;&gt;Node1</title>
<path fill="none" stroke="#9a32cd" stroke-dasharray="5,2" d="M67.55,-146.5C45.55,-138.12 17.99,-123.5 4.56,-100 -16.06,-63.89 42.04,-33.71 76.35,-19.59"/>
<polygon fill="#9a32cd" stroke="#9a32cd" points="66.6,-149.88 77.19,-149.93 68.94,-143.28 66.6,-149.88"/>
<text text-anchor="middle" x="22.06" y="-92" font-family="Helvetica,sans-Serif" font-size="10.00"> fprefix</text>
<text text-anchor="middle" x="22.06" y="-81" font-family="Helvetica,sans-Serif" font-size="10.00">xprefix</text>
</g>
<!-- Node3&#45;&gt;Node2 -->
<g id="edge2" class="edge">
<title>Node3&#45;&gt;Node2</title>
<path fill="none" stroke="#9a32cd" stroke-dasharray="5,2" d="M99.56,-137.04C99.56,-124.47 99.56,-108.56 99.56,-98.84"/>
<polygon fill="#9a32cd" stroke="#9a32cd" points="96.06,-137.37 99.56,-147.37 103.06,-137.37 96.06,-137.37"/>
<text text-anchor="middle" x="124.56" y="-121" font-family="Helvetica,sans-Serif" font-size="10.00"> separator</text>
</g>
<!-- Node5 -->
<g id="node5" class="node">
<title>Node5</title>
<g id="a_node5"><a xlink:title=" ">
<polygon fill="white" stroke="#bfbfbf" points="168.06,-79.5 168.06,-98.5 287.06,-98.5 287.06,-79.5 168.06,-79.5"/>
<text text-anchor="middle" x="227.56" y="-86.5" font-family="Helvetica,sans-Serif" font-size="10.00">vector&lt; std::string &gt;</text>
</a>
</g>
</g>
<!-- Node3&#45;&gt;Node5 -->
<g id="edge6" class="edge">
<title>Node3&#45;&gt;Node5</title>
<path fill="none" stroke="#9a32cd" stroke-dasharray="5,2" d="M126.13,-142.86C134.89,-138.49 144.66,-133.57 153.56,-129 173.59,-118.72 196.49,-106.59 211.45,-98.62"/>
<polygon fill="#9a32cd" stroke="#9a32cd" points="124.52,-139.75 117.12,-147.34 127.63,-146.02 124.52,-139.75"/>
<text text-anchor="middle" x="198.06" y="-121" font-family="Helvetica,sans-Serif" font-size="10.00"> elements</text>
</g>
<!-- Node4 -->
<g id="node4" class="node">
<title>Node4</title>
<g id="a_node4"><a xlink:title="STL class.">
<polygon fill="white" stroke="#bfbfbf" points="40.06,-204.5 40.06,-223.5 159.06,-223.5 159.06,-204.5 40.06,-204.5"/>
<text text-anchor="middle" x="99.56" y="-211.5" font-family="Helvetica,sans-Serif" font-size="10.00">basic_string&lt; char &gt;</text>
</a>
</g>
</g>
<!-- Node4&#45;&gt;Node3 -->
<g id="edge3" class="edge">
<title>Node4&#45;&gt;Node3</title>
<path fill="none" stroke="midnightblue" d="M99.56,-194.12C99.56,-184.82 99.56,-174.06 99.56,-166.71"/>
<polygon fill="midnightblue" stroke="midnightblue" points="96.06,-194.41 99.56,-204.41 103.06,-194.41 96.06,-194.41"/>
</g>
<!-- Node5&#45;&gt;Node1 -->
<g id="edge5" class="edge">
<title>Node5&#45;&gt;Node1</title>
<path fill="none" stroke="#9a32cd" stroke-dasharray="5,2" d="M204.79,-74.3C178.45,-58.45 135.86,-32.84 113.81,-19.57"/>
<polygon fill="#9a32cd" stroke="#9a32cd" points="203,-77.31 213.38,-79.47 206.61,-71.31 203,-77.31"/>
<text text-anchor="middle" x="198.56" y="-52" font-family="Helvetica,sans-Serif" font-size="10.00"> fnames</text>
<text text-anchor="middle" x="198.56" y="-41" font-family="Helvetica,sans-Serif" font-size="10.00">xnames</text>
</g>
</g>
</svg>
