<?xml version="1.0" encoding="UTF-8" standalone="no"?>
<!DOCTYPE svg PUBLIC "-//W3C//DTD SVG 1.1//EN"
 "http://www.w3.org/Graphics/SVG/1.1/DTD/svg11.dtd">
<!-- Generated by graphviz version 3.0.0 (20220226.1711)
 -->
<!-- Title: AqueousMixtureState Pages: 1 -->
<svg width="618pt" height="228pt"
 viewBox="0.00 0.00 618.00 227.50" xmlns="http://www.w3.org/2000/svg" xmlns:xlink="http://www.w3.org/1999/xlink">
<g id="graph0" class="graph" transform="scale(1 1) rotate(0) translate(4 223.5)">
<title>AqueousMixtureState</title>
<polygon fill="white" stroke="transparent" points="-4,4 -4,-223.5 614,-223.5 614,4 -4,4"/>
<!-- Node1 -->
<g id="node1" class="node">
<title>Node1</title>
<g id="a_node1"><a xlink:title="A type used to describe the state of an aqueous mixture.">
<polygon fill="#bfbfbf" stroke="black" points="500,-73 500,-92 610,-92 610,-73 500,-73"/>
<text text-anchor="middle" x="555" y="-80" font-family="Helvetica,sans-Serif" font-size="10.00">AqueousMixtureState</text>
</a>
</g>
</g>
<!-- Node2 -->
<g id="node2" class="node">
<title>Node2</title>
<g id="a_node2"><a xlink:href="structReaktoro_1_1MixtureState.html" target="_top" xlink:title="A type used to describe the state of a mixture.">
<polygon fill="white" stroke="black" points="321,-155 321,-174 393,-174 393,-155 321,-155"/>
<text text-anchor="middle" x="357" y="-162" font-family="Helvetica,sans-Serif" font-size="10.00">MixtureState</text>
</a>
</g>
</g>
<!-- Node2&#45;&gt;Node1 -->
<g id="edge1" class="edge">
<title>Node2&#45;&gt;Node1</title>
<path fill="none" stroke="midnightblue" d="M397.19,-151.7C421.84,-143.3 454.14,-131.65 482,-119.5 501.19,-111.13 522.43,-99.97 536.84,-92.1"/>
<polygon fill="midnightblue" stroke="midnightblue" points="395.83,-148.47 387.47,-154.98 398.07,-155.1 395.83,-148.47"/>
</g>
<!-- Node3 -->
<g id="node3" class="node">
<title>Node3</title>
<g id="a_node3"><a xlink:href="classReaktoro_1_1Temperature.html" target="_top" xlink:title="A type that describes temperature in units of K.">
<polygon fill="white" stroke="black" points="140.5,-200 140.5,-219 211.5,-219 211.5,-200 140.5,-200"/>
<text text-anchor="middle" x="176" y="-207" font-family="Helvetica,sans-Serif" font-size="10.00">Temperature</text>
</a>
</g>
</g>
<!-- Node3&#45;&gt;Node2 -->
<g id="edge2" class="edge">
<title>Node3&#45;&gt;Node2</title>
<path fill="none" stroke="#9a32cd" stroke-dasharray="5,2" d="M221.54,-198.3C252.26,-190.58 292.55,-180.45 320.98,-173.3"/>
<polygon fill="#9a32cd" stroke="#9a32cd" points="220.36,-194.99 211.51,-200.82 222.06,-201.78 220.36,-194.99"/>
<text text-anchor="middle" x="261" y="-190.5" font-family="Helvetica,sans-Serif" font-size="10.00"> T</text>
</g>
<!-- Node4 -->
<g id="node4" class="node">
<title>Node4</title>
<g id="a_node4"><a xlink:href="classReaktoro_1_1ThermoScalarBase.html" target="_top" xlink:title=" ">
<polygon fill="white" stroke="black" points="0,-180 0,-199 77,-199 77,-180 0,-180"/>
<text text-anchor="middle" x="38.5" y="-187" font-family="Helvetica,sans-Serif" font-size="10.00">ThermoScalar</text>
</a>
</g>
</g>
<!-- Node4&#45;&gt;Node3 -->
<g id="edge3" class="edge">
<title>Node4&#45;&gt;Node3</title>
<path fill="none" stroke="midnightblue" d="M87.26,-196.55C104.72,-199.13 124.13,-201.99 140.24,-204.37"/>
<polygon fill="midnightblue" stroke="midnightblue" points="87.65,-193.07 77.24,-195.07 86.63,-199.99 87.65,-193.07"/>
</g>
<!-- Node5 -->
<g id="node5" class="node">
<title>Node5</title>
<g id="a_node5"><a xlink:href="classReaktoro_1_1Pressure.html" target="_top" xlink:title="A type that describes pressure in units of Pa.">
<polygon fill="white" stroke="black" points="148,-162 148,-181 204,-181 204,-162 148,-162"/>
<text text-anchor="middle" x="176" y="-169" font-family="Helvetica,sans-Serif" font-size="10.00">Pressure</text>
</a>
</g>
</g>
<!-- Node4&#45;&gt;Node5 -->
<g id="edge5" class="edge">
<title>Node4&#45;&gt;Node5</title>
<path fill="none" stroke="midnightblue" d="M87.26,-183.16C107.54,-180.46 130.44,-177.42 147.77,-175.12"/>
<polygon fill="midnightblue" stroke="midnightblue" points="86.7,-179.7 77.24,-184.49 87.62,-186.64 86.7,-179.7"/>
</g>
<!-- Node5&#45;&gt;Node2 -->
<g id="edge4" class="edge">
<title>Node5&#45;&gt;Node2</title>
<path fill="none" stroke="#9a32cd" stroke-dasharray="5,2" d="M214.27,-170.04C245.62,-168.82 290.11,-167.08 320.85,-165.87"/>
<polygon fill="#9a32cd" stroke="#9a32cd" points="214.04,-166.55 204.19,-170.44 214.32,-173.54 214.04,-166.55"/>
<text text-anchor="middle" x="261" y="-170.5" font-family="Helvetica,sans-Serif" font-size="10.00"> P</text>
</g>
<!-- Node6 -->
<g id="node6" class="node">
<title>Node6</title>
<g id="a_node6"><a xlink:href="classReaktoro_1_1ChemicalVectorBase.html" target="_top" xlink:title=" ">
<polygon fill="white" stroke="black" points="114,-95 114,-136 238,-136 238,-95 114,-95"/>
<text text-anchor="start" x="122" y="-124" font-family="Helvetica,sans-Serif" font-size="10.00">ChemicalVectorBase</text>
<text text-anchor="start" x="122" y="-113" font-family="Helvetica,sans-Serif" font-size="10.00">&lt; Vector, Vector, Vector,</text>
<text text-anchor="middle" x="176" y="-102" font-family="Helvetica,sans-Serif" font-size="10.00"> Matrix &gt;</text>
</a>
</g>
</g>
<!-- Node6&#45;&gt;Node1 -->
<g id="edge9" class="edge">
<title>Node6&#45;&gt;Node1</title>
<path fill="none" stroke="#9a32cd" stroke-dasharray="5,2" d="M248.17,-110.83C310.04,-106.54 402.04,-99.64 482,-91.5 487.76,-90.91 493.78,-90.25 499.78,-89.55"/>
<polygon fill="#9a32cd" stroke="#9a32cd" points="247.86,-107.34 238.12,-111.52 248.34,-114.32 247.86,-107.34"/>
<text text-anchor="middle" x="357" y="-121.5" font-family="Helvetica,sans-Serif" font-size="10.00"> m</text>
<text text-anchor="middle" x="357" y="-110.5" font-family="Helvetica,sans-Serif" font-size="10.00">ms</text>
</g>
<!-- Node6&#45;&gt;Node2 -->
<g id="edge6" class="edge">
<title>Node6&#45;&gt;Node2</title>
<path fill="none" stroke="#9a32cd" stroke-dasharray="5,2" d="M248,-134.94C273.19,-141.83 300.43,-149.29 321.25,-154.99"/>
<polygon fill="#9a32cd" stroke="#9a32cd" points="248.67,-131.49 238.1,-132.23 246.82,-138.24 248.67,-131.49"/>
<text text-anchor="middle" x="261" y="-141.5" font-family="Helvetica,sans-Serif" font-size="10.00"> x</text>
</g>
<!-- Node7 -->
<g id="node7" class="node">
<title>Node7</title>
<g id="a_node7"><a xlink:href="classReaktoro_1_1ThermoScalarBase.html" target="_top" xlink:title=" ">
<polygon fill="white" stroke="black" points="284,-50 284,-69 430,-69 430,-50 284,-50"/>
<text text-anchor="middle" x="357" y="-57" font-family="Helvetica,sans-Serif" font-size="10.00">ThermoScalarBase&lt; double &gt;</text>
</a>
</g>
</g>
<!-- Node7&#45;&gt;Node1 -->
<g id="edge7" class="edge">
<title>Node7&#45;&gt;Node1</title>
<path fill="none" stroke="#9a32cd" stroke-dasharray="5,2" d="M440.32,-65C454.25,-66.26 468.56,-67.75 482,-69.5 489.43,-70.47 497.26,-71.68 504.91,-72.97"/>
<polygon fill="#9a32cd" stroke="#9a32cd" points="440.52,-61.5 430.25,-64.12 439.91,-68.48 440.52,-61.5"/>
<text text-anchor="middle" x="465" y="-83.5" font-family="Helvetica,sans-Serif" font-size="10.00"> epsilon</text>
<text text-anchor="middle" x="465" y="-72.5" font-family="Helvetica,sans-Serif" font-size="10.00">rho</text>
</g>
<!-- Node8 -->
<g id="node8" class="node">
<title>Node8</title>
<g id="a_node8"><a xlink:href="classReaktoro_1_1ChemicalScalarBase.html" target="_top" xlink:title=" ">
<polygon fill="white" stroke="black" points="298,-0.5 298,-30.5 416,-30.5 416,-0.5 298,-0.5"/>
<text text-anchor="start" x="306" y="-18.5" font-family="Helvetica,sans-Serif" font-size="10.00">ChemicalScalarBase</text>
<text text-anchor="middle" x="357" y="-7.5" font-family="Helvetica,sans-Serif" font-size="10.00">&lt; double, RowVector &gt;</text>
</a>
</g>
</g>
<!-- Node8&#45;&gt;Node1 -->
<g id="edge8" class="edge">
<title>Node8&#45;&gt;Node1</title>
<path fill="none" stroke="#9a32cd" stroke-dasharray="5,2" d="M426.35,-24.34C444.77,-27.9 464.46,-32.8 482,-39.5 504.17,-47.97 527.3,-63.08 541.18,-72.95"/>
<polygon fill="#9a32cd" stroke="#9a32cd" points="426.73,-20.85 416.26,-22.5 425.47,-27.74 426.73,-20.85"/>
<text text-anchor="middle" x="465" y="-53.5" font-family="Helvetica,sans-Serif" font-size="10.00"> Ie</text>
<text text-anchor="middle" x="465" y="-42.5" font-family="Helvetica,sans-Serif" font-size="10.00">Is</text>
</g>
</g>
</svg>
