<?xml version="1.0" encoding="UTF-8" standalone="no"?>
<!DOCTYPE svg PUBLIC "-//W3C//DTD SVG 1.1//EN"
 "http://www.w3.org/Graphics/SVG/1.1/DTD/svg11.dtd">
<!-- Generated by graphviz version 3.0.0 (20220226.1711)
 -->
<!-- Title: EquilibriumPathOptions Pages: 1 -->
<!--zoomable 459 -->
<svg id="main" version="1.1" xmlns="http://www.w3.org/2000/svg" xmlns:xlink="http://www.w3.org/1999/xlink" xml:space="preserve" onload="init(evt)">
<style type="text/css"><![CDATA[
.edge:hover path { stroke: red; }
.edge:hover polygon { stroke: red; fill: red; }
]]></style>
<script type="text/javascript"><![CDATA[
var edges = document.getElementsByTagName('g');
if (edges && edges.length) {
  for (var i=0;i<edges.length;i++) {
    if (edges[i].id.substr(0,4)=='edge') {
      edges[i].setAttribute('class','edge');
    }
  }
}
]]></script>
        <defs>
                <circle id="rim" cx="0" cy="0" r="7"/>
                <circle id="rim2" cx="0" cy="0" r="3.5"/>
                <g id="zoomPlus">
                        <use xlink:href="#rim" fill="#404040">
                                <set attributeName="fill" to="#808080" begin="zoomplus.mouseover" end="zoomplus.mouseout"/>
                        </use>
                        <path d="M-4,0h8M0,-4v8" fill="none" stroke="white" stroke-width="1.5" pointer-events="none"/>
                </g>
                <g id="zoomMin">
                        <use xlink:href="#rim" fill="#404040">
                                <set attributeName="fill" to="#808080" begin="zoomminus.mouseover" end="zoomminus.mouseout"/>
                        </use>
                        <path d="M-4,0h8" fill="none" stroke="white" stroke-width="1.5" pointer-events="none"/>
                </g>
                <g id="dirArrow">
                        <path fill="none" stroke="white" stroke-width="1.5" d="M0,-3.0v7 M-2.5,-0.5L0,-3.0L2.5,-0.5"/>
                </g>
               <g id="resetDef">
                       <use xlink:href="#rim2" fill="#404040">
                               <set attributeName="fill" to="#808080" begin="reset.mouseover" end="reset.mouseout"/>
                       </use>
               </g>
        </defs>

<script type="text/javascript">
var viewWidth = 1209;
var viewHeight = 459;
var sectionId = 'dynsection-0';
</script>
<script xlink:href="svgpan.js"/>
<svg id="graph" class="graph">
<g id="viewport">
<title>EquilibriumPathOptions</title>
<polygon fill="white" stroke="transparent" points="-4,4 -4,-455 1205,-455 1205,4 -4,4"/>
<!-- Node1 -->
<g id="node1" class="node">
<title>Node1</title>
<g id="a_node1"><a xlink:title="A struct that describes the options from an equilibrium path calculation.">
<polygon fill="#bfbfbf" stroke="black" points="1082,-169.5 1082,-188.5 1201,-188.5 1201,-169.5 1082,-169.5"/>
<text text-anchor="middle" x="1141.5" y="-176.5" font-family="Helvetica,sans-Serif" font-size="10.00">EquilibriumPathOptions</text>
</a>
</g>
</g>
<!-- Node2 -->
<g id="node2" class="node">
<title>Node2</title>
<g id="a_node2"><a xlink:href="structReaktoro_1_1EquilibriumOptions.html" target="_top" xlink:title="The options for the equilibrium calculations.">
<polygon fill="white" stroke="black" points="898,-190.5 898,-209.5 996,-209.5 996,-190.5 898,-190.5"/>
<text text-anchor="middle" x="947" y="-197.5" font-family="Helvetica,sans-Serif" font-size="10.00">EquilibriumOptions</text>
</a>
</g>
</g>
<!-- Node2&#45;&gt;Node1 -->
<g id="edge1" class="edge">
<title>Node2&#45;&gt;Node1</title>
<path fill="none" stroke="#9a32cd" stroke-dasharray="5,2" d="M1006.08,-193.66C1030.01,-191.05 1057.7,-188.03 1081.7,-185.41"/>
<polygon fill="#9a32cd" stroke="#9a32cd" points="1005.64,-190.19 996.08,-194.75 1006.4,-197.15 1005.64,-190.19"/>
<text text-anchor="middle" x="1039" y="-195" font-family="Helvetica,sans-Serif" font-size="10.00"> equilibrium</text>
</g>
<!-- Node3 -->
<g id="node3" class="node">
<title>Node3</title>
<g id="a_node3"><a xlink:href="structReaktoro_1_1OptimumOptions.html" target="_top" xlink:title="A type that describes the options of a optimisation calculation.">
<polygon fill="white" stroke="black" points="711.5,-190.5 711.5,-209.5 801.5,-209.5 801.5,-190.5 711.5,-190.5"/>
<text text-anchor="middle" x="756.5" y="-197.5" font-family="Helvetica,sans-Serif" font-size="10.00">OptimumOptions</text>
</a>
</g>
</g>
<!-- Node3&#45;&gt;Node2 -->
<g id="edge2" class="edge">
<title>Node3&#45;&gt;Node2</title>
<path fill="none" stroke="#9a32cd" stroke-dasharray="5,2" d="M811.81,-200C838.96,-200 871.53,-200 897.78,-200"/>
<polygon fill="#9a32cd" stroke="#9a32cd" points="811.69,-196.5 801.69,-200 811.69,-203.5 811.69,-196.5"/>
<text text-anchor="middle" x="858.5" y="-203" font-family="Helvetica,sans-Serif" font-size="10.00"> optimum</text>
</g>
<!-- Node4 -->
<g id="node4" class="node">
<title>Node4</title>
<g id="a_node4"><a xlink:href="structReaktoro_1_1OptimumOutputOptions.html" target="_top" xlink:title="A type that describes the options for the output of a optimisation calculation.">
<polygon fill="white" stroke="black" points="461.5,-304.5 461.5,-323.5 580.5,-323.5 580.5,-304.5 461.5,-304.5"/>
<text text-anchor="middle" x="521" y="-311.5" font-family="Helvetica,sans-Serif" font-size="10.00">OptimumOutputOptions</text>
</a>
</g>
</g>
<!-- Node4&#45;&gt;Node3 -->
<g id="edge3" class="edge">
<title>Node4&#45;&gt;Node3</title>
<path fill="none" stroke="#9a32cd" stroke-dasharray="5,2" d="M590.53,-302.27C618.25,-295.67 649.81,-285.72 676,-271 705.68,-254.32 733.77,-224.94 747.22,-209.73"/>
<polygon fill="#9a32cd" stroke="#9a32cd" points="589.49,-298.91 580.51,-304.55 591.04,-305.74 589.49,-298.91"/>
<text text-anchor="middle" x="645.5" y="-298" font-family="Helvetica,sans-Serif" font-size="10.00"> output</text>
</g>
<!-- Node5 -->
<g id="node5" class="node">
<title>Node5</title>
<g id="a_node5"><a xlink:href="structReaktoro_1_1OutputterOptions.html" target="_top" xlink:title=" ">
<polygon fill="white" stroke="#bfbfbf" points="273,-328.5 273,-347.5 364,-347.5 364,-328.5 273,-328.5"/>
<text text-anchor="middle" x="318.5" y="-335.5" font-family="Helvetica,sans-Serif" font-size="10.00">OutputterOptions</text>
</a>
</g>
</g>
<!-- Node5&#45;&gt;Node4 -->
<g id="edge4" class="edge">
<title>Node5&#45;&gt;Node4</title>
<path fill="none" stroke="midnightblue" d="M356.49,-325.51C366.89,-322.5 378.28,-319.68 389,-318 412.49,-314.32 438.63,-312.98 461.35,-312.68"/>
<polygon fill="midnightblue" stroke="midnightblue" points="355.44,-322.17 346.88,-328.41 357.46,-328.87 355.44,-322.17"/>
</g>
<!-- Node21 -->
<g id="node21" class="node">
<title>Node21</title>
<g id="a_node21"><a xlink:href="structReaktoro_1_1NonlinearOutput.html" target="_top" xlink:title="A type that describes the options for the output of a non&#45;linear problem calculation.">
<polygon fill="white" stroke="black" points="477.5,-389.5 477.5,-408.5 564.5,-408.5 564.5,-389.5 477.5,-389.5"/>
<text text-anchor="middle" x="521" y="-396.5" font-family="Helvetica,sans-Serif" font-size="10.00">NonlinearOutput</text>
</a>
</g>
</g>
<!-- Node5&#45;&gt;Node21 -->
<g id="edge23" class="edge">
<title>Node5&#45;&gt;Node21</title>
<path fill="none" stroke="midnightblue" d="M374.47,-330.92C392.24,-331.07 411.37,-333.99 427,-343 439.82,-350.39 433.48,-361.72 445,-371 455.17,-379.2 467.99,-385.15 480.13,-389.4"/>
<polygon fill="midnightblue" stroke="midnightblue" points="374.13,-327.42 364.21,-331.13 374.27,-334.42 374.13,-327.42"/>
</g>
<!-- Node6 -->
<g id="node6" class="node">
<title>Node6</title>
<g id="a_node6"><a xlink:title=" ">
<polygon fill="white" stroke="black" points="145,-347.5 145,-366.5 186,-366.5 186,-347.5 145,-347.5"/>
<text text-anchor="middle" x="165.5" y="-354.5" font-family="Helvetica,sans-Serif" font-size="10.00">string</text>
</a>
</g>
</g>
<!-- Node6&#45;&gt;Node4 -->
<g id="edge7" class="edge">
<title>Node6&#45;&gt;Node4</title>
<path fill="none" stroke="#9a32cd" stroke-dasharray="5,2" d="M183.01,-340.16C201.38,-322.73 232.88,-296.61 266,-286 310.44,-271.77 324.53,-281.67 371,-286 408.48,-289.49 450.58,-297.82 480.44,-304.49"/>
<polygon fill="#9a32cd" stroke="#9a32cd" points="180.24,-337.98 175.53,-347.47 185.13,-342.98 180.24,-337.98"/>
<text text-anchor="middle" x="318.5" y="-311" font-family="Helvetica,sans-Serif" font-size="10.00"> xprefix</text>
<text text-anchor="middle" x="318.5" y="-300" font-family="Helvetica,sans-Serif" font-size="10.00">yprefix</text>
<text text-anchor="middle" x="318.5" y="-289" font-family="Helvetica,sans-Serif" font-size="10.00">zprefix</text>
</g>
<!-- Node6&#45;&gt;Node5 -->
<g id="edge5" class="edge">
<title>Node6&#45;&gt;Node5</title>
<path fill="none" stroke="#9a32cd" stroke-dasharray="5,2" d="M195.89,-344.15C198.6,-343.3 201.33,-342.56 204,-342 226.38,-337.28 251.78,-336.02 272.87,-336.05"/>
<polygon fill="#9a32cd" stroke="#9a32cd" points="194.57,-340.91 186.34,-347.59 196.94,-347.5 194.57,-340.91"/>
<text text-anchor="middle" x="226" y="-345" font-family="Helvetica,sans-Serif" font-size="10.00"> separator</text>
</g>
<!-- Node8 -->
<g id="node8" class="node">
<title>Node8</title>
<g id="a_node8"><a xlink:title=" ">
<polygon fill="white" stroke="black" points="266,-366.5 266,-385.5 371,-385.5 371,-366.5 266,-366.5"/>
<text text-anchor="middle" x="318.5" y="-373.5" font-family="Helvetica,sans-Serif" font-size="10.00">vector&lt; std::string &gt;</text>
</a>
</g>
</g>
<!-- Node6&#45;&gt;Node8 -->
<g id="edge9" class="edge">
<title>Node6&#45;&gt;Node8</title>
<path fill="none" stroke="#9a32cd" stroke-dasharray="5,2" d="M196.22,-360.74C216.06,-363.24 242.68,-366.58 265.92,-369.51"/>
<polygon fill="#9a32cd" stroke="#9a32cd" points="196.6,-357.26 186.24,-359.48 195.73,-364.21 196.6,-357.26"/>
<text text-anchor="middle" x="226" y="-370" font-family="Helvetica,sans-Serif" font-size="10.00"> elements</text>
</g>
<!-- Node6&#45;&gt;Node21 -->
<g id="edge24" class="edge">
<title>Node6&#45;&gt;Node21</title>
<path fill="none" stroke="#9a32cd" stroke-dasharray="5,2" d="M186.76,-372.42C192.15,-375.97 198.11,-379.45 204,-382 296.64,-422.07 327,-438.72 427,-425 449.75,-421.88 474.79,-414.65 493.15,-408.61"/>
<polygon fill="#9a32cd" stroke="#9a32cd" points="188.55,-369.4 178.36,-366.52 184.53,-375.13 188.55,-369.4"/>
<text text-anchor="middle" x="318.5" y="-443" font-family="Helvetica,sans-Serif" font-size="10.00"> fprefix</text>
<text text-anchor="middle" x="318.5" y="-432" font-family="Helvetica,sans-Serif" font-size="10.00">xprefix</text>
</g>
<!-- Node7 -->
<g id="node7" class="node">
<title>Node7</title>
<g id="a_node7"><a xlink:title=" ">
<polygon fill="white" stroke="black" points="0,-347.5 0,-366.5 108,-366.5 108,-347.5 0,-347.5"/>
<text text-anchor="middle" x="54" y="-354.5" font-family="Helvetica,sans-Serif" font-size="10.00">basic_string&lt; Char &gt;</text>
</a>
</g>
</g>
<!-- Node7&#45;&gt;Node6 -->
<g id="edge6" class="edge">
<title>Node7&#45;&gt;Node6</title>
<path fill="none" stroke="midnightblue" d="M118.23,-357C127.84,-357 137.09,-357 144.76,-357"/>
<polygon fill="midnightblue" stroke="midnightblue" points="118.15,-353.5 108.15,-357 118.15,-360.5 118.15,-353.5"/>
</g>
<!-- Node8&#45;&gt;Node4 -->
<g id="edge8" class="edge">
<title>Node8&#45;&gt;Node4</title>
<path fill="none" stroke="#9a32cd" stroke-dasharray="5,2" d="M354.69,-363.08C379.71,-354.1 414.21,-342.16 445,-333 456.2,-329.67 468.45,-326.41 479.74,-323.55"/>
<polygon fill="#9a32cd" stroke="#9a32cd" points="353.48,-359.79 345.26,-366.48 355.85,-366.38 353.48,-359.79"/>
<text text-anchor="middle" x="408" y="-375" font-family="Helvetica,sans-Serif" font-size="10.00"> xnames</text>
<text text-anchor="middle" x="408" y="-364" font-family="Helvetica,sans-Serif" font-size="10.00">ynames</text>
<text text-anchor="middle" x="408" y="-353" font-family="Helvetica,sans-Serif" font-size="10.00">znames</text>
</g>
<!-- Node8&#45;&gt;Node21 -->
<g id="edge25" class="edge">
<title>Node8&#45;&gt;Node21</title>
<path fill="none" stroke="#9a32cd" stroke-dasharray="5,2" d="M356.2,-388.47C366.68,-391.5 378.18,-394.35 389,-396 418.23,-400.46 451.56,-401.17 477.28,-400.78"/>
<polygon fill="#9a32cd" stroke="#9a32cd" points="357.12,-385.09 346.54,-385.53 355.09,-391.79 357.12,-385.09"/>
<text text-anchor="middle" x="408" y="-413" font-family="Helvetica,sans-Serif" font-size="10.00"> fnames</text>
<text text-anchor="middle" x="408" y="-402" font-family="Helvetica,sans-Serif" font-size="10.00">xnames</text>
</g>
<!-- Node9 -->
<g id="node9" class="node">
<title>Node9</title>
<g id="a_node9"><a xlink:href="structReaktoro_1_1OptimumParamsActNewton.html" target="_top" xlink:title=" ">
<polygon fill="white" stroke="#bfbfbf" points="451.5,-266.5 451.5,-285.5 590.5,-285.5 590.5,-266.5 451.5,-266.5"/>
<text text-anchor="middle" x="521" y="-273.5" font-family="Helvetica,sans-Serif" font-size="10.00">OptimumParamsActNewton</text>
</a>
</g>
</g>
<!-- Node9&#45;&gt;Node3 -->
<g id="edge10" class="edge">
<title>Node9&#45;&gt;Node3</title>
<path fill="none" stroke="#9a32cd" stroke-dasharray="5,2" d="M583.99,-264.37C612.45,-258.2 646.38,-249.68 676,-239 698.42,-230.92 722.83,-218.33 738.61,-209.65"/>
<polygon fill="#9a32cd" stroke="#9a32cd" points="583.22,-260.95 574.17,-266.45 584.68,-267.8 583.22,-260.95"/>
<text text-anchor="middle" x="645.5" y="-259" font-family="Helvetica,sans-Serif" font-size="10.00"> actnewton</text>
</g>
<!-- Node10 -->
<g id="node10" class="node">
<title>Node10</title>
<g id="a_node10"><a xlink:href="structReaktoro_1_1OptimumParamsIpAction.html" target="_top" xlink:title=" ">
<polygon fill="white" stroke="#bfbfbf" points="458,-228.5 458,-247.5 584,-247.5 584,-228.5 458,-228.5"/>
<text text-anchor="middle" x="521" y="-235.5" font-family="Helvetica,sans-Serif" font-size="10.00">OptimumParamsIpAction</text>
</a>
</g>
</g>
<!-- Node10&#45;&gt;Node3 -->
<g id="edge11" class="edge">
<title>Node10&#45;&gt;Node3</title>
<path fill="none" stroke="#9a32cd" stroke-dasharray="5,2" d="M594.36,-227.78C620.16,-223.98 649.41,-219.49 676,-215 687.49,-213.06 699.89,-210.8 711.4,-208.63"/>
<polygon fill="#9a32cd" stroke="#9a32cd" points="593.67,-224.34 584.28,-229.25 594.68,-231.27 593.67,-224.34"/>
<text text-anchor="middle" x="645.5" y="-227" font-family="Helvetica,sans-Serif" font-size="10.00"> ipaction</text>
</g>
<!-- Node11 -->
<g id="node11" class="node">
<title>Node11</title>
<g id="a_node11"><a xlink:href="structReaktoro_1_1OptimumParamsIpOpt.html" target="_top" xlink:title=" ">
<polygon fill="white" stroke="#bfbfbf" points="464,-0.5 464,-19.5 578,-19.5 578,-0.5 464,-0.5"/>
<text text-anchor="middle" x="521" y="-7.5" font-family="Helvetica,sans-Serif" font-size="10.00">OptimumParamsIpOpt</text>
</a>
</g>
</g>
<!-- Node11&#45;&gt;Node3 -->
<g id="edge12" class="edge">
<title>Node11&#45;&gt;Node3</title>
<path fill="none" stroke="#9a32cd" stroke-dasharray="5,2" d="M588.5,-2.91C619.21,-3.45 653.73,-10.11 676,-33 722.21,-80.49 651.51,-130.15 694,-181 698.59,-186.49 704.72,-190.42 711.35,-193.23"/>
<polygon fill="#9a32cd" stroke="#9a32cd" points="588.24,0.59 578.25,-2.95 588.26,-6.41 588.24,0.59"/>
<text text-anchor="middle" x="645.5" y="-36" font-family="Helvetica,sans-Serif" font-size="10.00"> ipopt</text>
</g>
<!-- Node12 -->
<g id="node12" class="node">
<title>Node12</title>
<g id="a_node12"><a xlink:title=" ">
<polygon fill="white" stroke="black" points="273.5,-0.5 273.5,-19.5 363.5,-19.5 363.5,-0.5 273.5,-0.5"/>
<text text-anchor="middle" x="318.5" y="-7.5" font-family="Helvetica,sans-Serif" font-size="10.00">vector&lt; double &gt;</text>
</a>
</g>
</g>
<!-- Node12&#45;&gt;Node11 -->
<g id="edge13" class="edge">
<title>Node12&#45;&gt;Node11</title>
<path fill="none" stroke="#9a32cd" stroke-dasharray="5,2" d="M373.51,-10C401.48,-10 435.61,-10 463.88,-10"/>
<polygon fill="#9a32cd" stroke="#9a32cd" points="373.5,-6.5 363.5,-10 373.5,-13.5 373.5,-6.5"/>
<text text-anchor="middle" x="408" y="-13" font-family="Helvetica,sans-Serif" font-size="10.00"> mu</text>
</g>
<!-- Node13 -->
<g id="node13" class="node">
<title>Node13</title>
<g id="a_node13"><a xlink:href="structReaktoro_1_1OptimumParamsIpNewton.html" target="_top" xlink:title=" ">
<polygon fill="white" stroke="#bfbfbf" points="455,-152.5 455,-171.5 587,-171.5 587,-152.5 455,-152.5"/>
<text text-anchor="middle" x="521" y="-159.5" font-family="Helvetica,sans-Serif" font-size="10.00">OptimumParamsIpNewton</text>
</a>
</g>
</g>
<!-- Node13&#45;&gt;Node3 -->
<g id="edge14" class="edge">
<title>Node13&#45;&gt;Node3</title>
<path fill="none" stroke="#9a32cd" stroke-dasharray="5,2" d="M597.44,-172.68C622.47,-176.38 650.46,-180.69 676,-185 687.49,-186.94 699.89,-189.2 711.4,-191.37"/>
<polygon fill="#9a32cd" stroke="#9a32cd" points="597.68,-169.18 587.28,-171.19 596.66,-176.1 597.68,-169.18"/>
<text text-anchor="middle" x="645.5" y="-188" font-family="Helvetica,sans-Serif" font-size="10.00"> ipnewton</text>
</g>
<!-- Node14 -->
<g id="node14" class="node">
<title>Node14</title>
<g id="a_node14"><a xlink:href="structReaktoro_1_1OptimumParamsIpActive.html" target="_top" xlink:title=" ">
<polygon fill="white" stroke="#bfbfbf" points="458,-114.5 458,-133.5 584,-133.5 584,-114.5 458,-114.5"/>
<text text-anchor="middle" x="521" y="-121.5" font-family="Helvetica,sans-Serif" font-size="10.00">OptimumParamsIpActive</text>
</a>
</g>
</g>
<!-- Node14&#45;&gt;Node3 -->
<g id="edge15" class="edge">
<title>Node14&#45;&gt;Node3</title>
<path fill="none" stroke="#9a32cd" stroke-dasharray="5,2" d="M594.44,-131.3C621.49,-136.42 651.55,-145.15 676,-160 686.51,-166.38 683.72,-174.25 694,-181 699.89,-184.86 706.6,-187.98 713.38,-190.47"/>
<polygon fill="#9a32cd" stroke="#9a32cd" points="594.7,-127.79 584.24,-129.5 593.48,-134.68 594.7,-127.79"/>
<text text-anchor="middle" x="645.5" y="-163" font-family="Helvetica,sans-Serif" font-size="10.00"> ipactive</text>
</g>
<!-- Node15 -->
<g id="node15" class="node">
<title>Node15</title>
<g id="a_node15"><a xlink:href="structReaktoro_1_1OptimumParamsKarpov.html" target="_top" xlink:title=" ">
<polygon fill="white" stroke="#bfbfbf" points="460.5,-76.5 460.5,-95.5 581.5,-95.5 581.5,-76.5 460.5,-76.5"/>
<text text-anchor="middle" x="521" y="-83.5" font-family="Helvetica,sans-Serif" font-size="10.00">OptimumParamsKarpov</text>
</a>
</g>
</g>
<!-- Node15&#45;&gt;Node3 -->
<g id="edge16" class="edge">
<title>Node15&#45;&gt;Node3</title>
<path fill="none" stroke="#9a32cd" stroke-dasharray="5,2" d="M591.84,-87.39C621.11,-91.43 653.49,-100.94 676,-122 696.02,-140.73 674.65,-161.58 694,-181 698.81,-185.83 704.82,-189.43 711.19,-192.13"/>
<polygon fill="#9a32cd" stroke="#9a32cd" points="591.98,-83.88 581.64,-86.17 591.16,-90.83 591.98,-83.88"/>
<text text-anchor="middle" x="645.5" y="-125" font-family="Helvetica,sans-Serif" font-size="10.00"> karpov</text>
</g>
<!-- Node16 -->
<g id="node16" class="node">
<title>Node16</title>
<g id="a_node16"><a xlink:href="structReaktoro_1_1OptimumParamsRefiner.html" target="_top" xlink:title=" ">
<polygon fill="white" stroke="#bfbfbf" points="460,-38.5 460,-57.5 582,-57.5 582,-38.5 460,-38.5"/>
<text text-anchor="middle" x="521" y="-45.5" font-family="Helvetica,sans-Serif" font-size="10.00">OptimumParamsRefiner</text>
</a>
</g>
</g>
<!-- Node16&#45;&gt;Node3 -->
<g id="edge17" class="edge">
<title>Node16&#45;&gt;Node3</title>
<path fill="none" stroke="#9a32cd" stroke-dasharray="5,2" d="M592.5,-44.56C622.05,-46.93 654.48,-55.16 676,-77 708.92,-110.41 663.02,-145.77 694,-181 698.65,-186.29 704.73,-190.12 711.27,-192.9"/>
<polygon fill="#9a32cd" stroke="#9a32cd" points="592.38,-41.04 582.19,-43.95 591.97,-48.03 592.38,-41.04"/>
<text text-anchor="middle" x="645.5" y="-80" font-family="Helvetica,sans-Serif" font-size="10.00"> refiner</text>
</g>
<!-- Node17 -->
<g id="node17" class="node">
<title>Node17</title>
<g id="a_node17"><a xlink:href="structReaktoro_1_1OptimumParamsRegularization.html" target="_top" xlink:title="A type that describes the regularization options for the optimisation calculation.">
<polygon fill="white" stroke="black" points="445,-190.5 445,-209.5 597,-209.5 597,-190.5 445,-190.5"/>
<text text-anchor="middle" x="521" y="-197.5" font-family="Helvetica,sans-Serif" font-size="10.00">OptimumParamsRegularization</text>
</a>
</g>
</g>
<!-- Node17&#45;&gt;Node3 -->
<g id="edge18" class="edge">
<title>Node17&#45;&gt;Node3</title>
<path fill="none" stroke="#9a32cd" stroke-dasharray="5,2" d="M607.48,-200C642.77,-200 682.18,-200 711.45,-200"/>
<polygon fill="#9a32cd" stroke="#9a32cd" points="607.17,-196.5 597.17,-200 607.17,-203.5 607.17,-196.5"/>
<text text-anchor="middle" x="645.5" y="-203" font-family="Helvetica,sans-Serif" font-size="10.00"> regularization</text>
</g>
<!-- Node18 -->
<g id="node18" class="node">
<title>Node18</title>
<g id="a_node18"><a xlink:href="structReaktoro_1_1RegularizerOptions.html" target="_top" xlink:title="A type that describes the options for regularizing linear constraints.">
<polygon fill="white" stroke="black" points="268.5,-190.5 268.5,-209.5 368.5,-209.5 368.5,-190.5 268.5,-190.5"/>
<text text-anchor="middle" x="318.5" y="-197.5" font-family="Helvetica,sans-Serif" font-size="10.00">RegularizerOptions</text>
</a>
</g>
</g>
<!-- Node18&#45;&gt;Node17 -->
<g id="edge19" class="edge">
<title>Node18&#45;&gt;Node17</title>
<path fill="none" stroke="midnightblue" d="M378.79,-200C399.5,-200 423.04,-200 444.88,-200"/>
<polygon fill="midnightblue" stroke="midnightblue" points="378.55,-196.5 368.55,-200 378.55,-203.5 378.55,-196.5"/>
</g>
<!-- Node19 -->
<g id="node19" class="node">
<title>Node19</title>
<g id="a_node19"><a xlink:href="structReaktoro_1_1KktOptions.html" target="_top" xlink:title="A type to describe the options for the KKT calculation.">
<polygon fill="white" stroke="black" points="488.5,-342.5 488.5,-361.5 553.5,-361.5 553.5,-342.5 488.5,-342.5"/>
<text text-anchor="middle" x="521" y="-349.5" font-family="Helvetica,sans-Serif" font-size="10.00">KktOptions</text>
</a>
</g>
</g>
<!-- Node19&#45;&gt;Node3 -->
<g id="edge20" class="edge">
<title>Node19&#45;&gt;Node3</title>
<path fill="none" stroke="#9a32cd" stroke-dasharray="5,2" d="M563.82,-348.42C596.82,-343.85 642.69,-333.49 676,-310 695.74,-296.08 734.84,-233.92 749.64,-209.7"/>
<polygon fill="#9a32cd" stroke="#9a32cd" points="563.07,-344.98 553.59,-349.7 563.95,-351.93 563.07,-344.98"/>
<text text-anchor="middle" x="645.5" y="-340" font-family="Helvetica,sans-Serif" font-size="10.00"> kkt</text>
</g>
<!-- Node20 -->
<g id="node20" class="node">
<title>Node20</title>
<g id="a_node20"><a xlink:href="structReaktoro_1_1NonlinearOptions.html" target="_top" xlink:title="A type that describes the options for the solution of a non&#45;linear problem.">
<polygon fill="white" stroke="black" points="710.5,-302.5 710.5,-321.5 802.5,-321.5 802.5,-302.5 710.5,-302.5"/>
<text text-anchor="middle" x="756.5" y="-309.5" font-family="Helvetica,sans-Serif" font-size="10.00">NonlinearOptions</text>
</a>
</g>
</g>
<!-- Node20&#45;&gt;Node2 -->
<g id="edge21" class="edge">
<title>Node20&#45;&gt;Node2</title>
<path fill="none" stroke="#9a32cd" stroke-dasharray="5,2" d="M782.28,-297.28C821.56,-273.94 897.03,-229.09 929.97,-209.52"/>
<polygon fill="#9a32cd" stroke="#9a32cd" points="780.38,-294.33 773.57,-302.45 783.96,-300.35 780.38,-294.33"/>
<text text-anchor="middle" x="858.5" y="-265" font-family="Helvetica,sans-Serif" font-size="10.00"> nonlinear</text>
</g>
<!-- Node21&#45;&gt;Node20 -->
<g id="edge22" class="edge">
<title>Node21&#45;&gt;Node20</title>
<path fill="none" stroke="#9a32cd" stroke-dasharray="5,2" d="M574.57,-393.38C605.09,-388.83 643.76,-380.83 676,-367 702.99,-355.43 730.23,-333.97 744.77,-321.56"/>
<polygon fill="#9a32cd" stroke="#9a32cd" points="573.96,-389.93 564.55,-394.79 574.94,-396.86 573.96,-389.93"/>
<text text-anchor="middle" x="645.5" y="-388" font-family="Helvetica,sans-Serif" font-size="10.00"> output</text>
</g>
<!-- Node22 -->
<g id="node22" class="node">
<title>Node22</title>
<g id="a_node22"><a xlink:href="structReaktoro_1_1SmartEquilibriumOptions.html" target="_top" xlink:title="The options for the smart equilibrium calculations.">
<polygon fill="white" stroke="black" points="694,-152.5 694,-171.5 819,-171.5 819,-152.5 694,-152.5"/>
<text text-anchor="middle" x="756.5" y="-159.5" font-family="Helvetica,sans-Serif" font-size="10.00">SmartEquilibriumOptions</text>
</a>
</g>
</g>
<!-- Node22&#45;&gt;Node2 -->
<g id="edge26" class="edge">
<title>Node22&#45;&gt;Node2</title>
<path fill="none" stroke="#9a32cd" stroke-dasharray="5,2" d="M820.73,-173.4C839.81,-176.96 860.78,-181.01 880,-185 888.17,-186.69 896.88,-188.6 905.21,-190.48"/>
<polygon fill="#9a32cd" stroke="#9a32cd" points="821.12,-169.91 810.65,-171.53 819.84,-176.79 821.12,-169.91"/>
<text text-anchor="middle" x="858.5" y="-188" font-family="Helvetica,sans-Serif" font-size="10.00"> smart</text>
</g>
<!-- Node23 -->
<g id="node23" class="node">
<title>Node23</title>
<g id="a_node23"><a xlink:href="structReaktoro_1_1ODEOptions.html" target="_top" xlink:title="A struct that defines the options for the ODESolver.">
<polygon fill="white" stroke="black" points="911,-152.5 911,-171.5 983,-171.5 983,-152.5 911,-152.5"/>
<text text-anchor="middle" x="947" y="-159.5" font-family="Helvetica,sans-Serif" font-size="10.00">ODEOptions</text>
</a>
</g>
</g>
<!-- Node23&#45;&gt;Node1 -->
<g id="edge27" class="edge">
<title>Node23&#45;&gt;Node1</title>
<path fill="none" stroke="#9a32cd" stroke-dasharray="5,2" d="M993.27,-161.55C1014.75,-161.74 1040.75,-162.59 1064,-165 1074.07,-166.05 1084.81,-167.68 1094.96,-169.47"/>
<polygon fill="#9a32cd" stroke="#9a32cd" points="993.13,-158.04 983.12,-161.5 993.1,-165.04 993.13,-158.04"/>
<text text-anchor="middle" x="1039" y="-168" font-family="Helvetica,sans-Serif" font-size="10.00"> ode</text>
</g>
</g>
</svg>
        <g id="navigator" transform="translate(0 0)" fill="#404254">
                <rect fill="#f2f5e9" fill-opacity="0.5" stroke="#606060" stroke-width=".5" x="0" y="0" width="60" height="60"/>
                <use id="zoomplus" xlink:href="#zoomPlus" x="17" y="9" onmousedown="handleZoom(evt,'in')"/>
                <use id="zoomminus" xlink:href="#zoomMin" x="42" y="9" onmousedown="handleZoom(evt,'out')"/>
                <use id="reset" xlink:href="#resetDef" x="30" y="36" onmousedown="handleReset()"/>
                <g id="arrowUp" xlink:href="#dirArrow" transform="translate(30 24)" onmousedown="handlePan(0,-1)">
                  <use xlink:href="#rim" fill="#404040">
                        <set attributeName="fill" to="#808080" begin="arrowUp.mouseover" end="arrowUp.mouseout"/>
                  </use>
                  <path fill="none" stroke="white" stroke-width="1.5" d="M0,-3.0v7 M-2.5,-0.5L0,-3.0L2.5,-0.5"/>
                </g>
                <g id="arrowRight" xlink:href="#dirArrow" transform="rotate(90) translate(36 -43)" onmousedown="handlePan(1,0)">
                  <use xlink:href="#rim" fill="#404040">
                        <set attributeName="fill" to="#808080" begin="arrowRight.mouseover" end="arrowRight.mouseout"/>
                  </use>
                  <path fill="none" stroke="white" stroke-width="1.5" d="M0,-3.0v7 M-2.5,-0.5L0,-3.0L2.5,-0.5"/>
                </g>
                <g id="arrowDown" xlink:href="#dirArrow" transform="rotate(180) translate(-30 -48)" onmousedown="handlePan(0,1)">
                  <use xlink:href="#rim" fill="#404040">
                        <set attributeName="fill" to="#808080" begin="arrowDown.mouseover" end="arrowDown.mouseout"/>
                  </use>
                  <path fill="none" stroke="white" stroke-width="1.5" d="M0,-3.0v7 M-2.5,-0.5L0,-3.0L2.5,-0.5"/>
                </g>
                <g id="arrowLeft" xlink:href="#dirArrow" transform="rotate(270) translate(-36 17)" onmousedown="handlePan(-1,0)">
                  <use xlink:href="#rim" fill="#404040">
                        <set attributeName="fill" to="#808080" begin="arrowLeft.mouseover" end="arrowLeft.mouseout"/>
                  </use>
                  <path fill="none" stroke="white" stroke-width="1.5" d="M0,-3.0v7 M-2.5,-0.5L0,-3.0L2.5,-0.5"/>
                </g>
        </g>
        <svg viewBox="0 0 15 15" width="100%" height="30px" preserveAspectRatio="xMaxYMin meet">
         <g id="arrow_out" transform="scale(0.3 0.3)">
          <a xlink:href="structReaktoro_1_1EquilibriumPathOptions__coll__graph_org.svg" target="_base">
           <rect id="button" ry="5" rx="5" y="6" x="6" height="38" width="38"
                fill="#f2f5e9" fill-opacity="0.5" stroke="#606060" stroke-width="1.0"/>
           <path id="arrow"
             d="M 11.500037,31.436501 C 11.940474,20.09759 22.043105,11.32322 32.158766,21.979434 L 37.068811,17.246167 C 37.068811,17.246167 37.088388,32 37.088388,32 L 22.160133,31.978069 C 22.160133,31.978069 26.997745,27.140456 26.997745,27.140456 C 18.528582,18.264221 13.291696,25.230495 11.500037,31.436501 z"
             style="fill:#404040;"/>
          </a>
         </g>
        </svg>
</svg>
