<?xml version="1.0" encoding="UTF-8" standalone="no"?>
<!DOCTYPE svg PUBLIC "-//W3C//DTD SVG 1.1//EN"
 "http://www.w3.org/Graphics/SVG/1.1/DTD/svg11.dtd">
<!-- Generated by graphviz version 2.50.0 (20211209.0339)
 -->
<!-- Title: MixtureState Pages: 1 -->
<svg width="317pt" height="174pt"
 viewBox="0.00 0.00 316.50 174.00" xmlns="http://www.w3.org/2000/svg" xmlns:xlink="http://www.w3.org/1999/xlink">
<g id="graph0" class="graph" transform="scale(1 1) rotate(0) translate(4 170)">
<title>MixtureState</title>
<polygon fill="white" stroke="transparent" points="-4,4 -4,-170 312.5,-170 312.5,4 -4,4"/>
<!-- Node1 -->
<g id="node1" class="node">
<title>Node1</title>
<g id="a_node1"><a xlink:title="A type used to describe the state of a mixture.">
<polygon fill="#bfbfbf" stroke="black" points="86,-0.5 86,-19.5 166,-19.5 166,-0.5 86,-0.5"/>
<text text-anchor="middle" x="126" y="-7.5" font-family="Helvetica,sans-Serif" font-size="10.00">MixtureState</text>
</a>
</g>
</g>
<!-- Node2 -->
<g id="node2" class="node">
<title>Node2</title>
<g id="a_node2"><a xlink:href="classReaktoro_1_1Temperature.html" target="_top" xlink:title="A type that describes temperature in units of K.">
<polygon fill="white" stroke="black" points="0,-78.5 0,-97.5 78,-97.5 78,-78.5 0,-78.5"/>
<text text-anchor="middle" x="39" y="-85.5" font-family="Helvetica,sans-Serif" font-size="10.00">Temperature</text>
</a>
</g>
</g>
<!-- Node2&#45;&gt;Node1 -->
<g id="edge1" class="edge">
<title>Node2&#45;&gt;Node1</title>
<path fill="none" stroke="#9a32cd" stroke-dasharray="5,2" d="M56.97,-71.3C74.9,-55.64 101.78,-32.16 116.14,-19.62"/>
<polygon fill="#9a32cd" stroke="#9a32cd" points="54.21,-69.07 48.98,-78.28 58.81,-74.34 54.21,-69.07"/>
<text text-anchor="middle" x="98" y="-41" font-family="Helvetica,sans-Serif" font-size="10.00"> T</text>
</g>
<!-- Node3 -->
<g id="node3" class="node">
<title>Node3</title>
<g id="a_node3"><a xlink:href="classReaktoro_1_1ThermoScalarBase.html" target="_top" xlink:title=" ">
<polygon fill="white" stroke="black" points="40,-146.5 40,-165.5 124,-165.5 124,-146.5 40,-146.5"/>
<text text-anchor="middle" x="82" y="-153.5" font-family="Helvetica,sans-Serif" font-size="10.00">ThermoScalar</text>
</a>
</g>
</g>
<!-- Node3&#45;&gt;Node2 -->
<g id="edge2" class="edge">
<title>Node3&#45;&gt;Node2</title>
<path fill="none" stroke="midnightblue" d="M70.88,-137.94C62.53,-125.11 51.42,-108.06 44.76,-97.84"/>
<polygon fill="midnightblue" stroke="midnightblue" points="67.99,-139.9 76.38,-146.37 73.85,-136.08 67.99,-139.9"/>
</g>
<!-- Node4 -->
<g id="node4" class="node">
<title>Node4</title>
<g id="a_node4"><a xlink:href="classReaktoro_1_1Pressure.html" target="_top" xlink:title="A type that describes pressure in units of Pa.">
<polygon fill="white" stroke="black" points="96.5,-78.5 96.5,-97.5 155.5,-97.5 155.5,-78.5 96.5,-78.5"/>
<text text-anchor="middle" x="126" y="-85.5" font-family="Helvetica,sans-Serif" font-size="10.00">Pressure</text>
</a>
</g>
</g>
<!-- Node3&#45;&gt;Node4 -->
<g id="edge4" class="edge">
<title>Node3&#45;&gt;Node4</title>
<path fill="none" stroke="midnightblue" d="M93.37,-137.94C101.93,-125.11 113.29,-108.06 120.11,-97.84"/>
<polygon fill="midnightblue" stroke="midnightblue" points="90.39,-136.11 87.75,-146.37 96.21,-139.99 90.39,-136.11"/>
</g>
<!-- Node4&#45;&gt;Node1 -->
<g id="edge3" class="edge">
<title>Node4&#45;&gt;Node1</title>
<path fill="none" stroke="#9a32cd" stroke-dasharray="5,2" d="M126,-68.22C126,-52.7 126,-31.36 126,-19.62"/>
<polygon fill="#9a32cd" stroke="#9a32cd" points="122.5,-68.28 126,-78.28 129.5,-68.28 122.5,-68.28"/>
<text text-anchor="middle" x="131" y="-41" font-family="Helvetica,sans-Serif" font-size="10.00"> P</text>
</g>
<!-- Node5 -->
<g id="node5" class="node">
<title>Node5</title>
<g id="a_node5"><a xlink:href="classReaktoro_1_1ChemicalVectorBase.html" target="_top" xlink:title=" ">
<polygon fill="white" stroke="black" points="173.5,-67.5 173.5,-108.5 308.5,-108.5 308.5,-67.5 173.5,-67.5"/>
<text text-anchor="start" x="181.5" y="-96.5" font-family="Helvetica,sans-Serif" font-size="10.00">ChemicalVectorBase</text>
<text text-anchor="start" x="181.5" y="-85.5" font-family="Helvetica,sans-Serif" font-size="10.00">&lt; Vector, Vector, Vector,</text>
<text text-anchor="middle" x="241" y="-74.5" font-family="Helvetica,sans-Serif" font-size="10.00"> Matrix &gt;</text>
</a>
</g>
</g>
<!-- Node5&#45;&gt;Node1 -->
<g id="edge5" class="edge">
<title>Node5&#45;&gt;Node1</title>
<path fill="none" stroke="#9a32cd" stroke-dasharray="5,2" d="M202.85,-61.79C180.75,-47.18 154.34,-29.73 138.94,-19.55"/>
<polygon fill="#9a32cd" stroke="#9a32cd" points="201.11,-64.83 211.38,-67.43 204.97,-58.99 201.11,-64.83"/>
<text text-anchor="middle" x="188" y="-41" font-family="Helvetica,sans-Serif" font-size="10.00"> x</text>
</g>
</g>
</svg>
