<?xml version="1.0" encoding="UTF-8" standalone="no"?>
<!DOCTYPE svg PUBLIC "-//W3C//DTD SVG 1.1//EN"
 "http://www.w3.org/Graphics/SVG/1.1/DTD/svg11.dtd">
<!-- Generated by graphviz version 2.50.0 (20211209.0339)
 -->
<!-- Title: NonlinearOptions Pages: 1 -->
<svg width="295pt" height="299pt"
 viewBox="0.00 0.00 295.06 299.00" xmlns="http://www.w3.org/2000/svg" xmlns:xlink="http://www.w3.org/1999/xlink">
<g id="graph0" class="graph" transform="scale(1 1) rotate(0) translate(4 295)">
<title>NonlinearOptions</title>
<polygon fill="white" stroke="transparent" points="-4,4 -4,-295 291.06,-295 291.06,4 -4,4"/>
<!-- Node1 -->
<g id="node1" class="node">
<title>Node1</title>
<g id="a_node1"><a xlink:title="A type that describes the options for the solution of a non&#45;linear problem.">
<polygon fill="#bfbfbf" stroke="black" points="49.06,-0.5 49.06,-19.5 150.06,-19.5 150.06,-0.5 49.06,-0.5"/>
<text text-anchor="middle" x="99.56" y="-7.5" font-family="Helvetica,sans-Serif" font-size="10.00">NonlinearOptions</text>
</a>
</g>
</g>
<!-- Node2 -->
<g id="node2" class="node">
<title>Node2</title>
<g id="a_node2"><a xlink:href="structReaktoro_1_1NonlinearOutput.html" target="_top" xlink:title="A type that describes the options for the output of a non&#45;linear problem calculation.">
<polygon fill="white" stroke="black" points="51.06,-67.5 51.06,-86.5 148.06,-86.5 148.06,-67.5 51.06,-67.5"/>
<text text-anchor="middle" x="99.56" y="-74.5" font-family="Helvetica,sans-Serif" font-size="10.00">NonlinearOutput</text>
</a>
</g>
</g>
<!-- Node2&#45;&gt;Node1 -->
<g id="edge1" class="edge">
<title>Node2&#45;&gt;Node1</title>
<path fill="none" stroke="#9a32cd" stroke-dasharray="5,2" d="M99.56,-57.04C99.56,-44.67 99.56,-29.12 99.56,-19.63"/>
<polygon fill="#9a32cd" stroke="#9a32cd" points="96.06,-57.23 99.56,-67.23 103.06,-57.23 96.06,-57.23"/>
<text text-anchor="middle" x="117.06" y="-41" font-family="Helvetica,sans-Serif" font-size="10.00"> output</text>
</g>
<!-- Node3 -->
<g id="node3" class="node">
<title>Node3</title>
<g id="a_node3"><a xlink:href="structReaktoro_1_1OutputterOptions.html" target="_top" xlink:title=" ">
<polygon fill="white" stroke="black" points="49.06,-146.5 49.06,-165.5 150.06,-165.5 150.06,-146.5 49.06,-146.5"/>
<text text-anchor="middle" x="99.56" y="-153.5" font-family="Helvetica,sans-Serif" font-size="10.00">OutputterOptions</text>
</a>
</g>
</g>
<!-- Node3&#45;&gt;Node2 -->
<g id="edge2" class="edge">
<title>Node3&#45;&gt;Node2</title>
<path fill="none" stroke="midnightblue" d="M99.56,-136.31C99.56,-120.59 99.56,-98.81 99.56,-86.81"/>
<polygon fill="midnightblue" stroke="midnightblue" points="96.06,-136.47 99.56,-146.47 103.06,-136.47 96.06,-136.47"/>
</g>
<!-- Node4 -->
<g id="node4" class="node">
<title>Node4</title>
<g id="a_node4"><a xlink:title="STL class.">
<polygon fill="white" stroke="#bfbfbf" points="77.56,-214.5 77.56,-233.5 121.56,-233.5 121.56,-214.5 77.56,-214.5"/>
<text text-anchor="middle" x="99.56" y="-221.5" font-family="Helvetica,sans-Serif" font-size="10.00">string</text>
</a>
</g>
</g>
<!-- Node4&#45;&gt;Node2 -->
<g id="edge5" class="edge">
<title>Node4&#45;&gt;Node2</title>
<path fill="none" stroke="#9a32cd" stroke-dasharray="5,2" d="M67.55,-213.5C45.55,-205.12 17.99,-190.5 4.56,-167 -16.06,-130.89 42.04,-100.71 76.35,-86.59"/>
<polygon fill="#9a32cd" stroke="#9a32cd" points="66.6,-216.88 77.19,-216.93 68.94,-210.28 66.6,-216.88"/>
<text text-anchor="middle" x="22.06" y="-159" font-family="Helvetica,sans-Serif" font-size="10.00"> fprefix</text>
<text text-anchor="middle" x="22.06" y="-148" font-family="Helvetica,sans-Serif" font-size="10.00">xprefix</text>
</g>
<!-- Node4&#45;&gt;Node3 -->
<g id="edge3" class="edge">
<title>Node4&#45;&gt;Node3</title>
<path fill="none" stroke="#9a32cd" stroke-dasharray="5,2" d="M99.56,-204.04C99.56,-191.47 99.56,-175.56 99.56,-165.84"/>
<polygon fill="#9a32cd" stroke="#9a32cd" points="96.06,-204.37 99.56,-214.37 103.06,-204.37 96.06,-204.37"/>
<text text-anchor="middle" x="124.56" y="-188" font-family="Helvetica,sans-Serif" font-size="10.00"> separator</text>
</g>
<!-- Node6 -->
<g id="node6" class="node">
<title>Node6</title>
<g id="a_node6"><a xlink:title=" ">
<polygon fill="white" stroke="#bfbfbf" points="168.06,-146.5 168.06,-165.5 287.06,-165.5 287.06,-146.5 168.06,-146.5"/>
<text text-anchor="middle" x="227.56" y="-153.5" font-family="Helvetica,sans-Serif" font-size="10.00">vector&lt; std::string &gt;</text>
</a>
</g>
</g>
<!-- Node4&#45;&gt;Node6 -->
<g id="edge7" class="edge">
<title>Node4&#45;&gt;Node6</title>
<path fill="none" stroke="#9a32cd" stroke-dasharray="5,2" d="M126.13,-209.86C134.89,-205.49 144.66,-200.57 153.56,-196 173.59,-185.72 196.49,-173.59 211.45,-165.62"/>
<polygon fill="#9a32cd" stroke="#9a32cd" points="124.52,-206.75 117.12,-214.34 127.63,-213.02 124.52,-206.75"/>
<text text-anchor="middle" x="198.06" y="-188" font-family="Helvetica,sans-Serif" font-size="10.00"> elements</text>
</g>
<!-- Node5 -->
<g id="node5" class="node">
<title>Node5</title>
<g id="a_node5"><a xlink:title="STL class.">
<polygon fill="white" stroke="#bfbfbf" points="40.06,-271.5 40.06,-290.5 159.06,-290.5 159.06,-271.5 40.06,-271.5"/>
<text text-anchor="middle" x="99.56" y="-278.5" font-family="Helvetica,sans-Serif" font-size="10.00">basic_string&lt; char &gt;</text>
</a>
</g>
</g>
<!-- Node5&#45;&gt;Node4 -->
<g id="edge4" class="edge">
<title>Node5&#45;&gt;Node4</title>
<path fill="none" stroke="midnightblue" d="M99.56,-261.12C99.56,-251.82 99.56,-241.06 99.56,-233.71"/>
<polygon fill="midnightblue" stroke="midnightblue" points="96.06,-261.41 99.56,-271.41 103.06,-261.41 96.06,-261.41"/>
</g>
<!-- Node6&#45;&gt;Node2 -->
<g id="edge6" class="edge">
<title>Node6&#45;&gt;Node2</title>
<path fill="none" stroke="#9a32cd" stroke-dasharray="5,2" d="M204.79,-141.3C178.45,-125.45 135.86,-99.84 113.81,-86.57"/>
<polygon fill="#9a32cd" stroke="#9a32cd" points="203,-144.31 213.38,-146.47 206.61,-138.31 203,-144.31"/>
<text text-anchor="middle" x="198.56" y="-119" font-family="Helvetica,sans-Serif" font-size="10.00"> fnames</text>
<text text-anchor="middle" x="198.56" y="-108" font-family="Helvetica,sans-Serif" font-size="10.00">xnames</text>
</g>
</g>
</svg>
