<?xml version="1.0" encoding="UTF-8" standalone="no"?>
<!DOCTYPE svg PUBLIC "-//W3C//DTD SVG 1.1//EN"
 "http://www.w3.org/Graphics/SVG/1.1/DTD/svg11.dtd">
<!-- Generated by graphviz version 2.50.0 (20211209.0339)
 -->
<!-- Title: GlobalOptions Pages: 1 -->
<!--zoomable 534 -->
<svg id="main" version="1.1" xmlns="http://www.w3.org/2000/svg" xmlns:xlink="http://www.w3.org/1999/xlink" xml:space="preserve" onload="init(evt)">
<style type="text/css"><![CDATA[
.edge:hover path { stroke: red; }
.edge:hover polygon { stroke: red; fill: red; }
]]></style>
<script type="text/javascript"><![CDATA[
var edges = document.getElementsByTagName('g');
if (edges && edges.length) {
  for (var i=0;i<edges.length;i++) {
    if (edges[i].id.substr(0,4)=='edge') {
      edges[i].setAttribute('class','edge');
    }
  }
}
]]></script>
        <defs>
                <circle id="rim" cx="0" cy="0" r="7"/>
                <circle id="rim2" cx="0" cy="0" r="3.5"/>
                <g id="zoomPlus">
                        <use xlink:href="#rim" fill="#404040">
                                <set attributeName="fill" to="#808080" begin="zoomplus.mouseover" end="zoomplus.mouseout"/>
                        </use>
                        <path d="M-4,0h8M0,-4v8" fill="none" stroke="white" stroke-width="1.5" pointer-events="none"/>
                </g>
                <g id="zoomMin">
                        <use xlink:href="#rim" fill="#404040">
                                <set attributeName="fill" to="#808080" begin="zoomminus.mouseover" end="zoomminus.mouseout"/>
                        </use>
                        <path d="M-4,0h8" fill="none" stroke="white" stroke-width="1.5" pointer-events="none"/>
                </g>
                <g id="dirArrow">
                        <path fill="none" stroke="white" stroke-width="1.5" d="M0,-3.0v7 M-2.5,-0.5L0,-3.0L2.5,-0.5"/>
                </g>
               <g id="resetDef">
                       <use xlink:href="#rim2" fill="#404040">
                               <set attributeName="fill" to="#808080" begin="reset.mouseover" end="reset.mouseout"/>
                       </use>
               </g>
        </defs>

<script type="text/javascript">
var viewWidth = 1620;
var viewHeight = 534;
var sectionId = 'dynsection-0';
</script>
<script xlink:href="svgpan.js"/>
<svg id="graph" class="graph">
<g id="viewport">
<title>GlobalOptions</title>
<polygon fill="white" stroke="transparent" points="-4,4 -4,-530 1616,-530 1616,4 -4,4"/>
<!-- Node1 -->
<g id="node1" class="node">
<title>Node1</title>
<g id="a_node1"><a xlink:title="A type used to describe all options related to chemical calculations.">
<polygon fill="#bfbfbf" stroke="black" points="1526,-337.5 1526,-356.5 1612,-356.5 1612,-337.5 1526,-337.5"/>
<text text-anchor="middle" x="1569" y="-344.5" font-family="Helvetica,sans-Serif" font-size="10.00">GlobalOptions</text>
</a>
</g>
</g>
<!-- Node2 -->
<g id="node2" class="node">
<title>Node2</title>
<g id="a_node2"><a xlink:href="structReaktoro_1_1global_1_1ExceptionOptions.html" target="_top" xlink:title="A type used to describe all options related to exception handling.">
<polygon fill="white" stroke="black" points="1292.5,-493.5 1292.5,-512.5 1394.5,-512.5 1394.5,-493.5 1292.5,-493.5"/>
<text text-anchor="middle" x="1343.5" y="-500.5" font-family="Helvetica,sans-Serif" font-size="10.00">ExceptionOptions</text>
</a>
</g>
</g>
<!-- Node2&#45;&gt;Node1 -->
<g id="edge1" class="edge">
<title>Node2&#45;&gt;Node1</title>
<path fill="none" stroke="#9a32cd" stroke-dasharray="5,2" d="M1404.77,-507.55C1438.21,-507.01 1478.81,-500.96 1508,-479 1549.44,-447.83 1563.04,-381.35 1566.77,-356.57"/>
<polygon fill="#9a32cd" stroke="#9a32cd" points="1404.64,-504.05 1394.64,-507.55 1404.64,-511.05 1404.64,-504.05"/>
<text text-anchor="middle" x="1467.5" y="-509" font-family="Helvetica,sans-Serif" font-size="10.00"> exception</text>
</g>
<!-- Node3 -->
<g id="node3" class="node">
<title>Node3</title>
<g id="a_node3"><a xlink:href="structReaktoro_1_1KineticOptions.html" target="_top" xlink:title="A struct to describe the options for a chemical kinetics calculation.">
<polygon fill="white" stroke="black" points="1299.5,-390.5 1299.5,-409.5 1387.5,-409.5 1387.5,-390.5 1299.5,-390.5"/>
<text text-anchor="middle" x="1343.5" y="-397.5" font-family="Helvetica,sans-Serif" font-size="10.00">KineticOptions</text>
</a>
</g>
</g>
<!-- Node3&#45;&gt;Node1 -->
<g id="edge2" class="edge">
<title>Node3&#45;&gt;Node1</title>
<path fill="none" stroke="#9a32cd" stroke-dasharray="5,2" d="M1396.62,-388.12C1428.76,-380.74 1470.81,-370.97 1508,-362 1515.2,-360.26 1522.88,-358.37 1530.26,-356.54"/>
<polygon fill="#9a32cd" stroke="#9a32cd" points="1395.51,-384.78 1386.55,-390.43 1397.08,-391.6 1395.51,-384.78"/>
<text text-anchor="middle" x="1467.5" y="-383" font-family="Helvetica,sans-Serif" font-size="10.00"> kinetics</text>
</g>
<!-- Node4 -->
<g id="node4" class="node">
<title>Node4</title>
<g id="a_node4"><a xlink:href="structReaktoro_1_1ODEOptions.html" target="_top" xlink:title="A struct that defines the options for the ODESolver.">
<polygon fill="white" stroke="black" points="1079.5,-396.5 1079.5,-415.5 1154.5,-415.5 1154.5,-396.5 1079.5,-396.5"/>
<text text-anchor="middle" x="1117" y="-403.5" font-family="Helvetica,sans-Serif" font-size="10.00">ODEOptions</text>
</a>
</g>
</g>
<!-- Node4&#45;&gt;Node3 -->
<g id="edge3" class="edge">
<title>Node4&#45;&gt;Node3</title>
<path fill="none" stroke="#9a32cd" stroke-dasharray="5,2" d="M1164.77,-404.75C1204.43,-403.69 1260.85,-402.18 1299.42,-401.15"/>
<polygon fill="#9a32cd" stroke="#9a32cd" points="1164.47,-401.26 1154.57,-405.02 1164.66,-408.25 1164.47,-401.26"/>
<text text-anchor="middle" x="1225" y="-407" font-family="Helvetica,sans-Serif" font-size="10.00"> ode</text>
</g>
<!-- Node27 -->
<g id="node27" class="node">
<title>Node27</title>
<g id="a_node27"><a xlink:href="structReaktoro_1_1EquilibriumPathOptions.html" target="_top" xlink:title="A struct that describes the options from an equilibrium path calculation.">
<polygon fill="white" stroke="black" points="1278,-337.5 1278,-356.5 1409,-356.5 1409,-337.5 1278,-337.5"/>
<text text-anchor="middle" x="1343.5" y="-344.5" font-family="Helvetica,sans-Serif" font-size="10.00">EquilibriumPathOptions</text>
</a>
</g>
</g>
<!-- Node4&#45;&gt;Node27 -->
<g id="edge33" class="edge">
<title>Node4&#45;&gt;Node27</title>
<path fill="none" stroke="#9a32cd" stroke-dasharray="5,2" d="M1164.15,-393.81C1172.74,-391.54 1181.64,-389.2 1190,-387 1229.71,-376.55 1275.24,-364.62 1306.14,-356.52"/>
<polygon fill="#9a32cd" stroke="#9a32cd" points="1163.03,-390.49 1154.26,-396.42 1164.82,-397.25 1163.03,-390.49"/>
<text text-anchor="middle" x="1225" y="-390" font-family="Helvetica,sans-Serif" font-size="10.00"> ode</text>
</g>
<!-- Node5 -->
<g id="node5" class="node">
<title>Node5</title>
<g id="a_node5"><a xlink:href="structReaktoro_1_1KineticOutputOptions.html" target="_top" xlink:title=" ">
<polygon fill="white" stroke="black" points="423,-495.5 423,-514.5 544,-514.5 544,-495.5 423,-495.5"/>
<text text-anchor="middle" x="483.5" y="-502.5" font-family="Helvetica,sans-Serif" font-size="10.00">KineticOutputOptions</text>
</a>
</g>
</g>
<!-- Node5&#45;&gt;Node3 -->
<g id="edge4" class="edge">
<title>Node5&#45;&gt;Node3</title>
<path fill="none" stroke="#9a32cd" stroke-dasharray="5,2" d="M554.62,-510.6C680.31,-518.77 951.42,-527.82 1172,-476 1231.94,-461.92 1296.83,-426.88 1326.3,-409.74"/>
<polygon fill="#9a32cd" stroke="#9a32cd" points="554.58,-507.09 544.37,-509.92 554.12,-514.08 554.58,-507.09"/>
<text text-anchor="middle" x="907.5" y="-518" font-family="Helvetica,sans-Serif" font-size="10.00"> output</text>
</g>
<!-- Node6 -->
<g id="node6" class="node">
<title>Node6</title>
<g id="a_node6"><a xlink:title="STL class.">
<polygon fill="white" stroke="#bfbfbf" points="156,-324.5 156,-343.5 200,-343.5 200,-324.5 156,-324.5"/>
<text text-anchor="middle" x="178" y="-331.5" font-family="Helvetica,sans-Serif" font-size="10.00">string</text>
</a>
</g>
</g>
<!-- Node6&#45;&gt;Node5 -->
<g id="edge5" class="edge">
<title>Node6&#45;&gt;Node5</title>
<path fill="none" stroke="#9a32cd" stroke-dasharray="5,2" d="M178.56,-353.7C179.04,-383.56 184.66,-439.98 218,-470 274.11,-520.52 366,-520.9 425.35,-514.5"/>
<polygon fill="#9a32cd" stroke="#9a32cd" points="182.06,-353.67 178.58,-343.66 175.06,-353.66 182.06,-353.67"/>
<text text-anchor="middle" x="243" y="-501" font-family="Helvetica,sans-Serif" font-size="10.00"> format</text>
</g>
<!-- Node21 -->
<g id="node21" class="node">
<title>Node21</title>
<g id="a_node21"><a xlink:href="structReaktoro_1_1OptimumOutputOptions.html" target="_top" xlink:title="A type that describes the options for the output of a optimisation calculation.">
<polygon fill="white" stroke="black" points="580,-114.5 580,-133.5 713,-133.5 713,-114.5 580,-114.5"/>
<text text-anchor="middle" x="646.5" y="-121.5" font-family="Helvetica,sans-Serif" font-size="10.00">OptimumOutputOptions</text>
</a>
</g>
</g>
<!-- Node6&#45;&gt;Node21 -->
<g id="edge23" class="edge">
<title>Node6&#45;&gt;Node21</title>
<path fill="none" stroke="#9a32cd" stroke-dasharray="5,2" d="M185.55,-314.75C198.54,-279.86 231.15,-206.79 286,-174 377,-119.6 503.67,-115.11 579.82,-118.42"/>
<polygon fill="#9a32cd" stroke="#9a32cd" points="182.22,-313.67 182.15,-324.26 188.81,-316.02 182.22,-313.67"/>
<text text-anchor="middle" x="345.5" y="-199" font-family="Helvetica,sans-Serif" font-size="10.00"> xprefix</text>
<text text-anchor="middle" x="345.5" y="-188" font-family="Helvetica,sans-Serif" font-size="10.00">yprefix</text>
<text text-anchor="middle" x="345.5" y="-177" font-family="Helvetica,sans-Serif" font-size="10.00">zprefix</text>
</g>
<!-- Node22 -->
<g id="node22" class="node">
<title>Node22</title>
<g id="a_node22"><a xlink:href="structReaktoro_1_1OutputterOptions.html" target="_top" xlink:title=" ">
<polygon fill="white" stroke="black" points="295,-216.5 295,-235.5 396,-235.5 396,-216.5 295,-216.5"/>
<text text-anchor="middle" x="345.5" y="-223.5" font-family="Helvetica,sans-Serif" font-size="10.00">OutputterOptions</text>
</a>
</g>
</g>
<!-- Node6&#45;&gt;Node22 -->
<g id="edge22" class="edge">
<title>Node6&#45;&gt;Node22</title>
<path fill="none" stroke="#9a32cd" stroke-dasharray="5,2" d="M198.18,-317.98C204.38,-313.01 211.37,-307.63 218,-303 255.74,-276.67 302.55,-249.51 327.3,-235.56"/>
<polygon fill="#9a32cd" stroke="#9a32cd" points="195.85,-315.36 190.32,-324.39 200.28,-320.78 195.85,-315.36"/>
<text text-anchor="middle" x="243" y="-306" font-family="Helvetica,sans-Serif" font-size="10.00"> separator</text>
</g>
<!-- Node23 -->
<g id="node23" class="node">
<title>Node23</title>
<g id="a_node23"><a xlink:title=" ">
<polygon fill="white" stroke="#bfbfbf" points="286,-296.5 286,-315.5 405,-315.5 405,-296.5 286,-296.5"/>
<text text-anchor="middle" x="345.5" y="-303.5" font-family="Helvetica,sans-Serif" font-size="10.00">vector&lt; std::string &gt;</text>
</a>
</g>
</g>
<!-- Node6&#45;&gt;Node23 -->
<g id="edge25" class="edge">
<title>Node6&#45;&gt;Node23</title>
<path fill="none" stroke="#9a32cd" stroke-dasharray="5,2" d="M210.15,-328.37C212.81,-327.9 215.45,-327.44 218,-327 240.27,-323.15 264.76,-319.06 286.22,-315.51"/>
<polygon fill="#9a32cd" stroke="#9a32cd" points="209.27,-324.97 200.04,-330.17 210.5,-331.86 209.27,-324.97"/>
<text text-anchor="middle" x="243" y="-330" font-family="Helvetica,sans-Serif" font-size="10.00"> elements</text>
</g>
<!-- Node25 -->
<g id="node25" class="node">
<title>Node25</title>
<g id="a_node25"><a xlink:href="structReaktoro_1_1NonlinearOutput.html" target="_top" xlink:title="A type that describes the options for the output of a non&#45;linear problem calculation.">
<polygon fill="white" stroke="black" points="598,-342.5 598,-361.5 695,-361.5 695,-342.5 598,-342.5"/>
<text text-anchor="middle" x="646.5" y="-349.5" font-family="Helvetica,sans-Serif" font-size="10.00">NonlinearOutput</text>
</a>
</g>
</g>
<!-- Node6&#45;&gt;Node25 -->
<g id="edge29" class="edge">
<title>Node6&#45;&gt;Node25</title>
<path fill="none" stroke="#9a32cd" stroke-dasharray="5,2" d="M210.14,-337.39C212.8,-337.62 215.44,-337.83 218,-338 355.62,-347.3 518.6,-350.47 597.68,-351.52"/>
<polygon fill="#9a32cd" stroke="#9a32cd" points="210.31,-333.89 200.03,-336.43 209.65,-340.86 210.31,-333.89"/>
<text text-anchor="middle" x="345.5" y="-360" font-family="Helvetica,sans-Serif" font-size="10.00"> fprefix</text>
<text text-anchor="middle" x="345.5" y="-349" font-family="Helvetica,sans-Serif" font-size="10.00">xprefix</text>
</g>
<!-- Node31 -->
<g id="node31" class="node">
<title>Node31</title>
<g id="a_node31"><a xlink:href="structReaktoro_1_1global_1_1InterpolationOptions.html" target="_top" xlink:title="A type used to describe all options related to interpolation.">
<polygon fill="white" stroke="black" points="588.5,-446.5 588.5,-465.5 704.5,-465.5 704.5,-446.5 588.5,-446.5"/>
<text text-anchor="middle" x="646.5" y="-453.5" font-family="Helvetica,sans-Serif" font-size="10.00">InterpolationOptions</text>
</a>
</g>
</g>
<!-- Node6&#45;&gt;Node31 -->
<g id="edge39" class="edge">
<title>Node6&#45;&gt;Node31</title>
<path fill="none" stroke="#9a32cd" stroke-dasharray="5,2" d="M193.55,-351.46C212.44,-372.78 247.57,-408.11 286,-425 385.36,-468.67 514.89,-467.43 588.24,-462.07"/>
<polygon fill="#9a32cd" stroke="#9a32cd" points="196.1,-349.06 186.92,-343.78 190.8,-353.63 196.1,-349.06"/>
<text text-anchor="middle" x="345.5" y="-470" font-family="Helvetica,sans-Serif" font-size="10.00"> pressure_units</text>
<text text-anchor="middle" x="345.5" y="-459" font-family="Helvetica,sans-Serif" font-size="10.00">temperature_units</text>
</g>
<!-- Node7 -->
<g id="node7" class="node">
<title>Node7</title>
<g id="a_node7"><a xlink:title="STL class.">
<polygon fill="white" stroke="#bfbfbf" points="0,-324.5 0,-343.5 119,-343.5 119,-324.5 0,-324.5"/>
<text text-anchor="middle" x="59.5" y="-331.5" font-family="Helvetica,sans-Serif" font-size="10.00">basic_string&lt; char &gt;</text>
</a>
</g>
</g>
<!-- Node7&#45;&gt;Node6 -->
<g id="edge6" class="edge">
<title>Node7&#45;&gt;Node6</title>
<path fill="none" stroke="midnightblue" d="M129.21,-334C138.82,-334 148.05,-334 155.78,-334"/>
<polygon fill="midnightblue" stroke="midnightblue" points="129.09,-330.5 119.09,-334 129.09,-337.5 129.09,-330.5"/>
</g>
<!-- Node8 -->
<g id="node8" class="node">
<title>Node8</title>
<g id="a_node8"><a xlink:href="structReaktoro_1_1EquilibriumOptions.html" target="_top" xlink:title="The options for the equilibrium calculations.">
<polygon fill="white" stroke="black" points="1062,-302.5 1062,-321.5 1172,-321.5 1172,-302.5 1062,-302.5"/>
<text text-anchor="middle" x="1117" y="-309.5" font-family="Helvetica,sans-Serif" font-size="10.00">EquilibriumOptions</text>
</a>
</g>
</g>
<!-- Node8&#45;&gt;Node1 -->
<g id="edge41" class="edge">
<title>Node8&#45;&gt;Node1</title>
<path fill="none" stroke="#9a32cd" stroke-dasharray="5,2" d="M1182.29,-303.56C1184.89,-303.35 1187.47,-303.16 1190,-303 1313.31,-295.32 1458.17,-322.34 1527.3,-337.46"/>
<polygon fill="#9a32cd" stroke="#9a32cd" points="1181.82,-300.09 1172.19,-304.49 1182.47,-307.06 1181.82,-300.09"/>
<text text-anchor="middle" x="1343.5" y="-318" font-family="Helvetica,sans-Serif" font-size="10.00"> equilibrium</text>
</g>
<!-- Node8&#45;&gt;Node3 -->
<g id="edge7" class="edge">
<title>Node8&#45;&gt;Node3</title>
<path fill="none" stroke="#9a32cd" stroke-dasharray="5,2" d="M1172.79,-324.1C1199.76,-331.07 1232.33,-341.05 1260,-354 1268.71,-358.08 1269.74,-361.09 1278,-366 1292.8,-374.8 1310.08,-383.85 1323.02,-390.39"/>
<polygon fill="#9a32cd" stroke="#9a32cd" points="1173.31,-320.62 1162.75,-321.57 1171.6,-327.41 1173.31,-320.62"/>
<text text-anchor="middle" x="1225" y="-357" font-family="Helvetica,sans-Serif" font-size="10.00"> equilibrium</text>
</g>
<!-- Node8&#45;&gt;Node27 -->
<g id="edge34" class="edge">
<title>Node8&#45;&gt;Node27</title>
<path fill="none" stroke="#9a32cd" stroke-dasharray="5,2" d="M1182.37,-307.27C1206.89,-306.82 1234.94,-307.95 1260,-313 1283.39,-317.72 1308.49,-329.06 1324.78,-337.35"/>
<polygon fill="#9a32cd" stroke="#9a32cd" points="1182,-303.78 1172.1,-307.56 1182.2,-310.78 1182,-303.78"/>
<text text-anchor="middle" x="1225" y="-316" font-family="Helvetica,sans-Serif" font-size="10.00"> equilibrium</text>
</g>
<!-- Node9 -->
<g id="node9" class="node">
<title>Node9</title>
<g id="a_node9"><a xlink:href="structReaktoro_1_1OptimumOptions.html" target="_top" xlink:title="A type that describes the options of a optimisation calculation.">
<polygon fill="white" stroke="black" points="857.5,-190.5 857.5,-209.5 957.5,-209.5 957.5,-190.5 857.5,-190.5"/>
<text text-anchor="middle" x="907.5" y="-197.5" font-family="Helvetica,sans-Serif" font-size="10.00">OptimumOptions</text>
</a>
</g>
</g>
<!-- Node9&#45;&gt;Node8 -->
<g id="edge8" class="edge">
<title>Node9&#45;&gt;Node8</title>
<path fill="none" stroke="#9a32cd" stroke-dasharray="5,2" d="M935.23,-214.43C978.31,-237.68 1061.95,-282.82 1098.35,-302.48"/>
<polygon fill="#9a32cd" stroke="#9a32cd" points="936.65,-211.22 926.19,-209.55 933.33,-217.38 936.65,-211.22"/>
<text text-anchor="middle" x="1019.5" y="-275" font-family="Helvetica,sans-Serif" font-size="10.00"> optimum</text>
</g>
<!-- Node10 -->
<g id="node10" class="node">
<title>Node10</title>
<g id="a_node10"><a xlink:href="structReaktoro_1_1OptimumParamsIpAction.html" target="_top" xlink:title=" ">
<polygon fill="white" stroke="black" points="577.5,-76.5 577.5,-95.5 715.5,-95.5 715.5,-76.5 577.5,-76.5"/>
<text text-anchor="middle" x="646.5" y="-83.5" font-family="Helvetica,sans-Serif" font-size="10.00">OptimumParamsIpAction</text>
</a>
</g>
</g>
<!-- Node10&#45;&gt;Node9 -->
<g id="edge9" class="edge">
<title>Node10&#45;&gt;Node9</title>
<path fill="none" stroke="#9a32cd" stroke-dasharray="5,2" d="M725.82,-96.46C756.35,-102.59 790.93,-112.17 820,-127 852.56,-143.61 883.47,-174.62 897.94,-190.34"/>
<polygon fill="#9a32cd" stroke="#9a32cd" points="726.11,-92.95 715.63,-94.51 724.79,-99.83 726.11,-92.95"/>
<text text-anchor="middle" x="784.5" y="-130" font-family="Helvetica,sans-Serif" font-size="10.00"> ipaction</text>
</g>
<!-- Node11 -->
<g id="node11" class="node">
<title>Node11</title>
<g id="a_node11"><a xlink:href="structReaktoro_1_1OptimumParamsIpOpt.html" target="_top" xlink:title=" ">
<polygon fill="white" stroke="black" points="584,-380.5 584,-399.5 709,-399.5 709,-380.5 584,-380.5"/>
<text text-anchor="middle" x="646.5" y="-387.5" font-family="Helvetica,sans-Serif" font-size="10.00">OptimumParamsIpOpt</text>
</a>
</g>
</g>
<!-- Node11&#45;&gt;Node9 -->
<g id="edge10" class="edge">
<title>Node11&#45;&gt;Node9</title>
<path fill="none" stroke="#9a32cd" stroke-dasharray="5,2" d="M718.84,-378.01C723.12,-376.02 727.22,-373.69 731,-371 743.35,-362.19 737.41,-351.79 749,-342 775.04,-320 792.92,-333.7 820,-313 830.21,-305.2 880.93,-235.48 899.59,-209.61"/>
<polygon fill="#9a32cd" stroke="#9a32cd" points="717.18,-374.91 709.21,-381.89 719.8,-381.4 717.18,-374.91"/>
<text text-anchor="middle" x="784.5" y="-345" font-family="Helvetica,sans-Serif" font-size="10.00"> ipopt</text>
</g>
<!-- Node12 -->
<g id="node12" class="node">
<title>Node12</title>
<g id="a_node12"><a xlink:title=" ">
<polygon fill="white" stroke="#bfbfbf" points="294,-396.5 294,-415.5 397,-415.5 397,-396.5 294,-396.5"/>
<text text-anchor="middle" x="345.5" y="-403.5" font-family="Helvetica,sans-Serif" font-size="10.00">vector&lt; double &gt;</text>
</a>
</g>
</g>
<!-- Node12&#45;&gt;Node11 -->
<g id="edge11" class="edge">
<title>Node12&#45;&gt;Node11</title>
<path fill="none" stroke="#9a32cd" stroke-dasharray="5,2" d="M385.58,-393.73C397.47,-390.56 410.66,-387.59 423,-386 477.03,-379.05 539.04,-380.97 583.85,-384.1"/>
<polygon fill="#9a32cd" stroke="#9a32cd" points="384.63,-390.36 375.94,-396.42 386.52,-397.1 384.63,-390.36"/>
<text text-anchor="middle" x="483.5" y="-389" font-family="Helvetica,sans-Serif" font-size="10.00"> mu</text>
</g>
<!-- Node12&#45;&gt;Node31 -->
<g id="edge40" class="edge">
<title>Node12&#45;&gt;Node31</title>
<path fill="none" stroke="#9a32cd" stroke-dasharray="5,2" d="M407.57,-406.09C446.89,-407.19 498.9,-410.59 544,-420 572.37,-425.92 603.59,-437.87 623.82,-446.38"/>
<polygon fill="#9a32cd" stroke="#9a32cd" points="407.43,-402.59 397.35,-405.85 407.26,-409.59 407.43,-402.59"/>
<text text-anchor="middle" x="483.5" y="-434" font-family="Helvetica,sans-Serif" font-size="10.00"> pressures</text>
<text text-anchor="middle" x="483.5" y="-423" font-family="Helvetica,sans-Serif" font-size="10.00">temperatures</text>
</g>
<!-- Node13 -->
<g id="node13" class="node">
<title>Node13</title>
<g id="a_node13"><a xlink:href="structReaktoro_1_1OptimumParamsIpActive.html" target="_top" xlink:title=" ">
<polygon fill="white" stroke="black" points="577.5,-0.5 577.5,-19.5 715.5,-19.5 715.5,-0.5 577.5,-0.5"/>
<text text-anchor="middle" x="646.5" y="-7.5" font-family="Helvetica,sans-Serif" font-size="10.00">OptimumParamsIpActive</text>
</a>
</g>
</g>
<!-- Node13&#45;&gt;Node9 -->
<g id="edge12" class="edge">
<title>Node13&#45;&gt;Node9</title>
<path fill="none" stroke="#9a32cd" stroke-dasharray="5,2" d="M726.05,-12.46C757.72,-16.81 793.06,-26.26 820,-46 871.7,-83.88 896.64,-162.55 904.05,-190.16"/>
<polygon fill="#9a32cd" stroke="#9a32cd" points="726.26,-8.96 715.91,-11.22 725.41,-15.91 726.26,-8.96"/>
<text text-anchor="middle" x="784.5" y="-49" font-family="Helvetica,sans-Serif" font-size="10.00"> ipactive</text>
</g>
<!-- Node14 -->
<g id="node14" class="node">
<title>Node14</title>
<g id="a_node14"><a xlink:href="structReaktoro_1_1OptimumParamsIpNewton.html" target="_top" xlink:title=" ">
<polygon fill="white" stroke="black" points="574,-304.5 574,-323.5 719,-323.5 719,-304.5 574,-304.5"/>
<text text-anchor="middle" x="646.5" y="-311.5" font-family="Helvetica,sans-Serif" font-size="10.00">OptimumParamsIpNewton</text>
</a>
</g>
</g>
<!-- Node14&#45;&gt;Node9 -->
<g id="edge13" class="edge">
<title>Node14&#45;&gt;Node9</title>
<path fill="none" stroke="#9a32cd" stroke-dasharray="5,2" d="M729.34,-303.39C758.99,-297.42 792.05,-288.19 820,-274 852.95,-257.27 883.92,-225.5 898.22,-209.58"/>
<polygon fill="#9a32cd" stroke="#9a32cd" points="728.58,-299.97 719.42,-305.3 729.9,-306.85 728.58,-299.97"/>
<text text-anchor="middle" x="784.5" y="-301" font-family="Helvetica,sans-Serif" font-size="10.00"> ipnewton</text>
</g>
<!-- Node15 -->
<g id="node15" class="node">
<title>Node15</title>
<g id="a_node15"><a xlink:href="structReaktoro_1_1KktOptions.html" target="_top" xlink:title="A type to describe the options for the KKT calculation.">
<polygon fill="white" stroke="black" points="611,-266.5 611,-285.5 682,-285.5 682,-266.5 611,-266.5"/>
<text text-anchor="middle" x="646.5" y="-273.5" font-family="Helvetica,sans-Serif" font-size="10.00">KktOptions</text>
</a>
</g>
</g>
<!-- Node15&#45;&gt;Node9 -->
<g id="edge14" class="edge">
<title>Node15&#45;&gt;Node9</title>
<path fill="none" stroke="#9a32cd" stroke-dasharray="5,2" d="M692.17,-269.98C727.46,-264.51 777.65,-255.1 820,-241 845.07,-232.65 872.37,-218.86 889.45,-209.6"/>
<polygon fill="#9a32cd" stroke="#9a32cd" points="691.54,-266.54 682.18,-271.49 692.59,-273.46 691.54,-266.54"/>
<text text-anchor="middle" x="784.5" y="-262" font-family="Helvetica,sans-Serif" font-size="10.00"> kkt</text>
</g>
<!-- Node16 -->
<g id="node16" class="node">
<title>Node16</title>
<g id="a_node16"><a xlink:href="structReaktoro_1_1OptimumParamsRegularization.html" target="_top" xlink:title="A type that describes the regularization options for the optimisation calculation.">
<polygon fill="white" stroke="black" points="562,-38.5 562,-57.5 731,-57.5 731,-38.5 562,-38.5"/>
<text text-anchor="middle" x="646.5" y="-45.5" font-family="Helvetica,sans-Serif" font-size="10.00">OptimumParamsRegularization</text>
</a>
</g>
</g>
<!-- Node16&#45;&gt;Node9 -->
<g id="edge15" class="edge">
<title>Node16&#45;&gt;Node9</title>
<path fill="none" stroke="#9a32cd" stroke-dasharray="5,2" d="M740.94,-57.57C767.99,-63.44 796.52,-72.87 820,-88 861.51,-114.75 891.16,-168.54 901.99,-190.42"/>
<polygon fill="#9a32cd" stroke="#9a32cd" points="741.55,-54.13 731.05,-55.57 740.16,-60.99 741.55,-54.13"/>
<text text-anchor="middle" x="784.5" y="-91" font-family="Helvetica,sans-Serif" font-size="10.00"> regularization</text>
</g>
<!-- Node17 -->
<g id="node17" class="node">
<title>Node17</title>
<g id="a_node17"><a xlink:href="structReaktoro_1_1RegularizerOptions.html" target="_top" xlink:title="A type that describes the options for regularizing linear constraints.">
<polygon fill="white" stroke="black" points="290.5,-38.5 290.5,-57.5 400.5,-57.5 400.5,-38.5 290.5,-38.5"/>
<text text-anchor="middle" x="345.5" y="-45.5" font-family="Helvetica,sans-Serif" font-size="10.00">RegularizerOptions</text>
</a>
</g>
</g>
<!-- Node17&#45;&gt;Node16 -->
<g id="edge16" class="edge">
<title>Node17&#45;&gt;Node16</title>
<path fill="none" stroke="midnightblue" d="M410.68,-48C454.86,-48 513.96,-48 561.83,-48"/>
<polygon fill="midnightblue" stroke="midnightblue" points="410.65,-44.5 400.65,-48 410.65,-51.5 410.65,-44.5"/>
</g>
<!-- Node18 -->
<g id="node18" class="node">
<title>Node18</title>
<g id="a_node18"><a xlink:href="structReaktoro_1_1OptimumParamsRefiner.html" target="_top" xlink:title=" ">
<polygon fill="white" stroke="black" points="580,-228.5 580,-247.5 713,-247.5 713,-228.5 580,-228.5"/>
<text text-anchor="middle" x="646.5" y="-235.5" font-family="Helvetica,sans-Serif" font-size="10.00">OptimumParamsRefiner</text>
</a>
</g>
</g>
<!-- Node18&#45;&gt;Node9 -->
<g id="edge17" class="edge">
<title>Node18&#45;&gt;Node9</title>
<path fill="none" stroke="#9a32cd" stroke-dasharray="5,2" d="M723.15,-228.56C753.32,-224.63 788.34,-219.85 820,-215 832.05,-213.15 845.02,-210.99 857.15,-208.9"/>
<polygon fill="#9a32cd" stroke="#9a32cd" points="722.58,-225.11 713.12,-229.86 723.48,-232.05 722.58,-225.11"/>
<text text-anchor="middle" x="784.5" y="-229" font-family="Helvetica,sans-Serif" font-size="10.00"> refiner</text>
</g>
<!-- Node19 -->
<g id="node19" class="node">
<title>Node19</title>
<g id="a_node19"><a xlink:href="structReaktoro_1_1OptimumParamsKarpov.html" target="_top" xlink:title=" ">
<polygon fill="white" stroke="black" points="580,-190.5 580,-209.5 713,-209.5 713,-190.5 580,-190.5"/>
<text text-anchor="middle" x="646.5" y="-197.5" font-family="Helvetica,sans-Serif" font-size="10.00">OptimumParamsKarpov</text>
</a>
</g>
</g>
<!-- Node19&#45;&gt;Node9 -->
<g id="edge18" class="edge">
<title>Node19&#45;&gt;Node9</title>
<path fill="none" stroke="#9a32cd" stroke-dasharray="5,2" d="M723.38,-200C766.57,-200 819.43,-200 857.23,-200"/>
<polygon fill="#9a32cd" stroke="#9a32cd" points="723.19,-196.5 713.19,-200 723.19,-203.5 723.19,-196.5"/>
<text text-anchor="middle" x="784.5" y="-203" font-family="Helvetica,sans-Serif" font-size="10.00"> karpov</text>
</g>
<!-- Node20 -->
<g id="node20" class="node">
<title>Node20</title>
<g id="a_node20"><a xlink:href="structReaktoro_1_1OptimumParamsActNewton.html" target="_top" xlink:title=" ">
<polygon fill="white" stroke="black" points="570.5,-152.5 570.5,-171.5 722.5,-171.5 722.5,-152.5 570.5,-152.5"/>
<text text-anchor="middle" x="646.5" y="-159.5" font-family="Helvetica,sans-Serif" font-size="10.00">OptimumParamsActNewton</text>
</a>
</g>
</g>
<!-- Node20&#45;&gt;Node9 -->
<g id="edge19" class="edge">
<title>Node20&#45;&gt;Node9</title>
<path fill="none" stroke="#9a32cd" stroke-dasharray="5,2" d="M732.83,-172.7C760.66,-176.38 791.67,-180.66 820,-185 832.05,-186.85 845.02,-189.01 857.15,-191.1"/>
<polygon fill="#9a32cd" stroke="#9a32cd" points="733.11,-169.21 722.74,-171.38 732.2,-176.15 733.11,-169.21"/>
<text text-anchor="middle" x="784.5" y="-188" font-family="Helvetica,sans-Serif" font-size="10.00"> actnewton</text>
</g>
<!-- Node21&#45;&gt;Node9 -->
<g id="edge20" class="edge">
<title>Node21&#45;&gt;Node9</title>
<path fill="none" stroke="#9a32cd" stroke-dasharray="5,2" d="M720.19,-135.37C751.35,-141.22 787.89,-149.38 820,-160 844.66,-168.16 871.61,-181.35 888.76,-190.34"/>
<polygon fill="#9a32cd" stroke="#9a32cd" points="720.74,-131.92 710.28,-133.56 719.48,-138.8 720.74,-131.92"/>
<text text-anchor="middle" x="784.5" y="-163" font-family="Helvetica,sans-Serif" font-size="10.00"> output</text>
</g>
<!-- Node22&#45;&gt;Node21 -->
<g id="edge21" class="edge">
<title>Node22&#45;&gt;Node21</title>
<path fill="none" stroke="midnightblue" d="M397.87,-213.83C439.05,-202.8 497.45,-184.23 544,-158 553.07,-152.89 552.67,-147.62 562,-143 569.86,-139.11 578.54,-136.01 587.23,-133.53"/>
<polygon fill="midnightblue" stroke="midnightblue" points="396.84,-210.48 388.05,-216.4 398.61,-217.25 396.84,-210.48"/>
</g>
<!-- Node22&#45;&gt;Node25 -->
<g id="edge28" class="edge">
<title>Node22&#45;&gt;Node25</title>
<path fill="none" stroke="midnightblue" d="M393.93,-214.64C438.27,-207.06 503.55,-204.15 544,-240 575.51,-267.92 532.72,-302.75 562,-333 571.41,-342.72 584.68,-347.93 597.88,-350.61"/>
<polygon fill="midnightblue" stroke="midnightblue" points="393.17,-211.22 383.97,-216.48 394.44,-218.1 393.17,-211.22"/>
</g>
<!-- Node23&#45;&gt;Node21 -->
<g id="edge24" class="edge">
<title>Node23&#45;&gt;Node21</title>
<path fill="none" stroke="#9a32cd" stroke-dasharray="5,2" d="M370.51,-291.05C385.47,-281.86 405.2,-269.97 423,-260 475.89,-230.36 504.65,-243.13 544,-197 560.42,-177.75 543.26,-159.99 562,-143 567.18,-138.31 573.27,-134.7 579.76,-131.93"/>
<polygon fill="#9a32cd" stroke="#9a32cd" points="368.54,-288.15 361.87,-296.38 372.22,-294.11 368.54,-288.15"/>
<text text-anchor="middle" x="483.5" y="-285" font-family="Helvetica,sans-Serif" font-size="10.00"> xnames</text>
<text text-anchor="middle" x="483.5" y="-274" font-family="Helvetica,sans-Serif" font-size="10.00">ynames</text>
<text text-anchor="middle" x="483.5" y="-263" font-family="Helvetica,sans-Serif" font-size="10.00">znames</text>
</g>
<!-- Node23&#45;&gt;Node25 -->
<g id="edge30" class="edge">
<title>Node23&#45;&gt;Node25</title>
<path fill="none" stroke="#9a32cd" stroke-dasharray="5,2" d="M415.06,-298.05C454.31,-296.24 503.63,-298.75 544,-316 554.12,-320.32 552.29,-327.82 562,-333 573.02,-338.88 585.79,-342.95 597.99,-345.76"/>
<polygon fill="#9a32cd" stroke="#9a32cd" points="414.84,-294.55 405.05,-298.61 415.23,-301.54 414.84,-294.55"/>
<text text-anchor="middle" x="483.5" y="-330" font-family="Helvetica,sans-Serif" font-size="10.00"> fnames</text>
<text text-anchor="middle" x="483.5" y="-319" font-family="Helvetica,sans-Serif" font-size="10.00">xnames</text>
</g>
<!-- Node24 -->
<g id="node24" class="node">
<title>Node24</title>
<g id="a_node24"><a xlink:href="structReaktoro_1_1NonlinearOptions.html" target="_top" xlink:title="A type that describes the options for the solution of a non&#45;linear problem.">
<polygon fill="white" stroke="black" points="857,-356.5 857,-375.5 958,-375.5 958,-356.5 857,-356.5"/>
<text text-anchor="middle" x="907.5" y="-363.5" font-family="Helvetica,sans-Serif" font-size="10.00">NonlinearOptions</text>
</a>
</g>
</g>
<!-- Node24&#45;&gt;Node8 -->
<g id="edge26" class="edge">
<title>Node24&#45;&gt;Node8</title>
<path fill="none" stroke="#9a32cd" stroke-dasharray="5,2" d="M954.82,-353.95C992.42,-344.16 1044.69,-330.56 1079.4,-321.53"/>
<polygon fill="#9a32cd" stroke="#9a32cd" points="953.92,-350.56 945.12,-356.47 955.68,-357.34 953.92,-350.56"/>
<text text-anchor="middle" x="1019.5" y="-345" font-family="Helvetica,sans-Serif" font-size="10.00"> nonlinear</text>
</g>
<!-- Node25&#45;&gt;Node24 -->
<g id="edge27" class="edge">
<title>Node25&#45;&gt;Node24</title>
<path fill="none" stroke="#9a32cd" stroke-dasharray="5,2" d="M705.01,-355.11C750.47,-357.57 813.3,-360.96 856.65,-363.31"/>
<polygon fill="#9a32cd" stroke="#9a32cd" points="705.18,-351.61 695,-354.57 704.8,-358.6 705.18,-351.61"/>
<text text-anchor="middle" x="784.5" y="-364" font-family="Helvetica,sans-Serif" font-size="10.00"> output</text>
</g>
<!-- Node26 -->
<g id="node26" class="node">
<title>Node26</title>
<g id="a_node26"><a xlink:href="structReaktoro_1_1SmartEquilibriumOptions.html" target="_top" xlink:title="The options for the smart equilibrium calculations.">
<polygon fill="white" stroke="black" points="838,-302.5 838,-321.5 977,-321.5 977,-302.5 838,-302.5"/>
<text text-anchor="middle" x="907.5" y="-309.5" font-family="Helvetica,sans-Serif" font-size="10.00">SmartEquilibriumOptions</text>
</a>
</g>
</g>
<!-- Node26&#45;&gt;Node8 -->
<g id="edge31" class="edge">
<title>Node26&#45;&gt;Node8</title>
<path fill="none" stroke="#9a32cd" stroke-dasharray="5,2" d="M987.16,-312C1012.01,-312 1038.91,-312 1061.67,-312"/>
<polygon fill="#9a32cd" stroke="#9a32cd" points="987.02,-308.5 977.02,-312 987.02,-315.5 987.02,-308.5"/>
<text text-anchor="middle" x="1019.5" y="-315" font-family="Helvetica,sans-Serif" font-size="10.00"> smart</text>
</g>
<!-- Node27&#45;&gt;Node1 -->
<g id="edge32" class="edge">
<title>Node27&#45;&gt;Node1</title>
<path fill="none" stroke="#9a32cd" stroke-dasharray="5,2" d="M1419.45,-347C1454.85,-347 1495.8,-347 1525.73,-347"/>
<polygon fill="#9a32cd" stroke="#9a32cd" points="1419.15,-343.5 1409.15,-347 1419.15,-350.5 1419.15,-343.5"/>
<text text-anchor="middle" x="1467.5" y="-350" font-family="Helvetica,sans-Serif" font-size="10.00"> equilibriumpath</text>
</g>
<!-- Node28 -->
<g id="node28" class="node">
<title>Node28</title>
<g id="a_node28"><a xlink:href="structReaktoro_1_1global_1_1AqueousOptions.html" target="_top" xlink:title="A type used to describe all options related to aqueous models.">
<polygon fill="white" stroke="black" points="1295.5,-223.5 1295.5,-242.5 1391.5,-242.5 1391.5,-223.5 1295.5,-223.5"/>
<text text-anchor="middle" x="1343.5" y="-230.5" font-family="Helvetica,sans-Serif" font-size="10.00">AqueousOptions</text>
</a>
</g>
</g>
<!-- Node28&#45;&gt;Node1 -->
<g id="edge35" class="edge">
<title>Node28&#45;&gt;Node1</title>
<path fill="none" stroke="#9a32cd" stroke-dasharray="5,2" d="M1401.78,-228.83C1435.12,-229.08 1476.63,-234.21 1508,-254 1539.85,-274.09 1558.1,-317.93 1564.91,-337.38"/>
<polygon fill="#9a32cd" stroke="#9a32cd" points="1401.69,-225.33 1391.71,-228.9 1401.74,-232.33 1401.69,-225.33"/>
<text text-anchor="middle" x="1467.5" y="-257" font-family="Helvetica,sans-Serif" font-size="10.00"> aqueous</text>
</g>
<!-- Node29 -->
<g id="node29" class="node">
<title>Node29</title>
<g id="a_node29"><a xlink:href="structReaktoro_1_1global_1_1AqueousOptions_1_1HKF.html" target="_top" xlink:title="A type used to describe all options related to HKF model.">
<polygon fill="white" stroke="black" points="1098.5,-195.5 1098.5,-214.5 1135.5,-214.5 1135.5,-195.5 1098.5,-195.5"/>
<text text-anchor="middle" x="1117" y="-202.5" font-family="Helvetica,sans-Serif" font-size="10.00">HKF</text>
</a>
</g>
</g>
<!-- Node29&#45;&gt;Node28 -->
<g id="edge36" class="edge">
<title>Node29&#45;&gt;Node28</title>
<path fill="none" stroke="#9a32cd" stroke-dasharray="5,2" d="M1146.04,-208.24C1174.69,-211.59 1220.47,-217 1260,-222 1271.47,-223.45 1283.83,-225.07 1295.4,-226.61"/>
<polygon fill="#9a32cd" stroke="#9a32cd" points="1146.28,-204.75 1135.94,-207.07 1145.47,-211.7 1146.28,-204.75"/>
<text text-anchor="middle" x="1225" y="-225" font-family="Helvetica,sans-Serif" font-size="10.00"> hkf</text>
</g>
<!-- Node30 -->
<g id="node30" class="node">
<title>Node30</title>
<g id="a_node30"><a xlink:href="structReaktoro_1_1global_1_1AqueousOptions_1_1DebyeHuckel.html" target="_top" xlink:title="A type used to describe all options related to Debye&#45;Huckel model.">
<polygon fill="white" stroke="black" points="1076.5,-233.5 1076.5,-252.5 1157.5,-252.5 1157.5,-233.5 1076.5,-233.5"/>
<text text-anchor="middle" x="1117" y="-240.5" font-family="Helvetica,sans-Serif" font-size="10.00">DebyeHuckel</text>
</a>
</g>
</g>
<!-- Node30&#45;&gt;Node28 -->
<g id="edge37" class="edge">
<title>Node30&#45;&gt;Node28</title>
<path fill="none" stroke="#9a32cd" stroke-dasharray="5,2" d="M1167.93,-240.78C1205.9,-239.08 1257.78,-236.77 1295.1,-235.11"/>
<polygon fill="#9a32cd" stroke="#9a32cd" points="1167.45,-237.29 1157.62,-241.24 1167.77,-244.29 1167.45,-237.29"/>
<text text-anchor="middle" x="1225" y="-243" font-family="Helvetica,sans-Serif" font-size="10.00"> debye_huckel</text>
</g>
<!-- Node31&#45;&gt;Node1 -->
<g id="edge38" class="edge">
<title>Node31&#45;&gt;Node1</title>
<path fill="none" stroke="#9a32cd" stroke-dasharray="5,2" d="M714.75,-456.99C847.98,-458 1154.6,-455.68 1409,-419 1453.81,-412.54 1467.36,-414.95 1508,-395 1528.12,-385.13 1547.67,-367.54 1558.74,-356.62"/>
<polygon fill="#9a32cd" stroke="#9a32cd" points="714.72,-453.49 704.69,-456.9 714.66,-460.48 714.72,-453.49"/>
<text text-anchor="middle" x="1117" y="-452" font-family="Helvetica,sans-Serif" font-size="10.00"> interpolation</text>
</g>
<!-- Node32 -->
<g id="node32" class="node">
<title>Node32</title>
<g id="a_node32"><a xlink:href="structReaktoro_1_1global_1_1DatabaseOptions.html" target="_top" xlink:title="A type used to describe all options related to database management.">
<polygon fill="white" stroke="black" points="1293,-185.5 1293,-204.5 1394,-204.5 1394,-185.5 1293,-185.5"/>
<text text-anchor="middle" x="1343.5" y="-192.5" font-family="Helvetica,sans-Serif" font-size="10.00">DatabaseOptions</text>
</a>
</g>
</g>
<!-- Node32&#45;&gt;Node1 -->
<g id="edge42" class="edge">
<title>Node32&#45;&gt;Node1</title>
<path fill="none" stroke="#9a32cd" stroke-dasharray="5,2" d="M1404.3,-189.21C1437.76,-189.05 1478.55,-194.32 1508,-216 1549.5,-246.55 1563.06,-312.76 1566.78,-337.46"/>
<polygon fill="#9a32cd" stroke="#9a32cd" points="1404.09,-185.72 1394.16,-189.42 1404.24,-192.71 1404.09,-185.72"/>
<text text-anchor="middle" x="1467.5" y="-219" font-family="Helvetica,sans-Serif" font-size="10.00"> database</text>
</g>
</g>
</svg>
        <g id="navigator" transform="translate(0 0)" fill="#404254">
                <rect fill="#f2f5e9" fill-opacity="0.5" stroke="#606060" stroke-width=".5" x="0" y="0" width="60" height="60"/>
                <use id="zoomplus" xlink:href="#zoomPlus" x="17" y="9" onmousedown="handleZoom(evt,'in')"/>
                <use id="zoomminus" xlink:href="#zoomMin" x="42" y="9" onmousedown="handleZoom(evt,'out')"/>
                <use id="reset" xlink:href="#resetDef" x="30" y="36" onmousedown="handleReset()"/>
                <g id="arrowUp" xlink:href="#dirArrow" transform="translate(30 24)" onmousedown="handlePan(0,-1)">
                  <use xlink:href="#rim" fill="#404040">
                        <set attributeName="fill" to="#808080" begin="arrowUp.mouseover" end="arrowUp.mouseout"/>
                  </use>
                  <path fill="none" stroke="white" stroke-width="1.5" d="M0,-3.0v7 M-2.5,-0.5L0,-3.0L2.5,-0.5"/>
                </g>
                <g id="arrowRight" xlink:href="#dirArrow" transform="rotate(90) translate(36 -43)" onmousedown="handlePan(1,0)">
                  <use xlink:href="#rim" fill="#404040">
                        <set attributeName="fill" to="#808080" begin="arrowRight.mouseover" end="arrowRight.mouseout"/>
                  </use>
                  <path fill="none" stroke="white" stroke-width="1.5" d="M0,-3.0v7 M-2.5,-0.5L0,-3.0L2.5,-0.5"/>
                </g>
                <g id="arrowDown" xlink:href="#dirArrow" transform="rotate(180) translate(-30 -48)" onmousedown="handlePan(0,1)">
                  <use xlink:href="#rim" fill="#404040">
                        <set attributeName="fill" to="#808080" begin="arrowDown.mouseover" end="arrowDown.mouseout"/>
                  </use>
                  <path fill="none" stroke="white" stroke-width="1.5" d="M0,-3.0v7 M-2.5,-0.5L0,-3.0L2.5,-0.5"/>
                </g>
                <g id="arrowLeft" xlink:href="#dirArrow" transform="rotate(270) translate(-36 17)" onmousedown="handlePan(-1,0)">
                  <use xlink:href="#rim" fill="#404040">
                        <set attributeName="fill" to="#808080" begin="arrowLeft.mouseover" end="arrowLeft.mouseout"/>
                  </use>
                  <path fill="none" stroke="white" stroke-width="1.5" d="M0,-3.0v7 M-2.5,-0.5L0,-3.0L2.5,-0.5"/>
                </g>
        </g>
        <svg viewBox="0 0 15 15" width="100%" height="30px" preserveAspectRatio="xMaxYMin meet">
         <g id="arrow_out" transform="scale(0.3 0.3)">
          <a xlink:href="structReaktoro_1_1global_1_1GlobalOptions__coll__graph_org.svg" target="_base">
           <rect id="button" ry="5" rx="5" y="6" x="6" height="38" width="38"
                fill="#f2f5e9" fill-opacity="0.5" stroke="#606060" stroke-width="1.0"/>
           <path id="arrow"
             d="M 11.500037,31.436501 C 11.940474,20.09759 22.043105,11.32322 32.158766,21.979434 L 37.068811,17.246167 C 37.068811,17.246167 37.088388,32 37.088388,32 L 22.160133,31.978069 C 22.160133,31.978069 26.997745,27.140456 26.997745,27.140456 C 18.528582,18.264221 13.291696,25.230495 11.500037,31.436501 z"
             style="fill:#404040;"/>
          </a>
         </g>
        </svg>
</svg>
