<?xml version="1.0" encoding="UTF-8" standalone="no"?>
<!DOCTYPE svg PUBLIC "-//W3C//DTD SVG 1.1//EN"
 "http://www.w3.org/Graphics/SVG/1.1/DTD/svg11.dtd">
<!-- Generated by graphviz version 3.0.0 (20220226.1711)
 -->
<!-- Title: CubicEOS::Result Pages: 1 -->
<svg width="372pt" height="200pt"
 viewBox="0.00 0.00 372.00 200.00" xmlns="http://www.w3.org/2000/svg" xmlns:xlink="http://www.w3.org/1999/xlink">
<g id="graph0" class="graph" transform="scale(1 1) rotate(0) translate(4 196)">
<title>CubicEOS::Result</title>
<polygon fill="white" stroke="transparent" points="-4,4 -4,-196 368,-196 368,4 -4,4"/>
<!-- Node1 -->
<g id="node1" class="node">
<title>Node1</title>
<g id="a_node1"><a xlink:title=" ">
<polygon fill="#bfbfbf" stroke="black" points="266,-55.5 266,-74.5 364,-74.5 364,-55.5 266,-55.5"/>
<text text-anchor="middle" x="315" y="-62.5" font-family="Helvetica,sans-Serif" font-size="10.00">CubicEOS::Result</text>
</a>
</g>
</g>
<!-- Node2 -->
<g id="node2" class="node">
<title>Node2</title>
<g id="a_node2"><a xlink:href="classReaktoro_1_1ChemicalScalarBase.html" target="_top" xlink:title=" ">
<polygon fill="white" stroke="black" points="3,-95 3,-125 121,-125 121,-95 3,-95"/>
<text text-anchor="start" x="11" y="-113" font-family="Helvetica,sans-Serif" font-size="10.00">ChemicalScalarBase</text>
<text text-anchor="middle" x="62" y="-102" font-family="Helvetica,sans-Serif" font-size="10.00">&lt; double, RowVector &gt;</text>
</a>
</g>
</g>
<!-- Node2&#45;&gt;Node1 -->
<g id="edge1" class="edge">
<title>Node2&#45;&gt;Node1</title>
<path fill="none" stroke="#9a32cd" stroke-dasharray="5,2" d="M131.22,-105.45C166.41,-102.2 209.85,-96.81 248,-88 262.42,-84.67 278.09,-79.29 290.54,-74.57"/>
<polygon fill="#9a32cd" stroke="#9a32cd" points="130.71,-101.98 121.05,-106.34 131.32,-108.95 130.71,-101.98"/>
<text text-anchor="middle" x="195" y="-184" font-family="Helvetica,sans-Serif" font-size="10.00"> molar_volume</text>
<text text-anchor="middle" x="195" y="-173" font-family="Helvetica,sans-Serif" font-size="10.00">residual_molar_enthalpy</text>
<text text-anchor="start" x="142" y="-162" font-family="Helvetica,sans-Serif" font-size="10.00">residual_molar_gibbs</text>
<text text-anchor="middle" x="195" y="-151" font-family="Helvetica,sans-Serif" font-size="10.00">_energy</text>
<text text-anchor="start" x="142" y="-140" font-family="Helvetica,sans-Serif" font-size="10.00">residual_molar_heat</text>
<text text-anchor="middle" x="195" y="-129" font-family="Helvetica,sans-Serif" font-size="10.00">_capacity_cp</text>
<text text-anchor="start" x="142" y="-118" font-family="Helvetica,sans-Serif" font-size="10.00">residual_molar_heat</text>
<text text-anchor="middle" x="195" y="-107" font-family="Helvetica,sans-Serif" font-size="10.00">_capacity_cv</text>
</g>
<!-- Node3 -->
<g id="node3" class="node">
<title>Node3</title>
<g id="a_node3"><a xlink:href="classReaktoro_1_1ChemicalVectorBase.html" target="_top" xlink:title=" ">
<polygon fill="white" stroke="black" points="0,-0.5 0,-41.5 124,-41.5 124,-0.5 0,-0.5"/>
<text text-anchor="start" x="8" y="-29.5" font-family="Helvetica,sans-Serif" font-size="10.00">ChemicalVectorBase</text>
<text text-anchor="start" x="8" y="-18.5" font-family="Helvetica,sans-Serif" font-size="10.00">&lt; Vector, Vector, Vector,</text>
<text text-anchor="middle" x="62" y="-7.5" font-family="Helvetica,sans-Serif" font-size="10.00"> Matrix &gt;</text>
</a>
</g>
</g>
<!-- Node3&#45;&gt;Node1 -->
<g id="edge2" class="edge">
<title>Node3&#45;&gt;Node1</title>
<path fill="none" stroke="#9a32cd" stroke-dasharray="5,2" d="M134.39,-12.08C169.33,-10.04 211.6,-11.08 248,-22 269.74,-28.52 291.04,-44.67 303.33,-55.21"/>
<polygon fill="#9a32cd" stroke="#9a32cd" points="134.01,-8.6 124.27,-12.77 134.48,-15.58 134.01,-8.6"/>
<text text-anchor="middle" x="195" y="-80" font-family="Helvetica,sans-Serif" font-size="10.00"> ln_fugacity_coefficients</text>
<text text-anchor="middle" x="195" y="-69" font-family="Helvetica,sans-Serif" font-size="10.00">partial_molar_volumes</text>
<text text-anchor="start" x="142" y="-58" font-family="Helvetica,sans-Serif" font-size="10.00">residual_partial_molar</text>
<text text-anchor="middle" x="195" y="-47" font-family="Helvetica,sans-Serif" font-size="10.00">_enthalpies</text>
<text text-anchor="start" x="142" y="-36" font-family="Helvetica,sans-Serif" font-size="10.00">residual_partial_molar</text>
<text text-anchor="middle" x="195" y="-25" font-family="Helvetica,sans-Serif" font-size="10.00">_gibbs_energies</text>
</g>
</g>
</svg>
