<?xml version="1.0" encoding="UTF-8" standalone="no"?>
<!DOCTYPE svg PUBLIC "-//W3C//DTD SVG 1.1//EN"
 "http://www.w3.org/Graphics/SVG/1.1/DTD/svg11.dtd">
<!-- Generated by graphviz version 2.42.3 (20191010.1750)
 -->
<!-- Title: ReactionThermoInterpolatedProperties Pages: 1 -->
<svg width="323pt" height="283pt"
 viewBox="0.00 0.00 323.00 283.00" xmlns="http://www.w3.org/2000/svg" xmlns:xlink="http://www.w3.org/1999/xlink">
<g id="graph0" class="graph" transform="scale(1 1) rotate(0) translate(4 279)">
<title>ReactionThermoInterpolatedProperties</title>
<polygon fill="white" stroke="transparent" points="-4,4 -4,-279 319,-279 319,4 -4,4"/>
<!-- Node1 -->
<g id="node1" class="node">
<title>Node1</title>
<g id="a_node1"><a xlink:title="A type for storing thermodynamic properties of a reaction over a range of temperatures and pressures.">
<polygon fill="#bfbfbf" stroke="black" points="65,-0.5 65,-30.5 205,-30.5 205,-0.5 65,-0.5"/>
<text text-anchor="start" x="73" y="-18.5" font-family="Helvetica,sans-Serif" font-size="10.00">ReactionThermoInterpolated</text>
<text text-anchor="middle" x="135" y="-7.5" font-family="Helvetica,sans-Serif" font-size="10.00">Properties</text>
</a>
</g>
</g>
<!-- Node2 -->
<g id="node2" class="node">
<title>Node2</title>
<g id="a_node2"><a xlink:href="structReaktoro_1_1SpeciesThermoInterpolatedProperties.html" target="_top" xlink:title="A type for storing thermodynamic properties of a species over a range of temperatures and pressures.">
<polygon fill="white" stroke="black" points="67,-78.5 67,-108.5 203,-108.5 203,-78.5 67,-78.5"/>
<text text-anchor="start" x="75" y="-96.5" font-family="Helvetica,sans-Serif" font-size="10.00">SpeciesThermoInterpolated</text>
<text text-anchor="middle" x="135" y="-85.5" font-family="Helvetica,sans-Serif" font-size="10.00">Properties</text>
</a>
</g>
</g>
<!-- Node2&#45;&gt;Node1 -->
<g id="edge1" class="edge">
<title>Node2&#45;&gt;Node1</title>
<path fill="none" stroke="midnightblue" d="M135,-68.09C135,-55.76 135,-41.22 135,-30.73"/>
<polygon fill="midnightblue" stroke="midnightblue" points="131.5,-68.2 135,-78.2 138.5,-68.21 131.5,-68.2"/>
</g>
<!-- Node3 -->
<g id="node3" class="node">
<title>Node3</title>
<g id="a_node3"><a xlink:href="classReaktoro_1_1BilinearInterpolator.html" target="_top" xlink:title="A class used to calculate bilinear interpolation of data in two dimensions.">
<polygon fill="white" stroke="black" points="0,-255.5 0,-274.5 98,-274.5 98,-255.5 0,-255.5"/>
<text text-anchor="middle" x="49" y="-262.5" font-family="Helvetica,sans-Serif" font-size="10.00">BilinearInterpolator</text>
</a>
</g>
</g>
<!-- Node3&#45;&gt;Node1 -->
<g id="edge3" class="edge">
<title>Node3&#45;&gt;Node1</title>
<path fill="none" stroke="#9a32cd" stroke-dasharray="5,2" d="M42.43,-245.29C31.29,-210.11 12.59,-132.7 42,-78 53.82,-56.01 77.35,-40.56 97.77,-30.65"/>
<polygon fill="#9a32cd" stroke="#9a32cd" points="39.23,-246.77 45.72,-255.15 45.88,-244.56 39.23,-246.77"/>
<text text-anchor="middle" x="50" y="-91" font-family="Helvetica,sans-Serif" font-size="10.00"> lnk</text>
</g>
<!-- Node3&#45;&gt;Node2 -->
<g id="edge2" class="edge">
<title>Node3&#45;&gt;Node2</title>
<path fill="none" stroke="#9a32cd" stroke-dasharray="5,2" d="M58.03,-246.2C75.21,-212.33 112.28,-139.27 127.87,-108.56"/>
<polygon fill="#9a32cd" stroke="#9a32cd" points="54.79,-244.86 53.38,-255.36 61.03,-248.03 54.79,-244.86"/>
<text text-anchor="middle" x="155.5" y="-229" font-family="Helvetica,sans-Serif" font-size="10.00"> enthalpy</text>
<text text-anchor="middle" x="155.5" y="-218" font-family="Helvetica,sans-Serif" font-size="10.00">entropy</text>
<text text-anchor="middle" x="155.5" y="-207" font-family="Helvetica,sans-Serif" font-size="10.00">gibbs_energy</text>
<text text-anchor="start" x="117" y="-196" font-family="Helvetica,sans-Serif" font-size="10.00">heat_capacity</text>
<text text-anchor="middle" x="155.5" y="-185" font-family="Helvetica,sans-Serif" font-size="10.00">_cp</text>
<text text-anchor="start" x="117" y="-174" font-family="Helvetica,sans-Serif" font-size="10.00">heat_capacity</text>
<text text-anchor="middle" x="155.5" y="-163" font-family="Helvetica,sans-Serif" font-size="10.00">_cv</text>
<text text-anchor="middle" x="155.5" y="-152" font-family="Helvetica,sans-Serif" font-size="10.00">helmholtz_energy</text>
<text text-anchor="middle" x="155.5" y="-141" font-family="Helvetica,sans-Serif" font-size="10.00">internal_energy</text>
<text text-anchor="middle" x="155.5" y="-130" font-family="Helvetica,sans-Serif" font-size="10.00">volume</text>
</g>
<!-- Node4 -->
<g id="node4" class="node">
<title>Node4</title>
<g id="a_node4"><a xlink:href="classReaktoro_1_1ReactionEquation.html" target="_top" xlink:title="Define a type that describes the equation of a reaction.">
<polygon fill="white" stroke="black" points="221,-84 221,-103 315,-103 315,-84 221,-84"/>
<text text-anchor="middle" x="268" y="-91" font-family="Helvetica,sans-Serif" font-size="10.00">ReactionEquation</text>
</a>
</g>
</g>
<!-- Node4&#45;&gt;Node1 -->
<g id="edge4" class="edge">
<title>Node4&#45;&gt;Node1</title>
<path fill="none" stroke="#9a32cd" stroke-dasharray="5,2" d="M244.23,-78.92C220.38,-65.29 183.8,-44.39 159.64,-30.58"/>
<polygon fill="#9a32cd" stroke="#9a32cd" points="242.58,-82.01 253,-83.93 246.06,-75.93 242.58,-82.01"/>
<text text-anchor="middle" x="230" y="-52" font-family="Helvetica,sans-Serif" font-size="10.00"> equation</text>
</g>
</g>
</svg>
