<?xml version="1.0" encoding="UTF-8" standalone="no"?>
<!DOCTYPE svg PUBLIC "-//W3C//DTD SVG 1.1//EN"
 "http://www.w3.org/Graphics/SVG/1.1/DTD/svg11.dtd">
<!-- Generated by graphviz version 8.0.5 (20230506.1012)
 -->
<!-- Title: EquilibriumProblem Pages: 1 -->
<svg width="278pt" height="88pt"
 viewBox="0.00 0.00 278.25 87.50" xmlns="http://www.w3.org/2000/svg" xmlns:xlink="http://www.w3.org/1999/xlink">
<g id="graph0" class="graph" transform="scale(1 1) rotate(0) translate(4 83.5)">
<title>EquilibriumProblem</title>
<!-- Node1 -->
<g id="node1" class="node">
<title>Node1</title>
<g id="a_node1"><a xlink:title="The class used to define chemical equilibrium problems.">
<polygon fill="#bfbfbf" stroke="black" points="77.62,-0.5 77.62,-21.25 189.62,-21.25 189.62,-0.5 77.62,-0.5"/>
<text text-anchor="middle" x="133.62" y="-7.75" font-family="Helvetica,sans-Serif" font-size="10.00">EquilibriumProblem</text>
</a>
</g>
</g>
<!-- Node2 -->
<g id="node2" class="node">
<title>Node2</title>
<g id="a_node2"><a xlink:href="classReaktoro_1_1EquilibriumConditions.html" target="_top" xlink:title="The class used to define conditions to be satisfied at chemical equilibrium.">
<polygon fill="none" stroke="black" points="0,-58.25 0,-79 123.25,-79 123.25,-58.25 0,-58.25"/>
<text text-anchor="middle" x="61.62" y="-65.5" font-family="Helvetica,sans-Serif" font-size="10.00">EquilibriumConditions</text>
</a>
</g>
</g>
<!-- Node2&#45;&gt;Node1 -->
<g id="edge1" class="edge">
<title>Node2&#45;&gt;Node1</title>
<path fill="none" stroke="midnightblue" d="M82.2,-51.69C95.09,-41.71 111.23,-29.21 121.96,-20.91"/>
<polygon fill="midnightblue" stroke="midnightblue" points="80.28,-49.53 74.51,-58.42 84.56,-55.06 80.28,-49.53"/>
</g>
<!-- Node3 -->
<g id="node3" class="node">
<title>Node3</title>
<g id="a_node3"><a xlink:href="classReaktoro_1_1EquilibriumRestrictions.html" target="_top" xlink:title="The class used to define reactivity restrictions in a chemical equilibrium calculation.">
<polygon fill="none" stroke="black" points="141,-58.25 141,-79 270.25,-79 270.25,-58.25 141,-58.25"/>
<text text-anchor="middle" x="205.62" y="-65.5" font-family="Helvetica,sans-Serif" font-size="10.00">EquilibriumRestrictions</text>
</a>
</g>
</g>
<!-- Node3&#45;&gt;Node1 -->
<g id="edge2" class="edge">
<title>Node3&#45;&gt;Node1</title>
<path fill="none" stroke="midnightblue" d="M185.05,-51.69C172.16,-41.71 156.02,-29.21 145.29,-20.91"/>
<polygon fill="midnightblue" stroke="midnightblue" points="182.69,-55.06 192.74,-58.42 186.97,-49.53 182.69,-55.06"/>
</g>
</g>
</svg>
