<?xml version="1.0" encoding="UTF-8" standalone="no"?>
<!DOCTYPE svg PUBLIC "-//W3C//DTD SVG 1.1//EN"
 "http://www.w3.org/Graphics/SVG/1.1/DTD/svg11.dtd">
<!-- Generated by graphviz version 8.0.5 (20230506.1012)
 -->
<!-- Title: Models Pages: 1 -->
<svg width="237pt" height="171pt"
 viewBox="0.00 0.00 237.25 170.75" xmlns="http://www.w3.org/2000/svg" xmlns:xlink="http://www.w3.org/1999/xlink">
<g id="graph0" class="graph" transform="scale(1 1) rotate(0) translate(4 166.75)">
<title>Models</title>
<!-- Node2 -->
<g id="node1" class="node">
<title>Node2</title>
<g id="a_node1"><a xlink:href="group__ActivityModels.html" target="_top" xlink:title="The module in Reaktoro in which activity models for phases are implemented.">
<polygon fill="none" stroke="black" points="204.12,-162.75 112.38,-162.75 112.38,-142 204.12,-142 204.12,-162.75"/>
<text text-anchor="middle" x="158.25" y="-149.25" font-family="Helvetica,sans-Serif" font-size="10.00">Activity Models</text>
</a>
</g>
</g>
<!-- Node3 -->
<g id="node2" class="node">
<title>Node3</title>
<g id="a_node2"><a xlink:href="group__ReactionRateModels.html" target="_top" xlink:title="The module in Reaktoro in which kinetic rate models for reactions are implemented.">
<polygon fill="none" stroke="black" points="221.75,-124.12 94.75,-124.12 94.75,-90.62 221.75,-90.62 221.75,-124.12"/>
<text text-anchor="start" x="102.75" y="-110.62" font-family="Helvetica,sans-Serif" font-size="10.00">Reaction ReactionRate</text>
<text text-anchor="middle" x="158.25" y="-97.88" font-family="Helvetica,sans-Serif" font-size="10.00"> Models</text>
</a>
</g>
</g>
<!-- Node1 -->
<g id="node3" class="node">
<title>Node1</title>
<g id="a_node3"><a xlink:title="The module in Reaktoro in which various thermodynamic and reaction models are implemented.">
<polygon fill="#bfbfbf" stroke="black" points="51.25,-91.75 0,-91.75 0,-71 51.25,-71 51.25,-91.75"/>
<text text-anchor="middle" x="25.62" y="-78.25" font-family="Helvetica,sans-Serif" font-size="10.00">Models</text>
</a>
</g>
</g>
<!-- Node1&#45;&gt;Node2 -->
<g id="edge1" class="edge">
<title>Node1&#45;&gt;Node2</title>
<path fill="none" stroke="black" d="M43.73,-99.73C55.09,-110.93 70.88,-124.71 87.25,-133.38 94.93,-137.44 103.55,-140.7 112.06,-143.28"/>
<polygon fill="black" stroke="black" points="46.79,-97.84 37.29,-93.14 41.79,-102.73 46.79,-97.84"/>
</g>
<!-- Node1&#45;&gt;Node3 -->
<g id="edge2" class="edge">
<title>Node1&#45;&gt;Node3</title>
<path fill="none" stroke="black" d="M62.22,-88.46C72.22,-90.45 83.4,-92.67 94.48,-94.88"/>
<polygon fill="black" stroke="black" points="62.99,-84.85 52.5,-86.33 61.63,-91.71 62.99,-84.85"/>
</g>
<!-- Node4 -->
<g id="node4" class="node">
<title>Node4</title>
<g id="a_node4"><a xlink:href="group__StandardThermoModels.html" target="_top" xlink:title="The module in Reaktoro in which standard thermodynamic models for species and reactions are implement...">
<polygon fill="none" stroke="black" points="229.25,-72.12 87.25,-72.12 87.25,-38.62 229.25,-38.62 229.25,-72.12"/>
<text text-anchor="start" x="95.25" y="-58.62" font-family="Helvetica,sans-Serif" font-size="10.00">Standard Thermodynamic</text>
<text text-anchor="middle" x="158.25" y="-45.88" font-family="Helvetica,sans-Serif" font-size="10.00"> Models</text>
</a>
</g>
</g>
<!-- Node1&#45;&gt;Node4 -->
<g id="edge3" class="edge">
<title>Node1&#45;&gt;Node4</title>
<path fill="none" stroke="black" d="M62.19,-74.3C69.88,-72.77 78.26,-71.1 86.76,-69.41"/>
<polygon fill="black" stroke="black" points="61.63,-71.04 52.5,-76.42 62.99,-77.9 61.63,-71.04"/>
</g>
<!-- Node5 -->
<g id="node5" class="node">
<title>Node5</title>
<g id="a_node5"><a xlink:href="group__SurfaceAreaModels.html" target="_top" xlink:title="The module in Reaktoro in which surface area models are implemented.">
<polygon fill="none" stroke="black" points="216.5,-20.75 100,-20.75 100,0 216.5,0 216.5,-20.75"/>
<text text-anchor="middle" x="158.25" y="-7.25" font-family="Helvetica,sans-Serif" font-size="10.00">Surface Area Models</text>
</a>
</g>
</g>
<!-- Node1&#45;&gt;Node5 -->
<g id="edge4" class="edge">
<title>Node1&#45;&gt;Node5</title>
<path fill="none" stroke="black" d="M43.73,-63.02C55.09,-51.82 70.88,-38.04 87.25,-29.38 93.37,-26.13 100.09,-23.41 106.87,-21.13"/>
<polygon fill="black" stroke="black" points="41.79,-60.02 37.29,-69.61 46.79,-64.91 41.79,-60.02"/>
</g>
</g>
</svg>
