<?xml version="1.0" encoding="UTF-8" standalone="no"?>
<!DOCTYPE svg PUBLIC "-//W3C//DTD SVG 1.1//EN"
 "http://www.w3.org/Graphics/SVG/1.1/DTD/svg11.dtd">
<!-- Generated by graphviz version 7.1.0 (20230122.1345)
 -->
<!-- Title: Models Pages: 1 -->
<svg width="239pt" height="161pt"
 viewBox="0.00 0.00 239.00 161.00" xmlns="http://www.w3.org/2000/svg" xmlns:xlink="http://www.w3.org/1999/xlink">
<g id="graph0" class="graph" transform="scale(1 1) rotate(0) translate(4 157)">
<title>Models</title>
<!-- Node2 -->
<g id="node1" class="node">
<title>Node2</title>
<g id="a_node1"><a xlink:href="group__ActivityModels.html" target="_top" xlink:title="The module in Reaktoro in which activity models for phases are implemented.">
<polygon fill="none" stroke="black" points="205.5,-153 113.5,-153 113.5,-134 205.5,-134 205.5,-153"/>
<text text-anchor="middle" x="159.5" y="-141" font-family="Helvetica,sans-Serif" font-size="10.00">Activity Models</text>
</a>
</g>
</g>
<!-- Node3 -->
<g id="node2" class="node">
<title>Node3</title>
<g id="a_node2"><a xlink:href="group__ReactionRateModels.html" target="_top" xlink:title="The module in Reaktoro in which kinetic rate models for reactions are implemented.">
<polygon fill="none" stroke="black" points="223.5,-115.5 95.5,-115.5 95.5,-85.5 223.5,-85.5 223.5,-115.5"/>
<text text-anchor="start" x="103.5" y="-103.5" font-family="Helvetica,sans-Serif" font-size="10.00">Reaction ReactionRate</text>
<text text-anchor="middle" x="159.5" y="-92.5" font-family="Helvetica,sans-Serif" font-size="10.00"> Models</text>
</a>
</g>
</g>
<!-- Node1 -->
<g id="node3" class="node">
<title>Node1</title>
<g id="a_node3"><a xlink:title="The module in Reaktoro in which various thermodynamic and reaction models are implemented.">
<polygon fill="#bfbfbf" stroke="black" points="52,-86 0,-86 0,-67 52,-67 52,-86"/>
<text text-anchor="middle" x="26" y="-74" font-family="Helvetica,sans-Serif" font-size="10.00">Models</text>
</a>
</g>
</g>
<!-- Node1&#45;&gt;Node2 -->
<g id="edge1" class="edge">
<title>Node1&#45;&gt;Node2</title>
<path fill="none" stroke="black" d="M45.15,-94C56.62,-104.2 72.22,-116.59 88,-124.5 95.82,-128.42 104.54,-131.61 113.12,-134.17"/>
<polygon fill="black" stroke="black" points="47.74,-91.63 38.02,-87.43 43,-96.78 47.74,-91.63"/>
</g>
<!-- Node1&#45;&gt;Node3 -->
<g id="edge2" class="edge">
<title>Node1&#45;&gt;Node3</title>
<path fill="none" stroke="black" d="M63.66,-83.19C73.42,-84.97 84.26,-86.95 95.01,-88.91"/>
<polygon fill="black" stroke="black" points="64.31,-79.75 53.84,-81.4 63.05,-86.64 64.31,-79.75"/>
</g>
<!-- Node4 -->
<g id="node4" class="node">
<title>Node4</title>
<g id="a_node4"><a xlink:href="group__StandardThermoModels.html" target="_top" xlink:title="The module in Reaktoro in which standard thermodynamic models for species and reactions are implement...">
<polygon fill="none" stroke="black" points="231,-67.5 88,-67.5 88,-37.5 231,-37.5 231,-67.5"/>
<text text-anchor="start" x="96" y="-55.5" font-family="Helvetica,sans-Serif" font-size="10.00">Standard Thermodynamic</text>
<text text-anchor="middle" x="159.5" y="-44.5" font-family="Helvetica,sans-Serif" font-size="10.00"> Models</text>
</a>
</g>
</g>
<!-- Node1&#45;&gt;Node4 -->
<g id="edge3" class="edge">
<title>Node1&#45;&gt;Node4</title>
<path fill="none" stroke="black" d="M63.58,-69.82C71.1,-68.45 79.27,-66.96 87.54,-65.45"/>
<polygon fill="black" stroke="black" points="63.05,-66.36 53.84,-71.6 64.31,-73.25 63.05,-66.36"/>
</g>
<!-- Node5 -->
<g id="node5" class="node">
<title>Node5</title>
<g id="a_node5"><a xlink:href="group__SurfaceAreaModels.html" target="_top" xlink:title="The module in Reaktoro in which surface area models are implemented.">
<polygon fill="none" stroke="black" points="218,-19 101,-19 101,0 218,0 218,-19"/>
<text text-anchor="middle" x="159.5" y="-7" font-family="Helvetica,sans-Serif" font-size="10.00">Surface Area Models</text>
</a>
</g>
</g>
<!-- Node1&#45;&gt;Node5 -->
<g id="edge4" class="edge">
<title>Node1&#45;&gt;Node5</title>
<path fill="none" stroke="black" d="M45.15,-59C56.62,-48.8 72.22,-36.41 88,-28.5 95.25,-24.86 103.28,-21.86 111.25,-19.39"/>
<polygon fill="black" stroke="black" points="43,-56.22 38.02,-65.57 47.74,-61.37 43,-56.22"/>
</g>
</g>
</svg>
