<?xml version="1.0" encoding="UTF-8" standalone="no"?>
<!DOCTYPE svg PUBLIC "-//W3C//DTD SVG 1.1//EN"
 "http://www.w3.org/Graphics/SVG/1.1/DTD/svg11.dtd">
<!-- Generated by graphviz version 2.50.0 (20220117.2223)
 -->
<!-- Title: Species::Attribs Pages: 1 -->
<svg width="685pt" height="223pt"
 viewBox="0.00 0.00 685.00 222.50" xmlns="http://www.w3.org/2000/svg" xmlns:xlink="http://www.w3.org/1999/xlink">
<g id="graph0" class="graph" transform="scale(1 1) rotate(0) translate(4 218.5)">
<title>Species::Attribs</title>
<!-- Node1 -->
<g id="node1" class="node">
<title>Node1</title>
<g id="a_node1"><a xlink:title="The attributes of a Species object.">
<polygon fill="#bfbfbf" stroke="black" points="585,-96 585,-115 677,-115 677,-96 585,-96"/>
<text text-anchor="middle" x="631" y="-103" font-family="Helvetica,sans-Serif" font-size="10.00">Species::Attribs</text>
</a>
</g>
</g>
<!-- Node2 -->
<g id="node2" class="node">
<title>Node2</title>
<g id="a_node2"><a xlink:href="classReaktoro_1_1ElementalComposition.html" target="_top" xlink:title="A type used to describe the elemental composition of chemical species.">
<polygon fill="none" stroke="black" points="305,-195 305,-214 433,-214 433,-195 305,-195"/>
<text text-anchor="middle" x="369" y="-202" font-family="Helvetica,sans-Serif" font-size="10.00">ElementalComposition</text>
</a>
</g>
</g>
<!-- Node2&#45;&gt;Node1 -->
<g id="edge1" class="edge">
<title>Node2&#45;&gt;Node1</title>
<path fill="none" stroke="#9a32cd" stroke-dasharray="5,2" d="M443.29,-194.16C481.57,-186.84 528.36,-174.79 567,-155.5 588.24,-144.9 609.05,-126.33 620.64,-115.05"/>
<polygon fill="#9a32cd" stroke="#9a32cd" points="442.44,-190.76 433.24,-196.01 443.71,-197.64 442.44,-190.76"/>
<text text-anchor="middle" x="518.5" y="-190.5" font-family="Helvetica,sans-Serif" font-size="10.00"> elements</text>
</g>
<!-- Node3 -->
<g id="node3" class="node">
<title>Node3</title>
<g id="a_node3"><a xlink:href="classReaktoro_1_1FormationReaction.html" target="_top" xlink:title="A class to represent a formation reaction of a chemical species.">
<polygon fill="none" stroke="black" points="314.5,-157 314.5,-176 423.5,-176 423.5,-157 314.5,-157"/>
<text text-anchor="middle" x="369" y="-164" font-family="Helvetica,sans-Serif" font-size="10.00">FormationReaction</text>
</a>
</g>
</g>
<!-- Node3&#45;&gt;Node1 -->
<g id="edge2" class="edge">
<title>Node3&#45;&gt;Node1</title>
<path fill="none" stroke="#9a32cd" stroke-dasharray="5,2" d="M420.43,-154.67C469.65,-143.12 543.61,-125.77 589.23,-115.06"/>
<polygon fill="#9a32cd" stroke="#9a32cd" points="419.56,-151.28 410.62,-156.97 421.16,-158.09 419.56,-151.28"/>
<text text-anchor="middle" x="518.5" y="-143.5" font-family="Helvetica,sans-Serif" font-size="10.00"> formation_reaction</text>
</g>
<!-- Node4 -->
<g id="node4" class="node">
<title>Node4</title>
<g id="a_node4"><a xlink:title=" ">
<polygon fill="none" stroke="#bfbfbf" points="157,-73 157,-92 201,-92 201,-73 157,-73"/>
<text text-anchor="middle" x="179" y="-80" font-family="Helvetica,sans-Serif" font-size="10.00">string</text>
</a>
</g>
</g>
<!-- Node4&#45;&gt;Node1 -->
<g id="edge3" class="edge">
<title>Node4&#45;&gt;Node1</title>
<path fill="none" stroke="#9a32cd" stroke-dasharray="5,2" d="M211.25,-90.27C213.86,-90.75 216.47,-91.17 219,-91.5 351.02,-108.82 508.82,-108.33 584.76,-106.79"/>
<polygon fill="#9a32cd" stroke="#9a32cd" points="211.82,-86.81 201.32,-88.2 210.4,-93.66 211.82,-86.81"/>
<text text-anchor="middle" x="369" y="-131.5" font-family="Helvetica,sans-Serif" font-size="10.00"> formula</text>
<text text-anchor="middle" x="369" y="-120.5" font-family="Helvetica,sans-Serif" font-size="10.00">name</text>
<text text-anchor="middle" x="369" y="-109.5" font-family="Helvetica,sans-Serif" font-size="10.00">substance</text>
</g>
<!-- Node7 -->
<g id="node7" class="node">
<title>Node7</title>
<g id="a_node7"><a xlink:title=" ">
<polygon fill="none" stroke="#bfbfbf" points="309.5,-50 309.5,-69 428.5,-69 428.5,-50 309.5,-50"/>
<text text-anchor="middle" x="369" y="-57" font-family="Helvetica,sans-Serif" font-size="10.00">vector&lt; std::string &gt;</text>
</a>
</g>
</g>
<!-- Node4&#45;&gt;Node7 -->
<g id="edge7" class="edge">
<title>Node4&#45;&gt;Node7</title>
<path fill="none" stroke="#9a32cd" stroke-dasharray="5,2" d="M211.45,-78.65C238.05,-75.4 276.88,-70.65 309.22,-66.69"/>
<polygon fill="#9a32cd" stroke="#9a32cd" points="210.7,-75.22 201.2,-79.91 211.55,-82.17 210.7,-75.22"/>
<text text-anchor="middle" x="243.5" y="-80.5" font-family="Helvetica,sans-Serif" font-size="10.00"> elements</text>
</g>
<!-- Node5 -->
<g id="node5" class="node">
<title>Node5</title>
<g id="a_node5"><a xlink:title=" ">
<polygon fill="none" stroke="#bfbfbf" points="0,-73 0,-92 120,-92 120,-73 0,-73"/>
<text text-anchor="middle" x="60" y="-80" font-family="Helvetica,sans-Serif" font-size="10.00">basic_string&lt; Char &gt;</text>
</a>
</g>
</g>
<!-- Node5&#45;&gt;Node4 -->
<g id="edge4" class="edge">
<title>Node5&#45;&gt;Node4</title>
<path fill="none" stroke="midnightblue" d="M130.3,-82.5C139.91,-82.5 149.12,-82.5 156.84,-82.5"/>
<polygon fill="midnightblue" stroke="midnightblue" points="130.19,-79 120.19,-82.5 130.19,-86 130.19,-79"/>
</g>
<!-- Node6 -->
<g id="node6" class="node">
<title>Node6</title>
<g id="a_node6"><a xlink:href="classReaktoro_1_1Model.html" target="_top" xlink:title=" ">
<polygon fill="none" stroke="black" points="286,-0.5 286,-30.5 452,-30.5 452,-0.5 286,-0.5"/>
<text text-anchor="start" x="294" y="-18.5" font-family="Helvetica,sans-Serif" font-size="10.00">Model&lt; StandardThermoProps</text>
<text text-anchor="middle" x="369" y="-7.5" font-family="Helvetica,sans-Serif" font-size="10.00">(real T, real P)&gt;</text>
</a>
</g>
</g>
<!-- Node6&#45;&gt;Node1 -->
<g id="edge5" class="edge">
<title>Node6&#45;&gt;Node1</title>
<path fill="none" stroke="#9a32cd" stroke-dasharray="5,2" d="M462.18,-20.76C496.39,-25.41 534.7,-33.94 567,-49.5 590.21,-60.67 611.28,-82.95 622.19,-95.79"/>
<polygon fill="#9a32cd" stroke="#9a32cd" points="462.53,-17.27 452.17,-19.49 461.66,-24.22 462.53,-17.27"/>
<text text-anchor="middle" x="518.5" y="-52.5" font-family="Helvetica,sans-Serif" font-size="10.00"> std_thermo_model</text>
</g>
<!-- Node7&#45;&gt;Node1 -->
<g id="edge6" class="edge">
<title>Node7&#45;&gt;Node1</title>
<path fill="none" stroke="#9a32cd" stroke-dasharray="5,2" d="M438.89,-62.26C477.08,-64.92 525.16,-70.17 567,-80.5 581.85,-84.17 597.87,-90.56 610.03,-95.96"/>
<polygon fill="#9a32cd" stroke="#9a32cd" points="439.11,-58.76 428.91,-61.6 438.66,-65.75 439.11,-58.76"/>
<text text-anchor="middle" x="518.5" y="-83.5" font-family="Helvetica,sans-Serif" font-size="10.00"> tags</text>
</g>
</g>
</svg>
