<?xml version="1.0" encoding="UTF-8" standalone="no"?>
<!DOCTYPE svg PUBLIC "-//W3C//DTD SVG 1.1//EN"
 "http://www.w3.org/Graphics/SVG/1.1/DTD/svg11.dtd">
<!-- Generated by graphviz version 9.0.0 (20231125.0833)
 -->
<!-- Title: DissociationReaction Pages: 1 -->
<svg width="282pt" height="126pt"
 viewBox="0.00 0.00 281.75 125.75" xmlns="http://www.w3.org/2000/svg" xmlns:xlink="http://www.w3.org/1999/xlink">
<g id="graph0" class="graph" transform="scale(1 1) rotate(0) translate(4 121.75)">
<title>DissociationReaction</title>
<!-- Node1 -->
<g id="node1" class="node">
<title>Node1</title>
<g id="a_node1"><a xlink:title="A type used to represent a dissociation reaction of a neutral substance into ions.">
<polygon fill="#bfbfbf" stroke="black" points="90.62,-0.5 90.62,-21.25 209.38,-21.25 209.38,-0.5 90.62,-0.5"/>
<text text-anchor="middle" x="150" y="-7.75" font-family="Helvetica,sans-Serif" font-size="10.00">DissociationReaction</text>
</a>
</g>
</g>
<!-- Node2 -->
<g id="node2" class="node">
<title>Node2</title>
<g id="a_node2"><a xlink:title=" ">
<polygon fill="none" stroke="#bfbfbf" points="0,-71 0,-117.25 154,-117.25 154,-71 0,-71"/>
<text text-anchor="start" x="8" y="-103.75" font-family="Helvetica,sans-Serif" font-size="10.00">vector&lt; std::pair&lt;</text>
<text text-anchor="start" x="8" y="-91" font-family="Helvetica,sans-Serif" font-size="10.00"> double, Reaktoro::Chemical</text>
<text text-anchor="middle" x="77" y="-78.25" font-family="Helvetica,sans-Serif" font-size="10.00">Formula &gt; &gt;</text>
</a>
</g>
</g>
<!-- Node2&#45;&gt;Node1 -->
<g id="edge1" class="edge">
<title>Node2&#45;&gt;Node1</title>
<path fill="none" stroke="#9a32cd" stroke-dasharray="5,2" d="M104.4,-62.63C117.47,-48.08 132.21,-31.67 141.3,-21.55"/>
<polygon fill="#9a32cd" stroke="#9a32cd" points="102.04,-60.02 97.96,-69.8 107.25,-64.7 102.04,-60.02"/>
<text text-anchor="middle" x="136.62" y="-43" font-family="Helvetica,sans-Serif" font-size="10.00"> ions</text>
</g>
<!-- Node3 -->
<g id="node3" class="node">
<title>Node3</title>
<g id="a_node3"><a xlink:href="classReaktoro_1_1ChemicalFormula.html" target="_top" xlink:title="A type used to represent the chemical formula of a chemical species.">
<polygon fill="none" stroke="black" points="172.25,-83.75 172.25,-104.5 273.75,-104.5 273.75,-83.75 172.25,-83.75"/>
<text text-anchor="middle" x="223" y="-91" font-family="Helvetica,sans-Serif" font-size="10.00">ChemicalFormula</text>
</a>
</g>
</g>
<!-- Node3&#45;&gt;Node1 -->
<g id="edge2" class="edge">
<title>Node3&#45;&gt;Node1</title>
<path fill="none" stroke="#9a32cd" stroke-dasharray="5,2" d="M206.86,-75.17C192,-58.62 170.5,-34.69 158.65,-21.5"/>
<polygon fill="#9a32cd" stroke="#9a32cd" points="204.04,-77.26 213.33,-82.36 209.25,-72.58 204.04,-77.26"/>
<text text-anchor="middle" x="208.5" y="-43" font-family="Helvetica,sans-Serif" font-size="10.00"> complex</text>
</g>
</g>
</svg>
