<?xml version="1.0" encoding="UTF-8" standalone="no"?>
<!DOCTYPE svg PUBLIC "-//W3C//DTD SVG 1.1//EN"
 "http://www.w3.org/Graphics/SVG/1.1/DTD/svg11.dtd">
<!-- Generated by graphviz version 3.0.0 (20220315.2325)
 -->
<!-- Title: ControlVariableQ Pages: 1 -->
<svg width="210pt" height="163pt"
 viewBox="0.00 0.00 210.00 163.00" xmlns="http://www.w3.org/2000/svg" xmlns:xlink="http://www.w3.org/1999/xlink">
<g id="graph0" class="graph" transform="scale(1 1) rotate(0) translate(4 159)">
<title>ControlVariableQ</title>
<!-- Node1 -->
<g id="node1" class="node">
<title>Node1</title>
<g id="a_node1"><a xlink:title="Used to define a q control variable in a chemical equilibrium problem.">
<polygon fill="#bfbfbf" stroke="black" points="75.5,-0.5 75.5,-19.5 174.5,-19.5 174.5,-0.5 75.5,-0.5"/>
<text text-anchor="middle" x="125" y="-7.5" font-family="Helvetica,sans-Serif" font-size="10.00">ControlVariableQ</text>
</a>
</g>
</g>
<!-- Node2 -->
<g id="node2" class="node">
<title>Node2</title>
<g id="a_node2"><a xlink:title=" ">
<polygon fill="none" stroke="#bfbfbf" points="38,-78.5 38,-97.5 82,-97.5 82,-78.5 38,-78.5"/>
<text text-anchor="middle" x="60" y="-85.5" font-family="Helvetica,sans-Serif" font-size="10.00">string</text>
</a>
</g>
</g>
<!-- Node2&#45;&gt;Node1 -->
<g id="edge1" class="edge">
<title>Node2&#45;&gt;Node1</title>
<path fill="none" stroke="#9a32cd" stroke-dasharray="5,2" d="M74.16,-70.44C87.55,-54.79 107.1,-31.93 117.63,-19.62"/>
<polygon fill="#9a32cd" stroke="#9a32cd" points="71.3,-68.41 67.46,-78.28 76.62,-72.96 71.3,-68.41"/>
<text text-anchor="middle" x="114" y="-52" font-family="Helvetica,sans-Serif" font-size="10.00"> id</text>
<text text-anchor="middle" x="114" y="-41" font-family="Helvetica,sans-Serif" font-size="10.00">name</text>
</g>
<!-- Node3 -->
<g id="node3" class="node">
<title>Node3</title>
<g id="a_node3"><a xlink:title=" ">
<polygon fill="none" stroke="#bfbfbf" points="0,-135.5 0,-154.5 120,-154.5 120,-135.5 0,-135.5"/>
<text text-anchor="middle" x="60" y="-142.5" font-family="Helvetica,sans-Serif" font-size="10.00">basic_string&lt; Char &gt;</text>
</a>
</g>
</g>
<!-- Node3&#45;&gt;Node2 -->
<g id="edge2" class="edge">
<title>Node3&#45;&gt;Node2</title>
<path fill="none" stroke="midnightblue" d="M60,-125.12C60,-115.82 60,-105.06 60,-97.71"/>
<polygon fill="midnightblue" stroke="midnightblue" points="56.5,-125.41 60,-135.41 63.5,-125.41 56.5,-125.41"/>
</g>
<!-- Node4 -->
<g id="node4" class="node">
<title>Node4</title>
<g id="a_node4"><a xlink:href="classReaktoro_1_1ChemicalFormula.html" target="_top" xlink:title="A type used to represent the chemical formula of a chemical species.">
<polygon fill="none" stroke="black" points="100,-78.5 100,-97.5 202,-97.5 202,-78.5 100,-78.5"/>
<text text-anchor="middle" x="151" y="-85.5" font-family="Helvetica,sans-Serif" font-size="10.00">ChemicalFormula</text>
</a>
</g>
</g>
<!-- Node4&#45;&gt;Node1 -->
<g id="edge3" class="edge">
<title>Node4&#45;&gt;Node1</title>
<path fill="none" stroke="#9a32cd" stroke-dasharray="5,2" d="M144.73,-68.67C139.41,-53.11 132,-31.47 127.95,-19.62"/>
<polygon fill="#9a32cd" stroke="#9a32cd" points="141.47,-69.95 148.02,-78.28 148.09,-67.69 141.47,-69.95"/>
<text text-anchor="middle" x="167.5" y="-46.5" font-family="Helvetica,sans-Serif" font-size="10.00"> substance</text>
</g>
</g>
</svg>
