<?xml version="1.0" encoding="UTF-8" standalone="no"?>
<!DOCTYPE svg PUBLIC "-//W3C//DTD SVG 1.1//EN"
 "http://www.w3.org/Graphics/SVG/1.1/DTD/svg11.dtd">
<!-- Generated by graphviz version 7.1.0 (20230122.1345)
 -->
<!-- Title: Exclude Pages: 1 -->
<svg width="128pt" height="219pt"
 viewBox="0.00 0.00 128.00 219.00" xmlns="http://www.w3.org/2000/svg" xmlns:xlink="http://www.w3.org/1999/xlink">
<g id="graph0" class="graph" transform="scale(1 1) rotate(0) translate(4 215)">
<title>Exclude</title>
<!-- Node1 -->
<g id="node1" class="node">
<title>Node1</title>
<g id="a_node1"><a xlink:title="The auxiliary type used to specify species that should be filtered out when contructing a phase.">
<polygon fill="#bfbfbf" stroke="black" points="32.5,-0.5 32.5,-19.5 87.5,-19.5 87.5,-0.5 32.5,-0.5"/>
<text text-anchor="middle" x="60" y="-7.5" font-family="Helvetica,sans-Serif" font-size="10.00">Exclude</text>
</a>
</g>
</g>
<!-- Node2 -->
<g id="node2" class="node">
<title>Node2</title>
<g id="a_node2"><a xlink:title=" ">
<polygon fill="none" stroke="#bfbfbf" points="0.5,-67.5 0.5,-86.5 119.5,-86.5 119.5,-67.5 0.5,-67.5"/>
<text text-anchor="middle" x="60" y="-74.5" font-family="Helvetica,sans-Serif" font-size="10.00">vector&lt; std::string &gt;</text>
</a>
</g>
</g>
<!-- Node2&#45;&gt;Node1 -->
<g id="edge1" class="edge">
<title>Node2&#45;&gt;Node1</title>
<path fill="none" stroke="#9a32cd" stroke-dasharray="5,2" d="M60,-56.04C60,-43.7 60,-28.5 60,-19.29"/>
<polygon fill="#9a32cd" stroke="#9a32cd" points="56.5,-55.99 60,-65.99 63.5,-55.99 56.5,-55.99"/>
<text text-anchor="middle" x="72.5" y="-41" font-family="Helvetica,sans-Serif" font-size="10.00"> tags</text>
</g>
<!-- Node3 -->
<g id="node3" class="node">
<title>Node3</title>
<g id="a_node3"><a xlink:title=" ">
<polygon fill="none" stroke="#bfbfbf" points="38,-134.5 38,-153.5 82,-153.5 82,-134.5 38,-134.5"/>
<text text-anchor="middle" x="60" y="-141.5" font-family="Helvetica,sans-Serif" font-size="10.00">string</text>
</a>
</g>
</g>
<!-- Node3&#45;&gt;Node2 -->
<g id="edge2" class="edge">
<title>Node3&#45;&gt;Node2</title>
<path fill="none" stroke="#9a32cd" stroke-dasharray="5,2" d="M60,-123.04C60,-110.7 60,-95.5 60,-86.29"/>
<polygon fill="#9a32cd" stroke="#9a32cd" points="56.5,-122.99 60,-132.99 63.5,-122.99 56.5,-122.99"/>
<text text-anchor="middle" x="84.5" y="-108" font-family="Helvetica,sans-Serif" font-size="10.00"> elements</text>
</g>
<!-- Node4 -->
<g id="node4" class="node">
<title>Node4</title>
<g id="a_node4"><a xlink:title=" ">
<polygon fill="none" stroke="#bfbfbf" points="0,-191.5 0,-210.5 120,-210.5 120,-191.5 0,-191.5"/>
<text text-anchor="middle" x="60" y="-198.5" font-family="Helvetica,sans-Serif" font-size="10.00">basic_string&lt; Char &gt;</text>
</a>
</g>
</g>
<!-- Node4&#45;&gt;Node3 -->
<g id="edge3" class="edge">
<title>Node4&#45;&gt;Node3</title>
<path fill="none" stroke="midnightblue" d="M60,-180.39C60,-171.02 60,-160.31 60,-153.15"/>
<polygon fill="midnightblue" stroke="midnightblue" points="56.5,-180.37 60,-190.37 63.5,-180.37 56.5,-180.37"/>
</g>
</g>
</svg>
