<?xml version="1.0" encoding="UTF-8" standalone="no"?>
<!DOCTYPE svg PUBLIC "-//W3C//DTD SVG 1.1//EN"
 "http://www.w3.org/Graphics/SVG/1.1/DTD/svg11.dtd">
<!-- Generated by graphviz version 9.0.0 (20231125.0833)
 -->
<!-- Title: Exception Pages: 1 -->
<svg width="288pt" height="420pt"
 viewBox="0.00 0.00 287.75 419.50" xmlns="http://www.w3.org/2000/svg" xmlns:xlink="http://www.w3.org/1999/xlink">
<g id="graph0" class="graph" transform="scale(1 1) rotate(0) translate(4 415.5)">
<title>Exception</title>
<!-- Node1 -->
<g id="node1" class="node">
<title>Node1</title>
<g id="a_node1"><a xlink:title="Provides a convenient way to initialized an exception with helpful error messages.">
<polygon fill="#bfbfbf" stroke="black" points="106.62,-0.5 106.62,-21.25 170.62,-21.25 170.62,-0.5 106.62,-0.5"/>
<text text-anchor="middle" x="138.62" y="-7.75" font-family="Helvetica,sans-Serif" font-size="10.00">Exception</text>
</a>
</g>
</g>
<!-- Node2 -->
<g id="node2" class="node">
<title>Node2</title>
<g id="a_node2"><a xlink:title=" ">
<polygon fill="none" stroke="#bfbfbf" points="99.5,-83.75 99.5,-104.5 177.75,-104.5 177.75,-83.75 99.5,-83.75"/>
<text text-anchor="middle" x="138.62" y="-91" font-family="Helvetica,sans-Serif" font-size="10.00">stringstream</text>
</a>
</g>
</g>
<!-- Node2&#45;&gt;Node1 -->
<g id="edge1" class="edge">
<title>Node2&#45;&gt;Node1</title>
<path fill="none" stroke="#9a32cd" stroke-dasharray="5,2" d="M138.62,-72.34C138.62,-55.99 138.62,-33.96 138.62,-21.5"/>
<polygon fill="#9a32cd" stroke="#9a32cd" points="135.13,-71.97 138.63,-81.97 142.13,-71.97 135.13,-71.97"/>
<text text-anchor="middle" x="155.12" y="-55.75" font-family="Helvetica,sans-Serif" font-size="10.00"> error</text>
<text text-anchor="middle" x="155.12" y="-43" font-family="Helvetica,sans-Serif" font-size="10.00">reason</text>
</g>
<!-- Node3 -->
<g id="node3" class="node">
<title>Node3</title>
<g id="a_node3"><a xlink:title=" ">
<polygon fill="none" stroke="#bfbfbf" points="84.12,-142.5 84.12,-176 193.12,-176 193.12,-142.5 84.12,-142.5"/>
<text text-anchor="start" x="92.12" y="-162.5" font-family="Helvetica,sans-Serif" font-size="10.00">basic_stringstream</text>
<text text-anchor="middle" x="138.62" y="-149.75" font-family="Helvetica,sans-Serif" font-size="10.00">&lt; Char &gt;</text>
</a>
</g>
</g>
<!-- Node3&#45;&gt;Node2 -->
<g id="edge2" class="edge">
<title>Node3&#45;&gt;Node2</title>
<path fill="none" stroke="midnightblue" d="M138.62,-131C138.62,-121.64 138.62,-111.77 138.62,-104.76"/>
<polygon fill="midnightblue" stroke="midnightblue" points="135.13,-130.81 138.63,-140.81 142.13,-130.81 135.13,-130.81"/>
</g>
<!-- Node4 -->
<g id="node4" class="node">
<title>Node4</title>
<g id="a_node4"><a xlink:title=" ">
<polygon fill="none" stroke="#bfbfbf" points="71,-214 71,-234.75 206.25,-234.75 206.25,-214 71,-214"/>
<text text-anchor="middle" x="138.62" y="-221.25" font-family="Helvetica,sans-Serif" font-size="10.00">basic_iostream&lt; Char &gt;</text>
</a>
</g>
</g>
<!-- Node4&#45;&gt;Node3 -->
<g id="edge3" class="edge">
<title>Node4&#45;&gt;Node3</title>
<path fill="none" stroke="midnightblue" d="M138.62,-202.2C138.62,-193.7 138.62,-184.07 138.62,-176.18"/>
<polygon fill="midnightblue" stroke="midnightblue" points="135.13,-202 138.63,-212 142.13,-202 135.13,-202"/>
</g>
<!-- Node5 -->
<g id="node5" class="node">
<title>Node5</title>
<g id="a_node5"><a xlink:title=" ">
<polygon fill="none" stroke="#bfbfbf" points="0,-272.75 0,-293.5 129.25,-293.5 129.25,-272.75 0,-272.75"/>
<text text-anchor="middle" x="64.62" y="-280" font-family="Helvetica,sans-Serif" font-size="10.00">basic_istream&lt; Char &gt;</text>
</a>
</g>
</g>
<!-- Node5&#45;&gt;Node4 -->
<g id="edge4" class="edge">
<title>Node5&#45;&gt;Node4</title>
<path fill="none" stroke="midnightblue" d="M86.27,-265.53C99.08,-255.7 114.89,-243.58 125.76,-235.24"/>
<polygon fill="midnightblue" stroke="midnightblue" points="84.18,-262.71 78.38,-271.58 88.44,-268.27 84.18,-262.71"/>
</g>
<!-- Node6 -->
<g id="node6" class="node">
<title>Node6</title>
<g id="a_node6"><a xlink:title=" ">
<polygon fill="none" stroke="#bfbfbf" points="85.62,-331.5 85.62,-352.25 191.62,-352.25 191.62,-331.5 85.62,-331.5"/>
<text text-anchor="middle" x="138.62" y="-338.75" font-family="Helvetica,sans-Serif" font-size="10.00">basic_ios&lt; Char &gt;</text>
</a>
</g>
</g>
<!-- Node6&#45;&gt;Node5 -->
<g id="edge5" class="edge">
<title>Node6&#45;&gt;Node5</title>
<path fill="none" stroke="midnightblue" d="M116.98,-324.28C104.17,-314.45 88.36,-302.33 77.49,-293.99"/>
<polygon fill="midnightblue" stroke="midnightblue" points="114.81,-327.02 124.87,-330.33 119.07,-321.46 114.81,-327.02"/>
</g>
<!-- Node8 -->
<g id="node8" class="node">
<title>Node8</title>
<g id="a_node8"><a xlink:title=" ">
<polygon fill="none" stroke="#bfbfbf" points="147.5,-272.75 147.5,-293.5 279.75,-293.5 279.75,-272.75 147.5,-272.75"/>
<text text-anchor="middle" x="213.62" y="-280" font-family="Helvetica,sans-Serif" font-size="10.00">basic_ostream&lt; Char &gt;</text>
</a>
</g>
</g>
<!-- Node6&#45;&gt;Node8 -->
<g id="edge8" class="edge">
<title>Node6&#45;&gt;Node8</title>
<path fill="none" stroke="midnightblue" d="M160.18,-324.57C173.23,-314.69 189.46,-302.41 200.59,-293.99"/>
<polygon fill="midnightblue" stroke="midnightblue" points="158.42,-321.51 152.55,-330.33 162.64,-327.09 158.42,-321.51"/>
</g>
<!-- Node7 -->
<g id="node7" class="node">
<title>Node7</title>
<g id="a_node7"><a xlink:title=" ">
<polygon fill="none" stroke="#bfbfbf" points="109.25,-390.25 109.25,-411 168,-411 168,-390.25 109.25,-390.25"/>
<text text-anchor="middle" x="138.62" y="-397.5" font-family="Helvetica,sans-Serif" font-size="10.00">ios_base</text>
</a>
</g>
</g>
<!-- Node7&#45;&gt;Node6 -->
<g id="edge6" class="edge">
<title>Node7&#45;&gt;Node6</title>
<path fill="none" stroke="midnightblue" d="M138.62,-378.56C138.62,-369.72 138.62,-359.85 138.62,-352.74"/>
<polygon fill="midnightblue" stroke="midnightblue" points="135.13,-378.48 138.63,-388.48 142.13,-378.48 135.13,-378.48"/>
</g>
<!-- Node8&#45;&gt;Node4 -->
<g id="edge7" class="edge">
<title>Node8&#45;&gt;Node4</title>
<path fill="none" stroke="midnightblue" d="M192.07,-265.82C179.02,-255.94 162.79,-243.66 151.66,-235.24"/>
<polygon fill="midnightblue" stroke="midnightblue" points="189.61,-268.34 199.7,-271.58 193.83,-262.76 189.61,-268.34"/>
</g>
</g>
</svg>
