<?xml version="1.0" encoding="UTF-8" standalone="no"?>
<!DOCTYPE svg PUBLIC "-//W3C//DTD SVG 1.1//EN"
 "http://www.w3.org/Graphics/SVG/1.1/DTD/svg11.dtd">
<!-- Generated by graphviz version 8.0.5 (20230506.1012)
 -->
<!-- Title: ReactionGeneratorArgs Pages: 1 -->
<svg width="328pt" height="100pt"
 viewBox="0.00 0.00 327.50 100.25" xmlns="http://www.w3.org/2000/svg" xmlns:xlink="http://www.w3.org/1999/xlink">
<g id="graph0" class="graph" transform="scale(1 1) rotate(0) translate(4 96.25)">
<title>ReactionGeneratorArgs</title>
<!-- Node1 -->
<g id="node1" class="node">
<title>Node1</title>
<g id="a_node1"><a xlink:title="The data provided to a ReactionGenerator to construct a Reaction object.">
<polygon fill="#bfbfbf" stroke="black" points="94.62,-0.5 94.62,-21.25 223.88,-21.25 223.88,-0.5 94.62,-0.5"/>
<text text-anchor="middle" x="159.25" y="-7.75" font-family="Helvetica,sans-Serif" font-size="10.00">ReactionGeneratorArgs</text>
</a>
</g>
</g>
<!-- Node2 -->
<g id="node2" class="node">
<title>Node2</title>
<g id="a_node2"><a xlink:href="classReaktoro_1_1Database.html" target="_top" xlink:title="The class used to store and retrieve data of chemical species.">
<polygon fill="none" stroke="black" points="0,-71 0,-91.75 62.5,-91.75 62.5,-71 0,-71"/>
<text text-anchor="middle" x="31.25" y="-78.25" font-family="Helvetica,sans-Serif" font-size="10.00">Database</text>
</a>
</g>
</g>
<!-- Node2&#45;&gt;Node1 -->
<g id="edge1" class="edge">
<title>Node2&#45;&gt;Node1</title>
<path fill="none" stroke="#9a32cd" stroke-dasharray="5,2" d="M47.3,-63.34C55.62,-55.3 66.31,-46.1 77.25,-39.75 91.04,-31.75 107.47,-25.6 121.98,-21.13"/>
<polygon fill="#9a32cd" stroke="#9a32cd" points="45.13,-60.56 40.58,-70.13 50.11,-65.49 45.13,-60.56"/>
<text text-anchor="middle" x="101.25" y="-43" font-family="Helvetica,sans-Serif" font-size="10.00"> database</text>
</g>
<!-- Node3 -->
<g id="node3" class="node">
<title>Node3</title>
<g id="a_node3"><a xlink:href="classReaktoro_1_1SurfaceList.html" target="_top" xlink:title="A type used as a collection of surfaces.">
<polygon fill="none" stroke="black" points="80.25,-71 80.25,-91.75 150.25,-91.75 150.25,-71 80.25,-71"/>
<text text-anchor="middle" x="115.25" y="-78.25" font-family="Helvetica,sans-Serif" font-size="10.00">SurfaceList</text>
</a>
</g>
</g>
<!-- Node3&#45;&gt;Node1 -->
<g id="edge2" class="edge">
<title>Node3&#45;&gt;Node1</title>
<path fill="none" stroke="#9a32cd" stroke-dasharray="5,2" d="M124.36,-61.66C128.02,-54.62 132.45,-46.66 137,-39.75 141.29,-33.24 146.75,-26.38 151.19,-21.1"/>
<polygon fill="#9a32cd" stroke="#9a32cd" points="121,-59.56 119.63,-70.07 127.25,-62.71 121,-59.56"/>
<text text-anchor="middle" x="158.38" y="-43" font-family="Helvetica,sans-Serif" font-size="10.00"> surfaces</text>
</g>
<!-- Node4 -->
<g id="node4" class="node">
<title>Node4</title>
<g id="a_node4"><a xlink:href="classReaktoro_1_1SpeciesList.html" target="_top" xlink:title="A type used as a collection of species.">
<polygon fill="none" stroke="black" points="167.88,-71 167.88,-91.75 238.62,-91.75 238.62,-71 167.88,-71"/>
<text text-anchor="middle" x="203.25" y="-78.25" font-family="Helvetica,sans-Serif" font-size="10.00">SpeciesList</text>
</a>
</g>
</g>
<!-- Node4&#45;&gt;Node1 -->
<g id="edge3" class="edge">
<title>Node4&#45;&gt;Node1</title>
<path fill="none" stroke="#9a32cd" stroke-dasharray="5,2" d="M193.99,-61.68C190.28,-54.65 185.81,-46.68 181.25,-39.75 176.98,-33.26 171.58,-26.41 167.2,-21.12"/>
<polygon fill="#9a32cd" stroke="#9a32cd" points="191.12,-62.77 198.79,-70.08 197.36,-59.58 191.12,-62.77"/>
<text text-anchor="middle" x="208.12" y="-43" font-family="Helvetica,sans-Serif" font-size="10.00"> species</text>
</g>
<!-- Node5 -->
<g id="node5" class="node">
<title>Node5</title>
<g id="a_node5"><a xlink:href="classReaktoro_1_1PhaseList.html" target="_top" xlink:title="A type used as a collection of phases.">
<polygon fill="none" stroke="black" points="257,-71 257,-91.75 319.5,-91.75 319.5,-71 257,-71"/>
<text text-anchor="middle" x="288.25" y="-78.25" font-family="Helvetica,sans-Serif" font-size="10.00">PhaseList</text>
</a>
</g>
</g>
<!-- Node5&#45;&gt;Node1 -->
<g id="edge4" class="edge">
<title>Node5&#45;&gt;Node1</title>
<path fill="none" stroke="#9a32cd" stroke-dasharray="5,2" d="M268.93,-64.41C258.5,-56.31 245.16,-46.74 232.25,-39.75 218.53,-32.32 202.41,-25.94 188.81,-21.17"/>
<polygon fill="#9a32cd" stroke="#9a32cd" points="266.25,-67.55 276.25,-71.04 270.61,-62.07 266.25,-67.55"/>
<text text-anchor="middle" x="270" y="-43" font-family="Helvetica,sans-Serif" font-size="10.00"> phases</text>
</g>
</g>
</svg>
