<?xml version="1.0" encoding="UTF-8" standalone="no"?>
<!DOCTYPE svg PUBLIC "-//W3C//DTD SVG 1.1//EN"
 "http://www.w3.org/Graphics/SVG/1.1/DTD/svg11.dtd">
<!-- Generated by graphviz version 3.0.0 (20220226.1711)
 -->
<!-- Title: Exclude Pages: 1 -->
<svg width="116pt" height="219pt"
 viewBox="0.00 0.00 116.00 219.00" xmlns="http://www.w3.org/2000/svg" xmlns:xlink="http://www.w3.org/1999/xlink">
<g id="graph0" class="graph" transform="scale(1 1) rotate(0) translate(4 215)">
<title>Exclude</title>
<!-- Node1 -->
<g id="node1" class="node">
<title>Node1</title>
<g id="a_node1"><a xlink:title="The auxiliary type used to specify species that should be filtered out when contructing a phase.">
<polygon fill="#bfbfbf" stroke="black" points="28,-0.5 28,-19.5 80,-19.5 80,-0.5 28,-0.5"/>
<text text-anchor="middle" x="54" y="-7.5" font-family="Helvetica,sans-Serif" font-size="10.00">Exclude</text>
</a>
</g>
</g>
<!-- Node2 -->
<g id="node2" class="node">
<title>Node2</title>
<g id="a_node2"><a xlink:title=" ">
<polygon fill="none" stroke="black" points="1.5,-67.5 1.5,-86.5 106.5,-86.5 106.5,-67.5 1.5,-67.5"/>
<text text-anchor="middle" x="54" y="-74.5" font-family="Helvetica,sans-Serif" font-size="10.00">vector&lt; std::string &gt;</text>
</a>
</g>
</g>
<!-- Node2&#45;&gt;Node1 -->
<g id="edge1" class="edge">
<title>Node2&#45;&gt;Node1</title>
<path fill="none" stroke="#9a32cd" stroke-dasharray="5,2" d="M54,-57.04C54,-44.67 54,-29.12 54,-19.63"/>
<polygon fill="#9a32cd" stroke="#9a32cd" points="50.5,-57.23 54,-67.23 57.5,-57.23 50.5,-57.23"/>
<text text-anchor="middle" x="65" y="-41" font-family="Helvetica,sans-Serif" font-size="10.00"> tags</text>
</g>
<!-- Node3 -->
<g id="node3" class="node">
<title>Node3</title>
<g id="a_node3"><a xlink:title=" ">
<polygon fill="none" stroke="black" points="33.5,-134.5 33.5,-153.5 74.5,-153.5 74.5,-134.5 33.5,-134.5"/>
<text text-anchor="middle" x="54" y="-141.5" font-family="Helvetica,sans-Serif" font-size="10.00">string</text>
</a>
</g>
</g>
<!-- Node3&#45;&gt;Node2 -->
<g id="edge2" class="edge">
<title>Node3&#45;&gt;Node2</title>
<path fill="none" stroke="#9a32cd" stroke-dasharray="5,2" d="M54,-124.04C54,-111.67 54,-96.12 54,-86.63"/>
<polygon fill="#9a32cd" stroke="#9a32cd" points="50.5,-124.23 54,-134.23 57.5,-124.23 50.5,-124.23"/>
<text text-anchor="middle" x="75.5" y="-108" font-family="Helvetica,sans-Serif" font-size="10.00"> elements</text>
</g>
<!-- Node4 -->
<g id="node4" class="node">
<title>Node4</title>
<g id="a_node4"><a xlink:title=" ">
<polygon fill="none" stroke="black" points="0,-191.5 0,-210.5 108,-210.5 108,-191.5 0,-191.5"/>
<text text-anchor="middle" x="54" y="-198.5" font-family="Helvetica,sans-Serif" font-size="10.00">basic_string&lt; Char &gt;</text>
</a>
</g>
</g>
<!-- Node4&#45;&gt;Node3 -->
<g id="edge3" class="edge">
<title>Node4&#45;&gt;Node3</title>
<path fill="none" stroke="midnightblue" d="M54,-181.12C54,-171.82 54,-161.06 54,-153.71"/>
<polygon fill="midnightblue" stroke="midnightblue" points="50.5,-181.41 54,-191.41 57.5,-181.41 50.5,-181.41"/>
</g>
</g>
</svg>
