<?xml version="1.0" encoding="UTF-8" standalone="no"?>
<!DOCTYPE svg PUBLIC "-//W3C//DTD SVG 1.1//EN"
 "http://www.w3.org/Graphics/SVG/1.1/DTD/svg11.dtd">
<!-- Generated by graphviz version 7.1.0 (20230122.1345)
 -->
<!-- Title: StandardThermoModelParamsNasa::Polynomial Pages: 1 -->
<svg width="195pt" height="251pt"
 viewBox="0.00 0.00 195.00 251.00" xmlns="http://www.w3.org/2000/svg" xmlns:xlink="http://www.w3.org/1999/xlink">
<g id="graph0" class="graph" transform="scale(1 1) rotate(0) translate(4 247)">
<title>StandardThermoModelParamsNasa::Polynomial</title>
<!-- Node1 -->
<g id="node1" class="node">
<title>Node1</title>
<g id="a_node1"><a xlink:title="Used to store Nasa polynomial coefficients valid for a certain temperature interval.">
<polygon fill="#bfbfbf" stroke="black" points="0,-0.5 0,-30.5 164,-30.5 164,-0.5 0,-0.5"/>
<text text-anchor="start" x="8" y="-18.5" font-family="Helvetica,sans-Serif" font-size="10.00">StandardThermoModelParams</text>
<text text-anchor="middle" x="82" y="-7.5" font-family="Helvetica,sans-Serif" font-size="10.00">Nasa::Polynomial</text>
</a>
</g>
</g>
<!-- Node2 -->
<g id="node2" class="node">
<title>Node2</title>
<g id="a_node2"><a xlink:href="classReaktoro_1_1Param.html" target="_top" xlink:title="A type used to represent the value of a parameter and its lower and upper bounds.">
<polygon fill="none" stroke="black" points="39.5,-166.5 39.5,-185.5 86.5,-185.5 86.5,-166.5 39.5,-166.5"/>
<text text-anchor="middle" x="63" y="-173.5" font-family="Helvetica,sans-Serif" font-size="10.00">Param</text>
</a>
</g>
</g>
<!-- Node2&#45;&gt;Node1 -->
<g id="edge1" class="edge">
<title>Node2&#45;&gt;Node1</title>
<path fill="none" stroke="#9a32cd" stroke-dasharray="5,2" d="M64.54,-155.33C66.6,-130.49 70.62,-86.46 76,-49 76.88,-42.87 78.09,-36.12 79.19,-30.38"/>
<polygon fill="#9a32cd" stroke="#9a32cd" points="61.06,-154.96 63.75,-165.21 68.04,-155.52 61.06,-154.96"/>
<text text-anchor="middle" x="84" y="-140" font-family="Helvetica,sans-Serif" font-size="10.00"> a1</text>
<text text-anchor="middle" x="84" y="-129" font-family="Helvetica,sans-Serif" font-size="10.00">a2</text>
<text text-anchor="middle" x="84" y="-118" font-family="Helvetica,sans-Serif" font-size="10.00">a3</text>
<text text-anchor="middle" x="84" y="-107" font-family="Helvetica,sans-Serif" font-size="10.00">a4</text>
<text text-anchor="middle" x="84" y="-96" font-family="Helvetica,sans-Serif" font-size="10.00">a5</text>
<text text-anchor="middle" x="84" y="-85" font-family="Helvetica,sans-Serif" font-size="10.00">a6</text>
<text text-anchor="middle" x="84" y="-74" font-family="Helvetica,sans-Serif" font-size="10.00">a7</text>
<text text-anchor="middle" x="84" y="-63" font-family="Helvetica,sans-Serif" font-size="10.00">b1</text>
<text text-anchor="middle" x="84" y="-52" font-family="Helvetica,sans-Serif" font-size="10.00">b2</text>
</g>
<!-- Node3 -->
<g id="node3" class="node">
<title>Node3</title>
<g id="a_node3"><a xlink:title=" ">
<polygon fill="none" stroke="#bfbfbf" points="105,-166.5 105,-185.5 149,-185.5 149,-166.5 105,-166.5"/>
<text text-anchor="middle" x="127" y="-173.5" font-family="Helvetica,sans-Serif" font-size="10.00">string</text>
</a>
</g>
</g>
<!-- Node3&#45;&gt;Node1 -->
<g id="edge2" class="edge">
<title>Node3&#45;&gt;Node1</title>
<path fill="none" stroke="#9a32cd" stroke-dasharray="5,2" d="M121.81,-155.68C115.12,-130.92 103.02,-86.67 92,-49 90.21,-42.88 88.15,-36.14 86.37,-30.39"/>
<polygon fill="#9a32cd" stroke="#9a32cd" points="118.41,-156.52 124.39,-165.26 125.17,-154.69 118.41,-156.52"/>
<text text-anchor="middle" x="133" y="-96" font-family="Helvetica,sans-Serif" font-size="10.00"> label</text>
</g>
<!-- Node4 -->
<g id="node4" class="node">
<title>Node4</title>
<g id="a_node4"><a xlink:title=" ">
<polygon fill="none" stroke="#bfbfbf" points="67,-223.5 67,-242.5 187,-242.5 187,-223.5 67,-223.5"/>
<text text-anchor="middle" x="127" y="-230.5" font-family="Helvetica,sans-Serif" font-size="10.00">basic_string&lt; Char &gt;</text>
</a>
</g>
</g>
<!-- Node4&#45;&gt;Node3 -->
<g id="edge3" class="edge">
<title>Node4&#45;&gt;Node3</title>
<path fill="none" stroke="midnightblue" d="M127,-212.39C127,-203.02 127,-192.31 127,-185.15"/>
<polygon fill="midnightblue" stroke="midnightblue" points="123.5,-212.37 127,-222.37 130.5,-212.37 123.5,-212.37"/>
</g>
</g>
</svg>
