<?xml version="1.0" encoding="UTF-8" standalone="no"?>
<!DOCTYPE svg PUBLIC "-//W3C//DTD SVG 1.1//EN"
 "http://www.w3.org/Graphics/SVG/1.1/DTD/svg11.dtd">
<!-- Generated by graphviz version 6.0.1 (20220911.2005)
 -->
<!-- Title: EquationConstraints Pages: 1 -->
<svg width="128pt" height="219pt"
 viewBox="0.00 0.00 128.00 219.00" xmlns="http://www.w3.org/2000/svg" xmlns:xlink="http://www.w3.org/1999/xlink">
<g id="graph0" class="graph" transform="scale(1 1) rotate(0) translate(4 215)">
<title>EquationConstraints</title>
<!-- Node1 -->
<g id="node1" class="node">
<title>Node1</title>
<g id="a_node1"><a xlink:title="Used to define a system of equation constraints in a chemical equilibrium problem.">
<polygon fill="#bfbfbf" stroke="black" points="2.5,-0.5 2.5,-19.5 117.5,-19.5 117.5,-0.5 2.5,-0.5"/>
<text text-anchor="middle" x="60" y="-7.5" font-family="Helvetica,sans-Serif" font-size="10.00">EquationConstraints</text>
</a>
</g>
</g>
<!-- Node2 -->
<g id="node2" class="node">
<title>Node2</title>
<g id="a_node2"><a xlink:title=" ">
<polygon fill="none" stroke="#bfbfbf" points="0.5,-67.5 0.5,-86.5 119.5,-86.5 119.5,-67.5 0.5,-67.5"/>
<text text-anchor="middle" x="60" y="-74.5" font-family="Helvetica,sans-Serif" font-size="10.00">vector&lt; std::string &gt;</text>
</a>
</g>
</g>
<!-- Node2&#45;&gt;Node1 -->
<g id="edge1" class="edge">
<title>Node2&#45;&gt;Node1</title>
<path fill="none" stroke="#9a32cd" stroke-dasharray="5,2" d="M60,-57.04C60,-44.67 60,-29.12 60,-19.63"/>
<polygon fill="#9a32cd" stroke="#9a32cd" points="56.5,-57.23 60,-67.23 63.5,-57.23 56.5,-57.23"/>
<text text-anchor="middle" x="69" y="-41" font-family="Helvetica,sans-Serif" font-size="10.00"> ids</text>
</g>
<!-- Node3 -->
<g id="node3" class="node">
<title>Node3</title>
<g id="a_node3"><a xlink:title=" ">
<polygon fill="none" stroke="#bfbfbf" points="38,-134.5 38,-153.5 82,-153.5 82,-134.5 38,-134.5"/>
<text text-anchor="middle" x="60" y="-141.5" font-family="Helvetica,sans-Serif" font-size="10.00">string</text>
</a>
</g>
</g>
<!-- Node3&#45;&gt;Node2 -->
<g id="edge2" class="edge">
<title>Node3&#45;&gt;Node2</title>
<path fill="none" stroke="#9a32cd" stroke-dasharray="5,2" d="M60,-124.04C60,-111.67 60,-96.12 60,-86.63"/>
<polygon fill="#9a32cd" stroke="#9a32cd" points="56.5,-124.23 60,-134.23 63.5,-124.23 56.5,-124.23"/>
<text text-anchor="middle" x="84.5" y="-108" font-family="Helvetica,sans-Serif" font-size="10.00"> elements</text>
</g>
<!-- Node4 -->
<g id="node4" class="node">
<title>Node4</title>
<g id="a_node4"><a xlink:title=" ">
<polygon fill="none" stroke="#bfbfbf" points="0,-191.5 0,-210.5 120,-210.5 120,-191.5 0,-191.5"/>
<text text-anchor="middle" x="60" y="-198.5" font-family="Helvetica,sans-Serif" font-size="10.00">basic_string&lt; Char &gt;</text>
</a>
</g>
</g>
<!-- Node4&#45;&gt;Node3 -->
<g id="edge3" class="edge">
<title>Node4&#45;&gt;Node3</title>
<path fill="none" stroke="midnightblue" d="M60,-181.12C60,-171.82 60,-161.06 60,-153.71"/>
<polygon fill="midnightblue" stroke="midnightblue" points="56.5,-181.41 60,-191.41 63.5,-181.41 56.5,-181.41"/>
</g>
</g>
</svg>
