<?xml version="1.0" encoding="UTF-8" standalone="no"?>
<!DOCTYPE svg PUBLIC "-//W3C//DTD SVG 1.1//EN"
 "http://www.w3.org/Graphics/SVG/1.1/DTD/svg11.dtd">
<!-- Generated by graphviz version 9.0.0 (20231125.0833)
 -->
<!-- Title: ReactionRateModelGeneratorArgs Pages: 1 -->
<!--zoomable 159 -->
<svg id="main" version="1.1" xmlns="http://www.w3.org/2000/svg" xmlns:xlink="http://www.w3.org/1999/xlink" xml:space="preserve" onload="init(evt)">
<style type="text/css"><![CDATA[
.edge:hover path { stroke: red; }
.edge:hover polygon { stroke: red; fill: red; }
]]></style>
<script type="text/javascript"><![CDATA[
var edges = document.getElementsByTagName('g');
if (edges && edges.length) {
  for (var i=0;i<edges.length;i++) {
    if (edges[i].id.substr(0,4)=='edge') {
      edges[i].setAttribute('class','edge');
    }
  }
}
]]></script>
        <defs>
                <circle id="rim" cx="0" cy="0" r="7"/>
                <circle id="rim2" cx="0" cy="0" r="3.5"/>
                <g id="zoomPlus">
                        <use xlink:href="#rim" fill="#404040">
                                <set attributeName="fill" to="#808080" begin="zoomplus.mouseover" end="zoomplus.mouseout"/>
                        </use>
                        <path d="M-4,0h8M0,-4v8" fill="none" stroke="white" stroke-width="1.5" pointer-events="none"/>
                </g>
                <g id="zoomMin">
                        <use xlink:href="#rim" fill="#404040">
                                <set attributeName="fill" to="#808080" begin="zoomminus.mouseover" end="zoomminus.mouseout"/>
                        </use>
                        <path d="M-4,0h8" fill="none" stroke="white" stroke-width="1.5" pointer-events="none"/>
                </g>
                <g id="dirArrow">
                        <path fill="none" stroke="white" stroke-width="1.5" d="M0,-3.0v7 M-2.5,-0.5L0,-3.0L2.5,-0.5"/>
                </g>
               <g id="resetDef">
                       <use xlink:href="#rim2" fill="#404040">
                               <set attributeName="fill" to="#808080" begin="reset.mouseover" end="reset.mouseout"/>
                       </use>
               </g>
        </defs>

<script type="text/javascript">
var viewWidth = 510;
var viewHeight = 159;
var sectionId = 'dynsection-0';
</script>
<script xlink:href="svgpan.js"/>
<svg id="graph" class="graph">
<g id="viewport">
<title>ReactionRateModelGeneratorArgs</title>
<!-- Node1 -->
<g id="node1" class="node">
<title>Node1</title>
<g id="a_node1"><a xlink:title="The data provided to a ReactionRateModelGenerator to construct the ReactionRateModel of a reaction.">
<polygon fill="#bfbfbf" stroke="black" points="168.38,-0.5 168.38,-21.25 350.12,-21.25 350.12,-0.5 168.38,-0.5"/>
<text text-anchor="middle" x="259.25" y="-7.75" font-family="Helvetica,sans-Serif" font-size="10.00">ReactionRateModelGeneratorArgs</text>
</a>
</g>
</g>
<!-- Node2 -->
<g id="node2" class="node">
<title>Node2</title>
<g id="a_node2"><a xlink:href="classReaktoro_1_1Database.html" target="_top" xlink:title="The class used to store and retrieve data of chemical species.">
<polygon fill="none" stroke="black" points="0,-71 0,-91.75 62.5,-91.75 62.5,-71 0,-71"/>
<text text-anchor="middle" x="31.25" y="-78.25" font-family="Helvetica,sans-Serif" font-size="10.00">Database</text>
</a>
</g>
</g>
<!-- Node2&#45;&gt;Node1 -->
<g id="edge1" class="edge">
<title>Node2&#45;&gt;Node1</title>
<path fill="none" stroke="#9a32cd" stroke-dasharray="5,2" d="M55.01,-64.75C69.08,-56.16 87.58,-46.01 105.25,-39.75 127.91,-31.72 153.31,-25.91 176.85,-21.74"/>
<polygon fill="#9a32cd" stroke="#9a32cd" points="53.5,-61.56 46.89,-69.85 57.22,-67.49 53.5,-61.56"/>
<text text-anchor="middle" x="129.25" y="-43" font-family="Helvetica,sans-Serif" font-size="10.00"> database</text>
</g>
<!-- Node3 -->
<g id="node3" class="node">
<title>Node3</title>
<g id="a_node3"><a xlink:href="classReaktoro_1_1SurfaceList.html" target="_top" xlink:title="A type used as a collection of surfaces.">
<polygon fill="none" stroke="black" points="80.25,-71 80.25,-91.75 150.25,-91.75 150.25,-71 80.25,-71"/>
<text text-anchor="middle" x="115.25" y="-78.25" font-family="Helvetica,sans-Serif" font-size="10.00">SurfaceList</text>
</a>
</g>
</g>
<!-- Node3&#45;&gt;Node1 -->
<g id="edge2" class="edge">
<title>Node3&#45;&gt;Node1</title>
<path fill="none" stroke="#9a32cd" stroke-dasharray="5,2" d="M137.51,-64.06C149.17,-56.01 163.92,-46.6 178,-39.75 192.75,-32.58 209.83,-26.42 224.51,-21.73"/>
<polygon fill="#9a32cd" stroke="#9a32cd" points="135.54,-61.17 129.4,-69.8 139.58,-66.88 135.54,-61.17"/>
<text text-anchor="middle" x="200.38" y="-43" font-family="Helvetica,sans-Serif" font-size="10.00"> surfaces</text>
</g>
<!-- Node4 -->
<g id="node4" class="node">
<title>Node4</title>
<g id="a_node4"><a xlink:href="classReaktoro_1_1ReactionEquation.html" target="_top" xlink:title="A type used to represent the equation of a reaction.">
<polygon fill="none" stroke="black" points="168.5,-71 168.5,-91.75 270,-91.75 270,-71 168.5,-71"/>
<text text-anchor="middle" x="219.25" y="-78.25" font-family="Helvetica,sans-Serif" font-size="10.00">ReactionEquation</text>
</a>
</g>
</g>
<!-- Node4&#45;&gt;Node1 -->
<g id="edge3" class="edge">
<title>Node4&#45;&gt;Node1</title>
<path fill="none" stroke="#9a32cd" stroke-dasharray="5,2" d="M223.36,-59.77C225.23,-53.09 227.87,-45.84 231.5,-39.75 235.56,-32.95 241.64,-26.59 247.07,-21.66"/>
<polygon fill="#9a32cd" stroke="#9a32cd" points="220,-58.8 221.11,-69.33 226.81,-60.4 220,-58.8"/>
<text text-anchor="middle" x="255.12" y="-43" font-family="Helvetica,sans-Serif" font-size="10.00"> equation</text>
</g>
<!-- Node5 -->
<g id="node5" class="node">
<title>Node5</title>
<g id="a_node5"><a xlink:title=" ">
<polygon fill="none" stroke="#bfbfbf" points="288.38,-71 288.38,-91.75 332.12,-91.75 332.12,-71 288.38,-71"/>
<text text-anchor="middle" x="310.25" y="-78.25" font-family="Helvetica,sans-Serif" font-size="10.00">string</text>
</a>
</g>
</g>
<!-- Node5&#45;&gt;Node1 -->
<g id="edge4" class="edge">
<title>Node5&#45;&gt;Node1</title>
<path fill="none" stroke="#9a32cd" stroke-dasharray="5,2" d="M296.25,-61.57C286.64,-48.66 274.26,-32.04 266.54,-21.67"/>
<polygon fill="#9a32cd" stroke="#9a32cd" points="293.26,-63.42 302.04,-69.35 298.87,-59.24 293.26,-63.42"/>
<text text-anchor="middle" x="305.62" y="-43" font-family="Helvetica,sans-Serif" font-size="10.00"> name</text>
</g>
<!-- Node6 -->
<g id="node6" class="node">
<title>Node6</title>
<g id="a_node6"><a xlink:title=" ">
<polygon fill="none" stroke="#bfbfbf" points="250.5,-129.75 250.5,-150.5 370,-150.5 370,-129.75 250.5,-129.75"/>
<text text-anchor="middle" x="310.25" y="-137" font-family="Helvetica,sans-Serif" font-size="10.00">basic_string&lt; Char &gt;</text>
</a>
</g>
</g>
<!-- Node6&#45;&gt;Node5 -->
<g id="edge5" class="edge">
<title>Node6&#45;&gt;Node5</title>
<path fill="none" stroke="midnightblue" d="M310.25,-118.06C310.25,-109.22 310.25,-99.35 310.25,-92.24"/>
<polygon fill="midnightblue" stroke="midnightblue" points="306.75,-117.98 310.25,-127.98 313.75,-117.98 306.75,-117.98"/>
</g>
<!-- Node7 -->
<g id="node7" class="node">
<title>Node7</title>
<g id="a_node7"><a xlink:href="classReaktoro_1_1SpeciesList.html" target="_top" xlink:title="A type used as a collection of species.">
<polygon fill="none" stroke="black" points="349.88,-71 349.88,-91.75 420.62,-91.75 420.62,-71 349.88,-71"/>
<text text-anchor="middle" x="385.25" y="-78.25" font-family="Helvetica,sans-Serif" font-size="10.00">SpeciesList</text>
</a>
</g>
</g>
<!-- Node7&#45;&gt;Node1 -->
<g id="edge6" class="edge">
<title>Node7&#45;&gt;Node1</title>
<path fill="none" stroke="#9a32cd" stroke-dasharray="5,2" d="M363.09,-63.84C352.04,-56 338.29,-46.83 325.25,-39.75 312.68,-32.92 298.08,-26.61 285.82,-21.72"/>
<polygon fill="#9a32cd" stroke="#9a32cd" points="361,-66.65 371.15,-69.68 365.1,-60.98 361,-66.65"/>
<text text-anchor="middle" x="366.12" y="-43" font-family="Helvetica,sans-Serif" font-size="10.00"> species</text>
</g>
<!-- Node8 -->
<g id="node8" class="node">
<title>Node8</title>
<g id="a_node8"><a xlink:href="classReaktoro_1_1PhaseList.html" target="_top" xlink:title="A type used as a collection of phases.">
<polygon fill="none" stroke="black" points="439,-71 439,-91.75 501.5,-91.75 501.5,-71 439,-71"/>
<text text-anchor="middle" x="470.25" y="-78.25" font-family="Helvetica,sans-Serif" font-size="10.00">PhaseList</text>
</a>
</g>
</g>
<!-- Node8&#45;&gt;Node1 -->
<g id="edge7" class="edge">
<title>Node8&#45;&gt;Node1</title>
<path fill="none" stroke="#9a32cd" stroke-dasharray="5,2" d="M444.19,-64.96C428.91,-56.48 408.98,-46.37 390.25,-39.75 368.44,-32.04 343.79,-26.11 321.81,-21.75"/>
<polygon fill="#9a32cd" stroke="#9a32cd" points="442.22,-67.86 452.64,-69.76 445.67,-61.77 442.22,-67.86"/>
<text text-anchor="middle" x="438" y="-43" font-family="Helvetica,sans-Serif" font-size="10.00"> phases</text>
</g>
</g>
</svg>
        <g id="navigator" transform="translate(0 0)" fill="#404254">
                <rect fill="#f2f5e9" fill-opacity="0.5" stroke="#606060" stroke-width=".5" x="0" y="0" width="60" height="60"/>
                <use id="zoomplus" xlink:href="#zoomPlus" x="17" y="9" onmousedown="handleZoom(evt,'in')"/>
                <use id="zoomminus" xlink:href="#zoomMin" x="42" y="9" onmousedown="handleZoom(evt,'out')"/>
                <use id="reset" xlink:href="#resetDef" x="30" y="36" onmousedown="handleReset()"/>
                <g id="arrowUp" xlink:href="#dirArrow" transform="translate(30 24)" onmousedown="handlePan(0,-1)">
                  <use xlink:href="#rim" fill="#404040">
                        <set attributeName="fill" to="#808080" begin="arrowUp.mouseover" end="arrowUp.mouseout"/>
                  </use>
                  <path fill="none" stroke="white" stroke-width="1.5" d="M0,-3.0v7 M-2.5,-0.5L0,-3.0L2.5,-0.5"/>
                </g>
                <g id="arrowRight" xlink:href="#dirArrow" transform="rotate(90) translate(36 -43)" onmousedown="handlePan(1,0)">
                  <use xlink:href="#rim" fill="#404040">
                        <set attributeName="fill" to="#808080" begin="arrowRight.mouseover" end="arrowRight.mouseout"/>
                  </use>
                  <path fill="none" stroke="white" stroke-width="1.5" d="M0,-3.0v7 M-2.5,-0.5L0,-3.0L2.5,-0.5"/>
                </g>
                <g id="arrowDown" xlink:href="#dirArrow" transform="rotate(180) translate(-30 -48)" onmousedown="handlePan(0,1)">
                  <use xlink:href="#rim" fill="#404040">
                        <set attributeName="fill" to="#808080" begin="arrowDown.mouseover" end="arrowDown.mouseout"/>
                  </use>
                  <path fill="none" stroke="white" stroke-width="1.5" d="M0,-3.0v7 M-2.5,-0.5L0,-3.0L2.5,-0.5"/>
                </g>
                <g id="arrowLeft" xlink:href="#dirArrow" transform="rotate(270) translate(-36 17)" onmousedown="handlePan(-1,0)">
                  <use xlink:href="#rim" fill="#404040">
                        <set attributeName="fill" to="#808080" begin="arrowLeft.mouseover" end="arrowLeft.mouseout"/>
                  </use>
                  <path fill="none" stroke="white" stroke-width="1.5" d="M0,-3.0v7 M-2.5,-0.5L0,-3.0L2.5,-0.5"/>
                </g>
        </g>
        <svg viewBox="0 0 15 15" width="100%" height="30px" preserveAspectRatio="xMaxYMin meet">
         <g id="arrow_out" transform="scale(0.3 0.3)">
          <a xlink:href="structReaktoro_1_1ReactionRateModelGeneratorArgs__coll__graph_org.svg" target="_base">
           <rect id="button" ry="5" rx="5" y="6" x="6" height="38" width="38"
                fill="#f2f5e9" fill-opacity="0.5" stroke="#606060" stroke-width="1.0"/>
           <path id="arrow"
             d="M 11.500037,31.436501 C 11.940474,20.09759 22.043105,11.32322 32.158766,21.979434 L 37.068811,17.246167 C 37.068811,17.246167 37.088388,32 37.088388,32 L 22.160133,31.978069 C 22.160133,31.978069 26.997745,27.140456 26.997745,27.140456 C 18.528582,18.264221 13.291696,25.230495 11.500037,31.436501 z"
             style="fill:#404040;"/>
          </a>
         </g>
        </svg>
</svg>
