<?xml version="1.0" encoding="UTF-8" standalone="no"?>
<!DOCTYPE svg PUBLIC "-//W3C//DTD SVG 1.1//EN"
 "http://www.w3.org/Graphics/SVG/1.1/DTD/svg11.dtd">
<!-- Generated by graphviz version 8.0.5 (20230506.1012)
 -->
<!-- Title: BipModelArgs Pages: 1 -->
<svg width="108pt" height="171pt"
 viewBox="0.00 0.00 107.50 170.75" xmlns="http://www.w3.org/2000/svg" xmlns:xlink="http://www.w3.org/1999/xlink">
<g id="graph0" class="graph" transform="scale(1 1) rotate(0) translate(4 166.75)">
<title>BipModelArgs</title>
<!-- Node1 -->
<g id="node1" class="node">
<title>Node1</title>
<g id="a_node1"><a xlink:title="The arguments for the evaluation of binary interaction parameters in a cubic equation of state.">
<polygon fill="#bfbfbf" stroke="black" points="0,-0.5 0,-21.25 83.5,-21.25 83.5,-0.5 0,-0.5"/>
<text text-anchor="middle" x="41.75" y="-7.75" font-family="Helvetica,sans-Serif" font-size="10.00">BipModelArgs</text>
</a>
</g>
</g>
<!-- Node2 -->
<g id="node2" class="node">
<title>Node2</title>
<g id="a_node2"><a xlink:title=" ">
<polygon fill="none" stroke="#bfbfbf" points="4.12,-71 4.12,-91.75 79.38,-91.75 79.38,-71 4.12,-71"/>
<text text-anchor="middle" x="41.75" y="-78.25" font-family="Helvetica,sans-Serif" font-size="10.00">vector&lt; T &gt;</text>
</a>
</g>
</g>
<!-- Node2&#45;&gt;Node1 -->
<g id="edge1" class="edge">
<title>Node2&#45;&gt;Node1</title>
<path fill="none" stroke="#9a32cd" stroke-dasharray="5,2" d="M41.75,-60.39C41.75,-47.36 41.75,-30.97 41.75,-20.97"/>
<polygon fill="#9a32cd" stroke="#9a32cd" points="38.25,-60.14 41.75,-70.14 45.25,-60.14 38.25,-60.14"/>
<text text-anchor="middle" x="70.62" y="-43" font-family="Helvetica,sans-Serif" font-size="10.00"> substances</text>
</g>
<!-- Node3 -->
<g id="node3" class="node">
<title>Node3</title>
<g id="a_node3"><a xlink:title=" ">
<polygon fill="none" stroke="#bfbfbf" points="27.35,-141.5 27.35,-162.25 56.15,-162.25 56.15,-141.5 27.35,-141.5"/>
<text text-anchor="middle" x="41.35" y="-148.75" font-family="Helvetica,sans-Serif" font-size="10.00">T</text>
</a>
</g>
</g>
<!-- Node3&#45;&gt;Node2 -->
<g id="edge2" class="edge">
<title>Node3&#45;&gt;Node2</title>
<path fill="none" stroke="#9a32cd" stroke-dasharray="5,2" d="M41.75,-130.89C41.75,-117.86 41.75,-101.47 41.75,-91.47"/>
<polygon fill="#9a32cd" stroke="#9a32cd" points="38.25,-130.64 41.75,-140.64 45.25,-130.64 38.25,-130.64"/>
<text text-anchor="middle" x="66.12" y="-113.5" font-family="Helvetica,sans-Serif" font-size="10.00"> elements</text>
</g>
</g>
</svg>
