<?xml version="1.0" encoding="UTF-8" standalone="no"?>
<!DOCTYPE svg PUBLIC "-//W3C//DTD SVG 1.1//EN"
 "http://www.w3.org/Graphics/SVG/1.1/DTD/svg11.dtd">
<!-- Generated by graphviz version 6.0.1 (20220911.2005)
 -->
<!-- Title: ConstraintEquation Pages: 1 -->
<svg width="230pt" height="209pt"
 viewBox="0.00 0.00 230.00 209.00" xmlns="http://www.w3.org/2000/svg" xmlns:xlink="http://www.w3.org/1999/xlink">
<g id="graph0" class="graph" transform="scale(1 1) rotate(0) translate(4 205)">
<title>ConstraintEquation</title>
<!-- Node1 -->
<g id="node1" class="node">
<title>Node1</title>
<g id="a_node1"><a xlink:title="Used to define equation constraints in a chemical equilibrium problem.">
<polygon fill="#bfbfbf" stroke="black" points="40,-0.5 40,-19.5 150,-19.5 150,-0.5 40,-0.5"/>
<text text-anchor="middle" x="95" y="-7.5" font-family="Helvetica,sans-Serif" font-size="10.00">ConstraintEquation</text>
</a>
</g>
</g>
<!-- Node2 -->
<g id="node2" class="node">
<title>Node2</title>
<g id="a_node2"><a xlink:href="structReaktoro_1_1EquationConstraint.html" target="_top" xlink:title="Used to define equation constraints in a chemical equilibrium problem.">
<polygon fill="none" stroke="black" points="40,-57.5 40,-76.5 150,-76.5 150,-57.5 40,-57.5"/>
<text text-anchor="middle" x="95" y="-64.5" font-family="Helvetica,sans-Serif" font-size="10.00">EquationConstraint</text>
</a>
</g>
</g>
<!-- Node2&#45;&gt;Node1 -->
<g id="edge1" class="edge">
<title>Node2&#45;&gt;Node1</title>
<path fill="none" stroke="midnightblue" d="M95,-47.12C95,-37.82 95,-27.06 95,-19.71"/>
<polygon fill="midnightblue" stroke="midnightblue" points="91.5,-47.41 95,-57.41 98.5,-47.41 91.5,-47.41"/>
</g>
<!-- Node3 -->
<g id="node3" class="node">
<title>Node3</title>
<g id="a_node3"><a xlink:href="structReaktoro_1_1EquationConstraintFn.html" target="_top" xlink:title="Used to define the function that evaluates the residual of an equation constraint in a chemical equil...">
<polygon fill="none" stroke="black" points="0,-124.5 0,-143.5 122,-143.5 122,-124.5 0,-124.5"/>
<text text-anchor="middle" x="61" y="-131.5" font-family="Helvetica,sans-Serif" font-size="10.00">EquationConstraintFn</text>
</a>
</g>
</g>
<!-- Node3&#45;&gt;Node2 -->
<g id="edge2" class="edge">
<title>Node3&#45;&gt;Node2</title>
<path fill="none" stroke="#9a32cd" stroke-dasharray="5,2" d="M70.33,-115.16C76.89,-102.63 85.37,-86.41 90.49,-76.63"/>
<polygon fill="#9a32cd" stroke="#9a32cd" points="67.12,-113.75 65.59,-124.23 73.32,-117 67.12,-113.75"/>
<text text-anchor="middle" x="86.5" y="-98" font-family="Helvetica,sans-Serif" font-size="10.00"> fn</text>
</g>
<!-- Node4 -->
<g id="node4" class="node">
<title>Node4</title>
<g id="a_node4"><a xlink:title=" ">
<polygon fill="none" stroke="#bfbfbf" points="140,-124.5 140,-143.5 184,-143.5 184,-124.5 140,-124.5"/>
<text text-anchor="middle" x="162" y="-131.5" font-family="Helvetica,sans-Serif" font-size="10.00">string</text>
</a>
</g>
</g>
<!-- Node4&#45;&gt;Node2 -->
<g id="edge3" class="edge">
<title>Node4&#45;&gt;Node2</title>
<path fill="none" stroke="#9a32cd" stroke-dasharray="5,2" d="M145.5,-117C132.36,-104.25 114.48,-86.89 103.89,-76.63"/>
<polygon fill="#9a32cd" stroke="#9a32cd" points="143.35,-119.78 152.96,-124.23 148.22,-114.76 143.35,-119.78"/>
<text text-anchor="middle" x="138.5" y="-98" font-family="Helvetica,sans-Serif" font-size="10.00"> id</text>
</g>
<!-- Node5 -->
<g id="node5" class="node">
<title>Node5</title>
<g id="a_node5"><a xlink:title=" ">
<polygon fill="none" stroke="#bfbfbf" points="102,-181.5 102,-200.5 222,-200.5 222,-181.5 102,-181.5"/>
<text text-anchor="middle" x="162" y="-188.5" font-family="Helvetica,sans-Serif" font-size="10.00">basic_string&lt; Char &gt;</text>
</a>
</g>
</g>
<!-- Node5&#45;&gt;Node4 -->
<g id="edge4" class="edge">
<title>Node5&#45;&gt;Node4</title>
<path fill="none" stroke="midnightblue" d="M162,-171.12C162,-161.82 162,-151.06 162,-143.71"/>
<polygon fill="midnightblue" stroke="midnightblue" points="158.5,-171.41 162,-181.41 165.5,-171.41 158.5,-171.41"/>
</g>
</g>
</svg>
