<?xml version="1.0" encoding="UTF-8" standalone="no"?>
<!DOCTYPE svg PUBLIC "-//W3C//DTD SVG 1.1//EN"
 "http://www.w3.org/Graphics/SVG/1.1/DTD/svg11.dtd">
<!-- Generated by graphviz version 8.1.0 (20230707.2238)
 -->
<!-- Title: ReactionRateModelParamsPalandriKharaka::Catalyst Pages: 1 -->
<svg width="195pt" height="185pt"
 viewBox="0.00 0.00 194.88 184.50" xmlns="http://www.w3.org/2000/svg" xmlns:xlink="http://www.w3.org/1999/xlink">
<g id="graph0" class="graph" transform="scale(1 1) rotate(0) translate(4 180.5)">
<title>ReactionRateModelParamsPalandriKharaka::Catalyst</title>
<!-- Node1 -->
<g id="node1" class="node">
<title>Node1</title>
<g id="a_node1"><a xlink:title="The parameters for a catalyser property in a mineral reaction rate mechanism of">
<polygon fill="#bfbfbf" stroke="black" points="0,-0.5 0,-34 186.25,-34 186.25,-0.5 0,-0.5"/>
<text text-anchor="start" x="8" y="-20.5" font-family="Helvetica,sans-Serif" font-size="10.00">ReactionRateModelParamsPalandri</text>
<text text-anchor="middle" x="93.12" y="-7.75" font-family="Helvetica,sans-Serif" font-size="10.00">Kharaka::Catalyst</text>
</a>
</g>
</g>
<!-- Node2 -->
<g id="node2" class="node">
<title>Node2</title>
<g id="a_node2"><a xlink:href="classReaktoro_1_1Param.html" target="_top" xlink:title="A type used to represent the value of a parameter and its lower and upper bounds.">
<polygon fill="none" stroke="black" points="40.75,-96.5 40.75,-117.25 87.5,-117.25 87.5,-96.5 40.75,-96.5"/>
<text text-anchor="middle" x="64.12" y="-103.75" font-family="Helvetica,sans-Serif" font-size="10.00">Param</text>
</a>
</g>
</g>
<!-- Node2&#45;&gt;Node1 -->
<g id="edge1" class="edge">
<title>Node2&#45;&gt;Node1</title>
<path fill="none" stroke="#9a32cd" stroke-dasharray="5,2" d="M63.05,-86.1C63.11,-75.8 64.2,-63.16 68.12,-52.5 70.57,-45.87 74.69,-39.39 78.9,-33.89"/>
<polygon fill="#9a32cd" stroke="#9a32cd" points="59.57,-85.97 63.33,-95.87 66.57,-85.78 59.57,-85.97"/>
<text text-anchor="middle" x="84.62" y="-62.12" font-family="Helvetica,sans-Serif" font-size="10.00"> power</text>
</g>
<!-- Node3 -->
<g id="node3" class="node">
<title>Node3</title>
<g id="a_node3"><a xlink:title=" ">
<polygon fill="none" stroke="#bfbfbf" points="105.25,-96.5 105.25,-117.25 149,-117.25 149,-96.5 105.25,-96.5"/>
<text text-anchor="middle" x="127.12" y="-103.75" font-family="Helvetica,sans-Serif" font-size="10.00">string</text>
</a>
</g>
</g>
<!-- Node3&#45;&gt;Node1 -->
<g id="edge2" class="edge">
<title>Node3&#45;&gt;Node1</title>
<path fill="none" stroke="#9a32cd" stroke-dasharray="5,2" d="M119.65,-86.61C113.5,-70.77 104.9,-48.61 99.18,-33.86"/>
<polygon fill="#9a32cd" stroke="#9a32cd" points="116.73,-87.77 123.61,-95.83 123.26,-85.24 116.73,-87.77"/>
<text text-anchor="middle" x="136.75" y="-68.5" font-family="Helvetica,sans-Serif" font-size="10.00"> formula</text>
<text text-anchor="middle" x="136.75" y="-55.75" font-family="Helvetica,sans-Serif" font-size="10.00">property</text>
</g>
<!-- Node4 -->
<g id="node4" class="node">
<title>Node4</title>
<g id="a_node4"><a xlink:title=" ">
<polygon fill="none" stroke="#bfbfbf" points="67.38,-155.25 67.38,-176 186.88,-176 186.88,-155.25 67.38,-155.25"/>
<text text-anchor="middle" x="127.12" y="-162.5" font-family="Helvetica,sans-Serif" font-size="10.00">basic_string&lt; Char &gt;</text>
</a>
</g>
</g>
<!-- Node4&#45;&gt;Node3 -->
<g id="edge3" class="edge">
<title>Node4&#45;&gt;Node3</title>
<path fill="none" stroke="midnightblue" d="M127.12,-144.45C127.12,-135.1 127.12,-124.46 127.12,-117.07"/>
<polygon fill="midnightblue" stroke="midnightblue" points="123.63,-144.25 127.12,-154.25 130.63,-144.25 123.63,-144.25"/>
</g>
</g>
</svg>
