<?xml version="1.0" encoding="UTF-8" standalone="no"?>
<!DOCTYPE svg PUBLIC "-//W3C//DTD SVG 1.1//EN"
 "http://www.w3.org/Graphics/SVG/1.1/DTD/svg11.dtd">
<!-- Generated by graphviz version 8.1.0 (20230707.2238)
 -->
<!-- Title: SmartEquilibriumSolver::Record Pages: 1 -->
<svg width="510pt" height="113pt"
 viewBox="0.00 0.00 510.12 113.00" xmlns="http://www.w3.org/2000/svg" xmlns:xlink="http://www.w3.org/1999/xlink">
<g id="graph0" class="graph" transform="scale(1 1) rotate(0) translate(4 109)">
<title>SmartEquilibriumSolver::Record</title>
<!-- Node1 -->
<g id="node1" class="node">
<title>Node1</title>
<g id="a_node1"><a xlink:title="The record of the knowledge database containing input, output, and derivatives data.">
<polygon fill="#bfbfbf" stroke="black" points="189.75,-0.5 189.75,-34 321.25,-34 321.25,-0.5 189.75,-0.5"/>
<text text-anchor="start" x="197.75" y="-20.5" font-family="Helvetica,sans-Serif" font-size="10.00">SmartEquilibriumSolver</text>
<text text-anchor="middle" x="255.5" y="-7.75" font-family="Helvetica,sans-Serif" font-size="10.00">::Record</text>
</a>
</g>
</g>
<!-- Node2 -->
<g id="node2" class="node">
<title>Node2</title>
<g id="a_node2"><a xlink:href="classReaktoro_1_1EquilibriumPredictor.html" target="_top" xlink:title="Used to predict a chemical equilibrium state at given conditions using first&#45;order Taylor approximati...">
<polygon fill="none" stroke="black" points="0,-83.75 0,-104.5 115,-104.5 115,-83.75 0,-83.75"/>
<text text-anchor="middle" x="57.5" y="-91" font-family="Helvetica,sans-Serif" font-size="10.00">EquilibriumPredictor</text>
</a>
</g>
</g>
<!-- Node2&#45;&gt;Node1 -->
<g id="edge1" class="edge">
<title>Node2&#45;&gt;Node1</title>
<path fill="none" stroke="#9a32cd" stroke-dasharray="5,2" d="M92.09,-80.04C126.02,-67.22 177.76,-47.65 213.9,-33.98"/>
<polygon fill="#9a32cd" stroke="#9a32cd" points="91.29,-76.98 83.18,-83.79 93.77,-83.53 91.29,-76.98"/>
<text text-anchor="middle" x="185.75" y="-55.75" font-family="Helvetica,sans-Serif" font-size="10.00"> predictor</text>
</g>
<!-- Node3 -->
<g id="node3" class="node">
<title>Node3</title>
<g id="a_node3"><a xlink:href="classReaktoro_1_1EquilibriumConditions.html" target="_top" xlink:title="The class used to define conditions to be satisfied at chemical equilibrium.">
<polygon fill="none" stroke="black" points="132.88,-83.75 132.88,-104.5 256.12,-104.5 256.12,-83.75 132.88,-83.75"/>
<text text-anchor="middle" x="194.5" y="-91" font-family="Helvetica,sans-Serif" font-size="10.00">EquilibriumConditions</text>
</a>
</g>
</g>
<!-- Node3&#45;&gt;Node1 -->
<g id="edge2" class="edge">
<title>Node3&#45;&gt;Node1</title>
<path fill="none" stroke="#9a32cd" stroke-dasharray="5,2" d="M208.78,-75.6C219.1,-62.93 232.93,-45.95 242.86,-33.76"/>
<polygon fill="#9a32cd" stroke="#9a32cd" points="205.58,-72.98 201.98,-82.94 211.01,-77.4 205.58,-72.98"/>
<text text-anchor="middle" x="254.12" y="-55.75" font-family="Helvetica,sans-Serif" font-size="10.00"> conditions</text>
</g>
<!-- Node4 -->
<g id="node4" class="node">
<title>Node4</title>
<g id="a_node4"><a xlink:href="classReaktoro_1_1ChemicalState.html" target="_top" xlink:title="The chemical state of a chemical system.">
<polygon fill="none" stroke="black" points="273.88,-83.75 273.88,-104.5 361.12,-104.5 361.12,-83.75 273.88,-83.75"/>
<text text-anchor="middle" x="317.5" y="-91" font-family="Helvetica,sans-Serif" font-size="10.00">ChemicalState</text>
</a>
</g>
</g>
<!-- Node4&#45;&gt;Node1 -->
<g id="edge3" class="edge">
<title>Node4&#45;&gt;Node1</title>
<path fill="none" stroke="#9a32cd" stroke-dasharray="5,2" d="M303.49,-75.72C297.65,-68.51 290.78,-60.07 284.5,-52.5 279.43,-46.38 273.79,-39.7 268.85,-33.88"/>
<polygon fill="#9a32cd" stroke="#9a32cd" points="301.21,-77.46 310.21,-83.05 306.65,-73.07 301.21,-77.46"/>
<text text-anchor="middle" x="308.38" y="-55.75" font-family="Helvetica,sans-Serif" font-size="10.00"> state</text>
</g>
<!-- Node5 -->
<g id="node5" class="node">
<title>Node5</title>
<g id="a_node5"><a xlink:href="classReaktoro_1_1EquilibriumSensitivity.html" target="_top" xlink:title="The sensitivity derivatives of a chemical equilibrium state.">
<polygon fill="none" stroke="black" points="378.88,-83.75 378.88,-104.5 502.12,-104.5 502.12,-83.75 378.88,-83.75"/>
<text text-anchor="middle" x="440.5" y="-91" font-family="Helvetica,sans-Serif" font-size="10.00">EquilibriumSensitivity</text>
</a>
</g>
</g>
<!-- Node5&#45;&gt;Node1 -->
<g id="edge4" class="edge">
<title>Node5&#45;&gt;Node1</title>
<path fill="none" stroke="#9a32cd" stroke-dasharray="5,2" d="M407.35,-79.71C375.65,-66.88 327.85,-47.53 294.36,-33.98"/>
<polygon fill="#9a32cd" stroke="#9a32cd" points="405.86,-83.29 416.44,-83.79 408.49,-76.8 405.86,-83.29"/>
<text text-anchor="middle" x="396.5" y="-55.75" font-family="Helvetica,sans-Serif" font-size="10.00"> sensitivity</text>
</g>
</g>
</svg>
