<?xml version="1.0" encoding="UTF-8" standalone="no"?>
<!DOCTYPE svg PUBLIC "-//W3C//DTD SVG 1.1//EN"
 "http://www.w3.org/Graphics/SVG/1.1/DTD/svg11.dtd">
<!-- Generated by graphviz version 7.1.0 (20230122.1345)
 -->
<!-- Title: ReactionRateModelParamsPalandriKharaka::Catalyst Pages: 1 -->
<svg width="198pt" height="174pt"
 viewBox="0.00 0.00 197.50 174.00" xmlns="http://www.w3.org/2000/svg" xmlns:xlink="http://www.w3.org/1999/xlink">
<g id="graph0" class="graph" transform="scale(1 1) rotate(0) translate(4 170)">
<title>ReactionRateModelParamsPalandriKharaka::Catalyst</title>
<!-- Node1 -->
<g id="node1" class="node">
<title>Node1</title>
<g id="a_node1"><a xlink:title="The parameters for a catalyser property in a mineral reaction rate mechanism of">
<polygon fill="#bfbfbf" stroke="black" points="0,-0.5 0,-30.5 187,-30.5 187,-0.5 0,-0.5"/>
<text text-anchor="start" x="8" y="-18.5" font-family="Helvetica,sans-Serif" font-size="10.00">ReactionRateModelParamsPalandri</text>
<text text-anchor="middle" x="93.5" y="-7.5" font-family="Helvetica,sans-Serif" font-size="10.00">Kharaka::Catalyst</text>
</a>
</g>
</g>
<!-- Node2 -->
<g id="node2" class="node">
<title>Node2</title>
<g id="a_node2"><a xlink:href="classReaktoro_1_1Param.html" target="_top" xlink:title="A type used to represent the value of a parameter and its lower and upper bounds.">
<polygon fill="none" stroke="black" points="42,-89.5 42,-108.5 89,-108.5 89,-89.5 42,-89.5"/>
<text text-anchor="middle" x="65.5" y="-96.5" font-family="Helvetica,sans-Serif" font-size="10.00">Param</text>
</a>
</g>
</g>
<!-- Node2&#45;&gt;Node1 -->
<g id="edge1" class="edge">
<title>Node2&#45;&gt;Node1</title>
<path fill="none" stroke="#9a32cd" stroke-dasharray="5,2" d="M64.66,-78.27C64.89,-69.12 66.04,-58.23 69.5,-49 72.01,-42.3 76.33,-35.78 80.62,-30.36"/>
<polygon fill="#9a32cd" stroke="#9a32cd" points="61.16,-78.26 64.8,-88.21 68.16,-78.16 61.16,-78.26"/>
<text text-anchor="middle" x="86.5" y="-57.5" font-family="Helvetica,sans-Serif" font-size="10.00"> power</text>
</g>
<!-- Node3 -->
<g id="node3" class="node">
<title>Node3</title>
<g id="a_node3"><a xlink:title=" ">
<polygon fill="none" stroke="#bfbfbf" points="107.5,-89.5 107.5,-108.5 151.5,-108.5 151.5,-89.5 107.5,-89.5"/>
<text text-anchor="middle" x="129.5" y="-96.5" font-family="Helvetica,sans-Serif" font-size="10.00">string</text>
</a>
</g>
</g>
<!-- Node3&#45;&gt;Node1 -->
<g id="edge2" class="edge">
<title>Node3&#45;&gt;Node1</title>
<path fill="none" stroke="#9a32cd" stroke-dasharray="5,2" d="M121.14,-79.08C114.57,-64.2 105.57,-43.83 99.65,-30.42"/>
<polygon fill="#9a32cd" stroke="#9a32cd" points="117.93,-80.47 125.17,-88.2 124.33,-77.64 117.93,-80.47"/>
<text text-anchor="middle" x="138.5" y="-63" font-family="Helvetica,sans-Serif" font-size="10.00"> formula</text>
<text text-anchor="middle" x="138.5" y="-52" font-family="Helvetica,sans-Serif" font-size="10.00">property</text>
</g>
<!-- Node4 -->
<g id="node4" class="node">
<title>Node4</title>
<g id="a_node4"><a xlink:title=" ">
<polygon fill="none" stroke="#bfbfbf" points="69.5,-146.5 69.5,-165.5 189.5,-165.5 189.5,-146.5 69.5,-146.5"/>
<text text-anchor="middle" x="129.5" y="-153.5" font-family="Helvetica,sans-Serif" font-size="10.00">basic_string&lt; Char &gt;</text>
</a>
</g>
</g>
<!-- Node4&#45;&gt;Node3 -->
<g id="edge3" class="edge">
<title>Node4&#45;&gt;Node3</title>
<path fill="none" stroke="midnightblue" d="M129.5,-135.39C129.5,-126.02 129.5,-115.31 129.5,-108.15"/>
<polygon fill="midnightblue" stroke="midnightblue" points="126,-135.37 129.5,-145.37 133,-135.37 126,-135.37"/>
</g>
</g>
</svg>
