<?xml version="1.0" encoding="UTF-8" standalone="no"?>
<!DOCTYPE svg PUBLIC "-//W3C//DTD SVG 1.1//EN"
 "http://www.w3.org/Graphics/SVG/1.1/DTD/svg11.dtd">
<!-- Generated by graphviz version 3.0.0 (20220226.1711)
 -->
<!-- Title: StandardThermoModelParamsNasa::Polynomial Pages: 1 -->
<svg width="174pt" height="251pt"
 viewBox="0.00 0.00 173.50 251.00" xmlns="http://www.w3.org/2000/svg" xmlns:xlink="http://www.w3.org/1999/xlink">
<g id="graph0" class="graph" transform="scale(1 1) rotate(0) translate(4 247)">
<title>StandardThermoModelParamsNasa::Polynomial</title>
<!-- Node1 -->
<g id="node1" class="node">
<title>Node1</title>
<g id="a_node1"><a xlink:title="Used to store Nasa polynomial coefficients valid for a certain temperature interval.">
<polygon fill="#bfbfbf" stroke="black" points="16.5,-0.5 16.5,-30.5 165.5,-30.5 165.5,-0.5 16.5,-0.5"/>
<text text-anchor="start" x="24.5" y="-18.5" font-family="Helvetica,sans-Serif" font-size="10.00">StandardThermoModelParams</text>
<text text-anchor="middle" x="91" y="-7.5" font-family="Helvetica,sans-Serif" font-size="10.00">Nasa::Polynomial</text>
</a>
</g>
</g>
<!-- Node2 -->
<g id="node2" class="node">
<title>Node2</title>
<g id="a_node2"><a xlink:title=" ">
<polygon fill="none" stroke="black" points="33.5,-166.5 33.5,-185.5 74.5,-185.5 74.5,-166.5 33.5,-166.5"/>
<text text-anchor="middle" x="54" y="-173.5" font-family="Helvetica,sans-Serif" font-size="10.00">string</text>
</a>
</g>
</g>
<!-- Node2&#45;&gt;Node1 -->
<g id="edge1" class="edge">
<title>Node2&#45;&gt;Node1</title>
<path fill="none" stroke="#9a32cd" stroke-dasharray="5,2" d="M53.21,-156.4C52.78,-131.21 54.23,-85.22 68,-49 70.46,-42.54 74.5,-36.17 78.52,-30.8"/>
<polygon fill="#9a32cd" stroke="#9a32cd" points="49.72,-156.51 53.51,-166.4 56.71,-156.31 49.72,-156.51"/>
<text text-anchor="middle" x="80" y="-96" font-family="Helvetica,sans-Serif" font-size="10.00"> label</text>
</g>
<!-- Node3 -->
<g id="node3" class="node">
<title>Node3</title>
<g id="a_node3"><a xlink:title=" ">
<polygon fill="none" stroke="black" points="0,-223.5 0,-242.5 108,-242.5 108,-223.5 0,-223.5"/>
<text text-anchor="middle" x="54" y="-230.5" font-family="Helvetica,sans-Serif" font-size="10.00">basic_string&lt; Char &gt;</text>
</a>
</g>
</g>
<!-- Node3&#45;&gt;Node2 -->
<g id="edge2" class="edge">
<title>Node3&#45;&gt;Node2</title>
<path fill="none" stroke="midnightblue" d="M54,-213.12C54,-203.82 54,-193.06 54,-185.71"/>
<polygon fill="midnightblue" stroke="midnightblue" points="50.5,-213.41 54,-223.41 57.5,-213.41 50.5,-213.41"/>
</g>
<!-- Node4 -->
<g id="node4" class="node">
<title>Node4</title>
<g id="a_node4"><a xlink:href="class_reaktoro_1_1_param.html" target="_top" xlink:title="A type used to represent the value of a parameter and its lower and upper bounds.">
<polygon fill="none" stroke="black" points="92.5,-166.5 92.5,-185.5 137.5,-185.5 137.5,-166.5 92.5,-166.5"/>
<text text-anchor="middle" x="115" y="-173.5" font-family="Helvetica,sans-Serif" font-size="10.00">Param</text>
</a>
</g>
</g>
<!-- Node4&#45;&gt;Node1 -->
<g id="edge3" class="edge">
<title>Node4&#45;&gt;Node1</title>
<path fill="none" stroke="#9a32cd" stroke-dasharray="5,2" d="M112.16,-156.26C107.3,-124.17 97.49,-59.39 93.15,-30.71"/>
<polygon fill="#9a32cd" stroke="#9a32cd" points="108.75,-157.12 113.71,-166.48 115.67,-156.07 108.75,-157.12"/>
<text text-anchor="middle" x="117" y="-140" font-family="Helvetica,sans-Serif" font-size="10.00"> a1</text>
<text text-anchor="middle" x="117" y="-129" font-family="Helvetica,sans-Serif" font-size="10.00">a2</text>
<text text-anchor="middle" x="117" y="-118" font-family="Helvetica,sans-Serif" font-size="10.00">a3</text>
<text text-anchor="middle" x="117" y="-107" font-family="Helvetica,sans-Serif" font-size="10.00">a4</text>
<text text-anchor="middle" x="117" y="-96" font-family="Helvetica,sans-Serif" font-size="10.00">a5</text>
<text text-anchor="middle" x="117" y="-85" font-family="Helvetica,sans-Serif" font-size="10.00">a6</text>
<text text-anchor="middle" x="117" y="-74" font-family="Helvetica,sans-Serif" font-size="10.00">a7</text>
<text text-anchor="middle" x="117" y="-63" font-family="Helvetica,sans-Serif" font-size="10.00">b1</text>
<text text-anchor="middle" x="117" y="-52" font-family="Helvetica,sans-Serif" font-size="10.00">b2</text>
</g>
</g>
</svg>
