<?xml version="1.0" encoding="UTF-8" standalone="no"?>
<!DOCTYPE svg PUBLIC "-//W3C//DTD SVG 1.1//EN"
 "http://www.w3.org/Graphics/SVG/1.1/DTD/svg11.dtd">
<!-- Generated by graphviz version 2.50.0 (20220117.2223)
 -->
<!-- Title: Exception Pages: 1 -->
<svg width="290pt" height="402pt"
 viewBox="0.00 0.00 289.50 402.00" xmlns="http://www.w3.org/2000/svg" xmlns:xlink="http://www.w3.org/1999/xlink">
<g id="graph0" class="graph" transform="scale(1 1) rotate(0) translate(4 398)">
<title>Exception</title>
<!-- Node1 -->
<g id="node1" class="node">
<title>Node1</title>
<g id="a_node1"><a xlink:title="Provides a convenient way to initialized an exception with helpful error messages.">
<polygon fill="#bfbfbf" stroke="black" points="106.5,-0.5 106.5,-19.5 171.5,-19.5 171.5,-0.5 106.5,-0.5"/>
<text text-anchor="middle" x="139" y="-7.5" font-family="Helvetica,sans-Serif" font-size="10.00">Exception</text>
</a>
</g>
</g>
<!-- Node2 -->
<g id="node2" class="node">
<title>Node2</title>
<g id="a_node2"><a xlink:title=" ">
<polygon fill="none" stroke="#bfbfbf" points="99.5,-78.5 99.5,-97.5 178.5,-97.5 178.5,-78.5 99.5,-78.5"/>
<text text-anchor="middle" x="139" y="-85.5" font-family="Helvetica,sans-Serif" font-size="10.00">stringstream</text>
</a>
</g>
</g>
<!-- Node2&#45;&gt;Node1 -->
<g id="edge1" class="edge">
<title>Node2&#45;&gt;Node1</title>
<path fill="none" stroke="#9a32cd" stroke-dasharray="5,2" d="M139,-68.22C139,-52.7 139,-31.36 139,-19.62"/>
<polygon fill="#9a32cd" stroke="#9a32cd" points="135.5,-68.28 139,-78.28 142.5,-68.28 135.5,-68.28"/>
<text text-anchor="middle" x="156" y="-52" font-family="Helvetica,sans-Serif" font-size="10.00"> error</text>
<text text-anchor="middle" x="156" y="-41" font-family="Helvetica,sans-Serif" font-size="10.00">reason</text>
</g>
<!-- Node3 -->
<g id="node3" class="node">
<title>Node3</title>
<g id="a_node3"><a xlink:title=" ">
<polygon fill="none" stroke="#bfbfbf" points="84,-135.5 84,-165.5 194,-165.5 194,-135.5 84,-135.5"/>
<text text-anchor="start" x="92" y="-153.5" font-family="Helvetica,sans-Serif" font-size="10.00">basic_stringstream</text>
<text text-anchor="middle" x="139" y="-142.5" font-family="Helvetica,sans-Serif" font-size="10.00">&lt; Char &gt;</text>
</a>
</g>
</g>
<!-- Node3&#45;&gt;Node2 -->
<g id="edge2" class="edge">
<title>Node3&#45;&gt;Node2</title>
<path fill="none" stroke="midnightblue" d="M139,-125.35C139,-115.51 139,-104.78 139,-97.54"/>
<polygon fill="midnightblue" stroke="midnightblue" points="135.5,-125.47 139,-135.47 142.5,-125.47 135.5,-125.47"/>
</g>
<!-- Node4 -->
<g id="node4" class="node">
<title>Node4</title>
<g id="a_node4"><a xlink:title=" ">
<polygon fill="none" stroke="#bfbfbf" points="71,-203.5 71,-222.5 207,-222.5 207,-203.5 71,-203.5"/>
<text text-anchor="middle" x="139" y="-210.5" font-family="Helvetica,sans-Serif" font-size="10.00">basic_iostream&lt; Char &gt;</text>
</a>
</g>
</g>
<!-- Node4&#45;&gt;Node3 -->
<g id="edge3" class="edge">
<title>Node4&#45;&gt;Node3</title>
<path fill="none" stroke="midnightblue" d="M139,-193.22C139,-184.36 139,-173.96 139,-165.76"/>
<polygon fill="midnightblue" stroke="midnightblue" points="135.5,-193.33 139,-203.33 142.5,-193.33 135.5,-193.33"/>
</g>
<!-- Node5 -->
<g id="node5" class="node">
<title>Node5</title>
<g id="a_node5"><a xlink:title=" ">
<polygon fill="none" stroke="#bfbfbf" points="0,-260.5 0,-279.5 130,-279.5 130,-260.5 0,-260.5"/>
<text text-anchor="middle" x="65" y="-267.5" font-family="Helvetica,sans-Serif" font-size="10.00">basic_istream&lt; Char &gt;</text>
</a>
</g>
</g>
<!-- Node5&#45;&gt;Node4 -->
<g id="edge4" class="edge">
<title>Node5&#45;&gt;Node4</title>
<path fill="none" stroke="midnightblue" d="M84.8,-254.29C98.35,-244.21 115.88,-231.19 127.27,-222.71"/>
<polygon fill="midnightblue" stroke="midnightblue" points="82.5,-251.63 76.56,-260.41 86.68,-257.25 82.5,-251.63"/>
</g>
<!-- Node6 -->
<g id="node6" class="node">
<title>Node6</title>
<g id="a_node6"><a xlink:title=" ">
<polygon fill="none" stroke="#bfbfbf" points="85.5,-317.5 85.5,-336.5 192.5,-336.5 192.5,-317.5 85.5,-317.5"/>
<text text-anchor="middle" x="139" y="-324.5" font-family="Helvetica,sans-Serif" font-size="10.00">basic_ios&lt; Char &gt;</text>
</a>
</g>
</g>
<!-- Node6&#45;&gt;Node5 -->
<g id="edge5" class="edge">
<title>Node6&#45;&gt;Node5</title>
<path fill="none" stroke="midnightblue" d="M119.2,-311.29C105.65,-301.21 88.12,-288.19 76.73,-279.71"/>
<polygon fill="midnightblue" stroke="midnightblue" points="117.32,-314.25 127.44,-317.41 121.5,-308.63 117.32,-314.25"/>
</g>
<!-- Node8 -->
<g id="node8" class="node">
<title>Node8</title>
<g id="a_node8"><a xlink:title=" ">
<polygon fill="none" stroke="#bfbfbf" points="148.5,-260.5 148.5,-279.5 281.5,-279.5 281.5,-260.5 148.5,-260.5"/>
<text text-anchor="middle" x="215" y="-267.5" font-family="Helvetica,sans-Serif" font-size="10.00">basic_ostream&lt; Char &gt;</text>
</a>
</g>
</g>
<!-- Node6&#45;&gt;Node8 -->
<g id="edge8" class="edge">
<title>Node6&#45;&gt;Node8</title>
<path fill="none" stroke="midnightblue" d="M159.33,-311.29C173.26,-301.21 191.25,-288.19 202.96,-279.71"/>
<polygon fill="midnightblue" stroke="midnightblue" points="156.92,-308.71 150.88,-317.41 161.03,-314.38 156.92,-308.71"/>
</g>
<!-- Node7 -->
<g id="node7" class="node">
<title>Node7</title>
<g id="a_node7"><a xlink:title=" ">
<polygon fill="none" stroke="#bfbfbf" points="109.5,-374.5 109.5,-393.5 168.5,-393.5 168.5,-374.5 109.5,-374.5"/>
<text text-anchor="middle" x="139" y="-381.5" font-family="Helvetica,sans-Serif" font-size="10.00">ios_base</text>
</a>
</g>
</g>
<!-- Node7&#45;&gt;Node6 -->
<g id="edge6" class="edge">
<title>Node7&#45;&gt;Node6</title>
<path fill="none" stroke="midnightblue" d="M139,-364.12C139,-354.82 139,-344.06 139,-336.71"/>
<polygon fill="midnightblue" stroke="midnightblue" points="135.5,-364.41 139,-374.41 142.5,-364.41 135.5,-364.41"/>
</g>
<!-- Node8&#45;&gt;Node4 -->
<g id="edge7" class="edge">
<title>Node8&#45;&gt;Node4</title>
<path fill="none" stroke="midnightblue" d="M194.67,-254.29C180.74,-244.21 162.75,-231.19 151.04,-222.71"/>
<polygon fill="midnightblue" stroke="midnightblue" points="192.97,-257.38 203.12,-260.41 197.08,-251.71 192.97,-257.38"/>
</g>
</g>
</svg>
