<?xml version="1.0" encoding="UTF-8" standalone="no"?>
<!DOCTYPE svg PUBLIC "-//W3C//DTD SVG 1.1//EN"
 "http://www.w3.org/Graphics/SVG/1.1/DTD/svg11.dtd">
<!-- Generated by graphviz version 8.0.5 (20230506.1012)
 -->
<!-- Title: ConstraintEquation Pages: 1 -->
<svg width="228pt" height="218pt"
 viewBox="0.00 0.00 228.25 217.75" xmlns="http://www.w3.org/2000/svg" xmlns:xlink="http://www.w3.org/1999/xlink">
<g id="graph0" class="graph" transform="scale(1 1) rotate(0) translate(4 213.75)">
<title>ConstraintEquation</title>
<!-- Node1 -->
<g id="node1" class="node">
<title>Node1</title>
<g id="a_node1"><a xlink:title="Used to define equation constraints in a chemical equilibrium problem.">
<polygon fill="#bfbfbf" stroke="black" points="24,-0.5 24,-21.25 133,-21.25 133,-0.5 24,-0.5"/>
<text text-anchor="middle" x="78.5" y="-7.75" font-family="Helvetica,sans-Serif" font-size="10.00">ConstraintEquation</text>
</a>
</g>
</g>
<!-- Node2 -->
<g id="node2" class="node">
<title>Node2</title>
<g id="a_node2"><a xlink:href="structReaktoro_1_1EquationConstraint.html" target="_top" xlink:title="Used to define equation constraints in a chemical equilibrium problem.">
<polygon fill="none" stroke="black" points="24,-59.25 24,-80 133,-80 133,-59.25 24,-59.25"/>
<text text-anchor="middle" x="78.5" y="-66.5" font-family="Helvetica,sans-Serif" font-size="10.00">EquationConstraint</text>
</a>
</g>
</g>
<!-- Node2&#45;&gt;Node1 -->
<g id="edge1" class="edge">
<title>Node2&#45;&gt;Node1</title>
<path fill="none" stroke="midnightblue" d="M78.5,-48.45C78.5,-39.1 78.5,-28.46 78.5,-21.07"/>
<polygon fill="midnightblue" stroke="midnightblue" points="75,-48.25 78.5,-58.25 82,-48.25 75,-48.25"/>
</g>
<!-- Node3 -->
<g id="node3" class="node">
<title>Node3</title>
<g id="a_node3"><a xlink:href="structReaktoro_1_1EquationConstraintFn.html" target="_top" xlink:title="Used to define the function that evaluates the residual of an equation constraint in a chemical equil...">
<polygon fill="none" stroke="black" points="0,-129.75 0,-150.5 121,-150.5 121,-129.75 0,-129.75"/>
<text text-anchor="middle" x="60.5" y="-137" font-family="Helvetica,sans-Serif" font-size="10.00">EquationConstraintFn</text>
</a>
</g>
</g>
<!-- Node3&#45;&gt;Node2 -->
<g id="edge2" class="edge">
<title>Node3&#45;&gt;Node2</title>
<path fill="none" stroke="#9a32cd" stroke-dasharray="5,2" d="M65.65,-119.54C69.09,-106.44 73.46,-89.82 76.11,-79.72"/>
<polygon fill="#9a32cd" stroke="#9a32cd" points="62.08,-118.33 62.93,-128.89 68.85,-120.1 62.08,-118.33"/>
<text text-anchor="middle" x="77.88" y="-101.75" font-family="Helvetica,sans-Serif" font-size="10.00"> fn</text>
</g>
<!-- Node4 -->
<g id="node4" class="node">
<title>Node4</title>
<g id="a_node4"><a xlink:title=" ">
<polygon fill="none" stroke="#bfbfbf" points="138.62,-129.75 138.62,-150.5 182.38,-150.5 182.38,-129.75 138.62,-129.75"/>
<text text-anchor="middle" x="160.5" y="-137" font-family="Helvetica,sans-Serif" font-size="10.00">string</text>
</a>
</g>
</g>
<!-- Node4&#45;&gt;Node2 -->
<g id="edge3" class="edge">
<title>Node4&#45;&gt;Node2</title>
<path fill="none" stroke="#9a32cd" stroke-dasharray="5,2" d="M141.27,-123.06C125.21,-109.65 102.89,-91 89.65,-79.94"/>
<polygon fill="#9a32cd" stroke="#9a32cd" points="138.52,-126.16 148.44,-129.89 143.01,-120.79 138.52,-126.16"/>
<text text-anchor="middle" x="132.5" y="-101.75" font-family="Helvetica,sans-Serif" font-size="10.00"> id</text>
</g>
<!-- Node5 -->
<g id="node5" class="node">
<title>Node5</title>
<g id="a_node5"><a xlink:title=" ">
<polygon fill="none" stroke="#bfbfbf" points="100.75,-188.5 100.75,-209.25 220.25,-209.25 220.25,-188.5 100.75,-188.5"/>
<text text-anchor="middle" x="160.5" y="-195.75" font-family="Helvetica,sans-Serif" font-size="10.00">basic_string&lt; Char &gt;</text>
</a>
</g>
</g>
<!-- Node5&#45;&gt;Node4 -->
<g id="edge4" class="edge">
<title>Node5&#45;&gt;Node4</title>
<path fill="none" stroke="midnightblue" d="M160.5,-177.7C160.5,-168.35 160.5,-157.71 160.5,-150.32"/>
<polygon fill="midnightblue" stroke="midnightblue" points="157,-177.5 160.5,-187.5 164,-177.5 157,-177.5"/>
</g>
</g>
</svg>
