<?xml version="1.0" encoding="UTF-8" standalone="no"?>
<!DOCTYPE svg PUBLIC "-//W3C//DTD SVG 1.1//EN"
 "http://www.w3.org/Graphics/SVG/1.1/DTD/svg11.dtd">
<!-- Generated by graphviz version 8.1.0 (20230707.2238)
 -->
<!-- Title: SmartEquilibriumSolver::Record Pages: 1 -->
<!--zoomable 113 -->
<svg id="main" version="1.1" xmlns="http://www.w3.org/2000/svg" xmlns:xlink="http://www.w3.org/1999/xlink" xml:space="preserve" onload="init(evt)">
<style type="text/css"><![CDATA[
.edge:hover path { stroke: red; }
.edge:hover polygon { stroke: red; fill: red; }
]]></style>
<script type="text/javascript"><![CDATA[
var edges = document.getElementsByTagName('g');
if (edges && edges.length) {
  for (var i=0;i<edges.length;i++) {
    if (edges[i].id.substr(0,4)=='edge') {
      edges[i].setAttribute('class','edge');
    }
  }
}
]]></script>
        <defs>
                <circle id="rim" cx="0" cy="0" r="7"/>
                <circle id="rim2" cx="0" cy="0" r="3.5"/>
                <g id="zoomPlus">
                        <use xlink:href="#rim" fill="#404040">
                                <set attributeName="fill" to="#808080" begin="zoomplus.mouseover" end="zoomplus.mouseout"/>
                        </use>
                        <path d="M-4,0h8M0,-4v8" fill="none" stroke="white" stroke-width="1.5" pointer-events="none"/>
                </g>
                <g id="zoomMin">
                        <use xlink:href="#rim" fill="#404040">
                                <set attributeName="fill" to="#808080" begin="zoomminus.mouseover" end="zoomminus.mouseout"/>
                        </use>
                        <path d="M-4,0h8" fill="none" stroke="white" stroke-width="1.5" pointer-events="none"/>
                </g>
                <g id="dirArrow">
                        <path fill="none" stroke="white" stroke-width="1.5" d="M0,-3.0v7 M-2.5,-0.5L0,-3.0L2.5,-0.5"/>
                </g>
               <g id="resetDef">
                       <use xlink:href="#rim2" fill="#404040">
                               <set attributeName="fill" to="#808080" begin="reset.mouseover" end="reset.mouseout"/>
                       </use>
               </g>
        </defs>

<script type="text/javascript">
var viewWidth = 510;
var viewHeight = 113;
var sectionId = 'dynsection-0';
</script>
<script xlink:href="svgpan.js"/>
<svg id="graph" class="graph">
<g id="viewport">
<title>SmartEquilibriumSolver::Record</title>
<!-- Node1 -->
<g id="node1" class="node">
<title>Node1</title>
<g id="a_node1"><a xlink:title="The record of the knowledge database containing input, output, and derivatives data.">
<polygon fill="#bfbfbf" stroke="black" points="189.75,-0.5 189.75,-34 321.25,-34 321.25,-0.5 189.75,-0.5"/>
<text text-anchor="start" x="197.75" y="-20.5" font-family="Helvetica,sans-Serif" font-size="10.00">SmartEquilibriumSolver</text>
<text text-anchor="middle" x="255.5" y="-7.75" font-family="Helvetica,sans-Serif" font-size="10.00">::Record</text>
</a>
</g>
</g>
<!-- Node2 -->
<g id="node2" class="node">
<title>Node2</title>
<g id="a_node2"><a xlink:href="classReaktoro_1_1EquilibriumPredictor.html" target="_top" xlink:title="Used to predict a chemical equilibrium state at given conditions using first&#45;order Taylor approximati...">
<polygon fill="none" stroke="black" points="0,-83.75 0,-104.5 115,-104.5 115,-83.75 0,-83.75"/>
<text text-anchor="middle" x="57.5" y="-91" font-family="Helvetica,sans-Serif" font-size="10.00">EquilibriumPredictor</text>
</a>
</g>
</g>
<!-- Node2&#45;&gt;Node1 -->
<g id="edge1" class="edge">
<title>Node2&#45;&gt;Node1</title>
<path fill="none" stroke="#9a32cd" stroke-dasharray="5,2" d="M92.09,-80.04C126.02,-67.22 177.76,-47.65 213.9,-33.98"/>
<polygon fill="#9a32cd" stroke="#9a32cd" points="91.29,-76.98 83.18,-83.79 93.77,-83.53 91.29,-76.98"/>
<text text-anchor="middle" x="185.75" y="-55.75" font-family="Helvetica,sans-Serif" font-size="10.00"> predictor</text>
</g>
<!-- Node3 -->
<g id="node3" class="node">
<title>Node3</title>
<g id="a_node3"><a xlink:href="classReaktoro_1_1EquilibriumConditions.html" target="_top" xlink:title="The class used to define conditions to be satisfied at chemical equilibrium.">
<polygon fill="none" stroke="black" points="132.88,-83.75 132.88,-104.5 256.12,-104.5 256.12,-83.75 132.88,-83.75"/>
<text text-anchor="middle" x="194.5" y="-91" font-family="Helvetica,sans-Serif" font-size="10.00">EquilibriumConditions</text>
</a>
</g>
</g>
<!-- Node3&#45;&gt;Node1 -->
<g id="edge2" class="edge">
<title>Node3&#45;&gt;Node1</title>
<path fill="none" stroke="#9a32cd" stroke-dasharray="5,2" d="M208.78,-75.6C219.1,-62.93 232.93,-45.95 242.86,-33.76"/>
<polygon fill="#9a32cd" stroke="#9a32cd" points="205.58,-72.98 201.98,-82.94 211.01,-77.4 205.58,-72.98"/>
<text text-anchor="middle" x="254.12" y="-55.75" font-family="Helvetica,sans-Serif" font-size="10.00"> conditions</text>
</g>
<!-- Node4 -->
<g id="node4" class="node">
<title>Node4</title>
<g id="a_node4"><a xlink:href="classReaktoro_1_1ChemicalState.html" target="_top" xlink:title="The chemical state of a chemical system.">
<polygon fill="none" stroke="black" points="273.88,-83.75 273.88,-104.5 361.12,-104.5 361.12,-83.75 273.88,-83.75"/>
<text text-anchor="middle" x="317.5" y="-91" font-family="Helvetica,sans-Serif" font-size="10.00">ChemicalState</text>
</a>
</g>
</g>
<!-- Node4&#45;&gt;Node1 -->
<g id="edge3" class="edge">
<title>Node4&#45;&gt;Node1</title>
<path fill="none" stroke="#9a32cd" stroke-dasharray="5,2" d="M303.49,-75.72C297.65,-68.51 290.78,-60.07 284.5,-52.5 279.43,-46.38 273.79,-39.7 268.85,-33.88"/>
<polygon fill="#9a32cd" stroke="#9a32cd" points="301.21,-77.46 310.21,-83.05 306.65,-73.07 301.21,-77.46"/>
<text text-anchor="middle" x="308.38" y="-55.75" font-family="Helvetica,sans-Serif" font-size="10.00"> state</text>
</g>
<!-- Node5 -->
<g id="node5" class="node">
<title>Node5</title>
<g id="a_node5"><a xlink:href="classReaktoro_1_1EquilibriumSensitivity.html" target="_top" xlink:title="The sensitivity derivatives of a chemical equilibrium state.">
<polygon fill="none" stroke="black" points="378.88,-83.75 378.88,-104.5 502.12,-104.5 502.12,-83.75 378.88,-83.75"/>
<text text-anchor="middle" x="440.5" y="-91" font-family="Helvetica,sans-Serif" font-size="10.00">EquilibriumSensitivity</text>
</a>
</g>
</g>
<!-- Node5&#45;&gt;Node1 -->
<g id="edge4" class="edge">
<title>Node5&#45;&gt;Node1</title>
<path fill="none" stroke="#9a32cd" stroke-dasharray="5,2" d="M407.35,-79.71C375.65,-66.88 327.85,-47.53 294.36,-33.98"/>
<polygon fill="#9a32cd" stroke="#9a32cd" points="405.86,-83.29 416.44,-83.79 408.49,-76.8 405.86,-83.29"/>
<text text-anchor="middle" x="396.5" y="-55.75" font-family="Helvetica,sans-Serif" font-size="10.00"> sensitivity</text>
</g>
</g>
</svg>
        <g id="navigator" transform="translate(0 0)" fill="#404254">
                <rect fill="#f2f5e9" fill-opacity="0.5" stroke="#606060" stroke-width=".5" x="0" y="0" width="60" height="60"/>
                <use id="zoomplus" xlink:href="#zoomPlus" x="17" y="9" onmousedown="handleZoom(evt,'in')"/>
                <use id="zoomminus" xlink:href="#zoomMin" x="42" y="9" onmousedown="handleZoom(evt,'out')"/>
                <use id="reset" xlink:href="#resetDef" x="30" y="36" onmousedown="handleReset()"/>
                <g id="arrowUp" xlink:href="#dirArrow" transform="translate(30 24)" onmousedown="handlePan(0,-1)">
                  <use xlink:href="#rim" fill="#404040">
                        <set attributeName="fill" to="#808080" begin="arrowUp.mouseover" end="arrowUp.mouseout"/>
                  </use>
                  <path fill="none" stroke="white" stroke-width="1.5" d="M0,-3.0v7 M-2.5,-0.5L0,-3.0L2.5,-0.5"/>
                </g>
                <g id="arrowRight" xlink:href="#dirArrow" transform="rotate(90) translate(36 -43)" onmousedown="handlePan(1,0)">
                  <use xlink:href="#rim" fill="#404040">
                        <set attributeName="fill" to="#808080" begin="arrowRight.mouseover" end="arrowRight.mouseout"/>
                  </use>
                  <path fill="none" stroke="white" stroke-width="1.5" d="M0,-3.0v7 M-2.5,-0.5L0,-3.0L2.5,-0.5"/>
                </g>
                <g id="arrowDown" xlink:href="#dirArrow" transform="rotate(180) translate(-30 -48)" onmousedown="handlePan(0,1)">
                  <use xlink:href="#rim" fill="#404040">
                        <set attributeName="fill" to="#808080" begin="arrowDown.mouseover" end="arrowDown.mouseout"/>
                  </use>
                  <path fill="none" stroke="white" stroke-width="1.5" d="M0,-3.0v7 M-2.5,-0.5L0,-3.0L2.5,-0.5"/>
                </g>
                <g id="arrowLeft" xlink:href="#dirArrow" transform="rotate(270) translate(-36 17)" onmousedown="handlePan(-1,0)">
                  <use xlink:href="#rim" fill="#404040">
                        <set attributeName="fill" to="#808080" begin="arrowLeft.mouseover" end="arrowLeft.mouseout"/>
                  </use>
                  <path fill="none" stroke="white" stroke-width="1.5" d="M0,-3.0v7 M-2.5,-0.5L0,-3.0L2.5,-0.5"/>
                </g>
        </g>
        <svg viewBox="0 0 15 15" width="100%" height="30px" preserveAspectRatio="xMaxYMin meet">
         <g id="arrow_out" transform="scale(0.3 0.3)">
          <a xlink:href="structReaktoro_1_1SmartEquilibriumSolver_1_1Record__coll__graph_org.svg" target="_base">
           <rect id="button" ry="5" rx="5" y="6" x="6" height="38" width="38"
                fill="#f2f5e9" fill-opacity="0.5" stroke="#606060" stroke-width="1.0"/>
           <path id="arrow"
             d="M 11.500037,31.436501 C 11.940474,20.09759 22.043105,11.32322 32.158766,21.979434 L 37.068811,17.246167 C 37.068811,17.246167 37.088388,32 37.088388,32 L 22.160133,31.978069 C 22.160133,31.978069 26.997745,27.140456 26.997745,27.140456 C 18.528582,18.264221 13.291696,25.230495 11.500037,31.436501 z"
             style="fill:#404040;"/>
          </a>
         </g>
        </svg>
</svg>
