<?xml version="1.0" encoding="UTF-8" standalone="no"?>
<!DOCTYPE svg PUBLIC "-//W3C//DTD SVG 1.1//EN"
 "http://www.w3.org/Graphics/SVG/1.1/DTD/svg11.dtd">
<!-- Generated by graphviz version 9.0.0 (20231125.0833)
 -->
<!-- Title: SmartKineticsResult Pages: 1 -->
<svg width="937pt" height="135pt"
 viewBox="0.00 0.00 936.75 135.12" xmlns="http://www.w3.org/2000/svg" xmlns:xlink="http://www.w3.org/1999/xlink">
<g id="graph0" class="graph" transform="scale(1 1) rotate(0) translate(4 131.12)">
<title>SmartKineticsResult</title>
<!-- Node1 -->
<g id="node1" class="node">
<title>Node1</title>
<g id="a_node1"><a xlink:title="Used to describe the result of a smart chemical kinetics calculation.">
<polygon fill="#bfbfbf" stroke="black" points="813.75,-46.5 813.75,-67.25 928.75,-67.25 928.75,-46.5 813.75,-46.5"/>
<text text-anchor="middle" x="871.25" y="-53.75" font-family="Helvetica,sans-Serif" font-size="10.00">SmartKineticsResult</text>
</a>
</g>
</g>
<!-- Node2 -->
<g id="node2" class="node">
<title>Node2</title>
<g id="a_node2"><a xlink:href="structReaktoro_1_1SmartEquilibriumResult.html" target="_top" xlink:title="Used to describe the result of a smart chemical equilibrium calculation.">
<polygon fill="none" stroke="black" points="645.25,-46.5 645.25,-67.25 776.75,-67.25 776.75,-46.5 645.25,-46.5"/>
<text text-anchor="middle" x="711" y="-53.75" font-family="Helvetica,sans-Serif" font-size="10.00">SmartEquilibriumResult</text>
</a>
</g>
</g>
<!-- Node2&#45;&gt;Node1 -->
<g id="edge1" class="edge">
<title>Node2&#45;&gt;Node1</title>
<path fill="none" stroke="midnightblue" d="M788.29,-56.88C796.74,-56.88 805.23,-56.88 813.39,-56.88"/>
<polygon fill="midnightblue" stroke="midnightblue" points="788.34,-53.38 778.34,-56.88 788.34,-60.38 788.34,-53.38"/>
</g>
<!-- Node3 -->
<g id="node3" class="node">
<title>Node3</title>
<g id="a_node3"><a xlink:href="structReaktoro_1_1SmartEquilibriumResultDuringPrediction.html" target="_top" xlink:title="Used to represent the result of a prediction operation in a smart chemical equilibrium calculation.">
<polygon fill="none" stroke="black" points="393.75,-93.12 393.75,-126.62 557.5,-126.62 557.5,-93.12 393.75,-93.12"/>
<text text-anchor="start" x="401.75" y="-113.12" font-family="Helvetica,sans-Serif" font-size="10.00">SmartEquilibriumResultDuring</text>
<text text-anchor="middle" x="475.62" y="-100.38" font-family="Helvetica,sans-Serif" font-size="10.00">Prediction</text>
</a>
</g>
</g>
<!-- Node3&#45;&gt;Node2 -->
<g id="edge2" class="edge">
<title>Node3&#45;&gt;Node2</title>
<path fill="none" stroke="#9a32cd" stroke-dasharray="5,2" d="M563.59,-90.12C597.06,-82.52 634.03,-74.13 662.44,-67.68"/>
<polygon fill="#9a32cd" stroke="#9a32cd" points="562.85,-86.7 553.87,-92.33 564.4,-93.53 562.85,-86.7"/>
<text text-anchor="middle" x="601.38" y="-90.12" font-family="Helvetica,sans-Serif" font-size="10.00"> prediction</text>
</g>
<!-- Node4 -->
<g id="node4" class="node">
<title>Node4</title>
<g id="a_node4"><a xlink:title=" ">
<polygon fill="none" stroke="#bfbfbf" points="185.75,-99.5 185.75,-120.25 229.5,-120.25 229.5,-99.5 185.75,-99.5"/>
<text text-anchor="middle" x="207.62" y="-106.75" font-family="Helvetica,sans-Serif" font-size="10.00">string</text>
</a>
</g>
</g>
<!-- Node4&#45;&gt;Node3 -->
<g id="edge3" class="edge">
<title>Node4&#45;&gt;Node3</title>
<path fill="none" stroke="#9a32cd" stroke-dasharray="5,2" d="M241.22,-109.88C278.87,-109.88 342.2,-109.88 393.4,-109.88"/>
<polygon fill="#9a32cd" stroke="#9a32cd" points="241.46,-106.38 231.46,-109.88 241.46,-113.38 241.46,-106.38"/>
<text text-anchor="middle" x="326.25" y="-113.12" font-family="Helvetica,sans-Serif" font-size="10.00"> failed_with_species</text>
</g>
<!-- Node5 -->
<g id="node5" class="node">
<title>Node5</title>
<g id="a_node5"><a xlink:title=" ">
<polygon fill="none" stroke="#bfbfbf" points="0,-99.5 0,-120.25 119.5,-120.25 119.5,-99.5 0,-99.5"/>
<text text-anchor="middle" x="59.75" y="-106.75" font-family="Helvetica,sans-Serif" font-size="10.00">basic_string&lt; Char &gt;</text>
</a>
</g>
</g>
<!-- Node5&#45;&gt;Node4 -->
<g id="edge4" class="edge">
<title>Node5&#45;&gt;Node4</title>
<path fill="none" stroke="midnightblue" d="M130.94,-109.88C150.79,-109.88 170.9,-109.88 185.4,-109.88"/>
<polygon fill="midnightblue" stroke="midnightblue" points="131.18,-106.38 121.18,-109.88 131.18,-113.38 131.18,-106.38"/>
</g>
<!-- Node6 -->
<g id="node6" class="node">
<title>Node6</title>
<g id="a_node6"><a xlink:href="structReaktoro_1_1SmartEquilibriumResultDuringLearning.html" target="_top" xlink:title="Used to represent the result of a learning operation in a smart chemical equilibrium calculation.">
<polygon fill="none" stroke="black" points="393.75,-40.12 393.75,-73.62 557.5,-73.62 557.5,-40.12 393.75,-40.12"/>
<text text-anchor="start" x="401.75" y="-60.12" font-family="Helvetica,sans-Serif" font-size="10.00">SmartEquilibriumResultDuring</text>
<text text-anchor="middle" x="475.62" y="-47.38" font-family="Helvetica,sans-Serif" font-size="10.00">Learning</text>
</a>
</g>
</g>
<!-- Node6&#45;&gt;Node2 -->
<g id="edge5" class="edge">
<title>Node6&#45;&gt;Node2</title>
<path fill="none" stroke="#9a32cd" stroke-dasharray="5,2" d="M569.39,-56.88C594.62,-56.88 621.42,-56.88 644.77,-56.88"/>
<polygon fill="#9a32cd" stroke="#9a32cd" points="569.43,-53.38 559.43,-56.88 569.43,-60.38 569.43,-53.38"/>
<text text-anchor="middle" x="601.38" y="-60.12" font-family="Helvetica,sans-Serif" font-size="10.00"> learning</text>
</g>
<!-- Node7 -->
<g id="node7" class="node">
<title>Node7</title>
<g id="a_node7"><a xlink:href="structReaktoro_1_1EquilibriumResult.html" target="_top" xlink:title="A type used to describe the result of an equilibrium calculation.">
<polygon fill="none" stroke="black" points="156.5,-46.5 156.5,-67.25 258.75,-67.25 258.75,-46.5 156.5,-46.5"/>
<text text-anchor="middle" x="207.62" y="-53.75" font-family="Helvetica,sans-Serif" font-size="10.00">EquilibriumResult</text>
</a>
</g>
</g>
<!-- Node7&#45;&gt;Node6 -->
<g id="edge6" class="edge">
<title>Node7&#45;&gt;Node6</title>
<path fill="none" stroke="#9a32cd" stroke-dasharray="5,2" d="M270.47,-56.88C307.06,-56.88 353.83,-56.88 393.37,-56.88"/>
<polygon fill="#9a32cd" stroke="#9a32cd" points="270.48,-53.38 260.48,-56.88 270.48,-60.38 270.48,-53.38"/>
<text text-anchor="middle" x="326.25" y="-60.12" font-family="Helvetica,sans-Serif" font-size="10.00"> solve</text>
</g>
<!-- Node8 -->
<g id="node8" class="node">
<title>Node8</title>
<g id="a_node8"><a xlink:href="structReaktoro_1_1SmartEquilibriumTiming.html" target="_top" xlink:title="Used to provide timing information of the operations during a smart chemical equilibrium calculation.">
<polygon fill="none" stroke="black" points="408.38,-0.5 408.38,-21.25 542.88,-21.25 542.88,-0.5 408.38,-0.5"/>
<text text-anchor="middle" x="475.62" y="-7.75" font-family="Helvetica,sans-Serif" font-size="10.00">SmartEquilibriumTiming</text>
</a>
</g>
</g>
<!-- Node8&#45;&gt;Node2 -->
<g id="edge7" class="edge">
<title>Node8&#45;&gt;Node2</title>
<path fill="none" stroke="#9a32cd" stroke-dasharray="5,2" d="M544.39,-23.92C570.32,-28.94 600.16,-34.75 627.25,-40.12 636.74,-42.01 646.84,-44.03 656.6,-46"/>
<polygon fill="#9a32cd" stroke="#9a32cd" points="545.12,-20.49 534.64,-22.03 543.79,-27.37 545.12,-20.49"/>
<text text-anchor="middle" x="601.38" y="-44.12" font-family="Helvetica,sans-Serif" font-size="10.00"> timing</text>
</g>
</g>
</svg>
