<?xml version="1.0" encoding="UTF-8" standalone="no"?>
<!DOCTYPE svg PUBLIC "-//W3C//DTD SVG 1.1//EN"
 "http://www.w3.org/Graphics/SVG/1.1/DTD/svg11.dtd">
<!-- Generated by graphviz version 9.0.0 (20231125.0833)
 -->
<!-- Title: Species::Attribs Pages: 1 -->
<!--zoomable 236 -->
<svg id="main" version="1.1" xmlns="http://www.w3.org/2000/svg" xmlns:xlink="http://www.w3.org/1999/xlink" xml:space="preserve" onload="init(evt)">
<style type="text/css"><![CDATA[
.edge:hover path { stroke: red; }
.edge:hover polygon { stroke: red; fill: red; }
]]></style>
<script type="text/javascript"><![CDATA[
var edges = document.getElementsByTagName('g');
if (edges && edges.length) {
  for (var i=0;i<edges.length;i++) {
    if (edges[i].id.substr(0,4)=='edge') {
      edges[i].setAttribute('class','edge');
    }
  }
}
]]></script>
        <defs>
                <circle id="rim" cx="0" cy="0" r="7"/>
                <circle id="rim2" cx="0" cy="0" r="3.5"/>
                <g id="zoomPlus">
                        <use xlink:href="#rim" fill="#404040">
                                <set attributeName="fill" to="#808080" begin="zoomplus.mouseover" end="zoomplus.mouseout"/>
                        </use>
                        <path d="M-4,0h8M0,-4v8" fill="none" stroke="white" stroke-width="1.5" pointer-events="none"/>
                </g>
                <g id="zoomMin">
                        <use xlink:href="#rim" fill="#404040">
                                <set attributeName="fill" to="#808080" begin="zoomminus.mouseover" end="zoomminus.mouseout"/>
                        </use>
                        <path d="M-4,0h8" fill="none" stroke="white" stroke-width="1.5" pointer-events="none"/>
                </g>
                <g id="dirArrow">
                        <path fill="none" stroke="white" stroke-width="1.5" d="M0,-3.0v7 M-2.5,-0.5L0,-3.0L2.5,-0.5"/>
                </g>
               <g id="resetDef">
                       <use xlink:href="#rim2" fill="#404040">
                               <set attributeName="fill" to="#808080" begin="reset.mouseover" end="reset.mouseout"/>
                       </use>
               </g>
        </defs>

<script type="text/javascript">
var viewWidth = 682;
var viewHeight = 236;
var sectionId = 'dynsection-0';
</script>
<script xlink:href="svgpan.js"/>
<svg id="graph" class="graph">
<g id="viewport">
<title>Species::Attribs</title>
<!-- Node1 -->
<g id="node1" class="node">
<title>Node1</title>
<g id="a_node1"><a xlink:title="The attributes of a Species object.">
<polygon fill="#bfbfbf" stroke="black" points="582.25,-99.88 582.25,-120.62 674,-120.62 674,-99.88 582.25,-99.88"/>
<text text-anchor="middle" x="628.12" y="-107.12" font-family="Helvetica,sans-Serif" font-size="10.00">Species::Attribs</text>
</a>
</g>
</g>
<!-- Node2 -->
<g id="node2" class="node">
<title>Node2</title>
<g id="a_node2"><a xlink:href="classReaktoro_1_1ElementalComposition.html" target="_top" xlink:title="A type used to describe the elemental composition of chemical species.">
<polygon fill="none" stroke="black" points="304.12,-206.88 304.12,-227.62 431.12,-227.62 431.12,-206.88 304.12,-206.88"/>
<text text-anchor="middle" x="367.62" y="-214.12" font-family="Helvetica,sans-Serif" font-size="10.00">ElementalComposition</text>
</a>
</g>
</g>
<!-- Node2&#45;&gt;Node1 -->
<g id="edge1" class="edge">
<title>Node2&#45;&gt;Node1</title>
<path fill="none" stroke="#9a32cd" stroke-dasharray="5,2" d="M442.4,-206.72C480.44,-199.18 526.61,-186.64 564.25,-166.25 586.1,-154.41 606.66,-133.6 618,-120.96"/>
<polygon fill="#9a32cd" stroke="#9a32cd" points="442.05,-203.22 432.88,-208.53 443.36,-210.1 442.05,-203.22"/>
<text text-anchor="middle" x="516.25" y="-203.5" font-family="Helvetica,sans-Serif" font-size="10.00"> elements</text>
</g>
<!-- Node3 -->
<g id="node3" class="node">
<title>Node3</title>
<g id="a_node3"><a xlink:href="classReaktoro_1_1FormationReaction.html" target="_top" xlink:title="A class to represent a formation reaction of a chemical species.">
<polygon fill="none" stroke="black" points="313.5,-166.88 313.5,-187.62 421.75,-187.62 421.75,-166.88 313.5,-166.88"/>
<text text-anchor="middle" x="367.62" y="-174.12" font-family="Helvetica,sans-Serif" font-size="10.00">FormationReaction</text>
</a>
</g>
</g>
<!-- Node3&#45;&gt;Node1 -->
<g id="edge2" class="edge">
<title>Node3&#45;&gt;Node1</title>
<path fill="none" stroke="#9a32cd" stroke-dasharray="5,2" d="M421.34,-163.59C469.81,-151.03 540.71,-132.65 585.37,-121.07"/>
<polygon fill="#9a32cd" stroke="#9a32cd" points="420.71,-160.13 411.91,-166.03 422.47,-166.91 420.71,-160.13"/>
<text text-anchor="middle" x="516.25" y="-152.5" font-family="Helvetica,sans-Serif" font-size="10.00"> formation_reaction</text>
</g>
<!-- Node4 -->
<g id="node4" class="node">
<title>Node4</title>
<g id="a_node4"><a xlink:title=" ">
<polygon fill="none" stroke="#bfbfbf" points="156.5,-76.88 156.5,-97.62 200.25,-97.62 200.25,-76.88 156.5,-76.88"/>
<text text-anchor="middle" x="178.38" y="-84.12" font-family="Helvetica,sans-Serif" font-size="10.00">string</text>
</a>
</g>
</g>
<!-- Node4&#45;&gt;Node1 -->
<g id="edge3" class="edge">
<title>Node4&#45;&gt;Node1</title>
<path fill="none" stroke="#9a32cd" stroke-dasharray="5,2" d="M211.64,-95.22C213.87,-95.61 216.09,-95.97 218.25,-96.25 349.41,-113.51 506.14,-113.07 581.82,-111.54"/>
<polygon fill="#9a32cd" stroke="#9a32cd" points="212.61,-91.84 202.11,-93.26 211.2,-98.7 212.61,-91.84"/>
<text text-anchor="middle" x="367.62" y="-140" font-family="Helvetica,sans-Serif" font-size="10.00"> formula</text>
<text text-anchor="middle" x="367.62" y="-127.25" font-family="Helvetica,sans-Serif" font-size="10.00">name</text>
<text text-anchor="middle" x="367.62" y="-114.5" font-family="Helvetica,sans-Serif" font-size="10.00">substance</text>
</g>
<!-- Node7 -->
<g id="node7" class="node">
<title>Node7</title>
<g id="a_node7"><a xlink:title=" ">
<polygon fill="none" stroke="#bfbfbf" points="308.62,-52.88 308.62,-73.62 426.62,-73.62 426.62,-52.88 308.62,-52.88"/>
<text text-anchor="middle" x="367.62" y="-60.12" font-family="Helvetica,sans-Serif" font-size="10.00">vector&lt; std::string &gt;</text>
</a>
</g>
</g>
<!-- Node4&#45;&gt;Node7 -->
<g id="edge7" class="edge">
<title>Node4&#45;&gt;Node7</title>
<path fill="none" stroke="#9a32cd" stroke-dasharray="5,2" d="M211.81,-83.09C238.38,-79.69 276.64,-74.78 308.48,-70.7"/>
<polygon fill="#9a32cd" stroke="#9a32cd" points="211.47,-79.61 201.99,-84.35 212.36,-86.55 211.47,-79.61"/>
<text text-anchor="middle" x="242.62" y="-84.5" font-family="Helvetica,sans-Serif" font-size="10.00"> elements</text>
</g>
<!-- Node5 -->
<g id="node5" class="node">
<title>Node5</title>
<g id="a_node5"><a xlink:title=" ">
<polygon fill="none" stroke="#bfbfbf" points="0,-76.88 0,-97.62 119.5,-97.62 119.5,-76.88 0,-76.88"/>
<text text-anchor="middle" x="59.75" y="-84.12" font-family="Helvetica,sans-Serif" font-size="10.00">basic_string&lt; Char &gt;</text>
</a>
</g>
</g>
<!-- Node5&#45;&gt;Node4 -->
<g id="edge4" class="edge">
<title>Node5&#45;&gt;Node4</title>
<path fill="none" stroke="midnightblue" d="M131.24,-87.25C140.2,-87.25 148.75,-87.25 156.01,-87.25"/>
<polygon fill="midnightblue" stroke="midnightblue" points="131.26,-83.75 121.26,-87.25 131.26,-90.75 131.26,-83.75"/>
</g>
<!-- Node6 -->
<g id="node6" class="node">
<title>Node6</title>
<g id="a_node6"><a xlink:href="classReaktoro_1_1Model.html" target="_top" xlink:title=" ">
<polygon fill="none" stroke="black" points="285,-0.5 285,-34 450.25,-34 450.25,-0.5 285,-0.5"/>
<text text-anchor="start" x="293" y="-20.5" font-family="Helvetica,sans-Serif" font-size="10.00">Model&lt; StandardThermoProps</text>
<text text-anchor="middle" x="367.62" y="-7.75" font-family="Helvetica,sans-Serif" font-size="10.00">(real T, real P)&gt;</text>
</a>
</g>
</g>
<!-- Node6&#45;&gt;Node1 -->
<g id="edge5" class="edge">
<title>Node6&#45;&gt;Node1</title>
<path fill="none" stroke="#9a32cd" stroke-dasharray="5,2" d="M461.74,-21.8C495.41,-26.3 532.84,-34.77 564.25,-50.5 587.68,-62.23 608.31,-85.62 619.12,-99.4"/>
<polygon fill="#9a32cd" stroke="#9a32cd" points="462.34,-18.34 451.99,-20.6 461.49,-25.29 462.34,-18.34"/>
<text text-anchor="middle" x="516.25" y="-54.5" font-family="Helvetica,sans-Serif" font-size="10.00"> std_thermo_model</text>
</g>
<!-- Node7&#45;&gt;Node1 -->
<g id="edge6" class="edge">
<title>Node7&#45;&gt;Node1</title>
<path fill="none" stroke="#9a32cd" stroke-dasharray="5,2" d="M438.18,-65.4C475.96,-67.82 523.2,-72.9 564.25,-83.5 578.72,-87.24 594.18,-93.78 606.15,-99.45"/>
<polygon fill="#9a32cd" stroke="#9a32cd" points="438.48,-61.91 428.29,-64.82 438.07,-68.9 438.48,-61.91"/>
<text text-anchor="middle" x="516.25" y="-86.5" font-family="Helvetica,sans-Serif" font-size="10.00"> tags</text>
</g>
</g>
</svg>
        <g id="navigator" transform="translate(0 0)" fill="#404254">
                <rect fill="#f2f5e9" fill-opacity="0.5" stroke="#606060" stroke-width=".5" x="0" y="0" width="60" height="60"/>
                <use id="zoomplus" xlink:href="#zoomPlus" x="17" y="9" onmousedown="handleZoom(evt,'in')"/>
                <use id="zoomminus" xlink:href="#zoomMin" x="42" y="9" onmousedown="handleZoom(evt,'out')"/>
                <use id="reset" xlink:href="#resetDef" x="30" y="36" onmousedown="handleReset()"/>
                <g id="arrowUp" xlink:href="#dirArrow" transform="translate(30 24)" onmousedown="handlePan(0,-1)">
                  <use xlink:href="#rim" fill="#404040">
                        <set attributeName="fill" to="#808080" begin="arrowUp.mouseover" end="arrowUp.mouseout"/>
                  </use>
                  <path fill="none" stroke="white" stroke-width="1.5" d="M0,-3.0v7 M-2.5,-0.5L0,-3.0L2.5,-0.5"/>
                </g>
                <g id="arrowRight" xlink:href="#dirArrow" transform="rotate(90) translate(36 -43)" onmousedown="handlePan(1,0)">
                  <use xlink:href="#rim" fill="#404040">
                        <set attributeName="fill" to="#808080" begin="arrowRight.mouseover" end="arrowRight.mouseout"/>
                  </use>
                  <path fill="none" stroke="white" stroke-width="1.5" d="M0,-3.0v7 M-2.5,-0.5L0,-3.0L2.5,-0.5"/>
                </g>
                <g id="arrowDown" xlink:href="#dirArrow" transform="rotate(180) translate(-30 -48)" onmousedown="handlePan(0,1)">
                  <use xlink:href="#rim" fill="#404040">
                        <set attributeName="fill" to="#808080" begin="arrowDown.mouseover" end="arrowDown.mouseout"/>
                  </use>
                  <path fill="none" stroke="white" stroke-width="1.5" d="M0,-3.0v7 M-2.5,-0.5L0,-3.0L2.5,-0.5"/>
                </g>
                <g id="arrowLeft" xlink:href="#dirArrow" transform="rotate(270) translate(-36 17)" onmousedown="handlePan(-1,0)">
                  <use xlink:href="#rim" fill="#404040">
                        <set attributeName="fill" to="#808080" begin="arrowLeft.mouseover" end="arrowLeft.mouseout"/>
                  </use>
                  <path fill="none" stroke="white" stroke-width="1.5" d="M0,-3.0v7 M-2.5,-0.5L0,-3.0L2.5,-0.5"/>
                </g>
        </g>
        <svg viewBox="0 0 15 15" width="100%" height="30px" preserveAspectRatio="xMaxYMin meet">
         <g id="arrow_out" transform="scale(0.3 0.3)">
          <a xlink:href="structReaktoro_1_1Species_1_1Attribs__coll__graph_org.svg" target="_base">
           <rect id="button" ry="5" rx="5" y="6" x="6" height="38" width="38"
                fill="#f2f5e9" fill-opacity="0.5" stroke="#606060" stroke-width="1.0"/>
           <path id="arrow"
             d="M 11.500037,31.436501 C 11.940474,20.09759 22.043105,11.32322 32.158766,21.979434 L 37.068811,17.246167 C 37.068811,17.246167 37.088388,32 37.088388,32 L 22.160133,31.978069 C 22.160133,31.978069 26.997745,27.140456 26.997745,27.140456 C 18.528582,18.264221 13.291696,25.230495 11.500037,31.436501 z"
             style="fill:#404040;"/>
          </a>
         </g>
        </svg>
</svg>
