<?xml version="1.0" encoding="UTF-8" standalone="no"?>
<!DOCTYPE svg PUBLIC "-//W3C//DTD SVG 1.1//EN"
 "http://www.w3.org/Graphics/SVG/1.1/DTD/svg11.dtd">
<!-- Generated by graphviz version 9.0.0 (20231125.0833)
 -->
<!-- Title: ReactionRateModelParamsPalandriKharaka Pages: 1 -->
<svg width="262pt" height="242pt"
 viewBox="0.00 0.00 262.12 242.25" xmlns="http://www.w3.org/2000/svg" xmlns:xlink="http://www.w3.org/1999/xlink">
<g id="graph0" class="graph" transform="scale(1 1) rotate(0) translate(4 238.25)">
<title>ReactionRateModelParamsPalandriKharaka</title>
<!-- Node1 -->
<g id="node1" class="node">
<title>Node1</title>
<g id="a_node1"><a xlink:title="The parameters in the reaction rate model of &#160;dissolution/precipitation kinetics of minerals.">
<polygon fill="#bfbfbf" stroke="black" points="0,-0.5 0,-34 186.25,-34 186.25,-0.5 0,-0.5"/>
<text text-anchor="start" x="8" y="-20.5" font-family="Helvetica,sans-Serif" font-size="10.00">ReactionRateModelParamsPalandri</text>
<text text-anchor="middle" x="93.12" y="-7.75" font-family="Helvetica,sans-Serif" font-size="10.00">Kharaka</text>
</a>
</g>
</g>
<!-- Node2 -->
<g id="node2" class="node">
<title>Node2</title>
<g id="a_node2"><a xlink:title=" ">
<polygon fill="none" stroke="#bfbfbf" points="71.25,-154.25 71.25,-175 115,-175 115,-154.25 71.25,-154.25"/>
<text text-anchor="middle" x="93.12" y="-161.5" font-family="Helvetica,sans-Serif" font-size="10.00">string</text>
</a>
</g>
</g>
<!-- Node2&#45;&gt;Node1 -->
<g id="edge1" class="edge">
<title>Node2&#45;&gt;Node1</title>
<path fill="none" stroke="#9a32cd" stroke-dasharray="5,2" d="M90.27,-142.92C88.86,-131.72 87.32,-117.63 86.62,-105 85.26,-80.27 88.31,-51.62 90.68,-34.23"/>
<polygon fill="#9a32cd" stroke="#9a32cd" points="86.77,-143.15 91.54,-152.61 93.7,-142.23 86.77,-143.15"/>
<text text-anchor="middle" x="107.38" y="-91" font-family="Helvetica,sans-Serif" font-size="10.00"> mineral</text>
</g>
<!-- Node4 -->
<g id="node4" class="node">
<title>Node4</title>
<g id="a_node4"><a xlink:title=" ">
<polygon fill="none" stroke="#bfbfbf" points="136.12,-83.75 136.12,-104.5 254.12,-104.5 254.12,-83.75 136.12,-83.75"/>
<text text-anchor="middle" x="195.12" y="-91" font-family="Helvetica,sans-Serif" font-size="10.00">vector&lt; std::string &gt;</text>
</a>
</g>
</g>
<!-- Node2&#45;&gt;Node4 -->
<g id="edge4" class="edge">
<title>Node2&#45;&gt;Node4</title>
<path fill="none" stroke="#9a32cd" stroke-dasharray="5,2" d="M117.25,-147.43C136.91,-134.22 164.04,-116 180.54,-104.92"/>
<polygon fill="#9a32cd" stroke="#9a32cd" points="115.35,-144.49 109,-152.97 119.25,-150.3 115.35,-144.49"/>
<text text-anchor="middle" x="177.5" y="-126.25" font-family="Helvetica,sans-Serif" font-size="10.00"> elements</text>
</g>
<!-- Node3 -->
<g id="node3" class="node">
<title>Node3</title>
<g id="a_node3"><a xlink:title=" ">
<polygon fill="none" stroke="#bfbfbf" points="33.38,-213 33.38,-233.75 152.88,-233.75 152.88,-213 33.38,-213"/>
<text text-anchor="middle" x="93.12" y="-220.25" font-family="Helvetica,sans-Serif" font-size="10.00">basic_string&lt; Char &gt;</text>
</a>
</g>
</g>
<!-- Node3&#45;&gt;Node2 -->
<g id="edge2" class="edge">
<title>Node3&#45;&gt;Node2</title>
<path fill="none" stroke="midnightblue" d="M93.12,-201.31C93.12,-192.47 93.12,-182.6 93.12,-175.49"/>
<polygon fill="midnightblue" stroke="midnightblue" points="89.63,-201.23 93.13,-211.23 96.63,-201.23 89.63,-201.23"/>
</g>
<!-- Node4&#45;&gt;Node1 -->
<g id="edge3" class="edge">
<title>Node4&#45;&gt;Node1</title>
<path fill="none" stroke="#9a32cd" stroke-dasharray="5,2" d="M172.53,-76.54C155.4,-63.96 132,-46.79 115.04,-34.34"/>
<polygon fill="#9a32cd" stroke="#9a32cd" points="170.44,-79.34 180.57,-82.44 174.58,-73.7 170.44,-79.34"/>
<text text-anchor="middle" x="186.88" y="-55.75" font-family="Helvetica,sans-Serif" font-size="10.00"> othernames</text>
</g>
</g>
</svg>
