<?xml version="1.0" encoding="UTF-8" standalone="no"?>
<!DOCTYPE svg PUBLIC "-//W3C//DTD SVG 1.1//EN"
 "http://www.w3.org/Graphics/SVG/1.1/DTD/svg11.dtd">
<!-- Generated by graphviz version 8.0.5 (20230506.1012)
 -->
<!-- Title: SmartEquilibriumResultDuringPrediction Pages: 1 -->
<svg width="189pt" height="172pt"
 viewBox="0.00 0.00 188.88 171.75" xmlns="http://www.w3.org/2000/svg" xmlns:xlink="http://www.w3.org/1999/xlink">
<g id="graph0" class="graph" transform="scale(1 1) rotate(0) translate(4 167.75)">
<title>SmartEquilibriumResultDuringPrediction</title>
<!-- Node1 -->
<g id="node1" class="node">
<title>Node1</title>
<g id="a_node1"><a xlink:title="Used to represent the result of a prediction operation in a smart chemical equilibrium calculation.">
<polygon fill="#bfbfbf" stroke="black" points="0,-0.5 0,-34 163.75,-34 163.75,-0.5 0,-0.5"/>
<text text-anchor="start" x="8" y="-20.5" font-family="Helvetica,sans-Serif" font-size="10.00">SmartEquilibriumResultDuring</text>
<text text-anchor="middle" x="81.88" y="-7.75" font-family="Helvetica,sans-Serif" font-size="10.00">Prediction</text>
</a>
</g>
</g>
<!-- Node2 -->
<g id="node2" class="node">
<title>Node2</title>
<g id="a_node2"><a xlink:title=" ">
<polygon fill="none" stroke="#bfbfbf" points="60,-83.75 60,-104.5 103.75,-104.5 103.75,-83.75 60,-83.75"/>
<text text-anchor="middle" x="81.88" y="-91" font-family="Helvetica,sans-Serif" font-size="10.00">string</text>
</a>
</g>
</g>
<!-- Node2&#45;&gt;Node1 -->
<g id="edge1" class="edge">
<title>Node2&#45;&gt;Node1</title>
<path fill="none" stroke="#9a32cd" stroke-dasharray="5,2" d="M81.88,-72.96C81.88,-60.64 81.88,-45.12 81.88,-33.76"/>
<polygon fill="#9a32cd" stroke="#9a32cd" points="78.38,-72.94 81.88,-82.94 85.38,-72.94 78.38,-72.94"/>
<text text-anchor="middle" x="131.38" y="-55.75" font-family="Helvetica,sans-Serif" font-size="10.00"> failed_with_species</text>
</g>
<!-- Node3 -->
<g id="node3" class="node">
<title>Node3</title>
<g id="a_node3"><a xlink:title=" ">
<polygon fill="none" stroke="#bfbfbf" points="22.12,-142.5 22.12,-163.25 141.62,-163.25 141.62,-142.5 22.12,-142.5"/>
<text text-anchor="middle" x="81.88" y="-149.75" font-family="Helvetica,sans-Serif" font-size="10.00">basic_string&lt; Char &gt;</text>
</a>
</g>
</g>
<!-- Node3&#45;&gt;Node2 -->
<g id="edge2" class="edge">
<title>Node3&#45;&gt;Node2</title>
<path fill="none" stroke="midnightblue" d="M81.88,-131.7C81.88,-122.35 81.88,-111.71 81.88,-104.32"/>
<polygon fill="midnightblue" stroke="midnightblue" points="78.38,-131.5 81.88,-141.5 85.38,-131.5 78.38,-131.5"/>
</g>
</g>
</svg>
