<?xml version="1.0" encoding="UTF-8" standalone="no"?>
<!DOCTYPE svg PUBLIC "-//W3C//DTD SVG 1.1//EN"
 "http://www.w3.org/Graphics/SVG/1.1/DTD/svg11.dtd">
<!-- Generated by graphviz version 8.0.5 (20230506.1012)
 -->
<!-- Title: MineralReactionRateModelArgs Pages: 1 -->
<svg width="200pt" height="100pt"
 viewBox="0.00 0.00 199.88 100.25" xmlns="http://www.w3.org/2000/svg" xmlns:xlink="http://www.w3.org/1999/xlink">
<g id="graph0" class="graph" transform="scale(1 1) rotate(0) translate(4 96.25)">
<title>MineralReactionRateModelArgs</title>
<!-- Node1 -->
<g id="node1" class="node">
<title>Node1</title>
<g id="a_node1"><a xlink:title="The data provided to a MineralReactionRateModel to evaluate the rate of a mineral reaction.">
<polygon fill="#bfbfbf" stroke="black" points="9.62,-0.5 9.62,-21.25 179.38,-21.25 179.38,-0.5 9.62,-0.5"/>
<text text-anchor="middle" x="94.5" y="-7.75" font-family="Helvetica,sans-Serif" font-size="10.00">MineralReactionRateModelArgs</text>
</a>
</g>
</g>
<!-- Node2 -->
<g id="node2" class="node">
<title>Node2</title>
<g id="a_node2"><a xlink:href="classReaktoro_1_1AqueousProps.html" target="_top" xlink:title="The chemical properties of an aqueous phase.">
<polygon fill="none" stroke="black" points="0,-71 0,-91.75 85,-91.75 85,-71 0,-71"/>
<text text-anchor="middle" x="42.5" y="-78.25" font-family="Helvetica,sans-Serif" font-size="10.00">AqueousProps</text>
</a>
</g>
</g>
<!-- Node2&#45;&gt;Node1 -->
<g id="edge1" class="edge">
<title>Node2&#45;&gt;Node1</title>
<path fill="none" stroke="#9a32cd" stroke-dasharray="5,2" d="M55.88,-62.74C66.02,-49.39 79.54,-31.58 87.6,-20.97"/>
<polygon fill="#9a32cd" stroke="#9a32cd" points="52.77,-60.06 49.51,-70.14 58.35,-64.29 52.77,-60.06"/>
<text text-anchor="middle" x="91.5" y="-43" font-family="Helvetica,sans-Serif" font-size="10.00"> aprops</text>
</g>
<!-- Node3 -->
<g id="node3" class="node">
<title>Node3</title>
<g id="a_node3"><a xlink:href="classReaktoro_1_1ChemicalProps.html" target="_top" xlink:title="The class that computes chemical properties of a chemical system.">
<polygon fill="none" stroke="black" points="103.12,-71 103.12,-91.75 191.88,-91.75 191.88,-71 103.12,-71"/>
<text text-anchor="middle" x="147.5" y="-78.25" font-family="Helvetica,sans-Serif" font-size="10.00">ChemicalProps</text>
</a>
</g>
</g>
<!-- Node3&#45;&gt;Node1 -->
<g id="edge2" class="edge">
<title>Node3&#45;&gt;Node1</title>
<path fill="none" stroke="#9a32cd" stroke-dasharray="5,2" d="M133.86,-62.74C123.53,-49.39 109.75,-31.58 101.53,-20.97"/>
<polygon fill="#9a32cd" stroke="#9a32cd" points="131.46,-64.37 140.35,-70.14 137,-60.09 131.46,-64.37"/>
<text text-anchor="middle" x="140.5" y="-43" font-family="Helvetica,sans-Serif" font-size="10.00"> props</text>
</g>
</g>
</svg>
