<?xml version="1.0" encoding="UTF-8" standalone="no"?>
<!DOCTYPE svg PUBLIC "-//W3C//DTD SVG 1.1//EN"
 "http://www.w3.org/Graphics/SVG/1.1/DTD/svg11.dtd">
<!-- Generated by graphviz version 7.1.0 (20230122.1345)
 -->
<!-- Title: ReactionRateModelParamsPalandriKharaka::Mechanism Pages: 1 -->
<svg width="207pt" height="196pt"
 viewBox="0.00 0.00 206.50 196.00" xmlns="http://www.w3.org/2000/svg" xmlns:xlink="http://www.w3.org/1999/xlink">
<g id="graph0" class="graph" transform="scale(1 1) rotate(0) translate(4 192)">
<title>ReactionRateModelParamsPalandriKharaka::Mechanism</title>
<!-- Node1 -->
<g id="node1" class="node">
<title>Node1</title>
<g id="a_node1"><a xlink:title="The parameters for a mineral reaction rate mechanism of">
<polygon fill="#bfbfbf" stroke="black" points="0,-0.5 0,-30.5 187,-30.5 187,-0.5 0,-0.5"/>
<text text-anchor="start" x="8" y="-18.5" font-family="Helvetica,sans-Serif" font-size="10.00">ReactionRateModelParamsPalandri</text>
<text text-anchor="middle" x="93.5" y="-7.5" font-family="Helvetica,sans-Serif" font-size="10.00">Kharaka::Mechanism</text>
</a>
</g>
</g>
<!-- Node2 -->
<g id="node2" class="node">
<title>Node2</title>
<g id="a_node2"><a xlink:href="classReaktoro_1_1Param.html" target="_top" xlink:title="A type used to represent the value of a parameter and its lower and upper bounds.">
<polygon fill="none" stroke="black" points="51,-111.5 51,-130.5 98,-130.5 98,-111.5 51,-111.5"/>
<text text-anchor="middle" x="74.5" y="-118.5" font-family="Helvetica,sans-Serif" font-size="10.00">Param</text>
</a>
</g>
</g>
<!-- Node2&#45;&gt;Node1 -->
<g id="edge1" class="edge">
<title>Node2&#45;&gt;Node1</title>
<path fill="none" stroke="#9a32cd" stroke-dasharray="5,2" d="M78.09,-100.37C80.69,-86.12 84.31,-66.36 87.5,-49 88.62,-42.91 89.86,-36.17 90.93,-30.42"/>
<polygon fill="#9a32cd" stroke="#9a32cd" points="74.64,-99.74 76.29,-110.2 81.53,-101 74.64,-99.74"/>
<text text-anchor="middle" x="95.5" y="-85" font-family="Helvetica,sans-Serif" font-size="10.00"> E</text>
<text text-anchor="middle" x="95.5" y="-74" font-family="Helvetica,sans-Serif" font-size="10.00">lgk</text>
<text text-anchor="middle" x="95.5" y="-63" font-family="Helvetica,sans-Serif" font-size="10.00">p</text>
<text text-anchor="middle" x="95.5" y="-52" font-family="Helvetica,sans-Serif" font-size="10.00">q</text>
</g>
<!-- Node3 -->
<g id="node3" class="node">
<title>Node3</title>
<g id="a_node3"><a xlink:title=" ">
<polygon fill="none" stroke="#bfbfbf" points="116.5,-111.5 116.5,-130.5 160.5,-130.5 160.5,-111.5 116.5,-111.5"/>
<text text-anchor="middle" x="138.5" y="-118.5" font-family="Helvetica,sans-Serif" font-size="10.00">string</text>
</a>
</g>
</g>
<!-- Node3&#45;&gt;Node1 -->
<g id="edge2" class="edge">
<title>Node3&#45;&gt;Node1</title>
<path fill="none" stroke="#9a32cd" stroke-dasharray="5,2" d="M130.24,-101.01C121.34,-80.53 107.38,-48.43 99.48,-30.25"/>
<polygon fill="#9a32cd" stroke="#9a32cd" points="127.02,-102.37 134.21,-110.14 133.44,-99.58 127.02,-102.37"/>
<text text-anchor="middle" x="141" y="-68.5" font-family="Helvetica,sans-Serif" font-size="10.00"> name</text>
</g>
<!-- Node4 -->
<g id="node4" class="node">
<title>Node4</title>
<g id="a_node4"><a xlink:title=" ">
<polygon fill="none" stroke="#bfbfbf" points="78.5,-168.5 78.5,-187.5 198.5,-187.5 198.5,-168.5 78.5,-168.5"/>
<text text-anchor="middle" x="138.5" y="-175.5" font-family="Helvetica,sans-Serif" font-size="10.00">basic_string&lt; Char &gt;</text>
</a>
</g>
</g>
<!-- Node4&#45;&gt;Node3 -->
<g id="edge3" class="edge">
<title>Node4&#45;&gt;Node3</title>
<path fill="none" stroke="midnightblue" d="M138.5,-157.39C138.5,-148.02 138.5,-137.31 138.5,-130.15"/>
<polygon fill="midnightblue" stroke="midnightblue" points="135,-157.37 138.5,-167.37 142,-157.37 135,-157.37"/>
</g>
</g>
</svg>
