<?xml version="1.0" encoding="UTF-8" standalone="no"?>
<!DOCTYPE svg PUBLIC "-//W3C//DTD SVG 1.1//EN"
 "http://www.w3.org/Graphics/SVG/1.1/DTD/svg11.dtd">
<!-- Generated by graphviz version 9.0.0 (20231125.0833)
 -->
<!-- Title: ReactionRateModelParamsPalandriKharaka::Catalyst Pages: 1 -->
<svg width="194pt" height="185pt"
 viewBox="0.00 0.00 194.25 184.50" xmlns="http://www.w3.org/2000/svg" xmlns:xlink="http://www.w3.org/1999/xlink">
<g id="graph0" class="graph" transform="scale(1 1) rotate(0) translate(4 180.5)">
<title>ReactionRateModelParamsPalandriKharaka::Catalyst</title>
<!-- Node1 -->
<g id="node1" class="node">
<title>Node1</title>
<g id="a_node1"><a xlink:title="The parameters for a catalyser property in a mineral reaction rate mechanism of">
<polygon fill="#bfbfbf" stroke="black" points="0,-0.5 0,-34 186.25,-34 186.25,-0.5 0,-0.5"/>
<text text-anchor="start" x="8" y="-20.5" font-family="Helvetica,sans-Serif" font-size="10.00">ReactionRateModelParamsPalandri</text>
<text text-anchor="middle" x="93.12" y="-7.75" font-family="Helvetica,sans-Serif" font-size="10.00">Kharaka::Catalyst</text>
</a>
</g>
</g>
<!-- Node2 -->
<g id="node2" class="node">
<title>Node2</title>
<g id="a_node2"><a xlink:title=" ">
<polygon fill="none" stroke="#bfbfbf" points="71.25,-96.5 71.25,-117.25 115,-117.25 115,-96.5 71.25,-96.5"/>
<text text-anchor="middle" x="93.12" y="-103.75" font-family="Helvetica,sans-Serif" font-size="10.00">string</text>
</a>
</g>
</g>
<!-- Node2&#45;&gt;Node1 -->
<g id="edge1" class="edge">
<title>Node2&#45;&gt;Node1</title>
<path fill="none" stroke="#9a32cd" stroke-dasharray="5,2" d="M93.12,-85.06C93.12,-69.49 93.12,-48.5 93.12,-34.23"/>
<polygon fill="#9a32cd" stroke="#9a32cd" points="89.63,-84.65 93.13,-94.65 96.63,-84.65 89.63,-84.65"/>
<text text-anchor="middle" x="113.75" y="-68.5" font-family="Helvetica,sans-Serif" font-size="10.00"> formula</text>
<text text-anchor="middle" x="113.75" y="-55.75" font-family="Helvetica,sans-Serif" font-size="10.00">property</text>
</g>
<!-- Node3 -->
<g id="node3" class="node">
<title>Node3</title>
<g id="a_node3"><a xlink:title=" ">
<polygon fill="none" stroke="#bfbfbf" points="33.38,-155.25 33.38,-176 152.88,-176 152.88,-155.25 33.38,-155.25"/>
<text text-anchor="middle" x="93.12" y="-162.5" font-family="Helvetica,sans-Serif" font-size="10.00">basic_string&lt; Char &gt;</text>
</a>
</g>
</g>
<!-- Node3&#45;&gt;Node2 -->
<g id="edge2" class="edge">
<title>Node3&#45;&gt;Node2</title>
<path fill="none" stroke="midnightblue" d="M93.12,-143.56C93.12,-134.72 93.12,-124.85 93.12,-117.74"/>
<polygon fill="midnightblue" stroke="midnightblue" points="89.63,-143.48 93.13,-153.48 96.63,-143.48 89.63,-143.48"/>
</g>
</g>
</svg>
