<?xml version="1.0" encoding="UTF-8" standalone="no"?>
<!DOCTYPE svg PUBLIC "-//W3C//DTD SVG 1.1//EN"
 "http://www.w3.org/Graphics/SVG/1.1/DTD/svg11.dtd">
<!-- Generated by graphviz version 9.0.0 (20231125.0833)
 -->
<!-- Title: ReactionGeneratorArgs Pages: 1 -->
<svg width="328pt" height="100pt"
 viewBox="0.00 0.00 327.50 100.25" xmlns="http://www.w3.org/2000/svg" xmlns:xlink="http://www.w3.org/1999/xlink">
<g id="graph0" class="graph" transform="scale(1 1) rotate(0) translate(4 96.25)">
<title>ReactionGeneratorArgs</title>
<!-- Node1 -->
<g id="node1" class="node">
<title>Node1</title>
<g id="a_node1"><a xlink:title="The data provided to a ReactionGenerator to construct a Reaction object.">
<polygon fill="#bfbfbf" stroke="black" points="94.62,-0.5 94.62,-21.25 223.88,-21.25 223.88,-0.5 94.62,-0.5"/>
<text text-anchor="middle" x="159.25" y="-7.75" font-family="Helvetica,sans-Serif" font-size="10.00">ReactionGeneratorArgs</text>
</a>
</g>
</g>
<!-- Node2 -->
<g id="node2" class="node">
<title>Node2</title>
<g id="a_node2"><a xlink:href="classReaktoro_1_1Database.html" target="_top" xlink:title="The class used to store and retrieve data of chemical species.">
<polygon fill="none" stroke="black" points="0,-71 0,-91.75 62.5,-91.75 62.5,-71 0,-71"/>
<text text-anchor="middle" x="31.25" y="-78.25" font-family="Helvetica,sans-Serif" font-size="10.00">Database</text>
</a>
</g>
</g>
<!-- Node2&#45;&gt;Node1 -->
<g id="edge1" class="edge">
<title>Node2&#45;&gt;Node1</title>
<path fill="none" stroke="#9a32cd" stroke-dasharray="5,2" d="M47.88,-62.78C56.11,-54.88 66.56,-45.95 77.25,-39.75 90.52,-32.06 106.23,-26.07 120.33,-21.65"/>
<polygon fill="#9a32cd" stroke="#9a32cd" points="45.55,-60.16 40.98,-69.71 50.51,-65.1 45.55,-60.16"/>
<text text-anchor="middle" x="101.25" y="-43" font-family="Helvetica,sans-Serif" font-size="10.00"> database</text>
</g>
<!-- Node3 -->
<g id="node3" class="node">
<title>Node3</title>
<g id="a_node3"><a xlink:href="classReaktoro_1_1SurfaceList.html" target="_top" xlink:title="A type used as a collection of surfaces.">
<polygon fill="none" stroke="black" points="80.25,-71 80.25,-91.75 150.25,-91.75 150.25,-71 80.25,-71"/>
<text text-anchor="middle" x="115.25" y="-78.25" font-family="Helvetica,sans-Serif" font-size="10.00">SurfaceList</text>
</a>
</g>
</g>
<!-- Node3&#45;&gt;Node1 -->
<g id="edge2" class="edge">
<title>Node3&#45;&gt;Node1</title>
<path fill="none" stroke="#9a32cd" stroke-dasharray="5,2" d="M124.76,-60.89C128.34,-54.05 132.61,-46.41 137,-39.75 141.16,-33.44 146.4,-26.82 150.76,-21.61"/>
<polygon fill="#9a32cd" stroke="#9a32cd" points="121.86,-58.88 120.47,-69.38 128.1,-62.04 121.86,-58.88"/>
<text text-anchor="middle" x="158.38" y="-43" font-family="Helvetica,sans-Serif" font-size="10.00"> surfaces</text>
</g>
<!-- Node4 -->
<g id="node4" class="node">
<title>Node4</title>
<g id="a_node4"><a xlink:href="classReaktoro_1_1SpeciesList.html" target="_top" xlink:title="A type used as a collection of species.">
<polygon fill="none" stroke="black" points="167.88,-71 167.88,-91.75 238.62,-91.75 238.62,-71 167.88,-71"/>
<text text-anchor="middle" x="203.25" y="-78.25" font-family="Helvetica,sans-Serif" font-size="10.00">SpeciesList</text>
</a>
</g>
</g>
<!-- Node4&#45;&gt;Node1 -->
<g id="edge3" class="edge">
<title>Node4&#45;&gt;Node1</title>
<path fill="none" stroke="#9a32cd" stroke-dasharray="5,2" d="M193.58,-60.92C189.96,-54.08 185.65,-46.43 181.25,-39.75 177.11,-33.47 171.92,-26.84 167.62,-21.63"/>
<polygon fill="#9a32cd" stroke="#9a32cd" points="190.26,-62.1 197.94,-69.4 196.49,-58.91 190.26,-62.1"/>
<text text-anchor="middle" x="208.12" y="-43" font-family="Helvetica,sans-Serif" font-size="10.00"> species</text>
</g>
<!-- Node5 -->
<g id="node5" class="node">
<title>Node5</title>
<g id="a_node5"><a xlink:href="classReaktoro_1_1PhaseList.html" target="_top" xlink:title="A type used as a collection of phases.">
<polygon fill="none" stroke="black" points="257,-71 257,-91.75 319.5,-91.75 319.5,-71 257,-71"/>
<text text-anchor="middle" x="288.25" y="-78.25" font-family="Helvetica,sans-Serif" font-size="10.00">PhaseList</text>
</a>
</g>
</g>
<!-- Node5&#45;&gt;Node1 -->
<g id="edge4" class="edge">
<title>Node5&#45;&gt;Node1</title>
<path fill="none" stroke="#9a32cd" stroke-dasharray="5,2" d="M267.9,-63.61C257.63,-55.69 244.74,-46.51 232.25,-39.75 219.01,-32.58 203.52,-26.39 190.23,-21.67"/>
<polygon fill="#9a32cd" stroke="#9a32cd" points="265.64,-66.29 275.65,-69.76 269.99,-60.81 265.64,-66.29"/>
<text text-anchor="middle" x="270" y="-43" font-family="Helvetica,sans-Serif" font-size="10.00"> phases</text>
</g>
</g>
</svg>
