<?xml version="1.0" encoding="UTF-8" standalone="no"?>
<!DOCTYPE svg PUBLIC "-//W3C//DTD SVG 1.1//EN"
 "http://www.w3.org/Graphics/SVG/1.1/DTD/svg11.dtd">
<!-- Generated by graphviz version 8.0.5 (20230506.1012)
 -->
<!-- Title: ReactivityConstraints Pages: 1 -->
<svg width="129pt" height="230pt"
 viewBox="0.00 0.00 129.00 229.50" xmlns="http://www.w3.org/2000/svg" xmlns:xlink="http://www.w3.org/1999/xlink">
<g id="graph0" class="graph" transform="scale(1 1) rotate(0) translate(4 225.5)">
<title>ReactivityConstraints</title>
<!-- Node1 -->
<g id="node1" class="node">
<title>Node1</title>
<g id="a_node1"><a xlink:title="Used to define a system of reactivity restrictions among species in the chemical equilibrium calculat...">
<polygon fill="#bfbfbf" stroke="black" points="0,-0.5 0,-21.25 121,-21.25 121,-0.5 0,-0.5"/>
<text text-anchor="middle" x="60.5" y="-7.75" font-family="Helvetica,sans-Serif" font-size="10.00">ReactivityConstraints</text>
</a>
</g>
</g>
<!-- Node2 -->
<g id="node2" class="node">
<title>Node2</title>
<g id="a_node2"><a xlink:title=" ">
<polygon fill="none" stroke="#bfbfbf" points="1.5,-71 1.5,-91.75 119.5,-91.75 119.5,-71 1.5,-71"/>
<text text-anchor="middle" x="60.5" y="-78.25" font-family="Helvetica,sans-Serif" font-size="10.00">vector&lt; std::string &gt;</text>
</a>
</g>
</g>
<!-- Node2&#45;&gt;Node1 -->
<g id="edge1" class="edge">
<title>Node2&#45;&gt;Node1</title>
<path fill="none" stroke="#9a32cd" stroke-dasharray="5,2" d="M60.5,-60.39C60.5,-47.36 60.5,-30.97 60.5,-20.97"/>
<polygon fill="#9a32cd" stroke="#9a32cd" points="57,-60.14 60.5,-70.14 64,-60.14 57,-60.14"/>
<text text-anchor="middle" x="69.12" y="-43" font-family="Helvetica,sans-Serif" font-size="10.00"> ids</text>
</g>
<!-- Node3 -->
<g id="node3" class="node">
<title>Node3</title>
<g id="a_node3"><a xlink:title=" ">
<polygon fill="none" stroke="#bfbfbf" points="38.62,-141.5 38.62,-162.25 82.38,-162.25 82.38,-141.5 38.62,-141.5"/>
<text text-anchor="middle" x="60.5" y="-148.75" font-family="Helvetica,sans-Serif" font-size="10.00">string</text>
</a>
</g>
</g>
<!-- Node3&#45;&gt;Node2 -->
<g id="edge2" class="edge">
<title>Node3&#45;&gt;Node2</title>
<path fill="none" stroke="#9a32cd" stroke-dasharray="5,2" d="M60.5,-130.89C60.5,-117.86 60.5,-101.47 60.5,-91.47"/>
<polygon fill="#9a32cd" stroke="#9a32cd" points="57,-130.64 60.5,-140.64 64,-130.64 57,-130.64"/>
<text text-anchor="middle" x="84.88" y="-113.5" font-family="Helvetica,sans-Serif" font-size="10.00"> elements</text>
</g>
<!-- Node4 -->
<g id="node4" class="node">
<title>Node4</title>
<g id="a_node4"><a xlink:title=" ">
<polygon fill="none" stroke="#bfbfbf" points="0.75,-200.25 0.75,-221 120.25,-221 120.25,-200.25 0.75,-200.25"/>
<text text-anchor="middle" x="60.5" y="-207.5" font-family="Helvetica,sans-Serif" font-size="10.00">basic_string&lt; Char &gt;</text>
</a>
</g>
</g>
<!-- Node4&#45;&gt;Node3 -->
<g id="edge3" class="edge">
<title>Node4&#45;&gt;Node3</title>
<path fill="none" stroke="midnightblue" d="M60.5,-189.45C60.5,-180.1 60.5,-169.46 60.5,-162.07"/>
<polygon fill="midnightblue" stroke="midnightblue" points="57,-189.25 60.5,-199.25 64,-189.25 57,-189.25"/>
</g>
</g>
</svg>
