<?xml version="1.0" encoding="UTF-8" standalone="no"?>
<!DOCTYPE svg PUBLIC "-//W3C//DTD SVG 1.1//EN"
 "http://www.w3.org/Graphics/SVG/1.1/DTD/svg11.dtd">
<!-- Generated by graphviz version 7.1.0 (20230122.1345)
 -->
<!-- Title: MineralReactionRateModelArgs Pages: 1 -->
<svg width="202pt" height="95pt"
 viewBox="0.00 0.00 201.50 95.00" xmlns="http://www.w3.org/2000/svg" xmlns:xlink="http://www.w3.org/1999/xlink">
<g id="graph0" class="graph" transform="scale(1 1) rotate(0) translate(4 91)">
<title>MineralReactionRateModelArgs</title>
<!-- Node1 -->
<g id="node1" class="node">
<title>Node1</title>
<g id="a_node1"><a xlink:title="The data provided to a MineralReactionRateModel to evaluate the rate of a mineral reaction.">
<polygon fill="#bfbfbf" stroke="black" points="11,-0.5 11,-19.5 181,-19.5 181,-0.5 11,-0.5"/>
<text text-anchor="middle" x="96" y="-7.5" font-family="Helvetica,sans-Serif" font-size="10.00">MineralReactionRateModelArgs</text>
</a>
</g>
</g>
<!-- Node2 -->
<g id="node2" class="node">
<title>Node2</title>
<g id="a_node2"><a xlink:href="classReaktoro_1_1AqueousProps.html" target="_top" xlink:title="The chemical properties of an aqueous phase.">
<polygon fill="none" stroke="black" points="0,-67.5 0,-86.5 86,-86.5 86,-67.5 0,-67.5"/>
<text text-anchor="middle" x="43" y="-74.5" font-family="Helvetica,sans-Serif" font-size="10.00">AqueousProps</text>
</a>
</g>
</g>
<!-- Node2&#45;&gt;Node1 -->
<g id="edge1" class="edge">
<title>Node2&#45;&gt;Node1</title>
<path fill="none" stroke="#9a32cd" stroke-dasharray="5,2" d="M57.09,-58.72C67.49,-45.97 81.17,-29.18 89.24,-19.29"/>
<polygon fill="#9a32cd" stroke="#9a32cd" points="54.49,-56.37 50.89,-66.33 59.92,-60.79 54.49,-56.37"/>
<text text-anchor="middle" x="91.5" y="-41" font-family="Helvetica,sans-Serif" font-size="10.00"> aprops</text>
</g>
<!-- Node3 -->
<g id="node3" class="node">
<title>Node3</title>
<g id="a_node3"><a xlink:href="classReaktoro_1_1ChemicalProps.html" target="_top" xlink:title="The class that computes chemical properties of a chemical system.">
<polygon fill="none" stroke="black" points="104.5,-67.5 104.5,-86.5 193.5,-86.5 193.5,-67.5 104.5,-67.5"/>
<text text-anchor="middle" x="149" y="-74.5" font-family="Helvetica,sans-Serif" font-size="10.00">ChemicalProps</text>
</a>
</g>
</g>
<!-- Node3&#45;&gt;Node1 -->
<g id="edge2" class="edge">
<title>Node3&#45;&gt;Node1</title>
<path fill="none" stroke="#9a32cd" stroke-dasharray="5,2" d="M134.91,-58.72C124.51,-45.97 110.83,-29.18 102.76,-19.29"/>
<polygon fill="#9a32cd" stroke="#9a32cd" points="132.08,-60.79 141.11,-66.33 137.51,-56.37 132.08,-60.79"/>
<text text-anchor="middle" x="140.5" y="-41" font-family="Helvetica,sans-Serif" font-size="10.00"> props</text>
</g>
</g>
</svg>
