<?xml version="1.0" encoding="UTF-8" standalone="no"?>
<!DOCTYPE svg PUBLIC "-//W3C//DTD SVG 1.1//EN"
 "http://www.w3.org/Graphics/SVG/1.1/DTD/svg11.dtd">
<!-- Generated by graphviz version 6.0.1 (20220911.2005)
 -->
<!-- Title: SmartEquilibriumSolver::Record Pages: 1 -->
<svg width="514pt" height="106pt"
 viewBox="0.00 0.00 514.00 106.00" xmlns="http://www.w3.org/2000/svg" xmlns:xlink="http://www.w3.org/1999/xlink">
<g id="graph0" class="graph" transform="scale(1 1) rotate(0) translate(4 102)">
<title>SmartEquilibriumSolver::Record</title>
<!-- Node1 -->
<g id="node1" class="node">
<title>Node1</title>
<g id="a_node1"><a xlink:title="The record of the knowledge database containing input, output, and derivatives data.">
<polygon fill="#bfbfbf" stroke="black" points="192,-0.5 192,-30.5 324,-30.5 324,-0.5 192,-0.5"/>
<text text-anchor="start" x="200" y="-18.5" font-family="Helvetica,sans-Serif" font-size="10.00">SmartEquilibriumSolver</text>
<text text-anchor="middle" x="258" y="-7.5" font-family="Helvetica,sans-Serif" font-size="10.00">::Record</text>
</a>
</g>
</g>
<!-- Node2 -->
<g id="node2" class="node">
<title>Node2</title>
<g id="a_node2"><a xlink:href="classReaktoro_1_1EquilibriumPredictor.html" target="_top" xlink:title="Used to predict a chemical equilibrium state at given conditions using first&#45;order Taylor approximati...">
<polygon fill="none" stroke="black" points="0,-78.5 0,-97.5 116,-97.5 116,-78.5 0,-78.5"/>
<text text-anchor="middle" x="58" y="-85.5" font-family="Helvetica,sans-Serif" font-size="10.00">EquilibriumPredictor</text>
</a>
</g>
</g>
<!-- Node2&#45;&gt;Node1 -->
<g id="edge1" class="edge">
<title>Node2&#45;&gt;Node1</title>
<path fill="none" stroke="#9a32cd" stroke-dasharray="5,2" d="M91.87,-75.06C126.82,-62.74 181.3,-43.54 218.27,-30.51"/>
<polygon fill="#9a32cd" stroke="#9a32cd" points="90.39,-71.87 82.12,-78.5 92.72,-78.47 90.39,-71.87"/>
<text text-anchor="middle" x="187.5" y="-52" font-family="Helvetica,sans-Serif" font-size="10.00"> predictor</text>
</g>
<!-- Node3 -->
<g id="node3" class="node">
<title>Node3</title>
<g id="a_node3"><a xlink:href="classReaktoro_1_1EquilibriumConditions.html" target="_top" xlink:title="The class used to define conditions to be satisfied at chemical equilibrium.">
<polygon fill="none" stroke="black" points="134,-78.5 134,-97.5 258,-97.5 258,-78.5 134,-78.5"/>
<text text-anchor="middle" x="196" y="-85.5" font-family="Helvetica,sans-Serif" font-size="10.00">EquilibriumConditions</text>
</a>
</g>
</g>
<!-- Node3&#45;&gt;Node1 -->
<g id="edge2" class="edge">
<title>Node3&#45;&gt;Node1</title>
<path fill="none" stroke="#9a32cd" stroke-dasharray="5,2" d="M210.3,-70.74C220.98,-58.6 235.43,-42.16 245.62,-30.58"/>
<polygon fill="#9a32cd" stroke="#9a32cd" points="207.58,-68.53 203.6,-78.36 212.83,-73.16 207.58,-68.53"/>
<text text-anchor="middle" x="256" y="-52" font-family="Helvetica,sans-Serif" font-size="10.00"> conditions</text>
</g>
<!-- Node4 -->
<g id="node4" class="node">
<title>Node4</title>
<g id="a_node4"><a xlink:href="classReaktoro_1_1ChemicalState.html" target="_top" xlink:title="The chemical state of a chemical system.">
<polygon fill="none" stroke="black" points="276,-78.5 276,-97.5 364,-97.5 364,-78.5 276,-78.5"/>
<text text-anchor="middle" x="320" y="-85.5" font-family="Helvetica,sans-Serif" font-size="10.00">ChemicalState</text>
</a>
</g>
</g>
<!-- Node4&#45;&gt;Node1 -->
<g id="edge3" class="edge">
<title>Node4&#45;&gt;Node1</title>
<path fill="none" stroke="#9a32cd" stroke-dasharray="5,2" d="M305.73,-70.47C299.94,-63.79 293.17,-56.01 287,-49 281.7,-42.98 275.82,-36.38 270.75,-30.7"/>
<polygon fill="#9a32cd" stroke="#9a32cd" points="303.24,-72.94 312.43,-78.22 308.54,-68.36 303.24,-72.94"/>
<text text-anchor="middle" x="310" y="-52" font-family="Helvetica,sans-Serif" font-size="10.00"> state</text>
</g>
<!-- Node5 -->
<g id="node5" class="node">
<title>Node5</title>
<g id="a_node5"><a xlink:href="classReaktoro_1_1EquilibriumSensitivity.html" target="_top" xlink:title="The sensitivity derivatives of a chemical equilibrium state.">
<polygon fill="none" stroke="black" points="382,-78.5 382,-97.5 506,-97.5 506,-78.5 382,-78.5"/>
<text text-anchor="middle" x="444" y="-85.5" font-family="Helvetica,sans-Serif" font-size="10.00">EquilibriumSensitivity</text>
</a>
</g>
</g>
<!-- Node5&#45;&gt;Node1 -->
<g id="edge4" class="edge">
<title>Node5&#45;&gt;Node1</title>
<path fill="none" stroke="#9a32cd" stroke-dasharray="5,2" d="M412.08,-74.9C379.56,-62.58 329.18,-43.48 294.95,-30.51"/>
<polygon fill="#9a32cd" stroke="#9a32cd" points="410.97,-78.22 421.56,-78.5 413.45,-71.68 410.97,-78.22"/>
<text text-anchor="middle" x="394.5" y="-52" font-family="Helvetica,sans-Serif" font-size="10.00"> sensitivity</text>
</g>
</g>
</svg>
