<?xml version="1.0" encoding="UTF-8" standalone="no"?>
<!DOCTYPE svg PUBLIC "-//W3C//DTD SVG 1.1//EN"
 "http://www.w3.org/Graphics/SVG/1.1/DTD/svg11.dtd">
<!-- Generated by graphviz version 8.0.5 (20230506.1012)
 -->
<!-- Title: Element::Attribs Pages: 1 -->
<svg width="128pt" height="172pt"
 viewBox="0.00 0.00 127.50 171.75" xmlns="http://www.w3.org/2000/svg" xmlns:xlink="http://www.w3.org/1999/xlink">
<g id="graph0" class="graph" transform="scale(1 1) rotate(0) translate(4 167.75)">
<title>Element::Attribs</title>
<!-- Node1 -->
<g id="node1" class="node">
<title>Node1</title>
<g id="a_node1"><a xlink:title="The attributes of an Element object.">
<polygon fill="#bfbfbf" stroke="black" points="12.38,-0.5 12.38,-21.25 107.12,-21.25 107.12,-0.5 12.38,-0.5"/>
<text text-anchor="middle" x="59.75" y="-7.75" font-family="Helvetica,sans-Serif" font-size="10.00">Element::Attribs</text>
</a>
</g>
</g>
<!-- Node2 -->
<g id="node2" class="node">
<title>Node2</title>
<g id="a_node2"><a xlink:title=" ">
<polygon fill="none" stroke="#bfbfbf" points="37.88,-83.75 37.88,-104.5 81.62,-104.5 81.62,-83.75 37.88,-83.75"/>
<text text-anchor="middle" x="59.75" y="-91" font-family="Helvetica,sans-Serif" font-size="10.00">string</text>
</a>
</g>
</g>
<!-- Node2&#45;&gt;Node1 -->
<g id="edge1" class="edge">
<title>Node2&#45;&gt;Node1</title>
<path fill="none" stroke="#9a32cd" stroke-dasharray="5,2" d="M59.75,-73.05C59.75,-56.45 59.75,-33.64 59.75,-21.09"/>
<polygon fill="#9a32cd" stroke="#9a32cd" points="56.25,-72.8 59.75,-82.8 63.25,-72.8 56.25,-72.8"/>
<text text-anchor="middle" x="77.75" y="-55.75" font-family="Helvetica,sans-Serif" font-size="10.00"> name</text>
<text text-anchor="middle" x="77.75" y="-43" font-family="Helvetica,sans-Serif" font-size="10.00">symbol</text>
</g>
<!-- Node3 -->
<g id="node3" class="node">
<title>Node3</title>
<g id="a_node3"><a xlink:title=" ">
<polygon fill="none" stroke="#bfbfbf" points="0,-142.5 0,-163.25 119.5,-163.25 119.5,-142.5 0,-142.5"/>
<text text-anchor="middle" x="59.75" y="-149.75" font-family="Helvetica,sans-Serif" font-size="10.00">basic_string&lt; Char &gt;</text>
</a>
</g>
</g>
<!-- Node3&#45;&gt;Node2 -->
<g id="edge2" class="edge">
<title>Node3&#45;&gt;Node2</title>
<path fill="none" stroke="midnightblue" d="M59.75,-131.7C59.75,-122.35 59.75,-111.71 59.75,-104.32"/>
<polygon fill="midnightblue" stroke="midnightblue" points="56.25,-131.5 59.75,-141.5 63.25,-131.5 56.25,-131.5"/>
</g>
</g>
</svg>
