<?xml version="1.0" encoding="UTF-8" standalone="no"?>
<!DOCTYPE svg PUBLIC "-//W3C//DTD SVG 1.1//EN"
 "http://www.w3.org/Graphics/SVG/1.1/DTD/svg11.dtd">
<!-- Generated by graphviz version 6.0.1 (20220911.2005)
 -->
<!-- Title: ReactionRateModelGeneratorArgs Pages: 1 -->
<svg width="513pt" height="152pt"
 viewBox="0.00 0.00 513.00 152.00" xmlns="http://www.w3.org/2000/svg" xmlns:xlink="http://www.w3.org/1999/xlink">
<g id="graph0" class="graph" transform="scale(1 1) rotate(0) translate(4 148)">
<title>ReactionRateModelGeneratorArgs</title>
<!-- Node1 -->
<g id="node1" class="node">
<title>Node1</title>
<g id="a_node1"><a xlink:title="The data provided to a ReactionRateModelGenerator to construct the ReactionRateModel of a reaction.">
<polygon fill="#bfbfbf" stroke="black" points="170.5,-0.5 170.5,-19.5 352.5,-19.5 352.5,-0.5 170.5,-0.5"/>
<text text-anchor="middle" x="261.5" y="-7.5" font-family="Helvetica,sans-Serif" font-size="10.00">ReactionRateModelGeneratorArgs</text>
</a>
</g>
</g>
<!-- Node2 -->
<g id="node2" class="node">
<title>Node2</title>
<g id="a_node2"><a xlink:href="classReaktoro_1_1Database.html" target="_top" xlink:title="The class used to store and retrieve data of chemical species.">
<polygon fill="none" stroke="black" points="0,-67.5 0,-86.5 63,-86.5 63,-67.5 0,-67.5"/>
<text text-anchor="middle" x="31.5" y="-74.5" font-family="Helvetica,sans-Serif" font-size="10.00">Database</text>
</a>
</g>
</g>
<!-- Node2&#45;&gt;Node1 -->
<g id="edge1" class="edge">
<title>Node2&#45;&gt;Node1</title>
<path fill="none" stroke="#9a32cd" stroke-dasharray="5,2" d="M54.41,-62.35C69.11,-54.15 88.88,-44.14 107.5,-38 133.02,-29.58 161.83,-23.64 187.58,-19.51"/>
<polygon fill="#9a32cd" stroke="#9a32cd" points="52.48,-59.42 45.54,-67.42 55.95,-65.5 52.48,-59.42"/>
<text text-anchor="middle" x="132" y="-41" font-family="Helvetica,sans-Serif" font-size="10.00"> database</text>
</g>
<!-- Node3 -->
<g id="node3" class="node">
<title>Node3</title>
<g id="a_node3"><a xlink:href="classReaktoro_1_1SurfaceList.html" target="_top" xlink:title="A type used as a collection of surfaces.">
<polygon fill="none" stroke="black" points="81,-67.5 81,-86.5 152,-86.5 152,-67.5 81,-67.5"/>
<text text-anchor="middle" x="116.5" y="-74.5" font-family="Helvetica,sans-Serif" font-size="10.00">SurfaceList</text>
</a>
</g>
</g>
<!-- Node3&#45;&gt;Node1 -->
<g id="edge2" class="edge">
<title>Node3&#45;&gt;Node1</title>
<path fill="none" stroke="#9a32cd" stroke-dasharray="5,2" d="M137.45,-61.73C149.41,-54.01 164.88,-44.71 179.5,-38 195.71,-30.56 214.57,-24.2 230.11,-19.53"/>
<polygon fill="#9a32cd" stroke="#9a32cd" points="135.49,-58.83 129.07,-67.26 139.34,-64.68 135.49,-58.83"/>
<text text-anchor="middle" x="202" y="-41" font-family="Helvetica,sans-Serif" font-size="10.00"> surfaces</text>
</g>
<!-- Node4 -->
<g id="node4" class="node">
<title>Node4</title>
<g id="a_node4"><a xlink:href="classReaktoro_1_1ReactionEquation.html" target="_top" xlink:title="A type used to represent the equation of a reaction.">
<polygon fill="none" stroke="black" points="170.5,-67.5 170.5,-86.5 272.5,-86.5 272.5,-67.5 170.5,-67.5"/>
<text text-anchor="middle" x="221.5" y="-74.5" font-family="Helvetica,sans-Serif" font-size="10.00">ReactionEquation</text>
</a>
</g>
</g>
<!-- Node4&#45;&gt;Node1 -->
<g id="edge3" class="edge">
<title>Node4&#45;&gt;Node1</title>
<path fill="none" stroke="#9a32cd" stroke-dasharray="5,2" d="M225.38,-57.4C227.23,-50.96 229.86,-43.88 233.5,-38 237.84,-31 244.4,-24.54 250.08,-19.69"/>
<polygon fill="#9a32cd" stroke="#9a32cd" points="221.93,-56.79 222.96,-67.33 228.73,-58.45 221.93,-56.79"/>
<text text-anchor="middle" x="256.5" y="-41" font-family="Helvetica,sans-Serif" font-size="10.00"> equation</text>
</g>
<!-- Node5 -->
<g id="node5" class="node">
<title>Node5</title>
<g id="a_node5"><a xlink:title=" ">
<polygon fill="none" stroke="#bfbfbf" points="290.5,-67.5 290.5,-86.5 334.5,-86.5 334.5,-67.5 290.5,-67.5"/>
<text text-anchor="middle" x="312.5" y="-74.5" font-family="Helvetica,sans-Serif" font-size="10.00">string</text>
</a>
</g>
</g>
<!-- Node5&#45;&gt;Node1 -->
<g id="edge4" class="edge">
<title>Node5&#45;&gt;Node1</title>
<path fill="none" stroke="#9a32cd" stroke-dasharray="5,2" d="M299.37,-59.27C289.43,-46.6 276.17,-29.7 268.27,-19.63"/>
<polygon fill="#9a32cd" stroke="#9a32cd" points="296.7,-61.53 305.62,-67.23 302.2,-57.21 296.7,-61.53"/>
<text text-anchor="middle" x="306" y="-41" font-family="Helvetica,sans-Serif" font-size="10.00"> name</text>
</g>
<!-- Node6 -->
<g id="node6" class="node">
<title>Node6</title>
<g id="a_node6"><a xlink:title=" ">
<polygon fill="none" stroke="#bfbfbf" points="252.5,-124.5 252.5,-143.5 372.5,-143.5 372.5,-124.5 252.5,-124.5"/>
<text text-anchor="middle" x="312.5" y="-131.5" font-family="Helvetica,sans-Serif" font-size="10.00">basic_string&lt; Char &gt;</text>
</a>
</g>
</g>
<!-- Node6&#45;&gt;Node5 -->
<g id="edge5" class="edge">
<title>Node6&#45;&gt;Node5</title>
<path fill="none" stroke="midnightblue" d="M312.5,-114.12C312.5,-104.82 312.5,-94.06 312.5,-86.71"/>
<polygon fill="midnightblue" stroke="midnightblue" points="309,-114.41 312.5,-124.41 316,-114.41 309,-114.41"/>
</g>
<!-- Node7 -->
<g id="node7" class="node">
<title>Node7</title>
<g id="a_node7"><a xlink:href="classReaktoro_1_1SpeciesList.html" target="_top" xlink:title="A type used as a collection of species.">
<polygon fill="none" stroke="black" points="353,-67.5 353,-86.5 424,-86.5 424,-67.5 353,-67.5"/>
<text text-anchor="middle" x="388.5" y="-74.5" font-family="Helvetica,sans-Serif" font-size="10.00">SpeciesList</text>
</a>
</g>
</g>
<!-- Node7&#45;&gt;Node1 -->
<g id="edge6" class="edge">
<title>Node7&#45;&gt;Node1</title>
<path fill="none" stroke="#9a32cd" stroke-dasharray="5,2" d="M366.52,-61.68C354.61,-54.19 339.51,-45.13 325.5,-38 312.07,-31.16 296.49,-24.56 284.07,-19.6"/>
<polygon fill="#9a32cd" stroke="#9a32cd" points="364.99,-64.85 375.3,-67.27 368.75,-58.95 364.99,-64.85"/>
<text text-anchor="middle" x="365.5" y="-41" font-family="Helvetica,sans-Serif" font-size="10.00"> species</text>
</g>
<!-- Node8 -->
<g id="node8" class="node">
<title>Node8</title>
<g id="a_node8"><a xlink:href="classReaktoro_1_1PhaseList.html" target="_top" xlink:title="A type used as a collection of phases.">
<polygon fill="none" stroke="black" points="442,-67.5 442,-86.5 505,-86.5 505,-67.5 442,-67.5"/>
<text text-anchor="middle" x="473.5" y="-74.5" font-family="Helvetica,sans-Serif" font-size="10.00">PhaseList</text>
</a>
</g>
</g>
<!-- Node8&#45;&gt;Node1 -->
<g id="edge7" class="edge">
<title>Node8&#45;&gt;Node1</title>
<path fill="none" stroke="#9a32cd" stroke-dasharray="5,2" d="M448.55,-62.99C432.14,-54.86 409.97,-44.7 389.5,-38 365.33,-30.09 337.8,-23.93 314.49,-19.51"/>
<polygon fill="#9a32cd" stroke="#9a32cd" points="447,-66.12 457.5,-67.5 450.15,-59.87 447,-66.12"/>
<text text-anchor="middle" x="436.5" y="-41" font-family="Helvetica,sans-Serif" font-size="10.00"> phases</text>
</g>
</g>
</svg>
