<?xml version="1.0" encoding="UTF-8" standalone="no"?>
<!DOCTYPE svg PUBLIC "-//W3C//DTD SVG 1.1//EN"
 "http://www.w3.org/Graphics/SVG/1.1/DTD/svg11.dtd">
<!-- Generated by graphviz version 7.1.0 (20230122.1345)
 -->
<!-- Title: ReactionGeneratorArgs Pages: 1 -->
<svg width="330pt" height="95pt"
 viewBox="0.00 0.00 330.00 95.00" xmlns="http://www.w3.org/2000/svg" xmlns:xlink="http://www.w3.org/1999/xlink">
<g id="graph0" class="graph" transform="scale(1 1) rotate(0) translate(4 91)">
<title>ReactionGeneratorArgs</title>
<!-- Node1 -->
<g id="node1" class="node">
<title>Node1</title>
<g id="a_node1"><a xlink:title="The data provided to a ReactionGenerator to construct a Reaction object.">
<polygon fill="#bfbfbf" stroke="black" points="95.5,-0.5 95.5,-19.5 225.5,-19.5 225.5,-0.5 95.5,-0.5"/>
<text text-anchor="middle" x="160.5" y="-7.5" font-family="Helvetica,sans-Serif" font-size="10.00">ReactionGeneratorArgs</text>
</a>
</g>
</g>
<!-- Node2 -->
<g id="node2" class="node">
<title>Node2</title>
<g id="a_node2"><a xlink:href="classReaktoro_1_1Database.html" target="_top" xlink:title="The class used to store and retrieve data of chemical species.">
<polygon fill="none" stroke="black" points="0,-67.5 0,-86.5 63,-86.5 63,-67.5 0,-67.5"/>
<text text-anchor="middle" x="31.5" y="-74.5" font-family="Helvetica,sans-Serif" font-size="10.00">Database</text>
</a>
</g>
</g>
<!-- Node2&#45;&gt;Node1 -->
<g id="edge1" class="edge">
<title>Node2&#45;&gt;Node1</title>
<path fill="none" stroke="#9a32cd" stroke-dasharray="5,2" d="M48.06,-60.13C56.61,-52.6 67.54,-43.97 78.5,-38 93.24,-29.97 110.78,-23.79 125.84,-19.39"/>
<polygon fill="#9a32cd" stroke="#9a32cd" points="45.94,-57.32 40.94,-66.66 50.67,-62.48 45.94,-57.32"/>
<text text-anchor="middle" x="103" y="-41" font-family="Helvetica,sans-Serif" font-size="10.00"> database</text>
</g>
<!-- Node3 -->
<g id="node3" class="node">
<title>Node3</title>
<g id="a_node3"><a xlink:href="classReaktoro_1_1SurfaceList.html" target="_top" xlink:title="A type used as a collection of surfaces.">
<polygon fill="none" stroke="black" points="81,-67.5 81,-86.5 152,-86.5 152,-67.5 81,-67.5"/>
<text text-anchor="middle" x="116.5" y="-74.5" font-family="Helvetica,sans-Serif" font-size="10.00">SurfaceList</text>
</a>
</g>
</g>
<!-- Node3&#45;&gt;Node1 -->
<g id="edge2" class="edge">
<title>Node3&#45;&gt;Node1</title>
<path fill="none" stroke="#9a32cd" stroke-dasharray="5,2" d="M126.23,-57.84C129.87,-51.43 134.17,-44.27 138.5,-38 143.03,-31.43 148.74,-24.46 153.21,-19.24"/>
<polygon fill="#9a32cd" stroke="#9a32cd" points="123.34,-55.84 121.59,-66.29 129.47,-59.22 123.34,-55.84"/>
<text text-anchor="middle" x="161" y="-41" font-family="Helvetica,sans-Serif" font-size="10.00"> surfaces</text>
</g>
<!-- Node4 -->
<g id="node4" class="node">
<title>Node4</title>
<g id="a_node4"><a xlink:href="classReaktoro_1_1SpeciesList.html" target="_top" xlink:title="A type used as a collection of species.">
<polygon fill="none" stroke="black" points="170,-67.5 170,-86.5 241,-86.5 241,-67.5 170,-67.5"/>
<text text-anchor="middle" x="205.5" y="-74.5" font-family="Helvetica,sans-Serif" font-size="10.00">SpeciesList</text>
</a>
</g>
</g>
<!-- Node4&#45;&gt;Node1 -->
<g id="edge3" class="edge">
<title>Node4&#45;&gt;Node1</title>
<path fill="none" stroke="#9a32cd" stroke-dasharray="5,2" d="M195.84,-57.79C192.21,-51.38 187.9,-44.22 183.5,-38 178.81,-31.36 172.84,-24.39 168.16,-19.2"/>
<polygon fill="#9a32cd" stroke="#9a32cd" points="192.6,-59.16 200.47,-66.25 198.74,-55.8 192.6,-59.16"/>
<text text-anchor="middle" x="209.5" y="-41" font-family="Helvetica,sans-Serif" font-size="10.00"> species</text>
</g>
<!-- Node5 -->
<g id="node5" class="node">
<title>Node5</title>
<g id="a_node5"><a xlink:href="classReaktoro_1_1PhaseList.html" target="_top" xlink:title="A type used as a collection of phases.">
<polygon fill="none" stroke="black" points="259,-67.5 259,-86.5 322,-86.5 322,-67.5 259,-67.5"/>
<text text-anchor="middle" x="290.5" y="-74.5" font-family="Helvetica,sans-Serif" font-size="10.00">PhaseList</text>
</a>
</g>
</g>
<!-- Node5&#45;&gt;Node1 -->
<g id="edge4" class="edge">
<title>Node5&#45;&gt;Node1</title>
<path fill="none" stroke="#9a32cd" stroke-dasharray="5,2" d="M270.43,-60.94C259.81,-53.42 246.35,-44.55 233.5,-38 218.93,-30.58 201.83,-24.14 187.84,-19.41"/>
<polygon fill="#9a32cd" stroke="#9a32cd" points="268.25,-63.68 278.39,-66.73 272.36,-58.02 268.25,-63.68"/>
<text text-anchor="middle" x="269.5" y="-41" font-family="Helvetica,sans-Serif" font-size="10.00"> phases</text>
</g>
</g>
</svg>
