<?xml version="1.0" encoding="UTF-8" standalone="no"?>
<!DOCTYPE svg PUBLIC "-//W3C//DTD SVG 1.1//EN"
 "http://www.w3.org/Graphics/SVG/1.1/DTD/svg11.dtd">
<!-- Generated by graphviz version 9.0.0 (20231125.0833)
 -->
<!-- Title: EquationSpecs Pages: 1 -->
<svg width="299pt" height="196pt"
 viewBox="0.00 0.00 299.25 196.25" xmlns="http://www.w3.org/2000/svg" xmlns:xlink="http://www.w3.org/1999/xlink">
<g id="graph0" class="graph" transform="scale(1 1) rotate(0) translate(4 192.25)">
<title>EquationSpecs</title>
<!-- Node1 -->
<g id="node1" class="node">
<title>Node1</title>
<g id="a_node1"><a xlink:title="The specifications for configuting a cubic equation of state.">
<polygon fill="#bfbfbf" stroke="black" points="107.5,-0.5 107.5,-21.25 194.75,-21.25 194.75,-0.5 107.5,-0.5"/>
<text text-anchor="middle" x="151.12" y="-7.75" font-family="Helvetica,sans-Serif" font-size="10.00">EquationSpecs</text>
</a>
</g>
</g>
<!-- Node2 -->
<g id="node2" class="node">
<title>Node2</title>
<g id="a_node2"><a xlink:href="structReaktoro_1_1CubicEOS_1_1EquationModel.html" target="_top" xlink:title="The necessary constants , , , &#160;and function &#160;that uniquely define a cubic equation of state.">
<polygon fill="none" stroke="black" points="39.75,-77.38 39.75,-98.12 128.5,-98.12 128.5,-77.38 39.75,-77.38"/>
<text text-anchor="middle" x="84.12" y="-84.62" font-family="Helvetica,sans-Serif" font-size="10.00">EquationModel</text>
</a>
</g>
</g>
<!-- Node2&#45;&gt;Node1 -->
<g id="edge1" class="edge">
<title>Node2&#45;&gt;Node1</title>
<path fill="none" stroke="#9a32cd" stroke-dasharray="5,2" d="M100.41,-68.55C113.71,-53.69 131.98,-33.27 142.58,-21.43"/>
<polygon fill="#9a32cd" stroke="#9a32cd" points="97.95,-66.05 93.89,-75.83 103.17,-70.72 97.95,-66.05"/>
<text text-anchor="middle" x="149" y="-43" font-family="Helvetica,sans-Serif" font-size="10.00"> eqmodel</text>
</g>
<!-- Node3 -->
<g id="node3" class="node">
<title>Node3</title>
<g id="a_node3"><a xlink:href="classReaktoro_1_1Model.html" target="_top" xlink:title=" ">
<polygon fill="none" stroke="black" points="0,-154.25 0,-187.75 168.25,-187.75 168.25,-154.25 0,-154.25"/>
<text text-anchor="start" x="8" y="-174.25" font-family="Helvetica,sans-Serif" font-size="10.00">Model&lt; Alpha(AlphaModelArgs</text>
<text text-anchor="middle" x="84.12" y="-161.5" font-family="Helvetica,sans-Serif" font-size="10.00"> const &amp;)&gt;</text>
</a>
</g>
</g>
<!-- Node3&#45;&gt;Node2 -->
<g id="edge2" class="edge">
<title>Node3&#45;&gt;Node2</title>
<path fill="none" stroke="#9a32cd" stroke-dasharray="5,2" d="M84.12,-142.88C84.12,-127.44 84.12,-109.06 84.12,-98.17"/>
<polygon fill="#9a32cd" stroke="#9a32cd" points="80.63,-142.43 84.13,-152.43 87.63,-142.43 80.63,-142.43"/>
<text text-anchor="middle" x="104" y="-126.25" font-family="Helvetica,sans-Serif" font-size="10.00"> alphafn</text>
</g>
<!-- Node4 -->
<g id="node4" class="node">
<title>Node4</title>
<g id="a_node4"><a xlink:href="classReaktoro_1_1Model.html" target="_top" xlink:title=" ">
<polygon fill="none" stroke="black" points="147,-71 147,-104.5 291.25,-104.5 291.25,-71 147,-71"/>
<text text-anchor="start" x="155" y="-91" font-family="Helvetica,sans-Serif" font-size="10.00">Model&lt; Bip(BipModelArgs</text>
<text text-anchor="middle" x="219.12" y="-78.25" font-family="Helvetica,sans-Serif" font-size="10.00"> const &amp;)&gt;</text>
</a>
</g>
</g>
<!-- Node4&#45;&gt;Node1 -->
<g id="edge3" class="edge">
<title>Node4&#45;&gt;Node1</title>
<path fill="none" stroke="#9a32cd" stroke-dasharray="5,2" d="M196.89,-62.27C184.25,-48.35 169.13,-31.7 159.83,-21.46"/>
<polygon fill="#9a32cd" stroke="#9a32cd" points="194.04,-64.33 203.35,-69.38 199.22,-59.63 194.04,-64.33"/>
<text text-anchor="middle" x="211.5" y="-43" font-family="Helvetica,sans-Serif" font-size="10.00"> bipmodel</text>
</g>
</g>
</svg>
