<?xml version="1.0" encoding="UTF-8" standalone="no"?>
<!DOCTYPE svg PUBLIC "-//W3C//DTD SVG 1.1//EN"
 "http://www.w3.org/Graphics/SVG/1.1/DTD/svg11.dtd">
<!-- Generated by graphviz version 7.1.0 (20230122.1345)
 -->
<!-- Title: Table::OutputOptions Pages: 1 -->
<svg width="128pt" height="152pt"
 viewBox="0.00 0.00 128.00 152.00" xmlns="http://www.w3.org/2000/svg" xmlns:xlink="http://www.w3.org/1999/xlink">
<g id="graph0" class="graph" transform="scale(1 1) rotate(0) translate(4 148)">
<title>Table::OutputOptions</title>
<!-- Node1 -->
<g id="node1" class="node">
<title>Node1</title>
<g id="a_node1"><a xlink:title="Used to specify formatting options when printing or outputting the Table object.">
<polygon fill="#bfbfbf" stroke="black" points="0.5,-0.5 0.5,-19.5 119.5,-19.5 119.5,-0.5 0.5,-0.5"/>
<text text-anchor="middle" x="60" y="-7.5" font-family="Helvetica,sans-Serif" font-size="10.00">Table::OutputOptions</text>
</a>
</g>
</g>
<!-- Node2 -->
<g id="node2" class="node">
<title>Node2</title>
<g id="a_node2"><a xlink:title=" ">
<polygon fill="none" stroke="#bfbfbf" points="38,-67.5 38,-86.5 82,-86.5 82,-67.5 38,-67.5"/>
<text text-anchor="middle" x="60" y="-74.5" font-family="Helvetica,sans-Serif" font-size="10.00">string</text>
</a>
</g>
</g>
<!-- Node2&#45;&gt;Node1 -->
<g id="edge1" class="edge">
<title>Node2&#45;&gt;Node1</title>
<path fill="none" stroke="#9a32cd" stroke-dasharray="5,2" d="M60,-56.04C60,-43.7 60,-28.5 60,-19.29"/>
<polygon fill="#9a32cd" stroke="#9a32cd" points="56.5,-55.99 60,-65.99 63.5,-55.99 56.5,-55.99"/>
<text text-anchor="middle" x="84" y="-41" font-family="Helvetica,sans-Serif" font-size="10.00"> delimiter</text>
</g>
<!-- Node3 -->
<g id="node3" class="node">
<title>Node3</title>
<g id="a_node3"><a xlink:title=" ">
<polygon fill="none" stroke="#bfbfbf" points="0,-124.5 0,-143.5 120,-143.5 120,-124.5 0,-124.5"/>
<text text-anchor="middle" x="60" y="-131.5" font-family="Helvetica,sans-Serif" font-size="10.00">basic_string&lt; Char &gt;</text>
</a>
</g>
</g>
<!-- Node3&#45;&gt;Node2 -->
<g id="edge2" class="edge">
<title>Node3&#45;&gt;Node2</title>
<path fill="none" stroke="midnightblue" d="M60,-113.39C60,-104.02 60,-93.31 60,-86.15"/>
<polygon fill="midnightblue" stroke="midnightblue" points="56.5,-113.37 60,-123.37 63.5,-113.37 56.5,-113.37"/>
</g>
</g>
</svg>
