<?xml version="1.0" encoding="UTF-8" standalone="no"?>
<!DOCTYPE svg PUBLIC "-//W3C//DTD SVG 1.1//EN"
 "http://www.w3.org/Graphics/SVG/1.1/DTD/svg11.dtd">
<!-- Generated by graphviz version 8.0.5 (20230506.1012)
 -->
<!-- Title: StandardThermoModelParamsNasa::Polynomial Pages: 1 -->
<svg width="187pt" height="274pt"
 viewBox="0.00 0.00 187.25 273.75" xmlns="http://www.w3.org/2000/svg" xmlns:xlink="http://www.w3.org/1999/xlink">
<g id="graph0" class="graph" transform="scale(1 1) rotate(0) translate(4 269.75)">
<title>StandardThermoModelParamsNasa::Polynomial</title>
<!-- Node1 -->
<g id="node1" class="node">
<title>Node1</title>
<g id="a_node1"><a xlink:title="Used to store Nasa polynomial coefficients valid for a certain temperature interval.">
<polygon fill="#bfbfbf" stroke="black" points="0,-0.5 0,-34 163,-34 163,-0.5 0,-0.5"/>
<text text-anchor="start" x="8" y="-20.5" font-family="Helvetica,sans-Serif" font-size="10.00">StandardThermoModelParams</text>
<text text-anchor="middle" x="81.5" y="-7.75" font-family="Helvetica,sans-Serif" font-size="10.00">Nasa::Polynomial</text>
</a>
</g>
</g>
<!-- Node2 -->
<g id="node2" class="node">
<title>Node2</title>
<g id="a_node2"><a xlink:href="classReaktoro_1_1Param.html" target="_top" xlink:title="A type used to represent the value of a parameter and its lower and upper bounds.">
<polygon fill="none" stroke="black" points="33.12,-185.75 33.12,-206.5 79.88,-206.5 79.88,-185.75 33.12,-185.75"/>
<text text-anchor="middle" x="56.5" y="-193" font-family="Helvetica,sans-Serif" font-size="10.00">Param</text>
</a>
</g>
</g>
<!-- Node2&#45;&gt;Node1 -->
<g id="edge1" class="edge">
<title>Node2&#45;&gt;Node1</title>
<path fill="none" stroke="#9a32cd" stroke-dasharray="5,2" d="M56.78,-175C57.52,-147.17 60.16,-95.48 69.5,-52.5 70.86,-46.22 73.05,-39.51 75.18,-33.7"/>
<polygon fill="#9a32cd" stroke="#9a32cd" points="53.26,-174.93 56.56,-185 60.26,-175.07 53.26,-174.93"/>
<text text-anchor="middle" x="77" y="-157.75" font-family="Helvetica,sans-Serif" font-size="10.00"> a1</text>
<text text-anchor="middle" x="77" y="-145" font-family="Helvetica,sans-Serif" font-size="10.00">a2</text>
<text text-anchor="middle" x="77" y="-132.25" font-family="Helvetica,sans-Serif" font-size="10.00">a3</text>
<text text-anchor="middle" x="77" y="-119.5" font-family="Helvetica,sans-Serif" font-size="10.00">a4</text>
<text text-anchor="middle" x="77" y="-106.75" font-family="Helvetica,sans-Serif" font-size="10.00">a5</text>
<text text-anchor="middle" x="77" y="-94" font-family="Helvetica,sans-Serif" font-size="10.00">a6</text>
<text text-anchor="middle" x="77" y="-81.25" font-family="Helvetica,sans-Serif" font-size="10.00">a7</text>
<text text-anchor="middle" x="77" y="-68.5" font-family="Helvetica,sans-Serif" font-size="10.00">b1</text>
<text text-anchor="middle" x="77" y="-55.75" font-family="Helvetica,sans-Serif" font-size="10.00">b2</text>
</g>
<!-- Node3 -->
<g id="node3" class="node">
<title>Node3</title>
<g id="a_node3"><a xlink:title=" ">
<polygon fill="none" stroke="#bfbfbf" points="97.62,-185.75 97.62,-206.5 141.38,-206.5 141.38,-185.75 97.62,-185.75"/>
<text text-anchor="middle" x="119.5" y="-193" font-family="Helvetica,sans-Serif" font-size="10.00">string</text>
</a>
</g>
</g>
<!-- Node3&#45;&gt;Node1 -->
<g id="edge2" class="edge">
<title>Node3&#45;&gt;Node1</title>
<path fill="none" stroke="#9a32cd" stroke-dasharray="5,2" d="M115.34,-175.75C107.76,-140.46 91.84,-66.37 84.88,-33.98"/>
<polygon fill="#9a32cd" stroke="#9a32cd" points="112.04,-176.07 117.56,-185.11 118.88,-174.6 112.04,-176.07"/>
<text text-anchor="middle" x="126" y="-106.75" font-family="Helvetica,sans-Serif" font-size="10.00"> label</text>
</g>
<!-- Node4 -->
<g id="node4" class="node">
<title>Node4</title>
<g id="a_node4"><a xlink:title=" ">
<polygon fill="none" stroke="#bfbfbf" points="59.75,-244.5 59.75,-265.25 179.25,-265.25 179.25,-244.5 59.75,-244.5"/>
<text text-anchor="middle" x="119.5" y="-251.75" font-family="Helvetica,sans-Serif" font-size="10.00">basic_string&lt; Char &gt;</text>
</a>
</g>
</g>
<!-- Node4&#45;&gt;Node3 -->
<g id="edge3" class="edge">
<title>Node4&#45;&gt;Node3</title>
<path fill="none" stroke="midnightblue" d="M119.5,-233.7C119.5,-224.35 119.5,-213.71 119.5,-206.32"/>
<polygon fill="midnightblue" stroke="midnightblue" points="116,-233.5 119.5,-243.5 123,-233.5 116,-233.5"/>
</g>
</g>
</svg>
