<?xml version="1.0" encoding="UTF-8" standalone="no"?>
<!DOCTYPE svg PUBLIC "-//W3C//DTD SVG 1.1//EN"
 "http://www.w3.org/Graphics/SVG/1.1/DTD/svg11.dtd">
<!-- Generated by graphviz version 8.0.5 (20230506.1012)
 -->
<!-- Title: ControlVariableQ Pages: 1 -->
<svg width="210pt" height="172pt"
 viewBox="0.00 0.00 209.50 171.75" xmlns="http://www.w3.org/2000/svg" xmlns:xlink="http://www.w3.org/1999/xlink">
<g id="graph0" class="graph" transform="scale(1 1) rotate(0) translate(4 167.75)">
<title>ControlVariableQ</title>
<!-- Node1 -->
<g id="node1" class="node">
<title>Node1</title>
<g id="a_node1"><a xlink:title="Used to define a q control variable in a chemical equilibrium problem.">
<polygon fill="#bfbfbf" stroke="black" points="55.5,-0.5 55.5,-21.25 154,-21.25 154,-0.5 55.5,-0.5"/>
<text text-anchor="middle" x="104.75" y="-7.75" font-family="Helvetica,sans-Serif" font-size="10.00">ControlVariableQ</text>
</a>
</g>
</g>
<!-- Node2 -->
<g id="node2" class="node">
<title>Node2</title>
<g id="a_node2"><a xlink:title=" ">
<polygon fill="none" stroke="#bfbfbf" points="37.88,-83.75 37.88,-104.5 81.62,-104.5 81.62,-83.75 37.88,-83.75"/>
<text text-anchor="middle" x="59.75" y="-91" font-family="Helvetica,sans-Serif" font-size="10.00">string</text>
</a>
</g>
</g>
<!-- Node2&#45;&gt;Node1 -->
<g id="edge1" class="edge">
<title>Node2&#45;&gt;Node1</title>
<path fill="none" stroke="#9a32cd" stroke-dasharray="5,2" d="M70.07,-74.49C79.32,-57.79 92.49,-34.01 99.65,-21.09"/>
<polygon fill="#9a32cd" stroke="#9a32cd" points="66.7,-72.36 64.91,-82.8 72.82,-75.75 66.7,-72.36"/>
<text text-anchor="middle" x="103.62" y="-55.75" font-family="Helvetica,sans-Serif" font-size="10.00"> id</text>
<text text-anchor="middle" x="103.62" y="-43" font-family="Helvetica,sans-Serif" font-size="10.00">name</text>
</g>
<!-- Node3 -->
<g id="node3" class="node">
<title>Node3</title>
<g id="a_node3"><a xlink:title=" ">
<polygon fill="none" stroke="#bfbfbf" points="0,-142.5 0,-163.25 119.5,-163.25 119.5,-142.5 0,-142.5"/>
<text text-anchor="middle" x="59.75" y="-149.75" font-family="Helvetica,sans-Serif" font-size="10.00">basic_string&lt; Char &gt;</text>
</a>
</g>
</g>
<!-- Node3&#45;&gt;Node2 -->
<g id="edge2" class="edge">
<title>Node3&#45;&gt;Node2</title>
<path fill="none" stroke="midnightblue" d="M59.75,-131.7C59.75,-122.35 59.75,-111.71 59.75,-104.32"/>
<polygon fill="midnightblue" stroke="midnightblue" points="56.25,-131.5 59.75,-141.5 63.25,-131.5 56.25,-131.5"/>
</g>
<!-- Node4 -->
<g id="node4" class="node">
<title>Node4</title>
<g id="a_node4"><a xlink:href="classReaktoro_1_1ChemicalFormula.html" target="_top" xlink:title="A type used to represent the chemical formula of a chemical species.">
<polygon fill="none" stroke="black" points="100,-83.75 100,-104.5 201.5,-104.5 201.5,-83.75 100,-83.75"/>
<text text-anchor="middle" x="150.75" y="-91" font-family="Helvetica,sans-Serif" font-size="10.00">ChemicalFormula</text>
</a>
</g>
</g>
<!-- Node4&#45;&gt;Node1 -->
<g id="edge3" class="edge">
<title>Node4&#45;&gt;Node1</title>
<path fill="none" stroke="#9a32cd" stroke-dasharray="5,2" d="M140.87,-74.4C135.36,-64.1 128.31,-51.14 121.75,-39.75 118.13,-33.46 113.88,-26.49 110.53,-21.1"/>
<polygon fill="#9a32cd" stroke="#9a32cd" points="138.18,-75.79 145.96,-82.98 144.36,-72.51 138.18,-75.79"/>
<text text-anchor="middle" x="161" y="-49.38" font-family="Helvetica,sans-Serif" font-size="10.00"> substance</text>
</g>
</g>
</svg>
