<?xml version="1.0" encoding="UTF-8" standalone="no"?>
<!DOCTYPE svg PUBLIC "-//W3C//DTD SVG 1.1//EN"
 "http://www.w3.org/Graphics/SVG/1.1/DTD/svg11.dtd">
<!-- Generated by graphviz version 7.1.0 (20230122.1345)
 -->
<!-- Title: EquationSpecs Pages: 1 -->
<svg width="302pt" height="217pt"
 viewBox="0.00 0.00 302.00 217.00" xmlns="http://www.w3.org/2000/svg" xmlns:xlink="http://www.w3.org/1999/xlink">
<g id="graph0" class="graph" transform="scale(1 1) rotate(0) translate(4 213)">
<title>EquationSpecs</title>
<!-- Node1 -->
<g id="node1" class="node">
<title>Node1</title>
<g id="a_node1"><a xlink:title="The specifications for configuting a cubic equation of state.">
<polygon fill="#bfbfbf" stroke="black" points="142.5,-0.5 142.5,-19.5 230.5,-19.5 230.5,-0.5 142.5,-0.5"/>
<text text-anchor="middle" x="186.5" y="-7.5" font-family="Helvetica,sans-Serif" font-size="10.00">EquationSpecs</text>
</a>
</g>
</g>
<!-- Node2 -->
<g id="node2" class="node">
<title>Node2</title>
<g id="a_node2"><a xlink:href="structReaktoro_1_1CubicEOS_1_1EquationModel.html" target="_top" xlink:title="The necessary constants , , , &#160;and function &#160;that uniquely define a cubic equation of state.">
<polygon fill="none" stroke="black" points="42,-73 42,-92 131,-92 131,-73 42,-73"/>
<text text-anchor="middle" x="86.5" y="-80" font-family="Helvetica,sans-Serif" font-size="10.00">EquationModel</text>
</a>
</g>
</g>
<!-- Node2&#45;&gt;Node1 -->
<g id="edge1" class="edge">
<title>Node2&#45;&gt;Node1</title>
<path fill="none" stroke="#9a32cd" stroke-dasharray="5,2" d="M107.76,-66.51C128.15,-52.14 158.2,-30.95 174.65,-19.35"/>
<polygon fill="#9a32cd" stroke="#9a32cd" points="105.76,-63.64 99.6,-72.26 109.79,-69.36 105.76,-63.64"/>
<text text-anchor="middle" x="168.5" y="-41" font-family="Helvetica,sans-Serif" font-size="10.00"> eqmodel</text>
</g>
<!-- Node3 -->
<g id="node3" class="node">
<title>Node3</title>
<g id="a_node3"><a xlink:href="classReaktoro_1_1Param.html" target="_top" xlink:title="A type used to represent the value of a parameter and its lower and upper bounds.">
<polygon fill="none" stroke="black" points="0,-184 0,-203 47,-203 47,-184 0,-184"/>
<text text-anchor="middle" x="23.5" y="-191" font-family="Helvetica,sans-Serif" font-size="10.00">Param</text>
</a>
</g>
</g>
<!-- Node3&#45;&gt;Node2 -->
<g id="edge2" class="edge">
<title>Node3&#45;&gt;Node2</title>
<path fill="none" stroke="#9a32cd" stroke-dasharray="5,2" d="M33.96,-174.4C47.79,-150.48 71.58,-109.31 81.71,-91.79"/>
<polygon fill="#9a32cd" stroke="#9a32cd" points="30.97,-172.59 28.99,-183 37.03,-176.09 30.97,-172.59"/>
<text text-anchor="middle" x="86" y="-152" font-family="Helvetica,sans-Serif" font-size="10.00"> Omega</text>
<text text-anchor="middle" x="86" y="-141" font-family="Helvetica,sans-Serif" font-size="10.00">Psi</text>
<text text-anchor="middle" x="86" y="-130" font-family="Helvetica,sans-Serif" font-size="10.00">epsilon</text>
<text text-anchor="middle" x="86" y="-119" font-family="Helvetica,sans-Serif" font-size="10.00">sigma</text>
</g>
<!-- Node4 -->
<g id="node4" class="node">
<title>Node4</title>
<g id="a_node4"><a xlink:href="classReaktoro_1_1Model.html" target="_top" xlink:title=" ">
<polygon fill="none" stroke="black" points="65,-178.5 65,-208.5 234,-208.5 234,-178.5 65,-178.5"/>
<text text-anchor="start" x="73" y="-196.5" font-family="Helvetica,sans-Serif" font-size="10.00">Model&lt; Alpha(AlphaModelArgs</text>
<text text-anchor="middle" x="149.5" y="-185.5" font-family="Helvetica,sans-Serif" font-size="10.00"> const &amp;)&gt;</text>
</a>
</g>
</g>
<!-- Node4&#45;&gt;Node2 -->
<g id="edge3" class="edge">
<title>Node4&#45;&gt;Node2</title>
<path fill="none" stroke="#9a32cd" stroke-dasharray="5,2" d="M137.97,-168.47C130.38,-153.16 119.94,-133.08 109.5,-116 104.31,-107.51 97.68,-98.29 92.87,-91.84"/>
<polygon fill="#9a32cd" stroke="#9a32cd" points="134.75,-169.85 142.29,-177.29 141.04,-166.77 134.75,-169.85"/>
<text text-anchor="middle" x="153.5" y="-135.5" font-family="Helvetica,sans-Serif" font-size="10.00"> alphafn</text>
</g>
<!-- Node5 -->
<g id="node5" class="node">
<title>Node5</title>
<g id="a_node5"><a xlink:href="classReaktoro_1_1Model.html" target="_top" xlink:title=" ">
<polygon fill="none" stroke="black" points="149,-67.5 149,-97.5 294,-97.5 294,-67.5 149,-67.5"/>
<text text-anchor="start" x="157" y="-85.5" font-family="Helvetica,sans-Serif" font-size="10.00">Model&lt; Bip(BipModelArgs</text>
<text text-anchor="middle" x="221.5" y="-74.5" font-family="Helvetica,sans-Serif" font-size="10.00"> const &amp;)&gt;</text>
</a>
</g>
</g>
<!-- Node5&#45;&gt;Node1 -->
<g id="edge4" class="edge">
<title>Node5&#45;&gt;Node1</title>
<path fill="none" stroke="#9a32cd" stroke-dasharray="5,2" d="M209.62,-57.58C203.01,-44.26 195.2,-28.53 190.56,-19.18"/>
<polygon fill="#9a32cd" stroke="#9a32cd" points="206.33,-58.82 213.91,-66.22 212.6,-55.7 206.33,-58.82"/>
<text text-anchor="middle" x="229" y="-41" font-family="Helvetica,sans-Serif" font-size="10.00"> bipmodel</text>
</g>
</g>
</svg>
