<?xml version="1.0" encoding="UTF-8" standalone="no"?>
<!DOCTYPE svg PUBLIC "-//W3C//DTD SVG 1.1//EN"
 "http://www.w3.org/Graphics/SVG/1.1/DTD/svg11.dtd">
<!-- Generated by graphviz version 9.0.0 (20231125.0833)
 -->
<!-- Title: isArrayAux&lt; Eigen::VectorBlock&lt; Vec, Size &gt; &gt; Pages: 1 -->
<svg width="159pt" height="171pt"
 viewBox="0.00 0.00 159.00 170.75" xmlns="http://www.w3.org/2000/svg" xmlns:xlink="http://www.w3.org/1999/xlink">
<g id="graph0" class="graph" transform="scale(1 1) rotate(0) translate(4 166.75)">
<title>isArrayAux&lt; Eigen::VectorBlock&lt; Vec, Size &gt; &gt;</title>
<!-- Node1 -->
<g id="node1" class="node">
<title>Node1</title>
<g id="a_node1"><a xlink:title=" ">
<polygon fill="#bfbfbf" stroke="black" points="0,-0.5 0,-34 151,-34 151,-0.5 0,-0.5"/>
<text text-anchor="start" x="8" y="-20.5" font-family="Helvetica,sans-Serif" font-size="10.00">isArrayAux&lt; Eigen::</text>
<text text-anchor="middle" x="75.5" y="-7.75" font-family="Helvetica,sans-Serif" font-size="10.00">VectorBlock&lt; Vec, Size &gt; &gt;</text>
</a>
</g>
</g>
<!-- Node2 -->
<g id="node2" class="node">
<title>Node2</title>
<g id="a_node2"><a xlink:href="structReaktoro_1_1detail_1_1isArrayAux.html" target="_top" xlink:title=" ">
<polygon fill="none" stroke="black" points="15.75,-71 15.75,-104.5 135.25,-104.5 135.25,-71 15.75,-71"/>
<text text-anchor="start" x="23.75" y="-91" font-family="Helvetica,sans-Serif" font-size="10.00">isArrayAux&lt; Decay&lt;</text>
<text text-anchor="middle" x="75.5" y="-78.25" font-family="Helvetica,sans-Serif" font-size="10.00"> Vec &gt; &gt;</text>
</a>
</g>
</g>
<!-- Node2&#45;&gt;Node1 -->
<g id="edge1" class="edge">
<title>Node2&#45;&gt;Node1</title>
<path fill="none" stroke="midnightblue" d="M75.5,-59.2C75.5,-50.77 75.5,-41.77 75.5,-34.37"/>
<polygon fill="midnightblue" stroke="midnightblue" points="72,-59 75.5,-69 79,-59 72,-59"/>
</g>
<!-- Node3 -->
<g id="node3" class="node">
<title>Node3</title>
<g id="a_node3"><a xlink:title=" ">
<polygon fill="none" stroke="#bfbfbf" points="42,-141.5 42,-162.25 109,-162.25 109,-141.5 42,-141.5"/>
<text text-anchor="middle" x="75.5" y="-148.75" font-family="Helvetica,sans-Serif" font-size="10.00">false_type</text>
</a>
</g>
</g>
<!-- Node3&#45;&gt;Node2 -->
<g id="edge2" class="edge">
<title>Node3&#45;&gt;Node2</title>
<path fill="none" stroke="midnightblue" d="M75.5,-129.92C75.5,-121.76 75.5,-112.55 75.5,-104.91"/>
<polygon fill="midnightblue" stroke="midnightblue" points="72,-129.65 75.5,-139.65 79,-129.65 72,-129.65"/>
</g>
</g>
</svg>
