<?xml version="1.0" encoding="UTF-8" standalone="no"?>
<!DOCTYPE svg PUBLIC "-//W3C//DTD SVG 1.1//EN"
 "http://www.w3.org/Graphics/SVG/1.1/DTD/svg11.dtd">
<!-- Generated by graphviz version 9.0.0 (20231125.0833)
 -->
<!-- Title: ControlVariableQ Pages: 1 -->
<svg width="210pt" height="172pt"
 viewBox="0.00 0.00 209.50 171.75" xmlns="http://www.w3.org/2000/svg" xmlns:xlink="http://www.w3.org/1999/xlink">
<g id="graph0" class="graph" transform="scale(1 1) rotate(0) translate(4 167.75)">
<title>ControlVariableQ</title>
<!-- Node1 -->
<g id="node1" class="node">
<title>Node1</title>
<g id="a_node1"><a xlink:title="Used to define a q control variable in a chemical equilibrium problem.">
<polygon fill="#bfbfbf" stroke="black" points="55.5,-0.5 55.5,-21.25 154,-21.25 154,-0.5 55.5,-0.5"/>
<text text-anchor="middle" x="104.75" y="-7.75" font-family="Helvetica,sans-Serif" font-size="10.00">ControlVariableQ</text>
</a>
</g>
</g>
<!-- Node2 -->
<g id="node2" class="node">
<title>Node2</title>
<g id="a_node2"><a xlink:title=" ">
<polygon fill="none" stroke="#bfbfbf" points="37.88,-83.75 37.88,-104.5 81.62,-104.5 81.62,-83.75 37.88,-83.75"/>
<text text-anchor="middle" x="59.75" y="-91" font-family="Helvetica,sans-Serif" font-size="10.00">string</text>
</a>
</g>
</g>
<!-- Node2&#45;&gt;Node1 -->
<g id="edge1" class="edge">
<title>Node2&#45;&gt;Node1</title>
<path fill="none" stroke="#9a32cd" stroke-dasharray="5,2" d="M70.47,-73.77C79.59,-57.3 92.32,-34.32 99.42,-21.5"/>
<polygon fill="#9a32cd" stroke="#9a32cd" points="67.61,-71.72 65.82,-82.16 73.73,-75.11 67.61,-71.72"/>
<text text-anchor="middle" x="103.62" y="-55.75" font-family="Helvetica,sans-Serif" font-size="10.00"> id</text>
<text text-anchor="middle" x="103.62" y="-43" font-family="Helvetica,sans-Serif" font-size="10.00">name</text>
</g>
<!-- Node3 -->
<g id="node3" class="node">
<title>Node3</title>
<g id="a_node3"><a xlink:title=" ">
<polygon fill="none" stroke="#bfbfbf" points="0,-142.5 0,-163.25 119.5,-163.25 119.5,-142.5 0,-142.5"/>
<text text-anchor="middle" x="59.75" y="-149.75" font-family="Helvetica,sans-Serif" font-size="10.00">basic_string&lt; Char &gt;</text>
</a>
</g>
</g>
<!-- Node3&#45;&gt;Node2 -->
<g id="edge2" class="edge">
<title>Node3&#45;&gt;Node2</title>
<path fill="none" stroke="midnightblue" d="M59.75,-130.81C59.75,-121.97 59.75,-112.1 59.75,-104.99"/>
<polygon fill="midnightblue" stroke="midnightblue" points="56.25,-130.73 59.75,-140.73 63.25,-130.73 56.25,-130.73"/>
</g>
<!-- Node4 -->
<g id="node4" class="node">
<title>Node4</title>
<g id="a_node4"><a xlink:href="classReaktoro_1_1ChemicalFormula.html" target="_top" xlink:title="A type used to represent the chemical formula of a chemical species.">
<polygon fill="none" stroke="black" points="100,-83.75 100,-104.5 201.5,-104.5 201.5,-83.75 100,-83.75"/>
<text text-anchor="middle" x="150.75" y="-91" font-family="Helvetica,sans-Serif" font-size="10.00">ChemicalFormula</text>
</a>
</g>
</g>
<!-- Node4&#45;&gt;Node1 -->
<g id="edge3" class="edge">
<title>Node4&#45;&gt;Node1</title>
<path fill="none" stroke="#9a32cd" stroke-dasharray="5,2" d="M140.5,-73.7C135.05,-63.52 128.17,-50.89 121.75,-39.75 118.24,-33.66 114.14,-26.93 110.85,-21.61"/>
<polygon fill="#9a32cd" stroke="#9a32cd" points="137.26,-75.07 145.05,-82.26 143.44,-71.79 137.26,-75.07"/>
<text text-anchor="middle" x="161" y="-49.38" font-family="Helvetica,sans-Serif" font-size="10.00"> substance</text>
</g>
</g>
</svg>
