<?xml version="1.0" encoding="UTF-8" standalone="no"?>
<!DOCTYPE svg PUBLIC "-//W3C//DTD SVG 1.1//EN"
 "http://www.w3.org/Graphics/SVG/1.1/DTD/svg11.dtd">
<!-- Generated by graphviz version 9.0.0 (20231125.0833)
 -->
<!-- Title: SmartEquilibriumSolver::Cell Pages: 1 -->
<svg width="220pt" height="113pt"
 viewBox="0.00 0.00 220.38 113.00" xmlns="http://www.w3.org/2000/svg" xmlns:xlink="http://www.w3.org/1999/xlink">
<g id="graph0" class="graph" transform="scale(1 1) rotate(0) translate(4 109)">
<title>SmartEquilibriumSolver::Cell</title>
<!-- Node1 -->
<g id="node1" class="node">
<title>Node1</title>
<g id="a_node1"><a xlink:title="The collection of clusters containing learned input&#45;output data associated to a temperature&#45;pressure ...">
<polygon fill="#bfbfbf" stroke="black" points="47.25,-0.5 47.25,-34 178.75,-34 178.75,-0.5 47.25,-0.5"/>
<text text-anchor="start" x="55.25" y="-20.5" font-family="Helvetica,sans-Serif" font-size="10.00">SmartEquilibriumSolver</text>
<text text-anchor="middle" x="113" y="-7.75" font-family="Helvetica,sans-Serif" font-size="10.00">::Cell</text>
</a>
</g>
</g>
<!-- Node2 -->
<g id="node2" class="node">
<title>Node2</title>
<g id="a_node2"><a xlink:href="classReaktoro_1_1ClusterConnectivity.html" target="_top" xlink:title=" ">
<polygon fill="none" stroke="black" points="0,-83.75 0,-104.5 112,-104.5 112,-83.75 0,-83.75"/>
<text text-anchor="middle" x="56" y="-91" font-family="Helvetica,sans-Serif" font-size="10.00">ClusterConnectivity</text>
</a>
</g>
</g>
<!-- Node2&#45;&gt;Node1 -->
<g id="edge1" class="edge">
<title>Node2&#45;&gt;Node1</title>
<path fill="none" stroke="#9a32cd" stroke-dasharray="5,2" d="M69.8,-74.18C74.85,-67.31 80.64,-59.52 86,-52.5 90.59,-46.48 95.72,-39.94 100.26,-34.2"/>
<polygon fill="#9a32cd" stroke="#9a32cd" points="67.04,-72.02 63.96,-82.15 72.69,-76.15 67.04,-72.02"/>
<text text-anchor="middle" x="117.5" y="-55.75" font-family="Helvetica,sans-Serif" font-size="10.00"> connectivity</text>
</g>
<!-- Node3 -->
<g id="node3" class="node">
<title>Node3</title>
<g id="a_node3"><a xlink:href="classReaktoro_1_1PriorityQueue.html" target="_top" xlink:title=" ">
<polygon fill="none" stroke="black" points="129.62,-83.75 129.62,-104.5 212.38,-104.5 212.38,-83.75 129.62,-83.75"/>
<text text-anchor="middle" x="171" y="-91" font-family="Helvetica,sans-Serif" font-size="10.00">PriorityQueue</text>
</a>
</g>
</g>
<!-- Node3&#45;&gt;Node1 -->
<g id="edge2" class="edge">
<title>Node3&#45;&gt;Node1</title>
<path fill="none" stroke="#9a32cd" stroke-dasharray="5,2" d="M161.85,-73.3C158.28,-66.42 153.86,-58.85 149,-52.5 144.07,-46.06 137.91,-39.73 132.08,-34.3"/>
<polygon fill="#9a32cd" stroke="#9a32cd" points="158.52,-74.45 166.06,-81.89 164.81,-71.37 158.52,-74.45"/>
<text text-anchor="middle" x="176.12" y="-55.75" font-family="Helvetica,sans-Serif" font-size="10.00"> priority</text>
</g>
</g>
</svg>
