<?xml version="1.0" encoding="UTF-8" standalone="no"?>
<!DOCTYPE svg PUBLIC "-//W3C//DTD SVG 1.1//EN"
 "http://www.w3.org/Graphics/SVG/1.1/DTD/svg11.dtd">
<!-- Generated by graphviz version 8.1.0 (20230707.2238)
 -->
<!-- Title: EquationSpecs Pages: 1 -->
<svg width="302pt" height="235pt"
 viewBox="0.00 0.00 301.50 234.50" xmlns="http://www.w3.org/2000/svg" xmlns:xlink="http://www.w3.org/1999/xlink">
<g id="graph0" class="graph" transform="scale(1 1) rotate(0) translate(4 230.5)">
<title>EquationSpecs</title>
<!-- Node1 -->
<g id="node1" class="node">
<title>Node1</title>
<g id="a_node1"><a xlink:title="The specifications for configuting a cubic equation of state.">
<polygon fill="#bfbfbf" stroke="black" points="109.75,-0.5 109.75,-21.25 197,-21.25 197,-0.5 109.75,-0.5"/>
<text text-anchor="middle" x="153.38" y="-7.75" font-family="Helvetica,sans-Serif" font-size="10.00">EquationSpecs</text>
</a>
</g>
</g>
<!-- Node2 -->
<g id="node2" class="node">
<title>Node2</title>
<g id="a_node2"><a xlink:href="structReaktoro_1_1CubicEOS_1_1EquationModel.html" target="_top" xlink:title="The necessary constants , , , &#160;and function &#160;that uniquely define a cubic equation of state.">
<polygon fill="none" stroke="black" points="42,-77.38 42,-98.12 130.75,-98.12 130.75,-77.38 42,-77.38"/>
<text text-anchor="middle" x="86.38" y="-84.62" font-family="Helvetica,sans-Serif" font-size="10.00">EquationModel</text>
</a>
</g>
</g>
<!-- Node2&#45;&gt;Node1 -->
<g id="edge1" class="edge">
<title>Node2&#45;&gt;Node1</title>
<path fill="none" stroke="#9a32cd" stroke-dasharray="5,2" d="M101.77,-69.54C115.25,-54.48 134.31,-33.18 145.09,-21.13"/>
<polygon fill="#9a32cd" stroke="#9a32cd" points="99.65,-66.78 95.59,-76.57 104.87,-71.45 99.65,-66.78"/>
<text text-anchor="middle" x="151.25" y="-43" font-family="Helvetica,sans-Serif" font-size="10.00"> eqmodel</text>
</g>
<!-- Node3 -->
<g id="node3" class="node">
<title>Node3</title>
<g id="a_node3"><a xlink:href="classReaktoro_1_1Param.html" target="_top" xlink:title="A type used to represent the value of a parameter and its lower and upper bounds.">
<polygon fill="none" stroke="black" points="0,-198.88 0,-219.62 46.75,-219.62 46.75,-198.88 0,-198.88"/>
<text text-anchor="middle" x="23.38" y="-206.12" font-family="Helvetica,sans-Serif" font-size="10.00">Param</text>
</a>
</g>
</g>
<!-- Node3&#45;&gt;Node2 -->
<g id="edge2" class="edge">
<title>Node3&#45;&gt;Node2</title>
<path fill="none" stroke="#9a32cd" stroke-dasharray="5,2" d="M33.1,-189.81C46.8,-163.82 71.27,-117.4 81.58,-97.84"/>
<polygon fill="#9a32cd" stroke="#9a32cd" points="29.68,-187.79 28.11,-198.27 35.87,-191.05 29.68,-187.79"/>
<text text-anchor="middle" x="87.5" y="-164.5" font-family="Helvetica,sans-Serif" font-size="10.00"> Omega</text>
<text text-anchor="middle" x="87.5" y="-151.75" font-family="Helvetica,sans-Serif" font-size="10.00">Psi</text>
<text text-anchor="middle" x="87.5" y="-139" font-family="Helvetica,sans-Serif" font-size="10.00">epsilon</text>
<text text-anchor="middle" x="87.5" y="-126.25" font-family="Helvetica,sans-Serif" font-size="10.00">sigma</text>
</g>
<!-- Node4 -->
<g id="node4" class="node">
<title>Node4</title>
<g id="a_node4"><a xlink:href="classReaktoro_1_1Model.html" target="_top" xlink:title=" ">
<polygon fill="none" stroke="black" points="65.25,-192.5 65.25,-226 233.5,-226 233.5,-192.5 65.25,-192.5"/>
<text text-anchor="start" x="73.25" y="-212.5" font-family="Helvetica,sans-Serif" font-size="10.00">Model&lt; Alpha(AlphaModelArgs</text>
<text text-anchor="middle" x="149.38" y="-199.75" font-family="Helvetica,sans-Serif" font-size="10.00"> const &amp;)&gt;</text>
</a>
</g>
</g>
<!-- Node4&#45;&gt;Node2 -->
<g id="edge3" class="edge">
<title>Node4&#45;&gt;Node2</title>
<path fill="none" stroke="#9a32cd" stroke-dasharray="5,2" d="M139.19,-182.83C131.92,-165.56 121.49,-142.41 110.38,-123 105.32,-114.18 98.62,-104.76 93.58,-98.04"/>
<polygon fill="#9a32cd" stroke="#9a32cd" points="136.23,-183.84 143.28,-191.74 142.7,-181.16 136.23,-183.84"/>
<text text-anchor="middle" x="155.25" y="-145.38" font-family="Helvetica,sans-Serif" font-size="10.00"> alphafn</text>
</g>
<!-- Node5 -->
<g id="node5" class="node">
<title>Node5</title>
<g id="a_node5"><a xlink:href="classReaktoro_1_1Model.html" target="_top" xlink:title=" ">
<polygon fill="none" stroke="black" points="149.25,-71 149.25,-104.5 293.5,-104.5 293.5,-71 149.25,-71"/>
<text text-anchor="start" x="157.25" y="-91" font-family="Helvetica,sans-Serif" font-size="10.00">Model&lt; Bip(BipModelArgs</text>
<text text-anchor="middle" x="221.38" y="-78.25" font-family="Helvetica,sans-Serif" font-size="10.00"> const &amp;)&gt;</text>
</a>
</g>
</g>
<!-- Node5&#45;&gt;Node1 -->
<g id="edge4" class="edge">
<title>Node5&#45;&gt;Node1</title>
<path fill="none" stroke="#9a32cd" stroke-dasharray="5,2" d="M200.08,-63.3C187.16,-49.07 171.38,-31.7 161.87,-21.23"/>
<polygon fill="#9a32cd" stroke="#9a32cd" points="196.97,-65.19 206.29,-70.24 202.15,-60.48 196.97,-65.19"/>
<text text-anchor="middle" x="213.75" y="-43" font-family="Helvetica,sans-Serif" font-size="10.00"> bipmodel</text>
</g>
</g>
</svg>
