<?xml version="1.0" encoding="UTF-8" standalone="no"?>
<!DOCTYPE svg PUBLIC "-//W3C//DTD SVG 1.1//EN"
 "http://www.w3.org/Graphics/SVG/1.1/DTD/svg11.dtd">
<!-- Generated by graphviz version 7.1.0 (20230122.1345)
 -->
<!-- Title: Substance Pages: 1 -->
<svg width="156pt" height="174pt"
 viewBox="0.00 0.00 155.50 174.00" xmlns="http://www.w3.org/2000/svg" xmlns:xlink="http://www.w3.org/1999/xlink">
<g id="graph0" class="graph" transform="scale(1 1) rotate(0) translate(4 170)">
<title>Substance</title>
<!-- Node1 -->
<g id="node1" class="node">
<title>Node1</title>
<g id="a_node1"><a xlink:title="The attributes of a substance in a fluid phase required by a cubic equation of state.">
<polygon fill="#bfbfbf" stroke="black" points="18,-0.5 18,-19.5 85,-19.5 85,-0.5 18,-0.5"/>
<text text-anchor="middle" x="51.5" y="-7.5" font-family="Helvetica,sans-Serif" font-size="10.00">Substance</text>
</a>
</g>
</g>
<!-- Node2 -->
<g id="node2" class="node">
<title>Node2</title>
<g id="a_node2"><a xlink:href="classReaktoro_1_1Param.html" target="_top" xlink:title="A type used to represent the value of a parameter and its lower and upper bounds.">
<polygon fill="none" stroke="black" points="0,-89.5 0,-108.5 47,-108.5 47,-89.5 0,-89.5"/>
<text text-anchor="middle" x="23.5" y="-96.5" font-family="Helvetica,sans-Serif" font-size="10.00">Param</text>
</a>
</g>
</g>
<!-- Node2&#45;&gt;Node1 -->
<g id="edge1" class="edge">
<title>Node2&#45;&gt;Node1</title>
<path fill="none" stroke="#9a32cd" stroke-dasharray="5,2" d="M21.66,-78.4C21.28,-66.31 22.17,-50.73 27.5,-38 30.5,-30.83 36.23,-24.27 41.33,-19.41"/>
<polygon fill="#9a32cd" stroke="#9a32cd" points="18.17,-78.6 22.33,-88.35 25.15,-78.14 18.17,-78.6"/>
<text text-anchor="middle" x="44.5" y="-63" font-family="Helvetica,sans-Serif" font-size="10.00"> Pcr</text>
<text text-anchor="middle" x="44.5" y="-52" font-family="Helvetica,sans-Serif" font-size="10.00">Tcr</text>
<text text-anchor="middle" x="44.5" y="-41" font-family="Helvetica,sans-Serif" font-size="10.00">omega</text>
</g>
<!-- Node3 -->
<g id="node3" class="node">
<title>Node3</title>
<g id="a_node3"><a xlink:title=" ">
<polygon fill="none" stroke="#bfbfbf" points="65.5,-89.5 65.5,-108.5 109.5,-108.5 109.5,-89.5 65.5,-89.5"/>
<text text-anchor="middle" x="87.5" y="-96.5" font-family="Helvetica,sans-Serif" font-size="10.00">string</text>
</a>
</g>
</g>
<!-- Node3&#45;&gt;Node1 -->
<g id="edge2" class="edge">
<title>Node3&#45;&gt;Node1</title>
<path fill="none" stroke="#9a32cd" stroke-dasharray="5,2" d="M79.74,-79.24C72.07,-60.71 60.68,-33.18 54.99,-19.44"/>
<polygon fill="#9a32cd" stroke="#9a32cd" points="76.41,-80.36 83.47,-88.26 82.88,-77.68 76.41,-80.36"/>
<text text-anchor="middle" x="97.5" y="-52" font-family="Helvetica,sans-Serif" font-size="10.00"> formula</text>
</g>
<!-- Node4 -->
<g id="node4" class="node">
<title>Node4</title>
<g id="a_node4"><a xlink:title=" ">
<polygon fill="none" stroke="#bfbfbf" points="27.5,-146.5 27.5,-165.5 147.5,-165.5 147.5,-146.5 27.5,-146.5"/>
<text text-anchor="middle" x="87.5" y="-153.5" font-family="Helvetica,sans-Serif" font-size="10.00">basic_string&lt; Char &gt;</text>
</a>
</g>
</g>
<!-- Node4&#45;&gt;Node3 -->
<g id="edge3" class="edge">
<title>Node4&#45;&gt;Node3</title>
<path fill="none" stroke="midnightblue" d="M87.5,-135.39C87.5,-126.02 87.5,-115.31 87.5,-108.15"/>
<polygon fill="midnightblue" stroke="midnightblue" points="84,-135.37 87.5,-145.37 91,-135.37 84,-135.37"/>
</g>
</g>
</svg>
