<?xml version="1.0" encoding="UTF-8" standalone="no"?>
<!DOCTYPE svg PUBLIC "-//W3C//DTD SVG 1.1//EN"
 "http://www.w3.org/Graphics/SVG/1.1/DTD/svg11.dtd">
<!-- Generated by graphviz version 9.0.0 (20231125.0833)
 -->
<!-- Title: SmartEquilibriumSolver::Record Pages: 1 -->
<svg width="510pt" height="113pt"
 viewBox="0.00 0.00 510.12 113.00" xmlns="http://www.w3.org/2000/svg" xmlns:xlink="http://www.w3.org/1999/xlink">
<g id="graph0" class="graph" transform="scale(1 1) rotate(0) translate(4 109)">
<title>SmartEquilibriumSolver::Record</title>
<!-- Node1 -->
<g id="node1" class="node">
<title>Node1</title>
<g id="a_node1"><a xlink:title="The record of the knowledge database containing input, output, and derivatives data.">
<polygon fill="#bfbfbf" stroke="black" points="189.75,-0.5 189.75,-34 321.25,-34 321.25,-0.5 189.75,-0.5"/>
<text text-anchor="start" x="197.75" y="-20.5" font-family="Helvetica,sans-Serif" font-size="10.00">SmartEquilibriumSolver</text>
<text text-anchor="middle" x="255.5" y="-7.75" font-family="Helvetica,sans-Serif" font-size="10.00">::Record</text>
</a>
</g>
</g>
<!-- Node2 -->
<g id="node2" class="node">
<title>Node2</title>
<g id="a_node2"><a xlink:href="classReaktoro_1_1EquilibriumPredictor.html" target="_top" xlink:title="Used to predict a chemical equilibrium state at given conditions using first&#45;order Taylor approximati...">
<polygon fill="none" stroke="black" points="0,-83.75 0,-104.5 115,-104.5 115,-83.75 0,-83.75"/>
<text text-anchor="middle" x="57.5" y="-91" font-family="Helvetica,sans-Serif" font-size="10.00">EquilibriumPredictor</text>
</a>
</g>
</g>
<!-- Node2&#45;&gt;Node1 -->
<g id="edge1" class="edge">
<title>Node2&#45;&gt;Node1</title>
<path fill="none" stroke="#9a32cd" stroke-dasharray="5,2" d="M94.09,-79.29C127.59,-66.62 177.21,-47.86 212.58,-34.48"/>
<polygon fill="#9a32cd" stroke="#9a32cd" points="92.92,-75.99 84.8,-82.8 95.39,-82.54 92.92,-75.99"/>
<text text-anchor="middle" x="185.75" y="-55.75" font-family="Helvetica,sans-Serif" font-size="10.00"> predictor</text>
</g>
<!-- Node3 -->
<g id="node3" class="node">
<title>Node3</title>
<g id="a_node3"><a xlink:href="classReaktoro_1_1EquilibriumConditions.html" target="_top" xlink:title="The class used to define conditions to be satisfied at chemical equilibrium.">
<polygon fill="none" stroke="black" points="132.88,-83.75 132.88,-104.5 256.12,-104.5 256.12,-83.75 132.88,-83.75"/>
<text text-anchor="middle" x="194.5" y="-91" font-family="Helvetica,sans-Serif" font-size="10.00">EquilibriumConditions</text>
</a>
</g>
</g>
<!-- Node3&#45;&gt;Node1 -->
<g id="edge2" class="edge">
<title>Node3&#45;&gt;Node1</title>
<path fill="none" stroke="#9a32cd" stroke-dasharray="5,2" d="M209.47,-74.75C219.56,-62.37 232.73,-46.2 242.39,-34.34"/>
<polygon fill="#9a32cd" stroke="#9a32cd" points="207.03,-72.2 203.43,-82.16 212.46,-76.62 207.03,-72.2"/>
<text text-anchor="middle" x="254.12" y="-55.75" font-family="Helvetica,sans-Serif" font-size="10.00"> conditions</text>
</g>
<!-- Node4 -->
<g id="node4" class="node">
<title>Node4</title>
<g id="a_node4"><a xlink:href="classReaktoro_1_1ChemicalState.html" target="_top" xlink:title="The chemical state of a chemical system.">
<polygon fill="none" stroke="black" points="273.88,-83.75 273.88,-104.5 361.12,-104.5 361.12,-83.75 273.88,-83.75"/>
<text text-anchor="middle" x="317.5" y="-91" font-family="Helvetica,sans-Serif" font-size="10.00">ChemicalState</text>
</a>
</g>
</g>
<!-- Node4&#45;&gt;Node1 -->
<g id="edge3" class="edge">
<title>Node4&#45;&gt;Node1</title>
<path fill="none" stroke="#9a32cd" stroke-dasharray="5,2" d="M302.65,-74.68C297,-67.71 290.48,-59.71 284.5,-52.5 279.53,-46.5 274.01,-39.96 269.14,-34.22"/>
<polygon fill="#9a32cd" stroke="#9a32cd" points="299.73,-76.64 308.74,-82.22 305.18,-72.24 299.73,-76.64"/>
<text text-anchor="middle" x="308.38" y="-55.75" font-family="Helvetica,sans-Serif" font-size="10.00"> state</text>
</g>
<!-- Node5 -->
<g id="node5" class="node">
<title>Node5</title>
<g id="a_node5"><a xlink:href="classReaktoro_1_1EquilibriumSensitivity.html" target="_top" xlink:title="The sensitivity derivatives of a chemical equilibrium state.">
<polygon fill="none" stroke="black" points="378.88,-83.75 378.88,-104.5 502.12,-104.5 502.12,-83.75 378.88,-83.75"/>
<text text-anchor="middle" x="440.5" y="-91" font-family="Helvetica,sans-Serif" font-size="10.00">EquilibriumSensitivity</text>
</a>
</g>
</g>
<!-- Node5&#45;&gt;Node1 -->
<g id="edge4" class="edge">
<title>Node5&#45;&gt;Node1</title>
<path fill="none" stroke="#9a32cd" stroke-dasharray="5,2" d="M405.91,-79.12C374.6,-66.46 328.51,-47.8 295.6,-34.48"/>
<polygon fill="#9a32cd" stroke="#9a32cd" points="404.33,-82.26 414.91,-82.77 406.96,-75.77 404.33,-82.26"/>
<text text-anchor="middle" x="396.5" y="-55.75" font-family="Helvetica,sans-Serif" font-size="10.00"> sensitivity</text>
</g>
</g>
</svg>
