<?xml version="1.0" encoding="UTF-8" standalone="no"?>
<!DOCTYPE svg PUBLIC "-//W3C//DTD SVG 1.1//EN"
 "http://www.w3.org/Graphics/SVG/1.1/DTD/svg11.dtd">
<!-- Generated by graphviz version 8.0.5 (20230506.1012)
 -->
<!-- Title: Exception Pages: 1 -->
<svg width="288pt" height="420pt"
 viewBox="0.00 0.00 287.75 419.50" xmlns="http://www.w3.org/2000/svg" xmlns:xlink="http://www.w3.org/1999/xlink">
<g id="graph0" class="graph" transform="scale(1 1) rotate(0) translate(4 415.5)">
<title>Exception</title>
<!-- Node1 -->
<g id="node1" class="node">
<title>Node1</title>
<g id="a_node1"><a xlink:title="Provides a convenient way to initialized an exception with helpful error messages.">
<polygon fill="#bfbfbf" stroke="black" points="106.62,-0.5 106.62,-21.25 170.62,-21.25 170.62,-0.5 106.62,-0.5"/>
<text text-anchor="middle" x="138.62" y="-7.75" font-family="Helvetica,sans-Serif" font-size="10.00">Exception</text>
</a>
</g>
</g>
<!-- Node2 -->
<g id="node2" class="node">
<title>Node2</title>
<g id="a_node2"><a xlink:title=" ">
<polygon fill="none" stroke="#bfbfbf" points="99.5,-83.75 99.5,-104.5 177.75,-104.5 177.75,-83.75 99.5,-83.75"/>
<text text-anchor="middle" x="138.62" y="-91" font-family="Helvetica,sans-Serif" font-size="10.00">stringstream</text>
</a>
</g>
</g>
<!-- Node2&#45;&gt;Node1 -->
<g id="edge1" class="edge">
<title>Node2&#45;&gt;Node1</title>
<path fill="none" stroke="#9a32cd" stroke-dasharray="5,2" d="M138.62,-73.05C138.62,-56.45 138.62,-33.64 138.62,-21.09"/>
<polygon fill="#9a32cd" stroke="#9a32cd" points="135.13,-72.8 138.62,-82.8 142.13,-72.8 135.13,-72.8"/>
<text text-anchor="middle" x="155.12" y="-55.75" font-family="Helvetica,sans-Serif" font-size="10.00"> error</text>
<text text-anchor="middle" x="155.12" y="-43" font-family="Helvetica,sans-Serif" font-size="10.00">reason</text>
</g>
<!-- Node3 -->
<g id="node3" class="node">
<title>Node3</title>
<g id="a_node3"><a xlink:title=" ">
<polygon fill="none" stroke="#bfbfbf" points="84.12,-142.5 84.12,-176 193.12,-176 193.12,-142.5 84.12,-142.5"/>
<text text-anchor="start" x="92.12" y="-162.5" font-family="Helvetica,sans-Serif" font-size="10.00">basic_stringstream</text>
<text text-anchor="middle" x="138.62" y="-149.75" font-family="Helvetica,sans-Serif" font-size="10.00">&lt; Char &gt;</text>
</a>
</g>
</g>
<!-- Node3&#45;&gt;Node2 -->
<g id="edge2" class="edge">
<title>Node3&#45;&gt;Node2</title>
<path fill="none" stroke="midnightblue" d="M138.62,-131.78C138.62,-122.08 138.62,-111.71 138.62,-104.49"/>
<polygon fill="midnightblue" stroke="midnightblue" points="135.13,-131.65 138.62,-141.65 142.13,-131.65 135.13,-131.65"/>
</g>
<!-- Node4 -->
<g id="node4" class="node">
<title>Node4</title>
<g id="a_node4"><a xlink:title=" ">
<polygon fill="none" stroke="#bfbfbf" points="71,-214 71,-234.75 206.25,-234.75 206.25,-214 71,-214"/>
<text text-anchor="middle" x="138.62" y="-221.25" font-family="Helvetica,sans-Serif" font-size="10.00">basic_iostream&lt; Char &gt;</text>
</a>
</g>
</g>
<!-- Node4&#45;&gt;Node3 -->
<g id="edge3" class="edge">
<title>Node4&#45;&gt;Node3</title>
<path fill="none" stroke="midnightblue" d="M138.62,-203.2C138.62,-194.39 138.62,-184.21 138.62,-175.97"/>
<polygon fill="midnightblue" stroke="midnightblue" points="135.13,-203.06 138.62,-213.06 142.13,-203.06 135.13,-203.06"/>
</g>
<!-- Node5 -->
<g id="node5" class="node">
<title>Node5</title>
<g id="a_node5"><a xlink:title=" ">
<polygon fill="none" stroke="#bfbfbf" points="0,-272.75 0,-293.5 129.25,-293.5 129.25,-272.75 0,-272.75"/>
<text text-anchor="middle" x="64.62" y="-280" font-family="Helvetica,sans-Serif" font-size="10.00">basic_istream&lt; Char &gt;</text>
</a>
</g>
</g>
<!-- Node5&#45;&gt;Node4 -->
<g id="edge4" class="edge">
<title>Node5&#45;&gt;Node4</title>
<path fill="none" stroke="midnightblue" d="M85.39,-266.2C98.7,-256 115.5,-243.11 126.63,-234.57"/>
<polygon fill="midnightblue" stroke="midnightblue" points="83.65,-263.89 77.84,-272.75 87.91,-269.45 83.65,-263.89"/>
</g>
<!-- Node6 -->
<g id="node6" class="node">
<title>Node6</title>
<g id="a_node6"><a xlink:title=" ">
<polygon fill="none" stroke="#bfbfbf" points="85.62,-331.5 85.62,-352.25 191.62,-352.25 191.62,-331.5 85.62,-331.5"/>
<text text-anchor="middle" x="138.62" y="-338.75" font-family="Helvetica,sans-Serif" font-size="10.00">basic_ios&lt; Char &gt;</text>
</a>
</g>
</g>
<!-- Node6&#45;&gt;Node5 -->
<g id="edge5" class="edge">
<title>Node6&#45;&gt;Node5</title>
<path fill="none" stroke="midnightblue" d="M117.86,-324.95C104.55,-314.75 87.75,-301.86 76.62,-293.32"/>
<polygon fill="midnightblue" stroke="midnightblue" points="115.34,-328.2 125.41,-331.5 119.6,-322.64 115.34,-328.2"/>
</g>
<!-- Node8 -->
<g id="node8" class="node">
<title>Node8</title>
<g id="a_node8"><a xlink:title=" ">
<polygon fill="none" stroke="#bfbfbf" points="147.5,-272.75 147.5,-293.5 279.75,-293.5 279.75,-272.75 147.5,-272.75"/>
<text text-anchor="middle" x="213.62" y="-280" font-family="Helvetica,sans-Serif" font-size="10.00">basic_ostream&lt; Char &gt;</text>
</a>
</g>
</g>
<!-- Node6&#45;&gt;Node8 -->
<g id="edge8" class="edge">
<title>Node6&#45;&gt;Node8</title>
<path fill="none" stroke="midnightblue" d="M159.67,-324.95C173.16,-314.75 190.19,-301.86 201.47,-293.32"/>
<polygon fill="midnightblue" stroke="midnightblue" points="157.87,-322.68 152.01,-331.5 162.1,-328.26 157.87,-322.68"/>
</g>
<!-- Node7 -->
<g id="node7" class="node">
<title>Node7</title>
<g id="a_node7"><a xlink:title=" ">
<polygon fill="none" stroke="#bfbfbf" points="109.25,-390.25 109.25,-411 168,-411 168,-390.25 109.25,-390.25"/>
<text text-anchor="middle" x="138.62" y="-397.5" font-family="Helvetica,sans-Serif" font-size="10.00">ios_base</text>
</a>
</g>
</g>
<!-- Node7&#45;&gt;Node6 -->
<g id="edge6" class="edge">
<title>Node7&#45;&gt;Node6</title>
<path fill="none" stroke="midnightblue" d="M138.62,-379.45C138.62,-370.1 138.62,-359.46 138.62,-352.07"/>
<polygon fill="midnightblue" stroke="midnightblue" points="135.13,-379.25 138.62,-389.25 142.13,-379.25 135.13,-379.25"/>
</g>
<!-- Node8&#45;&gt;Node4 -->
<g id="edge7" class="edge">
<title>Node8&#45;&gt;Node4</title>
<path fill="none" stroke="midnightblue" d="M192.58,-266.2C179.09,-256 162.06,-243.11 150.78,-234.57"/>
<polygon fill="midnightblue" stroke="midnightblue" points="190.15,-269.51 200.24,-272.75 194.38,-263.93 190.15,-269.51"/>
</g>
</g>
</svg>
