<?xml version="1.0" encoding="UTF-8" standalone="no"?>
<!DOCTYPE svg PUBLIC "-//W3C//DTD SVG 1.1//EN"
 "http://www.w3.org/Graphics/SVG/1.1/DTD/svg11.dtd">
<!-- Generated by graphviz version 2.50.0 (20220117.2223)
 -->
<!-- Title: PhreeqcWaterProps Pages: 1 -->
<svg width="320pt" height="95pt"
 viewBox="0.00 0.00 320.00 95.00" xmlns="http://www.w3.org/2000/svg" xmlns:xlink="http://www.w3.org/1999/xlink">
<g id="graph0" class="graph" transform="scale(1 1) rotate(0) translate(4 91)">
<title>PhreeqcWaterProps</title>
<!-- Node1 -->
<g id="node1" class="node">
<title>Node1</title>
<g id="a_node1"><a xlink:title="The thermodynamic and electrostatic properties of water computed in PHREEQC.">
<polygon fill="#bfbfbf" stroke="black" points="99,-0.5 99,-19.5 210,-19.5 210,-0.5 99,-0.5"/>
<text text-anchor="middle" x="154.5" y="-7.5" font-family="Helvetica,sans-Serif" font-size="10.00">PhreeqcWaterProps</text>
</a>
</g>
</g>
<!-- Node2 -->
<g id="node2" class="node">
<title>Node2</title>
<g id="a_node2"><a xlink:href="structReaktoro_1_1PhreeqcUtils_1_1PhreeqcWaterElectroProps.html" target="_top" xlink:title="The electrostatic properties of water computed in PHREEQC.">
<polygon fill="none" stroke="black" points="0,-67.5 0,-86.5 145,-86.5 145,-67.5 0,-67.5"/>
<text text-anchor="middle" x="72.5" y="-74.5" font-family="Helvetica,sans-Serif" font-size="10.00">PhreeqcWaterElectroProps</text>
</a>
</g>
</g>
<!-- Node2&#45;&gt;Node1 -->
<g id="edge1" class="edge">
<title>Node2&#45;&gt;Node1</title>
<path fill="none" stroke="#9a32cd" stroke-dasharray="5,2" d="M91.78,-60.71C107.94,-47.91 130.42,-30.09 143.62,-19.63"/>
<polygon fill="#9a32cd" stroke="#9a32cd" points="89.22,-58.28 83.56,-67.23 93.57,-63.76 89.22,-58.28"/>
<text text-anchor="middle" x="130.5" y="-41" font-family="Helvetica,sans-Serif" font-size="10.00"> wep</text>
</g>
<!-- Node3 -->
<g id="node3" class="node">
<title>Node3</title>
<g id="a_node3"><a xlink:href="structReaktoro_1_1PhreeqcUtils_1_1PhreeqcWaterThermoProps.html" target="_top" xlink:title="The thermodynamic properties of water computed in PHREEQC.">
<polygon fill="none" stroke="black" points="163,-67.5 163,-86.5 312,-86.5 312,-67.5 163,-67.5"/>
<text text-anchor="middle" x="237.5" y="-74.5" font-family="Helvetica,sans-Serif" font-size="10.00">PhreeqcWaterThermoProps</text>
</a>
</g>
</g>
<!-- Node3&#45;&gt;Node1 -->
<g id="edge2" class="edge">
<title>Node3&#45;&gt;Node1</title>
<path fill="none" stroke="#9a32cd" stroke-dasharray="5,2" d="M218.43,-61.07C202.05,-48.24 179,-30.19 165.52,-19.63"/>
<polygon fill="#9a32cd" stroke="#9a32cd" points="216.28,-63.82 226.31,-67.23 220.59,-58.31 216.28,-63.82"/>
<text text-anchor="middle" x="211.5" y="-41" font-family="Helvetica,sans-Serif" font-size="10.00"> wtp</text>
</g>
</g>
</svg>
