<?xml version="1.0" encoding="UTF-8" standalone="no"?>
<!DOCTYPE svg PUBLIC "-//W3C//DTD SVG 1.1//EN"
 "http://www.w3.org/Graphics/SVG/1.1/DTD/svg11.dtd">
<!-- Generated by graphviz version 8.1.0 (20230707.2238)
 -->
<!-- Title: ReactionRateModelGeneratorArgs Pages: 1 -->
<svg width="510pt" height="159pt"
 viewBox="0.00 0.00 509.50 159.00" xmlns="http://www.w3.org/2000/svg" xmlns:xlink="http://www.w3.org/1999/xlink">
<g id="graph0" class="graph" transform="scale(1 1) rotate(0) translate(4 155)">
<title>ReactionRateModelGeneratorArgs</title>
<!-- Node1 -->
<g id="node1" class="node">
<title>Node1</title>
<g id="a_node1"><a xlink:title="The data provided to a ReactionRateModelGenerator to construct the ReactionRateModel of a reaction.">
<polygon fill="#bfbfbf" stroke="black" points="168.38,-0.5 168.38,-21.25 350.12,-21.25 350.12,-0.5 168.38,-0.5"/>
<text text-anchor="middle" x="259.25" y="-7.75" font-family="Helvetica,sans-Serif" font-size="10.00">ReactionRateModelGeneratorArgs</text>
</a>
</g>
</g>
<!-- Node2 -->
<g id="node2" class="node">
<title>Node2</title>
<g id="a_node2"><a xlink:href="classReaktoro_1_1Database.html" target="_top" xlink:title="The class used to store and retrieve data of chemical species.">
<polygon fill="none" stroke="black" points="0,-71 0,-91.75 62.5,-91.75 62.5,-71 0,-71"/>
<text text-anchor="middle" x="31.25" y="-78.25" font-family="Helvetica,sans-Serif" font-size="10.00">Database</text>
</a>
</g>
</g>
<!-- Node2&#45;&gt;Node1 -->
<g id="edge1" class="edge">
<title>Node2&#45;&gt;Node1</title>
<path fill="none" stroke="#9a32cd" stroke-dasharray="5,2" d="M53.8,-65.49C68.02,-56.75 87.07,-46.19 105.25,-39.75 128.94,-31.36 155.62,-25.39 180.03,-21.19"/>
<polygon fill="#9a32cd" stroke="#9a32cd" points="52.39,-62.87 45.8,-71.17 56.13,-68.79 52.39,-62.87"/>
<text text-anchor="middle" x="129.25" y="-43" font-family="Helvetica,sans-Serif" font-size="10.00"> database</text>
</g>
<!-- Node3 -->
<g id="node3" class="node">
<title>Node3</title>
<g id="a_node3"><a xlink:href="classReaktoro_1_1SurfaceList.html" target="_top" xlink:title="A type used as a collection of surfaces.">
<polygon fill="none" stroke="black" points="80.25,-71 80.25,-91.75 150.25,-91.75 150.25,-71 80.25,-71"/>
<text text-anchor="middle" x="115.25" y="-78.25" font-family="Helvetica,sans-Serif" font-size="10.00">SurfaceList</text>
</a>
</g>
</g>
<!-- Node3&#45;&gt;Node1 -->
<g id="edge2" class="edge">
<title>Node3&#45;&gt;Node1</title>
<path fill="none" stroke="#9a32cd" stroke-dasharray="5,2" d="M136.36,-64.86C148.19,-56.64 163.45,-46.82 178,-39.75 193.29,-32.32 211.07,-25.98 226.1,-21.23"/>
<polygon fill="#9a32cd" stroke="#9a32cd" points="134.82,-62.37 128.69,-71.01 138.87,-68.08 134.82,-62.37"/>
<text text-anchor="middle" x="200.38" y="-43" font-family="Helvetica,sans-Serif" font-size="10.00"> surfaces</text>
</g>
<!-- Node4 -->
<g id="node4" class="node">
<title>Node4</title>
<g id="a_node4"><a xlink:href="classReaktoro_1_1ReactionEquation.html" target="_top" xlink:title="A type used to represent the equation of a reaction.">
<polygon fill="none" stroke="black" points="168.5,-71 168.5,-91.75 270,-91.75 270,-71 168.5,-71"/>
<text text-anchor="middle" x="219.25" y="-78.25" font-family="Helvetica,sans-Serif" font-size="10.00">ReactionEquation</text>
</a>
</g>
</g>
<!-- Node4&#45;&gt;Node1 -->
<g id="edge3" class="edge">
<title>Node4&#45;&gt;Node1</title>
<path fill="none" stroke="#9a32cd" stroke-dasharray="5,2" d="M223.15,-60.54C225.03,-53.65 227.73,-46.07 231.5,-39.75 235.7,-32.71 242.06,-26.15 247.63,-21.16"/>
<polygon fill="#9a32cd" stroke="#9a32cd" points="219.54,-59.61 220.7,-70.14 226.36,-61.18 219.54,-59.61"/>
<text text-anchor="middle" x="255.12" y="-43" font-family="Helvetica,sans-Serif" font-size="10.00"> equation</text>
</g>
<!-- Node5 -->
<g id="node5" class="node">
<title>Node5</title>
<g id="a_node5"><a xlink:title=" ">
<polygon fill="none" stroke="#bfbfbf" points="288.38,-71 288.38,-91.75 332.12,-91.75 332.12,-71 288.38,-71"/>
<text text-anchor="middle" x="310.25" y="-78.25" font-family="Helvetica,sans-Serif" font-size="10.00">string</text>
</a>
</g>
</g>
<!-- Node5&#45;&gt;Node1 -->
<g id="edge4" class="edge">
<title>Node5&#45;&gt;Node1</title>
<path fill="none" stroke="#9a32cd" stroke-dasharray="5,2" d="M296.84,-62.36C286.93,-49.05 273.85,-31.48 266.02,-20.97"/>
<polygon fill="#9a32cd" stroke="#9a32cd" points="294.59,-64.21 303.37,-70.14 300.21,-60.03 294.59,-64.21"/>
<text text-anchor="middle" x="305.62" y="-43" font-family="Helvetica,sans-Serif" font-size="10.00"> name</text>
</g>
<!-- Node6 -->
<g id="node6" class="node">
<title>Node6</title>
<g id="a_node6"><a xlink:title=" ">
<polygon fill="none" stroke="#bfbfbf" points="250.5,-129.75 250.5,-150.5 370,-150.5 370,-129.75 250.5,-129.75"/>
<text text-anchor="middle" x="310.25" y="-137" font-family="Helvetica,sans-Serif" font-size="10.00">basic_string&lt; Char &gt;</text>
</a>
</g>
</g>
<!-- Node6&#45;&gt;Node5 -->
<g id="edge5" class="edge">
<title>Node6&#45;&gt;Node5</title>
<path fill="none" stroke="midnightblue" d="M310.25,-118.95C310.25,-109.6 310.25,-98.96 310.25,-91.57"/>
<polygon fill="midnightblue" stroke="midnightblue" points="306.75,-118.75 310.25,-128.75 313.75,-118.75 306.75,-118.75"/>
</g>
<!-- Node7 -->
<g id="node7" class="node">
<title>Node7</title>
<g id="a_node7"><a xlink:href="classReaktoro_1_1SpeciesList.html" target="_top" xlink:title="A type used as a collection of species.">
<polygon fill="none" stroke="black" points="349.88,-71 349.88,-91.75 420.62,-91.75 420.62,-71 349.88,-71"/>
<text text-anchor="middle" x="385.25" y="-78.25" font-family="Helvetica,sans-Serif" font-size="10.00">SpeciesList</text>
</a>
</g>
</g>
<!-- Node7&#45;&gt;Node1 -->
<g id="edge6" class="edge">
<title>Node7&#45;&gt;Node1</title>
<path fill="none" stroke="#9a32cd" stroke-dasharray="5,2" d="M364.62,-64.94C353.33,-56.87 338.9,-47.16 325.25,-39.75 312.24,-32.69 297.07,-26.17 284.55,-21.21"/>
<polygon fill="#9a32cd" stroke="#9a32cd" points="362.14,-68.19 372.28,-71.24 366.26,-62.53 362.14,-68.19"/>
<text text-anchor="middle" x="366.12" y="-43" font-family="Helvetica,sans-Serif" font-size="10.00"> species</text>
</g>
<!-- Node8 -->
<g id="node8" class="node">
<title>Node8</title>
<g id="a_node8"><a xlink:href="classReaktoro_1_1PhaseList.html" target="_top" xlink:title="A type used as a collection of phases.">
<polygon fill="none" stroke="black" points="439,-71 439,-91.75 501.5,-91.75 501.5,-71 439,-71"/>
<text text-anchor="middle" x="470.25" y="-78.25" font-family="Helvetica,sans-Serif" font-size="10.00">PhaseList</text>
</a>
</g>
</g>
<!-- Node8&#45;&gt;Node1 -->
<g id="edge7" class="edge">
<title>Node8&#45;&gt;Node1</title>
<path fill="none" stroke="#9a32cd" stroke-dasharray="5,2" d="M445.51,-65.69C430.07,-57.07 409.53,-46.56 390.25,-39.75 367.56,-31.73 341.8,-25.64 319.17,-21.23"/>
<polygon fill="#9a32cd" stroke="#9a32cd" points="443.43,-69.11 453.85,-71.03 446.9,-63.03 443.43,-69.11"/>
<text text-anchor="middle" x="438" y="-43" font-family="Helvetica,sans-Serif" font-size="10.00"> phases</text>
</g>
</g>
</svg>
