<?xml version="1.0" encoding="UTF-8" standalone="no"?>
<!DOCTYPE svg PUBLIC "-//W3C//DTD SVG 1.1//EN"
 "http://www.w3.org/Graphics/SVG/1.1/DTD/svg11.dtd">
<!-- Generated by graphviz version 9.0.0 (20231125.0833)
 -->
<!-- Title: StandardThermoModelParamsNasa::Polynomial Pages: 1 -->
<svg width="171pt" height="172pt"
 viewBox="0.00 0.00 171.00 171.75" xmlns="http://www.w3.org/2000/svg" xmlns:xlink="http://www.w3.org/1999/xlink">
<g id="graph0" class="graph" transform="scale(1 1) rotate(0) translate(4 167.75)">
<title>StandardThermoModelParamsNasa::Polynomial</title>
<!-- Node1 -->
<g id="node1" class="node">
<title>Node1</title>
<g id="a_node1"><a xlink:title="Used to store Nasa polynomial coefficients valid for a certain temperature interval.">
<polygon fill="#bfbfbf" stroke="black" points="0,-0.5 0,-34 163,-34 163,-0.5 0,-0.5"/>
<text text-anchor="start" x="8" y="-20.5" font-family="Helvetica,sans-Serif" font-size="10.00">StandardThermoModelParams</text>
<text text-anchor="middle" x="81.5" y="-7.75" font-family="Helvetica,sans-Serif" font-size="10.00">Nasa::Polynomial</text>
</a>
</g>
</g>
<!-- Node2 -->
<g id="node2" class="node">
<title>Node2</title>
<g id="a_node2"><a xlink:title=" ">
<polygon fill="none" stroke="#bfbfbf" points="59.62,-83.75 59.62,-104.5 103.38,-104.5 103.38,-83.75 59.62,-83.75"/>
<text text-anchor="middle" x="81.5" y="-91" font-family="Helvetica,sans-Serif" font-size="10.00">string</text>
</a>
</g>
</g>
<!-- Node2&#45;&gt;Node1 -->
<g id="edge1" class="edge">
<title>Node2&#45;&gt;Node1</title>
<path fill="none" stroke="#9a32cd" stroke-dasharray="5,2" d="M81.5,-72.15C81.5,-60.17 81.5,-45.39 81.5,-34.34"/>
<polygon fill="#9a32cd" stroke="#9a32cd" points="78,-71.82 81.5,-81.82 85,-71.82 78,-71.82"/>
<text text-anchor="middle" x="95" y="-55.75" font-family="Helvetica,sans-Serif" font-size="10.00"> label</text>
</g>
<!-- Node3 -->
<g id="node3" class="node">
<title>Node3</title>
<g id="a_node3"><a xlink:title=" ">
<polygon fill="none" stroke="#bfbfbf" points="21.75,-142.5 21.75,-163.25 141.25,-163.25 141.25,-142.5 21.75,-142.5"/>
<text text-anchor="middle" x="81.5" y="-149.75" font-family="Helvetica,sans-Serif" font-size="10.00">basic_string&lt; Char &gt;</text>
</a>
</g>
</g>
<!-- Node3&#45;&gt;Node2 -->
<g id="edge2" class="edge">
<title>Node3&#45;&gt;Node2</title>
<path fill="none" stroke="midnightblue" d="M81.5,-130.81C81.5,-121.97 81.5,-112.1 81.5,-104.99"/>
<polygon fill="midnightblue" stroke="midnightblue" points="78,-130.73 81.5,-140.73 85,-130.73 78,-130.73"/>
</g>
</g>
</svg>
