<?xml version="1.0" encoding="UTF-8" standalone="no"?>
<!DOCTYPE svg PUBLIC "-//W3C//DTD SVG 1.1//EN"
 "http://www.w3.org/Graphics/SVG/1.1/DTD/svg11.dtd">
<!-- Generated by graphviz version 8.1.0 (20230707.2238)
 -->
<!-- Title: EquationConstraint Pages: 1 -->
<svg width="228pt" height="159pt"
 viewBox="0.00 0.00 228.25 159.00" xmlns="http://www.w3.org/2000/svg" xmlns:xlink="http://www.w3.org/1999/xlink">
<g id="graph0" class="graph" transform="scale(1 1) rotate(0) translate(4 155)">
<title>EquationConstraint</title>
<!-- Node1 -->
<g id="node1" class="node">
<title>Node1</title>
<g id="a_node1"><a xlink:title="Used to define equation constraints in a chemical equilibrium problem.">
<polygon fill="#bfbfbf" stroke="black" points="24,-0.5 24,-21.25 133,-21.25 133,-0.5 24,-0.5"/>
<text text-anchor="middle" x="78.5" y="-7.75" font-family="Helvetica,sans-Serif" font-size="10.00">EquationConstraint</text>
</a>
</g>
</g>
<!-- Node2 -->
<g id="node2" class="node">
<title>Node2</title>
<g id="a_node2"><a xlink:href="structReaktoro_1_1EquationConstraintFn.html" target="_top" xlink:title="Used to define the function that evaluates the residual of an equation constraint in a chemical equil...">
<polygon fill="none" stroke="black" points="0,-71 0,-91.75 121,-91.75 121,-71 0,-71"/>
<text text-anchor="middle" x="60.5" y="-78.25" font-family="Helvetica,sans-Serif" font-size="10.00">EquationConstraintFn</text>
</a>
</g>
</g>
<!-- Node2&#45;&gt;Node1 -->
<g id="edge1" class="edge">
<title>Node2&#45;&gt;Node1</title>
<path fill="none" stroke="#9a32cd" stroke-dasharray="5,2" d="M65.65,-60.79C69.09,-47.69 73.46,-31.07 76.11,-20.97"/>
<polygon fill="#9a32cd" stroke="#9a32cd" points="62.08,-59.58 62.93,-70.14 68.85,-61.35 62.08,-59.58"/>
<text text-anchor="middle" x="77.88" y="-43" font-family="Helvetica,sans-Serif" font-size="10.00"> fn</text>
</g>
<!-- Node3 -->
<g id="node3" class="node">
<title>Node3</title>
<g id="a_node3"><a xlink:title=" ">
<polygon fill="none" stroke="#bfbfbf" points="138.62,-71 138.62,-91.75 182.38,-91.75 182.38,-71 138.62,-71"/>
<text text-anchor="middle" x="160.5" y="-78.25" font-family="Helvetica,sans-Serif" font-size="10.00">string</text>
</a>
</g>
</g>
<!-- Node3&#45;&gt;Node1 -->
<g id="edge2" class="edge">
<title>Node3&#45;&gt;Node1</title>
<path fill="none" stroke="#9a32cd" stroke-dasharray="5,2" d="M141.27,-64.31C125.21,-50.9 102.89,-32.25 89.65,-21.19"/>
<polygon fill="#9a32cd" stroke="#9a32cd" points="138.52,-67.41 148.44,-71.14 143.01,-62.04 138.52,-67.41"/>
<text text-anchor="middle" x="132.5" y="-43" font-family="Helvetica,sans-Serif" font-size="10.00"> id</text>
</g>
<!-- Node4 -->
<g id="node4" class="node">
<title>Node4</title>
<g id="a_node4"><a xlink:title=" ">
<polygon fill="none" stroke="#bfbfbf" points="100.75,-129.75 100.75,-150.5 220.25,-150.5 220.25,-129.75 100.75,-129.75"/>
<text text-anchor="middle" x="160.5" y="-137" font-family="Helvetica,sans-Serif" font-size="10.00">basic_string&lt; Char &gt;</text>
</a>
</g>
</g>
<!-- Node4&#45;&gt;Node3 -->
<g id="edge3" class="edge">
<title>Node4&#45;&gt;Node3</title>
<path fill="none" stroke="midnightblue" d="M160.5,-118.95C160.5,-109.6 160.5,-98.96 160.5,-91.57"/>
<polygon fill="midnightblue" stroke="midnightblue" points="157,-118.75 160.5,-128.75 164,-118.75 157,-118.75"/>
</g>
</g>
</svg>
