<?xml version="1.0" encoding="UTF-8" standalone="no"?>
<!DOCTYPE svg PUBLIC "-//W3C//DTD SVG 1.1//EN"
 "http://www.w3.org/Graphics/SVG/1.1/DTD/svg11.dtd">
<!-- Generated by graphviz version 9.0.0 (20231125.0833)
 -->
<!-- Title: ReactionRateModelParamsPalandriKharaka::Mechanism Pages: 1 -->
<svg width="194pt" height="172pt"
 viewBox="0.00 0.00 194.25 171.75" xmlns="http://www.w3.org/2000/svg" xmlns:xlink="http://www.w3.org/1999/xlink">
<g id="graph0" class="graph" transform="scale(1 1) rotate(0) translate(4 167.75)">
<title>ReactionRateModelParamsPalandriKharaka::Mechanism</title>
<!-- Node1 -->
<g id="node1" class="node">
<title>Node1</title>
<g id="a_node1"><a xlink:title="The parameters for a mineral reaction rate mechanism of">
<polygon fill="#bfbfbf" stroke="black" points="0,-0.5 0,-34 186.25,-34 186.25,-0.5 0,-0.5"/>
<text text-anchor="start" x="8" y="-20.5" font-family="Helvetica,sans-Serif" font-size="10.00">ReactionRateModelParamsPalandri</text>
<text text-anchor="middle" x="93.12" y="-7.75" font-family="Helvetica,sans-Serif" font-size="10.00">Kharaka::Mechanism</text>
</a>
</g>
</g>
<!-- Node2 -->
<g id="node2" class="node">
<title>Node2</title>
<g id="a_node2"><a xlink:title=" ">
<polygon fill="none" stroke="#bfbfbf" points="71.25,-83.75 71.25,-104.5 115,-104.5 115,-83.75 71.25,-83.75"/>
<text text-anchor="middle" x="93.12" y="-91" font-family="Helvetica,sans-Serif" font-size="10.00">string</text>
</a>
</g>
</g>
<!-- Node2&#45;&gt;Node1 -->
<g id="edge1" class="edge">
<title>Node2&#45;&gt;Node1</title>
<path fill="none" stroke="#9a32cd" stroke-dasharray="5,2" d="M93.12,-72.15C93.12,-60.17 93.12,-45.39 93.12,-34.34"/>
<polygon fill="#9a32cd" stroke="#9a32cd" points="89.63,-71.82 93.13,-81.82 96.63,-71.82 89.63,-71.82"/>
<text text-anchor="middle" x="108.5" y="-55.75" font-family="Helvetica,sans-Serif" font-size="10.00"> name</text>
</g>
<!-- Node3 -->
<g id="node3" class="node">
<title>Node3</title>
<g id="a_node3"><a xlink:title=" ">
<polygon fill="none" stroke="#bfbfbf" points="33.38,-142.5 33.38,-163.25 152.88,-163.25 152.88,-142.5 33.38,-142.5"/>
<text text-anchor="middle" x="93.12" y="-149.75" font-family="Helvetica,sans-Serif" font-size="10.00">basic_string&lt; Char &gt;</text>
</a>
</g>
</g>
<!-- Node3&#45;&gt;Node2 -->
<g id="edge2" class="edge">
<title>Node3&#45;&gt;Node2</title>
<path fill="none" stroke="midnightblue" d="M93.12,-130.81C93.12,-121.97 93.12,-112.1 93.12,-104.99"/>
<polygon fill="midnightblue" stroke="midnightblue" points="89.63,-130.73 93.13,-140.73 96.63,-130.73 89.63,-130.73"/>
</g>
</g>
</svg>
