<?xml version="1.0" encoding="UTF-8" standalone="no"?>
<!DOCTYPE svg PUBLIC "-//W3C//DTD SVG 1.1//EN"
 "http://www.w3.org/Graphics/SVG/1.1/DTD/svg11.dtd">
<!-- Generated by graphviz version 8.0.5 (20230506.1012)
 -->
<!-- Title: Substance Pages: 1 -->
<svg width="154pt" height="185pt"
 viewBox="0.00 0.00 154.12 184.50" xmlns="http://www.w3.org/2000/svg" xmlns:xlink="http://www.w3.org/1999/xlink">
<g id="graph0" class="graph" transform="scale(1 1) rotate(0) translate(4 180.5)">
<title>Substance</title>
<!-- Node1 -->
<g id="node1" class="node">
<title>Node1</title>
<g id="a_node1"><a xlink:title="The attributes of a substance in a fluid phase required by a cubic equation of state.">
<polygon fill="#bfbfbf" stroke="black" points="18.25,-0.5 18.25,-21.25 84.5,-21.25 84.5,-0.5 18.25,-0.5"/>
<text text-anchor="middle" x="51.38" y="-7.75" font-family="Helvetica,sans-Serif" font-size="10.00">Substance</text>
</a>
</g>
</g>
<!-- Node2 -->
<g id="node2" class="node">
<title>Node2</title>
<g id="a_node2"><a xlink:href="classReaktoro_1_1Param.html" target="_top" xlink:title="A type used to represent the value of a parameter and its lower and upper bounds.">
<polygon fill="none" stroke="black" points="0,-96.5 0,-117.25 46.75,-117.25 46.75,-96.5 0,-96.5"/>
<text text-anchor="middle" x="23.38" y="-103.75" font-family="Helvetica,sans-Serif" font-size="10.00">Param</text>
</a>
</g>
</g>
<!-- Node2&#45;&gt;Node1 -->
<g id="edge1" class="edge">
<title>Node2&#45;&gt;Node1</title>
<path fill="none" stroke="#9a32cd" stroke-dasharray="5,2" d="M21.45,-86C20.9,-72.48 21.67,-54.44 27.62,-39.75 30.49,-32.68 35.89,-26.11 40.81,-21.13"/>
<polygon fill="#9a32cd" stroke="#9a32cd" points="18.03,-86.2 22.22,-95.93 25.01,-85.7 18.03,-86.2"/>
<text text-anchor="middle" x="45.25" y="-68.5" font-family="Helvetica,sans-Serif" font-size="10.00"> Pcr</text>
<text text-anchor="middle" x="45.25" y="-55.75" font-family="Helvetica,sans-Serif" font-size="10.00">Tcr</text>
<text text-anchor="middle" x="45.25" y="-43" font-family="Helvetica,sans-Serif" font-size="10.00">omega</text>
</g>
<!-- Node3 -->
<g id="node3" class="node">
<title>Node3</title>
<g id="a_node3"><a xlink:title=" ">
<polygon fill="none" stroke="#bfbfbf" points="64.5,-96.5 64.5,-117.25 108.25,-117.25 108.25,-96.5 64.5,-96.5"/>
<text text-anchor="middle" x="86.38" y="-103.75" font-family="Helvetica,sans-Serif" font-size="10.00">string</text>
</a>
</g>
</g>
<!-- Node3&#45;&gt;Node1 -->
<g id="edge2" class="edge">
<title>Node3&#45;&gt;Node1</title>
<path fill="none" stroke="#9a32cd" stroke-dasharray="5,2" d="M79.12,-86.4C71.7,-66.45 60.47,-36.3 54.84,-21.19"/>
<polygon fill="#9a32cd" stroke="#9a32cd" points="76.12,-87.37 82.89,-95.52 82.68,-84.93 76.12,-87.37"/>
<text text-anchor="middle" x="96" y="-55.75" font-family="Helvetica,sans-Serif" font-size="10.00"> formula</text>
</g>
<!-- Node4 -->
<g id="node4" class="node">
<title>Node4</title>
<g id="a_node4"><a xlink:title=" ">
<polygon fill="none" stroke="#bfbfbf" points="26.62,-155.25 26.62,-176 146.12,-176 146.12,-155.25 26.62,-155.25"/>
<text text-anchor="middle" x="86.38" y="-162.5" font-family="Helvetica,sans-Serif" font-size="10.00">basic_string&lt; Char &gt;</text>
</a>
</g>
</g>
<!-- Node4&#45;&gt;Node3 -->
<g id="edge3" class="edge">
<title>Node4&#45;&gt;Node3</title>
<path fill="none" stroke="midnightblue" d="M86.38,-144.45C86.38,-135.1 86.38,-124.46 86.38,-117.07"/>
<polygon fill="midnightblue" stroke="midnightblue" points="82.88,-144.25 86.38,-154.25 89.88,-144.25 82.88,-144.25"/>
</g>
</g>
</svg>
