<?xml version="1.0" encoding="UTF-8" standalone="no"?>
<!DOCTYPE svg PUBLIC "-//W3C//DTD SVG 1.1//EN"
 "http://www.w3.org/Graphics/SVG/1.1/DTD/svg11.dtd">
<!-- Generated by graphviz version 7.1.0 (20230122.1345)
 -->
<!-- Title: PhreeqcWaterProps Pages: 1 -->
<svg width="320pt" height="95pt"
 viewBox="0.00 0.00 320.00 95.00" xmlns="http://www.w3.org/2000/svg" xmlns:xlink="http://www.w3.org/1999/xlink">
<g id="graph0" class="graph" transform="scale(1 1) rotate(0) translate(4 91)">
<title>PhreeqcWaterProps</title>
<!-- Node1 -->
<g id="node1" class="node">
<title>Node1</title>
<g id="a_node1"><a xlink:title="The thermodynamic and electrostatic properties of water computed in PHREEQC.">
<polygon fill="#bfbfbf" stroke="black" points="99,-0.5 99,-19.5 210,-19.5 210,-0.5 99,-0.5"/>
<text text-anchor="middle" x="154.5" y="-7.5" font-family="Helvetica,sans-Serif" font-size="10.00">PhreeqcWaterProps</text>
</a>
</g>
</g>
<!-- Node2 -->
<g id="node2" class="node">
<title>Node2</title>
<g id="a_node2"><a xlink:href="structReaktoro_1_1PhreeqcUtils_1_1PhreeqcWaterElectroProps.html" target="_top" xlink:title="The electrostatic properties of water computed in PHREEQC.">
<polygon fill="none" stroke="black" points="0,-67.5 0,-86.5 145,-86.5 145,-67.5 0,-67.5"/>
<text text-anchor="middle" x="72.5" y="-74.5" font-family="Helvetica,sans-Serif" font-size="10.00">PhreeqcWaterElectroProps</text>
</a>
</g>
</g>
<!-- Node2&#45;&gt;Node1 -->
<g id="edge1" class="edge">
<title>Node2&#45;&gt;Node1</title>
<path fill="none" stroke="#9a32cd" stroke-dasharray="5,2" d="M91.92,-60.61C108.13,-47.76 130.64,-29.91 143.78,-19.5"/>
<polygon fill="#9a32cd" stroke="#9a32cd" points="90.07,-57.61 84.41,-66.56 94.42,-63.09 90.07,-57.61"/>
<text text-anchor="middle" x="130.5" y="-41" font-family="Helvetica,sans-Serif" font-size="10.00"> wep</text>
</g>
<!-- Node3 -->
<g id="node3" class="node">
<title>Node3</title>
<g id="a_node3"><a xlink:href="structReaktoro_1_1PhreeqcUtils_1_1PhreeqcWaterThermoProps.html" target="_top" xlink:title="The thermodynamic properties of water computed in PHREEQC.">
<polygon fill="none" stroke="black" points="163,-67.5 163,-86.5 312,-86.5 312,-67.5 163,-67.5"/>
<text text-anchor="middle" x="237.5" y="-74.5" font-family="Helvetica,sans-Serif" font-size="10.00">PhreeqcWaterThermoProps</text>
</a>
</g>
</g>
<!-- Node3&#45;&gt;Node1 -->
<g id="edge2" class="edge">
<title>Node3&#45;&gt;Node1</title>
<path fill="none" stroke="#9a32cd" stroke-dasharray="5,2" d="M217.84,-60.61C201.43,-47.76 178.65,-29.91 165.35,-19.5"/>
<polygon fill="#9a32cd" stroke="#9a32cd" points="215.43,-63.16 225.46,-66.57 219.74,-57.65 215.43,-63.16"/>
<text text-anchor="middle" x="211.5" y="-41" font-family="Helvetica,sans-Serif" font-size="10.00"> wtp</text>
</g>
</g>
</svg>
