<?xml version="1.0" encoding="UTF-8" standalone="no"?>
<!DOCTYPE svg PUBLIC "-//W3C//DTD SVG 1.1//EN"
 "http://www.w3.org/Graphics/SVG/1.1/DTD/svg11.dtd">
<!-- Generated by graphviz version 8.1.0 (20230707.2238)
 -->
<!-- Title: SmartKineticsResult Pages: 1 -->
<!--zoomable 135 -->
<svg id="main" version="1.1" xmlns="http://www.w3.org/2000/svg" xmlns:xlink="http://www.w3.org/1999/xlink" xml:space="preserve" onload="init(evt)">
<style type="text/css"><![CDATA[
.edge:hover path { stroke: red; }
.edge:hover polygon { stroke: red; fill: red; }
]]></style>
<script type="text/javascript"><![CDATA[
var edges = document.getElementsByTagName('g');
if (edges && edges.length) {
  for (var i=0;i<edges.length;i++) {
    if (edges[i].id.substr(0,4)=='edge') {
      edges[i].setAttribute('class','edge');
    }
  }
}
]]></script>
        <defs>
                <circle id="rim" cx="0" cy="0" r="7"/>
                <circle id="rim2" cx="0" cy="0" r="3.5"/>
                <g id="zoomPlus">
                        <use xlink:href="#rim" fill="#404040">
                                <set attributeName="fill" to="#808080" begin="zoomplus.mouseover" end="zoomplus.mouseout"/>
                        </use>
                        <path d="M-4,0h8M0,-4v8" fill="none" stroke="white" stroke-width="1.5" pointer-events="none"/>
                </g>
                <g id="zoomMin">
                        <use xlink:href="#rim" fill="#404040">
                                <set attributeName="fill" to="#808080" begin="zoomminus.mouseover" end="zoomminus.mouseout"/>
                        </use>
                        <path d="M-4,0h8" fill="none" stroke="white" stroke-width="1.5" pointer-events="none"/>
                </g>
                <g id="dirArrow">
                        <path fill="none" stroke="white" stroke-width="1.5" d="M0,-3.0v7 M-2.5,-0.5L0,-3.0L2.5,-0.5"/>
                </g>
               <g id="resetDef">
                       <use xlink:href="#rim2" fill="#404040">
                               <set attributeName="fill" to="#808080" begin="reset.mouseover" end="reset.mouseout"/>
                       </use>
               </g>
        </defs>

<script type="text/javascript">
var viewWidth = 937;
var viewHeight = 135;
var sectionId = 'dynsection-0';
</script>
<script xlink:href="svgpan.js"/>
<svg id="graph" class="graph">
<g id="viewport">
<title>SmartKineticsResult</title>
<!-- Node1 -->
<g id="node1" class="node">
<title>Node1</title>
<g id="a_node1"><a xlink:title="Used to describe the result of a smart chemical kinetics calculation.">
<polygon fill="#bfbfbf" stroke="black" points="813.75,-46.5 813.75,-67.25 928.75,-67.25 928.75,-46.5 813.75,-46.5"/>
<text text-anchor="middle" x="871.25" y="-53.75" font-family="Helvetica,sans-Serif" font-size="10.00">SmartKineticsResult</text>
</a>
</g>
</g>
<!-- Node2 -->
<g id="node2" class="node">
<title>Node2</title>
<g id="a_node2"><a xlink:href="structReaktoro_1_1SmartEquilibriumResult.html" target="_top" xlink:title="Used to describe the result of a smart chemical equilibrium calculation.">
<polygon fill="none" stroke="black" points="645.25,-46.5 645.25,-67.25 776.75,-67.25 776.75,-46.5 645.25,-46.5"/>
<text text-anchor="middle" x="711" y="-53.75" font-family="Helvetica,sans-Serif" font-size="10.00">SmartEquilibriumResult</text>
</a>
</g>
</g>
<!-- Node2&#45;&gt;Node1 -->
<g id="edge1" class="edge">
<title>Node2&#45;&gt;Node1</title>
<path fill="none" stroke="midnightblue" d="M787.22,-56.88C796.17,-56.88 805.19,-56.88 813.82,-56.88"/>
<polygon fill="midnightblue" stroke="midnightblue" points="787.37,-53.38 777.37,-56.88 787.37,-60.38 787.37,-53.38"/>
</g>
<!-- Node3 -->
<g id="node3" class="node">
<title>Node3</title>
<g id="a_node3"><a xlink:href="structReaktoro_1_1SmartEquilibriumResultDuringPrediction.html" target="_top" xlink:title="Used to represent the result of a prediction operation in a smart chemical equilibrium calculation.">
<polygon fill="none" stroke="black" points="393.75,-93.12 393.75,-126.62 557.5,-126.62 557.5,-93.12 393.75,-93.12"/>
<text text-anchor="start" x="401.75" y="-113.12" font-family="Helvetica,sans-Serif" font-size="10.00">SmartEquilibriumResultDuring</text>
<text text-anchor="middle" x="475.62" y="-100.38" font-family="Helvetica,sans-Serif" font-size="10.00">Prediction</text>
</a>
</g>
</g>
<!-- Node3&#45;&gt;Node2 -->
<g id="edge2" class="edge">
<title>Node3&#45;&gt;Node2</title>
<path fill="none" stroke="#9a32cd" stroke-dasharray="5,2" d="M560.83,-90.75C595.76,-82.82 634.9,-73.93 664.32,-67.25"/>
<polygon fill="#9a32cd" stroke="#9a32cd" points="560.12,-87.55 551.15,-93.18 561.67,-94.38 560.12,-87.55"/>
<text text-anchor="middle" x="601.38" y="-90.12" font-family="Helvetica,sans-Serif" font-size="10.00"> prediction</text>
</g>
<!-- Node4 -->
<g id="node4" class="node">
<title>Node4</title>
<g id="a_node4"><a xlink:title=" ">
<polygon fill="none" stroke="#bfbfbf" points="185.75,-99.5 185.75,-120.25 229.5,-120.25 229.5,-99.5 185.75,-99.5"/>
<text text-anchor="middle" x="207.62" y="-106.75" font-family="Helvetica,sans-Serif" font-size="10.00">string</text>
</a>
</g>
</g>
<!-- Node4&#45;&gt;Node3 -->
<g id="edge3" class="edge">
<title>Node4&#45;&gt;Node3</title>
<path fill="none" stroke="#9a32cd" stroke-dasharray="5,2" d="M240.29,-109.88C277.96,-109.88 342.26,-109.88 393.98,-109.88"/>
<polygon fill="#9a32cd" stroke="#9a32cd" points="240.5,-106.38 230.5,-109.88 240.5,-113.38 240.5,-106.38"/>
<text text-anchor="middle" x="326.25" y="-113.12" font-family="Helvetica,sans-Serif" font-size="10.00"> failed_with_species</text>
</g>
<!-- Node5 -->
<g id="node5" class="node">
<title>Node5</title>
<g id="a_node5"><a xlink:title=" ">
<polygon fill="none" stroke="#bfbfbf" points="0,-99.5 0,-120.25 119.5,-120.25 119.5,-99.5 0,-99.5"/>
<text text-anchor="middle" x="59.75" y="-106.75" font-family="Helvetica,sans-Serif" font-size="10.00">basic_string&lt; Char &gt;</text>
</a>
</g>
</g>
<!-- Node5&#45;&gt;Node4 -->
<g id="edge4" class="edge">
<title>Node5&#45;&gt;Node4</title>
<path fill="none" stroke="midnightblue" d="M130.15,-109.88C150.51,-109.88 171.24,-109.88 185.97,-109.88"/>
<polygon fill="midnightblue" stroke="midnightblue" points="130.24,-106.38 120.24,-109.88 130.24,-113.38 130.24,-106.38"/>
</g>
<!-- Node6 -->
<g id="node6" class="node">
<title>Node6</title>
<g id="a_node6"><a xlink:href="structReaktoro_1_1SmartEquilibriumResultDuringLearning.html" target="_top" xlink:title="Used to represent the result of a learning operation in a smart chemical equilibrium calculation.">
<polygon fill="none" stroke="black" points="393.75,-40.12 393.75,-73.62 557.5,-73.62 557.5,-40.12 393.75,-40.12"/>
<text text-anchor="start" x="401.75" y="-60.12" font-family="Helvetica,sans-Serif" font-size="10.00">SmartEquilibriumResultDuring</text>
<text text-anchor="middle" x="475.62" y="-47.38" font-family="Helvetica,sans-Serif" font-size="10.00">Learning</text>
</a>
</g>
</g>
<!-- Node6&#45;&gt;Node2 -->
<g id="edge5" class="edge">
<title>Node6&#45;&gt;Node2</title>
<path fill="none" stroke="#9a32cd" stroke-dasharray="5,2" d="M568.22,-56.88C594.07,-56.88 621.65,-56.88 645.54,-56.88"/>
<polygon fill="#9a32cd" stroke="#9a32cd" points="568.27,-53.38 558.27,-56.88 568.27,-60.38 568.27,-53.38"/>
<text text-anchor="middle" x="601.38" y="-60.12" font-family="Helvetica,sans-Serif" font-size="10.00"> learning</text>
</g>
<!-- Node7 -->
<g id="node7" class="node">
<title>Node7</title>
<g id="a_node7"><a xlink:href="structReaktoro_1_1EquilibriumResult.html" target="_top" xlink:title="A type used to describe the result of an equilibrium calculation.">
<polygon fill="none" stroke="black" points="156.5,-46.5 156.5,-67.25 258.75,-67.25 258.75,-46.5 156.5,-46.5"/>
<text text-anchor="middle" x="207.62" y="-53.75" font-family="Helvetica,sans-Serif" font-size="10.00">EquilibriumResult</text>
</a>
</g>
</g>
<!-- Node7&#45;&gt;Node6 -->
<g id="edge6" class="edge">
<title>Node7&#45;&gt;Node6</title>
<path fill="none" stroke="#9a32cd" stroke-dasharray="5,2" d="M269.27,-56.88C306.22,-56.88 353.87,-56.88 393.97,-56.88"/>
<polygon fill="#9a32cd" stroke="#9a32cd" points="269.66,-53.38 259.66,-56.88 269.66,-60.38 269.66,-53.38"/>
<text text-anchor="middle" x="326.25" y="-60.12" font-family="Helvetica,sans-Serif" font-size="10.00"> solve</text>
</g>
<!-- Node8 -->
<g id="node8" class="node">
<title>Node8</title>
<g id="a_node8"><a xlink:href="structReaktoro_1_1SmartEquilibriumTiming.html" target="_top" xlink:title="Used to provide timing information of the operations during a smart chemical equilibrium calculation.">
<polygon fill="none" stroke="black" points="408.38,-0.5 408.38,-21.25 542.88,-21.25 542.88,-0.5 408.38,-0.5"/>
<text text-anchor="middle" x="475.62" y="-7.75" font-family="Helvetica,sans-Serif" font-size="10.00">SmartEquilibriumTiming</text>
</a>
</g>
</g>
<!-- Node8&#45;&gt;Node2 -->
<g id="edge7" class="edge">
<title>Node8&#45;&gt;Node2</title>
<path fill="none" stroke="#9a32cd" stroke-dasharray="5,2" d="M541.07,-23.27C567.75,-28.44 599,-34.52 627.25,-40.12 637.6,-42.18 648.68,-44.4 659.25,-46.54"/>
<polygon fill="#9a32cd" stroke="#9a32cd" points="541.81,-19.66 531.32,-21.2 540.48,-26.53 541.81,-19.66"/>
<text text-anchor="middle" x="601.38" y="-44.12" font-family="Helvetica,sans-Serif" font-size="10.00"> timing</text>
</g>
</g>
</svg>
        <g id="navigator" transform="translate(0 0)" fill="#404254">
                <rect fill="#f2f5e9" fill-opacity="0.5" stroke="#606060" stroke-width=".5" x="0" y="0" width="60" height="60"/>
                <use id="zoomplus" xlink:href="#zoomPlus" x="17" y="9" onmousedown="handleZoom(evt,'in')"/>
                <use id="zoomminus" xlink:href="#zoomMin" x="42" y="9" onmousedown="handleZoom(evt,'out')"/>
                <use id="reset" xlink:href="#resetDef" x="30" y="36" onmousedown="handleReset()"/>
                <g id="arrowUp" xlink:href="#dirArrow" transform="translate(30 24)" onmousedown="handlePan(0,-1)">
                  <use xlink:href="#rim" fill="#404040">
                        <set attributeName="fill" to="#808080" begin="arrowUp.mouseover" end="arrowUp.mouseout"/>
                  </use>
                  <path fill="none" stroke="white" stroke-width="1.5" d="M0,-3.0v7 M-2.5,-0.5L0,-3.0L2.5,-0.5"/>
                </g>
                <g id="arrowRight" xlink:href="#dirArrow" transform="rotate(90) translate(36 -43)" onmousedown="handlePan(1,0)">
                  <use xlink:href="#rim" fill="#404040">
                        <set attributeName="fill" to="#808080" begin="arrowRight.mouseover" end="arrowRight.mouseout"/>
                  </use>
                  <path fill="none" stroke="white" stroke-width="1.5" d="M0,-3.0v7 M-2.5,-0.5L0,-3.0L2.5,-0.5"/>
                </g>
                <g id="arrowDown" xlink:href="#dirArrow" transform="rotate(180) translate(-30 -48)" onmousedown="handlePan(0,1)">
                  <use xlink:href="#rim" fill="#404040">
                        <set attributeName="fill" to="#808080" begin="arrowDown.mouseover" end="arrowDown.mouseout"/>
                  </use>
                  <path fill="none" stroke="white" stroke-width="1.5" d="M0,-3.0v7 M-2.5,-0.5L0,-3.0L2.5,-0.5"/>
                </g>
                <g id="arrowLeft" xlink:href="#dirArrow" transform="rotate(270) translate(-36 17)" onmousedown="handlePan(-1,0)">
                  <use xlink:href="#rim" fill="#404040">
                        <set attributeName="fill" to="#808080" begin="arrowLeft.mouseover" end="arrowLeft.mouseout"/>
                  </use>
                  <path fill="none" stroke="white" stroke-width="1.5" d="M0,-3.0v7 M-2.5,-0.5L0,-3.0L2.5,-0.5"/>
                </g>
        </g>
        <svg viewBox="0 0 15 15" width="100%" height="30px" preserveAspectRatio="xMaxYMin meet">
         <g id="arrow_out" transform="scale(0.3 0.3)">
          <a xlink:href="structReaktoro_1_1SmartKineticsResult__coll__graph_org.svg" target="_base">
           <rect id="button" ry="5" rx="5" y="6" x="6" height="38" width="38"
                fill="#f2f5e9" fill-opacity="0.5" stroke="#606060" stroke-width="1.0"/>
           <path id="arrow"
             d="M 11.500037,31.436501 C 11.940474,20.09759 22.043105,11.32322 32.158766,21.979434 L 37.068811,17.246167 C 37.068811,17.246167 37.088388,32 37.088388,32 L 22.160133,31.978069 C 22.160133,31.978069 26.997745,27.140456 26.997745,27.140456 C 18.528582,18.264221 13.291696,25.230495 11.500037,31.436501 z"
             style="fill:#404040;"/>
          </a>
         </g>
        </svg>
</svg>
