<?xml version="1.0" encoding="UTF-8" standalone="no"?>
<!DOCTYPE svg PUBLIC "-//W3C//DTD SVG 1.1//EN"
 "http://www.w3.org/Graphics/SVG/1.1/DTD/svg11.dtd">
<!-- Generated by graphviz version 8.0.5 (20230506.1012)
 -->
<!-- Title: isArrayAux&lt; Eigen::VectorBlock&lt; Vec, Size &gt; &gt; Pages: 1 -->
<svg width="159pt" height="171pt"
 viewBox="0.00 0.00 159.00 170.75" xmlns="http://www.w3.org/2000/svg" xmlns:xlink="http://www.w3.org/1999/xlink">
<g id="graph0" class="graph" transform="scale(1 1) rotate(0) translate(4 166.75)">
<title>isArrayAux&lt; Eigen::VectorBlock&lt; Vec, Size &gt; &gt;</title>
<!-- Node1 -->
<g id="node1" class="node">
<title>Node1</title>
<g id="a_node1"><a xlink:title=" ">
<polygon fill="#bfbfbf" stroke="black" points="0,-0.5 0,-34 151,-34 151,-0.5 0,-0.5"/>
<text text-anchor="start" x="8" y="-20.5" font-family="Helvetica,sans-Serif" font-size="10.00">isArrayAux&lt; Eigen::</text>
<text text-anchor="middle" x="75.5" y="-7.75" font-family="Helvetica,sans-Serif" font-size="10.00">VectorBlock&lt; Vec, Size &gt; &gt;</text>
</a>
</g>
</g>
<!-- Node2 -->
<g id="node2" class="node">
<title>Node2</title>
<g id="a_node2"><a xlink:href="structReaktoro_1_1detail_1_1isArrayAux.html" target="_top" xlink:title=" ">
<polygon fill="none" stroke="black" points="15.75,-71 15.75,-104.5 135.25,-104.5 135.25,-71 15.75,-71"/>
<text text-anchor="start" x="23.75" y="-91" font-family="Helvetica,sans-Serif" font-size="10.00">isArrayAux&lt; Decay&lt;</text>
<text text-anchor="middle" x="75.5" y="-78.25" font-family="Helvetica,sans-Serif" font-size="10.00"> Vec &gt; &gt;</text>
</a>
</g>
</g>
<!-- Node2&#45;&gt;Node1 -->
<g id="edge1" class="edge">
<title>Node2&#45;&gt;Node1</title>
<path fill="none" stroke="midnightblue" d="M75.5,-60.4C75.5,-51.39 75.5,-41.6 75.5,-33.73"/>
<polygon fill="midnightblue" stroke="midnightblue" points="72,-60.21 75.5,-70.21 79,-60.21 72,-60.21"/>
</g>
<!-- Node3 -->
<g id="node3" class="node">
<title>Node3</title>
<g id="a_node3"><a xlink:title=" ">
<polygon fill="none" stroke="#bfbfbf" points="42,-141.5 42,-162.25 109,-162.25 109,-141.5 42,-141.5"/>
<text text-anchor="middle" x="75.5" y="-148.75" font-family="Helvetica,sans-Serif" font-size="10.00">false_type</text>
</a>
</g>
</g>
<!-- Node3&#45;&gt;Node2 -->
<g id="edge2" class="edge">
<title>Node3&#45;&gt;Node2</title>
<path fill="none" stroke="midnightblue" d="M75.5,-130.73C75.5,-122.12 75.5,-112.24 75.5,-104.22"/>
<polygon fill="midnightblue" stroke="midnightblue" points="72,-130.71 75.5,-140.71 79,-130.71 72,-130.71"/>
</g>
</g>
</svg>
