<?xml version="1.0" encoding="UTF-8" standalone="no"?>
<!DOCTYPE svg PUBLIC "-//W3C//DTD SVG 1.1//EN"
 "http://www.w3.org/Graphics/SVG/1.1/DTD/svg11.dtd">
<!-- Generated by graphviz version 7.1.0 (20230122.1345)
 -->
<!-- Title: BipModelArgs Pages: 1 -->
<svg width="108pt" height="162pt"
 viewBox="0.00 0.00 108.00 162.00" xmlns="http://www.w3.org/2000/svg" xmlns:xlink="http://www.w3.org/1999/xlink">
<g id="graph0" class="graph" transform="scale(1 1) rotate(0) translate(4 158)">
<title>BipModelArgs</title>
<!-- Node1 -->
<g id="node1" class="node">
<title>Node1</title>
<g id="a_node1"><a xlink:title="The arguments for the evaluation of binary interaction parameters in a cubic equation of state.">
<polygon fill="#bfbfbf" stroke="black" points="0,-0.5 0,-19.5 84,-19.5 84,-0.5 0,-0.5"/>
<text text-anchor="middle" x="42" y="-7.5" font-family="Helvetica,sans-Serif" font-size="10.00">BipModelArgs</text>
</a>
</g>
</g>
<!-- Node2 -->
<g id="node2" class="node">
<title>Node2</title>
<g id="a_node2"><a xlink:title=" ">
<polygon fill="none" stroke="#bfbfbf" points="4,-67.5 4,-86.5 80,-86.5 80,-67.5 4,-67.5"/>
<text text-anchor="middle" x="42" y="-74.5" font-family="Helvetica,sans-Serif" font-size="10.00">vector&lt; T &gt;</text>
</a>
</g>
</g>
<!-- Node2&#45;&gt;Node1 -->
<g id="edge1" class="edge">
<title>Node2&#45;&gt;Node1</title>
<path fill="none" stroke="#9a32cd" stroke-dasharray="5,2" d="M42,-56.04C42,-43.7 42,-28.5 42,-19.29"/>
<polygon fill="#9a32cd" stroke="#9a32cd" points="38.5,-55.99 42,-65.99 45.5,-55.99 38.5,-55.99"/>
<text text-anchor="middle" x="71" y="-41" font-family="Helvetica,sans-Serif" font-size="10.00"> substances</text>
</g>
<!-- Node3 -->
<g id="node3" class="node">
<title>Node3</title>
<g id="a_node3"><a xlink:title=" ">
<polygon fill="none" stroke="#bfbfbf" points="27.5,-134.5 27.5,-153.5 56.5,-153.5 56.5,-134.5 27.5,-134.5"/>
<text text-anchor="middle" x="42" y="-141.5" font-family="Helvetica,sans-Serif" font-size="10.00">T</text>
</a>
</g>
</g>
<!-- Node3&#45;&gt;Node2 -->
<g id="edge2" class="edge">
<title>Node3&#45;&gt;Node2</title>
<path fill="none" stroke="#9a32cd" stroke-dasharray="5,2" d="M42,-123.04C42,-110.7 42,-95.5 42,-86.29"/>
<polygon fill="#9a32cd" stroke="#9a32cd" points="38.5,-122.99 42,-132.99 45.5,-122.99 38.5,-122.99"/>
<text text-anchor="middle" x="66.5" y="-108" font-family="Helvetica,sans-Serif" font-size="10.00"> elements</text>
</g>
</g>
</svg>
