<?xml version="1.0" encoding="UTF-8" standalone="no"?>
<!DOCTYPE svg PUBLIC "-//W3C//DTD SVG 1.1//EN"
 "http://www.w3.org/Graphics/SVG/1.1/DTD/svg11.dtd">
<!-- Generated by graphviz version 8.1.0 (20230707.2238)
 -->
<!-- Title: Species::Attribs Pages: 1 -->
<svg width="682pt" height="236pt"
 viewBox="0.00 0.00 682.00 236.12" xmlns="http://www.w3.org/2000/svg" xmlns:xlink="http://www.w3.org/1999/xlink">
<g id="graph0" class="graph" transform="scale(1 1) rotate(0) translate(4 232.12)">
<title>Species::Attribs</title>
<!-- Node1 -->
<g id="node1" class="node">
<title>Node1</title>
<g id="a_node1"><a xlink:title="The attributes of a Species object.">
<polygon fill="#bfbfbf" stroke="black" points="582.25,-99.88 582.25,-120.62 674,-120.62 674,-99.88 582.25,-99.88"/>
<text text-anchor="middle" x="628.12" y="-107.12" font-family="Helvetica,sans-Serif" font-size="10.00">Species::Attribs</text>
</a>
</g>
</g>
<!-- Node2 -->
<g id="node2" class="node">
<title>Node2</title>
<g id="a_node2"><a xlink:href="classReaktoro_1_1ElementalComposition.html" target="_top" xlink:title="A type used to describe the elemental composition of chemical species.">
<polygon fill="none" stroke="black" points="304.12,-206.88 304.12,-227.62 431.12,-227.62 431.12,-206.88 304.12,-206.88"/>
<text text-anchor="middle" x="367.62" y="-214.12" font-family="Helvetica,sans-Serif" font-size="10.00">ElementalComposition</text>
</a>
</g>
</g>
<!-- Node2&#45;&gt;Node1 -->
<g id="edge1" class="edge">
<title>Node2&#45;&gt;Node1</title>
<path fill="none" stroke="#9a32cd" stroke-dasharray="5,2" d="M441.49,-206.9C479.7,-199.38 526.31,-186.81 564.25,-166.25 586.36,-154.27 607.14,-133.11 618.4,-120.51"/>
<polygon fill="#9a32cd" stroke="#9a32cd" points="441.12,-203.59 431.95,-208.89 442.42,-210.47 441.12,-203.59"/>
<text text-anchor="middle" x="516.25" y="-203.5" font-family="Helvetica,sans-Serif" font-size="10.00"> elements</text>
</g>
<!-- Node3 -->
<g id="node3" class="node">
<title>Node3</title>
<g id="a_node3"><a xlink:href="classReaktoro_1_1FormationReaction.html" target="_top" xlink:title="A class to represent a formation reaction of a chemical species.">
<polygon fill="none" stroke="black" points="313.5,-166.88 313.5,-187.62 421.75,-187.62 421.75,-166.88 313.5,-166.88"/>
<text text-anchor="middle" x="367.62" y="-174.12" font-family="Helvetica,sans-Serif" font-size="10.00">FormationReaction</text>
</a>
</g>
</g>
<!-- Node3&#45;&gt;Node1 -->
<g id="edge2" class="edge">
<title>Node3&#45;&gt;Node1</title>
<path fill="none" stroke="#9a32cd" stroke-dasharray="5,2" d="M418.85,-164.23C468.03,-151.48 541.98,-132.32 587.26,-120.58"/>
<polygon fill="#9a32cd" stroke="#9a32cd" points="418.25,-161.03 409.45,-166.93 420.01,-167.81 418.25,-161.03"/>
<text text-anchor="middle" x="516.25" y="-152.5" font-family="Helvetica,sans-Serif" font-size="10.00"> formation_reaction</text>
</g>
<!-- Node4 -->
<g id="node4" class="node">
<title>Node4</title>
<g id="a_node4"><a xlink:title=" ">
<polygon fill="none" stroke="#bfbfbf" points="156.5,-76.88 156.5,-97.62 200.25,-97.62 200.25,-76.88 156.5,-76.88"/>
<text text-anchor="middle" x="178.38" y="-84.12" font-family="Helvetica,sans-Serif" font-size="10.00">string</text>
</a>
</g>
</g>
<!-- Node4&#45;&gt;Node1 -->
<g id="edge3" class="edge">
<title>Node4&#45;&gt;Node1</title>
<path fill="none" stroke="#9a32cd" stroke-dasharray="5,2" d="M210.91,-95.09C213.38,-95.54 215.85,-95.93 218.25,-96.25 349.76,-113.56 506.98,-113.06 582.42,-111.53"/>
<polygon fill="#9a32cd" stroke="#9a32cd" points="211.73,-91.47 201.22,-92.86 210.3,-98.33 211.73,-91.47"/>
<text text-anchor="middle" x="367.62" y="-140" font-family="Helvetica,sans-Serif" font-size="10.00"> formula</text>
<text text-anchor="middle" x="367.62" y="-127.25" font-family="Helvetica,sans-Serif" font-size="10.00">name</text>
<text text-anchor="middle" x="367.62" y="-114.5" font-family="Helvetica,sans-Serif" font-size="10.00">substance</text>
</g>
<!-- Node7 -->
<g id="node7" class="node">
<title>Node7</title>
<g id="a_node7"><a xlink:title=" ">
<polygon fill="none" stroke="#bfbfbf" points="308.62,-52.88 308.62,-73.62 426.62,-73.62 426.62,-52.88 308.62,-52.88"/>
<text text-anchor="middle" x="367.62" y="-60.12" font-family="Helvetica,sans-Serif" font-size="10.00">vector&lt; std::string &gt;</text>
</a>
</g>
</g>
<!-- Node4&#45;&gt;Node7 -->
<g id="edge7" class="edge">
<title>Node4&#45;&gt;Node7</title>
<path fill="none" stroke="#9a32cd" stroke-dasharray="5,2" d="M210.74,-83.23C237.39,-79.81 276.35,-74.82 308.65,-70.68"/>
<polygon fill="#9a32cd" stroke="#9a32cd" points="210.6,-79.85 201.13,-84.59 211.49,-86.79 210.6,-79.85"/>
<text text-anchor="middle" x="242.62" y="-84.5" font-family="Helvetica,sans-Serif" font-size="10.00"> elements</text>
</g>
<!-- Node5 -->
<g id="node5" class="node">
<title>Node5</title>
<g id="a_node5"><a xlink:title=" ">
<polygon fill="none" stroke="#bfbfbf" points="0,-76.88 0,-97.62 119.5,-97.62 119.5,-76.88 0,-76.88"/>
<text text-anchor="middle" x="59.75" y="-84.12" font-family="Helvetica,sans-Serif" font-size="10.00">basic_string&lt; Char &gt;</text>
</a>
</g>
</g>
<!-- Node5&#45;&gt;Node4 -->
<g id="edge4" class="edge">
<title>Node5&#45;&gt;Node4</title>
<path fill="none" stroke="midnightblue" d="M130.32,-87.25C139.89,-87.25 149.03,-87.25 156.67,-87.25"/>
<polygon fill="midnightblue" stroke="midnightblue" points="130.4,-83.75 120.4,-87.25 130.4,-90.75 130.4,-83.75"/>
</g>
<!-- Node6 -->
<g id="node6" class="node">
<title>Node6</title>
<g id="a_node6"><a xlink:href="classReaktoro_1_1Model.html" target="_top" xlink:title=" ">
<polygon fill="none" stroke="black" points="285,-0.5 285,-34 450.25,-34 450.25,-0.5 285,-0.5"/>
<text text-anchor="start" x="293" y="-20.5" font-family="Helvetica,sans-Serif" font-size="10.00">Model&lt; StandardThermoProps</text>
<text text-anchor="middle" x="367.62" y="-7.75" font-family="Helvetica,sans-Serif" font-size="10.00">(real T, real P)&gt;</text>
</a>
</g>
</g>
<!-- Node6&#45;&gt;Node1 -->
<g id="edge5" class="edge">
<title>Node6&#45;&gt;Node1</title>
<path fill="none" stroke="#9a32cd" stroke-dasharray="5,2" d="M460.86,-21.68C494.75,-26.15 532.56,-34.64 564.25,-50.5 588.22,-62.5 609.25,-86.7 619.85,-100.33"/>
<polygon fill="#9a32cd" stroke="#9a32cd" points="461.35,-18.09 451.01,-20.36 460.51,-25.04 461.35,-18.09"/>
<text text-anchor="middle" x="516.25" y="-54.5" font-family="Helvetica,sans-Serif" font-size="10.00"> std_thermo_model</text>
</g>
<!-- Node7&#45;&gt;Node1 -->
<g id="edge6" class="edge">
<title>Node7&#45;&gt;Node1</title>
<path fill="none" stroke="#9a32cd" stroke-dasharray="5,2" d="M437.28,-65.34C475.2,-67.74 522.88,-72.82 564.25,-83.5 579.18,-87.36 595.16,-94.19 607.28,-99.99"/>
<polygon fill="#9a32cd" stroke="#9a32cd" points="437.53,-61.79 427.35,-64.7 437.13,-68.78 437.53,-61.79"/>
<text text-anchor="middle" x="516.25" y="-86.5" font-family="Helvetica,sans-Serif" font-size="10.00"> tags</text>
</g>
</g>
</svg>
