<?xml version="1.0" encoding="UTF-8" standalone="no"?>
<!DOCTYPE svg PUBLIC "-//W3C//DTD SVG 1.1//EN"
 "http://www.w3.org/Graphics/SVG/1.1/DTD/svg11.dtd">
<!-- Generated by graphviz version 8.1.0 (20230707.2238)
 -->
<!-- Title: ReactionRateModelParamsPalandriKharaka::Mechanism Pages: 1 -->
<svg width="199pt" height="210pt"
 viewBox="0.00 0.00 198.88 210.00" xmlns="http://www.w3.org/2000/svg" xmlns:xlink="http://www.w3.org/1999/xlink">
<g id="graph0" class="graph" transform="scale(1 1) rotate(0) translate(4 206)">
<title>ReactionRateModelParamsPalandriKharaka::Mechanism</title>
<!-- Node1 -->
<g id="node1" class="node">
<title>Node1</title>
<g id="a_node1"><a xlink:title="The parameters for a mineral reaction rate mechanism of">
<polygon fill="#bfbfbf" stroke="black" points="0,-0.5 0,-34 186.25,-34 186.25,-0.5 0,-0.5"/>
<text text-anchor="start" x="8" y="-20.5" font-family="Helvetica,sans-Serif" font-size="10.00">ReactionRateModelParamsPalandri</text>
<text text-anchor="middle" x="93.12" y="-7.75" font-family="Helvetica,sans-Serif" font-size="10.00">Kharaka::Mechanism</text>
</a>
</g>
</g>
<!-- Node2 -->
<g id="node2" class="node">
<title>Node2</title>
<g id="a_node2"><a xlink:href="classReaktoro_1_1Param.html" target="_top" xlink:title="A type used to represent the value of a parameter and its lower and upper bounds.">
<polygon fill="none" stroke="black" points="44.75,-122 44.75,-142.75 91.5,-142.75 91.5,-122 44.75,-122"/>
<text text-anchor="middle" x="68.12" y="-129.25" font-family="Helvetica,sans-Serif" font-size="10.00">Param</text>
</a>
</g>
</g>
<!-- Node2&#45;&gt;Node1 -->
<g id="edge1" class="edge">
<title>Node2&#45;&gt;Node1</title>
<path fill="none" stroke="#9a32cd" stroke-dasharray="5,2" d="M70.46,-111.28C72.56,-95.22 76.09,-72.22 81.12,-52.5 82.72,-46.27 84.94,-39.57 87.05,-33.76"/>
<polygon fill="#9a32cd" stroke="#9a32cd" points="66.88,-110.69 69.13,-121.04 73.83,-111.54 66.88,-110.69"/>
<text text-anchor="middle" x="88.62" y="-94" font-family="Helvetica,sans-Serif" font-size="10.00"> E</text>
<text text-anchor="middle" x="88.62" y="-81.25" font-family="Helvetica,sans-Serif" font-size="10.00">lgk</text>
<text text-anchor="middle" x="88.62" y="-68.5" font-family="Helvetica,sans-Serif" font-size="10.00">p</text>
<text text-anchor="middle" x="88.62" y="-55.75" font-family="Helvetica,sans-Serif" font-size="10.00">q</text>
</g>
<!-- Node3 -->
<g id="node3" class="node">
<title>Node3</title>
<g id="a_node3"><a xlink:title=" ">
<polygon fill="none" stroke="#bfbfbf" points="109.25,-122 109.25,-142.75 153,-142.75 153,-122 109.25,-122"/>
<text text-anchor="middle" x="131.12" y="-129.25" font-family="Helvetica,sans-Serif" font-size="10.00">string</text>
</a>
</g>
</g>
<!-- Node3&#45;&gt;Node1 -->
<g id="edge2" class="edge">
<title>Node3&#45;&gt;Node1</title>
<path fill="none" stroke="#9a32cd" stroke-dasharray="5,2" d="M124.59,-111.92C117.15,-89.76 105.13,-53.99 98.3,-33.67"/>
<polygon fill="#9a32cd" stroke="#9a32cd" points="121.51,-112.75 128.02,-121.12 128.15,-110.52 121.51,-112.75"/>
<text text-anchor="middle" x="135.5" y="-74.88" font-family="Helvetica,sans-Serif" font-size="10.00"> name</text>
</g>
<!-- Node4 -->
<g id="node4" class="node">
<title>Node4</title>
<g id="a_node4"><a xlink:title=" ">
<polygon fill="none" stroke="#bfbfbf" points="71.38,-180.75 71.38,-201.5 190.88,-201.5 190.88,-180.75 71.38,-180.75"/>
<text text-anchor="middle" x="131.12" y="-188" font-family="Helvetica,sans-Serif" font-size="10.00">basic_string&lt; Char &gt;</text>
</a>
</g>
</g>
<!-- Node4&#45;&gt;Node3 -->
<g id="edge3" class="edge">
<title>Node4&#45;&gt;Node3</title>
<path fill="none" stroke="midnightblue" d="M131.12,-169.95C131.12,-160.6 131.12,-149.96 131.12,-142.57"/>
<polygon fill="midnightblue" stroke="midnightblue" points="127.63,-169.75 131.12,-179.75 134.63,-169.75 127.63,-169.75"/>
</g>
</g>
</svg>
