<?xml version="1.0" encoding="UTF-8" standalone="no"?>
<!DOCTYPE svg PUBLIC "-//W3C//DTD SVG 1.1//EN"
 "http://www.w3.org/Graphics/SVG/1.1/DTD/svg11.dtd">
<!-- Generated by graphviz version 8.0.5 (20230506.1012)
 -->
<!-- Title: PhreeqcWaterProps Pages: 1 -->
<svg width="318pt" height="100pt"
 viewBox="0.00 0.00 318.12 100.25" xmlns="http://www.w3.org/2000/svg" xmlns:xlink="http://www.w3.org/1999/xlink">
<g id="graph0" class="graph" transform="scale(1 1) rotate(0) translate(4 96.25)">
<title>PhreeqcWaterProps</title>
<!-- Node1 -->
<g id="node1" class="node">
<title>Node1</title>
<g id="a_node1"><a xlink:title="The thermodynamic and electrostatic properties of water computed in PHREEQC.">
<polygon fill="#bfbfbf" stroke="black" points="98.88,-0.5 98.88,-21.25 209.38,-21.25 209.38,-0.5 98.88,-0.5"/>
<text text-anchor="middle" x="154.12" y="-7.75" font-family="Helvetica,sans-Serif" font-size="10.00">PhreeqcWaterProps</text>
</a>
</g>
</g>
<!-- Node2 -->
<g id="node2" class="node">
<title>Node2</title>
<g id="a_node2"><a xlink:href="structReaktoro_1_1PhreeqcUtils_1_1PhreeqcWaterElectroProps.html" target="_top" xlink:title="The electrostatic properties of water computed in PHREEQC.">
<polygon fill="none" stroke="black" points="0,-71 0,-91.75 144.25,-91.75 144.25,-71 0,-71"/>
<text text-anchor="middle" x="72.12" y="-78.25" font-family="Helvetica,sans-Serif" font-size="10.00">PhreeqcWaterElectroProps</text>
</a>
</g>
</g>
<!-- Node2&#45;&gt;Node1 -->
<g id="edge1" class="edge">
<title>Node2&#45;&gt;Node1</title>
<path fill="none" stroke="#9a32cd" stroke-dasharray="5,2" d="M91.36,-64.31C107.41,-50.9 129.73,-32.25 142.98,-21.19"/>
<polygon fill="#9a32cd" stroke="#9a32cd" points="89.61,-62.04 84.18,-71.14 94.1,-67.41 89.61,-62.04"/>
<text text-anchor="middle" x="132.75" y="-43" font-family="Helvetica,sans-Serif" font-size="10.00"> wep</text>
</g>
<!-- Node3 -->
<g id="node3" class="node">
<title>Node3</title>
<g id="a_node3"><a xlink:href="structReaktoro_1_1PhreeqcUtils_1_1PhreeqcWaterThermoProps.html" target="_top" xlink:title="The thermodynamic properties of water computed in PHREEQC.">
<polygon fill="none" stroke="black" points="162.12,-71 162.12,-91.75 310.12,-91.75 310.12,-71 162.12,-71"/>
<text text-anchor="middle" x="236.12" y="-78.25" font-family="Helvetica,sans-Serif" font-size="10.00">PhreeqcWaterThermoProps</text>
</a>
</g>
</g>
<!-- Node3&#45;&gt;Node1 -->
<g id="edge2" class="edge">
<title>Node3&#45;&gt;Node1</title>
<path fill="none" stroke="#9a32cd" stroke-dasharray="5,2" d="M216.89,-64.31C200.84,-50.9 178.52,-32.25 165.27,-21.19"/>
<polygon fill="#9a32cd" stroke="#9a32cd" points="214.15,-67.41 224.07,-71.14 218.64,-62.04 214.15,-67.41"/>
<text text-anchor="middle" x="212.62" y="-43" font-family="Helvetica,sans-Serif" font-size="10.00"> wtp</text>
</g>
</g>
</svg>
