<?xml version="1.0" encoding="UTF-8" standalone="no"?>
<!DOCTYPE svg PUBLIC "-//W3C//DTD SVG 1.1//EN"
 "http://www.w3.org/Graphics/SVG/1.1/DTD/svg11.dtd">
<!-- Generated by graphviz version 7.1.0 (20230122.1345)
 -->
<!-- Title: Exception Pages: 1 -->
<svg width="290pt" height="402pt"
 viewBox="0.00 0.00 289.50 402.00" xmlns="http://www.w3.org/2000/svg" xmlns:xlink="http://www.w3.org/1999/xlink">
<g id="graph0" class="graph" transform="scale(1 1) rotate(0) translate(4 398)">
<title>Exception</title>
<!-- Node1 -->
<g id="node1" class="node">
<title>Node1</title>
<g id="a_node1"><a xlink:title="Provides a convenient way to initialized an exception with helpful error messages.">
<polygon fill="#bfbfbf" stroke="black" points="106.5,-0.5 106.5,-19.5 171.5,-19.5 171.5,-0.5 106.5,-0.5"/>
<text text-anchor="middle" x="139" y="-7.5" font-family="Helvetica,sans-Serif" font-size="10.00">Exception</text>
</a>
</g>
</g>
<!-- Node2 -->
<g id="node2" class="node">
<title>Node2</title>
<g id="a_node2"><a xlink:title=" ">
<polygon fill="none" stroke="#bfbfbf" points="99.5,-78.5 99.5,-97.5 178.5,-97.5 178.5,-78.5 99.5,-78.5"/>
<text text-anchor="middle" x="139" y="-85.5" font-family="Helvetica,sans-Serif" font-size="10.00">stringstream</text>
</a>
</g>
</g>
<!-- Node2&#45;&gt;Node1 -->
<g id="edge1" class="edge">
<title>Node2&#45;&gt;Node1</title>
<path fill="none" stroke="#9a32cd" stroke-dasharray="5,2" d="M139,-67.51C139,-51.88 139,-30.71 139,-19.23"/>
<polygon fill="#9a32cd" stroke="#9a32cd" points="135.5,-67.06 139,-77.06 142.5,-67.06 135.5,-67.06"/>
<text text-anchor="middle" x="156" y="-52" font-family="Helvetica,sans-Serif" font-size="10.00"> error</text>
<text text-anchor="middle" x="156" y="-41" font-family="Helvetica,sans-Serif" font-size="10.00">reason</text>
</g>
<!-- Node3 -->
<g id="node3" class="node">
<title>Node3</title>
<g id="a_node3"><a xlink:title=" ">
<polygon fill="none" stroke="#bfbfbf" points="84,-135.5 84,-165.5 194,-165.5 194,-135.5 84,-135.5"/>
<text text-anchor="start" x="92" y="-153.5" font-family="Helvetica,sans-Serif" font-size="10.00">basic_stringstream</text>
<text text-anchor="middle" x="139" y="-142.5" font-family="Helvetica,sans-Serif" font-size="10.00">&lt; Char &gt;</text>
</a>
</g>
</g>
<!-- Node3&#45;&gt;Node2 -->
<g id="edge2" class="edge">
<title>Node3&#45;&gt;Node2</title>
<path fill="none" stroke="midnightblue" d="M139,-124.55C139,-114.81 139,-104.32 139,-97.28"/>
<polygon fill="midnightblue" stroke="midnightblue" points="135.5,-124.26 139,-134.26 142.5,-124.26 135.5,-124.26"/>
</g>
<!-- Node4 -->
<g id="node4" class="node">
<title>Node4</title>
<g id="a_node4"><a xlink:title=" ">
<polygon fill="none" stroke="#bfbfbf" points="71,-203.5 71,-222.5 207,-222.5 207,-203.5 71,-203.5"/>
<text text-anchor="middle" x="139" y="-210.5" font-family="Helvetica,sans-Serif" font-size="10.00">basic_iostream&lt; Char &gt;</text>
</a>
</g>
</g>
<!-- Node4&#45;&gt;Node3 -->
<g id="edge3" class="edge">
<title>Node4&#45;&gt;Node3</title>
<path fill="none" stroke="midnightblue" d="M139,-192.13C139,-183.39 139,-173.34 139,-165.42"/>
<polygon fill="midnightblue" stroke="midnightblue" points="135.5,-192.07 139,-202.07 142.5,-192.07 135.5,-192.07"/>
</g>
<!-- Node5 -->
<g id="node5" class="node">
<title>Node5</title>
<g id="a_node5"><a xlink:title=" ">
<polygon fill="none" stroke="#bfbfbf" points="0,-260.5 0,-279.5 130,-279.5 130,-260.5 0,-260.5"/>
<text text-anchor="middle" x="65" y="-267.5" font-family="Helvetica,sans-Serif" font-size="10.00">basic_istream&lt; Char &gt;</text>
</a>
</g>
</g>
<!-- Node5&#45;&gt;Node4 -->
<g id="edge4" class="edge">
<title>Node5&#45;&gt;Node4</title>
<path fill="none" stroke="midnightblue" d="M85.35,-253.88C98.98,-243.74 116.42,-230.78 127.66,-222.43"/>
<polygon fill="midnightblue" stroke="midnightblue" points="83.39,-250.97 77.45,-259.74 87.57,-256.59 83.39,-250.97"/>
</g>
<!-- Node6 -->
<g id="node6" class="node">
<title>Node6</title>
<g id="a_node6"><a xlink:title=" ">
<polygon fill="none" stroke="#bfbfbf" points="85.5,-317.5 85.5,-336.5 192.5,-336.5 192.5,-317.5 85.5,-317.5"/>
<text text-anchor="middle" x="139" y="-324.5" font-family="Helvetica,sans-Serif" font-size="10.00">basic_ios&lt; Char &gt;</text>
</a>
</g>
</g>
<!-- Node6&#45;&gt;Node5 -->
<g id="edge5" class="edge">
<title>Node6&#45;&gt;Node5</title>
<path fill="none" stroke="midnightblue" d="M118.65,-310.88C105.02,-300.74 87.58,-287.78 76.34,-279.43"/>
<polygon fill="midnightblue" stroke="midnightblue" points="116.43,-313.59 126.55,-316.74 120.61,-307.97 116.43,-313.59"/>
</g>
<!-- Node8 -->
<g id="node8" class="node">
<title>Node8</title>
<g id="a_node8"><a xlink:title=" ">
<polygon fill="none" stroke="#bfbfbf" points="148.5,-260.5 148.5,-279.5 281.5,-279.5 281.5,-260.5 148.5,-260.5"/>
<text text-anchor="middle" x="215" y="-267.5" font-family="Helvetica,sans-Serif" font-size="10.00">basic_ostream&lt; Char &gt;</text>
</a>
</g>
</g>
<!-- Node6&#45;&gt;Node8 -->
<g id="edge8" class="edge">
<title>Node6&#45;&gt;Node8</title>
<path fill="none" stroke="midnightblue" d="M159.49,-311.17C173.55,-301 191.7,-287.86 203.35,-279.43"/>
<polygon fill="midnightblue" stroke="midnightblue" points="157.82,-308.06 151.77,-316.76 161.92,-313.73 157.82,-308.06"/>
</g>
<!-- Node7 -->
<g id="node7" class="node">
<title>Node7</title>
<g id="a_node7"><a xlink:title=" ">
<polygon fill="none" stroke="#bfbfbf" points="109.5,-374.5 109.5,-393.5 168.5,-393.5 168.5,-374.5 109.5,-374.5"/>
<text text-anchor="middle" x="139" y="-381.5" font-family="Helvetica,sans-Serif" font-size="10.00">ios_base</text>
</a>
</g>
</g>
<!-- Node7&#45;&gt;Node6 -->
<g id="edge6" class="edge">
<title>Node7&#45;&gt;Node6</title>
<path fill="none" stroke="midnightblue" d="M139,-363.39C139,-354.02 139,-343.31 139,-336.15"/>
<polygon fill="midnightblue" stroke="midnightblue" points="135.5,-363.37 139,-373.37 142.5,-363.37 135.5,-363.37"/>
</g>
<!-- Node8&#45;&gt;Node4 -->
<g id="edge7" class="edge">
<title>Node8&#45;&gt;Node4</title>
<path fill="none" stroke="midnightblue" d="M194.51,-254.17C180.45,-244 162.3,-230.86 150.65,-222.43"/>
<polygon fill="midnightblue" stroke="midnightblue" points="192.08,-256.73 202.23,-259.76 196.18,-251.06 192.08,-256.73"/>
</g>
</g>
</svg>
