<?xml version="1.0" encoding="UTF-8" standalone="no"?>
<!DOCTYPE svg PUBLIC "-//W3C//DTD SVG 1.1//EN"
 "http://www.w3.org/Graphics/SVG/1.1/DTD/svg11.dtd">
<!-- Generated by graphviz version 9.0.0 (20231125.0833)
 -->
<!-- Title: ReactivityConstraint Pages: 1 -->
<svg width="128pt" height="159pt"
 viewBox="0.00 0.00 127.50 159.00" xmlns="http://www.w3.org/2000/svg" xmlns:xlink="http://www.w3.org/1999/xlink">
<g id="graph0" class="graph" transform="scale(1 1) rotate(0) translate(4 155)">
<title>ReactivityConstraint</title>
<!-- Node1 -->
<g id="node1" class="node">
<title>Node1</title>
<g id="a_node1"><a xlink:title="Used to define reactivity restrictions among species in the chemical equilibrium calculation.">
<polygon fill="#bfbfbf" stroke="black" points="1.88,-0.5 1.88,-21.25 117.62,-21.25 117.62,-0.5 1.88,-0.5"/>
<text text-anchor="middle" x="59.75" y="-7.75" font-family="Helvetica,sans-Serif" font-size="10.00">ReactivityConstraint</text>
</a>
</g>
</g>
<!-- Node2 -->
<g id="node2" class="node">
<title>Node2</title>
<g id="a_node2"><a xlink:title=" ">
<polygon fill="none" stroke="#bfbfbf" points="37.88,-71 37.88,-91.75 81.62,-91.75 81.62,-71 37.88,-71"/>
<text text-anchor="middle" x="59.75" y="-78.25" font-family="Helvetica,sans-Serif" font-size="10.00">string</text>
</a>
</g>
</g>
<!-- Node2&#45;&gt;Node1 -->
<g id="edge1" class="edge">
<title>Node2&#45;&gt;Node1</title>
<path fill="none" stroke="#9a32cd" stroke-dasharray="5,2" d="M59.75,-59.26C59.75,-46.73 59.75,-31.43 59.75,-21.67"/>
<polygon fill="#9a32cd" stroke="#9a32cd" points="56.25,-59.05 59.75,-69.05 63.25,-59.05 56.25,-59.05"/>
<text text-anchor="middle" x="65.75" y="-43" font-family="Helvetica,sans-Serif" font-size="10.00"> id</text>
</g>
<!-- Node3 -->
<g id="node3" class="node">
<title>Node3</title>
<g id="a_node3"><a xlink:title=" ">
<polygon fill="none" stroke="#bfbfbf" points="0,-129.75 0,-150.5 119.5,-150.5 119.5,-129.75 0,-129.75"/>
<text text-anchor="middle" x="59.75" y="-137" font-family="Helvetica,sans-Serif" font-size="10.00">basic_string&lt; Char &gt;</text>
</a>
</g>
</g>
<!-- Node3&#45;&gt;Node2 -->
<g id="edge2" class="edge">
<title>Node3&#45;&gt;Node2</title>
<path fill="none" stroke="midnightblue" d="M59.75,-118.06C59.75,-109.22 59.75,-99.35 59.75,-92.24"/>
<polygon fill="midnightblue" stroke="midnightblue" points="56.25,-117.98 59.75,-127.98 63.25,-117.98 56.25,-117.98"/>
</g>
</g>
</svg>
