<?xml version="1.0" encoding="UTF-8" standalone="no"?>
<!DOCTYPE svg PUBLIC "-//W3C//DTD SVG 1.1//EN"
 "http://www.w3.org/Graphics/SVG/1.1/DTD/svg11.dtd">
<!-- Generated by graphviz version 7.1.0 (20230122.1345)
 -->
<!-- Title: Species::Attribs Pages: 1 -->
<svg width="685pt" height="223pt"
 viewBox="0.00 0.00 685.00 222.50" xmlns="http://www.w3.org/2000/svg" xmlns:xlink="http://www.w3.org/1999/xlink">
<g id="graph0" class="graph" transform="scale(1 1) rotate(0) translate(4 218.5)">
<title>Species::Attribs</title>
<!-- Node1 -->
<g id="node1" class="node">
<title>Node1</title>
<g id="a_node1"><a xlink:title="The attributes of a Species object.">
<polygon fill="#bfbfbf" stroke="black" points="585,-96 585,-115 677,-115 677,-96 585,-96"/>
<text text-anchor="middle" x="631" y="-103" font-family="Helvetica,sans-Serif" font-size="10.00">Species::Attribs</text>
</a>
</g>
</g>
<!-- Node2 -->
<g id="node2" class="node">
<title>Node2</title>
<g id="a_node2"><a xlink:href="classReaktoro_1_1ElementalComposition.html" target="_top" xlink:title="A type used to describe the elemental composition of chemical species.">
<polygon fill="none" stroke="black" points="305,-195 305,-214 433,-214 433,-195 305,-195"/>
<text text-anchor="middle" x="369" y="-202" font-family="Helvetica,sans-Serif" font-size="10.00">ElementalComposition</text>
</a>
</g>
</g>
<!-- Node2&#45;&gt;Node1 -->
<g id="edge1" class="edge">
<title>Node2&#45;&gt;Node1</title>
<path fill="none" stroke="#9a32cd" stroke-dasharray="5,2" d="M443.84,-194.06C482.02,-186.73 528.54,-174.7 567,-155.5 588.49,-144.77 609.54,-125.89 621.04,-114.65"/>
<polygon fill="#9a32cd" stroke="#9a32cd" points="443.48,-190.56 434.28,-195.82 444.75,-197.45 443.48,-190.56"/>
<text text-anchor="middle" x="518.5" y="-190.5" font-family="Helvetica,sans-Serif" font-size="10.00"> elements</text>
</g>
<!-- Node3 -->
<g id="node3" class="node">
<title>Node3</title>
<g id="a_node3"><a xlink:href="classReaktoro_1_1FormationReaction.html" target="_top" xlink:title="A class to represent a formation reaction of a chemical species.">
<polygon fill="none" stroke="black" points="314.5,-157 314.5,-176 423.5,-176 423.5,-157 314.5,-157"/>
<text text-anchor="middle" x="369" y="-164" font-family="Helvetica,sans-Serif" font-size="10.00">FormationReaction</text>
</a>
</g>
</g>
<!-- Node3&#45;&gt;Node1 -->
<g id="edge2" class="edge">
<title>Node3&#45;&gt;Node1</title>
<path fill="none" stroke="#9a32cd" stroke-dasharray="5,2" d="M421.41,-154.44C470.75,-142.86 544.27,-125.61 589.57,-114.99"/>
<polygon fill="#9a32cd" stroke="#9a32cd" points="420.75,-151 411.81,-156.69 422.35,-157.81 420.75,-151"/>
<text text-anchor="middle" x="518.5" y="-143.5" font-family="Helvetica,sans-Serif" font-size="10.00"> formation_reaction</text>
</g>
<!-- Node4 -->
<g id="node4" class="node">
<title>Node4</title>
<g id="a_node4"><a xlink:title=" ">
<polygon fill="none" stroke="#bfbfbf" points="157,-73 157,-92 201,-92 201,-73 157,-73"/>
<text text-anchor="middle" x="179" y="-80" font-family="Helvetica,sans-Serif" font-size="10.00">string</text>
</a>
</g>
</g>
<!-- Node4&#45;&gt;Node1 -->
<g id="edge3" class="edge">
<title>Node4&#45;&gt;Node1</title>
<path fill="none" stroke="#9a32cd" stroke-dasharray="5,2" d="M211.92,-90.39C214.31,-90.82 216.69,-91.2 219,-91.5 351.2,-108.84 509.24,-108.33 585.07,-106.79"/>
<polygon fill="#9a32cd" stroke="#9a32cd" points="212.9,-87.02 202.4,-88.41 211.48,-93.87 212.9,-87.02"/>
<text text-anchor="middle" x="369" y="-131.5" font-family="Helvetica,sans-Serif" font-size="10.00"> formula</text>
<text text-anchor="middle" x="369" y="-120.5" font-family="Helvetica,sans-Serif" font-size="10.00">name</text>
<text text-anchor="middle" x="369" y="-109.5" font-family="Helvetica,sans-Serif" font-size="10.00">substance</text>
</g>
<!-- Node7 -->
<g id="node7" class="node">
<title>Node7</title>
<g id="a_node7"><a xlink:title=" ">
<polygon fill="none" stroke="#bfbfbf" points="309.5,-50 309.5,-69 428.5,-69 428.5,-50 309.5,-50"/>
<text text-anchor="middle" x="369" y="-57" font-family="Helvetica,sans-Serif" font-size="10.00">vector&lt; std::string &gt;</text>
</a>
</g>
</g>
<!-- Node4&#45;&gt;Node7 -->
<g id="edge7" class="edge">
<title>Node4&#45;&gt;Node7</title>
<path fill="none" stroke="#9a32cd" stroke-dasharray="5,2" d="M212.21,-78.56C238.95,-75.29 277.65,-70.55 309.79,-66.62"/>
<polygon fill="#9a32cd" stroke="#9a32cd" points="211.84,-75.08 202.34,-79.77 212.69,-82.03 211.84,-75.08"/>
<text text-anchor="middle" x="243.5" y="-80.5" font-family="Helvetica,sans-Serif" font-size="10.00"> elements</text>
</g>
<!-- Node5 -->
<g id="node5" class="node">
<title>Node5</title>
<g id="a_node5"><a xlink:title=" ">
<polygon fill="none" stroke="#bfbfbf" points="0,-73 0,-92 120,-92 120,-73 0,-73"/>
<text text-anchor="middle" x="60" y="-80" font-family="Helvetica,sans-Serif" font-size="10.00">basic_string&lt; Char &gt;</text>
</a>
</g>
</g>
<!-- Node5&#45;&gt;Node4 -->
<g id="edge4" class="edge">
<title>Node5&#45;&gt;Node4</title>
<path fill="none" stroke="midnightblue" d="M131.11,-82.5C140.59,-82.5 149.65,-82.5 157.23,-82.5"/>
<polygon fill="midnightblue" stroke="midnightblue" points="131.36,-79 121.36,-82.5 131.36,-86 131.36,-79"/>
</g>
<!-- Node6 -->
<g id="node6" class="node">
<title>Node6</title>
<g id="a_node6"><a xlink:href="classReaktoro_1_1Model.html" target="_top" xlink:title=" ">
<polygon fill="none" stroke="black" points="286,-0.5 286,-30.5 452,-30.5 452,-0.5 286,-0.5"/>
<text text-anchor="start" x="294" y="-18.5" font-family="Helvetica,sans-Serif" font-size="10.00">Model&lt; StandardThermoProps</text>
<text text-anchor="middle" x="369" y="-7.5" font-family="Helvetica,sans-Serif" font-size="10.00">(real T, real P)&gt;</text>
</a>
</g>
</g>
<!-- Node6&#45;&gt;Node1 -->
<g id="edge5" class="edge">
<title>Node6&#45;&gt;Node1</title>
<path fill="none" stroke="#9a32cd" stroke-dasharray="5,2" d="M463.05,-20.88C497.04,-25.55 534.97,-34.08 567,-49.5 590.47,-60.8 611.76,-83.46 622.55,-96.22"/>
<polygon fill="#9a32cd" stroke="#9a32cd" points="463.55,-17.41 453.19,-19.62 462.67,-24.36 463.55,-17.41"/>
<text text-anchor="middle" x="518.5" y="-52.5" font-family="Helvetica,sans-Serif" font-size="10.00"> std_thermo_model</text>
</g>
<!-- Node7&#45;&gt;Node1 -->
<g id="edge6" class="edge">
<title>Node7&#45;&gt;Node1</title>
<path fill="none" stroke="#9a32cd" stroke-dasharray="5,2" d="M439.95,-62.33C477.96,-65.02 525.54,-70.27 567,-80.5 581.97,-84.19 598.11,-90.65 610.31,-96.08"/>
<polygon fill="#9a32cd" stroke="#9a32cd" points="440.19,-58.84 429.98,-61.67 439.73,-65.82 440.19,-58.84"/>
<text text-anchor="middle" x="518.5" y="-83.5" font-family="Helvetica,sans-Serif" font-size="10.00"> tags</text>
</g>
</g>
</svg>
