<?xml version="1.0" encoding="UTF-8" standalone="no"?>
<!DOCTYPE svg PUBLIC "-//W3C//DTD SVG 1.1//EN"
 "http://www.w3.org/Graphics/SVG/1.1/DTD/svg11.dtd">
<!-- Generated by graphviz version 6.0.1 (20220911.2005)
 -->
<!-- Title: ReactionRateModelParamsPalandriKharaka Pages: 1 -->
<svg width="264pt" height="230pt"
 viewBox="0.00 0.00 264.00 230.00" xmlns="http://www.w3.org/2000/svg" xmlns:xlink="http://www.w3.org/1999/xlink">
<g id="graph0" class="graph" transform="scale(1 1) rotate(0) translate(4 226)">
<title>ReactionRateModelParamsPalandriKharaka</title>
<!-- Node1 -->
<g id="node1" class="node">
<title>Node1</title>
<g id="a_node1"><a xlink:title="The parameters in the reaction rate model of &#160;dissolution/precipitation kinetics of minerals.">
<polygon fill="#bfbfbf" stroke="black" points="0,-0.5 0,-30.5 187,-30.5 187,-0.5 0,-0.5"/>
<text text-anchor="start" x="8" y="-18.5" font-family="Helvetica,sans-Serif" font-size="10.00">ReactionRateModelParamsPalandri</text>
<text text-anchor="middle" x="93.5" y="-7.5" font-family="Helvetica,sans-Serif" font-size="10.00">Kharaka</text>
</a>
</g>
</g>
<!-- Node2 -->
<g id="node2" class="node">
<title>Node2</title>
<g id="a_node2"><a xlink:title=" ">
<polygon fill="none" stroke="#bfbfbf" points="71.5,-145.5 71.5,-164.5 115.5,-164.5 115.5,-145.5 71.5,-145.5"/>
<text text-anchor="middle" x="93.5" y="-152.5" font-family="Helvetica,sans-Serif" font-size="10.00">string</text>
</a>
</g>
</g>
<!-- Node2&#45;&gt;Node1 -->
<g id="edge1" class="edge">
<title>Node2&#45;&gt;Node1</title>
<path fill="none" stroke="#9a32cd" stroke-dasharray="5,2" d="M90.99,-135.29C89.66,-124.42 88.17,-110.46 87.5,-98 86.24,-74.34 89.17,-46.87 91.37,-30.62"/>
<polygon fill="#9a32cd" stroke="#9a32cd" points="87.53,-135.82 92.28,-145.29 94.47,-134.93 87.53,-135.82"/>
<text text-anchor="middle" x="108" y="-85.5" font-family="Helvetica,sans-Serif" font-size="10.00"> mineral</text>
</g>
<!-- Node4 -->
<g id="node4" class="node">
<title>Node4</title>
<g id="a_node4"><a xlink:title=" ">
<polygon fill="none" stroke="#bfbfbf" points="137,-78.5 137,-97.5 256,-97.5 256,-78.5 137,-78.5"/>
<text text-anchor="middle" x="196.5" y="-85.5" font-family="Helvetica,sans-Serif" font-size="10.00">vector&lt; std::string &gt;</text>
</a>
</g>
</g>
<!-- Node2&#45;&gt;Node4 -->
<g id="edge4" class="edge">
<title>Node2&#45;&gt;Node4</title>
<path fill="none" stroke="#9a32cd" stroke-dasharray="5,2" d="M116.05,-139.77C136.44,-126.9 165.79,-108.38 182.83,-97.63"/>
<polygon fill="#9a32cd" stroke="#9a32cd" points="113.98,-136.94 107.39,-145.23 117.72,-142.86 113.98,-136.94"/>
<text text-anchor="middle" x="175" y="-119" font-family="Helvetica,sans-Serif" font-size="10.00"> elements</text>
</g>
<!-- Node3 -->
<g id="node3" class="node">
<title>Node3</title>
<g id="a_node3"><a xlink:title=" ">
<polygon fill="none" stroke="#bfbfbf" points="33.5,-202.5 33.5,-221.5 153.5,-221.5 153.5,-202.5 33.5,-202.5"/>
<text text-anchor="middle" x="93.5" y="-209.5" font-family="Helvetica,sans-Serif" font-size="10.00">basic_string&lt; Char &gt;</text>
</a>
</g>
</g>
<!-- Node3&#45;&gt;Node2 -->
<g id="edge2" class="edge">
<title>Node3&#45;&gt;Node2</title>
<path fill="none" stroke="midnightblue" d="M93.5,-192.12C93.5,-182.82 93.5,-172.06 93.5,-164.71"/>
<polygon fill="midnightblue" stroke="midnightblue" points="90,-192.41 93.5,-202.41 97,-192.41 90,-192.41"/>
</g>
<!-- Node4&#45;&gt;Node1 -->
<g id="edge3" class="edge">
<title>Node4&#45;&gt;Node1</title>
<path fill="none" stroke="#9a32cd" stroke-dasharray="5,2" d="M175.26,-72.47C157.33,-60.19 131.81,-42.72 114.07,-30.58"/>
<polygon fill="#9a32cd" stroke="#9a32cd" points="173.64,-75.6 183.87,-78.36 177.59,-69.82 173.64,-75.6"/>
<text text-anchor="middle" x="184.5" y="-52" font-family="Helvetica,sans-Serif" font-size="10.00"> othernames</text>
</g>
</g>
</svg>
