<?xml version="1.0" encoding="UTF-8" standalone="no"?>
<!DOCTYPE svg PUBLIC "-//W3C//DTD SVG 1.1//EN"
 "http://www.w3.org/Graphics/SVG/1.1/DTD/svg11.dtd">
<!-- Generated by graphviz version 8.1.0 (20230707.2238)
 -->
<!-- Title: Exclude Pages: 1 -->
<svg width="128pt" height="230pt"
 viewBox="0.00 0.00 127.50 229.50" xmlns="http://www.w3.org/2000/svg" xmlns:xlink="http://www.w3.org/1999/xlink">
<g id="graph0" class="graph" transform="scale(1 1) rotate(0) translate(4 225.5)">
<title>Exclude</title>
<!-- Node1 -->
<g id="node1" class="node">
<title>Node1</title>
<g id="a_node1"><a xlink:title="The auxiliary type used to specify species that should be filtered out when contructing a phase.">
<polygon fill="#bfbfbf" stroke="black" points="32.62,-0.5 32.62,-21.25 86.88,-21.25 86.88,-0.5 32.62,-0.5"/>
<text text-anchor="middle" x="59.75" y="-7.75" font-family="Helvetica,sans-Serif" font-size="10.00">Exclude</text>
</a>
</g>
</g>
<!-- Node2 -->
<g id="node2" class="node">
<title>Node2</title>
<g id="a_node2"><a xlink:title=" ">
<polygon fill="none" stroke="#bfbfbf" points="0.75,-71 0.75,-91.75 118.75,-91.75 118.75,-71 0.75,-71"/>
<text text-anchor="middle" x="59.75" y="-78.25" font-family="Helvetica,sans-Serif" font-size="10.00">vector&lt; std::string &gt;</text>
</a>
</g>
</g>
<!-- Node2&#45;&gt;Node1 -->
<g id="edge1" class="edge">
<title>Node2&#45;&gt;Node1</title>
<path fill="none" stroke="#9a32cd" stroke-dasharray="5,2" d="M59.75,-60.39C59.75,-47.36 59.75,-30.97 59.75,-20.97"/>
<polygon fill="#9a32cd" stroke="#9a32cd" points="56.25,-60.14 59.75,-70.14 63.25,-60.14 56.25,-60.14"/>
<text text-anchor="middle" x="71.75" y="-43" font-family="Helvetica,sans-Serif" font-size="10.00"> tags</text>
</g>
<!-- Node3 -->
<g id="node3" class="node">
<title>Node3</title>
<g id="a_node3"><a xlink:title=" ">
<polygon fill="none" stroke="#bfbfbf" points="37.88,-141.5 37.88,-162.25 81.62,-162.25 81.62,-141.5 37.88,-141.5"/>
<text text-anchor="middle" x="59.75" y="-148.75" font-family="Helvetica,sans-Serif" font-size="10.00">string</text>
</a>
</g>
</g>
<!-- Node3&#45;&gt;Node2 -->
<g id="edge2" class="edge">
<title>Node3&#45;&gt;Node2</title>
<path fill="none" stroke="#9a32cd" stroke-dasharray="5,2" d="M59.75,-130.89C59.75,-117.86 59.75,-101.47 59.75,-91.47"/>
<polygon fill="#9a32cd" stroke="#9a32cd" points="56.25,-130.64 59.75,-140.64 63.25,-130.64 56.25,-130.64"/>
<text text-anchor="middle" x="84.12" y="-113.5" font-family="Helvetica,sans-Serif" font-size="10.00"> elements</text>
</g>
<!-- Node4 -->
<g id="node4" class="node">
<title>Node4</title>
<g id="a_node4"><a xlink:title=" ">
<polygon fill="none" stroke="#bfbfbf" points="0,-200.25 0,-221 119.5,-221 119.5,-200.25 0,-200.25"/>
<text text-anchor="middle" x="59.75" y="-207.5" font-family="Helvetica,sans-Serif" font-size="10.00">basic_string&lt; Char &gt;</text>
</a>
</g>
</g>
<!-- Node4&#45;&gt;Node3 -->
<g id="edge3" class="edge">
<title>Node4&#45;&gt;Node3</title>
<path fill="none" stroke="midnightblue" d="M59.75,-189.45C59.75,-180.1 59.75,-169.46 59.75,-162.07"/>
<polygon fill="midnightblue" stroke="midnightblue" points="56.25,-189.25 59.75,-199.25 63.25,-189.25 56.25,-189.25"/>
</g>
</g>
</svg>
