<?xml version="1.0" encoding="UTF-8" standalone="no"?>
<!DOCTYPE svg PUBLIC "-//W3C//DTD SVG 1.1//EN"
 "http://www.w3.org/Graphics/SVG/1.1/DTD/svg11.dtd">
<!-- Generated by graphviz version 9.0.0 (20231125.0833)
 -->
<!-- Title: SmartKineticsOptions Pages: 1 -->
<svg width="146pt" height="159pt"
 viewBox="0.00 0.00 146.25 159.00" xmlns="http://www.w3.org/2000/svg" xmlns:xlink="http://www.w3.org/1999/xlink">
<g id="graph0" class="graph" transform="scale(1 1) rotate(0) translate(4 155)">
<title>SmartKineticsOptions</title>
<!-- Node1 -->
<g id="node1" class="node">
<title>Node1</title>
<g id="a_node1"><a xlink:title="The options for smart chemical kinetics calculation.">
<polygon fill="#bfbfbf" stroke="black" points="8.25,-0.5 8.25,-21.25 130,-21.25 130,-0.5 8.25,-0.5"/>
<text text-anchor="middle" x="69.12" y="-7.75" font-family="Helvetica,sans-Serif" font-size="10.00">SmartKineticsOptions</text>
</a>
</g>
</g>
<!-- Node2 -->
<g id="node2" class="node">
<title>Node2</title>
<g id="a_node2"><a xlink:href="structReaktoro_1_1SmartEquilibriumOptions.html" target="_top" xlink:title="The options for the smart equilibrium calculations.">
<polygon fill="none" stroke="black" points="0,-59.25 0,-80 138.25,-80 138.25,-59.25 0,-59.25"/>
<text text-anchor="middle" x="69.12" y="-66.5" font-family="Helvetica,sans-Serif" font-size="10.00">SmartEquilibriumOptions</text>
</a>
</g>
</g>
<!-- Node2&#45;&gt;Node1 -->
<g id="edge1" class="edge">
<title>Node2&#45;&gt;Node1</title>
<path fill="none" stroke="midnightblue" d="M69.12,-47.56C69.12,-38.72 69.12,-28.85 69.12,-21.74"/>
<polygon fill="midnightblue" stroke="midnightblue" points="65.63,-47.48 69.13,-57.48 72.63,-47.48 65.63,-47.48"/>
</g>
<!-- Node3 -->
<g id="node3" class="node">
<title>Node3</title>
<g id="a_node3"><a xlink:href="structReaktoro_1_1EquilibriumOptions.html" target="_top" xlink:title="The options for the equilibrium calculations.">
<polygon fill="none" stroke="black" points="14.62,-129.75 14.62,-150.5 123.62,-150.5 123.62,-129.75 14.62,-129.75"/>
<text text-anchor="middle" x="69.12" y="-137" font-family="Helvetica,sans-Serif" font-size="10.00">EquilibriumOptions</text>
</a>
</g>
</g>
<!-- Node3&#45;&gt;Node2 -->
<g id="edge2" class="edge">
<title>Node3&#45;&gt;Node2</title>
<path fill="none" stroke="#9a32cd" stroke-dasharray="5,2" d="M69.12,-118.01C69.12,-105.48 69.12,-90.18 69.12,-80.42"/>
<polygon fill="#9a32cd" stroke="#9a32cd" points="65.63,-117.8 69.13,-127.8 72.63,-117.8 65.63,-117.8"/>
<text text-anchor="middle" x="90.5" y="-101.75" font-family="Helvetica,sans-Serif" font-size="10.00"> learning</text>
</g>
</g>
</svg>
