<?xml version="1.0" encoding="UTF-8" standalone="no"?>
<!DOCTYPE svg PUBLIC "-//W3C//DTD SVG 1.1//EN"
 "http://www.w3.org/Graphics/SVG/1.1/DTD/svg11.dtd">
<!-- Generated by graphviz version 6.0.1 (20220911.2005)
 -->
<!-- Title: SmartKineticsResult Pages: 1 -->
<!--zoomable 127 -->
<svg id="main" version="1.1" xmlns="http://www.w3.org/2000/svg" xmlns:xlink="http://www.w3.org/1999/xlink" xml:space="preserve" onload="init(evt)">
<style type="text/css"><![CDATA[
.edge:hover path { stroke: red; }
.edge:hover polygon { stroke: red; fill: red; }
]]></style>
<script type="text/javascript"><![CDATA[
var edges = document.getElementsByTagName('g');
if (edges && edges.length) {
  for (var i=0;i<edges.length;i++) {
    if (edges[i].id.substr(0,4)=='edge') {
      edges[i].setAttribute('class','edge');
    }
  }
}
]]></script>
        <defs>
                <circle id="rim" cx="0" cy="0" r="7"/>
                <circle id="rim2" cx="0" cy="0" r="3.5"/>
                <g id="zoomPlus">
                        <use xlink:href="#rim" fill="#404040">
                                <set attributeName="fill" to="#808080" begin="zoomplus.mouseover" end="zoomplus.mouseout"/>
                        </use>
                        <path d="M-4,0h8M0,-4v8" fill="none" stroke="white" stroke-width="1.5" pointer-events="none"/>
                </g>
                <g id="zoomMin">
                        <use xlink:href="#rim" fill="#404040">
                                <set attributeName="fill" to="#808080" begin="zoomminus.mouseover" end="zoomminus.mouseout"/>
                        </use>
                        <path d="M-4,0h8" fill="none" stroke="white" stroke-width="1.5" pointer-events="none"/>
                </g>
                <g id="dirArrow">
                        <path fill="none" stroke="white" stroke-width="1.5" d="M0,-3.0v7 M-2.5,-0.5L0,-3.0L2.5,-0.5"/>
                </g>
               <g id="resetDef">
                       <use xlink:href="#rim2" fill="#404040">
                               <set attributeName="fill" to="#808080" begin="reset.mouseover" end="reset.mouseout"/>
                       </use>
               </g>
        </defs>

<script type="text/javascript">
var viewWidth = 941;
var viewHeight = 127;
var sectionId = 'dynsection-0';
</script>
<script xlink:href="svgpan.js"/>
<svg id="graph" class="graph">
<g id="viewport">
<title>SmartKineticsResult</title>
<!-- Node1 -->
<g id="node1" class="node">
<title>Node1</title>
<g id="a_node1"><a xlink:title="Used to describe the result of a smart chemical kinetics calculation.">
<polygon fill="#bfbfbf" stroke="black" points="817,-44.5 817,-63.5 933,-63.5 933,-44.5 817,-44.5"/>
<text text-anchor="middle" x="875" y="-51.5" font-family="Helvetica,sans-Serif" font-size="10.00">SmartKineticsResult</text>
</a>
</g>
</g>
<!-- Node2 -->
<g id="node2" class="node">
<title>Node2</title>
<g id="a_node2"><a xlink:href="structReaktoro_1_1SmartEquilibriumResult.html" target="_top" xlink:title="Used to describe the result of a smart chemical equilibrium calculation.">
<polygon fill="none" stroke="black" points="648,-44.5 648,-63.5 780,-63.5 780,-44.5 648,-44.5"/>
<text text-anchor="middle" x="714" y="-51.5" font-family="Helvetica,sans-Serif" font-size="10.00">SmartEquilibriumResult</text>
</a>
</g>
</g>
<!-- Node2&#45;&gt;Node1 -->
<g id="edge1" class="edge">
<title>Node2&#45;&gt;Node1</title>
<path fill="none" stroke="midnightblue" d="M790.2,-54C799.17,-54 808.21,-54 816.87,-54"/>
<polygon fill="midnightblue" stroke="midnightblue" points="790.13,-50.5 780.13,-54 790.13,-57.5 790.13,-50.5"/>
</g>
<!-- Node3 -->
<g id="node3" class="node">
<title>Node3</title>
<g id="a_node3"><a xlink:href="structReaktoro_1_1SmartEquilibriumResultDuringPrediction.html" target="_top" xlink:title="Used to represent the result of a prediction operation in a smart chemical equilibrium calculation.">
<polygon fill="none" stroke="black" points="396,-88 396,-118 560,-118 560,-88 396,-88"/>
<text text-anchor="start" x="404" y="-106" font-family="Helvetica,sans-Serif" font-size="10.00">SmartEquilibriumResultDuring</text>
<text text-anchor="middle" x="478" y="-95" font-family="Helvetica,sans-Serif" font-size="10.00">Prediction</text>
</a>
</g>
</g>
<!-- Node3&#45;&gt;Node2 -->
<g id="edge2" class="edge">
<title>Node3&#45;&gt;Node2</title>
<path fill="none" stroke="#9a32cd" stroke-dasharray="5,2" d="M560.75,-85.88C596.55,-78.38 637.21,-69.87 667.5,-63.53"/>
<polygon fill="#9a32cd" stroke="#9a32cd" points="559.87,-82.49 550.8,-87.97 561.3,-89.34 559.87,-82.49"/>
<text text-anchor="middle" x="604" y="-85" font-family="Helvetica,sans-Serif" font-size="10.00"> prediction</text>
</g>
<!-- Node4 -->
<g id="node4" class="node">
<title>Node4</title>
<g id="a_node4"><a xlink:title=" ">
<polygon fill="none" stroke="#bfbfbf" points="186.5,-93.5 186.5,-112.5 230.5,-112.5 230.5,-93.5 186.5,-93.5"/>
<text text-anchor="middle" x="208.5" y="-100.5" font-family="Helvetica,sans-Serif" font-size="10.00">string</text>
</a>
</g>
</g>
<!-- Node4&#45;&gt;Node3 -->
<g id="edge3" class="edge">
<title>Node4&#45;&gt;Node3</title>
<path fill="none" stroke="#9a32cd" stroke-dasharray="5,2" d="M241.34,-103C279.23,-103 343.9,-103 395.92,-103"/>
<polygon fill="#9a32cd" stroke="#9a32cd" points="240.94,-99.5 230.94,-103 240.94,-106.5 240.94,-99.5"/>
<text text-anchor="middle" x="328" y="-106" font-family="Helvetica,sans-Serif" font-size="10.00"> failed_with_species</text>
</g>
<!-- Node5 -->
<g id="node5" class="node">
<title>Node5</title>
<g id="a_node5"><a xlink:title=" ">
<polygon fill="none" stroke="#bfbfbf" points="0,-93.5 0,-112.5 120,-112.5 120,-93.5 0,-93.5"/>
<text text-anchor="middle" x="60" y="-100.5" font-family="Helvetica,sans-Serif" font-size="10.00">basic_string&lt; Char &gt;</text>
</a>
</g>
</g>
<!-- Node5&#45;&gt;Node4 -->
<g id="edge4" class="edge">
<title>Node5&#45;&gt;Node4</title>
<path fill="none" stroke="midnightblue" d="M130.38,-103C150.67,-103 171.35,-103 186.18,-103"/>
<polygon fill="midnightblue" stroke="midnightblue" points="130.16,-99.5 120.16,-103 130.16,-106.5 130.16,-99.5"/>
</g>
<!-- Node6 -->
<g id="node6" class="node">
<title>Node6</title>
<g id="a_node6"><a xlink:href="structReaktoro_1_1SmartEquilibriumResultDuringLearning.html" target="_top" xlink:title="Used to represent the result of a learning operation in a smart chemical equilibrium calculation.">
<polygon fill="none" stroke="black" points="396,-39 396,-69 560,-69 560,-39 396,-39"/>
<text text-anchor="start" x="404" y="-57" font-family="Helvetica,sans-Serif" font-size="10.00">SmartEquilibriumResultDuring</text>
<text text-anchor="middle" x="478" y="-46" font-family="Helvetica,sans-Serif" font-size="10.00">Learning</text>
</a>
</g>
</g>
<!-- Node6&#45;&gt;Node2 -->
<g id="edge5" class="edge">
<title>Node6&#45;&gt;Node2</title>
<path fill="none" stroke="#9a32cd" stroke-dasharray="5,2" d="M570.37,-54C596.22,-54 623.83,-54 647.79,-54"/>
<polygon fill="#9a32cd" stroke="#9a32cd" points="570.19,-50.5 560.19,-54 570.19,-57.5 570.19,-50.5"/>
<text text-anchor="middle" x="604" y="-57" font-family="Helvetica,sans-Serif" font-size="10.00"> learning</text>
</g>
<!-- Node7 -->
<g id="node7" class="node">
<title>Node7</title>
<g id="a_node7"><a xlink:href="structReaktoro_1_1EquilibriumResult.html" target="_top" xlink:title="A type used to describe the result of an equilibrium calculation.">
<polygon fill="none" stroke="black" points="157,-44.5 157,-63.5 260,-63.5 260,-44.5 157,-44.5"/>
<text text-anchor="middle" x="208.5" y="-51.5" font-family="Helvetica,sans-Serif" font-size="10.00">EquilibriumResult</text>
</a>
</g>
</g>
<!-- Node7&#45;&gt;Node6 -->
<g id="edge6" class="edge">
<title>Node7&#45;&gt;Node6</title>
<path fill="none" stroke="#9a32cd" stroke-dasharray="5,2" d="M270.31,-54C307.46,-54 355.44,-54 395.81,-54"/>
<polygon fill="#9a32cd" stroke="#9a32cd" points="270.13,-50.5 260.13,-54 270.13,-57.5 270.13,-50.5"/>
<text text-anchor="middle" x="328" y="-57" font-family="Helvetica,sans-Serif" font-size="10.00"> solve</text>
</g>
<!-- Node8 -->
<g id="node8" class="node">
<title>Node8</title>
<g id="a_node8"><a xlink:href="structReaktoro_1_1SmartEquilibriumTiming.html" target="_top" xlink:title="Used to provide timing information of the operations during a smart chemical equilibrium calculation.">
<polygon fill="none" stroke="black" points="410.5,-0.5 410.5,-19.5 545.5,-19.5 545.5,-0.5 410.5,-0.5"/>
<text text-anchor="middle" x="478" y="-7.5" font-family="Helvetica,sans-Serif" font-size="10.00">SmartEquilibriumTiming</text>
</a>
</g>
</g>
<!-- Node8&#45;&gt;Node2 -->
<g id="edge7" class="edge">
<title>Node8&#45;&gt;Node2</title>
<path fill="none" stroke="#9a32cd" stroke-dasharray="5,2" d="M539.72,-21.42C577.8,-28.58 626.32,-37.7 662.32,-44.47"/>
<polygon fill="#9a32cd" stroke="#9a32cd" points="540.25,-17.96 529.77,-19.55 538.96,-24.84 540.25,-17.96"/>
<text text-anchor="middle" x="604" y="-41" font-family="Helvetica,sans-Serif" font-size="10.00"> timing</text>
</g>
</g>
</svg>
        <g id="navigator" transform="translate(0 0)" fill="#404254">
                <rect fill="#f2f5e9" fill-opacity="0.5" stroke="#606060" stroke-width=".5" x="0" y="0" width="60" height="60"/>
                <use id="zoomplus" xlink:href="#zoomPlus" x="17" y="9" onmousedown="handleZoom(evt,'in')"/>
                <use id="zoomminus" xlink:href="#zoomMin" x="42" y="9" onmousedown="handleZoom(evt,'out')"/>
                <use id="reset" xlink:href="#resetDef" x="30" y="36" onmousedown="handleReset()"/>
                <g id="arrowUp" xlink:href="#dirArrow" transform="translate(30 24)" onmousedown="handlePan(0,-1)">
                  <use xlink:href="#rim" fill="#404040">
                        <set attributeName="fill" to="#808080" begin="arrowUp.mouseover" end="arrowUp.mouseout"/>
                  </use>
                  <path fill="none" stroke="white" stroke-width="1.5" d="M0,-3.0v7 M-2.5,-0.5L0,-3.0L2.5,-0.5"/>
                </g>
                <g id="arrowRight" xlink:href="#dirArrow" transform="rotate(90) translate(36 -43)" onmousedown="handlePan(1,0)">
                  <use xlink:href="#rim" fill="#404040">
                        <set attributeName="fill" to="#808080" begin="arrowRight.mouseover" end="arrowRight.mouseout"/>
                  </use>
                  <path fill="none" stroke="white" stroke-width="1.5" d="M0,-3.0v7 M-2.5,-0.5L0,-3.0L2.5,-0.5"/>
                </g>
                <g id="arrowDown" xlink:href="#dirArrow" transform="rotate(180) translate(-30 -48)" onmousedown="handlePan(0,1)">
                  <use xlink:href="#rim" fill="#404040">
                        <set attributeName="fill" to="#808080" begin="arrowDown.mouseover" end="arrowDown.mouseout"/>
                  </use>
                  <path fill="none" stroke="white" stroke-width="1.5" d="M0,-3.0v7 M-2.5,-0.5L0,-3.0L2.5,-0.5"/>
                </g>
                <g id="arrowLeft" xlink:href="#dirArrow" transform="rotate(270) translate(-36 17)" onmousedown="handlePan(-1,0)">
                  <use xlink:href="#rim" fill="#404040">
                        <set attributeName="fill" to="#808080" begin="arrowLeft.mouseover" end="arrowLeft.mouseout"/>
                  </use>
                  <path fill="none" stroke="white" stroke-width="1.5" d="M0,-3.0v7 M-2.5,-0.5L0,-3.0L2.5,-0.5"/>
                </g>
        </g>
        <svg viewBox="0 0 15 15" width="100%" height="30px" preserveAspectRatio="xMaxYMin meet">
         <g id="arrow_out" transform="scale(0.3 0.3)">
          <a xlink:href="structReaktoro_1_1SmartKineticsResult__coll__graph_org.svg" target="_base">
           <rect id="button" ry="5" rx="5" y="6" x="6" height="38" width="38"
                fill="#f2f5e9" fill-opacity="0.5" stroke="#606060" stroke-width="1.0"/>
           <path id="arrow"
             d="M 11.500037,31.436501 C 11.940474,20.09759 22.043105,11.32322 32.158766,21.979434 L 37.068811,17.246167 C 37.068811,17.246167 37.088388,32 37.088388,32 L 22.160133,31.978069 C 22.160133,31.978069 26.997745,27.140456 26.997745,27.140456 C 18.528582,18.264221 13.291696,25.230495 11.500037,31.436501 z"
             style="fill:#404040;"/>
          </a>
         </g>
        </svg>
</svg>
