<?xml version="1.0" encoding="UTF-8" standalone="no"?>
<!DOCTYPE svg PUBLIC "-//W3C//DTD SVG 1.1//EN"
 "http://www.w3.org/Graphics/SVG/1.1/DTD/svg11.dtd">
<!-- Generated by graphviz version 2.49.1 (20211004.0028)
 -->
<!-- Title: ThermoPropsPhaseBaseData&lt; Real, Array &gt; Pages: 1 -->
<svg width="166pt" height="228pt"
 viewBox="0.00 0.00 166.00 228.00" xmlns="http://www.w3.org/2000/svg" xmlns:xlink="http://www.w3.org/1999/xlink">
<g id="graph0" class="graph" transform="scale(1 1) rotate(0) translate(4 224)">
<title>ThermoPropsPhaseBaseData&lt; Real, Array &gt;</title>
<!-- Node1 -->
<g id="node1" class="node">
<title>Node1</title>
<g id="a_node1"><a xlink:title="The base type for primary standard thermodynamic property data of a phase from which others are compu...">
<polygon fill="#bfbfbf" stroke="black" points="0,-0.5 0,-30.5 158,-30.5 158,-0.5 0,-0.5"/>
<text text-anchor="start" x="8" y="-18.5" font-family="Helvetica,sans-Serif" font-size="10.00">ThermoPropsPhaseBaseData</text>
<text text-anchor="middle" x="79" y="-7.5" font-family="Helvetica,sans-Serif" font-size="10.00">&lt; Real, Array &gt;</text>
</a>
</g>
</g>
<!-- Node2 -->
<g id="node2" class="node">
<title>Node2</title>
<g id="a_node2"><a xlink:title=" ">
<polygon fill="none" stroke="#bfbfbf" points="37,-133.5 37,-152.5 121,-152.5 121,-133.5 37,-133.5"/>
<text text-anchor="middle" x="79" y="-140.5" font-family="Helvetica,sans-Serif" font-size="10.00">array&lt; T, N &gt;</text>
</a>
</g>
</g>
<!-- Node2&#45;&gt;Node1 -->
<g id="edge1" class="edge">
<title>Node2&#45;&gt;Node1</title>
<path fill="none" stroke="#9a32cd" stroke-dasharray="5,2" d="M79,-123.26C79,-97.98 79,-53.52 79,-30.77"/>
<polygon fill="#9a32cd" stroke="#9a32cd" points="75.5,-123.37 79,-133.37 82.5,-123.37 75.5,-123.37"/>
<text text-anchor="middle" x="90" y="-107" font-family="Helvetica,sans-Serif" font-size="10.00"> Cp0</text>
<text text-anchor="middle" x="90" y="-96" font-family="Helvetica,sans-Serif" font-size="10.00">G0</text>
<text text-anchor="middle" x="90" y="-85" font-family="Helvetica,sans-Serif" font-size="10.00">H0</text>
<text text-anchor="middle" x="90" y="-74" font-family="Helvetica,sans-Serif" font-size="10.00">V0</text>
<text text-anchor="middle" x="90" y="-63" font-family="Helvetica,sans-Serif" font-size="10.00">VP0</text>
<text text-anchor="middle" x="90" y="-52" font-family="Helvetica,sans-Serif" font-size="10.00">VT0</text>
</g>
<!-- Node3 -->
<g id="node3" class="node">
<title>Node3</title>
<g id="a_node3"><a xlink:title=" ">
<polygon fill="none" stroke="#bfbfbf" points="64.5,-200.5 64.5,-219.5 93.5,-219.5 93.5,-200.5 64.5,-200.5"/>
<text text-anchor="middle" x="79" y="-207.5" font-family="Helvetica,sans-Serif" font-size="10.00">T</text>
</a>
</g>
</g>
<!-- Node3&#45;&gt;Node2 -->
<g id="edge2" class="edge">
<title>Node3&#45;&gt;Node2</title>
<path fill="none" stroke="#9a32cd" stroke-dasharray="5,2" d="M79,-190.04C79,-177.67 79,-162.12 79,-152.63"/>
<polygon fill="#9a32cd" stroke="#9a32cd" points="75.5,-190.23 79,-200.23 82.5,-190.23 75.5,-190.23"/>
<text text-anchor="middle" x="103.5" y="-174" font-family="Helvetica,sans-Serif" font-size="10.00"> elements</text>
</g>
</g>
</svg>
