<?xml version="1.0" encoding="UTF-8" standalone="no"?>
<!DOCTYPE svg PUBLIC "-//W3C//DTD SVG 1.1//EN"
 "http://www.w3.org/Graphics/SVG/1.1/DTD/svg11.dtd">
<!-- Generated by graphviz version 8.1.0 (20230707.2238)
 -->
<!-- Title: EquationModel Pages: 1 -->
<svg width="242pt" height="151pt"
 viewBox="0.00 0.00 241.50 151.25" xmlns="http://www.w3.org/2000/svg" xmlns:xlink="http://www.w3.org/1999/xlink">
<g id="graph0" class="graph" transform="scale(1 1) rotate(0) translate(4 147.25)">
<title>EquationModel</title>
<!-- Node1 -->
<g id="node1" class="node">
<title>Node1</title>
<g id="a_node1"><a xlink:title="The necessary constants , , , &#160;and function &#160;that uniquely define a cubic equation of state.">
<polygon fill="#bfbfbf" stroke="black" points="42,-0.5 42,-21.25 130.75,-21.25 130.75,-0.5 42,-0.5"/>
<text text-anchor="middle" x="86.38" y="-7.75" font-family="Helvetica,sans-Serif" font-size="10.00">EquationModel</text>
</a>
</g>
</g>
<!-- Node2 -->
<g id="node2" class="node">
<title>Node2</title>
<g id="a_node2"><a xlink:href="classReaktoro_1_1Param.html" target="_top" xlink:title="A type used to represent the value of a parameter and its lower and upper bounds.">
<polygon fill="none" stroke="black" points="0,-115.62 0,-136.38 46.75,-136.38 46.75,-115.62 0,-115.62"/>
<text text-anchor="middle" x="23.38" y="-122.88" font-family="Helvetica,sans-Serif" font-size="10.00">Param</text>
</a>
</g>
</g>
<!-- Node2&#45;&gt;Node1 -->
<g id="edge1" class="edge">
<title>Node2&#45;&gt;Node1</title>
<path fill="none" stroke="#9a32cd" stroke-dasharray="5,2" d="M33.72,-106.42C47.42,-81.83 71.03,-39.44 81.32,-20.94"/>
<polygon fill="#9a32cd" stroke="#9a32cd" points="30.34,-104.3 28.53,-114.74 36.45,-107.71 30.34,-104.3"/>
<text text-anchor="middle" x="89.5" y="-81.25" font-family="Helvetica,sans-Serif" font-size="10.00"> Omega</text>
<text text-anchor="middle" x="89.5" y="-68.5" font-family="Helvetica,sans-Serif" font-size="10.00">Psi</text>
<text text-anchor="middle" x="89.5" y="-55.75" font-family="Helvetica,sans-Serif" font-size="10.00">epsilon</text>
<text text-anchor="middle" x="89.5" y="-43" font-family="Helvetica,sans-Serif" font-size="10.00">sigma</text>
</g>
<!-- Node3 -->
<g id="node3" class="node">
<title>Node3</title>
<g id="a_node3"><a xlink:href="classReaktoro_1_1Model.html" target="_top" xlink:title=" ">
<polygon fill="none" stroke="black" points="65.25,-109.25 65.25,-142.75 233.5,-142.75 233.5,-109.25 65.25,-109.25"/>
<text text-anchor="start" x="73.25" y="-129.25" font-family="Helvetica,sans-Serif" font-size="10.00">Model&lt; Alpha(AlphaModelArgs</text>
<text text-anchor="middle" x="149.38" y="-116.5" font-family="Helvetica,sans-Serif" font-size="10.00"> const &amp;)&gt;</text>
</a>
</g>
</g>
<!-- Node3&#45;&gt;Node1 -->
<g id="edge2" class="edge">
<title>Node3&#45;&gt;Node1</title>
<path fill="none" stroke="#9a32cd" stroke-dasharray="5,2" d="M140.86,-99.34C134.42,-81.79 124.6,-58.41 112.38,-39.75 107.95,-33 101.84,-26.35 96.65,-21.24"/>
<polygon fill="#9a32cd" stroke="#9a32cd" points="137.79,-100.16 144.42,-108.42 144.39,-97.83 137.79,-100.16"/>
<text text-anchor="middle" x="156.25" y="-62.12" font-family="Helvetica,sans-Serif" font-size="10.00"> alphafn</text>
</g>
</g>
</svg>
