<?xml version="1.0" encoding="UTF-8" standalone="no"?>
<!DOCTYPE svg PUBLIC "-//W3C//DTD SVG 1.1//EN"
 "http://www.w3.org/Graphics/SVG/1.1/DTD/svg11.dtd">
<!-- Generated by graphviz version 9.0.0 (20231125.0833)
 -->
<!-- Title: Speciate Pages: 1 -->
<svg width="128pt" height="230pt"
 viewBox="0.00 0.00 127.50 229.50" xmlns="http://www.w3.org/2000/svg" xmlns:xlink="http://www.w3.org/1999/xlink">
<g id="graph0" class="graph" transform="scale(1 1) rotate(0) translate(4 225.5)">
<title>Speciate</title>
<!-- Node1 -->
<g id="node1" class="node">
<title>Node1</title>
<g id="a_node1"><a xlink:title="The auxiliary type used to specify phase species to be determined from element symbols.">
<polygon fill="#bfbfbf" stroke="black" points="30.75,-0.5 30.75,-21.25 88.75,-21.25 88.75,-0.5 30.75,-0.5"/>
<text text-anchor="middle" x="59.75" y="-7.75" font-family="Helvetica,sans-Serif" font-size="10.00">Speciate</text>
</a>
</g>
</g>
<!-- Node2 -->
<g id="node2" class="node">
<title>Node2</title>
<g id="a_node2"><a xlink:title=" ">
<polygon fill="none" stroke="#bfbfbf" points="0.75,-71 0.75,-91.75 118.75,-91.75 118.75,-71 0.75,-71"/>
<text text-anchor="middle" x="59.75" y="-78.25" font-family="Helvetica,sans-Serif" font-size="10.00">vector&lt; std::string &gt;</text>
</a>
</g>
</g>
<!-- Node2&#45;&gt;Node1 -->
<g id="edge1" class="edge">
<title>Node2&#45;&gt;Node1</title>
<path fill="none" stroke="#9a32cd" stroke-dasharray="5,2" d="M59.75,-59.26C59.75,-46.73 59.75,-31.43 59.75,-21.67"/>
<polygon fill="#9a32cd" stroke="#9a32cd" points="56.25,-59.05 59.75,-69.05 63.25,-59.05 56.25,-59.05"/>
<text text-anchor="middle" x="81.88" y="-43" font-family="Helvetica,sans-Serif" font-size="10.00"> symbols</text>
</g>
<!-- Node3 -->
<g id="node3" class="node">
<title>Node3</title>
<g id="a_node3"><a xlink:title=" ">
<polygon fill="none" stroke="#bfbfbf" points="37.88,-141.5 37.88,-162.25 81.62,-162.25 81.62,-141.5 37.88,-141.5"/>
<text text-anchor="middle" x="59.75" y="-148.75" font-family="Helvetica,sans-Serif" font-size="10.00">string</text>
</a>
</g>
</g>
<!-- Node3&#45;&gt;Node2 -->
<g id="edge2" class="edge">
<title>Node3&#45;&gt;Node2</title>
<path fill="none" stroke="#9a32cd" stroke-dasharray="5,2" d="M59.75,-129.76C59.75,-117.23 59.75,-101.93 59.75,-92.17"/>
<polygon fill="#9a32cd" stroke="#9a32cd" points="56.25,-129.55 59.75,-139.55 63.25,-129.55 56.25,-129.55"/>
<text text-anchor="middle" x="84.12" y="-113.5" font-family="Helvetica,sans-Serif" font-size="10.00"> elements</text>
</g>
<!-- Node4 -->
<g id="node4" class="node">
<title>Node4</title>
<g id="a_node4"><a xlink:title=" ">
<polygon fill="none" stroke="#bfbfbf" points="0,-200.25 0,-221 119.5,-221 119.5,-200.25 0,-200.25"/>
<text text-anchor="middle" x="59.75" y="-207.5" font-family="Helvetica,sans-Serif" font-size="10.00">basic_string&lt; Char &gt;</text>
</a>
</g>
</g>
<!-- Node4&#45;&gt;Node3 -->
<g id="edge3" class="edge">
<title>Node4&#45;&gt;Node3</title>
<path fill="none" stroke="midnightblue" d="M59.75,-188.56C59.75,-179.72 59.75,-169.85 59.75,-162.74"/>
<polygon fill="midnightblue" stroke="midnightblue" points="56.25,-188.48 59.75,-198.48 63.25,-188.48 56.25,-188.48"/>
</g>
</g>
</svg>
