<?xml version="1.0" encoding="UTF-8" standalone="no"?>
<!DOCTYPE svg PUBLIC "-//W3C//DTD SVG 1.1//EN"
 "http://www.w3.org/Graphics/SVG/1.1/DTD/svg11.dtd">
<!-- Generated by graphviz version 7.1.0 (20230122.1345)
 -->
<!-- Title: ConstraintEquation Pages: 1 -->
<svg width="230pt" height="209pt"
 viewBox="0.00 0.00 230.00 209.00" xmlns="http://www.w3.org/2000/svg" xmlns:xlink="http://www.w3.org/1999/xlink">
<g id="graph0" class="graph" transform="scale(1 1) rotate(0) translate(4 205)">
<title>ConstraintEquation</title>
<!-- Node1 -->
<g id="node1" class="node">
<title>Node1</title>
<g id="a_node1"><a xlink:title="Used to define equation constraints in a chemical equilibrium problem.">
<polygon fill="#bfbfbf" stroke="black" points="40,-0.5 40,-19.5 150,-19.5 150,-0.5 40,-0.5"/>
<text text-anchor="middle" x="95" y="-7.5" font-family="Helvetica,sans-Serif" font-size="10.00">ConstraintEquation</text>
</a>
</g>
</g>
<!-- Node2 -->
<g id="node2" class="node">
<title>Node2</title>
<g id="a_node2"><a xlink:href="structReaktoro_1_1EquationConstraint.html" target="_top" xlink:title="Used to define equation constraints in a chemical equilibrium problem.">
<polygon fill="none" stroke="black" points="40,-57.5 40,-76.5 150,-76.5 150,-57.5 40,-57.5"/>
<text text-anchor="middle" x="95" y="-64.5" font-family="Helvetica,sans-Serif" font-size="10.00">EquationConstraint</text>
</a>
</g>
</g>
<!-- Node2&#45;&gt;Node1 -->
<g id="edge1" class="edge">
<title>Node2&#45;&gt;Node1</title>
<path fill="none" stroke="midnightblue" d="M95,-46.39C95,-37.02 95,-26.31 95,-19.15"/>
<polygon fill="midnightblue" stroke="midnightblue" points="91.5,-46.37 95,-56.37 98.5,-46.37 91.5,-46.37"/>
</g>
<!-- Node3 -->
<g id="node3" class="node">
<title>Node3</title>
<g id="a_node3"><a xlink:href="structReaktoro_1_1EquationConstraintFn.html" target="_top" xlink:title="Used to define the function that evaluates the residual of an equation constraint in a chemical equil...">
<polygon fill="none" stroke="black" points="0,-124.5 0,-143.5 122,-143.5 122,-124.5 0,-124.5"/>
<text text-anchor="middle" x="61" y="-131.5" font-family="Helvetica,sans-Serif" font-size="10.00">EquationConstraintFn</text>
</a>
</g>
</g>
<!-- Node3&#45;&gt;Node2 -->
<g id="edge2" class="edge">
<title>Node3&#45;&gt;Node2</title>
<path fill="none" stroke="#9a32cd" stroke-dasharray="5,2" d="M70.63,-114.58C77.22,-101.99 85.64,-85.89 90.66,-76.29"/>
<polygon fill="#9a32cd" stroke="#9a32cd" points="67.68,-112.68 66.15,-123.16 73.88,-115.92 67.68,-112.68"/>
<text text-anchor="middle" x="86.5" y="-98" font-family="Helvetica,sans-Serif" font-size="10.00"> fn</text>
</g>
<!-- Node4 -->
<g id="node4" class="node">
<title>Node4</title>
<g id="a_node4"><a xlink:title=" ">
<polygon fill="none" stroke="#bfbfbf" points="140,-124.5 140,-143.5 184,-143.5 184,-124.5 140,-124.5"/>
<text text-anchor="middle" x="162" y="-131.5" font-family="Helvetica,sans-Serif" font-size="10.00">string</text>
</a>
</g>
</g>
<!-- Node4&#45;&gt;Node2 -->
<g id="edge3" class="edge">
<title>Node4&#45;&gt;Node2</title>
<path fill="none" stroke="#9a32cd" stroke-dasharray="5,2" d="M145.34,-116.83C132.07,-103.96 114.04,-86.47 103.55,-76.29"/>
<polygon fill="#9a32cd" stroke="#9a32cd" points="142.54,-119 152.15,-123.45 147.41,-113.97 142.54,-119"/>
<text text-anchor="middle" x="138.5" y="-98" font-family="Helvetica,sans-Serif" font-size="10.00"> id</text>
</g>
<!-- Node5 -->
<g id="node5" class="node">
<title>Node5</title>
<g id="a_node5"><a xlink:title=" ">
<polygon fill="none" stroke="#bfbfbf" points="102,-181.5 102,-200.5 222,-200.5 222,-181.5 102,-181.5"/>
<text text-anchor="middle" x="162" y="-188.5" font-family="Helvetica,sans-Serif" font-size="10.00">basic_string&lt; Char &gt;</text>
</a>
</g>
</g>
<!-- Node5&#45;&gt;Node4 -->
<g id="edge4" class="edge">
<title>Node5&#45;&gt;Node4</title>
<path fill="none" stroke="midnightblue" d="M162,-170.39C162,-161.02 162,-150.31 162,-143.15"/>
<polygon fill="midnightblue" stroke="midnightblue" points="158.5,-170.37 162,-180.37 165.5,-170.37 158.5,-170.37"/>
</g>
</g>
</svg>
