<?xml version="1.0" encoding="UTF-8" standalone="no"?>
<!DOCTYPE svg PUBLIC "-//W3C//DTD SVG 1.1//EN"
 "http://www.w3.org/Graphics/SVG/1.1/DTD/svg11.dtd">
<!-- Generated by graphviz version 7.1.0 (20230122.1345)
 -->
<!-- Title: EquationModel Pages: 1 -->
<svg width="242pt" height="139pt"
 viewBox="0.00 0.00 242.00 139.00" xmlns="http://www.w3.org/2000/svg" xmlns:xlink="http://www.w3.org/1999/xlink">
<g id="graph0" class="graph" transform="scale(1 1) rotate(0) translate(4 135)">
<title>EquationModel</title>
<!-- Node1 -->
<g id="node1" class="node">
<title>Node1</title>
<g id="a_node1"><a xlink:title="The necessary constants , , , &#160;and function &#160;that uniquely define a cubic equation of state.">
<polygon fill="#bfbfbf" stroke="black" points="42,-0.5 42,-19.5 131,-19.5 131,-0.5 42,-0.5"/>
<text text-anchor="middle" x="86.5" y="-7.5" font-family="Helvetica,sans-Serif" font-size="10.00">EquationModel</text>
</a>
</g>
</g>
<!-- Node2 -->
<g id="node2" class="node">
<title>Node2</title>
<g id="a_node2"><a xlink:href="classReaktoro_1_1Param.html" target="_top" xlink:title="A type used to represent the value of a parameter and its lower and upper bounds.">
<polygon fill="none" stroke="black" points="0,-106 0,-125 47,-125 47,-106 0,-106"/>
<text text-anchor="middle" x="23.5" y="-113" font-family="Helvetica,sans-Serif" font-size="10.00">Param</text>
</a>
</g>
</g>
<!-- Node2&#45;&gt;Node1 -->
<g id="edge1" class="edge">
<title>Node2&#45;&gt;Node1</title>
<path fill="none" stroke="#9a32cd" stroke-dasharray="5,2" d="M34.59,-96.28C48.38,-73.62 71.33,-35.91 81.45,-19.3"/>
<polygon fill="#9a32cd" stroke="#9a32cd" points="31.65,-94.38 29.44,-104.74 37.63,-98.02 31.65,-94.38"/>
<text text-anchor="middle" x="90" y="-74" font-family="Helvetica,sans-Serif" font-size="10.00"> Omega</text>
<text text-anchor="middle" x="90" y="-63" font-family="Helvetica,sans-Serif" font-size="10.00">Psi</text>
<text text-anchor="middle" x="90" y="-52" font-family="Helvetica,sans-Serif" font-size="10.00">epsilon</text>
<text text-anchor="middle" x="90" y="-41" font-family="Helvetica,sans-Serif" font-size="10.00">sigma</text>
</g>
<!-- Node3 -->
<g id="node3" class="node">
<title>Node3</title>
<g id="a_node3"><a xlink:href="classReaktoro_1_1Model.html" target="_top" xlink:title=" ">
<polygon fill="none" stroke="black" points="65,-100.5 65,-130.5 234,-130.5 234,-100.5 65,-100.5"/>
<text text-anchor="start" x="73" y="-118.5" font-family="Helvetica,sans-Serif" font-size="10.00">Model&lt; Alpha(AlphaModelArgs</text>
<text text-anchor="middle" x="149.5" y="-107.5" font-family="Helvetica,sans-Serif" font-size="10.00"> const &amp;)&gt;</text>
</a>
</g>
</g>
<!-- Node3&#45;&gt;Node1 -->
<g id="edge2" class="edge">
<title>Node3&#45;&gt;Node1</title>
<path fill="none" stroke="#9a32cd" stroke-dasharray="5,2" d="M140.64,-90.32C134.31,-74.66 124.91,-54.23 113.5,-38 108.62,-31.06 101.87,-24.31 96.34,-19.29"/>
<polygon fill="#9a32cd" stroke="#9a32cd" points="137.26,-91.28 144.14,-99.34 143.78,-88.75 137.26,-91.28"/>
<text text-anchor="middle" x="155.5" y="-57.5" font-family="Helvetica,sans-Serif" font-size="10.00"> alphafn</text>
</g>
</g>
</svg>
