<?xml version="1.0" encoding="UTF-8" standalone="no"?>
<!DOCTYPE svg PUBLIC "-//W3C//DTD SVG 1.1//EN"
 "http://www.w3.org/Graphics/SVG/1.1/DTD/svg11.dtd">
<!-- Generated by graphviz version 2.49.1 (20211004.0028)
 -->
<!-- Title: ActivityPropsBase&lt; Real, Array, Extra &gt; Pages: 1 -->
<svg width="124pt" height="184pt"
 viewBox="0.00 0.00 124.00 184.00" xmlns="http://www.w3.org/2000/svg" xmlns:xlink="http://www.w3.org/1999/xlink">
<g id="graph0" class="graph" transform="scale(1 1) rotate(0) translate(4 180)">
<title>ActivityPropsBase&lt; Real, Array, Extra &gt;</title>
<!-- Node1 -->
<g id="node1" class="node">
<title>Node1</title>
<g id="a_node1"><a xlink:title="The base type for the primary activity and corrective thermodynamic properties of a phase.">
<polygon fill="#bfbfbf" stroke="black" points="0,-0.5 0,-30.5 116,-30.5 116,-0.5 0,-0.5"/>
<text text-anchor="start" x="8" y="-18.5" font-family="Helvetica,sans-Serif" font-size="10.00">ActivityPropsBase&lt;</text>
<text text-anchor="middle" x="58" y="-7.5" font-family="Helvetica,sans-Serif" font-size="10.00"> Real, Array, Extra &gt;</text>
</a>
</g>
</g>
<!-- Node2 -->
<g id="node2" class="node">
<title>Node2</title>
<g id="a_node2"><a xlink:title=" ">
<polygon fill="none" stroke="#bfbfbf" points="16,-89.5 16,-108.5 100,-108.5 100,-89.5 16,-89.5"/>
<text text-anchor="middle" x="58" y="-96.5" font-family="Helvetica,sans-Serif" font-size="10.00">array&lt; T, N &gt;</text>
</a>
</g>
</g>
<!-- Node2&#45;&gt;Node1 -->
<g id="edge1" class="edge">
<title>Node2&#45;&gt;Node1</title>
<path fill="none" stroke="#9a32cd" stroke-dasharray="5,2" d="M58,-79.23C58,-64.41 58,-44.05 58,-30.6"/>
<polygon fill="#9a32cd" stroke="#9a32cd" points="54.5,-79.28 58,-89.28 61.5,-79.28 54.5,-79.28"/>
<text text-anchor="middle" x="70" y="-63" font-family="Helvetica,sans-Serif" font-size="10.00"> ln_a</text>
<text text-anchor="middle" x="70" y="-52" font-family="Helvetica,sans-Serif" font-size="10.00">ln_g</text>
</g>
<!-- Node3 -->
<g id="node3" class="node">
<title>Node3</title>
<g id="a_node3"><a xlink:title=" ">
<polygon fill="none" stroke="#bfbfbf" points="43.5,-156.5 43.5,-175.5 72.5,-175.5 72.5,-156.5 43.5,-156.5"/>
<text text-anchor="middle" x="58" y="-163.5" font-family="Helvetica,sans-Serif" font-size="10.00">T</text>
</a>
</g>
</g>
<!-- Node3&#45;&gt;Node2 -->
<g id="edge2" class="edge">
<title>Node3&#45;&gt;Node2</title>
<path fill="none" stroke="#9a32cd" stroke-dasharray="5,2" d="M58,-146.04C58,-133.67 58,-118.12 58,-108.63"/>
<polygon fill="#9a32cd" stroke="#9a32cd" points="54.5,-146.23 58,-156.23 61.5,-146.23 54.5,-146.23"/>
<text text-anchor="middle" x="82.5" y="-130" font-family="Helvetica,sans-Serif" font-size="10.00"> elements</text>
</g>
</g>
</svg>
