<?xml version="1.0" encoding="UTF-8" standalone="no"?>
<!DOCTYPE svg PUBLIC "-//W3C//DTD SVG 1.1//EN"
 "http://www.w3.org/Graphics/SVG/1.1/DTD/svg11.dtd">
<!-- Generated by graphviz version 9.0.0 (20231125.0833)
 -->
<!-- Title: Species::Attribs Pages: 1 -->
<svg width="682pt" height="236pt"
 viewBox="0.00 0.00 682.00 236.12" xmlns="http://www.w3.org/2000/svg" xmlns:xlink="http://www.w3.org/1999/xlink">
<g id="graph0" class="graph" transform="scale(1 1) rotate(0) translate(4 232.12)">
<title>Species::Attribs</title>
<!-- Node1 -->
<g id="node1" class="node">
<title>Node1</title>
<g id="a_node1"><a xlink:title="The attributes of a Species object.">
<polygon fill="#bfbfbf" stroke="black" points="582.25,-99.88 582.25,-120.62 674,-120.62 674,-99.88 582.25,-99.88"/>
<text text-anchor="middle" x="628.12" y="-107.12" font-family="Helvetica,sans-Serif" font-size="10.00">Species::Attribs</text>
</a>
</g>
</g>
<!-- Node2 -->
<g id="node2" class="node">
<title>Node2</title>
<g id="a_node2"><a xlink:href="classReaktoro_1_1ElementalComposition.html" target="_top" xlink:title="A type used to describe the elemental composition of chemical species.">
<polygon fill="none" stroke="black" points="304.12,-206.88 304.12,-227.62 431.12,-227.62 431.12,-206.88 304.12,-206.88"/>
<text text-anchor="middle" x="367.62" y="-214.12" font-family="Helvetica,sans-Serif" font-size="10.00">ElementalComposition</text>
</a>
</g>
</g>
<!-- Node2&#45;&gt;Node1 -->
<g id="edge1" class="edge">
<title>Node2&#45;&gt;Node1</title>
<path fill="none" stroke="#9a32cd" stroke-dasharray="5,2" d="M442.4,-206.72C480.44,-199.18 526.61,-186.64 564.25,-166.25 586.1,-154.41 606.66,-133.6 618,-120.96"/>
<polygon fill="#9a32cd" stroke="#9a32cd" points="442.05,-203.22 432.88,-208.53 443.36,-210.1 442.05,-203.22"/>
<text text-anchor="middle" x="516.25" y="-203.5" font-family="Helvetica,sans-Serif" font-size="10.00"> elements</text>
</g>
<!-- Node3 -->
<g id="node3" class="node">
<title>Node3</title>
<g id="a_node3"><a xlink:href="classReaktoro_1_1FormationReaction.html" target="_top" xlink:title="A class to represent a formation reaction of a chemical species.">
<polygon fill="none" stroke="black" points="313.5,-166.88 313.5,-187.62 421.75,-187.62 421.75,-166.88 313.5,-166.88"/>
<text text-anchor="middle" x="367.62" y="-174.12" font-family="Helvetica,sans-Serif" font-size="10.00">FormationReaction</text>
</a>
</g>
</g>
<!-- Node3&#45;&gt;Node1 -->
<g id="edge2" class="edge">
<title>Node3&#45;&gt;Node1</title>
<path fill="none" stroke="#9a32cd" stroke-dasharray="5,2" d="M421.34,-163.59C469.81,-151.03 540.71,-132.65 585.37,-121.07"/>
<polygon fill="#9a32cd" stroke="#9a32cd" points="420.71,-160.13 411.91,-166.03 422.47,-166.91 420.71,-160.13"/>
<text text-anchor="middle" x="516.25" y="-152.5" font-family="Helvetica,sans-Serif" font-size="10.00"> formation_reaction</text>
</g>
<!-- Node4 -->
<g id="node4" class="node">
<title>Node4</title>
<g id="a_node4"><a xlink:title=" ">
<polygon fill="none" stroke="#bfbfbf" points="156.5,-76.88 156.5,-97.62 200.25,-97.62 200.25,-76.88 156.5,-76.88"/>
<text text-anchor="middle" x="178.38" y="-84.12" font-family="Helvetica,sans-Serif" font-size="10.00">string</text>
</a>
</g>
</g>
<!-- Node4&#45;&gt;Node1 -->
<g id="edge3" class="edge">
<title>Node4&#45;&gt;Node1</title>
<path fill="none" stroke="#9a32cd" stroke-dasharray="5,2" d="M211.64,-95.22C213.87,-95.61 216.09,-95.97 218.25,-96.25 349.41,-113.51 506.14,-113.07 581.82,-111.54"/>
<polygon fill="#9a32cd" stroke="#9a32cd" points="212.61,-91.84 202.11,-93.26 211.2,-98.7 212.61,-91.84"/>
<text text-anchor="middle" x="367.62" y="-140" font-family="Helvetica,sans-Serif" font-size="10.00"> formula</text>
<text text-anchor="middle" x="367.62" y="-127.25" font-family="Helvetica,sans-Serif" font-size="10.00">name</text>
<text text-anchor="middle" x="367.62" y="-114.5" font-family="Helvetica,sans-Serif" font-size="10.00">substance</text>
</g>
<!-- Node7 -->
<g id="node7" class="node">
<title>Node7</title>
<g id="a_node7"><a xlink:title=" ">
<polygon fill="none" stroke="#bfbfbf" points="308.62,-52.88 308.62,-73.62 426.62,-73.62 426.62,-52.88 308.62,-52.88"/>
<text text-anchor="middle" x="367.62" y="-60.12" font-family="Helvetica,sans-Serif" font-size="10.00">vector&lt; std::string &gt;</text>
</a>
</g>
</g>
<!-- Node4&#45;&gt;Node7 -->
<g id="edge7" class="edge">
<title>Node4&#45;&gt;Node7</title>
<path fill="none" stroke="#9a32cd" stroke-dasharray="5,2" d="M211.81,-83.09C238.38,-79.69 276.64,-74.78 308.48,-70.7"/>
<polygon fill="#9a32cd" stroke="#9a32cd" points="211.47,-79.61 201.99,-84.35 212.36,-86.55 211.47,-79.61"/>
<text text-anchor="middle" x="242.62" y="-84.5" font-family="Helvetica,sans-Serif" font-size="10.00"> elements</text>
</g>
<!-- Node5 -->
<g id="node5" class="node">
<title>Node5</title>
<g id="a_node5"><a xlink:title=" ">
<polygon fill="none" stroke="#bfbfbf" points="0,-76.88 0,-97.62 119.5,-97.62 119.5,-76.88 0,-76.88"/>
<text text-anchor="middle" x="59.75" y="-84.12" font-family="Helvetica,sans-Serif" font-size="10.00">basic_string&lt; Char &gt;</text>
</a>
</g>
</g>
<!-- Node5&#45;&gt;Node4 -->
<g id="edge4" class="edge">
<title>Node5&#45;&gt;Node4</title>
<path fill="none" stroke="midnightblue" d="M131.24,-87.25C140.2,-87.25 148.75,-87.25 156.01,-87.25"/>
<polygon fill="midnightblue" stroke="midnightblue" points="131.26,-83.75 121.26,-87.25 131.26,-90.75 131.26,-83.75"/>
</g>
<!-- Node6 -->
<g id="node6" class="node">
<title>Node6</title>
<g id="a_node6"><a xlink:href="classReaktoro_1_1Model.html" target="_top" xlink:title=" ">
<polygon fill="none" stroke="black" points="285,-0.5 285,-34 450.25,-34 450.25,-0.5 285,-0.5"/>
<text text-anchor="start" x="293" y="-20.5" font-family="Helvetica,sans-Serif" font-size="10.00">Model&lt; StandardThermoProps</text>
<text text-anchor="middle" x="367.62" y="-7.75" font-family="Helvetica,sans-Serif" font-size="10.00">(real T, real P)&gt;</text>
</a>
</g>
</g>
<!-- Node6&#45;&gt;Node1 -->
<g id="edge5" class="edge">
<title>Node6&#45;&gt;Node1</title>
<path fill="none" stroke="#9a32cd" stroke-dasharray="5,2" d="M461.74,-21.8C495.41,-26.3 532.84,-34.77 564.25,-50.5 587.68,-62.23 608.31,-85.62 619.12,-99.4"/>
<polygon fill="#9a32cd" stroke="#9a32cd" points="462.34,-18.34 451.99,-20.6 461.49,-25.29 462.34,-18.34"/>
<text text-anchor="middle" x="516.25" y="-54.5" font-family="Helvetica,sans-Serif" font-size="10.00"> std_thermo_model</text>
</g>
<!-- Node7&#45;&gt;Node1 -->
<g id="edge6" class="edge">
<title>Node7&#45;&gt;Node1</title>
<path fill="none" stroke="#9a32cd" stroke-dasharray="5,2" d="M438.18,-65.4C475.96,-67.82 523.2,-72.9 564.25,-83.5 578.72,-87.24 594.18,-93.78 606.15,-99.45"/>
<polygon fill="#9a32cd" stroke="#9a32cd" points="438.48,-61.91 428.29,-64.82 438.07,-68.9 438.48,-61.91"/>
<text text-anchor="middle" x="516.25" y="-86.5" font-family="Helvetica,sans-Serif" font-size="10.00"> tags</text>
</g>
</g>
</svg>
