<?xml version="1.0" encoding="UTF-8" standalone="no"?>
<!DOCTYPE svg PUBLIC "-//W3C//DTD SVG 1.1//EN"
 "http://www.w3.org/Graphics/SVG/1.1/DTD/svg11.dtd">
<!-- Generated by graphviz version 8.1.0 (20230707.2238)
 -->
<!-- Title: ControlVariableP Pages: 1 -->
<svg width="210pt" height="159pt"
 viewBox="0.00 0.00 209.50 159.00" xmlns="http://www.w3.org/2000/svg" xmlns:xlink="http://www.w3.org/1999/xlink">
<g id="graph0" class="graph" transform="scale(1 1) rotate(0) translate(4 155)">
<title>ControlVariableP</title>
<!-- Node1 -->
<g id="node1" class="node">
<title>Node1</title>
<g id="a_node1"><a xlink:title="Used to define a p control variable in a chemical equilibrium problem.">
<polygon fill="#bfbfbf" stroke="black" points="57.25,-0.5 57.25,-21.25 154.25,-21.25 154.25,-0.5 57.25,-0.5"/>
<text text-anchor="middle" x="105.75" y="-7.75" font-family="Helvetica,sans-Serif" font-size="10.00">ControlVariableP</text>
</a>
</g>
</g>
<!-- Node2 -->
<g id="node2" class="node">
<title>Node2</title>
<g id="a_node2"><a xlink:title=" ">
<polygon fill="none" stroke="#bfbfbf" points="37.88,-71 37.88,-91.75 81.62,-91.75 81.62,-71 37.88,-71"/>
<text text-anchor="middle" x="59.75" y="-78.25" font-family="Helvetica,sans-Serif" font-size="10.00">string</text>
</a>
</g>
</g>
<!-- Node2&#45;&gt;Node1 -->
<g id="edge1" class="edge">
<title>Node2&#45;&gt;Node1</title>
<path fill="none" stroke="#9a32cd" stroke-dasharray="5,2" d="M71.85,-62.36C80.79,-49.05 92.58,-31.48 99.64,-20.97"/>
<polygon fill="#9a32cd" stroke="#9a32cd" points="68.62,-59.88 65.95,-70.14 74.43,-63.79 68.62,-59.88"/>
<text text-anchor="middle" x="103.12" y="-43" font-family="Helvetica,sans-Serif" font-size="10.00"> name</text>
</g>
<!-- Node3 -->
<g id="node3" class="node">
<title>Node3</title>
<g id="a_node3"><a xlink:title=" ">
<polygon fill="none" stroke="#bfbfbf" points="0,-129.75 0,-150.5 119.5,-150.5 119.5,-129.75 0,-129.75"/>
<text text-anchor="middle" x="59.75" y="-137" font-family="Helvetica,sans-Serif" font-size="10.00">basic_string&lt; Char &gt;</text>
</a>
</g>
</g>
<!-- Node3&#45;&gt;Node2 -->
<g id="edge2" class="edge">
<title>Node3&#45;&gt;Node2</title>
<path fill="none" stroke="midnightblue" d="M59.75,-118.95C59.75,-109.6 59.75,-98.96 59.75,-91.57"/>
<polygon fill="midnightblue" stroke="midnightblue" points="56.25,-118.75 59.75,-128.75 63.25,-118.75 56.25,-118.75"/>
</g>
<!-- Node4 -->
<g id="node4" class="node">
<title>Node4</title>
<g id="a_node4"><a xlink:href="classReaktoro_1_1ChemicalFormula.html" target="_top" xlink:title="A type used to represent the chemical formula of a chemical species.">
<polygon fill="none" stroke="black" points="100,-71 100,-91.75 201.5,-91.75 201.5,-71 100,-71"/>
<text text-anchor="middle" x="150.75" y="-78.25" font-family="Helvetica,sans-Serif" font-size="10.00">ChemicalFormula</text>
</a>
</g>
</g>
<!-- Node4&#45;&gt;Node1 -->
<g id="edge3" class="edge">
<title>Node4&#45;&gt;Node1</title>
<path fill="none" stroke="#9a32cd" stroke-dasharray="5,2" d="M138.66,-61.97C129.95,-48.71 118.56,-31.38 111.72,-20.97"/>
<polygon fill="#9a32cd" stroke="#9a32cd" points="136.27,-63.7 144.68,-70.14 142.12,-59.86 136.27,-63.7"/>
<text text-anchor="middle" x="158" y="-43" font-family="Helvetica,sans-Serif" font-size="10.00"> substance</text>
</g>
</g>
</svg>
