<?xml version="1.0" encoding="UTF-8" standalone="no"?>
<!DOCTYPE svg PUBLIC "-//W3C//DTD SVG 1.1//EN"
 "http://www.w3.org/Graphics/SVG/1.1/DTD/svg11.dtd">
<!-- Generated by graphviz version 8.1.0 (20230707.2238)
 -->
<!-- Title: SmartEquilibriumResult Pages: 1 -->
<svg width="785pt" height="135pt"
 viewBox="0.00 0.00 784.75 135.12" xmlns="http://www.w3.org/2000/svg" xmlns:xlink="http://www.w3.org/1999/xlink">
<g id="graph0" class="graph" transform="scale(1 1) rotate(0) translate(4 131.12)">
<title>SmartEquilibriumResult</title>
<!-- Node1 -->
<g id="node1" class="node">
<title>Node1</title>
<g id="a_node1"><a xlink:title="Used to describe the result of a smart chemical equilibrium calculation.">
<polygon fill="#bfbfbf" stroke="black" points="645.25,-46.5 645.25,-67.25 776.75,-67.25 776.75,-46.5 645.25,-46.5"/>
<text text-anchor="middle" x="711" y="-53.75" font-family="Helvetica,sans-Serif" font-size="10.00">SmartEquilibriumResult</text>
</a>
</g>
</g>
<!-- Node2 -->
<g id="node2" class="node">
<title>Node2</title>
<g id="a_node2"><a xlink:href="structReaktoro_1_1SmartEquilibriumResultDuringPrediction.html" target="_top" xlink:title="Used to represent the result of a prediction operation in a smart chemical equilibrium calculation.">
<polygon fill="none" stroke="black" points="393.75,-93.12 393.75,-126.62 557.5,-126.62 557.5,-93.12 393.75,-93.12"/>
<text text-anchor="start" x="401.75" y="-113.12" font-family="Helvetica,sans-Serif" font-size="10.00">SmartEquilibriumResultDuring</text>
<text text-anchor="middle" x="475.62" y="-100.38" font-family="Helvetica,sans-Serif" font-size="10.00">Prediction</text>
</a>
</g>
</g>
<!-- Node2&#45;&gt;Node1 -->
<g id="edge1" class="edge">
<title>Node2&#45;&gt;Node1</title>
<path fill="none" stroke="#9a32cd" stroke-dasharray="5,2" d="M560.83,-90.75C595.76,-82.82 634.9,-73.93 664.32,-67.25"/>
<polygon fill="#9a32cd" stroke="#9a32cd" points="560.12,-87.55 551.15,-93.18 561.67,-94.38 560.12,-87.55"/>
<text text-anchor="middle" x="601.38" y="-90.12" font-family="Helvetica,sans-Serif" font-size="10.00"> prediction</text>
</g>
<!-- Node3 -->
<g id="node3" class="node">
<title>Node3</title>
<g id="a_node3"><a xlink:title=" ">
<polygon fill="none" stroke="#bfbfbf" points="185.75,-99.5 185.75,-120.25 229.5,-120.25 229.5,-99.5 185.75,-99.5"/>
<text text-anchor="middle" x="207.62" y="-106.75" font-family="Helvetica,sans-Serif" font-size="10.00">string</text>
</a>
</g>
</g>
<!-- Node3&#45;&gt;Node2 -->
<g id="edge2" class="edge">
<title>Node3&#45;&gt;Node2</title>
<path fill="none" stroke="#9a32cd" stroke-dasharray="5,2" d="M240.29,-109.88C277.96,-109.88 342.26,-109.88 393.98,-109.88"/>
<polygon fill="#9a32cd" stroke="#9a32cd" points="240.5,-106.38 230.5,-109.88 240.5,-113.38 240.5,-106.38"/>
<text text-anchor="middle" x="326.25" y="-113.12" font-family="Helvetica,sans-Serif" font-size="10.00"> failed_with_species</text>
</g>
<!-- Node4 -->
<g id="node4" class="node">
<title>Node4</title>
<g id="a_node4"><a xlink:title=" ">
<polygon fill="none" stroke="#bfbfbf" points="0,-99.5 0,-120.25 119.5,-120.25 119.5,-99.5 0,-99.5"/>
<text text-anchor="middle" x="59.75" y="-106.75" font-family="Helvetica,sans-Serif" font-size="10.00">basic_string&lt; Char &gt;</text>
</a>
</g>
</g>
<!-- Node4&#45;&gt;Node3 -->
<g id="edge3" class="edge">
<title>Node4&#45;&gt;Node3</title>
<path fill="none" stroke="midnightblue" d="M130.15,-109.88C150.51,-109.88 171.24,-109.88 185.97,-109.88"/>
<polygon fill="midnightblue" stroke="midnightblue" points="130.24,-106.38 120.24,-109.88 130.24,-113.38 130.24,-106.38"/>
</g>
<!-- Node5 -->
<g id="node5" class="node">
<title>Node5</title>
<g id="a_node5"><a xlink:href="structReaktoro_1_1SmartEquilibriumResultDuringLearning.html" target="_top" xlink:title="Used to represent the result of a learning operation in a smart chemical equilibrium calculation.">
<polygon fill="none" stroke="black" points="393.75,-40.12 393.75,-73.62 557.5,-73.62 557.5,-40.12 393.75,-40.12"/>
<text text-anchor="start" x="401.75" y="-60.12" font-family="Helvetica,sans-Serif" font-size="10.00">SmartEquilibriumResultDuring</text>
<text text-anchor="middle" x="475.62" y="-47.38" font-family="Helvetica,sans-Serif" font-size="10.00">Learning</text>
</a>
</g>
</g>
<!-- Node5&#45;&gt;Node1 -->
<g id="edge4" class="edge">
<title>Node5&#45;&gt;Node1</title>
<path fill="none" stroke="#9a32cd" stroke-dasharray="5,2" d="M568.22,-56.88C594.07,-56.88 621.65,-56.88 645.54,-56.88"/>
<polygon fill="#9a32cd" stroke="#9a32cd" points="568.27,-53.38 558.27,-56.88 568.27,-60.38 568.27,-53.38"/>
<text text-anchor="middle" x="601.38" y="-60.12" font-family="Helvetica,sans-Serif" font-size="10.00"> learning</text>
</g>
<!-- Node6 -->
<g id="node6" class="node">
<title>Node6</title>
<g id="a_node6"><a xlink:href="structReaktoro_1_1EquilibriumResult.html" target="_top" xlink:title="A type used to describe the result of an equilibrium calculation.">
<polygon fill="none" stroke="black" points="156.5,-46.5 156.5,-67.25 258.75,-67.25 258.75,-46.5 156.5,-46.5"/>
<text text-anchor="middle" x="207.62" y="-53.75" font-family="Helvetica,sans-Serif" font-size="10.00">EquilibriumResult</text>
</a>
</g>
</g>
<!-- Node6&#45;&gt;Node5 -->
<g id="edge5" class="edge">
<title>Node6&#45;&gt;Node5</title>
<path fill="none" stroke="#9a32cd" stroke-dasharray="5,2" d="M269.27,-56.88C306.22,-56.88 353.87,-56.88 393.97,-56.88"/>
<polygon fill="#9a32cd" stroke="#9a32cd" points="269.66,-53.38 259.66,-56.88 269.66,-60.38 269.66,-53.38"/>
<text text-anchor="middle" x="326.25" y="-60.12" font-family="Helvetica,sans-Serif" font-size="10.00"> solve</text>
</g>
<!-- Node7 -->
<g id="node7" class="node">
<title>Node7</title>
<g id="a_node7"><a xlink:href="structReaktoro_1_1SmartEquilibriumTiming.html" target="_top" xlink:title="Used to provide timing information of the operations during a smart chemical equilibrium calculation.">
<polygon fill="none" stroke="black" points="408.38,-0.5 408.38,-21.25 542.88,-21.25 542.88,-0.5 408.38,-0.5"/>
<text text-anchor="middle" x="475.62" y="-7.75" font-family="Helvetica,sans-Serif" font-size="10.00">SmartEquilibriumTiming</text>
</a>
</g>
</g>
<!-- Node7&#45;&gt;Node1 -->
<g id="edge6" class="edge">
<title>Node7&#45;&gt;Node1</title>
<path fill="none" stroke="#9a32cd" stroke-dasharray="5,2" d="M541.07,-23.27C567.75,-28.44 599,-34.52 627.25,-40.12 637.6,-42.18 648.68,-44.4 659.25,-46.54"/>
<polygon fill="#9a32cd" stroke="#9a32cd" points="541.81,-19.66 531.32,-21.2 540.48,-26.53 541.81,-19.66"/>
<text text-anchor="middle" x="601.38" y="-44.12" font-family="Helvetica,sans-Serif" font-size="10.00"> timing</text>
</g>
</g>
</svg>
